<svg width="31" height="30" viewBox="0 0 31 30" fill="none" xmlns="http://www.w3.org/2000/svg">
<mask id="mask0_4215_3574" style="mask-type:luminance" maskUnits="userSpaceOnUse" x="0" y="0" width="31" height="30">
<path d="M0 0H30.735V29.9633H0V0Z" fill="white"/>
</mask>
<g mask="url(#mask0_4215_3574)">
<path d="M30.6713 4.59739C30.5753 3.29548 29.5336 2.14671 28.2419 1.94245C27.8595 1.88716 27.4752 1.8564 27.0889 1.85038C26.4558 1.83512 25.8187 1.85038 25.1814 1.84437C25.0486 1.84437 24.9119 1.84437 24.7791 1.83003C24.7597 1.83026 24.741 1.82656 24.7231 1.81892C24.7051 1.81152 24.6896 1.80065 24.6762 1.78677C24.6628 1.77266 24.6526 1.75646 24.6459 1.73842C24.6389 1.72015 24.6362 1.70141 24.6371 1.68198C24.6311 1.42983 24.6452 1.17861 24.6197 0.932478C24.5584 0.361564 24.2001 0.0316918 23.6292 0C23.5547 0 23.4761 0 23.3974 0C18.0968 0.00138793 12.7946 0.00208194 7.49069 0.00208194C7.31696 0.00231325 7.14439 0.0159616 6.97275 0.0430268C6.59291 0.10641 6.3602 0.349303 6.23667 0.696525C6.16958 0.902406 6.14159 1.11338 6.15293 1.32967C6.15779 1.4643 6.15085 1.59847 6.13234 1.73194C6.12401 1.75785 6.11013 1.78029 6.09093 1.79926C6.0715 1.81846 6.04906 1.83211 6.02315 1.8402C5.90842 1.8527 5.79345 1.8564 5.67801 1.85154H3.12509C2.90279 1.84668 2.6828 1.86681 2.46535 1.91238C2.24767 1.95795 2.03809 2.02758 1.83637 2.12104C0.790773 2.6399 0.173825 3.4854 0.0840699 4.65268C-0.0426971 6.28538 0.307763 7.83157 1.04292 9.29471C1.55346 10.3017 2.18058 11.2166 3.06379 11.9406C3.47486 12.2772 3.91207 12.5758 4.37495 12.8366C4.83784 13.0973 5.31992 13.3161 5.82097 13.4928C6.43353 13.7255 7.06366 13.8921 7.71114 13.9923C7.77337 13.998 7.83398 14.0115 7.89297 14.0321C7.95196 14.0524 8.00747 14.0799 8.05999 14.1139C8.11227 14.1479 8.15992 14.1877 8.20271 14.2333C8.24528 14.2789 8.28206 14.3288 8.31259 14.3834C8.35354 14.4496 8.39749 14.5141 8.44029 14.5773C9.30614 15.8029 10.401 16.7432 11.7908 17.3285C12.0911 17.4564 12.395 17.5753 12.7027 17.6847C12.8875 17.7511 12.9886 17.8492 12.9773 18.0636C12.9488 18.6017 12.9519 19.1441 12.9049 19.6792C12.8026 20.8229 12.4503 21.8625 11.6284 22.705C11.5875 22.7457 11.2403 23.0663 11.2026 23.0929L11.1912 23.101C10.9571 23.1963 10.7138 23.2393 10.4612 23.2298C10.1732 23.2185 9.8833 23.2194 9.5953 23.2298C8.98252 23.2502 8.63229 23.584 8.58232 24.1896C8.56173 24.4387 8.57515 24.69 8.56798 24.9403C8.56081 25.1505 8.54554 25.3599 8.53421 25.5692C8.32393 25.7101 8.08589 25.609 7.86428 25.647C7.84485 25.6479 7.82565 25.6479 7.80622 25.647C7.13121 25.6826 6.73795 26.037 6.64612 26.6977C6.63039 26.8122 6.62298 26.9271 6.62368 27.0428C6.62368 27.5626 6.62368 28.0824 6.62368 28.6022C6.62437 28.7757 6.6401 28.948 6.67064 29.119C6.67897 29.1712 6.69146 29.2226 6.70811 29.2728C6.72477 29.3232 6.74536 29.3718 6.77011 29.4188C6.79486 29.4655 6.82308 29.5101 6.85524 29.5525C6.88716 29.5946 6.92255 29.6339 6.96095 29.6704C6.99935 29.707 7.04053 29.7401 7.08448 29.7697C7.12843 29.7993 7.17447 29.8252 7.22258 29.8474C7.2707 29.8696 7.32043 29.8877 7.37156 29.9015C7.42268 29.9156 7.47473 29.9254 7.52724 29.9307C7.71924 29.9517 7.91147 29.9598 8.1044 29.9552H22.6049C22.7592 29.9552 22.9114 29.9552 23.0666 29.9409C23.6373 29.8828 24.0285 29.515 24.0877 28.9482C24.118 28.6026 24.1279 28.2566 24.1173 27.9098C24.1122 27.5013 24.1541 27.102 24.0847 26.6997C23.9755 26.0604 23.6139 25.7101 22.9727 25.6509C22.7816 25.6336 22.5875 25.6366 22.3955 25.6377C22.2547 25.6377 22.1802 25.5824 22.1802 25.4335C22.1802 25.0485 22.1954 24.6624 22.1802 24.2775C22.1476 23.6432 21.7992 23.2858 21.1723 23.2317C20.9224 23.2127 20.6722 23.2079 20.4216 23.2176C20.2481 23.2238 20.0767 23.2069 19.9076 23.1674C19.7385 23.1276 19.5777 23.0665 19.4251 22.9837C19.4251 22.9837 18.9992 22.5608 18.9615 22.5405C18.7514 22.3006 18.5696 22.041 18.4158 21.7616C18.262 21.4824 18.1401 21.1898 18.0496 20.8842C17.9157 20.4012 17.8842 19.8966 17.8382 19.3993C17.7942 18.9214 17.8289 18.4374 17.8238 17.9544C17.8215 17.9207 17.8252 17.8876 17.8354 17.8554C17.8456 17.823 17.8611 17.7937 17.8824 17.7675C17.9036 17.7411 17.9289 17.7196 17.9582 17.7027C17.9876 17.6861 18.0191 17.6752 18.0526 17.6706C18.1618 17.6389 18.2691 17.5919 18.3762 17.5519C20.1123 16.9086 21.4857 15.7996 22.5397 14.2914C22.5901 14.209 22.6556 14.141 22.7361 14.0876C22.8166 14.0339 22.9047 13.9999 23.0002 13.9851C23.7245 13.8611 24.4254 13.6571 25.1028 13.3723C26.5213 12.8106 27.7894 12.0234 28.7249 10.7868C30.1066 8.96299 30.8387 6.91968 30.6713 4.59739ZM6.56122 10.127C6.51472 10.143 6.46707 10.1485 6.41826 10.1441C6.36922 10.1397 6.32342 10.1256 6.28039 10.1016C5.29309 9.7074 4.54451 9.05598 4.07677 8.09181C3.97383 7.88015 3.88546 7.66224 3.81213 7.43854C3.7388 7.21462 3.68097 6.98699 3.63864 6.75521C3.59654 6.52365 3.57016 6.29001 3.55975 6.05475C3.54911 5.81949 3.5549 5.58446 3.57641 5.35013C3.59677 5.13569 3.65414 5.08664 3.86534 5.08965C4.53734 5.10076 5.21235 5.11001 5.8832 5.12435C6.21724 5.12944 6.21423 5.13569 6.23158 5.49193C6.26929 6.27613 6.29797 7.06356 6.35603 7.85193C6.39582 8.42469 6.4828 8.9956 6.54387 9.5686C6.56122 9.75343 6.63987 9.94219 6.56122 10.127ZM18.07 22.9305C18.1162 22.9638 18.1646 22.9939 18.215 23.0205H18.2201C17.4389 22.9918 16.6577 22.996 15.8714 23.0112C14.7685 23.0327 13.6616 22.9347 12.5618 23.0624C12.693 22.9539 12.8091 22.8308 12.91 22.6936C13.1797 22.336 13.384 21.9441 13.5228 21.5182C13.7941 20.7074 13.9304 19.8744 13.9311 19.0195C13.9311 18.2792 13.9361 18.2843 14.6459 18.3047C15.1872 18.319 15.7285 18.3507 16.2645 18.273C16.6494 18.2179 16.8058 18.3537 16.7914 18.7305C16.7681 19.2716 16.8578 19.8078 16.9302 20.3399C17.0713 21.3038 17.3175 22.23 18.07 22.9305ZM27.1706 6.49889C27.0022 7.57109 26.5999 8.52902 25.7748 9.27042C25.5261 9.48625 25.2589 9.67594 24.973 9.83925C24.6871 10.0026 24.3877 10.1363 24.0754 10.2404C24.263 9.13602 24.393 8.02519 24.4655 6.90742C24.5004 6.38948 24.5177 5.87084 24.5462 5.35313C24.5584 5.17039 24.6188 5.107 24.7923 5.107C25.5411 5.10076 26.2902 5.09775 27.039 5.09775C27.1634 5.09775 27.1981 5.2 27.2032 5.29183C27.2391 5.6955 27.2282 6.09777 27.1706 6.49889Z" fill="#060B09"/>
</g>
<path d="M15.3959 0.914733C17.9407 0.914733 20.4844 0.914733 23.0292 0.914733C23.8042 0.914733 23.744 0.838164 23.7369 1.63763C23.7288 2.89073 23.7297 4.14475 23.6869 5.39669C23.6485 6.95976 23.4958 8.5115 23.2293 10.0521C22.9853 11.3797 22.5818 12.6652 21.8171 13.811C20.6702 15.5297 19.0886 16.6274 17.0839 17.0718C14.5738 17.6283 12.3058 17.0604 10.3176 15.4296C9.6088 14.8487 9.09225 14.1022 8.63584 13.3127C8.06492 12.3365 7.7413 11.2703 7.50234 10.1747C7.32052 9.34659 7.25621 8.49994 7.18056 7.66045C6.98972 5.54566 7.02442 3.42463 7.02326 1.30475C7.02233 1.22772 7.02719 1.15115 7.0376 1.07504C7.03853 1.05538 7.04292 1.03664 7.05079 1.0186C7.05865 1.00056 7.06929 0.984594 7.08294 0.970251C7.09659 0.95614 7.11209 0.944805 7.1299 0.936246C7.14748 0.927687 7.16622 0.922598 7.18565 0.920747C7.37673 0.907562 7.56965 0.900391 7.76166 0.900391H15.3959V0.914733Z" fill="#00CED1"/>
<path d="M7.50701 13.0295C7.40893 13.0383 7.31085 13.0383 7.21276 13.0295C5.39315 12.621 3.81434 11.8042 2.64915 10.304C1.76802 9.17054 1.25124 7.87766 1.02038 6.46448C0.935248 5.94955 0.901243 5.43161 0.918361 4.9102C0.962313 3.64993 1.82308 2.7658 3.07919 2.73711C3.99825 2.71167 4.92841 2.72693 5.85256 2.72994C6.12229 2.72994 6.13964 2.75539 6.15907 3.02511C6.16046 3.04408 6.16046 3.06328 6.15907 3.08225C6.14982 3.46209 6.26109 3.84702 6.10795 4.22084C5.76674 4.30666 5.41975 4.25253 5.07554 4.2597C4.63231 4.26988 4.18909 4.25346 3.74795 4.26479C3.18027 4.27914 2.9626 4.46906 2.82889 5.03072C2.76481 5.35388 2.74584 5.67959 2.77175 6.00784C2.82496 7.0465 3.06785 8.0257 3.65311 8.89781C4.3383 9.91911 5.23885 10.6725 6.4244 11.0556C6.49704 11.0801 6.57245 11.0984 6.64601 11.1199C6.67932 11.1266 6.71078 11.138 6.74039 11.1539C6.77024 11.1699 6.79707 11.19 6.8209 11.2141C6.84472 11.2379 6.86439 11.265 6.88035 11.2948C6.89608 11.3247 6.90718 11.3563 6.91366 11.3894C7.0351 11.9358 7.26389 12.4454 7.50701 13.0295Z" fill="#00CED1"/>
<path d="M23.2598 12.9969C23.4918 12.4882 23.6759 11.9626 23.8122 11.4201C23.8191 11.3827 23.8309 11.3468 23.848 11.3126C23.8651 11.2786 23.8867 11.2476 23.9126 11.2196C23.9385 11.1916 23.9679 11.1678 24.0007 11.1483C24.0336 11.1287 24.0683 11.1141 24.1053 11.1046C24.3421 11.026 24.5802 10.9464 24.809 10.8462C26.4662 10.1192 27.4354 8.82952 27.8581 7.09758C27.9807 6.52921 28.0221 5.95505 27.9828 5.37489C27.974 5.22082 27.9467 5.07 27.9011 4.92241C27.7632 4.45074 27.562 4.28117 27.079 4.26382C26.6175 4.24647 26.1599 4.25874 25.6922 4.25781C25.3859 4.25781 25.0796 4.25781 24.7731 4.25781C24.7613 4.2592 24.7493 4.2592 24.7372 4.25804C24.7252 4.25665 24.7137 4.25411 24.7023 4.25041C24.6908 4.24647 24.6801 4.24139 24.6697 4.23491C24.6595 4.22866 24.65 4.22126 24.6415 4.21293C24.6329 4.20437 24.6255 4.19512 24.6188 4.18494C24.6123 4.17499 24.6072 4.16412 24.6031 4.15279C24.5989 4.14145 24.5961 4.12989 24.5948 4.11786C24.5934 4.10606 24.5931 4.09403 24.5945 4.082C24.6012 3.67764 24.6119 3.27375 24.6262 2.86985C24.6262 2.78102 24.6965 2.74123 24.7812 2.73614C24.8661 2.73105 24.9355 2.72897 25.0121 2.72897H27.3239C27.6145 2.72411 27.9006 2.75812 28.1819 2.83122C29.005 3.05676 29.5717 3.53075 29.7668 4.40378C29.872 4.91779 29.8889 5.43503 29.8176 5.95482C29.7806 6.30968 29.7214 6.66106 29.6402 7.00829C29.559 7.35574 29.4563 7.69695 29.3323 8.03144C29.2083 8.36594 29.0638 8.69142 28.8986 9.00787C28.7337 9.3241 28.5495 9.62899 28.3462 9.92208C27.469 11.1812 26.2682 12.0186 24.8619 12.5823C24.4534 12.7468 24.0266 12.8703 23.6058 13.0091C23.551 13.0369 23.4927 13.0496 23.4312 13.0475C23.3699 13.0452 23.3125 13.0286 23.2598 12.9969Z" fill="#00CED1"/>
<path d="M18.3558 23.023C18.3731 23.0977 18.3905 23.1854 18.2975 23.2099C18.2031 23.2289 18.1078 23.2354 18.0116 23.2294C16.2266 23.2294 14.4417 23.2278 12.6566 23.2243C12.5166 23.2243 12.342 23.2928 12.248 23.1028C12.8495 22.6339 13.1773 21.9897 13.4031 21.2851C13.6311 20.5256 13.7491 19.7495 13.7575 18.9568C13.7656 18.7067 13.7646 18.4573 13.7757 18.2073C13.782 18.0601 13.8544 18.003 13.9973 18.0245C14.3011 18.0837 14.6073 18.1219 14.9164 18.1388C15.4757 18.1793 16.0307 18.145 16.581 18.0368C16.6935 18.0173 16.8068 18.0051 16.9211 18C17.0557 18.1561 17.0016 18.3359 17.0048 18.5013C17.0189 19.3102 17.0395 20.119 17.2223 20.9092C17.2979 21.9305 18.3375 22.9384 18.3548 23.0108L18.3558 23.023Z" fill="#00CED1"/>
<path d="M15.3562 26.5605C17.7069 26.5605 20.0584 26.5605 22.4105 26.5605C23.2183 26.5605 23.2192 26.5666 23.2273 27.3519C23.2273 27.6797 23.2324 28.0075 23.2273 28.3353C23.2206 28.4889 23.2023 28.6411 23.1723 28.7917C23.1674 28.8204 23.1584 28.8477 23.1452 28.8734C23.132 28.8993 23.1154 28.9226 23.095 28.9432C23.0744 28.9638 23.0515 28.9809 23.0258 28.9946C23.0002 29.008 22.9731 29.0175 22.9446 29.0226C22.6795 29.0783 22.4117 29.101 22.1408 29.091C18.4028 29.091 14.6638 29.091 10.9242 29.091C10.4229 29.091 9.9214 29.0776 9.42104 29.091C8.89824 29.1105 8.38354 29.0339 7.86491 29.0103C7.66064 29.001 7.60651 28.9397 7.55863 28.7315C7.54822 28.6943 7.54105 28.6566 7.53712 28.6182C7.48969 28.0026 7.51421 27.3899 7.61068 26.7801C7.61299 26.7512 7.62039 26.7236 7.63312 26.6975C7.64584 26.6714 7.66296 26.6487 7.68447 26.629C7.70575 26.6094 7.73004 26.5943 7.75711 26.5839C7.7844 26.5735 7.81239 26.5684 7.84131 26.5686C7.99561 26.5605 8.14782 26.5605 8.30396 26.5605H15.3583H15.3562Z" fill="#00CED1"/>
<path d="M20.7531 24.057C21.2453 24.057 21.2708 24.0887 21.2759 24.5828C21.2759 24.8718 21.2708 25.1598 21.2585 25.4489C21.2583 25.4732 21.2534 25.4966 21.2442 25.5192C21.2347 25.5417 21.2215 25.5616 21.2041 25.5789C21.187 25.5963 21.1674 25.6097 21.1449 25.6194C21.1225 25.6291 21.0991 25.6342 21.0748 25.6347C20.9215 25.646 20.7683 25.649 20.6131 25.649L10.044 25.655C9.43124 25.655 9.45691 25.6694 9.45992 25.0425C9.45992 24.831 9.45992 24.6187 9.45992 24.4073C9.46917 24.0906 9.50272 24.061 9.83883 24.0508C9.9154 24.0508 9.9929 24.0508 10.0695 24.0508C11.8444 24.0529 19.5786 24.0672 20.7531 24.057Z" fill="white"/>
</svg>
