<svg width="53" height="65" viewBox="0 0 53 65" fill="none" xmlns="http://www.w3.org/2000/svg">
<mask id="mask0_4209_1636" style="mask-type:luminance" maskUnits="userSpaceOnUse" x="0" y="0" width="53" height="65">
<path d="M0 0H52.8208V65H0V0Z" fill="white"/>
</mask>
<g mask="url(#mask0_4209_1636)">
<path d="M49.0182 65.0033H3.79978C3.67544 65.0033 3.55158 64.997 3.42821 64.9848C3.30484 64.9722 3.18244 64.9542 3.06053 64.9299C2.9391 64.9056 2.81864 64.875 2.70013 64.8391C2.58113 64.8032 2.46456 64.7614 2.34993 64.7138C2.2353 64.6662 2.12359 64.6132 2.01382 64.5545C1.90453 64.4957 1.79816 64.4321 1.69519 64.3631C1.59222 64.2941 1.49265 64.2203 1.39648 64.1416C1.30079 64.0629 1.20899 63.9794 1.12108 63.892C1.03316 63.804 0.950105 63.7122 0.87142 63.6161C0.792734 63.5204 0.718906 63.4208 0.649935 63.3174C0.580964 63.2144 0.517335 63.108 0.458564 62.9987C0.400279 62.889 0.34685 62.7772 0.29925 62.6626C0.252136 62.548 0.209879 62.4309 0.173936 62.3124C0.137994 62.1934 0.10788 62.0734 0.0835939 61.9515C0.0593084 61.8301 0.0408512 61.7072 0.0287084 61.5839C0.01608 61.4605 0.0102513 61.3366 0.00976562 61.2123V3.85885C0.0102513 3.73499 0.01608 3.61114 0.0287084 3.48777C0.0408512 3.36391 0.0588227 3.24151 0.0831082 3.1196C0.107394 2.99768 0.137508 2.87771 0.173936 2.75871C0.209879 2.6402 0.251651 2.52314 0.29925 2.40851C0.34685 2.29388 0.399793 2.18168 0.458078 2.0724C0.51685 1.96311 0.580478 1.85674 0.649449 1.75329C0.71842 1.65032 0.792249 1.55074 0.870934 1.45457C0.949619 1.3584 1.03316 1.2666 1.12059 1.17869C1.2085 1.09126 1.3003 1.00772 1.39599 0.929032C1.49216 0.850346 1.59173 0.776518 1.6947 0.707061C1.79816 0.63809 1.90404 0.574462 2.01382 0.51569C2.1231 0.457405 2.2353 0.403976 2.34993 0.356377C2.46456 0.308777 2.58113 0.267006 2.69964 0.231063C2.81864 0.194634 2.93861 0.16452 3.06053 0.140235C3.18195 0.115949 3.30484 0.0974918 3.42821 0.085349C3.55158 0.0732063 3.67544 0.0668921 3.79978 0.0664062H38.3505C38.4024 0.0664062 38.4539 0.0717491 38.5049 0.0819491C38.5559 0.0921491 38.6055 0.107206 38.6535 0.12712C38.7016 0.147035 38.7468 0.17132 38.79 0.199977C38.8333 0.22912 38.8736 0.261663 38.91 0.298577C38.9469 0.335491 38.9799 0.37532 39.0086 0.418548C39.0377 0.461776 39.062 0.507433 39.0819 0.555519C39.1019 0.603604 39.1169 0.653147 39.1271 0.704147C39.1368 0.755147 39.1422 0.806632 39.1422 0.858604C39.1422 0.910575 39.1368 0.96206 39.1271 1.01306C39.1169 1.06406 39.1019 1.1136 39.0819 1.16169C39.062 1.20977 39.0377 1.25543 39.0086 1.29866C38.9799 1.34189 38.9469 1.38172 38.91 1.41863C38.8736 1.45506 38.8333 1.48809 38.79 1.51674C38.7468 1.54589 38.7016 1.57017 38.6535 1.59009C38.6055 1.61 38.5559 1.62506 38.5049 1.63526C38.4539 1.64546 38.4024 1.65032 38.3505 1.65032H3.79978C3.72741 1.65032 3.65552 1.6542 3.58364 1.66149C3.51175 1.66877 3.44035 1.67897 3.36944 1.69354C3.29853 1.70763 3.22858 1.72511 3.15961 1.746C3.09015 1.76737 3.02216 1.79166 2.95561 1.81934C2.88907 1.84703 2.8235 1.87811 2.75987 1.91211C2.69624 1.94611 2.63456 1.98351 2.57433 2.02334C2.5141 2.06366 2.4563 2.10688 2.40044 2.15254C2.34459 2.19868 2.29116 2.24677 2.24016 2.29826C2.18916 2.34926 2.14059 2.40268 2.09493 2.45854C2.04879 2.5144 2.00604 2.5722 1.96573 2.63243C1.9259 2.69265 1.8885 2.75434 1.8545 2.81797C1.8205 2.88208 1.78942 2.94717 1.76173 3.01371C1.73405 3.08074 1.70976 3.14874 1.68887 3.21771C1.66799 3.28717 1.65002 3.35711 1.63593 3.42802C1.62185 3.49845 1.61116 3.56985 1.60436 3.64222C1.59707 3.71411 1.59319 3.78599 1.59319 3.85836V61.2123C1.59319 61.2847 1.59707 61.3565 1.60436 61.4284C1.61116 61.5008 1.62185 61.5717 1.63593 61.6426C1.65002 61.7135 1.66799 61.7835 1.68887 61.8529C1.70976 61.9219 1.73405 61.9899 1.76173 62.0564C1.78942 62.1235 1.8205 62.1886 1.8545 62.2522C1.8885 62.3158 1.9259 62.378 1.96573 62.4382C2.00604 62.498 2.04879 62.5562 2.09493 62.6121C2.14059 62.668 2.18916 62.7214 2.24016 62.7724C2.29116 62.8234 2.34459 62.872 2.40044 62.9176C2.4563 62.9638 2.51459 63.0065 2.57433 63.0468C2.63456 63.0871 2.69624 63.124 2.75987 63.158C2.82398 63.192 2.88907 63.2231 2.95561 63.2508C3.02264 63.2785 3.09015 63.3028 3.15961 63.3237C3.22858 63.345 3.29853 63.3625 3.36944 63.3766C3.44035 63.3907 3.51175 63.4014 3.58364 63.4087C3.65552 63.416 3.72741 63.4194 3.79978 63.4194H49.0182C49.0905 63.4194 49.1624 63.416 49.2343 63.4087C49.3062 63.4014 49.3776 63.3907 49.4485 63.3766C49.5194 63.3625 49.5894 63.345 49.6583 63.3242C49.7278 63.3033 49.7958 63.2785 49.8623 63.2508C49.9294 63.2231 49.9944 63.1925 50.0581 63.1585C50.1217 63.1245 50.1839 63.0871 50.2436 63.0468C50.3038 63.007 50.3616 62.9638 50.4175 62.9181C50.4734 62.872 50.5273 62.8239 50.5783 62.7724C50.6293 62.7214 50.6778 62.668 50.7235 62.6121C50.7696 62.5562 50.8124 62.4984 50.8527 62.4382C50.893 62.378 50.9299 62.3163 50.9639 62.2527C50.9979 62.189 51.029 62.1235 51.0567 62.0569C51.0844 61.9899 51.1087 61.9219 51.1296 61.8529C51.1509 61.784 51.1684 61.714 51.1825 61.6431C51.1966 61.5722 51.2073 61.5008 51.2146 61.4289C51.2218 61.357 51.2252 61.2847 51.2252 61.2123V14.5309C51.2252 14.479 51.2306 14.4275 51.2408 14.3765C51.2505 14.3255 51.2656 14.2759 51.2855 14.2278C51.3054 14.1798 51.3297 14.1341 51.3588 14.0909C51.3875 14.0476 51.4205 14.0078 51.4574 13.9709C51.4938 13.934 51.5342 13.9014 51.5774 13.8723C51.6206 13.8436 51.6658 13.8194 51.7139 13.7994C51.762 13.7795 51.8115 13.7645 51.8625 13.7543C51.9135 13.7441 51.965 13.7387 52.017 13.7387C52.0689 13.7387 52.1204 13.7441 52.1714 13.7543C52.2224 13.7645 52.272 13.7795 52.32 13.7994C52.3681 13.8194 52.4138 13.8436 52.457 13.8723C52.5002 13.9014 52.5401 13.934 52.577 13.9709C52.6134 14.0078 52.6464 14.0476 52.6751 14.0909C52.7042 14.1341 52.7285 14.1798 52.7484 14.2278C52.7684 14.2759 52.7834 14.3255 52.7936 14.3765C52.8038 14.4275 52.8087 14.479 52.8087 14.5309V61.2123C52.8087 61.3366 52.8024 61.4605 52.7902 61.5839C52.7776 61.7072 52.7596 61.8301 52.7353 61.952C52.711 62.0734 52.6804 62.1939 52.6445 62.3124C52.6086 62.4314 52.5668 62.548 52.5192 62.6626C52.4716 62.7772 52.4186 62.8894 52.3599 62.9987C52.3016 63.1085 52.2375 63.2144 52.1685 63.3178C52.0995 63.4208 52.0257 63.5204 51.947 63.6166C51.8683 63.7122 51.7848 63.8045 51.6974 63.892C51.6094 63.9799 51.5176 64.0629 51.422 64.1421C51.3258 64.2208 51.2262 64.2946 51.1232 64.3636C51.0198 64.4326 50.9134 64.4962 50.8041 64.555C50.6948 64.6132 50.5826 64.6662 50.468 64.7138C50.3534 64.7614 50.2368 64.8032 50.1178 64.8396C49.9993 64.8755 49.8788 64.9056 49.7574 64.9299C49.6355 64.9542 49.5131 64.9727 49.3897 64.9848C49.2659 64.997 49.1425 65.0033 49.0182 65.0033Z" fill="black"/>
</g>
<path d="M32.2757 17.3412H6.99484C6.94287 17.3412 6.89138 17.3364 6.84038 17.3262C6.78938 17.316 6.73984 17.3009 6.69175 17.281C6.64367 17.2611 6.59801 17.2368 6.55478 17.2082C6.51155 17.179 6.47172 17.1465 6.43481 17.1096C6.39838 17.0726 6.36535 17.0328 6.3367 16.9896C6.30755 16.9464 6.28327 16.9007 6.26335 16.8526C6.24344 16.8045 6.22838 16.755 6.21818 16.704C6.20798 16.653 6.20312 16.6015 6.20312 16.5495C6.20312 16.4976 6.20798 16.4461 6.21818 16.3951C6.22838 16.3441 6.24344 16.2945 6.26335 16.2464C6.28327 16.1984 6.30755 16.1527 6.3367 16.1095C6.36535 16.0662 6.39838 16.0264 6.43481 15.9895C6.47172 15.9526 6.51155 15.92 6.55478 15.8909C6.59801 15.8622 6.64367 15.838 6.69175 15.818C6.73984 15.7981 6.78938 15.7831 6.84038 15.7729C6.89138 15.7627 6.94287 15.7578 6.99484 15.7578H32.2757C32.3277 15.7578 32.3791 15.7627 32.4301 15.7729C32.4811 15.7831 32.5307 15.7981 32.5788 15.818C32.6269 15.838 32.6725 15.8622 32.7157 15.8909C32.759 15.92 32.7988 15.9526 32.8357 15.9895C32.8726 16.0264 32.9052 16.0662 32.9343 16.1095C32.963 16.1527 32.9873 16.1984 33.0072 16.2464C33.0271 16.2945 33.0421 16.3441 33.0523 16.3951C33.0625 16.4461 33.0674 16.4976 33.0674 16.5495C33.0674 16.6015 33.0625 16.653 33.0523 16.704C33.0421 16.755 33.0271 16.8045 33.0072 16.8526C32.9873 16.9007 32.963 16.9464 32.9343 16.9896C32.9052 17.0328 32.8726 17.0726 32.8357 17.1096C32.7988 17.1465 32.759 17.179 32.7157 17.2082C32.6725 17.2368 32.6269 17.2611 32.5788 17.281C32.5307 17.3009 32.4811 17.316 32.4301 17.3262C32.3791 17.3364 32.3277 17.3412 32.2757 17.3412Z" fill="black"/>
<path d="M32.2757 9.34758H6.99484C6.94287 9.34758 6.89138 9.34224 6.84038 9.33204C6.78938 9.32232 6.73984 9.30727 6.69175 9.28735C6.64367 9.26744 6.59801 9.24267 6.55478 9.21401C6.51155 9.18487 6.47172 9.15232 6.43481 9.11541C6.39838 9.0785 6.36535 9.03867 6.3367 8.99544C6.30755 8.95221 6.28327 8.90655 6.26335 8.85847C6.24344 8.81038 6.22838 8.76084 6.21818 8.70984C6.20798 8.65884 6.20312 8.60735 6.20312 8.55538C6.20312 8.50341 6.20798 8.45193 6.21818 8.40093C6.22838 8.34993 6.24344 8.30038 6.26335 8.2523C6.28327 8.20421 6.30755 8.15904 6.3367 8.11581C6.36535 8.0721 6.39838 8.03227 6.43481 7.99536C6.47172 7.95893 6.51155 7.9259 6.55478 7.89724C6.59801 7.8681 6.64367 7.84381 6.69175 7.8239C6.73984 7.80399 6.78938 7.78893 6.84038 7.77873C6.89138 7.76853 6.94287 7.76367 6.99484 7.76367H32.2757C32.3277 7.76367 32.3791 7.76853 32.4301 7.77873C32.4811 7.78893 32.5307 7.80399 32.5788 7.8239C32.6269 7.84381 32.6725 7.8681 32.7157 7.89724C32.759 7.9259 32.7988 7.95893 32.8357 7.99536C32.8726 8.03227 32.9052 8.0721 32.9343 8.11581C32.963 8.15904 32.9873 8.20421 33.0072 8.2523C33.0271 8.30038 33.0421 8.34993 33.0523 8.40093C33.0625 8.45193 33.0674 8.50341 33.0674 8.55538C33.0674 8.60735 33.0625 8.65884 33.0523 8.70984C33.0421 8.76084 33.0271 8.81038 33.0072 8.85847C32.9873 8.90655 32.963 8.95221 32.9343 8.99544C32.9052 9.03867 32.8726 9.0785 32.8357 9.11541C32.7988 9.15232 32.759 9.18487 32.7157 9.21401C32.6725 9.24267 32.6269 9.26744 32.5788 9.28735C32.5307 9.30727 32.4811 9.32232 32.4301 9.33204C32.3791 9.34224 32.3277 9.34758 32.2757 9.34758Z" fill="black"/>
<path d="M45.8276 25.3339H6.99484C6.94287 25.3339 6.89138 25.3286 6.84038 25.3184C6.78938 25.3082 6.73984 25.2931 6.69175 25.2732C6.64367 25.2533 6.59801 25.229 6.55478 25.2003C6.51155 25.1712 6.47172 25.1387 6.43481 25.1017C6.39838 25.0648 6.36535 25.025 6.3367 24.9818C6.30755 24.9385 6.28327 24.8929 6.26335 24.8448C6.24344 24.7967 6.22838 24.7472 6.21818 24.6962C6.20798 24.6452 6.20312 24.5937 6.20312 24.5417C6.20312 24.4897 6.20798 24.4383 6.21818 24.3873C6.22838 24.3363 6.24344 24.2867 6.26335 24.2386C6.28327 24.1905 6.30755 24.1449 6.3367 24.1017C6.36535 24.0584 6.39838 24.0186 6.43481 23.9817C6.47172 23.9453 6.51155 23.9122 6.55478 23.8831C6.59801 23.8544 6.64367 23.8301 6.69175 23.8102C6.73984 23.7903 6.78938 23.7753 6.84038 23.7651C6.89138 23.7549 6.94287 23.75 6.99484 23.75H45.8276C45.8795 23.75 45.931 23.7549 45.982 23.7651C46.033 23.7753 46.0826 23.7903 46.1306 23.8102C46.1787 23.8301 46.2244 23.8544 46.2676 23.8831C46.3108 23.9122 46.3507 23.9453 46.3876 23.9817C46.424 24.0186 46.457 24.0584 46.4857 24.1017C46.5148 24.1449 46.5391 24.1905 46.559 24.2386C46.579 24.2867 46.594 24.3363 46.6042 24.3873C46.6144 24.4383 46.6193 24.4897 46.6193 24.5417C46.6193 24.5937 46.6144 24.6452 46.6042 24.6962C46.594 24.7472 46.579 24.7967 46.559 24.8448C46.5391 24.8929 46.5148 24.9385 46.4857 24.9818C46.457 25.025 46.424 25.0648 46.3876 25.1017C46.3507 25.1387 46.3108 25.1712 46.2676 25.2003C46.2244 25.229 46.1787 25.2533 46.1306 25.2732C46.0826 25.2931 46.033 25.3082 45.982 25.3184C45.931 25.3286 45.8795 25.3339 45.8276 25.3339Z" fill="black"/>
<path d="M45.83 33.4072L6.99484 33.3241C6.94287 33.3241 6.89138 33.3188 6.84038 33.3086C6.78938 33.2984 6.73984 33.2833 6.69175 33.2639C6.64367 33.244 6.59801 33.2192 6.55478 33.1906C6.51155 33.1614 6.47172 33.1289 6.43481 33.092C6.39838 33.0551 6.36535 33.0152 6.3367 32.972C6.30755 32.9288 6.28327 32.8831 6.26335 32.835C6.24344 32.7869 6.22838 32.7374 6.21818 32.6864C6.20798 32.6354 6.20312 32.5839 6.20312 32.5319C6.20312 32.48 6.20798 32.4285 6.21818 32.3775C6.22838 32.3265 6.24344 32.2769 6.26335 32.2289C6.28327 32.1808 6.30755 32.1351 6.3367 32.0919C6.36535 32.0487 6.39838 32.0088 6.43481 31.9719C6.47172 31.9355 6.51155 31.9025 6.55478 31.8738C6.59801 31.8447 6.64367 31.8204 6.69175 31.8005C6.73984 31.7805 6.78938 31.7655 6.84038 31.7553C6.89138 31.7451 6.94287 31.7402 6.99484 31.7402L45.8285 31.8233C45.8805 31.8233 45.932 31.8281 45.983 31.8383C46.034 31.8485 46.0835 31.8636 46.1316 31.8835C46.1797 31.9034 46.2249 31.9277 46.2681 31.9569C46.3113 31.9855 46.3516 32.0185 46.3881 32.0555C46.425 32.0919 46.458 32.1322 46.4867 32.1754C46.5158 32.2187 46.5401 32.2643 46.56 32.3119C46.5799 32.36 46.595 32.4095 46.6052 32.4605C46.6149 32.5115 46.6202 32.563 46.6202 32.615C46.6202 32.667 46.6149 32.7185 46.6052 32.7695C46.595 32.8205 46.5799 32.87 46.56 32.9181C46.5401 32.9662 46.5158 33.0118 46.4867 33.0551C46.458 33.0983 46.425 33.1386 46.3881 33.175C46.3516 33.2119 46.3113 33.245 46.2681 33.2736C46.2249 33.3028 46.1797 33.3271 46.1316 33.347C46.0835 33.3669 46.034 33.3819 45.983 33.3917C45.932 33.4019 45.8805 33.4072 45.8285 33.4072H45.83Z" fill="black"/>
<path d="M45.8285 41.4023L6.99484 41.3183C6.94287 41.3183 6.89138 41.3134 6.84038 41.3032C6.78938 41.293 6.73984 41.278 6.69175 41.2581C6.64415 41.2381 6.5985 41.2139 6.55527 41.1847C6.51204 41.1561 6.47172 41.123 6.4353 41.0861C6.39838 41.0497 6.36535 41.0094 6.3367 40.9661C6.30804 40.9229 6.28327 40.8773 6.26335 40.8292C6.24344 40.7816 6.22838 40.732 6.21867 40.681C6.20847 40.63 6.20312 40.5785 6.20312 40.5266C6.20312 40.4746 6.20847 40.4226 6.21867 40.3716C6.22838 40.3206 6.24344 40.2716 6.26335 40.2235C6.28327 40.1754 6.30804 40.1297 6.3367 40.0865C6.36535 40.0433 6.39838 40.003 6.4353 39.9665C6.47172 39.9296 6.51204 39.8966 6.55527 39.8679C6.5985 39.8388 6.64415 39.8145 6.69175 39.7946C6.73984 39.7747 6.78938 39.7596 6.84038 39.7494C6.89138 39.7397 6.94287 39.7344 6.99484 39.7344L45.83 39.8184C45.882 39.8184 45.9334 39.8233 45.9844 39.8335C46.0354 39.8437 46.085 39.8587 46.1331 39.8786C46.1812 39.8985 46.2268 39.9228 46.27 39.952C46.3133 39.9806 46.3531 40.0137 46.39 40.0506C46.4269 40.087 46.4595 40.1273 46.4886 40.1705C46.5173 40.2138 46.5416 40.2594 46.5615 40.307C46.5814 40.3551 46.5964 40.4047 46.6066 40.4557C46.6168 40.5067 46.6217 40.5581 46.6217 40.6101C46.6217 40.6621 46.6168 40.7136 46.6066 40.7646C46.5964 40.8156 46.5814 40.8651 46.5615 40.9132C46.5416 40.9613 46.5173 41.0069 46.4886 41.0502C46.4595 41.0934 46.4269 41.1337 46.39 41.1701C46.3531 41.2071 46.3133 41.2401 46.27 41.2687C46.2268 41.2979 46.1812 41.3222 46.1331 41.3421C46.085 41.362 46.0354 41.3771 45.9844 41.3868C45.9334 41.397 45.882 41.4023 45.83 41.4023H45.8285Z" fill="black"/>
<path d="M45.8285 49.3105H6.99484C6.94287 49.3105 6.89138 49.3051 6.84038 49.2949C6.78938 49.2852 6.73984 49.2702 6.69175 49.2502C6.64415 49.2303 6.5985 49.206 6.55527 49.1769C6.51204 49.1482 6.47172 49.1152 6.4353 49.0783C6.39838 49.0419 6.36535 49.0016 6.3367 48.9583C6.30804 48.9151 6.28327 48.8694 6.26335 48.8214C6.24344 48.7733 6.22838 48.7237 6.21867 48.6727C6.20847 48.6217 6.20312 48.5702 6.20312 48.5183C6.20312 48.4663 6.20847 48.4148 6.21867 48.3638C6.22838 48.3128 6.24344 48.2633 6.26335 48.2152C6.28327 48.1676 6.30804 48.1219 6.3367 48.0787C6.36535 48.0355 6.39838 47.9952 6.4353 47.9587C6.47172 47.9218 6.51204 47.8888 6.55527 47.8601C6.5985 47.831 6.64415 47.8067 6.69175 47.7868C6.73984 47.7669 6.78938 47.7518 6.84038 47.7416C6.89138 47.7314 6.94287 47.7266 6.99484 47.7266H45.8285C45.8805 47.7266 45.932 47.7314 45.983 47.7416C46.034 47.7518 46.0835 47.7669 46.1316 47.7868C46.1797 47.8067 46.2254 47.831 46.2686 47.8601C46.3118 47.8888 46.3516 47.9218 46.3886 47.9587C46.425 47.9952 46.458 48.0355 46.4867 48.0787C46.5158 48.1219 46.5401 48.1676 46.56 48.2152C46.5799 48.2633 46.595 48.3128 46.6052 48.3638C46.6154 48.4148 46.6202 48.4663 46.6202 48.5183C46.6202 48.5702 46.6154 48.6217 46.6052 48.6727C46.595 48.7237 46.5799 48.7733 46.56 48.8214C46.5401 48.8694 46.5158 48.9151 46.4867 48.9583C46.458 49.0016 46.425 49.0419 46.3886 49.0783C46.3516 49.1152 46.3118 49.1482 46.2686 49.1769C46.2254 49.206 46.1797 49.2303 46.1316 49.2502C46.0835 49.2702 46.034 49.2852 45.983 49.2949C45.932 49.3051 45.8805 49.3105 45.8285 49.3105Z" fill="black"/>
<path d="M45.8276 57.3027H6.99484C6.94287 57.3027 6.89138 57.2973 6.84038 57.2871C6.78938 57.2769 6.73984 57.2619 6.69175 57.2419C6.64367 57.222 6.59801 57.1977 6.55478 57.1691C6.51155 57.1399 6.47172 57.1074 6.43481 57.0705C6.39838 57.0336 6.36535 56.9937 6.3367 56.9505C6.30755 56.9073 6.28327 56.8616 6.26335 56.8135C6.24344 56.7655 6.22838 56.7159 6.21818 56.6649C6.20798 56.6139 6.20312 56.5624 6.20312 56.5105C6.20312 56.4585 6.20798 56.407 6.21818 56.356C6.22838 56.305 6.24344 56.2555 6.26335 56.2074C6.28327 56.1593 6.30755 56.1136 6.3367 56.0704C6.36535 56.0272 6.39838 55.9873 6.43481 55.9504C6.47172 55.914 6.51155 55.881 6.55478 55.8518C6.59801 55.8232 6.64367 55.7989 6.69175 55.779C6.73984 55.7591 6.78938 55.744 6.84038 55.7338C6.89138 55.7236 6.94287 55.7188 6.99484 55.7188H45.8276C45.8795 55.7188 45.931 55.7236 45.982 55.7338C46.033 55.744 46.0826 55.7591 46.1306 55.779C46.1787 55.7989 46.2244 55.8232 46.2676 55.8518C46.3108 55.881 46.3507 55.914 46.3876 55.9504C46.424 55.9873 46.457 56.0272 46.4857 56.0704C46.5148 56.1136 46.5391 56.1593 46.559 56.2074C46.579 56.2555 46.594 56.305 46.6042 56.356C46.6144 56.407 46.6193 56.4585 46.6193 56.5105C46.6193 56.5624 46.6144 56.6139 46.6042 56.6649C46.594 56.7159 46.579 56.7655 46.559 56.8135C46.5391 56.8616 46.5148 56.9073 46.4857 56.9505C46.457 56.9937 46.424 57.0336 46.3876 57.0705C46.3507 57.1074 46.3108 57.1399 46.2676 57.1691C46.2244 57.1977 46.1787 57.222 46.1306 57.2419C46.0826 57.2619 46.033 57.2769 45.982 57.2871C45.931 57.2973 45.8795 57.3027 45.8276 57.3027Z" fill="black"/>
<path d="M52.0197 15.3217H38.3523C38.3003 15.3217 38.2488 15.3163 38.1978 15.3061C38.1468 15.2959 38.0973 15.2814 38.0492 15.2615C38.0011 15.2415 37.9554 15.2168 37.9122 15.1881C37.869 15.159 37.8291 15.1264 37.7922 15.0895C37.7558 15.0526 37.7228 15.0128 37.6941 14.9695C37.665 14.9263 37.6407 14.8807 37.6208 14.8326C37.6009 14.7845 37.5858 14.7349 37.5756 14.6839C37.5654 14.6329 37.5605 14.5815 37.5605 14.5295V0.858136C37.5605 0.779936 37.5722 0.703193 37.5945 0.628394C37.6174 0.553108 37.6504 0.483166 37.6941 0.41808C37.7373 0.352995 37.7893 0.295681 37.85 0.246138C37.9107 0.196595 37.9768 0.156767 38.0492 0.126653C38.1215 0.0965385 38.1968 0.0775957 38.2745 0.0703101C38.3527 0.0625387 38.43 0.0664245 38.5067 0.0814815C38.5835 0.0970243 38.6563 0.122767 38.7253 0.159681C38.7943 0.196595 38.8564 0.242738 38.9118 0.298109L52.5793 13.9699C52.6346 14.0253 52.6808 14.0875 52.7177 14.1565C52.7546 14.2254 52.7808 14.2983 52.7959 14.375C52.811 14.4518 52.8148 14.5295 52.8071 14.6072C52.7998 14.6854 52.7808 14.7602 52.7507 14.8326C52.7211 14.9049 52.6813 14.9715 52.6312 15.0317C52.5817 15.0924 52.5244 15.1444 52.4593 15.1881C52.3942 15.2313 52.3243 15.2649 52.2495 15.2872C52.1747 15.31 52.0979 15.3217 52.0197 15.3217ZM39.144 13.7378H50.108L39.144 2.7699V13.7378Z" fill="black"/>
<mask id="mask1_4209_1636" style="mask-type:luminance" maskUnits="userSpaceOnUse" x="25" y="35" width="23" height="23">
<path d="M25.6191 35.5469H48.0008V57.9285H25.6191V35.5469Z" fill="white"/>
</mask>
<g mask="url(#mask1_4209_1636)">
<mask id="mask2_4209_1636" style="mask-type:luminance" maskUnits="userSpaceOnUse" x="25" y="35" width="23" height="23">
<path d="M36.81 35.5469C30.6293 35.5469 25.6191 40.5575 25.6191 46.7377C25.6191 52.9184 30.6293 57.9285 36.81 57.9285C42.9907 57.9285 48.0008 52.9184 48.0008 46.7377C48.0008 40.5575 42.9907 35.5469 36.81 35.5469Z" fill="white"/>
</mask>
<g mask="url(#mask2_4209_1636)">
<mask id="mask3_4209_1636" style="mask-type:luminance" maskUnits="userSpaceOnUse" x="25" y="35" width="24" height="23">
<path d="M48.0978 35.4375H25.5918V57.9435H48.0978V35.4375Z" fill="white"/>
</mask>
<g mask="url(#mask3_4209_1636)">
<mask id="mask4_4209_1636" style="mask-type:luminance" maskUnits="userSpaceOnUse" x="25" y="35" width="23" height="23">
<path d="M25.6191 35.5469H48.0008V57.9285H25.6191V35.5469Z" fill="white"/>
</mask>
<g mask="url(#mask4_4209_1636)">
<mask id="mask5_4209_1636" style="mask-type:luminance" maskUnits="userSpaceOnUse" x="25" y="35" width="23" height="23">
<path d="M36.81 35.5469C30.6293 35.5469 25.6191 40.5575 25.6191 46.7377C25.6191 52.9184 30.6293 57.9285 36.81 57.9285C42.9907 57.9285 48.0008 52.9184 48.0008 46.7377C48.0008 40.5575 42.9907 35.5469 36.81 35.5469Z" fill="white"/>
</mask>
<g mask="url(#mask5_4209_1636)">
<path d="M25.6191 35.5469H48.0008V57.9285H25.6191V35.5469Z" fill="#00CED1"/>
</g>
</g>
</g>
</g>
</g>
<mask id="mask6_4209_1636" style="mask-type:luminance" maskUnits="userSpaceOnUse" x="20" y="31" width="31" height="31">
<path d="M20.748 31.5176H50.5902V61.3598H20.748V31.5176Z" fill="white"/>
</mask>
<g mask="url(#mask6_4209_1636)">
<path d="M35.6691 31.5176C27.4426 31.5176 20.748 38.2122 20.748 46.4387C20.748 54.6652 27.4426 61.3598 35.6691 61.3598C43.8957 61.3598 50.5902 54.6652 50.5902 46.4387C50.5902 38.2122 43.8957 31.5176 35.6691 31.5176ZM43.2691 54.0386C43.0797 54.2373 42.8213 54.3368 42.5726 54.3368C42.3137 54.3368 42.0553 54.2373 41.8663 54.0386L37.8077 49.98C36.6241 50.8553 35.2213 51.3031 33.8089 51.3031C32.088 51.3031 30.3671 50.6464 29.0639 49.3335C26.4377 46.7175 26.4377 42.45 29.0639 39.8335C31.68 37.2077 35.9377 37.2077 38.5635 39.8335C40.9513 42.211 41.1601 45.9413 39.2105 48.5773L43.2691 52.6359C43.6567 53.024 43.6567 53.6505 43.2691 54.0386Z" fill="black"/>
</g>
<path d="M33.8104 39.8535C32.6068 39.8535 31.393 40.3111 30.4682 41.2363C28.6278 43.0767 28.6278 46.0808 30.4682 47.9309C32.3085 49.7713 35.3127 49.7713 37.1627 47.9309C39.0031 46.0808 39.0031 43.0767 37.1627 41.2363C36.2375 40.3111 35.0241 39.8535 33.8104 39.8535Z" fill="black"/>
</svg>
