<svg width="230" height="246" viewBox="0 0 230 246" fill="none" xmlns="http://www.w3.org/2000/svg">
<g clip-path="url(#clip0_80_83)">
<mask id="mask0_80_83" style="mask-type:luminance" maskUnits="userSpaceOnUse" x="34" y="46" width="169" height="172">
<path d="M202.76 46.8706H34.0532V217.517H202.76V46.8706Z" fill="white"/>
</mask>
<g mask="url(#mask0_80_83)">
<path d="M34.4316 128.589C34.5386 132.204 34.6183 135.819 34.8672 139.426C35.161 143.646 35.5818 147.861 36.0398 152.068C36.4979 156.275 37.1552 160.455 38.0838 164.591C38.5319 166.597 39.0746 168.591 39.6398 170.578C40.0755 172.114 40.9045 173.456 41.9626 174.649C42.9684 175.791 43.9916 176.927 45.0198 178.042C45.3409 178.393 45.57 178.764 45.6845 179.234C45.9683 180.414 46.2845 181.585 46.5982 182.757C47.0986 184.642 48.662 185.735 50.5989 185.501C51.0271 185.443 51.4255 185.177 51.9483 184.963C52.0329 185.035 52.2271 185.199 52.4113 185.364C61.0925 193.201 70.3488 200.279 80.1353 206.68C82.3137 208.109 84.5494 209.45 86.9294 210.536C88.107 211.074 89.2995 211.567 90.614 211.636C91.2015 211.666 91.7941 211.644 92.4214 211.644C92.643 212.943 92.8795 214.238 93.0787 215.53C93.1658 216.058 93.4073 216.466 93.8729 216.695C95.0853 217.303 96.3649 217.529 97.7019 217.196C98.9516 216.879 99.7931 216.137 100.057 214.816C100.358 213.322 100.679 211.838 100.986 210.344C101.001 210.272 101.03 210.195 101.073 210.05C116.366 206.657 131.324 202.064 146.005 196.53C160.683 191 175.091 184.848 188.885 177.178C189.085 177.785 189.279 178.363 189.47 178.943C189.829 180.014 190.334 180.414 191.465 180.37C191.992 180.35 192.543 180.22 193.043 180.048C193.822 179.777 194.328 179.242 194.472 178.378C194.736 176.8 195.072 175.234 195.328 173.655C195.413 173.162 195.635 172.841 196.008 172.513C197.064 171.569 198.072 170.571 199.078 169.577C199.558 169.107 199.735 168.469 199.83 167.827C200.2 165.405 200.621 162.99 200.885 160.555C201.301 156.734 201.642 152.905 201.936 149.068C202.165 146.133 202.314 143.198 202.436 140.255C202.708 133.439 202.757 126.625 202.608 119.811C202.508 115.16 202.237 110.524 201.5 105.931C201.308 104.739 201.042 103.551 200.743 102.381C200.243 100.466 199.287 98.8084 197.87 97.4217C196.093 95.679 194.136 94.1728 192.099 92.7513C186.241 88.6783 180.092 85.1008 173.821 81.7149C173.413 81.4934 173.007 81.2718 172.626 81.0651C172.576 80.1564 172.591 79.3498 172.469 78.5706C172.078 75.9366 170.627 73.9001 168.712 72.1574C166.813 70.4346 164.592 69.2421 162.227 68.2986C159.197 67.0861 156.04 66.3417 152.804 65.921C149.933 65.5501 147.048 65.4206 144.155 65.4779C143.926 65.4853 143.689 65.4704 143.46 65.4629C143.418 65.4629 143.376 65.4206 143.311 65.3783C143.318 64.843 143.346 64.3053 143.674 63.8347C144.76 62.2638 144.897 60.5211 144.576 58.7211C144.217 56.7046 143.154 55.0913 141.618 53.7694C139.597 52.0341 137.281 50.7993 134.824 49.8209C132.202 48.7703 129.481 48.1056 126.696 47.6624C123.016 47.0848 119.309 46.8558 115.587 46.8906C112.408 46.9255 109.251 47.2118 106.102 47.6126C99.9948 48.3844 94.0222 49.7337 88.1792 51.6632C81.8706 53.7494 75.9429 56.6125 70.4285 60.307C67.5281 62.2489 64.8568 64.492 62.6062 67.1982C60.5846 69.6429 59.1058 72.3566 58.4834 75.4935C57.8486 78.6727 58.3191 81.7075 59.6983 84.6078C60.1415 85.5364 60.6494 86.4352 61.1697 87.4435C60.8759 87.5654 60.6344 87.6725 60.3855 87.7646C56.2129 89.2858 52.135 91.0085 48.184 93.045C45.2339 94.5662 42.4555 96.3363 40.0481 98.6441C38.6116 100.023 37.2622 101.472 36.2116 103.188C35.7411 103.952 35.5121 104.788 35.2979 105.637C34.8971 107.223 34.7975 108.851 34.7104 110.475C34.4042 116.502 34.2473 122.547 34.4316 128.589Z" fill="#1E1D30"/>
</g>
<path d="M84.7138 111.465C84.6441 110.616 84.5794 109.795 84.4923 108.981C84.43 108.316 84.3006 107.651 84.2707 106.979C84.2508 106.481 84.0367 106.115 83.7354 105.737C83.0632 104.888 82.4135 104.017 81.801 103.123C81.4724 102.637 81.2284 102.095 80.9222 101.537C79.9637 101.88 79.0152 102.194 78.0791 102.545C75.8559 103.372 73.6352 104.216 71.4269 105.065C71.0858 105.194 70.7771 105.194 70.4635 105.037C70.1423 104.873 69.8211 104.701 69.5199 104.509C66.5424 102.595 63.6992 100.486 61.1549 98.0092C60.8263 97.688 60.4852 97.3793 60.1068 97.0233C60.642 96.2715 61.4985 96.2291 62.1632 95.6789C62.0063 93.2217 62.198 90.6575 61.4138 88.1355C61.242 88.1728 61.1201 88.1803 61.0055 88.2226C56.1832 90.0002 51.463 91.9944 46.9469 94.464C43.0905 96.5802 39.869 99.4432 37.0607 102.802C36.5105 103.459 36.2043 104.216 36.04 105.03C35.796 106.245 35.5321 107.467 35.4624 108.694C35.0392 116.016 34.9769 123.353 35.2184 130.69C35.3105 133.553 35.4051 136.418 35.6043 139.274C35.8333 142.647 36.147 146.018 36.4831 149.382C36.9113 153.699 37.5611 157.983 38.3752 162.24C38.9677 165.335 39.6698 168.397 40.6756 171.392C41.0465 172.493 41.6191 173.434 42.3909 174.3C47.3327 179.842 52.7053 184.936 58.4139 189.686C65.0486 195.2 71.9423 200.371 79.1347 205.143C81.7139 206.851 84.3777 208.422 87.1437 209.836C89.571 211.079 92.078 211.258 94.6722 210.745C98.058 210.065 101.436 209.358 104.802 208.552C125.087 203.699 144.703 196.851 163.833 188.578C171.219 185.379 178.514 181.985 185.584 178.126C189.164 176.177 192.7 174.136 195.929 171.626C196.678 171.041 197.385 170.391 198.107 169.769C198.722 169.241 199.093 168.584 199.2 167.785C199.571 165.019 199.994 162.27 200.293 159.497C200.644 156.213 200.923 152.919 201.164 149.626C201.378 146.691 201.55 143.753 201.672 140.81C201.943 134.026 202.023 127.232 201.864 120.438C201.757 115.66 201.515 110.895 200.751 106.165C200.514 104.716 200.151 103.287 199.837 101.858C199.501 100.344 198.68 99.122 197.594 98.0441C195.951 96.4233 194.143 95.0092 192.256 93.6947C186.956 90.0002 181.427 86.6866 175.755 83.592C174.892 83.1215 174.035 82.651 173.171 82.1854C172.95 82.0634 172.721 81.9564 172.427 81.8145C172.35 82.0858 172.292 82.3074 172.22 82.5215C171.857 83.6493 171.483 84.7721 171.127 85.8999C171.077 86.0567 171.085 86.2434 171.112 86.4077C171.234 87.0426 171.399 87.665 171.498 88.2998C171.563 88.7006 171.755 88.9222 172.091 89.1289C173.841 90.172 175.576 91.2425 177.314 92.308C177.513 92.43 177.707 92.5645 177.869 92.7213C178.255 93.0873 178.198 93.4234 177.712 93.6001C177.448 93.6997 177.162 93.7445 176.891 93.8093C168.912 95.5868 160.932 97.337 153.04 99.4731C141.432 102.622 130.067 106.486 118.888 110.915C111.746 113.746 104.68 116.773 97.7443 120.094C96.858 120.518 95.9518 120.881 95.0431 121.252C94.1792 121.603 93.3228 121.516 92.5212 121.053C91.8789 120.674 91.2365 120.281 90.6291 119.845C88.0997 118.015 85.5777 116.166 83.0632 114.316C82.757 114.087 82.4632 113.816 82.2367 113.517C81.8707 113.044 81.9205 112.817 82.4433 112.538C82.8715 112.309 83.3371 112.13 83.7777 111.931C84.0715 111.759 84.3728 111.622 84.7138 111.465ZM63.2412 156.868C63.2213 157.127 63.1989 157.326 63.1914 157.525C63.0993 164.705 63.2486 171.878 63.7416 179.043C63.7914 179.735 63.8287 180.434 63.8486 181.129C63.871 181.634 63.5773 181.841 63.1067 181.622C62.8279 181.492 62.5715 181.306 62.3499 181.099C61.4835 180.285 60.662 179.429 59.7906 178.619C58.8495 177.748 58.4189 176.643 58.2545 175.405C58.028 173.693 57.799 171.977 57.6272 170.257C57.1616 165.499 56.9425 160.727 56.828 155.954C56.8056 155.19 56.5342 154.812 55.862 154.49C51.5127 152.419 47.9277 149.412 45.0473 145.555C44.3328 144.597 43.7826 143.546 43.4042 142.411C42.8415 140.74 42.5328 139.018 42.3486 137.267C42.0125 134.138 43.9195 131.061 46.4415 129.647C47.2979 129.166 48.234 129.082 49.1203 129.51C50.3277 130.09 51.5277 130.695 52.6704 131.39C53.97 132.181 55.1973 133.082 56.462 133.931C56.6413 134.053 56.833 134.138 57.0695 134.267C57.0994 134.004 57.1193 133.847 57.1342 133.697C57.2263 132.774 57.306 131.845 57.428 130.924C57.5201 130.224 57.8911 130.053 58.5135 130.396C58.8047 130.553 59.0761 130.76 59.335 130.966C60.6047 132.017 61.857 133.102 63.1491 134.133C63.7192 134.589 63.8984 135.131 63.8636 135.819C63.8063 136.767 63.8063 137.726 63.7416 138.682C63.7067 139.147 63.871 139.433 64.2271 139.717C65.798 140.974 67.3639 142.239 68.9 143.539C70.2991 144.726 71.656 145.954 73.0352 147.161C73.7497 147.791 74.1505 148.583 74.1779 149.534C74.2277 150.925 74.1207 152.312 73.8493 153.691C73.6203 154.846 73.0352 155.626 71.9348 156.111C69.8933 157.02 67.7573 157.184 65.5714 157.062C64.7997 157.04 64.0428 156.948 63.2412 156.868ZM149.296 185.092C147.683 185.199 145.704 184.657 143.819 183.755C141.412 182.6 139.176 181.171 137.224 179.334C136.119 178.291 135.11 177.163 134.438 175.756C132.982 172.692 132.775 169.478 133.425 166.226C134.388 161.426 136.853 157.47 140.64 154.368C143.219 152.255 146.231 151.132 149.51 150.654C150.718 150.475 151.868 150.52 153.006 150.968C155.983 152.148 158.869 153.512 161.478 155.397C162.342 156.026 163.106 156.756 163.649 157.685C165.877 161.461 166.726 165.557 166.126 169.883C165.456 174.691 163.061 178.6 159.347 181.684C156.598 183.977 153.419 185.165 149.296 185.092ZM95.3369 133.618C95.4215 133.389 95.429 133.224 95.5211 133.147C95.7502 132.946 96.0091 132.754 96.273 132.609C98.2447 131.546 100.172 130.374 102.216 129.46C107.909 126.918 113.603 124.354 119.389 122.031C136.739 115.065 154.375 108.938 172.342 103.758C177.662 102.224 183.008 100.75 188.472 99.7718C190.021 99.493 191.587 99.2938 193.165 99.4083C193.75 99.4507 194.328 99.5876 194.908 99.7146C195.042 99.7444 195.142 99.9162 195.393 100.138C195.05 100.123 194.9 100.138 194.763 100.1C193.651 99.8166 192.515 99.7868 191.378 99.8863C189.214 100.081 187.093 100.486 184.984 100.994C177.842 102.717 170.791 104.766 163.776 106.959C146.147 112.459 128.774 118.653 111.781 125.902C106.323 128.233 100.886 130.595 95.7078 133.511C95.6356 133.553 95.536 133.56 95.3369 133.618ZM89.2001 206.515C88.7221 206.279 88.7569 205.98 88.7445 205.716C88.5926 203.114 88.386 200.508 88.3088 197.906C88.0573 189.671 88.0225 181.435 88.2142 173.2C88.3212 168.626 88.4158 164.063 88.6299 159.497C88.8515 154.961 89.1851 150.425 89.5362 145.904C89.6855 144.004 90.0142 142.117 90.2656 140.225C90.4 139.219 90.9079 138.383 91.5428 137.626C91.6 137.554 91.7369 137.554 91.951 137.474C91.8515 137.711 91.8216 137.84 91.7519 137.932C91.0946 138.754 90.8282 139.717 90.7137 140.725C90.4 143.496 90.0291 146.262 89.8424 149.041C89.5137 153.883 89.1926 158.725 89.0781 163.577C88.8864 171.733 88.7644 179.892 88.7719 188.05C88.7793 193.828 89.0358 199.614 89.1851 205.392C89.2075 205.721 89.2001 206.05 89.2001 206.515ZM44.0191 103.138C44.0689 103.088 44.1261 103.031 44.1759 102.981C44.39 103.108 44.6116 103.222 44.8183 103.359C47.5618 105.194 50.3202 107.017 53.0488 108.874C62.9623 115.638 72.5846 122.81 82.0798 130.147C83.6085 131.332 85.157 132.497 86.6856 133.682C86.8872 133.839 87.2009 133.946 87.1586 134.382C86.9644 134.325 86.7926 134.302 86.6582 134.218C86.2922 133.981 85.9362 133.717 85.5852 133.461C80.0011 129.253 74.4418 125.011 68.8278 120.839C61.1499 115.118 53.2554 109.703 45.3411 104.323C44.9776 104.081 44.6266 103.815 44.283 103.536C44.161 103.436 44.1037 103.272 44.0191 103.138ZM147.511 146.29C148.412 146.297 149.02 146.875 148.967 147.726C148.933 148.376 148.654 148.919 148.119 149.305C147.496 149.755 146.812 149.618 146.376 148.991C145.997 148.448 146.067 147.868 146.226 147.283C146.396 146.626 146.839 146.29 147.511 146.29ZM133.918 156.275C133.968 155.832 134.197 155.548 134.446 155.232C134.725 154.891 134.988 154.597 135.466 154.734C135.959 154.869 136.253 155.212 136.36 155.705C136.505 156.333 136.325 156.883 135.882 157.333C135.382 157.834 134.595 157.742 134.224 157.134C134.075 156.875 134.018 156.562 133.918 156.275ZM156.705 150.268C156.713 149.611 156.889 149.275 157.37 148.861C157.92 148.383 158.62 148.54 158.933 149.217C159.235 149.87 158.983 150.811 158.406 151.239C158.012 151.525 157.584 151.513 157.198 151.197C156.862 150.905 156.698 150.547 156.705 150.268Z" fill="#00CED1"/>
<path d="M95.5585 120.331C119.909 108.687 145.089 99.8017 171.548 94.4218C171.513 93.8143 171.506 93.2517 171.433 92.7015C171.177 90.7571 170.906 88.8152 170.619 86.8783C170.542 86.358 170.57 85.8651 170.719 85.3572C171.055 84.2219 171.356 83.0717 171.648 81.9216C172.277 79.4643 171.705 77.2287 170.37 75.135C169.947 74.4653 169.392 73.9499 168.727 73.5292C167.219 72.5781 165.541 72.0777 163.833 71.657C160.97 70.9425 158.047 70.6363 155.097 70.5491C150.668 70.4222 146.284 70.8429 141.905 71.4578C134.896 72.4437 127.995 73.9076 121.266 76.1283C114.181 78.471 107.489 81.6502 101.245 85.7505C98.9941 87.2294 96.9227 88.9297 95.0157 90.8293C93.7087 92.1288 92.5784 93.5653 91.6498 95.1587C90.878 96.4931 90.3727 97.9146 90.2083 99.4507C90.0017 101.33 90.5071 102.981 91.7718 104.38C92.3071 104.973 92.8797 105.538 93.4498 106.095C94.1718 106.802 94.6373 107.602 94.6946 108.667C94.829 111.117 95.0431 113.559 95.2298 116.001C95.3369 117.411 95.4439 118.825 95.5585 120.331ZM105.659 111.622C105.631 111.274 105.945 110.865 106.194 110.895C106.323 110.91 106.503 111.067 106.545 111.194C106.615 111.408 106.244 111.859 106.015 111.831C105.873 111.816 105.743 111.68 105.659 111.622ZM95.4091 98.6665C95.673 98.9578 95.9369 99.2092 95.6356 99.5453C95.4589 99.7445 95.1875 99.7146 95.0506 99.4881C94.8141 99.1296 95.0008 98.8881 95.4091 98.6665ZM97.5576 111.844C97.8016 112.095 98.2721 112.031 98.1501 112.531C98.1302 112.631 97.8016 112.753 97.6646 112.71C97.3012 112.588 97.229 112.317 97.5576 111.844ZM162.625 74.3707C162.82 74.5922 162.961 74.7491 163.098 74.9009C162.976 75.0005 162.869 75.1648 162.735 75.1922C162.491 75.2345 162.242 75.135 162.262 74.8362C162.277 74.6993 162.456 74.5773 162.625 74.3707ZM151.626 77.4577C151.798 77.6494 151.94 77.744 151.975 77.8561C152.047 78.0926 151.798 78.4361 151.569 78.4063C151.432 78.3863 151.198 78.1722 151.211 78.1225C151.29 77.9083 151.447 77.7216 151.626 77.4577ZM114.696 98.781C114.494 98.4524 114.33 98.2582 114.28 98.0441C114.26 97.952 114.452 97.708 114.559 97.7005C114.888 97.6731 114.98 97.9644 114.987 98.2233C114.995 98.3503 114.853 98.4947 114.696 98.781ZM160.148 89.7588C159.812 89.3853 159.747 89.221 159.954 89.0517C160.083 88.9447 160.305 88.9497 160.484 88.9073C160.492 89.0642 160.542 89.2434 160.484 89.3804C160.427 89.5223 160.263 89.6293 160.148 89.7588ZM158.49 79.2851C158.311 79.0361 158.169 78.9216 158.147 78.7847C158.097 78.5283 158.234 78.3216 158.505 78.3216C158.64 78.3216 158.891 78.5208 158.883 78.5631C158.811 78.7722 158.677 78.9639 158.49 79.2851ZM144.847 75.2993C145.111 75.115 145.29 74.9557 145.497 74.8785C145.569 74.8486 145.776 74.993 145.826 75.1001C145.903 75.2843 145.524 75.6428 145.283 75.608C145.161 75.6005 145.061 75.4636 144.847 75.2993ZM119.58 93.0375C119.409 93.3512 119.439 93.7869 118.946 93.65C118.858 93.6301 118.759 93.3363 118.801 93.2218C118.916 92.8857 119.16 92.7587 119.58 93.0375ZM116.381 87.2717C116.232 86.9356 116.195 86.6567 116.546 86.5372C116.66 86.4999 116.944 86.6219 116.966 86.714C117.051 87.1148 116.78 87.2368 116.381 87.2717ZM131.625 81.9514C131.859 81.7647 132.011 81.578 132.096 81.6079C132.26 81.6502 132.382 81.822 132.524 81.9365C132.409 82.0585 132.302 82.2651 132.188 82.2726C132.046 82.2726 131.889 82.1083 131.625 81.9514ZM154.596 74.9208C154.432 74.6296 154.263 74.4503 154.305 74.3707C154.39 74.1914 154.554 73.9922 154.733 73.935C154.925 73.8702 155.062 74.0719 154.997 74.2711C154.925 74.4578 154.783 74.6146 154.596 74.9208ZM148.425 96.4732C148.676 96.2715 148.826 96.1072 149.012 96.0226C149.062 96.0001 149.341 96.2865 149.311 96.3362C149.219 96.523 149.07 96.6947 148.898 96.8018C148.841 96.8367 148.646 96.6375 148.425 96.4732ZM159.518 94.4143C159.713 94.6433 159.904 94.7877 159.884 94.8724C159.839 95.0367 159.69 95.2159 159.541 95.2807C159.461 95.3155 159.162 95.1014 159.177 95.0442C159.22 94.8574 159.354 94.6931 159.518 94.4143ZM138.798 97.9221C138.947 98.1935 139.111 98.3578 139.074 98.4524C139.012 98.6092 138.825 98.7163 138.69 98.8433C138.581 98.7163 138.382 98.5794 138.397 98.4648C138.412 98.308 138.596 98.1736 138.798 97.9221ZM110.302 104.517C110.615 104.323 110.767 104.159 110.917 104.151C111.044 104.151 111.181 104.33 111.315 104.422C111.196 104.559 111.096 104.781 110.944 104.816C110.81 104.851 110.63 104.681 110.302 104.517ZM102.295 93.9786C102.46 94.2226 102.644 94.4018 102.616 94.479C102.544 94.6359 102.365 94.7653 102.201 94.85C102.166 94.8724 101.909 94.6234 101.922 94.5288C101.952 94.357 102.116 94.2226 102.295 93.9786ZM161.976 82.051C162.147 82.3 162.327 82.4493 162.297 82.544C162.247 82.7008 162.09 82.8651 161.933 82.9348C161.868 82.9647 161.585 82.7282 161.597 82.6635C161.647 82.4867 161.799 82.3298 161.976 82.051ZM100.672 89.7513C100.874 89.5372 100.973 89.3281 101.123 89.2857C101.387 89.216 101.459 89.465 101.474 89.6716C101.486 89.9007 101.387 90.0998 101.123 90.065C100.993 90.05 100.879 89.9007 100.672 89.7513ZM98.0729 105.137C97.8937 104.866 97.7368 104.731 97.7219 104.579C97.7144 104.48 97.9435 104.266 98.0157 104.281C98.18 104.323 98.3219 104.48 98.4738 104.594C98.3717 104.731 98.2646 104.873 98.0729 105.137ZM115.246 107.816C115.503 108.022 115.859 108.137 115.602 108.523C115.552 108.602 115.303 108.637 115.216 108.58C114.888 108.373 114.888 108.117 115.246 107.816ZM136.203 87.5231C136.403 87.3215 136.547 87.1796 136.696 87.0302C136.796 87.1298 136.96 87.2219 136.975 87.3289C137.003 87.5654 136.918 87.8144 136.624 87.8144C136.51 87.8144 136.395 87.665 136.203 87.5231ZM167.077 86.5298C167.256 86.7439 167.413 86.8509 167.44 86.9854C167.497 87.2368 167.298 87.3787 167.084 87.3588C166.947 87.3439 166.721 87.1572 166.726 87.0725C166.748 86.9157 166.905 86.7713 167.077 86.5298ZM154.313 91.5587C154.527 91.387 154.669 91.2152 154.848 91.1579C154.92 91.1305 155.139 91.3222 155.176 91.4442C155.234 91.6434 154.898 91.9521 154.691 91.8998C154.577 91.865 154.489 91.723 154.313 91.5587ZM128.418 89.9654C128.625 89.821 128.76 89.6567 128.909 89.6368C129.018 89.6218 129.153 89.8086 129.275 89.9081C129.118 90.0426 128.974 90.2019 128.797 90.3015C128.76 90.3214 128.61 90.1372 128.418 89.9654ZM104.394 100.459C104.245 100.237 104.08 100.093 104.058 99.9362C104.045 99.8217 104.222 99.5876 104.322 99.5876C104.581 99.5876 104.738 99.7868 104.708 100.043C104.695 100.15 104.551 100.252 104.394 100.459ZM130.388 101.759C130.547 101.973 130.689 102.072 130.696 102.187C130.724 102.443 130.589 102.652 130.318 102.645C130.211 102.645 130.009 102.438 130.032 102.388C130.081 102.194 130.223 102.022 130.388 101.759ZM142.619 91.5587C142.788 91.865 142.94 92.0069 142.933 92.1363C142.925 92.2732 142.761 92.4002 142.669 92.5297C142.554 92.4226 142.348 92.3156 142.34 92.201C142.325 92.0442 142.467 91.8799 142.619 91.5587ZM108.123 86.2285C108.36 86.0866 108.509 85.9298 108.666 85.9223C108.766 85.9148 108.873 86.1364 108.972 86.2584C108.823 86.3655 108.681 86.5074 108.509 86.5646C108.445 86.587 108.315 86.4003 108.123 86.2285ZM130.589 76.4495C130.746 76.6934 130.861 76.8005 130.881 76.915C130.918 77.1938 130.654 77.4777 130.44 77.393C130.33 77.3507 130.203 77.149 130.231 77.0644C130.281 76.8777 130.425 76.7208 130.589 76.4495ZM109.159 92.7936C109.396 92.6068 109.53 92.4376 109.687 92.4077C109.781 92.3927 110.023 92.6442 110.003 92.7015C109.946 92.8658 109.801 93.045 109.645 93.1222C109.58 93.1645 109.401 92.9654 109.159 92.7936ZM143.946 83.2087C144.148 83.0145 144.282 82.8651 144.454 82.7581C144.484 82.7357 144.748 82.9796 144.725 83.0145C144.641 83.1937 144.504 83.358 144.354 83.5C144.332 83.5074 144.148 83.3506 143.946 83.2087ZM166.97 79.3C167.184 79.549 167.39 79.6934 167.383 79.8203C167.378 79.9573 167.169 80.1365 167.012 80.1789C166.927 80.2062 166.676 80.0071 166.668 79.9075C166.668 79.7506 166.82 79.5863 166.97 79.3ZM124.575 85.1431C124.746 84.8294 124.824 84.6228 124.96 84.4584C125.018 84.3862 125.247 84.3365 125.282 84.3713C125.366 84.4709 125.446 84.6427 125.411 84.7572C125.316 85.0659 125.053 85.1356 124.575 85.1431ZM132.596 94.1379C132.447 93.9363 132.31 93.8367 132.297 93.7147C132.267 93.4732 132.432 93.3089 132.668 93.3438C132.76 93.3587 132.902 93.5579 132.89 93.6649C132.875 93.8093 132.733 93.9288 132.596 94.1379ZM124.609 98.0441C124.781 97.8873 124.896 97.708 125.018 97.6931C125.125 97.6881 125.252 97.8648 125.366 97.9595C125.252 98.0715 125.16 98.2308 125.025 98.2731C124.945 98.308 124.804 98.1586 124.609 98.0441ZM153.69 84.1497C153.832 84.4136 153.962 84.5506 153.954 84.68C153.947 84.7796 153.74 84.9713 153.675 84.9514C153.541 84.9016 153.369 84.7572 153.347 84.6352C153.339 84.5282 153.511 84.3937 153.69 84.1497ZM166.056 92.3878C165.827 92.5645 165.712 92.7089 165.575 92.7288C165.476 92.7438 165.254 92.5571 165.269 92.5073C165.304 92.3654 165.411 92.1712 165.526 92.1363C165.633 92.1015 165.797 92.2508 166.056 92.3878ZM120.658 102.144C120.803 102.373 120.945 102.508 120.917 102.588C120.868 102.722 120.731 102.859 120.596 102.931C120.551 102.951 120.31 102.752 120.325 102.695C120.375 102.53 120.502 102.388 120.658 102.144ZM148.034 88.3721C147.954 88.3297 147.882 88.2924 147.805 88.2501C147.725 88.1156 147.598 87.9787 147.591 87.8443C147.591 87.7497 147.755 87.5804 147.855 87.5729C148.084 87.5654 148.233 87.7148 148.198 87.9638C148.168 88.1007 148.089 88.2351 148.034 88.3721ZM119.531 81.2369C119.396 81.0353 119.237 80.8934 119.259 80.8212C119.309 80.6942 119.466 80.6071 119.58 80.5C119.675 80.5996 119.852 80.7141 119.839 80.8012C119.824 80.9282 119.675 81.0427 119.531 81.2369ZM139.425 79.0635C139.268 78.8643 139.126 78.7498 139.131 78.6502C139.139 78.5283 139.283 78.4212 139.36 78.3067C139.467 78.3863 139.669 78.4635 139.669 78.5432C139.669 78.6776 139.547 78.822 139.425 79.0635ZM80.7205 100.979C80.601 100.444 80.4566 99.9511 80.3795 99.4507C79.7845 95.7512 80.6359 92.3803 82.772 89.3281C84.2508 87.2144 86.1279 85.4866 88.1295 83.8784C92.1925 80.5996 96.7012 78.0577 101.409 75.8495C109.094 72.2495 117.138 69.6778 125.396 67.7708C129.018 66.9343 132.681 66.3492 136.375 65.9559C137.968 65.7841 139.567 65.7144 141.16 65.5924C141.646 65.5575 142.134 65.5202 142.654 65.4853C142.696 65.1916 142.746 64.9426 142.761 64.6911C142.788 64.1634 143.005 63.7053 143.254 63.2497C144.232 61.4273 144.225 59.5427 143.498 57.6481C143.396 57.3917 143.112 57.1701 142.861 57.0058C139.975 55.0689 136.818 53.7843 133.432 53.0474C130.574 52.42 127.682 52.1262 124.754 52.0914C120.046 52.0341 115.373 52.4548 110.723 53.1694C104.18 54.1702 97.7642 55.6564 91.5228 57.8548C85.6873 59.9062 80.1081 62.4978 74.9422 65.9359C72.3282 67.6786 69.9357 69.6778 67.9838 72.1574C67.349 72.964 66.7913 73.8429 66.2909 74.7416C64.949 77.1416 65.0138 79.5863 66.2337 82.0012C66.8411 83.1937 67.5357 84.3514 68.178 85.5215C68.8851 86.8136 69.4851 88.158 69.7141 89.6293C69.8062 90.2368 69.856 90.8641 69.8411 91.4791C69.7838 93.6226 69.6643 95.7587 69.627 97.9022C69.5996 99.7868 69.6643 101.666 69.6768 103.551C69.6768 103.81 69.7639 103.979 69.978 104.131C70.5556 104.537 71.041 104.659 71.8004 104.345C74.4916 103.237 77.2426 102.274 79.9712 101.258C80.2077 101.166 80.4492 101.079 80.7205 100.979ZM79.8567 66.6206C79.9139 66.3069 79.9139 66.0281 80.0359 65.8065C80.1006 65.692 80.3869 65.6347 80.5488 65.6646C80.6359 65.677 80.7355 65.9484 80.7205 66.1003C80.6857 66.4986 80.3994 66.628 79.8567 66.6206ZM72.8211 81.1224C73.1149 80.9133 73.2717 80.7141 73.4559 80.6867C73.7149 80.6494 73.8642 80.851 73.8493 81.1299C73.8344 81.3938 73.6924 81.5929 73.4211 81.5357C73.2418 81.4933 73.0925 81.3141 72.8211 81.1224ZM116.351 60.663C116.401 60.7352 116.538 60.8423 116.553 60.9642C116.573 61.2132 116.117 61.6414 115.896 61.5767C115.781 61.5418 115.637 61.3999 115.617 61.2854C115.58 61.034 116.023 60.6406 116.351 60.663ZM89.6581 63.8073C89.5013 63.5634 89.3146 63.3567 89.2374 63.1128C89.2001 63.0057 89.3494 62.7916 89.4714 62.707C89.5212 62.6621 89.7727 62.7767 89.8374 62.8787C90.0142 63.1625 90.1013 63.4837 89.6581 63.8073ZM80.9869 84.9016C81.2359 84.7074 81.3853 84.5282 81.5645 84.4709C81.7935 84.4086 81.9429 84.5779 81.9703 84.8145C82.0002 85.0858 81.7711 85.4294 81.572 85.3721C81.3927 85.3149 81.2508 85.1207 80.9869 84.9016ZM88.0499 70.6139C88.1071 70.6985 88.2714 70.8354 88.264 70.9649C88.2565 71.2363 88.1071 71.4778 87.8009 71.4628C87.664 71.4578 87.4798 71.2985 87.43 71.1715C87.3503 70.9574 87.6939 70.6213 88.0499 70.6139ZM89.2225 77.8859C89.4938 77.744 89.6656 77.5723 89.8 77.5922C89.9569 77.6146 90.0938 77.8063 90.2357 77.9283C90.0938 78.0851 89.9644 78.344 89.8 78.3639C89.6656 78.3863 89.4938 78.1225 89.2225 77.8859ZM81.6292 78.1797C81.8857 78.1225 82.0998 78.0652 82.3213 78.0278C82.5579 77.993 82.7645 78.1075 82.7346 78.344C82.7147 78.4934 82.5205 78.7 82.3711 78.7274C81.9927 78.7922 81.7935 78.5357 81.6292 78.1797ZM134.461 56.4705C134.866 57.1552 134.861 57.1975 134.319 57.4763C133.888 56.8689 133.888 56.8689 134.461 56.4705ZM96.736 72.1923C96.8929 72.4985 97.0298 72.6503 97.0149 72.7723C96.9875 72.9989 97.0074 73.3275 96.6364 73.3425C96.3726 73.3499 96.2431 73.1508 96.3004 72.9416C96.3576 72.7275 96.5219 72.5433 96.736 72.1923ZM74.9646 86.358C75.1364 86.587 75.2783 86.7065 75.3057 86.8435C75.3505 87.0874 75.0493 87.3588 74.8202 87.2791C74.6933 87.2368 74.5065 87.0152 74.5364 86.9281C74.5862 86.7514 74.763 86.607 74.9646 86.358ZM108.666 57.8622C108.731 58.2282 108.903 58.5842 108.459 58.741C108.365 58.7784 108.074 58.5419 108.051 58.405C107.994 58.0489 108.181 57.8274 108.666 57.8622ZM125.423 60.0406C125.667 59.8763 125.789 59.7419 125.924 59.7195C126.175 59.6771 126.424 59.7767 126.367 60.078C126.34 60.2199 126.118 60.4066 125.974 60.414C125.832 60.4215 125.682 60.2199 125.423 60.0406ZM134.904 64.2206C134.74 63.999 134.595 63.8845 134.575 63.7501C134.518 63.4638 134.74 63.3069 134.981 63.3343C135.125 63.3493 135.374 63.5982 135.354 63.6779C135.297 63.8497 135.11 63.9841 134.904 64.2206ZM69.9855 75.1773C70.2269 75.0005 70.3564 74.8437 70.4933 74.8287C70.7498 74.7989 70.9564 74.9632 70.929 75.2345C70.9141 75.3565 70.7 75.5781 70.6278 75.5582C70.4361 75.5134 70.2718 75.3565 69.9855 75.1773ZM121.445 54.6332C121.117 54.7975 120.937 54.9195 120.738 54.9619C120.688 54.9768 120.489 54.698 120.524 54.6407C120.609 54.4913 120.768 54.3345 120.925 54.2922C121.024 54.2623 121.174 54.449 121.445 54.6332ZM114.317 56.1693C114.181 55.9552 114.024 55.7909 114.059 55.7411C114.166 55.5693 114.337 55.4349 114.487 55.2855C114.581 55.405 114.788 55.5693 114.758 55.634C114.681 55.8208 114.509 55.9552 114.317 56.1693ZM139.96 59.6348C140.082 59.9286 140.174 60.0705 140.189 60.2124C140.212 60.434 140.097 60.6207 139.846 60.6132C139.582 60.6057 139.482 60.4066 139.554 60.1925C139.597 60.0356 139.754 59.8987 139.96 59.6348ZM99.5717 60.3194C99.4447 60.0207 99.3078 59.8489 99.3227 59.6846C99.3302 59.5701 99.5443 59.3908 99.6663 59.3834C99.9078 59.3784 100.022 59.585 99.9501 59.8141C99.9078 59.956 99.7659 60.0705 99.5717 60.3194ZM71.7207 94.123C71.9149 93.9363 72.0344 93.7521 72.1862 93.7072C72.2709 93.6873 72.4203 93.894 72.5497 93.9935C72.4128 94.1305 72.2983 94.2948 72.1414 94.3869C72.0916 94.4143 71.9273 94.2574 71.7207 94.123ZM108.567 65.6123C108.559 65.2413 108.609 64.9575 108.995 64.9775C109.109 64.9849 109.316 65.214 109.301 65.3135C109.239 65.677 108.952 65.677 108.567 65.6123ZM121.338 65.0696C121.468 65.2837 121.632 65.4355 121.602 65.5501C121.575 65.677 121.373 65.7766 121.253 65.8911C121.139 65.7567 120.952 65.6272 120.925 65.4704C120.91 65.3857 121.146 65.2488 121.338 65.0696ZM105.923 70.1633C105.666 70.335 105.522 70.4645 105.352 70.5143C105.308 70.5292 105.108 70.2927 105.123 70.1931C105.143 70.0487 105.288 69.857 105.41 69.8272C105.522 69.8147 105.674 69.9915 105.923 70.1633ZM94.9435 66.0928C95.1078 66.3716 95.2572 66.5135 95.2448 66.643C95.2224 66.7774 95.0506 66.8994 94.9435 67.0214C94.829 66.9143 94.6149 66.7998 94.6149 66.7002C94.6224 66.5359 94.7792 66.3766 94.9435 66.0928ZM76.9364 94.245C77.2501 94.1379 77.514 93.9786 77.7007 94.3296C77.743 94.4143 77.6633 94.6583 77.5787 94.7006C77.2575 94.845 77.0559 94.6856 76.9364 94.245ZM78.221 74.164C78.3778 74.0221 78.4849 73.8653 78.6069 73.8429C78.699 73.8279 78.8857 73.9723 78.9131 74.0794C78.9778 74.3134 78.8135 74.4777 78.5919 74.4777C78.4924 74.4777 78.3928 74.3134 78.221 74.164ZM73.5207 99.3163C73.7846 99.1793 73.929 99.0574 74.0634 99.0574C74.163 99.0574 74.2651 99.2217 74.3646 99.3163C74.2501 99.4308 74.1431 99.615 74.0211 99.6374C73.9065 99.6449 73.7646 99.4806 73.5207 99.3163ZM116.416 66.7276C116.553 66.8994 116.717 67.0214 116.702 67.1135C116.688 67.2206 116.531 67.3351 116.409 67.3849C116.366 67.3998 116.175 67.2355 116.18 67.1558C116.187 67.0338 116.302 66.9218 116.416 66.7276ZM101.138 64.8853C101.287 64.736 101.379 64.5716 101.479 64.5642C101.581 64.5642 101.753 64.721 101.758 64.8206C101.765 64.9202 101.631 65.0994 101.531 65.1218C101.436 65.1418 101.309 64.9924 101.138 64.8853Z" fill="white"/>
<path d="M94.9585 120.724C94.6572 116.552 94.351 112.439 94.0722 108.324C94.0498 107.96 93.9377 107.689 93.6863 107.437C92.9444 106.688 92.2075 105.924 91.473 105.167C90.3004 103.959 89.5785 102.538 89.4216 100.845C89.322 99.7718 89.4714 98.7287 89.7503 97.708C90.4075 95.2806 91.7643 93.2516 93.4149 91.4068C96.0713 88.4442 99.2007 86.0492 102.579 83.9729C110.909 78.8419 119.874 75.2718 129.389 73.0486C133.46 72.1001 137.56 71.3134 141.695 70.7632C146.284 70.1557 150.882 69.7499 155.513 69.9715C159.541 70.1707 163.527 70.686 167.321 72.1847C167.383 72.2146 167.463 72.1997 167.692 72.2221C167.321 71.9358 167.069 71.7291 166.805 71.5424C164.39 69.8495 161.712 68.7342 158.898 67.9126C155.861 67.0338 152.769 66.5483 149.62 66.3267C145.589 66.0429 141.568 66.1923 137.553 66.5558C130.311 67.2056 123.253 68.784 116.309 70.9275C109.495 73.0287 102.88 75.6129 96.6215 79.0709C93.2506 80.9356 90.0515 83.0642 87.1437 85.6086C85.2939 87.2293 83.586 88.9944 82.4209 91.1927C80.9994 93.879 80.4492 96.7146 81.1288 99.722C81.4077 100.937 81.8857 102.08 82.6275 103.095C83.1653 103.822 83.7205 104.529 84.2209 105.286C84.4574 105.637 84.664 106.058 84.7213 106.474C84.9503 108.08 85.142 109.695 85.3014 111.309C85.4209 112.566 85.4507 113.83 85.5429 115.088C85.5578 115.26 85.6997 115.474 85.8441 115.573C88.1295 117.209 90.415 118.845 92.7303 120.445C93.4149 120.923 94.2016 121.053 94.9585 120.724ZM85.5578 105.672C85.9063 105.458 86.2076 105.672 86.4864 105.794C88.2938 106.596 90.0938 107.415 91.8938 108.236C92.0506 108.309 92.1726 108.465 92.3071 108.58C92.0581 108.931 91.844 108.787 91.6299 108.717C89.3494 107.938 85.9287 106.237 85.5578 105.672ZM142.661 56.0348C142.233 55.3402 141.668 54.785 141.068 54.2697C138.84 52.3701 136.261 51.083 133.525 50.1046C130.525 49.0266 127.418 48.4266 124.253 48.0632C121.224 47.7121 118.181 47.5702 115.132 47.62C112.03 47.6698 108.952 47.9636 105.873 48.3619C100.515 49.0565 95.2647 50.2042 90.1013 51.7851C83.2499 53.8838 76.8069 56.8763 70.8493 60.8571C67.8768 62.8339 65.1407 65.1268 62.8926 67.935C60.9707 70.3275 59.5989 72.9789 59.0761 76.0361C58.5906 78.9066 59.0562 81.6352 60.2761 84.2493C60.6346 85.021 61.0702 85.7579 61.4711 86.5073C62.2354 87.9712 62.6561 89.5371 62.691 91.1852C62.7482 93.5877 62.7856 95.9876 62.8428 98.3876C62.8478 98.5644 62.9275 98.8009 63.0569 98.9154C64.8992 100.536 66.8336 102.037 68.8925 103.379C68.9075 103.387 68.9423 103.372 69.027 103.359C69.027 103.158 69.0494 102.936 69.027 102.722C68.7929 100.688 68.8701 98.6515 68.9846 96.615C69.0643 95.1736 69.0842 93.7221 69.1838 92.2782C69.3282 90.0923 68.7705 88.0857 67.7274 86.1936C67.1199 85.0858 66.4502 84.0078 65.8776 82.885C65.4843 82.1082 65.1482 81.2941 64.8768 80.4651C64.2843 78.6079 64.5133 76.793 65.3 75.0353C66.2984 72.8071 67.8344 70.9698 69.5647 69.2844C72.0991 66.8147 75.0069 64.8629 78.0716 63.1202C84.7288 59.341 91.8216 56.6547 99.2231 54.7552C104.001 53.5278 108.838 52.634 113.722 52.0116C117.596 51.5187 121.48 51.2548 125.389 51.3843C129.775 51.5262 134.075 52.1635 138.16 53.834C139.696 54.4489 141.133 55.278 142.661 56.0348ZM61.4337 85.7156C61.4835 85.6658 61.5333 85.6136 61.5856 85.5588C61.8993 85.7082 62.2279 85.8426 62.5341 86.0144C64.2121 86.9729 65.8776 87.9363 67.5556 88.8998C67.6203 88.9371 67.7125 88.9645 67.7498 89.0218C67.8195 89.1363 67.8718 89.2732 67.9266 89.4002C67.7996 89.4425 67.6502 89.5496 67.5357 89.5222C67.3141 89.4649 67.1075 89.3504 66.9058 89.2359C65.4195 88.4069 63.9407 87.5803 62.4694 86.7364C62.1632 86.5571 61.8769 86.3281 61.6055 86.094C61.5059 86.0069 61.4835 85.8426 61.4337 85.7156Z" fill="#E5E1D7"/>
<path d="M93.0788 211.594C93.2581 212.645 93.4298 213.65 93.6016 214.666C93.6215 214.793 93.6788 214.922 93.6589 215.044C93.5294 215.923 94.107 216.18 94.7867 216.409C95.795 216.745 96.8082 216.859 97.809 216.508C98.2522 216.352 98.658 216.045 99.0439 215.752C99.2082 215.63 99.3227 215.373 99.3575 215.166C99.6513 213.7 99.9152 212.236 100.187 210.772C100.216 210.623 100.229 210.474 100.266 210.222C97.8439 210.688 95.4663 211.136 93.0788 211.594ZM194.714 173.528C194.714 173.742 194.729 173.862 194.714 173.976C194.492 175.378 194.3 176.777 194.029 178.164C193.964 178.507 193.693 178.878 193.407 179.092C192.55 179.72 191.579 179.842 190.549 179.521C190.25 179.428 190.078 179.272 190.013 178.948C189.879 178.241 189.692 177.549 189.52 176.807C191.258 175.707 192.943 174.641 194.714 173.528ZM46.6257 179.792C48.1767 181.321 49.7327 182.842 51.2912 184.37C50.9849 184.935 50.4845 184.955 50.0488 184.863C49.4265 184.736 48.8115 184.52 48.2339 184.248C47.7186 184.007 47.3128 183.613 47.3128 182.934C47.3128 182.662 47.1759 182.391 47.0987 182.115C46.8896 181.348 46.6904 180.584 46.4838 179.819C46.541 179.814 46.5833 179.799 46.6257 179.792ZM61.964 155.992C55.6056 154.57 50.4397 151.234 46.3195 146.212C44.9477 144.539 43.9967 142.682 43.5261 140.584C43.3394 139.754 43.1751 138.911 43.0631 138.074C42.6199 134.967 43.7751 132.532 46.2199 130.64C46.9916 130.038 47.8481 129.861 48.7767 130.09C49.292 130.217 49.8198 130.404 50.2704 130.682C55.3342 133.847 60.1839 137.305 64.8195 141.069C67.4062 143.168 69.9132 145.354 72.4775 147.482C73.3065 148.169 73.6924 148.983 73.5854 150.054C73.4484 151.391 73.3489 152.725 73.2269 154.062C73.1845 154.533 72.9356 154.891 72.5646 155.148C72.3132 155.327 72.0344 155.476 71.763 155.611C70.1697 156.39 68.4494 156.534 66.0146 156.577C65.0859 156.626 63.5125 156.333 61.964 155.992ZM44.4971 136.847C44.7908 137.504 45.0473 138.189 45.4182 138.796C47.1485 141.589 49.4987 143.775 52.2048 145.583C55.8695 148.025 59.8404 149.74 64.1772 150.589C66.5772 151.062 68.9423 151.025 71.285 150.333C71.5788 150.248 71.8626 150.119 72.129 149.962C72.2435 149.89 72.2783 149.698 72.3505 149.553C72.3132 149.511 72.2783 149.469 72.2435 149.434C71.9696 149.541 71.7057 149.661 71.4269 149.748C69.5771 150.305 67.7075 150.532 65.778 150.261C60.0122 149.446 54.9259 147.104 50.4049 143.496C48.1617 141.704 46.3692 139.518 45.0622 136.954C44.9552 136.74 44.8108 136.545 44.6913 136.346C44.6265 136.376 44.5543 136.404 44.4896 136.431C44.4896 136.56 44.4473 136.725 44.4971 136.847ZM63.3407 180.999C63.1988 180.965 63.1142 180.965 63.0644 180.92C61.6852 179.67 60.3557 178.378 59.228 176.892C59.0985 176.72 59.0064 176.478 58.9765 176.264C58.7549 174.312 58.5284 172.371 58.3491 170.419C58.1425 168.106 57.9483 165.798 57.8064 163.478C57.6496 160.976 57.5624 158.476 57.4479 155.977C57.4404 155.763 57.4778 155.541 57.4902 155.319C59.1831 155.812 60.8063 156.283 62.5416 156.791C62.4619 164.862 62.3499 172.928 63.3407 180.999ZM57.906 134.94C57.784 134.848 57.662 134.646 57.6695 134.496C57.7342 133.316 57.8263 132.146 57.9209 130.897C58.1051 130.974 58.2346 131.004 58.3267 131.076C59.92 132.338 61.5134 133.61 63.0992 134.897C63.2212 134.997 63.3134 135.204 63.3134 135.353C63.271 136.453 63.1914 137.554 63.1142 138.803C61.2918 137.462 59.5914 136.212 57.906 134.94ZM134.232 166.371C135.003 162.435 136.903 159.084 139.704 156.241C142.841 153.061 146.719 151.533 151.104 151.147C151.676 151.097 152.219 151.169 152.754 151.433C154.654 152.362 156.591 153.211 158.455 154.211C159.541 154.792 160.527 155.561 161.512 156.305C162.284 156.883 162.862 157.662 163.248 158.548C163.713 159.604 164.199 160.669 164.577 161.762C165.556 164.598 165.762 167.533 165.219 170.471C164.383 174.97 162.078 178.642 158.448 181.405C154.225 184.622 149.533 185.349 144.591 183.335C141.603 182.12 139.004 180.235 136.704 177.962C136.559 177.82 136.41 177.671 136.303 177.499C134.797 175.057 133.831 172.455 133.876 169.527C133.99 168.462 134.025 167.399 134.232 166.371ZM156.506 154.246C155.069 154.169 153.683 154.468 152.333 154.941C147.668 156.569 144.232 159.676 141.718 163.864C140.433 166.005 139.44 168.27 139.176 170.777C138.84 173.949 139.398 176.949 141.118 179.67C141.454 180.205 141.939 180.656 142.405 181.106C142.604 181.298 142.91 181.385 143.219 181.55C143.346 181.084 143.062 180.92 142.883 180.743C141.255 179.035 140.441 176.941 140.04 174.663C139.604 172.164 139.853 169.719 140.819 167.369C142.841 162.42 146.017 158.491 150.947 156.161C152.64 155.362 154.39 154.754 156.297 154.811C156.705 154.826 157.111 154.899 157.527 154.941C157.768 154.961 158.012 154.976 158.254 154.991C158.269 154.919 158.276 154.846 158.291 154.777C157.776 154.326 157.133 154.284 156.506 154.246ZM152.562 164.083C152.562 164.919 152.704 165.041 153.446 164.728C154.275 164.376 155.104 164.006 155.911 163.612C156.518 163.318 156.576 163.127 156.277 162.512C155.796 161.541 155.311 160.57 154.806 159.611C154.646 159.32 154.447 159.041 154.225 158.797C153.934 158.484 153.633 158.541 153.419 158.912C153.369 158.999 153.339 159.106 153.327 159.206C153.04 160.777 152.754 162.347 152.475 163.918C152.505 163.926 152.533 163.926 152.562 163.933C152.562 163.976 152.562 164.033 152.562 164.083ZM146.797 152.79C146.533 152.705 146.269 152.591 145.982 152.855C146.311 153.405 146.926 153.447 147.389 153.711C147.904 153.997 148.44 154.261 148.99 154.475C149.49 154.677 149.911 155.155 150.611 154.956C150.27 154.398 148.226 153.268 146.797 152.79ZM144.225 154.777C145.233 155.289 146.254 155.79 147.282 156.268C147.397 156.325 147.583 156.226 147.74 156.198C147.683 156.069 147.66 155.877 147.561 155.82C146.498 155.247 145.417 154.689 144.347 154.134C144.148 154.032 143.946 154.027 143.774 154.361C143.904 154.498 144.046 154.682 144.225 154.777ZM139.146 166.341C138.24 165.855 137.319 165.392 136.403 164.919C136.31 164.869 136.203 164.797 136.119 164.812C135.959 164.835 135.81 164.919 135.661 164.969C135.733 165.098 135.768 165.283 135.875 165.335C136.903 165.863 137.946 166.376 138.989 166.869C139.111 166.926 139.295 166.841 139.597 166.799C139.383 166.577 139.29 166.42 139.146 166.341ZM143.697 159.355C142.661 158.855 141.618 158.362 140.575 157.891C140.296 157.762 140.281 157.804 139.948 158.083C140.276 158.419 142.34 159.455 143.339 159.763C143.498 159.813 143.675 159.783 144.026 159.806C143.831 159.542 143.789 159.397 143.697 159.355ZM142.146 156.626C143.09 157.089 144.046 157.533 145.004 157.983C145.119 158.033 145.275 158.105 145.36 158.055C145.455 158.006 145.519 157.841 145.524 157.719C145.532 157.655 145.405 157.562 145.318 157.52C144.419 157.077 143.525 156.634 142.612 156.218C142.375 156.111 142.081 156.111 141.817 156.061C141.783 156.133 141.753 156.206 141.718 156.283C141.86 156.39 141.989 156.547 142.146 156.626ZM137.533 163.005C138.432 163.448 139.34 163.869 140.254 164.284C140.388 164.342 140.66 164.334 140.724 164.247C140.896 164.02 140.69 163.876 140.495 163.784C139.674 163.356 138.86 162.92 138.033 162.504C137.762 162.37 137.453 162.313 137.09 162.584C137.269 162.756 137.376 162.928 137.533 163.005ZM142.196 161.518C141.168 161.048 140.139 160.59 139.104 160.142C138.989 160.092 138.817 160.162 138.668 160.184C138.603 160.62 138.939 160.677 139.161 160.804C140.69 161.655 141.683 161.984 142.383 161.827C142.29 161.678 142.261 161.548 142.196 161.518ZM150.362 151.953C150.255 151.911 150.09 151.991 149.941 152.018C149.961 152.441 150.275 152.519 150.511 152.626C151.589 153.111 152.582 153.798 153.79 153.955C152.739 153.091 151.589 152.446 150.362 151.953ZM138.588 174.263C138.539 174.136 138.389 174.026 138.255 173.964C137.488 173.605 136.719 173.262 135.947 172.921C135.852 172.878 135.745 172.849 135.646 172.871C135.554 172.883 135.424 172.948 135.412 173.02C135.382 173.127 135.404 173.284 135.474 173.356C135.569 173.463 135.718 173.541 135.86 173.598C136.612 173.927 137.369 174.248 138.118 174.576C138.21 174.621 138.31 174.641 138.519 174.698C138.546 174.534 138.633 174.37 138.588 174.263ZM137.854 168.698C137.162 168.355 136.467 168.026 135.775 167.69C135.703 167.655 135.638 167.613 135.569 167.591C135.347 167.521 135.083 167.406 134.969 167.69C134.854 167.969 135.103 168.098 135.317 168.191C136.089 168.534 136.868 168.885 137.652 169.206C137.839 169.283 138.068 169.249 138.275 169.271C138.297 169.191 138.317 169.112 138.339 169.034C138.183 168.912 138.033 168.783 137.854 168.698ZM135.718 170.212C135.561 170.142 135.354 170.205 135.168 170.205C135.138 170.269 135.118 170.327 135.088 170.391C135.24 170.533 135.374 170.712 135.554 170.812C136.696 171.469 137.847 171.905 138.481 171.848C137.575 171.049 136.647 170.628 135.718 170.212ZM137.01 175.363C136.883 175.283 136.681 175.328 136.532 175.313C136.368 175.664 136.567 175.814 136.776 175.913C137.568 176.321 138.21 177.029 139.196 177.029C138.561 176.321 137.774 175.848 137.01 175.363ZM140.553 179.877C140.503 179.67 140.518 179.57 140.476 179.543C139.505 178.878 138.526 178.221 137.54 177.571C137.446 177.507 137.311 177.499 137.197 177.469C137.159 177.526 137.117 177.584 137.082 177.641C138.125 178.485 139.188 179.307 140.553 179.877ZM148.089 147.283C148.325 147.654 148.183 148.017 147.997 148.368C147.977 148.411 147.947 148.468 147.904 148.49C147.69 148.605 147.446 148.827 147.27 148.782C147.09 148.739 146.884 148.448 146.846 148.234C146.789 147.841 146.846 147.432 146.854 146.982C147.419 146.897 147.825 146.867 148.089 147.283ZM135.466 156.704C135.382 156.806 135.183 156.92 135.088 156.89C134.946 156.84 134.782 156.676 134.754 156.534C134.667 156.091 134.702 155.663 135.175 155.339C135.725 155.725 135.84 156.263 135.466 156.704ZM158.191 150.333C158.104 150.482 157.898 150.562 157.741 150.676C157.626 150.497 157.412 150.318 157.405 150.134C157.397 149.775 157.542 149.439 157.848 149.217C158.341 149.491 158.463 149.87 158.191 150.333ZM153.832 159.584C153.897 159.569 153.962 159.554 154.026 159.542C154.611 160.647 155.204 161.762 155.819 162.913C154.92 163.313 154.103 163.669 153.162 164.083C153.404 162.492 153.618 161.033 153.832 159.584Z" fill="#F6F6F6"/>
<path d="M191.613 188.917L184.251 191.056C184.251 191.056 180.619 188.956 180.149 186.032C179.679 183.109 182.054 182.62 182.054 182.62L184.51 182.401C184.51 182.401 181.25 179.119 182.046 176.984C182.841 174.85 185.66 174.653 185.66 174.653L188.494 175.256C188.494 175.256 184.239 169.192 187.587 166.479C190.935 163.766 195.458 164.996 195.458 164.996L198.254 166.314C198.254 166.314 197.871 161.627 201.288 160.803C204.705 159.98 206.36 162.201 206.36 162.201L207.122 163.406C207.122 163.406 209.159 160.72 212.078 161.211C214.996 161.702 214.841 166.381 214.841 166.381L215.069 176.937L191.613 188.917Z" fill="#1E1D30"/>
<path d="M192.387 188.872C192.387 188.872 190.295 186.582 191.277 184.726C192.259 182.87 194.707 181.488 194.707 181.488C194.707 181.488 192.774 177.314 195.79 174.778C198.807 172.241 201.49 172.906 201.49 172.906L204.253 175.266C204.253 175.266 205.243 172.183 205.547 171.913C205.852 171.644 207.824 171.525 207.824 171.525L210.452 172.317C210.452 172.317 208.834 169.18 211.836 167.78C214.837 166.381 216.38 167.44 216.38 167.44L217.74 170.177C217.74 170.177 218.491 168.461 220.877 169.147C223.264 169.834 223.251 171.926 223.251 171.926L223.025 173.302C223.025 173.302 226.141 171.84 227.648 174.193C229.157 176.546 228.81 179.112 228.81 179.112L192.387 188.872Z" fill="#F8F9FD"/>
<mask id="mask1_80_83" style="mask-type:luminance" maskUnits="userSpaceOnUse" x="174" y="154" width="57" height="39">
<path d="M174 167.251L223.455 154L230.257 179.383L180.801 192.635L174 167.251Z" fill="white"/>
</mask>
<g mask="url(#mask1_80_83)">
<path d="M227.266 172.81C226.323 172.174 225.181 172.027 223.857 172.364C223.89 170.894 223.415 169.058 221.455 168.49C219.828 168.019 218.68 168.387 217.954 168.85C217.644 168.001 217.066 166.915 216.035 166.342C215.95 166.295 215.858 166.278 215.768 166.235C215.764 164.785 215.443 160.827 212.172 160.498C209.803 160.259 208.161 161.367 207.27 162.217C206.388 160.724 204.542 159.116 201.544 159.874L201.46 159.896C198.584 160.667 197.652 163.199 197.503 165.168C195.714 164.15 192.14 162.781 188.383 165.124C187.026 165.971 186.194 167.131 185.913 168.574C185.522 170.579 186.302 172.697 187.018 174.115C185.528 173.822 183.463 173.855 182.025 175.646C180.738 177.248 181.136 179.506 183.07 181.876C182.18 181.892 181.132 182.075 180.338 182.719C179.673 183.261 179.291 184.033 179.206 185.014C178.861 188.964 183.601 191.541 183.802 191.65C183.969 191.737 184.143 191.756 184.324 191.706L229.15 179.695C229.224 179.675 229.294 179.644 229.358 179.601C229.423 179.558 229.479 179.506 229.527 179.445C229.574 179.384 229.611 179.317 229.637 179.244C229.662 179.171 229.676 179.096 229.677 179.018C229.68 178.835 229.718 174.463 227.266 172.81ZM180.621 185.134C180.674 184.543 180.873 184.114 181.235 183.82C182.117 183.098 183.773 183.298 184.397 183.372C184.734 183.412 185.195 183.467 185.426 183C185.564 182.721 185.456 182.335 185.234 182.12C184.363 181.282 181.635 178.403 183.134 176.534C184.864 174.381 188.136 175.931 188.274 175.996C188.346 176.032 188.421 176.054 188.499 176.064C188.578 176.074 188.657 176.07 188.735 176.055C188.813 176.038 188.885 176.01 188.954 175.969C189.022 175.928 189.081 175.877 189.133 175.816C189.184 175.755 189.223 175.688 189.252 175.613C189.281 175.539 189.296 175.462 189.299 175.383C189.302 175.304 189.291 175.226 189.268 175.15C189.244 175.074 189.209 175.004 189.162 174.939C189.138 174.906 186.771 171.61 187.307 168.846C187.512 167.791 188.108 166.965 189.134 166.33C193.558 163.576 197.608 166.907 197.779 167.049C197.833 167.095 197.893 167.132 197.96 167.16C198.025 167.188 198.093 167.205 198.165 167.212C198.236 167.22 198.307 167.216 198.377 167.202C198.447 167.188 198.513 167.163 198.576 167.13C198.639 167.096 198.695 167.053 198.745 167.002C198.795 166.951 198.836 166.893 198.869 166.829C198.902 166.766 198.924 166.699 198.937 166.629C198.949 166.558 198.951 166.488 198.942 166.416C198.92 166.242 198.412 162.141 201.89 161.252C205.224 160.41 206.29 163.386 206.401 163.724C206.421 163.788 206.45 163.848 206.487 163.904C206.524 163.96 206.568 164.009 206.619 164.053C206.67 164.096 206.726 164.131 206.788 164.159C206.849 164.186 206.913 164.204 206.979 164.214C207.046 164.224 207.112 164.223 207.178 164.214C207.245 164.205 207.309 164.186 207.37 164.159C207.431 164.131 207.487 164.096 207.538 164.053C207.59 164.01 207.634 163.96 207.671 163.905C207.734 163.811 209.229 161.631 212.025 161.914C213.952 162.109 214.285 164.685 214.331 165.961C213.758 165.99 213.208 166.121 212.682 166.352C210.022 167.495 209.373 169.709 209.429 171.413C208.308 170.962 206.697 170.566 205.457 171.317C204.516 171.885 204.106 172.819 203.942 173.677C203.243 173.029 202.271 172.372 201.055 172.141C199.477 171.842 197.866 172.317 196.268 173.557C194.479 174.94 193.474 176.496 193.278 178.179C193.22 178.717 193.242 179.252 193.344 179.784C193.446 180.315 193.624 180.82 193.877 181.299C192.816 181.944 190.839 183.377 190.41 185.403C190.196 186.426 190.402 187.445 191.012 188.441L184.238 190.256C183.37 189.729 180.396 187.722 180.621 185.134ZM228.24 178.466L192.465 188.052C191.86 187.243 191.644 186.469 191.806 185.696C192.233 183.634 195.159 182.22 195.189 182.205C195.238 182.182 195.283 182.153 195.325 182.12C195.367 182.086 195.405 182.049 195.438 182.007C195.472 181.965 195.5 181.92 195.523 181.871C195.547 181.823 195.564 181.773 195.576 181.72C195.588 181.668 195.594 181.615 195.594 181.561C195.594 181.507 195.588 181.454 195.576 181.402C195.564 181.35 195.546 181.299 195.522 181.251C195.498 181.203 195.47 181.157 195.436 181.116C195.427 181.104 194.516 179.926 194.694 178.345C194.844 177.057 195.667 175.823 197.141 174.682C198.402 173.706 199.63 173.322 200.784 173.539C202.762 173.909 203.988 175.917 204 175.939C204.044 176.009 204.098 176.07 204.162 176.122C204.227 176.173 204.298 176.213 204.377 176.24C204.454 176.267 204.534 176.281 204.617 176.281C204.7 176.281 204.78 176.267 204.858 176.24C204.936 176.211 205.007 176.169 205.071 176.116C205.134 176.062 205.187 176 205.228 175.928C205.27 175.856 205.298 175.778 205.313 175.697C205.327 175.615 205.328 175.533 205.314 175.451C205.308 175.43 204.975 173.273 206.198 172.534C207.254 171.895 209.332 172.872 209.978 173.264C210.04 173.302 210.106 173.329 210.176 173.347C210.246 173.364 210.317 173.37 210.39 173.367C210.462 173.362 210.532 173.347 210.6 173.322C210.667 173.296 210.73 173.261 210.786 173.216C210.843 173.172 210.892 173.12 210.933 173.06C210.974 173.001 211.005 172.936 211.027 172.868C211.049 172.798 211.06 172.728 211.059 172.655C211.059 172.583 211.048 172.512 211.027 172.443C210.983 172.306 210 169.053 213.249 167.66C214.092 167.298 214.776 167.27 215.338 167.58C216.337 168.132 216.782 169.706 216.87 170.266C216.881 170.336 216.902 170.403 216.934 170.467C216.965 170.531 217.006 170.59 217.055 170.641C217.104 170.693 217.16 170.737 217.222 170.772C217.284 170.807 217.35 170.832 217.419 170.847C217.49 170.862 217.561 170.867 217.632 170.86C217.704 170.855 217.773 170.838 217.84 170.811C217.906 170.784 217.968 170.748 218.023 170.703C218.079 170.658 218.128 170.606 218.168 170.546C218.254 170.412 219.084 169.282 221.055 169.854C222.952 170.404 222.347 173.121 222.321 173.237C222.291 173.367 222.297 173.495 222.338 173.622C222.381 173.749 222.453 173.855 222.555 173.941C222.657 174.028 222.775 174.081 222.907 174.101C223.038 174.121 223.166 174.106 223.289 174.054C224.625 173.485 225.694 173.466 226.466 173.986C227.768 174.86 228.165 177.173 228.241 178.466L228.24 178.466Z" fill="#231F20"/>
</g>
</g>
<path d="M62.2489 29.352V14.056H65.0649V11.336H67.8809V8.584H71.9769V11.336H74.7929V14.056H77.6409V29.352H73.5449V23.88H66.3129V29.352H62.2489ZM66.3129 19.496H73.5449V15.688H70.7289V12.968H69.1289V15.688H66.3129V19.496ZM81.5301 29.352V11.336H84.3461V8.584H94.0741V11.336H96.9221V21.128H94.0741V23.88H92.6981V25H95.4821V29.352H91.4501V26.632H88.5701V23.88H85.5941V29.352H81.5301ZM85.5941 19.496H92.8261V12.968H85.5941V19.496ZM103.627 29.352V26.632H100.811V11.336H103.627V8.584H113.355V11.336H116.203V15.688H112.107V12.968H104.875V16.808H110.539V21.128H104.875V25H112.107V22.248H116.203V26.632H113.355V29.352H103.627ZM120.093 29.352V8.584H124.157V11.336H126.973V14.056H129.821V22.248H131.389V8.584H135.485V29.352H131.389V26.632H128.573V23.88H125.725V15.688H124.157V29.352H120.093ZM139.374 29.352V14.056H142.19V11.336H145.006V8.584H149.102V11.336H151.918V14.056H154.766V29.352H150.67V23.88H143.438V29.352H139.374ZM143.438 19.496H150.67V15.688H147.854V12.968H146.254V15.688H143.438V19.496Z" fill="#1E1E2F"/>
<defs>
<clipPath id="clip0_80_83">
<rect width="230" height="230" fill="white" transform="matrix(-1 0 0 1 230 16)"/>
</clipPath>
</defs>
</svg>
