<svg xmlns="http://www.w3.org/2000/svg" xmlns:xlink="http://www.w3.org/1999/xlink" width="500" zoomAndPan="magnify" viewBox="0 0 375 374.999991" height="500" preserveAspectRatio="xMidYMid meet" version="1.0"><defs><clipPath id="4e85ce1228"><path d="M 27.585938 18.28125 L 347.085938 18.28125 L 347.085938 355 L 27.585938 355 Z M 27.585938 18.28125 " clip-rule="nonzero"/></clipPath></defs><path fill="#d0ac67" d="M 95.464844 217.675781 C 95.464844 217.675781 94.539062 224.765625 94.710938 228.335938 C 94.710938 229.597656 94.730469 233.648438 94.730469 233.648438 C 94.730469 233.648438 94.382812 233.523438 94.011719 233.410156 C 91.765625 232.738281 89.84375 231.566406 88.527344 229.597656 C 87.128906 227.496094 86.535156 223.660156 89.476562 220.65625 C 90.914062 219.195312 92.671875 218.28125 94.660156 217.808594 C 95.167969 217.6875 95.464844 217.675781 95.464844 217.675781 Z M 124.738281 167.34375 L 124.808594 174.082031 C 124.8125 174.648438 125.128906 175.164062 125.628906 175.425781 C 126.621094 175.945312 128.273438 176.789062 129.097656 177.105469 C 129.566406 177.289062 129.882812 177.386719 129.882812 177.386719 L 129.882812 165.695312 C 129.882812 165.695312 126.367188 165.695312 126.367188 165.695312 C 125.460938 165.695312 124.730469 166.4375 124.738281 167.34375 Z M 87.105469 303.542969 C 86.035156 304.828125 84.878906 305.304688 83.332031 304.960938 C 82.191406 304.707031 81.097656 304.289062 80.144531 303.578125 C 79.371094 303.003906 78.648438 302.378906 78.164062 301.515625 C 77.671875 300.621094 77.5 299.730469 77.933594 298.757812 C 78 298.613281 78.699219 297.207031 79.679688 295.21875 C 78.730469 295.679688 77.902344 296.359375 77.273438 297.191406 C 76.871094 297.722656 76.546875 298.316406 76.320312 298.953125 C 76.074219 299.644531 75.941406 300.386719 75.941406 301.160156 C 75.941406 301.863281 76.050781 302.542969 76.253906 303.179688 C 76.476562 303.863281 76.808594 304.5 77.230469 305.070312 C 77.757812 305.785156 78.421875 306.386719 79.191406 306.835938 C 79.78125 307.1875 80.429688 307.445312 81.121094 307.59375 C 81.570312 307.695312 82.039062 307.746094 82.519531 307.746094 L 82.546875 307.746094 C 83.222656 307.742188 83.875 307.640625 84.488281 307.445312 C 84.867188 307.328125 85.234375 307.171875 85.582031 306.988281 C 86.179688 306.675781 86.722656 306.269531 87.191406 305.792969 C 87.636719 305.347656 88.019531 304.835938 88.316406 304.277344 C 88.652344 303.65625 88.890625 302.980469 89.011719 302.265625 C 89.070312 301.90625 89.101562 301.535156 89.101562 301.160156 C 89.101562 300.855469 89.082031 300.554688 89.039062 300.257812 C 88.15625 301.902344 87.449219 303.132812 87.101562 303.546875 Z M 176.324219 288.140625 C 173.839844 286.175781 171.066406 285.828125 168.179688 287.140625 C 165.265625 288.460938 163.84375 290.824219 163.679688 293.980469 C 163.652344 295.035156 163.828125 296.046875 164.226562 297.015625 C 164.328125 297.261719 164.589844 297.714844 164.589844 297.714844 C 164.589844 297.714844 166.363281 295.574219 166.347656 294.300781 C 166.328125 292.679688 167.121094 291.386719 168.589844 290.617188 C 169.847656 289.960938 171.183594 289.722656 172.585938 290.105469 C 174.335938 290.582031 175.351562 291.53125 175.988281 292.765625 C 176.773438 294.273438 176.578125 297.417969 174.257812 298.84375 C 173.683594 299.195312 172.265625 301.429688 172.21875 301.484375 C 172.261719 301.484375 175.628906 301.140625 177.371094 298.800781 C 179.992188 295.652344 179.445312 290.613281 176.324219 288.140625 Z M 176.324219 288.140625 " fill-opacity="1" fill-rule="nonzero"/><path fill="#f6e4c5" d="M 121.273438 299.429688 C 122.679688 310.140625 118.777344 325.214844 106.253906 334.773438 C 101.21875 338.617188 95.574219 341.066406 89.308594 341.953125 C 75.578125 343.90625 63.980469 339.707031 54.699219 329.429688 C 49.488281 323.65625 46.425781 316.804688 45.3125 309.070312 C 42.648438 290.488281 52.78125 272.976562 71.601562 266.71875 C 76.765625 265 80.574219 264.710938 86.03125 265.085938 C 88.960938 265.289062 91.980469 266.042969 91.980469 266.042969 L 91.253906 268.335938 C 91.253906 268.335938 91.105469 268.742188 90.851562 269.433594 C 88.363281 268.878906 85.8125 268.601562 83.21875 268.601562 C 78.488281 268.601562 73.894531 269.53125 69.570312 271.359375 C 65.394531 273.125 61.644531 275.65625 58.425781 278.875 C 55.207031 282.097656 52.675781 285.847656 50.910156 290.027344 C 49.082031 294.351562 48.15625 298.945312 48.15625 303.679688 C 48.15625 308.414062 49.082031 313.011719 50.910156 317.335938 C 52.675781 321.511719 55.207031 325.265625 58.425781 328.488281 C 61.644531 331.707031 65.394531 334.238281 69.570312 336.003906 C 73.894531 337.832031 78.488281 338.761719 83.21875 338.761719 C 87.953125 338.761719 92.542969 337.832031 96.867188 336.003906 C 101.042969 334.238281 104.792969 331.707031 108.011719 328.488281 C 111.234375 325.265625 113.761719 321.511719 115.527344 317.335938 C 117.355469 313.011719 118.285156 308.414062 118.285156 303.679688 C 118.285156 298.945312 117.355469 294.351562 115.527344 290.027344 C 113.761719 285.847656 111.234375 282.097656 108.011719 278.875 C 105.980469 276.84375 103.734375 275.082031 101.304688 273.621094 C 101.605469 272.8125 102.65625 269.992188 102.65625 269.992188 C 102.65625 269.992188 103.632812 270.519531 104.972656 271.523438 C 115.726562 279.574219 119.667969 287.214844 121.273438 299.429688 Z M 277.269531 299.636719 C 276.183594 291.234375 272.921875 283.84375 267.164062 277.644531 C 258.34375 268.144531 247.398438 263.941406 234.476562 264.882812 C 233.136719 264.980469 232.988281 264.96875 232.988281 264.96875 C 232.988281 264.96875 232.960938 267.054688 232.9375 268.949219 C 234.570312 268.714844 236.230469 268.601562 237.90625 268.601562 C 242.636719 268.601562 247.230469 269.53125 251.554688 271.359375 C 255.730469 273.125 259.480469 275.65625 262.699219 278.875 C 265.917969 282.097656 268.449219 285.847656 270.214844 290.027344 C 272.042969 294.351562 272.96875 298.945312 272.96875 303.679688 C 272.96875 308.414062 272.039062 313.011719 270.214844 317.335938 C 268.449219 321.511719 265.917969 325.265625 262.699219 328.484375 C 259.480469 331.707031 255.730469 334.238281 251.554688 336.003906 C 247.230469 337.832031 242.636719 338.761719 237.90625 338.761719 C 233.171875 338.761719 228.578125 337.832031 224.257812 336.003906 C 220.082031 334.238281 216.328125 331.707031 213.109375 328.484375 C 209.890625 325.265625 207.363281 321.511719 205.597656 317.335938 C 205.378906 316.816406 205.167969 316.292969 204.976562 315.761719 C 203.832031 315.886719 201.464844 316.058594 200.828125 316.15625 C 200.828125 316.15625 201.378906 317.945312 201.554688 318.394531 C 205.128906 327.527344 210.925781 333.707031 219.605469 338.40625 C 227.300781 342.574219 235.070312 343.707031 243.742188 342.433594 C 250.265625 341.476562 256.1875 339.121094 261.550781 335.25 C 272.328125 327.46875 279.113281 313.921875 277.269531 299.632812 Z M 277.269531 299.636719 " fill-opacity="1" fill-rule="nonzero"/><path fill="#aabebc" d="M 168.21875 296.34375 C 168.292969 296.09375 168.308594 295.824219 168.257812 295.566406 C 168.207031 295.3125 168.1875 295.046875 168.203125 294.769531 C 168.289062 293.269531 169.5 292.042969 171 291.933594 C 172.777344 291.804688 174.257812 293.207031 174.257812 294.957031 C 174.257812 296.351562 173.320312 297.523438 172.039062 297.878906 C 171.832031 297.9375 171.644531 298.066406 171.519531 298.246094 C 170.539062 299.632812 169.683594 301.113281 168.683594 302.484375 C 167.503906 304.101562 158.445312 316.660156 154.273438 321.910156 C 154.230469 321.976562 154.191406 322.039062 154.152344 322.097656 L 147.808594 322.097656 C 148.160156 321.679688 148.570312 321.1875 148.742188 320.996094 C 151.617188 317.832031 154.457031 314.640625 157.050781 311.234375 C 159.808594 307.613281 162.742188 304.128906 165.597656 300.582031 C 166.027344 300.046875 166.445312 299.496094 166.863281 298.949219 C 167.472656 298.144531 167.941406 297.285156 168.21875 296.34375 Z M 248.652344 301.90625 C 248.886719 302.558594 248.886719 303.238281 248.664062 303.867188 C 248.457031 304.441406 248.066406 304.972656 247.488281 305.398438 C 246.996094 305.761719 246.425781 306.078125 245.84375 306.253906 C 244.953125 306.523438 244.109375 306.765625 243.273438 306.992188 C 242.507812 307.199219 241.75 307.394531 240.953125 307.574219 C 240.394531 307.703125 239.816406 307.828125 239.214844 307.945312 C 238.601562 308.070312 237.960938 308.1875 237.28125 308.304688 C 237 308.355469 236.710938 308.402344 236.414062 308.449219 C 235.898438 308.53125 235.382812 308.609375 234.867188 308.683594 C 233.898438 308.820312 232.929688 308.941406 231.960938 309.050781 C 229.410156 309.34375 226.851562 309.578125 224.300781 309.878906 C 218.964844 310.511719 213.621094 311.089844 208.285156 311.75 C 207.804688 311.8125 207.328125 311.867188 206.84375 311.921875 C 205.859375 312.03125 204.871094 312.125 203.882812 312.207031 C 198.898438 312.628906 193.894531 312.757812 188.886719 312.859375 C 184.539062 312.949219 180.214844 312.570312 175.882812 312.273438 C 168.285156 311.757812 166.269531 310.929688 166.269531 310.929688 C 166.269531 310.929688 167.261719 309.390625 167.609375 308.890625 C 168.046875 308.269531 170.9375 304 170.9375 304 C 170.9375 304 173.378906 304.0625 174.429688 303.78125 C 182.089844 301.980469 184.671875 293.398438 179.492188 287.183594 C 176.53125 283.632812 171.429688 282.636719 167.058594 284.714844 C 163.015625 286.632812 160.613281 290.667969 160.886719 295.074219 C 160.976562 296.554688 161.429688 297.910156 162.246094 299.144531 C 162.492188 299.515625 162.792969 299.804688 162.792969 299.804688 L 157.414062 306.375 C 157.414062 306.375 157.09375 306.058594 156.699219 305.699219 C 154.976562 304.148438 153.738281 302.28125 152.914062 300.105469 C 151.203125 295.597656 151.4375 291.191406 153.453125 286.847656 C 154.351562 284.90625 155.332031 283.015625 156.671875 281.320312 C 158.421875 279.105469 160.589844 277.457031 163.175781 276.359375 C 165.085938 275.546875 167.074219 275 169.113281 274.617188 C 169.78125 274.492188 170 274.492188 170 274.492188 L 171.042969 275.425781 C 175.066406 279.769531 180.042969 282.390625 185.792969 283.644531 C 188.554688 284.246094 191.308594 284.863281 194.109375 285.257812 C 197.886719 285.789062 201.675781 285.734375 205.457031 285.421875 C 206.34375 285.351562 207.230469 285.257812 208.117188 285.160156 C 209.414062 285.011719 210.707031 284.84375 212 284.675781 C 212.421875 284.625 212.839844 284.570312 213.261719 284.515625 C 213.683594 284.460938 214.074219 284.433594 214.246094 284.421875 C 214.308594 284.417969 214.339844 284.417969 214.339844 284.417969 C 214.339844 284.417969 216.484375 285.214844 219.503906 286.390625 C 224.335938 288.269531 231.402344 291.117188 235.492188 293.203125 C 235.738281 293.328125 235.980469 293.453125 236.226562 293.574219 C 236.902344 293.914062 237.578125 294.242188 238.257812 294.574219 C 239.191406 295.027344 240.128906 295.472656 241.066406 295.921875 C 241.597656 296.175781 242.117188 296.449219 242.625 296.730469 C 243.207031 297.054688 243.773438 297.394531 244.335938 297.746094 C 244.738281 297.996094 245.136719 298.253906 245.53125 298.515625 C 246.523438 299.171875 247.359375 299.976562 248.089844 300.902344 C 248.34375 301.222656 248.53125 301.558594 248.652344 301.902344 Z M 236.804688 298.15625 C 235.679688 297.472656 234.472656 296.941406 233.273438 296.394531 C 230.996094 295.355469 228.675781 294.414062 226.347656 293.484375 C 223.277344 292.257812 220.167969 291.132812 217.035156 290.074219 C 213.960938 289.039062 210.851562 287.90625 207.636719 287.375 C 207.566406 287.363281 207.472656 287.347656 207.367188 287.332031 C 207.003906 287.273438 206.503906 287.226562 206.296875 287.433594 C 206.089844 287.640625 206.234375 288 206.496094 288.136719 C 206.980469 288.394531 207.484375 288.617188 207.992188 288.816406 C 212.097656 290.417969 216.230469 291.9375 220.300781 293.621094 C 225.386719 295.722656 230.421875 297.953125 235.472656 300.136719 C 236.230469 300.464844 236.96875 300.84375 237.722656 301.175781 C 238.210938 301.390625 239.097656 301.53125 239.347656 300.890625 C 239.761719 299.835938 237.496094 298.574219 236.800781 298.15625 Z M 112.023438 197.707031 C 112.949219 199.230469 113.4375 200.804688 112.976562 202.632812 C 112.785156 203.394531 112.375 204.972656 112.375 204.972656 C 112.375 204.972656 114.121094 205.589844 114.902344 205.820312 C 115.761719 206.074219 118.054688 206.753906 118.054688 206.753906 C 118.054688 206.753906 118.136719 206.546875 118.285156 206.160156 C 119.265625 203.585938 119.578125 200.953125 118.945312 198.246094 C 118.53125 196.496094 117.835938 194.847656 117.09375 193.214844 C 115.890625 190.578125 114.800781 187.898438 114.335938 185.011719 C 113.949219 182.648438 114.066406 180.332031 115.019531 178.113281 C 116.085938 175.625 117.902344 173.964844 120.5 173.148438 C 121.070312 172.96875 122.386719 172.621094 122.386719 172.621094 C 122.386719 172.621094 122.382812 170.386719 122.382812 170.179688 C 122.382812 170.179688 122.382812 168.664062 122.359375 167.90625 C 122.351562 167.496094 122.386719 167.214844 122.386719 167.214844 C 122.386719 167.214844 119.691406 167.179688 117.691406 167.613281 C 116.878906 167.792969 115.246094 168.386719 114.503906 168.769531 C 110.246094 170.96875 108.09375 174.433594 107.460938 179.128906 C 106.992188 182.617188 107.660156 185.996094 108.539062 189.339844 C 109.308594 192.289062 110.433594 195.09375 112.023438 197.707031 Z M 97.492188 235.871094 C 97.640625 236.09375 97.839844 236.296875 98.085938 236.355469 C 98.285156 236.40625 98.484375 236.472656 98.683594 236.527344 C 100.402344 237.019531 100.496094 237 100.496094 237 C 100.496094 237 104.320312 224.5 105.691406 219.023438 C 106.257812 216.777344 106.300781 216.566406 106.300781 216.558594 C 106.300781 216.558594 106.300781 216.558594 106.300781 216.5625 C 105.460938 216.238281 104.308594 215.921875 102.824219 215.660156 C 101.433594 215.414062 98.359375 214.671875 97.902344 216.96875 C 97.75 217.722656 97.628906 218.59375 97.589844 218.910156 C 97.21875 222.058594 96.734375 225.191406 96.796875 228.253906 C 96.703125 230.234375 97.007812 233.664062 97.117188 234.800781 C 97.15625 235.183594 97.277344 235.554688 97.492188 235.871094 Z M 90.320312 254.511719 C 91.683594 254.6875 93.042969 254.921875 94.398438 255.152344 C 94.796875 255.21875 95.195312 255.296875 95.195312 255.296875 L 96.953125 249.382812 C 96.953125 249.382812 96.3125 249.246094 96.183594 249.222656 C 91.171875 248.195312 86.109375 247.6875 80.992188 247.847656 C 79.824219 247.882812 78.644531 247.929688 77.488281 248.085938 C 72.691406 248.742188 68.078125 250.121094 63.507812 251.664062 C 61.15625 252.460938 58.886719 253.46875 56.691406 254.621094 C 51.207031 257.496094 46.035156 261.078125 41.886719 265.679688 C 40.824219 266.855469 34.984375 274.582031 33.421875 277.503906 C 32.222656 279.753906 31.136719 282.058594 30.378906 284.507812 C 30.148438 285.246094 29.992188 285.96875 30.09375 286.738281 C 30.308594 288.382812 31.589844 289.679688 33.050781 289.695312 C 34.199219 289.710938 35.066406 289.464844 36.019531 288.90625 C 36.859375 288.417969 37.285156 287.484375 37.578125 286.691406 C 38.328125 284.6875 39.195312 282.734375 40.214844 280.855469 C 45.578125 270.945312 53.445312 263.628906 63.566406 258.808594 C 72.023438 254.773438 80.976562 253.300781 90.320312 254.511719 Z M 133.417969 278.570312 C 131.960938 275.914062 130.511719 273.253906 128.859375 270.710938 C 127.542969 268.691406 126.273438 266.644531 124.714844 264.792969 C 121.234375 260.65625 117.3125 257.007812 112.816406 254.003906 C 111.394531 253.054688 109.984375 252.15625 108.210938 251.128906 C 107.664062 253.148438 107.121094 254.851562 106.75 256.585938 C 106.46875 257.914062 106.214844 258.71875 106.214844 258.71875 C 106.214844 258.71875 106.964844 259.296875 108.238281 260.011719 C 119.304688 266.214844 126.808594 275.359375 130.773438 287.417969 C 130.988281 288.070312 131.199219 288.726562 131.398438 289.382812 C 131.566406 289.9375 131.929688 290.304688 132.402344 290.632812 C 133.847656 291.640625 136.308594 290.441406 136.492188 288.324219 C 136.5625 287.496094 136.511719 286.671875 136.253906 285.871094 C 135.445312 283.378906 134.679688 280.875 133.414062 278.566406 Z M 107.800781 246.664062 C 108.402344 246.777344 109.003906 246.960938 109.578125 247.179688 C 111.96875 248.089844 114.21875 249.28125 116.441406 250.539062 C 120.898438 253.066406 124.910156 256.199219 128.898438 259.390625 C 136.617188 265.558594 143.945312 272.132812 150.4375 279.601562 C 151.070312 280.328125 152.566406 281.90625 152.566406 281.90625 C 152.566406 281.90625 153.695312 280.289062 154.375 279.554688 C 155.652344 278.160156 156.695312 276.953125 156.695312 276.953125 C 156.695312 276.953125 155.066406 275.140625 154.257812 274.230469 C 150.996094 270.570312 147.410156 267.234375 143.742188 263.988281 C 136.664062 257.71875 129.117188 252.035156 121.503906 246.441406 C 118.117188 243.953125 114.640625 241.585938 110.867188 239.691406 C 110.625 239.566406 110.386719 239.425781 110.152344 239.28125 C 109.496094 238.882812 109.066406 238.457031 109.171875 237.695312 C 109.257812 237.082031 109.433594 236.292969 109.621094 235.710938 C 110.304688 233.613281 110.957031 231.503906 111.769531 229.460938 C 112.71875 227.074219 112.984375 226.972656 115.503906 227.789062 C 121.601562 229.765625 127.601562 231.996094 133.328125 234.910156 C 139.105469 237.847656 144.769531 240.980469 150.378906 244.222656 C 157.136719 248.132812 162.914062 252.015625 168.910156 257.019531 C 169.015625 257.109375 168.679688 251.433594 167.605469 248.523438 C 167.226562 247.488281 166.765625 246.511719 166.765625 246.511719 L 155.375 238.640625 C 155.375 238.640625 154.300781 238.730469 153.027344 238.640625 C 151.21875 238.519531 149.644531 237.796875 148.347656 236.476562 C 147.332031 235.441406 145.0625 232.527344 145.0625 232.527344 L 131.988281 226.230469 C 131.988281 226.230469 131.625 226.3125 130.929688 226.523438 C 128.046875 227.414062 125.390625 226.949219 124.328125 226.164062 C 123.367188 225.457031 122.984375 224.441406 122.863281 223.308594 C 122.808594 222.8125 122.808594 222.636719 122.808594 222.636719 C 122.808594 222.636719 119.207031 221.515625 117.773438 221.03125 C 117.121094 220.8125 116.464844 220.59375 115.835938 220.316406 C 114.605469 219.765625 114.382812 219.328125 114.632812 218.058594 C 114.765625 217.382812 114.890625 216.703125 115.074219 216.039062 L 115.324219 215.148438 L 109.644531 213.164062 C 109.644531 213.164062 109.535156 213.59375 109.09375 215.171875 C 107.5625 220.679688 106.472656 226.304688 104.765625 231.769531 C 103.492188 235.847656 102.324219 239.957031 101.15625 244.066406 C 100.628906 245.917969 100.15625 247.820312 99.636719 249.664062 C 98.269531 254.507812 96.742188 259.277344 95.269531 264.085938 C 94.65625 266.097656 93.996094 268.089844 93.304688 270.074219 C 92.980469 271 92.652344 271.925781 92.316406 272.847656 C 91.269531 275.714844 90.171875 278.558594 89.070312 281.402344 C 88.320312 283.332031 87.425781 285.195312 86.445312 287.019531 C 85.429688 288.902344 84.449219 290.804688 83.433594 292.6875 C 83.097656 293.320312 82.753906 293.949219 82.40625 294.574219 C 81.753906 295.753906 81.078125 296.921875 80.371094 298.074219 C 80.117188 298.484375 79.902344 298.914062 79.6875 299.347656 C 79.363281 300.007812 79.402344 300.296875 79.929688 300.800781 C 80.890625 301.714844 82.007812 302.421875 83.242188 302.867188 C 85.160156 303.550781 85.160156 303.453125 85.957031 301.851562 C 86.664062 300.441406 87.367188 299.023438 88.0625 297.605469 C 88.433594 296.839844 88.808594 296.078125 89.175781 295.308594 C 91.796875 289.859375 94.289062 284.351562 96.515625 278.722656 C 96.988281 277.519531 97.46875 276.320312 97.949219 275.117188 C 98.3125 274.199219 98.671875 273.28125 99.027344 272.359375 C 99.859375 270.179688 100.652344 267.984375 101.335938 265.746094 C 102.0625 263.375 102.75 260.992188 103.472656 258.621094 C 104.359375 255.71875 104.945312 252.90625 105.730469 249.828125 C 105.917969 249.09375 106.082031 248.351562 106.285156 247.621094 C 106.53125 246.753906 106.890625 246.503906 107.796875 246.667969 Z M 158.148438 325.03125 L 142.839844 325.03125 C 141.121094 325.03125 139.722656 326.429688 139.722656 328.148438 L 139.722656 329.488281 C 139.722656 331.207031 141.121094 332.605469 142.839844 332.605469 L 158.148438 332.605469 C 159.867188 332.605469 161.261719 331.207031 161.261719 329.488281 L 161.261719 328.148438 C 161.261719 326.429688 159.867188 325.03125 158.148438 325.03125 Z M 293.589844 292.023438 C 293.332031 290.386719 292.839844 288.808594 292.269531 287.253906 C 290.960938 283.691406 286.914062 276.457031 286.914062 276.457031 C 286.914062 276.457031 286.617188 276.636719 286.117188 276.941406 C 284.535156 277.910156 283.214844 278.625 281.332031 279.273438 C 281.484375 279.695312 281.761719 280.359375 281.851562 280.539062 C 283.84375 284.496094 285 288.203125 285.960938 292.519531 C 286.050781 292.921875 286.132812 293.335938 286.285156 293.714844 C 286.933594 295.308594 287.902344 296.589844 289.671875 297.054688 C 291.425781 297.515625 292.820312 296.78125 293.441406 295.082031 C 293.808594 294.074219 293.75 293.042969 293.585938 292.023438 Z M 293.589844 292.023438 " fill-opacity="1" fill-rule="nonzero"/><path fill="#fffcf6" d="M 339.472656 233.453125 C 338.652344 232.828125 337.824219 232.203125 336.996094 231.589844 C 330.886719 227.0625 325.75 221.636719 321.773438 215.140625 C 321.269531 214.316406 320.742188 213.507812 320.238281 212.683594 C 313.839844 202.132812 308.96875 190.886719 305.316406 179.128906 C 302.1875 169.058594 299.453125 158.871094 296.839844 148.652344 C 293.578125 135.894531 290.644531 123.066406 288.238281 110.113281 C 286.3125 99.746094 283.871094 89.488281 280.878906 79.363281 C 277.15625 66.777344 271.265625 55.320312 263.304688 44.925781 C 257.839844 37.796875 251.355469 31.75 243.597656 27.164062 C 237.355469 23.480469 231.105469 22.191406 223.851562 22.09375 C 219.964844 22.039062 214.6875 22.535156 210.945312 23.519531 C 200.027344 26.386719 191.246094 30.992188 182.730469 38.402344 C 181.328125 39.628906 180.019531 40.953125 178.847656 42.410156 C 174.863281 47.363281 171.261719 52.585938 168.105469 58.101562 C 160.476562 71.429688 156.367188 85.835938 155.03125 101.089844 C 154.6875 105.003906 154.1875 108.90625 154.105469 112.839844 C 154.101562 113.046875 154.058594 113.253906 154.042969 113.460938 C 153.679688 118.621094 153.296875 123.78125 153.527344 128.960938 C 153.605469 130.683594 153.71875 132.402344 153.765625 134.125 C 153.898438 139.03125 154.453125 143.890625 155.238281 148.726562 C 155.359375 149.472656 156.382812 154.496094 156.382812 154.496094 C 156.382812 154.496094 157.535156 155.71875 158.460938 156.566406 C 160.578125 158.503906 164.425781 161.71875 164.425781 161.71875 C 164.425781 161.71875 164.476562 161.710938 165.257812 161.253906 C 166.089844 160.765625 166.574219 160.390625 167.371094 159.851562 C 169.421875 158.460938 171.667969 157.730469 174.15625 157.644531 C 176.046875 157.578125 177.867188 157.789062 179.617188 158.519531 C 181.027344 159.109375 182.441406 159.089844 183.855469 158.59375 C 184.894531 158.226562 185.917969 157.816406 186.953125 157.445312 C 187.871094 157.109375 188.804688 156.722656 189.761719 156.53125 C 190.117188 156.460938 191.988281 156.191406 191.742188 156.925781 C 191.671875 157.136719 191.488281 157.242188 191.304688 157.332031 C 189.3125 158.304688 187.285156 159.214844 185.335938 160.269531 C 183.597656 161.210938 181.808594 161.371094 179.929688 160.925781 C 179.261719 160.765625 178.609375 160.53125 177.941406 160.363281 C 176.371094 159.972656 174.796875 160.007812 173.238281 160.40625 C 171.941406 160.738281 168.136719 162.734375 166.707031 163.757812 C 166.792969 163.867188 172.457031 167.238281 175.199219 168.820312 C 175.894531 169.222656 176.585938 169.625 177.277344 170.03125 C 177.695312 170.28125 178.152344 170.507812 178.542969 170.796875 C 178.707031 170.917969 178.808594 171.101562 178.714844 171.296875 C 178.628906 171.480469 178.425781 171.632812 178.222656 171.660156 C 177.828125 171.707031 177.390625 171.558594 177.007812 171.472656 C 176.601562 171.375 176.203125 171.234375 175.820312 171.074219 C 175.058594 170.761719 174.332031 170.367188 173.585938 170.023438 C 170.460938 168.570312 167.402344 167 164.539062 165.054688 C 161.441406 162.953125 158.722656 160.410156 155.929688 157.949219 C 154.121094 156.355469 152.304688 154.769531 150.363281 153.328125 C 149.128906 152.40625 147.78125 151.75 146.34375 151.246094 C 143.035156 150.085938 140.101562 150.839844 137.472656 153.023438 C 135.660156 154.523438 134.519531 156.441406 133.988281 158.742188 C 132.835938 163.761719 132.640625 168.851562 132.9375 173.960938 C 133.097656 176.71875 133.222656 179.476562 132.960938 182.226562 C 132.582031 186.207031 132.136719 190.179688 131.441406 194.121094 C 130.898438 197.175781 130.578125 200.273438 129.808594 203.28125 C 128.804688 207.222656 127.746094 211.148438 126.703125 215.078125 C 126.140625 217.214844 125.675781 219.367188 125.59375 221.589844 C 125.585938 221.839844 125.574219 222.089844 125.578125 222.339844 C 125.585938 223.074219 125.683594 223.757812 126.449219 224.035156 C 127.554688 224.4375 128.976562 224.15625 130.074219 223.894531 C 133.015625 223.199219 135.632812 221.597656 138.28125 220.199219 C 140.484375 219.03125 142.753906 218.019531 145.203125 217.539062 C 148.097656 216.972656 150.972656 216.808594 153.4375 218.945312 C 153.832031 219.289062 154.371094 219.601562 154.371094 219.601562 C 154.371094 219.601562 155.242188 210.398438 154.957031 204.132812 C 154.800781 200.621094 154.609375 196.367188 154.570312 192.847656 C 154.5625 192.304688 154.40625 191.082031 155.019531 190.792969 C 155.925781 190.363281 156.171875 192.300781 156.230469 192.8125 C 156.429688 194.457031 156.539062 196.109375 156.714844 197.753906 C 157.117188 201.535156 157.109375 205.328125 157.042969 209.121094 C 156.953125 214.367188 156.652344 219.589844 155.570312 224.75 C 155.023438 227.34375 154.148438 229.78125 152.777344 232.046875 C 152.53125 232.457031 152.300781 232.890625 152.144531 233.335938 C 151.695312 234.617188 152.164062 235.3125 153.542969 235.394531 C 154.15625 235.433594 154.785156 235.378906 155.398438 235.300781 C 158.566406 234.910156 161.574219 233.914062 164.585938 232.917969 C 166.023438 232.445312 167.457031 231.914062 168.933594 231.617188 C 171.988281 231.007812 174.976562 231.105469 177.648438 233.027344 C 177.789062 233.132812 178.46875 233.644531 178.46875 233.644531 C 178.46875 233.644531 178.402344 232.03125 178.363281 231.492188 C 178.320312 230.871094 178.277344 230.253906 178.234375 229.632812 C 177.761719 222.84375 177.171875 216.078125 176.976562 209.265625 C 176.933594 207.773438 176.617188 206.289062 176.597656 204.808594 C 176.59375 204.558594 176.609375 204.300781 176.71875 204.078125 C 177.132812 203.21875 177.988281 203.820312 178.265625 204.40625 C 179.050781 206.039062 179.277344 207.867188 179.523438 209.640625 C 179.785156 211.539062 179.933594 213.449219 180.152344 215.355469 C 180.574219 219.054688 180.984375 222.761719 181.074219 226.484375 C 181.164062 230.207031 181.148438 233.933594 181.132812 237.65625 C 181.128906 239.238281 181.132812 240.839844 180.914062 242.402344 C 180.195312 247.566406 178.207031 252.207031 174.980469 256.3125 C 174 257.5625 173.066406 258.84375 172.101562 260.101562 C 171.242188 261.222656 170.738281 262.472656 170.519531 263.867188 C 170.199219 265.921875 170.742188 267.84375 171.359375 269.75 C 171.855469 271.28125 172.734375 272.578125 173.898438 273.714844 C 176.820312 276.566406 180.242188 278.601562 184.136719 279.734375 C 189.375 281.257812 194.710938 282.292969 200.207031 282.332031 C 202.765625 282.351562 205.304688 282.171875 207.839844 281.878906 C 208.808594 281.769531 209.773438 281.644531 210.738281 281.5 C 211.488281 281.390625 213.363281 281.0625 213.363281 281.0625 C 214.097656 280.925781 214.832031 280.773438 215.558594 280.605469 C 216.972656 280.28125 218.375 279.890625 219.757812 279.421875 C 222.445312 278.511719 225.03125 277.402344 227.398438 275.808594 C 228.261719 275.226562 229.039062 274.585938 229.480469 273.433594 C 229.136719 273.289062 228.8125 273.121094 228.503906 272.9375 C 227.472656 272.335938 226.597656 271.566406 225.738281 270.769531 C 225.449219 270.503906 225.164062 270.234375 224.875 269.964844 C 223.238281 268.445312 222.496094 266.59375 222.277344 264.5 C 222.019531 262.035156 221.675781 259.574219 221.679688 257.078125 C 221.683594 255.910156 221.574219 254.738281 221.476562 253.570312 C 221.171875 249.859375 220.6875 246.167969 220.148438 242.480469 C 219.015625 234.691406 217.324219 227.03125 215.078125 219.484375 C 212.667969 211.402344 209.605469 203.589844 205.777344 196.070312 C 205.558594 195.644531 205.339844 195.214844 205.117188 194.789062 C 204.070312 192.757812 202.992188 190.742188 201.902344 188.730469 C 200.84375 186.785156 199.6875 184.875 198.742188 182.871094 C 198.652344 182.683594 198.570312 182.484375 198.703125 182.292969 C 199.210938 181.574219 200.4375 183.03125 200.757812 183.363281 C 202.433594 185.121094 203.769531 187.125 204.996094 189.210938 C 208.890625 195.820312 212.210938 202.703125 214.917969 209.878906 C 216.84375 214.976562 218.730469 220.085938 220.054688 225.378906 C 222.308594 234.359375 223.671875 243.488281 224.605469 252.6875 C 224.734375 253.992188 224.867188 255.296875 225.007812 256.597656 C 225.066406 257.15625 225.140625 257.625 225.140625 257.625 C 225.140625 257.625 226.179688 256.632812 226.703125 256.148438 C 229.097656 254.1875 231.609375 253.492188 234.699219 253.5625 C 236.855469 253.613281 238.925781 254.066406 240.96875 254.742188 C 245.3125 256.179688 249.351562 258.242188 253.257812 260.597656 C 256.683594 262.664062 260.167969 264.621094 263.765625 266.363281 C 268.367188 268.589844 277.917969 275.023438 277.917969 275.023438 C 277.917969 275.023438 277.941406 273.425781 277.96875 272.335938 C 278.050781 269.363281 278.015625 267.398438 278.007812 264.433594 C 278 261.738281 277.753906 259.058594 277.421875 256.390625 C 276.847656 251.738281 276.199219 247.09375 275.5 242.457031 C 274.808594 237.890625 274.097656 233.328125 273.253906 228.785156 C 271.183594 217.648438 268.046875 206.800781 264.339844 196.101562 C 260.707031 185.609375 255.917969 175.726562 249.464844 166.671875 C 248.621094 165.492188 247.828125 164.28125 247.050781 163.058594 C 246.347656 161.953125 245.679688 160.828125 245.03125 159.691406 C 244.824219 159.328125 244.316406 158.410156 244.84375 158.117188 C 245.042969 158.003906 245.300781 158.027344 245.507812 158.121094 C 246.363281 158.5 247.207031 159.484375 247.8125 160.167969 C 256.195312 169.617188 262.566406 180.257812 266.714844 192.203125 C 267.261719 193.769531 267.792969 195.332031 268.316406 196.902344 C 271.460938 206.328125 274.09375 215.890625 276.03125 225.640625 C 276.882812 229.902344 277.523438 234.195312 278.128906 238.496094 C 278.808594 243.34375 279.671875 248.164062 280.152344 253.039062 C 280.863281 260.25 281.320312 267.46875 280.957031 274.71875 C 280.953125 274.859375 280.769531 276.324219 280.769531 276.324219 C 280.769531 276.324219 283.878906 274.527344 284.917969 273.851562 C 289.261719 271.011719 293.273438 267.761719 296.992188 264.144531 C 302.28125 258.992188 307.351562 253.636719 312.335938 248.191406 C 315.808594 244.398438 319.683594 241.195312 324.335938 238.851562 C 329.152344 236.417969 334.820312 234.164062 340.320312 234.269531 C 340.320312 234.269531 339.691406 233.601562 339.484375 233.445312 Z M 186.027344 102.609375 C 183.863281 105.359375 180.421875 107.3125 176.933594 105.90625 C 173.875 104.671875 171.710938 101.609375 170.414062 98.695312 C 168.226562 93.777344 167.800781 88.570312 168.28125 83.21875 C 168.730469 78.167969 169.925781 72.925781 172.5625 68.589844 C 173.46875 67.101562 174.472656 65.671875 175.746094 64.46875 C 178.300781 62.046875 182.289062 60.742188 185.589844 62.558594 C 189.238281 64.566406 190.851562 69.089844 191.585938 73.351562 C 191.824219 74.753906 191.972656 76.128906 192.0625 77.375 C 192.679688 85.875 191.464844 95.699219 186.027344 102.613281 Z M 186.027344 102.609375 " fill-opacity="1" fill-rule="nonzero"/><g clip-path="url(#4e85ce1228)"><path fill="#000000" d="M 43.445312 340.519531 C 43.519531 340.675781 43.546875 340.839844 43.488281 340.996094 C 43.464844 341.0625 43.425781 341.121094 43.375 341.183594 C 43.316406 341.25 43.257812 341.292969 43.199219 341.324219 C 43.046875 341.394531 42.882812 341.363281 42.734375 341.28125 C 42.703125 341.265625 42.671875 341.246094 42.644531 341.222656 C 42.191406 340.910156 41.730469 340.605469 41.324219 340.234375 C 40.523438 339.503906 39.75 338.742188 39.019531 337.949219 C 37.800781 336.625 36.695312 335.203125 35.773438 333.628906 C 35.078125 332.4375 34.429688 331.226562 33.808594 330 C 33.191406 328.773438 32.601562 327.53125 32.023438 326.285156 C 30.851562 323.746094 29.472656 316.910156 29.367188 314.902344 C 29.367188 314.917969 29.367188 314.894531 29.367188 314.847656 C 29.367188 314.824219 29.367188 314.796875 29.367188 314.761719 C 29.367188 314.730469 29.367188 314.695312 29.371094 314.664062 C 29.378906 314.441406 29.417969 314.238281 29.511719 314.070312 C 29.582031 313.945312 29.6875 313.839844 29.828125 313.765625 C 29.875 313.738281 29.925781 313.71875 29.984375 313.699219 C 30.082031 313.667969 30.1875 313.664062 30.289062 313.683594 C 30.492188 313.726562 30.6875 313.871094 30.828125 314.097656 C 30.898438 314.210938 30.957031 314.339844 30.992188 314.488281 C 31.0625 314.773438 31.128906 315.058594 31.191406 315.34375 C 31.382812 316.199219 31.550781 317.058594 31.75 317.910156 C 32.257812 320.054688 32.898438 322.132812 33.667969 324.152344 C 34.128906 325.363281 34.636719 326.550781 35.191406 327.71875 C 35.5625 328.496094 35.953125 329.261719 36.363281 330.019531 C 37.1875 331.535156 38.089844 333.011719 39.078125 334.453125 C 39.574219 335.171875 40.085938 335.878906 40.621094 336.582031 C 41.332031 337.507812 42.03125 338.445312 42.726562 339.386719 C 42.847656 339.550781 42.960938 339.722656 43.074219 339.894531 C 43.183594 340.070312 43.292969 340.246094 43.394531 340.421875 C 43.414062 340.453125 43.429688 340.484375 43.445312 340.519531 Z M 206.496094 288.140625 C 206.980469 288.398438 207.484375 288.621094 207.992188 288.820312 C 212.097656 290.417969 216.230469 291.941406 220.300781 293.621094 C 225.386719 295.722656 230.421875 297.957031 235.472656 300.140625 C 236.230469 300.464844 236.96875 300.84375 237.722656 301.175781 C 238.210938 301.390625 239.097656 301.535156 239.347656 300.894531 C 239.761719 299.835938 237.496094 298.578125 236.800781 298.15625 C 235.675781 297.476562 234.46875 296.945312 233.273438 296.398438 C 230.992188 295.355469 228.671875 294.417969 226.34375 293.484375 C 223.273438 292.261719 220.164062 291.132812 217.035156 290.078125 C 213.957031 289.039062 210.847656 287.910156 207.636719 287.378906 C 207.5625 287.367188 207.472656 287.351562 207.367188 287.332031 C 207.003906 287.277344 206.5 287.230469 206.292969 287.4375 C 206.085938 287.644531 206.230469 288 206.492188 288.140625 Z M 191.585938 73.351562 C 190.851562 69.085938 189.238281 64.5625 185.589844 62.554688 C 182.289062 60.738281 178.300781 62.046875 175.746094 64.46875 C 174.472656 65.667969 173.46875 67.097656 172.5625 68.589844 C 169.925781 72.925781 168.730469 78.167969 168.28125 83.21875 C 167.800781 88.570312 168.226562 93.773438 170.414062 98.691406 C 171.710938 101.609375 173.875 104.667969 176.933594 105.90625 C 180.421875 107.3125 183.867188 105.359375 186.027344 102.609375 C 191.464844 95.695312 192.683594 85.871094 192.0625 77.375 C 191.972656 76.125 191.828125 74.753906 191.585938 73.351562 Z M 347.042969 240.640625 C 346.847656 243.605469 346.523438 246.539062 344.816406 249.121094 C 343.847656 250.585938 342.636719 251.1875 340.808594 251.019531 C 337.367188 250.699219 334.015625 249.90625 330.609375 249.421875 C 327.308594 248.953125 320.007812 248.160156 318.101562 247.953125 C 317.796875 247.921875 317.492188 248.015625 317.257812 248.210938 C 316.882812 248.523438 316.28125 249.058594 315.703125 249.714844 C 311.589844 254.367188 307.261719 258.8125 302.871094 263.203125 C 298.765625 267.304688 294.507812 271.222656 289.75 274.570312 C 289.53125 274.722656 289.070312 275.171875 289.070312 275.171875 C 289.070312 275.171875 290.238281 277.527344 290.847656 278.675781 C 292.53125 281.851562 293.957031 285.132812 295.101562 288.539062 C 295.542969 289.855469 295.773438 291.210938 296.007812 292.570312 C 296.222656 293.832031 296.019531 295.058594 295.605469 296.238281 C 294.628906 299.015625 292.101562 300.335938 289.097656 299.597656 C 288.148438 299.40625 286.792969 298.257812 286.792969 298.257812 C 286.792969 298.257812 287.042969 300.8125 287.054688 301.628906 C 287.246094 315.203125 283.277344 327.320312 274.316406 337.628906 C 268.046875 344.84375 260.265625 349.773438 251.066406 352.363281 C 236.328125 356.511719 222.605469 354.046875 210.136719 345.335938 C 200.5 338.601562 194.023438 329.410156 190.703125 318.070312 C 190.625 317.804688 190.320312 316.464844 190.320312 316.464844 C 190.320312 316.464844 189.960938 316.5 189.40625 316.507812 C 188.785156 316.519531 188.164062 316.5 187.542969 316.503906 C 181.808594 316.539062 176.109375 316.066406 170.429688 315.355469 C 167.414062 314.957031 164.003906 313.757812 164.003906 313.757812 C 164.003906 313.757812 163.304688 314.621094 162.4375 315.863281 C 161.375 317.378906 159.027344 320.476562 157.792969 322.101562 L 158.34375 322.101562 C 161.675781 322.101562 164.195312 324.8125 164.195312 328.152344 L 164.195312 329.492188 C 164.195312 332.832031 161.484375 335.542969 158.148438 335.542969 L 142.839844 335.542969 C 139.503906 335.542969 136.984375 332.832031 136.984375 329.492188 L 136.984375 328.152344 C 136.984375 324.816406 139.175781 322.101562 143.035156 322.101562 L 144.136719 322.101562 C 146.046875 319.84375 151.710938 313.144531 154.476562 309.757812 C 154.605469 309.597656 155.179688 308.835938 155.179688 308.835938 C 155.179688 308.835938 153.945312 307.59375 153.527344 307.132812 C 151.636719 305.050781 150.417969 302.625 149.644531 299.921875 C 148.339844 295.363281 148.714844 291.101562 150.050781 286.601562 C 150.269531 285.859375 150.804688 284.800781 150.804688 284.800781 C 150.804688 284.800781 150.21875 284.144531 150.078125 283.992188 C 144.304688 277.765625 139.636719 273.234375 133.160156 267.722656 C 131.167969 266.023438 128.972656 264.003906 126.707031 262.269531 C 125.007812 260.96875 123.386719 260.03125 123.335938 260 C 123.40625 260.085938 127.90625 265.136719 128.550781 266.101562 C 130.898438 269.589844 133.136719 272.941406 135.148438 276.644531 C 136.90625 279.878906 138.1875 283.28125 138.722656 286.945312 C 138.851562 287.84375 138.828125 288.726562 138.613281 289.613281 C 138.082031 291.792969 136.566406 292.761719 134.367188 293.15625 C 133.5 293.308594 132.15625 292.996094 132.15625 292.996094 C 132.15625 292.996094 132.316406 293.945312 132.445312 294.773438 C 134.9375 310.371094 129.363281 327.675781 116.675781 339.132812 C 108.878906 346.171875 99.800781 350.5 89.390625 351.910156 C 75.507812 353.792969 62.929688 350.503906 51.980469 341.738281 C 42.4375 334.09375 36.730469 324.066406 34.792969 311.984375 C 33.792969 305.734375 34 299.472656 35.5 293.285156 C 35.613281 292.820312 35.9375 291.3125 35.9375 291.3125 C 35.9375 291.3125 34.78125 291.625 34.511719 291.675781 C 32.667969 291.996094 31.054688 291.75 29.527344 290.632812 C 28.289062 289.734375 27.59375 288.519531 27.585938 286.9375 C 27.582031 285.617188 27.6875 284.332031 28.140625 283.070312 C 29.480469 279.351562 31.269531 275.863281 33.484375 272.597656 C 34.71875 270.773438 36.046875 269.003906 37.390625 267.257812 C 41.054688 262.507812 45.5 258.621094 50.585938 255.464844 C 54.996094 252.726562 58.402344 251.183594 63.261719 249.371094 C 66.964844 247.992188 71.257812 246.785156 75.125 246.105469 C 78.609375 245.488281 82.972656 245.289062 86.484375 245.570312 C 89.574219 245.820312 92.648438 246.234375 95.726562 246.621094 L 97.695312 246.871094 L 99.632812 239.308594 C 99.632812 239.308594 98.183594 238.960938 97.722656 238.816406 C 96.710938 238.496094 95.773438 238.039062 95.339844 236.996094 L 95.082031 236.382812 C 95.082031 236.382812 90.625 234.929688 89.054688 233.589844 C 86.585938 231.480469 84.972656 229.035156 85.09375 225.691406 C 85.253906 221.328125 87.238281 218.921875 91.039062 216.960938 C 93.324219 215.78125 96.011719 215.453125 96.011719 215.453125 C 96.011719 215.453125 96.125 215.109375 96.660156 214.449219 C 97.59375 213.304688 99.070312 213.21875 100.488281 213.15625 C 102.15625 213.085938 103.789062 213.324219 105.394531 213.765625 C 105.726562 213.855469 106.886719 214.195312 106.886719 214.195312 C 106.886719 214.195312 107.007812 213.851562 107.128906 213.542969 C 107.203125 213.351562 107.515625 212.308594 107.515625 212.308594 C 107.515625 212.308594 107.320312 212.179688 106.78125 211.953125 C 105.089844 211.246094 104.960938 209.886719 105.234375 208.339844 C 105.441406 207.167969 105.894531 206.101562 106.507812 205.085938 C 106.925781 204.398438 107.734375 203.921875 108.519531 204.070312 C 108.855469 204.136719 110.199219 204.429688 110.199219 204.429688 C 110.199219 204.429688 110.597656 203.375 110.71875 202.792969 C 111.019531 201.375 110.757812 200.242188 110.019531 198.972656 C 107.785156 195.121094 106.375 191.097656 105.632812 186.699219 C 105.042969 183.195312 104.886719 179.71875 105.851562 176.242188 C 107.015625 172.039062 109.40625 168.824219 113.261719 166.734375 C 114.300781 166.171875 115.847656 165.632812 117.015625 165.402344 C 118.84375 165.039062 122.59375 164.726562 122.59375 164.726562 C 122.59375 164.726562 123.171875 162.960938 125.15625 162.921875 C 126.285156 162.898438 130.238281 162.757812 130.238281 162.757812 C 130.238281 162.757812 130.5625 160.390625 130.824219 159.109375 C 131.425781 156.214844 132.652344 153.636719 134.707031 151.464844 C 138.046875 147.929688 142.054688 146.773438 146.742188 148.046875 C 148.550781 148.535156 150.238281 149.308594 151.75 150.441406 C 152.070312 150.683594 152.78125 151.214844 152.78125 151.214844 C 152.78125 151.214844 151.027344 139.035156 150.820312 133.578125 C 150.667969 129.644531 150.421875 125.71875 150.601562 121.789062 C 150.746094 118.617188 150.992188 115.453125 151.148438 112.285156 C 151.34375 108.289062 151.828125 104.316406 152.203125 100.335938 C 154.207031 79.109375 161.160156 59.777344 174.179688 42.753906 C 177.007812 39.054688 180.246094 35.792969 183.914062 32.941406 C 191.671875 26.910156 199.21875 22.875 208.675781 20.164062 C 212.800781 18.980469 218.710938 18.296875 223.011719 18.355469 C 232.113281 18.476562 241.644531 20.898438 249.328125 25.863281 C 258.085938 31.527344 263.519531 38.273438 269.410156 46.832031 C 276.101562 56.558594 281.1875 67.058594 284.582031 78.390625 C 287.179688 87.050781 289.335938 95.8125 291.183594 104.65625 C 292.933594 113.023438 294.488281 121.429688 296.316406 129.777344 C 298.898438 141.5625 301.808594 153.265625 305.074219 164.882812 C 307.257812 172.652344 309.410156 180.417969 312.304688 187.964844 C 315.75 196.941406 320.015625 205.496094 325.125 213.644531 C 328.75 219.429688 333.179688 224.476562 338.554688 228.695312 C 340.128906 229.929688 341.671875 231.207031 343.183594 232.515625 C 345.050781 234.132812 346.417969 236.089844 346.859375 238.585938 C 346.976562 239.261719 347.085938 239.960938 347.042969 240.640625 Z M 95.464844 217.675781 C 95.464844 217.675781 95.167969 217.6875 94.660156 217.808594 C 92.671875 218.28125 90.914062 219.195312 89.476562 220.660156 C 86.535156 223.660156 87.128906 227.496094 88.527344 229.597656 C 89.84375 231.566406 91.769531 232.742188 94.011719 233.414062 C 94.382812 233.523438 94.730469 233.648438 94.730469 233.648438 C 94.730469 233.648438 94.710938 229.601562 94.710938 228.335938 C 94.539062 224.765625 95.464844 217.675781 95.464844 217.675781 Z M 124.738281 167.34375 L 124.808594 174.085938 C 124.8125 174.648438 125.128906 175.164062 125.628906 175.425781 C 126.621094 175.945312 128.273438 176.789062 129.097656 177.105469 C 129.566406 177.289062 129.882812 177.386719 129.882812 177.386719 L 129.882812 165.695312 C 129.882812 165.695312 126.367188 165.695312 126.367188 165.695312 C 125.460938 165.695312 124.730469 166.4375 124.738281 167.34375 Z M 122.496094 174.996094 C 122.496094 174.996094 120.648438 175.394531 119.792969 175.9375 C 117.925781 177.125 116.765625 178.703125 116.527344 180.925781 C 116.320312 182.878906 116.582031 184.78125 117.15625 186.648438 C 117.824219 188.828125 118.78125 190.890625 119.722656 192.964844 C 121.136719 196.085938 121.964844 199.324219 121.574219 202.800781 C 121.421875 204.183594 120.40625 207.535156 120.40625 207.535156 C 120.40625 207.535156 121.730469 208.085938 122.160156 208.285156 C 123.285156 208.804688 123.234375 209.710938 122.984375 210.84375 C 122.707031 212.066406 122.261719 213.214844 121.738281 214.339844 C 121.019531 215.878906 120.550781 216.316406 118.660156 215.921875 C 118.523438 215.894531 117.53125 215.652344 117.53125 215.652344 L 116.941406 218.050781 L 122.933594 219.949219 C 122.933594 219.949219 123.847656 215.527344 124.34375 213.589844 C 126.035156 206.980469 128.058594 198.972656 128.90625 192.183594 C 129.558594 186.984375 129.882812 180.402344 129.882812 180.402344 C 129.882812 180.402344 126.242188 178.683594 124.863281 178.054688 C 124.046875 177.679688 123.308594 177.550781 122.894531 176.820312 C 122.664062 176.414062 122.496094 174.996094 122.496094 174.996094 Z M 112.023438 197.710938 C 112.945312 199.230469 113.4375 200.808594 112.976562 202.636719 C 112.78125 203.398438 112.375 204.976562 112.375 204.976562 C 112.375 204.976562 114.117188 205.59375 114.902344 205.824219 C 115.757812 206.078125 118.050781 206.753906 118.050781 206.753906 C 118.050781 206.753906 118.136719 206.550781 118.285156 206.164062 C 119.261719 203.589844 119.578125 200.957031 118.941406 198.25 C 118.53125 196.5 117.835938 194.851562 117.089844 193.214844 C 115.886719 190.578125 114.800781 187.902344 114.332031 185.015625 C 113.945312 182.652344 114.066406 180.335938 115.019531 178.113281 C 116.082031 175.628906 117.902344 173.964844 120.5 173.152344 C 121.066406 172.972656 122.382812 172.625 122.382812 172.625 C 122.382812 172.625 122.378906 170.386719 122.378906 170.179688 C 122.378906 170.179688 122.378906 168.667969 122.359375 167.910156 C 122.347656 167.5 122.382812 167.21875 122.382812 167.21875 C 122.382812 167.21875 119.691406 167.179688 117.691406 167.617188 C 116.875 167.796875 115.246094 168.390625 114.503906 168.773438 C 110.242188 170.972656 108.089844 174.4375 107.460938 179.132812 C 106.992188 182.621094 107.660156 186 108.535156 189.34375 C 109.308594 192.289062 110.433594 195.097656 112.023438 197.710938 Z M 100.492188 237.003906 C 100.492188 237.003906 104.316406 224.503906 105.691406 219.027344 C 106.253906 216.78125 106.300781 216.570312 106.300781 216.558594 C 106.300781 216.558594 106.296875 216.5625 106.296875 216.5625 C 105.457031 216.242188 104.304688 215.925781 102.820312 215.660156 C 101.429688 215.414062 98.355469 214.675781 97.898438 216.972656 C 97.75 217.726562 97.625 218.597656 97.589844 218.914062 C 97.21875 222.058594 96.730469 225.191406 96.792969 228.257812 C 96.699219 230.238281 97.007812 233.667969 97.117188 234.800781 C 97.152344 235.183594 97.273438 235.554688 97.488281 235.875 C 97.636719 236.09375 97.835938 236.296875 98.082031 236.359375 C 98.285156 236.40625 98.480469 236.472656 98.679688 236.527344 C 100.398438 237.023438 100.492188 237.003906 100.492188 237.003906 Z M 40.210938 280.859375 C 45.574219 270.949219 53.445312 263.632812 63.5625 258.8125 C 72.023438 254.78125 80.976562 253.304688 90.316406 254.515625 C 91.679688 254.691406 93.039062 254.925781 94.394531 255.15625 C 94.792969 255.222656 95.191406 255.300781 95.191406 255.300781 L 96.949219 249.386719 C 96.949219 249.386719 96.308594 249.25 96.179688 249.226562 C 91.167969 248.203125 86.105469 247.691406 80.988281 247.851562 C 79.820312 247.890625 78.640625 247.933594 77.484375 248.089844 C 72.6875 248.746094 68.074219 250.128906 63.503906 251.667969 C 61.148438 252.464844 58.882812 253.472656 56.6875 254.625 C 51.203125 257.5 46.03125 261.082031 41.882812 265.683594 C 40.820312 266.863281 34.980469 274.585938 33.417969 277.507812 C 32.21875 279.757812 31.132812 282.0625 30.375 284.511719 C 30.144531 285.25 29.988281 285.976562 30.089844 286.742188 C 30.304688 288.386719 31.585938 289.683594 33.046875 289.699219 C 34.195312 289.714844 35.058594 289.46875 36.015625 288.910156 C 36.855469 288.421875 37.28125 287.488281 37.574219 286.695312 C 38.324219 284.691406 39.191406 282.738281 40.207031 280.859375 Z M 121.273438 299.433594 C 119.667969 287.214844 115.726562 279.574219 104.96875 271.523438 C 103.632812 270.523438 102.652344 269.992188 102.652344 269.992188 C 102.652344 269.992188 101.605469 272.816406 101.304688 273.621094 C 103.734375 275.085938 105.980469 276.84375 108.011719 278.878906 C 111.234375 282.097656 113.761719 285.851562 115.527344 290.027344 C 117.355469 294.351562 118.28125 298.949219 118.28125 303.683594 C 118.28125 308.414062 117.355469 313.011719 115.527344 317.335938 C 113.761719 321.515625 111.230469 325.265625 108.011719 328.488281 C 104.792969 331.707031 101.042969 334.238281 96.867188 336.003906 C 92.542969 337.835938 87.949219 338.761719 83.21875 338.761719 C 78.488281 338.761719 73.890625 337.832031 69.570312 336.003906 C 65.394531 334.238281 61.644531 331.707031 58.425781 328.488281 C 55.207031 325.265625 52.675781 321.515625 50.910156 317.335938 C 49.082031 313.011719 48.15625 308.417969 48.15625 303.683594 C 48.15625 298.945312 49.082031 294.351562 50.910156 290.027344 C 52.675781 285.851562 55.203125 282.097656 58.425781 278.878906 C 61.644531 275.65625 65.394531 273.125 69.570312 271.359375 C 73.890625 269.53125 78.484375 268.601562 83.21875 268.601562 C 85.808594 268.601562 88.359375 268.882812 90.847656 269.433594 C 91.105469 268.746094 91.253906 268.335938 91.253906 268.335938 L 91.980469 266.046875 C 91.980469 266.046875 88.960938 265.289062 86.027344 265.089844 C 80.570312 264.714844 76.765625 265 71.601562 266.71875 C 52.78125 272.976562 42.644531 290.492188 45.3125 309.070312 C 46.421875 316.804688 49.488281 323.660156 54.699219 329.429688 C 63.976562 339.707031 75.578125 343.90625 89.308594 341.957031 C 95.570312 341.066406 101.21875 338.617188 106.253906 334.773438 C 118.773438 325.214844 122.679688 310.140625 121.273438 299.433594 Z M 83.21875 271.539062 C 82.785156 271.539062 82.351562 271.546875 81.921875 271.5625 L 83.113281 288.1875 C 84.207031 285.898438 85.234375 283.695312 85.914062 282.113281 C 87.085938 279.386719 88.671875 275.25 89.8125 272.21875 C 87.683594 271.773438 85.476562 271.539062 83.21875 271.539062 Z M 77.929688 298.761719 C 77.996094 298.613281 78.699219 297.207031 79.679688 295.222656 C 78.726562 295.679688 77.902344 296.359375 77.269531 297.195312 C 76.867188 297.722656 76.542969 298.320312 76.316406 298.957031 C 76.074219 299.644531 75.9375 300.386719 75.9375 301.160156 C 75.9375 301.863281 76.050781 302.542969 76.253906 303.179688 C 76.476562 303.867188 76.804688 304.503906 77.226562 305.070312 C 77.753906 305.785156 78.421875 306.386719 79.1875 306.839844 C 79.78125 307.1875 80.429688 307.449219 81.121094 307.597656 C 81.570312 307.695312 82.039062 307.746094 82.519531 307.746094 L 82.546875 307.746094 C 83.222656 307.746094 83.871094 307.640625 84.484375 307.449219 C 84.867188 307.328125 85.234375 307.175781 85.582031 306.988281 C 86.175781 306.675781 86.71875 306.273438 87.191406 305.796875 C 87.636719 305.347656 88.015625 304.835938 88.316406 304.277344 C 88.652344 303.660156 88.886719 302.980469 89.007812 302.265625 C 89.070312 301.90625 89.101562 301.539062 89.101562 301.160156 C 89.101562 300.855469 89.082031 300.554688 89.039062 300.261719 C 88.15625 301.902344 87.445312 303.132812 87.101562 303.546875 C 86.03125 304.828125 84.875 305.308594 83.328125 304.964844 C 82.1875 304.710938 81.09375 304.292969 80.140625 303.582031 C 79.363281 303.007812 78.644531 302.382812 78.160156 301.515625 C 77.664062 300.625 77.492188 299.734375 77.925781 298.761719 Z M 91.402344 295.726562 C 91.238281 296.046875 91.078125 296.363281 90.917969 296.679688 C 91.632812 298.015625 92.039062 299.542969 92.039062 301.160156 C 92.039062 301.460938 92.023438 301.757812 92 302.050781 L 115.183594 300.390625 C 114.363281 292.378906 110.59375 285.230469 104.976562 280.050781 Z M 103.5 278.769531 C 102.4375 277.902344 101.316406 277.097656 100.148438 276.371094 C 99.015625 279.085938 97.277344 283.320312 96.28125 285.722656 C 95.984375 286.382812 95.480469 287.453125 94.855469 288.746094 L 103.496094 278.769531 Z M 89.414062 307.71875 L 108.140625 323.949219 C 112.648438 318.414062 115.351562 311.359375 115.351562 303.683594 C 115.351562 303.234375 115.339844 302.785156 115.320312 302.339844 L 91.597656 304.039062 C 91.152344 305.429688 90.398438 306.683594 89.417969 307.71875 Z M 87.910156 309.003906 C 86.953125 309.664062 85.871094 310.152344 84.703125 310.425781 L 86.511719 335.660156 C 94.53125 334.84375 101.683594 331.058594 106.863281 325.429688 L 87.914062 309.003906 Z M 73.007812 301.160156 C 73.007812 299.644531 73.359375 298.214844 73.992188 296.941406 L 58.335938 283.367188 C 53.804688 288.910156 51.085938 295.984375 51.085938 303.683594 C 51.085938 304.117188 51.09375 304.550781 51.113281 304.980469 L 73.273438 303.394531 C 73.097656 302.675781 73.007812 301.929688 73.007812 301.160156 Z M 51.25 306.933594 C 52.058594 314.960938 55.835938 322.128906 61.460938 327.316406 L 77.25 309.082031 C 75.84375 308.140625 74.699219 306.835938 73.957031 305.304688 Z M 62.9375 328.597656 C 68.46875 333.117188 75.53125 335.828125 83.21875 335.828125 C 83.664062 335.828125 84.113281 335.820312 84.558594 335.800781 L 82.757812 310.679688 C 82.679688 310.679688 82.601562 310.683594 82.523438 310.683594 C 81.289062 310.683594 80.109375 310.445312 79.027344 310.015625 Z M 81.402344 291.707031 L 79.972656 271.699219 C 71.953125 272.507812 64.800781 276.277344 59.617188 281.890625 L 75.050781 295.269531 C 76.574219 293.335938 78.835938 292.007812 81.402344 291.707031 Z M 112.8125 254.007812 C 111.390625 253.058594 109.984375 252.160156 108.207031 251.136719 C 107.660156 253.152344 107.117188 254.855469 106.746094 256.589844 C 106.464844 257.917969 106.210938 258.722656 106.210938 258.722656 C 106.210938 258.722656 106.960938 259.300781 108.234375 260.015625 C 119.304688 266.21875 126.808594 275.363281 130.769531 287.421875 C 130.984375 288.074219 131.195312 288.730469 131.394531 289.386719 C 131.566406 289.941406 131.925781 290.308594 132.402344 290.636719 C 133.84375 291.644531 136.304688 290.445312 136.488281 288.328125 C 136.5625 287.5 136.507812 286.675781 136.25 285.875 C 135.445312 283.382812 134.675781 280.878906 133.414062 278.570312 C 131.953125 275.914062 130.507812 273.253906 128.851562 270.710938 C 127.539062 268.691406 126.265625 266.644531 124.707031 264.792969 C 121.230469 260.65625 117.308594 257.011719 112.808594 254.007812 Z M 152.5625 281.90625 C 152.5625 281.90625 153.691406 280.292969 154.367188 279.554688 C 155.648438 278.164062 156.691406 276.957031 156.691406 276.957031 C 156.691406 276.957031 155.0625 275.144531 154.253906 274.234375 C 150.992188 270.574219 147.402344 267.238281 143.738281 263.992188 C 136.660156 257.722656 129.113281 252.039062 121.5 246.445312 C 118.113281 243.957031 114.636719 241.589844 110.863281 239.695312 C 110.621094 239.570312 110.382812 239.429688 110.148438 239.285156 C 109.492188 238.886719 109.0625 238.460938 109.167969 237.699219 C 109.253906 237.085938 109.429688 236.296875 109.617188 235.710938 C 110.296875 233.617188 110.953125 231.507812 111.765625 229.464844 C 112.714844 227.074219 112.980469 226.976562 115.5 227.792969 C 121.597656 229.765625 127.597656 231.996094 133.324219 234.910156 C 139.097656 237.847656 144.765625 240.984375 150.375 244.226562 C 157.132812 248.132812 162.910156 252.019531 168.90625 257.023438 C 169.011719 257.109375 168.675781 251.4375 167.601562 248.527344 C 167.222656 247.492188 166.757812 246.515625 166.757812 246.515625 L 155.371094 238.644531 C 155.371094 238.644531 154.296875 238.730469 153.023438 238.644531 C 151.214844 238.523438 149.640625 237.800781 148.34375 236.480469 C 147.328125 235.445312 145.058594 232.527344 145.058594 232.527344 L 131.984375 226.234375 C 131.984375 226.234375 131.621094 226.3125 130.925781 226.527344 C 128.042969 227.417969 125.386719 226.953125 124.324219 226.167969 C 123.363281 225.460938 122.980469 224.445312 122.859375 223.3125 C 122.804688 222.816406 122.804688 222.640625 122.804688 222.640625 C 122.804688 222.640625 119.203125 221.519531 117.765625 221.035156 C 117.117188 220.816406 116.460938 220.597656 115.832031 220.316406 C 114.601562 219.769531 114.378906 219.332031 114.628906 218.0625 C 114.761719 217.386719 114.886719 216.707031 115.070312 216.042969 L 115.320312 215.148438 L 109.640625 213.167969 C 109.640625 213.167969 109.53125 213.59375 109.089844 215.175781 C 107.558594 220.683594 106.46875 226.308594 104.761719 231.773438 C 103.488281 235.847656 102.320312 239.960938 101.152344 244.070312 C 100.625 245.921875 100.152344 247.824219 99.632812 249.667969 C 98.265625 254.507812 96.734375 259.277344 95.265625 264.089844 C 94.652344 266.101562 93.992188 268.09375 93.300781 270.078125 C 92.976562 271.003906 92.648438 271.929688 92.3125 272.851562 C 91.265625 275.71875 90.167969 278.5625 89.066406 281.40625 C 88.316406 283.335938 87.421875 285.199219 86.441406 287.023438 C 85.425781 288.90625 84.445312 290.808594 83.429688 292.691406 C 83.09375 293.324219 82.75 293.949219 82.402344 294.578125 C 81.75 295.757812 81.074219 296.925781 80.367188 298.078125 C 80.113281 298.484375 79.894531 298.917969 79.683594 299.351562 C 79.359375 300.011719 79.398438 300.300781 79.925781 300.804688 C 80.886719 301.71875 82.003906 302.425781 83.238281 302.867188 C 85.15625 303.554688 85.15625 303.457031 85.953125 301.855469 C 86.660156 300.441406 87.363281 299.027344 88.058594 297.609375 C 88.429688 296.84375 88.804688 296.078125 89.171875 295.3125 C 91.792969 289.863281 94.285156 284.355469 96.507812 278.726562 C 96.984375 277.523438 97.464844 276.324219 97.945312 275.121094 C 98.308594 274.203125 98.667969 273.285156 99.023438 272.363281 C 99.855469 270.183594 100.648438 267.984375 101.332031 265.75 C 102.058594 263.378906 102.746094 260.996094 103.46875 258.625 C 104.355469 255.722656 104.9375 252.910156 105.726562 249.828125 C 105.914062 249.097656 106.074219 248.355469 106.28125 247.625 C 106.527344 246.757812 106.886719 246.507812 107.792969 246.671875 C 108.394531 246.78125 108.996094 246.96875 109.574219 247.1875 C 111.960938 248.097656 114.214844 249.285156 116.433594 250.546875 C 120.890625 253.070312 124.902344 256.207031 128.894531 259.398438 C 136.609375 265.566406 143.9375 272.136719 150.433594 279.609375 C 151.0625 280.335938 152.558594 281.910156 152.558594 281.910156 Z M 139.695312 222.5 C 139.695312 222.5 139.972656 222.253906 138.195312 223.261719 C 137.4375 223.695312 136.671875 224.117188 135.867188 224.570312 C 137.289062 225.460938 140.570312 226.882812 142.046875 227.414062 C 141.503906 226.253906 139.695312 222.5 139.695312 222.5 Z M 163.878906 239.976562 C 164.242188 240.191406 165.257812 240.804688 165.257812 240.804688 C 165.257812 240.804688 163.5 236.449219 163.386719 236.476562 C 162.367188 236.757812 159.785156 237.421875 159.785156 237.421875 C 159.785156 237.421875 162.710938 239.285156 163.878906 239.976562 Z M 167.835938 262.960938 C 168.015625 262.109375 168.484375 260.566406 168.484375 260.566406 C 168.484375 260.566406 166.945312 259.300781 166.230469 258.761719 C 165.460938 258.183594 164.691406 257.601562 163.910156 257.035156 C 161.675781 255.417969 159.515625 253.6875 157.191406 252.210938 C 145.660156 244.886719 133.800781 238.160156 121.203125 232.8125 C 119.363281 232.03125 117.5 231.3125 115.648438 230.570312 C 115.183594 230.382812 115.011719 230.335938 115.011719 230.335938 C 115.011719 230.335938 113.191406 234.707031 112.53125 236.589844 L 112.234375 237.429688 C 112.234375 237.429688 118.996094 241.238281 121.730469 243.101562 C 130.285156 248.933594 138.496094 255.214844 146.238281 262.097656 C 150.15625 265.582031 159.183594 275.128906 159.183594 275.128906 C 159.183594 275.128906 160.675781 274.230469 161.4375 273.867188 C 163.914062 272.695312 164.890625 272.675781 167.558594 272.210938 C 167.886719 272.152344 168.90625 272.054688 168.90625 272.054688 C 168.90625 272.054688 168.285156 270.378906 168.109375 269.714844 C 167.519531 267.488281 167.363281 265.253906 167.839844 262.960938 Z M 142.832031 325.035156 C 141.117188 325.035156 139.71875 326.433594 139.71875 328.152344 L 139.71875 329.492188 C 139.71875 331.210938 141.117188 332.609375 142.832031 332.609375 L 158.144531 332.609375 C 159.859375 332.609375 161.257812 331.210938 161.257812 329.492188 L 161.257812 328.152344 C 161.257812 326.433594 159.859375 325.035156 158.144531 325.035156 Z M 168.679688 302.488281 C 169.683594 301.113281 170.535156 299.636719 171.515625 298.25 C 171.640625 298.070312 171.828125 297.941406 172.039062 297.882812 C 173.316406 297.527344 174.257812 296.351562 174.257812 294.960938 C 174.257812 293.210938 172.773438 291.808594 171 291.933594 C 169.496094 292.042969 168.289062 293.269531 168.199219 294.773438 C 168.183594 295.046875 168.203125 295.316406 168.253906 295.570312 C 168.308594 295.828125 168.289062 296.09375 168.214844 296.347656 C 167.9375 297.289062 167.472656 298.148438 166.859375 298.949219 C 166.441406 299.5 166.027344 300.046875 165.59375 300.585938 C 162.742188 304.132812 159.804688 307.613281 157.050781 311.234375 C 154.453125 314.644531 151.617188 317.835938 148.742188 321 C 148.566406 321.1875 148.15625 321.683594 147.804688 322.101562 L 154.148438 322.101562 C 154.1875 322.042969 154.226562 321.980469 154.269531 321.914062 C 158.441406 316.664062 167.503906 304.105469 168.679688 302.488281 Z M 174.257812 298.847656 C 173.683594 299.199219 172.261719 301.429688 172.214844 301.488281 C 172.261719 301.488281 175.628906 301.140625 177.371094 298.804688 C 179.988281 295.65625 179.441406 290.617188 176.320312 288.140625 C 173.839844 286.175781 171.066406 285.828125 168.179688 287.140625 C 165.265625 288.460938 163.839844 290.828125 163.679688 293.984375 C 163.652344 295.039062 163.828125 296.046875 164.226562 297.015625 C 164.328125 297.265625 164.589844 297.714844 164.589844 297.714844 C 164.589844 297.714844 166.359375 295.574219 166.347656 294.300781 C 166.324219 292.683594 167.121094 291.386719 168.589844 290.621094 C 169.847656 289.960938 171.183594 289.722656 172.585938 290.105469 C 174.332031 290.585938 175.347656 291.53125 175.988281 292.765625 C 176.769531 294.277344 176.574219 297.421875 174.257812 298.84375 Z M 203.878906 312.210938 C 204.867188 312.128906 205.855469 312.035156 206.839844 311.925781 C 207.320312 311.871094 207.800781 311.816406 208.28125 311.757812 C 213.617188 311.097656 218.960938 310.515625 224.296875 309.882812 C 226.847656 309.582031 229.40625 309.351562 231.957031 309.054688 C 232.925781 308.945312 233.894531 308.824219 234.863281 308.6875 C 235.378906 308.613281 235.894531 308.535156 236.410156 308.453125 C 236.707031 308.40625 236.992188 308.359375 237.277344 308.308594 C 237.957031 308.191406 238.597656 308.074219 239.210938 307.953125 C 239.8125 307.832031 240.390625 307.707031 240.949219 307.578125 C 241.746094 307.398438 242.503906 307.207031 243.269531 307 C 244.105469 306.773438 244.949219 306.523438 245.839844 306.257812 C 246.421875 306.082031 246.992188 305.765625 247.480469 305.402344 C 248.058594 304.976562 248.453125 304.445312 248.660156 303.871094 C 248.882812 303.242188 248.878906 302.566406 248.648438 301.910156 C 248.523438 301.566406 248.335938 301.230469 248.085938 300.910156 C 247.351562 299.984375 246.515625 299.179688 245.523438 298.523438 C 245.128906 298.261719 244.730469 298.003906 244.328125 297.753906 C 243.765625 297.402344 243.199219 297.0625 242.621094 296.742188 C 242.109375 296.457031 241.589844 296.183594 241.058594 295.929688 C 240.125 295.480469 239.1875 295.03125 238.253906 294.582031 C 237.574219 294.25 236.894531 293.921875 236.21875 293.582031 C 235.976562 293.460938 235.730469 293.335938 235.484375 293.210938 C 231.394531 291.125 224.328125 288.277344 219.496094 286.398438 C 216.476562 285.222656 214.332031 284.425781 214.332031 284.425781 C 214.332031 284.425781 214.296875 284.425781 214.242188 284.429688 C 214.070312 284.441406 213.675781 284.46875 213.253906 284.523438 C 212.832031 284.578125 212.414062 284.632812 211.996094 284.683594 C 210.703125 284.851562 209.40625 285.019531 208.109375 285.167969 C 207.226562 285.269531 206.339844 285.359375 205.449219 285.429688 C 201.667969 285.742188 197.878906 285.796875 194.101562 285.265625 C 191.300781 284.871094 188.546875 284.257812 185.789062 283.652344 C 180.035156 282.398438 175.0625 279.777344 171.035156 275.433594 L 169.996094 274.5 C 169.996094 274.5 169.773438 274.5 169.105469 274.625 C 167.070312 275.011719 165.078125 275.554688 163.171875 276.367188 C 160.582031 277.464844 158.414062 279.113281 156.664062 281.328125 C 155.324219 283.023438 154.347656 284.914062 153.445312 286.855469 C 151.429688 291.203125 151.195312 295.605469 152.90625 300.113281 C 153.730469 302.289062 154.96875 304.15625 156.691406 305.707031 C 157.085938 306.066406 157.40625 306.382812 157.40625 306.382812 L 162.785156 299.8125 C 162.785156 299.8125 162.484375 299.523438 162.238281 299.152344 C 161.421875 297.921875 160.972656 296.5625 160.878906 295.082031 C 160.609375 290.679688 163.007812 286.640625 167.050781 284.722656 C 171.425781 282.644531 176.523438 283.640625 179.484375 287.195312 C 184.664062 293.40625 182.082031 301.988281 174.421875 303.789062 C 173.371094 304.070312 170.929688 304.007812 170.929688 304.007812 C 170.929688 304.007812 168.039062 308.277344 167.605469 308.898438 C 167.253906 309.398438 166.261719 310.941406 166.261719 310.941406 C 166.261719 310.941406 168.273438 311.765625 175.875 312.28125 C 180.210938 312.578125 184.535156 312.957031 188.882812 312.867188 C 193.886719 312.765625 198.890625 312.640625 203.875 312.214844 Z M 232.628906 274.410156 C 232.019531 276.320312 230.945312 277.878906 229.21875 278.929688 C 227.929688 279.714844 225.132812 281.253906 225.132812 281.253906 C 224.183594 281.675781 223.25 282.097656 222.261719 282.425781 C 221.738281 282.601562 221.207031 282.761719 220.675781 282.914062 C 220.410156 282.992188 220.140625 283.066406 219.871094 283.140625 C 219.730469 283.179688 219.304688 283.371094 219.1875 283.332031 C 220.886719 283.917969 222.605469 284.46875 224.277344 285.128906 C 228.21875 286.691406 232.121094 288.363281 235.972656 290.136719 L 234.65625 271.703125 C 234.066406 271.761719 233.480469 271.835938 232.902344 271.929688 L 232.902344 271.957031 C 232.917969 272.789062 232.886719 273.605469 232.628906 274.410156 Z M 262.824219 323.949219 C 267.332031 318.414062 270.03125 311.359375 270.03125 303.683594 C 270.03125 303.234375 270.023438 302.785156 270.003906 302.339844 L 252.027344 303.628906 C 252.039062 304.535156 251.851562 305.441406 251.414062 306.3125 C 250.816406 307.503906 249.789062 308.398438 248.613281 308.988281 C 247.949219 309.324219 247.265625 309.609375 246.566406 309.855469 Z M 244.34375 310.519531 C 242.738281 310.917969 241.089844 311.175781 239.457031 311.40625 L 241.195312 335.664062 C 249.210938 334.84375 256.367188 331.058594 261.546875 325.429688 Z M 269.867188 300.390625 C 269.046875 292.378906 265.277344 285.230469 259.660156 280.050781 L 246.292969 295.488281 C 246.8125 295.8125 247.324219 296.152344 247.828125 296.503906 C 249.550781 297.703125 251.082031 299.605469 251.714844 301.691406 L 269.863281 300.390625 Z M 258.183594 278.769531 C 252.648438 274.25 245.585938 271.539062 237.902344 271.539062 C 237.464844 271.539062 237.035156 271.546875 236.605469 271.566406 L 238.003906 291.082031 C 240.238281 292.132812 242.460938 293.222656 244.59375 294.460938 L 258.179688 278.769531 Z M 217.621094 328.597656 C 223.152344 333.117188 230.21875 335.828125 237.902344 335.828125 C 238.351562 335.828125 238.796875 335.820312 239.242188 335.800781 L 237.515625 311.675781 C 235.542969 311.949219 233.566406 312.210938 231.59375 312.460938 Z M 228.691406 312.824219 C 221.789062 313.667969 214.902344 314.636719 207.992188 315.429688 C 209.789062 319.992188 212.597656 324.046875 216.144531 327.316406 Z M 277.265625 299.636719 C 276.183594 291.238281 272.917969 283.84375 267.160156 277.644531 C 258.34375 268.148438 247.394531 263.941406 234.476562 264.886719 C 233.132812 264.984375 232.984375 264.96875 232.984375 264.96875 C 232.984375 264.96875 232.957031 267.058594 232.933594 268.949219 C 234.566406 268.71875 236.226562 268.601562 237.902344 268.601562 C 242.636719 268.601562 247.226562 269.53125 251.550781 271.359375 C 255.726562 273.125 259.476562 275.65625 262.695312 278.878906 C 265.917969 282.097656 268.445312 285.851562 270.210938 290.027344 C 272.039062 294.351562 272.964844 298.949219 272.964844 303.683594 C 272.964844 308.414062 272.039062 313.011719 270.210938 317.335938 C 268.445312 321.515625 265.917969 325.265625 262.695312 328.488281 C 259.476562 331.707031 255.726562 334.238281 251.550781 336.003906 C 247.226562 337.835938 242.636719 338.761719 237.902344 338.761719 C 233.167969 338.761719 228.578125 337.832031 224.253906 336.003906 C 220.078125 334.238281 216.328125 331.707031 213.109375 328.488281 C 209.886719 325.265625 207.359375 321.515625 205.59375 317.335938 C 205.375 316.816406 205.167969 316.292969 204.972656 315.765625 C 203.828125 315.886719 201.460938 316.058594 200.828125 316.160156 C 200.828125 316.160156 201.378906 317.945312 201.554688 318.394531 C 205.128906 327.527344 210.921875 333.707031 219.601562 338.410156 C 227.296875 342.578125 235.066406 343.707031 243.742188 342.433594 C 250.261719 341.476562 256.183594 339.121094 261.546875 335.25 C 272.324219 327.46875 279.113281 313.925781 277.265625 299.636719 Z M 286.910156 276.460938 C 286.910156 276.460938 286.613281 276.640625 286.113281 276.949219 C 284.535156 277.914062 283.210938 278.632812 281.332031 279.277344 C 281.480469 279.699219 281.757812 280.363281 281.847656 280.542969 C 283.839844 284.5 284.996094 288.207031 285.957031 292.523438 C 286.046875 292.925781 286.128906 293.339844 286.28125 293.71875 C 286.929688 295.3125 287.898438 296.59375 289.671875 297.058594 C 291.421875 297.519531 292.816406 296.785156 293.4375 295.085938 C 293.804688 294.078125 293.746094 293.046875 293.585938 292.027344 C 293.328125 290.390625 292.835938 288.8125 292.265625 287.257812 C 290.957031 283.695312 286.90625 276.460938 286.90625 276.460938 Z M 340.308594 234.28125 C 340.308594 234.28125 339.679688 233.609375 339.472656 233.453125 C 338.652344 232.828125 337.824219 232.203125 336.992188 231.589844 C 330.886719 227.0625 325.75 221.636719 321.773438 215.140625 C 321.265625 214.316406 320.738281 213.507812 320.238281 212.683594 C 313.839844 202.132812 308.96875 190.886719 305.316406 179.128906 C 302.1875 169.058594 299.449219 158.871094 296.835938 148.652344 C 293.574219 135.894531 290.644531 123.066406 288.238281 110.113281 C 286.308594 99.746094 283.867188 89.488281 280.875 79.363281 C 277.15625 66.777344 271.265625 55.320312 263.300781 44.925781 C 257.839844 37.796875 251.355469 31.75 243.59375 27.164062 C 237.355469 23.480469 231.105469 22.191406 223.847656 22.09375 C 219.964844 22.039062 214.6875 22.535156 210.941406 23.519531 C 200.027344 26.386719 191.246094 30.992188 182.730469 38.402344 C 181.324219 39.628906 180.019531 40.953125 178.847656 42.410156 C 174.863281 47.363281 171.261719 52.585938 168.105469 58.101562 C 160.476562 71.429688 156.367188 85.835938 155.03125 101.089844 C 154.6875 105.003906 154.1875 108.90625 154.105469 112.839844 C 154.101562 113.046875 154.054688 113.253906 154.042969 113.460938 C 153.679688 118.621094 153.292969 123.78125 153.523438 128.960938 C 153.601562 130.683594 153.714844 132.402344 153.761719 134.125 C 153.898438 139.03125 154.449219 143.890625 155.238281 148.726562 C 155.359375 149.472656 156.382812 154.496094 156.382812 154.496094 C 156.382812 154.496094 157.535156 155.71875 158.460938 156.566406 C 160.578125 158.503906 164.425781 161.71875 164.425781 161.71875 C 164.425781 161.71875 164.476562 161.710938 165.257812 161.253906 C 166.089844 160.765625 166.574219 160.390625 167.371094 159.851562 C 169.421875 158.460938 171.664062 157.730469 174.152344 157.644531 C 176.042969 157.578125 177.867188 157.789062 179.617188 158.519531 C 181.023438 159.109375 182.4375 159.089844 183.855469 158.59375 C 184.894531 158.226562 185.917969 157.816406 186.953125 157.445312 C 187.871094 157.109375 188.800781 156.722656 189.761719 156.53125 C 190.117188 156.460938 191.988281 156.191406 191.738281 156.925781 C 191.667969 157.136719 191.488281 157.242188 191.300781 157.332031 C 189.308594 158.304688 187.28125 159.214844 185.335938 160.269531 C 183.597656 161.210938 181.804688 161.371094 179.929688 160.925781 C 179.257812 160.765625 178.605469 160.53125 177.9375 160.363281 C 176.371094 159.972656 174.792969 160.007812 173.234375 160.40625 C 171.941406 160.738281 168.132812 162.734375 166.707031 163.757812 C 166.789062 163.867188 172.453125 167.238281 175.199219 168.820312 C 175.890625 169.222656 176.585938 169.625 177.273438 170.03125 C 177.695312 170.28125 178.152344 170.507812 178.542969 170.796875 C 178.707031 170.917969 178.804688 171.101562 178.714844 171.296875 C 178.628906 171.480469 178.421875 171.632812 178.21875 171.660156 C 177.824219 171.707031 177.386719 171.558594 177.007812 171.472656 C 176.601562 171.375 176.203125 171.234375 175.816406 171.074219 C 175.058594 170.761719 174.332031 170.367188 173.585938 170.023438 C 170.460938 168.570312 167.402344 167 164.539062 165.054688 C 161.4375 162.953125 158.722656 160.410156 155.929688 157.949219 C 154.117188 156.355469 152.300781 154.769531 150.363281 153.328125 C 149.125 152.40625 147.78125 151.75 146.339844 151.246094 C 143.035156 150.085938 140.101562 150.839844 137.46875 153.023438 C 135.660156 154.523438 134.515625 156.441406 133.988281 158.742188 C 132.835938 163.761719 132.636719 168.851562 132.933594 173.960938 C 133.09375 176.71875 133.222656 179.476562 132.960938 182.226562 C 132.578125 186.207031 132.132812 190.179688 131.4375 194.121094 C 130.898438 197.175781 130.578125 200.273438 129.808594 203.28125 C 128.800781 207.222656 127.746094 211.148438 126.703125 215.078125 C 126.136719 217.214844 125.675781 219.367188 125.59375 221.589844 C 125.582031 221.839844 125.574219 222.089844 125.578125 222.339844 C 125.585938 223.074219 125.683594 223.757812 126.449219 224.035156 C 127.550781 224.4375 128.972656 224.15625 130.074219 223.894531 C 133.015625 223.199219 135.632812 221.597656 138.277344 220.199219 C 140.484375 219.03125 142.753906 218.019531 145.199219 217.539062 C 148.09375 216.972656 150.972656 216.808594 153.4375 218.945312 C 153.832031 219.289062 154.371094 219.601562 154.371094 219.601562 C 154.371094 219.601562 155.242188 210.398438 154.957031 204.132812 C 154.796875 200.621094 154.609375 196.367188 154.566406 192.847656 C 154.5625 192.304688 154.40625 191.082031 155.019531 190.792969 C 155.921875 190.363281 156.171875 192.300781 156.230469 192.8125 C 156.425781 194.457031 156.539062 196.109375 156.714844 197.753906 C 157.117188 201.535156 157.109375 205.328125 157.042969 209.121094 C 156.949219 214.363281 156.652344 219.589844 155.570312 224.75 C 155.023438 227.34375 154.148438 229.78125 152.777344 232.046875 C 152.527344 232.457031 152.300781 232.890625 152.144531 233.335938 C 151.695312 234.617188 152.160156 235.3125 153.542969 235.394531 C 154.15625 235.433594 154.785156 235.378906 155.398438 235.300781 C 158.5625 234.910156 161.570312 233.914062 164.582031 232.917969 C 166.019531 232.445312 167.453125 231.914062 168.933594 231.617188 C 171.988281 231.007812 174.972656 231.105469 177.644531 233.027344 C 177.789062 233.128906 178.46875 233.644531 178.46875 233.644531 C 178.46875 233.644531 178.402344 232.03125 178.363281 231.492188 C 178.320312 230.871094 178.277344 230.253906 178.234375 229.632812 C 177.761719 222.84375 177.167969 216.078125 176.976562 209.265625 C 176.933594 207.773438 176.613281 206.289062 176.59375 204.808594 C 176.59375 204.558594 176.609375 204.300781 176.71875 204.078125 C 177.132812 203.21875 177.984375 203.820312 178.265625 204.40625 C 179.046875 206.039062 179.277344 207.867188 179.523438 209.640625 C 179.785156 211.539062 179.933594 213.449219 180.152344 215.355469 C 180.574219 219.054688 180.984375 222.761719 181.070312 226.484375 C 181.160156 230.207031 181.144531 233.933594 181.132812 237.65625 C 181.125 239.238281 181.132812 240.839844 180.914062 242.402344 C 180.195312 247.566406 178.207031 252.207031 174.980469 256.3125 C 174 257.5625 173.066406 258.84375 172.101562 260.101562 C 171.242188 261.222656 170.738281 262.472656 170.519531 263.867188 C 170.195312 265.921875 170.738281 267.84375 171.359375 269.75 C 171.855469 271.28125 172.734375 272.578125 173.894531 273.714844 C 176.820312 276.566406 180.242188 278.601562 184.136719 279.734375 C 189.375 281.257812 194.710938 282.292969 200.207031 282.332031 C 202.761719 282.351562 205.304688 282.171875 207.839844 281.878906 C 208.804688 281.769531 209.773438 281.644531 210.734375 281.5 C 211.484375 281.390625 213.359375 281.0625 213.359375 281.0625 C 214.097656 280.925781 214.828125 280.773438 215.558594 280.605469 C 216.972656 280.28125 218.375 279.890625 219.757812 279.421875 C 222.441406 278.511719 225.03125 277.402344 227.394531 275.808594 C 228.257812 275.226562 229.035156 274.585938 229.480469 273.433594 C 229.136719 273.289062 228.8125 273.121094 228.5 272.9375 C 227.472656 272.335938 226.597656 271.566406 225.734375 270.769531 C 225.449219 270.503906 225.164062 270.234375 224.875 269.964844 C 223.238281 268.445312 222.492188 266.59375 222.273438 264.5 C 222.015625 262.035156 221.671875 259.574219 221.679688 257.078125 C 221.683594 255.910156 221.574219 254.738281 221.476562 253.570312 C 221.171875 249.859375 220.683594 246.167969 220.148438 242.480469 C 219.011719 234.691406 217.320312 227.03125 215.074219 219.484375 C 212.667969 211.402344 209.605469 203.589844 205.777344 196.070312 C 205.558594 195.644531 205.339844 195.214844 205.117188 194.789062 C 204.066406 192.757812 202.992188 190.742188 201.902344 188.730469 C 200.84375 186.785156 199.6875 184.875 198.738281 182.871094 C 198.652344 182.683594 198.566406 182.484375 198.703125 182.292969 C 199.207031 181.574219 200.4375 183.03125 200.753906 183.363281 C 202.433594 185.121094 203.765625 187.125 204.996094 189.210938 C 208.886719 195.820312 212.207031 202.703125 214.917969 209.878906 C 216.839844 214.976562 218.726562 220.085938 220.054688 225.378906 C 222.308594 234.359375 223.671875 243.488281 224.601562 252.6875 C 224.734375 253.992188 224.863281 255.296875 225.003906 256.597656 C 225.0625 257.15625 225.140625 257.625 225.140625 257.625 C 225.140625 257.625 226.175781 256.632812 226.699219 256.148438 C 229.097656 254.1875 231.609375 253.492188 234.695312 253.5625 C 236.855469 253.613281 238.925781 254.066406 240.96875 254.742188 C 245.3125 256.179688 249.347656 258.242188 253.257812 260.597656 C 256.679688 262.664062 260.167969 264.621094 263.765625 266.363281 C 268.367188 268.589844 277.917969 275.023438 277.917969 275.023438 C 277.917969 275.023438 277.941406 273.425781 277.96875 272.335938 C 278.046875 269.363281 278.011719 267.398438 278.003906 264.433594 C 278 261.738281 277.75 259.058594 277.421875 256.390625 C 276.84375 251.738281 276.199219 247.09375 275.5 242.457031 C 274.808594 237.890625 274.097656 233.328125 273.253906 228.785156 C 271.183594 217.648438 268.046875 206.800781 264.339844 196.101562 C 260.703125 185.609375 255.914062 175.726562 249.460938 166.671875 C 248.621094 165.492188 247.828125 164.28125 247.050781 163.058594 C 246.347656 161.953125 245.679688 160.828125 245.03125 159.691406 C 244.824219 159.328125 244.3125 158.410156 244.839844 158.117188 C 245.042969 158.003906 245.296875 158.027344 245.507812 158.121094 C 246.359375 158.5 247.203125 159.484375 247.8125 160.167969 C 256.191406 169.617188 262.566406 180.257812 266.714844 192.203125 C 267.257812 193.769531 267.792969 195.332031 268.316406 196.902344 C 271.457031 206.328125 274.089844 215.890625 276.03125 225.640625 C 276.878906 229.902344 277.519531 234.195312 278.125 238.496094 C 278.808594 243.34375 279.671875 248.164062 280.152344 253.039062 C 280.863281 260.25 281.320312 267.46875 280.957031 274.71875 C 280.949219 274.859375 280.769531 276.324219 280.769531 276.324219 C 280.769531 276.324219 283.878906 274.527344 284.914062 273.851562 C 289.257812 271.011719 293.273438 267.761719 296.988281 264.144531 C 302.28125 258.992188 307.351562 253.636719 312.335938 248.191406 C 315.808594 244.398438 319.683594 241.195312 324.332031 238.851562 C 329.152344 236.417969 334.816406 234.164062 340.320312 234.269531 Z M 292.902344 307.292969 C 292.785156 307.226562 292.648438 307.195312 292.5 307.195312 C 292.445312 307.195312 292.394531 307.203125 292.347656 307.210938 C 292.25 307.230469 292.167969 307.269531 292.097656 307.320312 C 292.058594 307.34375 292.023438 307.371094 291.996094 307.40625 C 291.929688 307.46875 291.878906 307.542969 291.835938 307.628906 C 291.8125 307.671875 291.792969 307.714844 291.773438 307.761719 C 291.738281 307.851562 291.707031 307.953125 291.683594 308.050781 C 291.605469 308.40625 291.597656 308.796875 291.601562 309.066406 C 291.644531 311.464844 291.304688 313.835938 290.683594 316.160156 C 290.363281 317.34375 290.019531 318.511719 289.640625 319.671875 C 289.453125 320.25 289.253906 320.828125 289.046875 321.398438 C 288.636719 322.546875 288.191406 323.679688 287.710938 324.796875 C 287.234375 325.917969 286.714844 327.019531 286.160156 328.109375 C 285.882812 328.65625 285.59375 329.195312 285.296875 329.730469 C 285.148438 330.003906 285.003906 330.277344 284.855469 330.546875 C 284.707031 330.820312 284.554688 331.085938 284.410156 331.363281 C 284.386719 331.40625 284.371094 331.449219 284.355469 331.496094 C 284.3125 331.625 284.308594 331.753906 284.335938 331.871094 C 284.375 332.027344 284.476562 332.164062 284.628906 332.273438 C 284.925781 332.488281 285.3125 332.480469 285.582031 332.226562 C 285.679688 332.128906 285.777344 332.035156 285.871094 331.9375 C 286.160156 331.644531 286.429688 331.332031 286.664062 331 C 287.441406 329.90625 288.144531 328.777344 288.789062 327.625 C 289.109375 327.046875 289.414062 326.464844 289.703125 325.875 C 290.136719 324.988281 290.535156 324.085938 290.898438 323.171875 C 291.386719 321.949219 291.816406 320.703125 292.191406 319.433594 C 292.472656 318.480469 292.726562 317.515625 292.949219 316.535156 C 293.128906 315.742188 293.273438 314.9375 293.382812 314.132812 C 293.496094 313.324219 293.566406 312.511719 293.605469 311.699219 C 293.621094 311.390625 293.640625 311.078125 293.652344 310.757812 C 293.691406 309.671875 293.664062 308.550781 293.179688 307.578125 C 293.117188 307.453125 293.023438 307.359375 292.90625 307.296875 Z M 292.902344 307.292969 " fill-opacity="1" fill-rule="nonzero"/></g></svg>