<svg width="120" height="120" viewBox="0 0 120 120" fill="none" xmlns="http://www.w3.org/2000/svg">
<path d="M97.6281 26.0996V103.027C97.6281 108.063 93.6352 112.185 88.618 112.185H30.0242L26.6328 107.027V106.964H83.1445C88.1617 106.964 92.2016 102.796 92.2016 97.7613V17.6543C95.4852 19.0402 97.6281 22.3121 97.6281 26.0996Z" fill="#00CED1"/>
<path d="M26.6328 98.3391V7.78125H83.1445C88.1617 7.78125 92.2016 11.9031 92.2016 16.9406V97.7602C92.2016 102.795 88.1617 106.963 83.1445 106.963H26.6328V98.3391Z" fill="#D3F6F7"/>
<path d="M44.268 26.166H79.5398C79.5992 26.166 79.6578 26.1715 79.7156 26.1832C79.7742 26.1949 79.8305 26.2121 79.8859 26.2348C79.9406 26.2574 79.9922 26.2855 80.0422 26.3184C80.0914 26.3512 80.1367 26.3887 80.1789 26.4309C80.2211 26.473 80.2586 26.5184 80.2914 26.5676C80.3242 26.6176 80.3523 26.6691 80.375 26.7238C80.3977 26.7793 80.4148 26.8355 80.4266 26.8941C80.4383 26.952 80.4438 27.0113 80.4438 27.0707V42.9637C80.4438 43.0231 80.4383 43.0816 80.4266 43.1402C80.4148 43.198 80.3977 43.2551 80.375 43.3098C80.3523 43.3645 80.3242 43.4168 80.2914 43.466C80.2586 43.5152 80.2211 43.5613 80.1789 43.6035C80.1367 43.6449 80.0914 43.6824 80.0422 43.716C79.9922 43.7488 79.9406 43.7762 79.8859 43.7996C79.8305 43.8223 79.7742 43.8395 79.7156 43.8504C79.6578 43.8621 79.5992 43.8684 79.5398 43.8684H44.268C44.2086 43.8684 44.15 43.8621 44.0914 43.8504C44.0336 43.8395 43.9766 43.8223 43.9219 43.7996C43.8672 43.7762 43.8148 43.7488 43.7656 43.716C43.7164 43.6824 43.6703 43.6449 43.6281 43.6035C43.5867 43.5613 43.5492 43.5152 43.5156 43.466C43.4828 43.4168 43.4555 43.3645 43.432 43.3098C43.4094 43.2551 43.3922 43.198 43.3813 43.1402C43.3695 43.0816 43.3633 43.0231 43.3633 42.9637V27.0707C43.3633 27.0113 43.3695 26.952 43.3813 26.8941C43.3922 26.8355 43.4094 26.7793 43.432 26.7238C43.4555 26.6691 43.4828 26.6176 43.5156 26.5676C43.5492 26.5184 43.5867 26.473 43.6281 26.4309C43.6703 26.3887 43.7164 26.3512 43.7656 26.3184C43.8148 26.2855 43.8672 26.2574 43.9219 26.2348C43.9766 26.2121 44.0336 26.1949 44.0914 26.1832C44.15 26.1715 44.2086 26.166 44.268 26.166Z" fill="#00CED1"/>
<path d="M33.4156 90.1695V7.78125H26.6328V106.963H33.4156V90.1695Z" fill="#00CED1"/>
<path d="M50.1469 42.9637V27.0707C50.1469 26.5707 50.5516 26.166 51.0508 26.166H44.268C43.768 26.166 43.3633 26.5707 43.3633 27.0707V42.9637C43.3633 43.4637 43.768 43.8684 44.268 43.8684H51.0508C50.5516 43.8684 50.1469 43.4637 50.1469 42.9637Z" fill="#719DD1"/>
<path d="M79.5395 25.2617H44.2676C43.2699 25.2617 42.459 26.0734 42.459 27.0703V42.9648C42.459 43.9617 43.2699 44.7734 44.2676 44.7734H79.5395C80.5363 44.7734 81.3481 43.9617 81.3481 42.9648V27.0703C81.3481 26.0734 80.5363 25.2617 79.5395 25.2617ZM44.2676 42.9648V27.0703H79.5395L79.5402 42.9648H44.2676Z" fill="#284268"/>
<path d="M77.2801 86.3125H46.3051C45.8051 86.3125 45.4004 86.718 45.4004 87.2172C45.4004 87.7164 45.8051 88.1219 46.3051 88.1219H77.2801C77.7801 88.1219 78.1848 87.7164 78.1848 87.2172C78.1848 86.718 77.7801 86.3125 77.2801 86.3125Z" fill="#284268"/>
<path d="M72.7578 93.125H50.8266C50.3266 93.125 49.9219 93.5297 49.9219 94.0289C49.9219 94.5289 50.3266 94.9336 50.8266 94.9336H72.7578C73.2578 94.9336 73.6625 94.5289 73.6625 94.0289C73.6625 93.5297 73.2578 93.125 72.7578 93.125Z" fill="#284268"/>
<path d="M93.107 17.0758V16.9422C93.107 11.393 88.6383 6.87891 83.1453 6.87891H26.6336C26.1344 6.87891 25.7297 7.28359 25.7297 7.78281V15.5031H22.3375C21.8383 15.5031 21.4336 15.9078 21.4336 16.4078C21.4336 16.907 21.8383 17.3117 22.3375 17.3117H25.7297V23.9008H22.3375C21.8383 23.9008 21.4336 24.3055 21.4336 24.8047C21.4336 25.3047 21.8383 25.7094 22.3375 25.7094H25.7297V31.8445H22.3375C21.8383 31.8445 21.4336 32.2492 21.4336 32.7484C21.4336 33.2484 21.8383 33.6531 22.3375 33.6531H25.7297V40.0149H22.3375C21.8383 40.0149 21.4336 40.4195 21.4336 40.9195C21.4336 41.4188 21.8383 41.8234 22.3375 41.8234H25.7297V48.4125H22.3375C21.8383 48.4125 21.4336 48.8172 21.4336 49.3172C21.4336 49.8164 21.8383 50.2211 22.3375 50.2211H25.7297V56.5828H22.3375C21.8383 56.5828 21.4336 56.9883 21.4336 57.4875C21.4336 57.9867 21.8383 58.3922 22.3375 58.3922H25.7297V64.5266H22.3375C21.8383 64.5266 21.4336 64.932 21.4336 65.4313C21.4336 65.9305 21.8383 66.3359 22.3375 66.3359H25.7297V73.1516H22.3375C21.8383 73.1516 21.4336 73.5563 21.4336 74.0555C21.4336 74.5555 21.8383 74.9602 22.3375 74.9602H25.7297V81.0953H22.3375C21.8383 81.0953 21.4336 81.5 21.4336 81.9992C21.4336 82.4992 21.8383 82.9039 22.3375 82.9039H25.7297V89.2656H22.3375C21.8383 89.2656 21.4336 89.6703 21.4336 90.1703C21.4336 90.6695 21.8383 91.0742 22.3375 91.0742H25.7297V97.436H22.3375C21.8383 97.436 21.4336 97.8414 21.4336 98.3406C21.4336 98.8399 21.8383 99.2453 22.3375 99.2453H25.7297V106.965C25.7297 106.974 25.732 106.983 25.732 106.992C25.7242 107.174 25.7703 107.36 25.8781 107.525L29.2695 112.682C29.4367 112.937 29.7203 113.09 30.025 113.09H88.6188C94.0859 113.09 98.5336 108.576 98.5336 103.027V26.1C98.5336 22.2008 96.4258 18.7352 93.107 17.0758ZM27.5383 99.2453H31.1555C31.6555 99.2453 32.0602 98.8399 32.0602 98.3406C32.0602 97.8414 31.6555 97.436 31.1555 97.436H27.5383V91.0742H31.1555C31.6555 91.0742 32.0602 90.6695 32.0602 90.1703C32.0602 89.6703 31.6555 89.2656 31.1555 89.2656H27.5383V82.9039H31.1555C31.6555 82.9039 32.0602 82.4992 32.0602 81.9992C32.0602 81.5 31.6555 81.0953 31.1555 81.0953H27.5383V74.9602H31.1555C31.6555 74.9602 32.0602 74.5555 32.0602 74.0555C32.0602 73.5563 31.6555 73.1516 31.1555 73.1516H27.5383V66.3359H31.1555C31.6555 66.3359 32.0602 65.9305 32.0602 65.4313C32.0602 64.932 31.6555 64.5266 31.1555 64.5266H27.5383V58.3922H31.1555C31.6555 58.3922 32.0602 57.9867 32.0602 57.4875C32.0602 56.9883 31.6555 56.5828 31.1555 56.5828H27.5383V50.2211H31.1555C31.6555 50.2211 32.0602 49.8164 32.0602 49.3172C32.0602 48.8172 31.6555 48.4125 31.1555 48.4125H27.5383V41.8234H31.1555C31.6555 41.8234 32.0602 41.4188 32.0602 40.9195C32.0602 40.4195 31.6555 40.0149 31.1555 40.0149H27.5383V33.6531H31.1555C31.6555 33.6531 32.0602 33.2484 32.0602 32.7484C32.0602 32.2492 31.6555 31.8445 31.1555 31.8445H27.5383V25.7094H31.1555C31.6555 25.7094 32.0602 25.3047 32.0602 24.8047C32.0602 24.3055 31.6555 23.9008 31.1555 23.9008H27.5383V17.3117H31.1555C31.6555 17.3117 32.0602 16.907 32.0602 16.4078C32.0602 15.9078 31.6555 15.5031 31.1555 15.5031H27.5383V8.6875H83.1453C87.6406 8.6875 91.2984 12.3906 91.2984 16.9422V17.2227C91.2898 17.2398 91.2789 17.2547 91.2719 17.2719L91.2984 97.761C91.2984 102.338 87.6406 106.061 83.1453 106.061H27.5383V99.2453ZM96.725 103.027C96.725 107.578 93.0883 111.28 88.6188 111.28H30.5133L28.2695 107.87H83.1453C88.6383 107.87 93.107 103.335 93.107 97.761V19.168C95.3414 20.6484 96.725 23.2266 96.725 26.1008V103.027Z" fill="#284268"/>
</svg>
