<svg width="142" height="142" viewBox="0 0 142 142" fill="none" xmlns="http://www.w3.org/2000/svg">
<mask id="mask0_4014_636" style="mask-type:luminance" maskUnits="userSpaceOnUse" x="22" y="43" width="79" height="49">
<path d="M22.1562 43.4609H100.299V91.6373H22.1562V43.4609Z" fill="white"/>
</mask>
<g mask="url(#mask0_4014_636)">
<path d="M98.3505 69.9071C97.605 69.1187 96.8063 68.5314 96.8063 68.5314C96.8063 68.5314 97.2323 67.9605 98.0547 66.9117C99.9407 64.5037 100.594 61.5586 100.173 58.5796C99.2454 52.0638 91.9029 48.6292 86.0587 49.6646C83.7142 50.0803 80.352 51.8301 78.7885 53.8536C78.2768 52.7901 75.7267 50.0078 73.7919 48.5168C64.9361 41.689 49.214 41.084 42.3847 51.0314C41.62 52.1452 41.0949 53.4069 40.6467 54.6746C40.41 55.3372 40.2281 56.1197 40.0772 56.8061C39.0743 56.6922 37.0494 56.3386 36.721 56.2928C32.8219 55.7366 29.1255 56.6374 26.1642 59.2437C20.3229 64.3853 20.8687 74.9052 27.7365 79.2569C29.1684 80.1636 31.0765 80.3958 32.7746 80.3929C32.9491 81.1029 33.1902 81.8632 33.523 82.6087C34.9401 85.7756 37.4709 87.842 40.629 89.1806C46.9287 91.8476 54.1885 89.2975 58.7059 84.5641C59.3064 85.3866 61.0208 87.2207 61.3166 87.5284C62.3653 88.623 63.701 89.4306 65.0367 90.1184C67.8323 91.5576 71.3602 91.92 74.4368 91.4364C80.1716 90.5326 87.0867 87.3701 89.9548 79.6622C90.4089 79.7642 91.0183 79.8781 92.1588 79.9476C93.3095 80.0172 94.8701 79.8855 95.9484 79.4758C98.1154 78.6534 100.642 75.7941 100.072 73.0695C99.8031 71.7738 99.2573 70.8641 98.3505 69.9071Z" fill="black"/>
</g>
<path d="M37.7674 86.0597C39.6829 87.3185 43.0096 88.7399 45.3186 88.737C50.4039 88.7296 55.4938 87.2208 58.2347 82.847C58.7065 82.0911 59.492 81.5793 59.773 82.3869C61.9843 88.7385 69.108 91.2738 75.4817 89.9721C82.1247 88.6157 86.0608 85.4562 88.5753 79.4745C88.5886 79.0307 89.2232 77.9125 89.732 78.084C92.3931 78.9789 96.4475 78.7245 98.0953 75.8047C99.8259 72.7339 97.471 69.8791 94.5482 69.3747C93.6504 69.2179 95.1044 67.6929 95.6739 67.2669C100.687 63.5098 100.03 56.7471 94.029 52.7563C89.0442 49.443 82.2815 50.9192 78.591 55.5164C72.2912 43.5456 43.7196 38.4557 41.9549 57.7174C41.8987 58.3194 41.3692 58.8623 40.7198 58.6567C36.7838 57.4083 31.515 56.4986 28.0833 59.5176C25.656 61.6535 23.8544 65.6088 24.026 68.8038C24.1768 71.6319 25.3202 76.207 27.8644 77.8222C31.0224 79.8309 35.1419 78.1639 33.6405 78.7704C34.5502 81.2539 35.3475 84.4711 37.7674 86.0597Z" fill="white"/>
<path d="M97.2363 75.5691C95.5811 78.5008 91.8196 78.1502 89.1437 77.2258C89.0698 77.2006 89.0003 77.1917 88.9322 77.1932C88.771 77.1725 88.6039 77.2391 88.4619 77.421C88.4515 77.4314 88.4426 77.4447 88.4337 77.4565C88.4264 77.4669 88.419 77.4743 88.4116 77.4861L88.4071 77.492C88.3701 77.5467 88.3391 77.6044 88.3154 77.6665L88.2326 77.8219C85.8541 83.9707 82.0999 87.8402 75.4407 89.2011C69.0359 90.5116 62.2954 87.7293 60.0707 81.3526C59.8059 80.5953 58.8134 80.4207 58.3711 81.1293C55.6213 85.5253 50.6646 87.8151 45.5571 87.8225C43.2363 87.8255 41.0101 87.1051 39.0842 85.8404C36.6466 84.24 35.6762 81.8748 34.7562 79.3572C36.401 78.767 37.9527 77.7804 39.2662 76.6992C39.8963 76.18 39.4097 75.4611 38.7366 75.9078C35.8641 77.8145 31.8452 79.0422 28.6561 77.0142C26.0912 75.3842 25.0602 71.9318 24.9079 69.08C24.7348 65.8687 25.8457 62.6486 28.2863 60.5008C31.7372 57.4671 37.0223 58.3694 40.985 59.6281C41.5929 59.8204 42.0899 59.3101 42.1417 58.7465C43.9182 39.4287 74.3299 43.8099 79.6075 58.8235C79.7658 59.2746 80.4581 59.0971 80.3323 58.6238C80.075 57.6505 79.7318 56.7201 79.3132 55.8341C79.399 55.769 79.4848 55.6876 79.5676 55.5841C83.2788 50.9647 89.302 50.3996 94.309 53.7337C100.343 57.7496 98.4344 64.6558 93.3801 68.4351C92.8431 68.8359 92.747 69.9009 93.5901 70.0459C96.5485 70.5606 98.9787 72.4836 97.2363 75.5691ZM95.6728 68.8152C100.334 64.5878 101.666 58.4492 96.7748 53.4201C91.5208 48.0196 83.2567 49.166 78.6964 54.6522C70.6837 40.6815 43.3383 39.2645 40.4628 57.5617C36.0948 56.3192 31.0154 55.9391 27.2745 58.927C24.0929 61.4667 22.8193 65.5122 23.0338 69.4764C23.2305 73.1048 24.8487 76.8323 27.9905 78.8277C29.7255 79.9297 31.5715 80.1131 33.3599 79.7507C33.7637 85.2961 39.133 88.9674 44.3027 89.6241C49.7786 90.3193 55.5844 87.787 58.9805 83.49C61.8309 89.1981 67.8496 91.8429 74.3092 90.9583C80.7539 90.0738 88.5402 85.8508 89.4973 78.8795C92.9896 80.1649 96.9301 79.4356 98.924 75.9714C100.81 72.6936 98.569 69.9734 95.6728 68.8152Z" fill="black"/>
</svg>
