<svg width="153" height="107" viewBox="0 0 153 107" fill="none" xmlns="http://www.w3.org/2000/svg">
<mask id="mask0_2009_515" style="mask-type:luminance" maskUnits="userSpaceOnUse" x="0" y="0" width="153" height="107">
<path d="M0 0H153V106.63H0V0Z" fill="white"/>
</mask>
<g mask="url(#mask0_2009_515)">
<path d="M118.737 98.2232C137.629 98.2232 153 82.8546 153 63.964C153 56.4325 150.593 49.2829 146.04 43.2854C145.714 42.856 145.378 42.4369 145.033 42.024C143.542 40.2443 141.874 38.6195 140.064 37.1785L139.797 36.9658L134.584 32.8161L134.475 32.7294C132.48 31.1417 130.315 29.7729 128.025 28.6622C125.453 22.5718 121.419 17.2555 116.193 13.0934L116.187 13.0872L110.606 8.64428L110.598 8.63809C110.216 8.3346 109.828 8.03524 109.432 7.74414C102.577 2.67772 94.4451 0 85.9185 0C76.6693 0 67.7091 3.24341 60.5988 9.15216C56.5853 7.36839 52.3034 6.46412 47.8564 6.46412C40.4446 6.46412 33.2496 9.10881 27.5969 13.913C26.8433 14.553 26.1249 15.224 25.4394 15.926C21.1761 20.3008 18.2589 25.8358 17.0986 31.821C14.0472 33.3818 11.2849 35.4257 8.90855 37.8618C7.41175 39.3979 6.06773 41.0887 4.90332 42.9138C1.695 47.9389 0 53.7506 0 59.7255C0 69.6353 4.62667 78.484 11.832 84.2296C11.834 84.2317 11.8382 84.2338 11.8402 84.2338L17.4104 88.6746L17.4166 88.6808L17.4228 88.6849C22.7762 92.9503 29.552 95.5021 36.9142 95.5021C40.2031 95.5021 43.4485 94.9839 46.5784 93.9599L50.499 97.0856C58.175 103.203 67.8227 106.63 77.7036 106.63C88.204 106.63 98.3368 102.815 106.318 95.8737C110.303 97.4325 114.477 98.2232 118.737 98.2232Z" fill="black"/>
</g>
<path d="M85.9188 1.15259C102.997 1.15259 117.515 12.3321 122.534 27.7606C136.234 31.8153 146.261 44.5165 146.261 59.5134C146.261 77.7682 131.407 92.6206 113.15 92.6206C108.765 92.6206 104.471 91.7369 100.503 90.0873C92.8309 96.985 82.7415 101.027 72.1173 101.027C60.3514 101.027 49.4299 96.1737 41.6094 88.0785C38.3557 89.2657 34.8831 89.8995 31.33 89.8995C14.6897 89.8995 1.15247 76.3643 1.15247 59.724C1.15247 47.8177 8.08523 37.499 18.1272 32.5937C20.5964 18.4226 32.9878 7.6167 47.8567 7.6167C52.44 7.6167 56.8334 8.63453 60.787 10.5029C67.6166 4.60865 76.4694 1.15259 85.9188 1.15259Z" fill="white"/>
</svg>
