<svg width="163" height="98" viewBox="0 0 163 98" fill="none" xmlns="http://www.w3.org/2000/svg">
<mask id="mask0_58_2679" style="mask-type:luminance" maskUnits="userSpaceOnUse" x="24" y="2" width="120" height="84">
<path d="M24 2H144V85.6314H24V2Z" fill="white"/>
</mask>
<g mask="url(#mask0_58_2679)">
<path d="M117.127 79.0378C131.945 79.0378 144 66.984 144 52.1678C144 46.2608 142.112 40.6533 138.541 35.9493C138.286 35.6125 138.022 35.2838 137.751 34.96C136.582 33.5642 135.274 32.2898 133.854 31.1596L133.645 30.9928L129.556 27.7381L129.47 27.6701C127.906 26.4249 126.208 25.3513 124.412 24.4801C122.394 19.7033 119.23 15.5338 115.132 12.2693L115.127 12.2645L110.75 8.77983L110.744 8.77497C110.444 8.53694 110.14 8.30215 109.829 8.07383C104.453 4.10018 98.0746 2 91.3871 2C84.1328 2 77.1052 4.54385 71.5285 9.17817C68.3806 7.77913 65.0223 7.06989 61.5344 7.06989C55.7213 7.06989 50.0782 9.14416 45.6446 12.9122C45.0536 13.4141 44.4901 13.9404 43.9525 14.4909C40.6087 17.9222 38.3207 22.2634 37.4107 26.9576C35.0174 28.1818 32.8509 29.7848 30.9871 31.6956C29.8131 32.9003 28.759 34.2265 27.8457 35.6579C25.3294 39.5991 24 44.1574 24 48.8435C24 56.6159 27.6288 63.5561 33.28 68.0624C33.2816 68.0641 33.2848 68.0657 33.2864 68.0657L37.6552 71.5487L37.6601 71.5536L37.6649 71.5568C41.8637 74.9022 47.1781 76.9036 52.9523 76.9036C55.5318 76.9036 58.0773 76.4972 60.5321 75.694L63.6071 78.1456C69.6275 82.9434 77.1943 85.6314 84.944 85.6314C93.1796 85.6314 101.127 82.639 107.387 77.1951C110.512 78.4176 113.786 79.0378 117.127 79.0378Z" fill="black"/>
</g>
<path d="M91.3877 2.90344C104.782 2.90344 116.169 11.6717 120.105 23.7724C130.851 26.9526 138.715 36.9143 138.715 48.6766C138.715 62.9941 127.065 74.643 112.746 74.643C109.306 74.643 105.938 73.95 102.826 72.6562C96.809 78.0661 88.8956 81.2366 80.563 81.2366C71.3348 81.2366 62.769 77.4297 56.6352 71.0806C54.0833 72.0117 51.3597 72.5088 48.573 72.5088C35.5218 72.5088 24.9043 61.893 24.9043 48.8418C24.9043 39.5035 30.3418 31.4105 38.2178 27.5631C40.1544 16.4485 49.8732 7.97334 61.5351 7.97334C65.1298 7.97334 68.5756 8.77163 71.6765 10.2371C77.033 5.61408 83.9764 2.90344 91.3877 2.90344Z" fill="white"/>
<path d="M91.3877 2.90344C104.782 2.90344 116.169 11.6717 120.105 23.7725C130.851 26.9527 138.715 36.9144 138.715 48.6767C138.715 62.9942 127.065 74.6431 112.746 74.6431C109.306 74.6431 105.938 73.9501 102.826 72.6563C96.8089 78.0662 88.8956 81.2368 80.563 81.2368C71.3348 81.2368 62.769 77.4299 56.6352 71.0808C54.0833 72.0118 51.3597 72.5089 48.573 72.5089C35.5218 72.5089 24.9043 61.8931 24.9043 48.8418C24.9043 39.5036 30.3418 31.4105 38.2178 27.5632C40.1544 16.4486 49.8732 7.97335 61.5351 7.97335C65.1298 7.97335 68.5756 8.77164 71.6765 10.2371C77.033 5.61408 83.9763 2.90344 91.3877 2.90344Z" stroke="black" stroke-width="4.01061" stroke-miterlimit="10"/>
</svg>
