<svg width="86" height="61" viewBox="0 0 86 61" fill="none" xmlns="http://www.w3.org/2000/svg">
<mask id="mask0_58_2655" style="mask-type:luminance" maskUnits="userSpaceOnUse" x="2" y="2" width="84" height="59">
<path d="M2 2H86V60.542H2V2Z" fill="white"/>
</mask>
<g mask="url(#mask0_58_2655)">
<path d="M67.1887 55.9264C77.5612 55.9264 86 47.4888 86 37.1175C86 32.9825 84.6784 29.0573 82.179 25.7645C81.9999 25.5288 81.8152 25.2987 81.6259 25.072C80.8075 24.0949 79.8917 23.2029 78.8976 22.4117L78.7514 22.295L75.8893 20.0167L75.8293 19.9691C74.7343 19.0974 73.5453 18.3459 72.2883 17.7361C70.876 14.3923 68.6611 11.4736 65.7923 9.18853L65.7889 9.18513L62.7251 6.74588L62.7206 6.74248C62.5109 6.57586 62.2978 6.4115 62.0802 6.25168C58.317 3.47012 53.8522 2 49.1709 2C44.0929 2 39.1736 3.7807 35.2699 7.02472C33.0664 6.04539 30.7156 5.54893 28.2741 5.54893C24.2049 5.54893 20.2547 7.00091 17.1512 9.63852C16.7375 9.9899 16.3431 10.3583 15.9668 10.7437C13.6261 13.1455 12.0245 16.1844 11.3875 19.4703C9.7122 20.3272 8.19561 21.4494 6.89097 22.7869C6.0692 23.6302 5.3313 24.5585 4.69202 25.5605C2.93059 28.3194 2 31.5101 2 34.7904C2 40.2311 4.54013 45.0892 8.49598 48.2437C8.49711 48.2448 8.49938 48.246 8.50051 48.246L11.5586 50.6841L11.562 50.6875L11.5654 50.6898C14.5046 53.0315 18.2246 54.4325 22.2666 54.4325C24.0723 54.4325 25.8541 54.148 27.5725 53.5858L29.7249 55.3019C33.9392 58.6604 39.236 60.542 44.6608 60.542C50.4257 60.542 55.9888 58.4473 60.3709 54.6365C62.5585 55.4923 64.8504 55.9264 67.1887 55.9264Z" fill="black"/>
</g>
<path d="M49.1707 2.63232C58.5468 2.63232 66.5174 8.77012 69.2729 17.2406C76.7947 19.4668 82.3 26.4399 82.3 34.6735C82.3 44.6957 74.1446 52.85 64.1213 52.85C61.7138 52.85 59.3561 52.3649 57.1776 51.4592C52.9656 55.2462 47.4263 57.4655 41.5934 57.4655C35.1337 57.4655 29.1376 54.8007 24.844 50.3563C23.0576 51.0081 21.1511 51.3561 19.2004 51.3561C10.0645 51.3561 2.63232 43.925 2.63232 34.7891C2.63232 28.2524 6.43855 22.5872 11.9518 19.8941C13.3074 12.1139 20.1106 6.18125 28.2739 6.18125C30.7902 6.18125 33.2022 6.74005 35.3729 7.76585C39.1224 4.52977 43.9828 2.63232 49.1707 2.63232Z" fill="white"/>
<path d="M49.1707 2.63232C58.5468 2.63232 66.5174 8.77013 69.2729 17.2406C76.7947 19.4668 82.3 26.44 82.3 34.6736C82.3 44.6958 74.1446 52.8501 64.1213 52.8501C61.7138 52.8501 59.3561 52.365 57.1776 51.4593C52.9656 55.2463 47.4263 57.4656 41.5934 57.4656C35.1337 57.4656 29.1376 54.8008 24.844 50.3564C23.0576 51.0082 21.1511 51.3562 19.2004 51.3562C10.0645 51.3562 2.63232 43.9251 2.63232 34.7892C2.63232 28.2524 6.43854 22.5873 11.9518 19.8941C13.3074 12.1139 20.1106 6.18126 28.2739 6.18126C30.7902 6.18126 33.2022 6.74006 35.3728 7.76586C39.1224 4.52977 43.9828 2.63232 49.1707 2.63232Z" stroke="black" stroke-width="4.01061" stroke-miterlimit="10"/>
</svg>
