<svg width="154" height="192" viewBox="0 0 154 192" fill="none" xmlns="http://www.w3.org/2000/svg">
<path d="M43.9633 17.198V15.668H42.3793V7.064H43.9633V5.516H49.4353V7.064H51.0373V11.042H48.7333V7.982H44.6653V14.75H48.7333V11.654H51.0373V15.668H49.4353V17.198H43.9633ZM54.809 17.198V15.668H53.225V7.064H54.809V5.516H60.281V7.064H61.883V15.668H60.281V17.198H54.809ZM55.511 14.75H59.579V7.982H55.511V14.75ZM64.0707 17.198V7.064H65.6547V5.516H67.9407V7.064H69.5427V10.142H70.4247V7.064H72.0267V5.516H74.3307V7.064H75.8967V17.198H73.6287V7.982H72.7287V11.042H71.1267V15.668H68.8407V11.042H67.2387V7.982H66.3567V17.198H64.0707ZM78.098 17.198V7.064H79.682V5.516H81.968V7.064H83.57V10.142H84.452V7.064H86.054V5.516H88.358V7.064H89.924V17.198H87.656V7.982H86.756V11.042H85.154V15.668H82.868V11.042H81.266V7.982H80.384V17.198H78.098ZM93.7093 17.198V15.668H92.1253V7.064H93.7093V5.516H99.1813V7.064H100.783V15.668H99.1813V17.198H93.7093ZM94.4113 14.75H98.4793V7.982H94.4113V14.75ZM102.971 17.198V5.516H105.257V7.064H106.841V8.594H108.443V13.202H109.325V5.516H111.629V17.198H109.325V15.668H107.741V14.12H106.139V9.512H105.257V17.198H102.971ZM54.8158 39.198V29.064H56.3998V27.516H61.8718V29.064H63.4738V34.572H61.8718V36.12H61.0978V36.75H62.6638V39.198H60.3958V37.668H58.7758V36.12H57.1018V39.198H54.8158ZM57.1018 33.654H61.1698V29.982H57.1018V33.654ZM67.2455 39.198V37.668H65.6615V29.064H67.2455V27.516H72.7175V29.064H74.3195V37.668H72.7175V39.198H67.2455ZM67.9475 36.75H72.0155V29.982H67.9475V36.75ZM78.0912 39.198V37.668H76.5072V29.064H78.0912V27.516H83.5632V29.064H85.1652V37.668H83.5632V39.198H78.0912ZM78.7932 36.75H82.8612V29.982H78.7932V36.75ZM87.3529 39.198V29.064H88.9369V27.516H91.2229V29.064H92.8249V32.142H93.7069V29.064H95.3089V27.516H97.6129V29.064H99.1789V39.198H96.9109V29.982H96.0109V33.042H94.4089V37.668H92.1229V33.042H90.5209V29.982H89.6389V39.198H87.3529Z" fill="#1E1E2F"/>
<path d="M119.621 120.997C119.64 120.277 119.381 119.615 118.769 119.045C116.919 117.324 112.336 114.316 107.286 111.202C106.791 105.586 105.681 97.3496 103.291 93.6043C101.531 90.8457 96.9336 87.735 92.5908 85.2278C90.1916 83.8418 87.924 82.6659 86.2289 81.8227C84.8947 74.0039 83.4747 66.7929 82.4319 64.3331C82.1701 63.7177 81.7322 63.2844 81.1583 63.0018C81.2204 63.0329 81.284 63.064 81.3432 63.0995L76.067 60.0331C71.4713 57.3618 56.7447 65.7161 54.8336 66.8196C53.0172 67.8683 35.2953 78.2831 34.8131 85.713C34.3027 93.5451 39.7416 128.044 40.0271 129.86C40.0271 129.86 42.1098 131.051 45.2915 132.848C45.2959 132.876 45.3004 132.906 45.3033 132.926L45.3654 132.891C46.0385 133.27 46.7573 133.676 47.5161 134.104C47.9984 134.375 48.4983 134.656 49.0101 134.943C57.681 139.813 70.2243 146.748 75.3186 149.029L75.3289 152.693L48.7616 142.557L47.1212 144.004L47.1123 146.993L44.6909 148.402C44.6939 148.4 44.6954 148.399 44.6983 148.397C44.1732 148.699 43.8463 149.344 43.8434 150.264C43.8389 152.108 45.1391 154.355 46.7396 155.28C47.596 155.774 48.3652 155.79 48.8992 155.422C48.8696 155.442 48.8415 155.465 48.8119 155.482L52.3353 153.435C52.8574 153.132 53.1799 152.488 53.1828 151.573C53.1858 150.787 52.9491 149.931 52.5557 149.132L71.7449 156.456L49.0323 166.971L49.0234 170.023L49.2778 170.207L46.4526 171.849C46.4556 171.849 46.4571 171.848 46.46 171.846C45.9349 172.148 45.608 172.793 45.6051 173.712C45.6006 175.558 46.9008 177.804 48.5013 178.729C49.3577 179.223 50.1284 179.239 50.6623 178.869C50.6327 178.89 50.6046 178.914 50.5736 178.932L54.0984 176.883C54.6191 176.581 54.943 175.936 54.9445 175.022C54.949 173.46 54.0171 171.613 52.7568 170.52L77.2282 159.185L87.4063 174.765C87.3146 174.794 87.2244 174.831 87.1415 174.88L83.6167 176.927C83.6196 176.926 83.6211 176.926 83.6226 176.924C83.099 177.226 82.7721 177.871 82.7691 178.79C82.7647 180.636 84.0649 182.882 85.6653 183.805C86.5277 184.304 87.3028 184.317 87.8382 183.939C87.8042 183.962 87.7731 183.989 87.7376 184.01L91.261 181.961C91.7832 181.658 92.1056 181.014 92.1086 180.1C92.1115 179.116 91.7418 178.02 91.1545 177.069L91.9947 176.887L92.0036 173.836L81.9985 158.525L109.078 157.821L107.632 158.661L107.631 158.663L107.621 158.668C107.622 158.667 107.624 158.667 107.625 158.665C107.101 158.967 106.775 159.612 106.773 160.531C106.767 162.375 108.067 164.622 109.668 165.547C110.54 166.051 111.323 166.058 111.858 165.668C111.82 165.696 111.782 165.726 111.74 165.751L115.265 163.702C115.786 163.399 116.11 162.755 116.113 161.84C116.117 160.207 115.098 158.26 113.749 157.191L113.756 154.648L113.613 152.914L81.3403 153.753L83.2203 149.762C92.0065 148.206 103.341 141.5 104.094 141.053C104.961 140.559 119.592 132.208 119.606 127.035L119.624 120.932C119.624 120.954 119.621 120.975 119.621 120.997Z" fill="#00CED1"/>
<path d="M50.7558 178.806C50.7262 178.829 50.6937 178.849 50.6626 178.869C50.1286 179.239 49.3594 179.223 48.5015 178.729C46.9011 177.804 45.6009 175.558 45.6068 173.713C45.6083 172.793 45.9352 172.15 46.4603 171.848C46.4928 171.829 46.5283 171.815 46.5623 171.799C46.5978 171.783 46.6304 171.764 46.6674 171.75C46.7029 171.737 46.7413 171.728 46.7798 171.718C46.8168 171.707 46.8537 171.694 46.8922 171.685C46.9321 171.678 46.9735 171.675 47.015 171.67C47.0534 171.666 47.0919 171.658 47.1318 171.656C47.1777 171.654 47.225 171.657 47.2709 171.658C47.3093 171.66 47.3478 171.658 47.3877 171.661C47.438 171.666 47.4927 171.678 47.5445 171.687C47.5815 171.693 47.617 171.695 47.6554 171.703C47.7176 171.716 47.7827 171.737 47.8463 171.756C47.8758 171.765 47.9039 171.771 47.9335 171.781C48.0223 171.811 48.1125 171.848 48.2042 171.889C48.2101 171.892 48.216 171.894 48.222 171.897C48.3211 171.942 48.4202 171.993 48.5208 172.052C50.1257 172.978 51.4258 175.225 51.4214 177.071C51.4214 177.284 51.4007 177.48 51.3667 177.664C51.3637 177.677 51.3637 177.692 51.3608 177.705C51.3474 177.77 51.3297 177.831 51.3119 177.892C51.3045 177.921 51.2986 177.954 51.2883 177.983C51.272 178.035 51.2513 178.081 51.2306 178.13C51.2173 178.164 51.2054 178.201 51.1907 178.233C51.1699 178.275 51.1463 178.312 51.1256 178.352C51.1063 178.386 51.0886 178.421 51.0679 178.454C51.0442 178.489 51.0191 178.519 50.9939 178.551C50.9703 178.582 50.9481 178.616 50.9229 178.645C50.8963 178.674 50.8667 178.698 50.8401 178.724C50.812 178.753 50.7854 178.782 50.7558 178.806ZM49.0769 155.278C49.105 155.252 49.1346 155.226 49.1598 155.197C49.1864 155.169 49.2086 155.135 49.2322 155.104C49.2559 155.071 49.2825 155.042 49.3062 155.006C49.3269 154.973 49.3432 154.938 49.3624 154.904C49.3846 154.864 49.4083 154.827 49.429 154.784C49.4438 154.753 49.4556 154.716 49.4689 154.682C49.4881 154.633 49.5103 154.586 49.5266 154.534C49.5355 154.506 49.5414 154.474 49.5503 154.444C49.568 154.383 49.5858 154.323 49.5991 154.258C49.602 154.244 49.602 154.228 49.605 154.215C49.639 154.033 49.6582 153.836 49.6597 153.622C49.6642 151.777 48.364 149.53 46.7591 148.604C46.6585 148.545 46.5579 148.493 46.4603 148.449C46.4499 148.444 46.441 148.441 46.4307 148.437C46.3434 148.397 46.2562 148.362 46.1718 148.334C46.1408 148.323 46.1112 148.317 46.0801 148.307C46.018 148.289 45.9544 148.268 45.8923 148.255C45.8523 148.246 45.8154 148.243 45.7754 148.236C45.7251 148.228 45.6734 148.218 45.6245 148.214C45.5817 148.209 45.5417 148.211 45.5003 148.211C45.4559 148.209 45.4115 148.206 45.3701 148.208C45.3272 148.209 45.2858 148.218 45.2444 148.223C45.2059 148.227 45.1675 148.23 45.129 148.237C45.0876 148.246 45.0492 148.26 45.0077 148.271C44.9737 148.282 44.9382 148.289 44.9057 148.301C44.8657 148.316 44.8288 148.336 44.7918 148.354C44.7607 148.369 44.7282 148.381 44.6986 148.399C44.1735 148.7 43.8466 149.345 43.8436 150.264C43.8377 152.108 45.1394 154.357 46.7398 155.28C47.5948 155.775 48.3654 155.791 48.8994 155.422C48.9305 155.401 48.963 155.382 48.9926 155.358C49.0222 155.333 49.0488 155.305 49.0769 155.278ZM88.0189 183.789C88.0411 183.767 88.0648 183.748 88.0855 183.724C88.118 183.687 88.1462 183.646 88.1757 183.606C88.195 183.582 88.2142 183.56 88.2305 183.533C88.26 183.489 88.2837 183.44 88.3103 183.393C88.3237 183.365 88.3399 183.341 88.3532 183.313C88.3784 183.261 88.3976 183.203 88.4183 183.147C88.4287 183.119 88.442 183.092 88.4523 183.063C88.4716 183.002 88.4864 182.936 88.5026 182.871C88.5085 182.841 88.5189 182.814 88.5248 182.785C88.5396 182.709 88.55 182.629 88.5588 182.548C88.5618 182.524 88.5662 182.504 88.5692 182.48C88.5795 182.374 88.584 182.263 88.5855 182.147C88.5899 180.303 87.2897 178.056 85.6848 177.128C85.5842 177.071 85.4851 177.02 85.3875 176.975C85.352 176.958 85.3195 176.948 85.2854 176.933C85.2218 176.908 85.1597 176.88 85.0976 176.859C85.0562 176.844 85.0162 176.837 84.9763 176.825C84.923 176.809 84.8698 176.791 84.8195 176.781C84.7751 176.77 84.7337 176.768 84.6908 176.76C84.645 176.753 84.5976 176.744 84.5518 176.739C84.5089 176.735 84.4689 176.738 84.4275 176.736C84.3832 176.735 84.3388 176.732 84.2959 176.734C84.2545 176.735 84.216 176.744 84.1746 176.748C84.1347 176.753 84.0947 176.756 84.0563 176.763C84.0163 176.772 83.9793 176.785 83.9409 176.796C83.9039 176.806 83.8669 176.813 83.8314 176.827C83.7944 176.841 83.7604 176.859 83.7249 176.877C83.6909 176.893 83.6569 176.907 83.6243 176.924C83.0992 177.226 82.7723 177.871 82.7694 178.79C82.7649 180.636 84.0651 182.882 85.6656 183.807C86.5279 184.304 87.303 184.317 87.8385 183.94C87.8651 183.921 87.8932 183.905 87.9184 183.884C87.9539 183.856 87.9849 183.822 88.0189 183.789ZM112.038 165.514C112.054 165.498 112.072 165.483 112.088 165.465C112.125 165.424 112.159 165.375 112.193 165.328C112.206 165.31 112.221 165.294 112.233 165.274C112.267 165.224 112.295 165.168 112.325 165.112C112.335 165.092 112.347 165.075 112.356 165.054C112.384 164.995 112.407 164.93 112.431 164.865C112.439 164.844 112.447 164.826 112.455 164.804C112.477 164.736 112.495 164.661 112.511 164.587C112.515 164.566 112.523 164.548 112.527 164.526C112.544 164.442 112.557 164.351 112.566 164.26C112.567 164.246 112.57 164.235 112.572 164.221C112.582 164.115 112.588 164.004 112.588 163.888C112.594 162.044 111.292 159.797 109.687 158.871C109.486 158.754 109.289 158.664 109.099 158.6C109.099 158.599 109.097 158.599 109.097 158.599C109.002 158.568 108.911 158.541 108.82 158.522C108.804 158.519 108.788 158.518 108.772 158.515C108.698 158.5 108.624 158.487 108.553 158.481C108.529 158.479 108.508 158.481 108.486 158.479C108.423 158.476 108.359 158.473 108.297 158.476C108.27 158.476 108.247 158.482 108.22 158.485C108.165 158.489 108.11 158.495 108.057 158.506C108.029 158.512 108.002 158.521 107.974 158.528C107.927 158.541 107.878 158.553 107.832 158.569C107.804 158.58 107.779 158.596 107.751 158.608C107.711 158.626 107.67 158.642 107.633 158.663C107.631 158.663 107.631 158.664 107.631 158.664C107.628 158.665 107.627 158.667 107.625 158.667C107.102 158.969 106.775 159.614 106.773 160.532C106.767 162.377 108.068 164.624 109.668 165.548C110.541 166.052 111.323 166.06 111.859 165.669C111.879 165.655 111.9 165.643 111.919 165.626C111.961 165.592 111.999 165.552 112.038 165.514ZM76.7063 143.491C76.6101 143.457 76.5066 143.415 76.4045 143.378C76.5051 143.415 76.6101 143.457 76.7063 143.491ZM75.3025 142.94C75.3721 142.97 75.4431 143.001 75.5111 143.029C75.4445 143.001 75.3706 142.97 75.3025 142.94ZM80.0965 153.366L81.6896 149.983C79.8096 150.184 78.0937 150.097 76.6885 149.594C76.3276 149.465 75.8661 149.273 75.3203 149.029L75.3292 152.693L48.7619 142.557L47.1215 144.004L75.3617 154.781L71.7452 156.456L49.0325 166.972L50.9081 168.33L74.3751 157.46L77.2373 156.133L78.854 158.608L89.2023 174.445L92.0053 173.836L82.0002 158.526L80.0388 155.525L80.5137 155.513L86.1108 155.367L113.756 154.648L113.613 152.916L81.3405 153.755L80.098 153.787L80.0965 153.366ZM84.8195 143.332C83.6554 143.606 82.5209 143.803 81.444 143.903V143.905C82.5209 143.804 83.6539 143.606 84.8195 143.332ZM42.4577 90.8975C42.2772 93.6798 42.8393 99.7873 43.6558 106.615L43.8762 106.486C44.0522 106.575 44.2371 106.668 44.4249 106.762C43.5981 99.8864 43.0242 93.7227 43.2046 90.9448C43.5863 85.0888 55.8515 76.5007 63.0388 72.3502C64.8685 71.2955 74.2967 65.9898 80.3125 65.191L80.2134 64.4485C74.0586 65.265 64.5165 70.6344 62.666 71.7023C60.6499 72.8664 42.9532 83.296 42.4577 90.8975Z" fill="white"/>
<path d="M107.621 158.668L107.631 158.662C107.63 158.664 107.627 158.665 107.626 158.667C107.624 158.667 107.623 158.668 107.621 158.668ZM46.7593 148.603C48.3642 149.53 49.6644 151.777 49.6599 153.621C49.6584 153.834 49.6392 154.031 49.6052 154.215C49.6022 154.228 49.6022 154.243 49.5993 154.256C49.586 154.321 49.5682 154.382 49.5505 154.444C49.5431 154.473 49.5357 154.506 49.5268 154.534C49.5105 154.586 49.4883 154.633 49.4691 154.681C49.4558 154.715 49.444 154.752 49.4292 154.784C49.4085 154.827 49.3848 154.864 49.3626 154.902C49.3449 154.936 49.3271 154.973 49.3064 155.004C49.2827 155.04 49.2561 155.071 49.2324 155.104C49.2073 155.135 49.1851 155.167 49.16 155.197C49.1348 155.225 49.1052 155.25 49.0771 155.277C49.049 155.303 49.0224 155.333 48.9928 155.357C48.9632 155.38 48.9322 155.399 48.8996 155.422C48.8701 155.441 48.8434 155.464 48.8124 155.482L52.3357 153.434C52.8579 153.132 53.1818 152.488 53.1833 151.573C53.1863 150.787 52.9496 149.929 52.5561 149.132L71.7454 156.456L75.3619 154.78L47.1217 144.004L47.1128 146.995L44.6914 148.401C44.6944 148.4 44.6958 148.4 44.6988 148.399C44.7284 148.381 44.7609 148.369 44.792 148.354C44.8304 148.336 44.8659 148.316 44.9059 148.301C44.9384 148.289 44.9754 148.282 45.0094 148.271C45.0494 148.259 45.0878 148.246 45.1307 148.237C45.1677 148.23 45.2062 148.227 45.2446 148.222C45.2875 148.218 45.3274 148.209 45.3703 148.208C45.4132 148.206 45.4576 148.209 45.5005 148.211C45.5419 148.211 45.5833 148.209 45.6248 148.214C45.6751 148.218 45.7253 148.228 45.7771 148.236C45.8156 148.242 45.854 148.246 45.8925 148.255C45.9546 148.268 46.0182 148.288 46.0818 148.307C46.1114 148.316 46.141 148.322 46.1721 148.333C46.2564 148.362 46.3436 148.397 46.4324 148.437C46.4413 148.441 46.4516 148.444 46.4605 148.449C46.5581 148.493 46.6587 148.545 46.7593 148.603ZM81.3407 153.755L83.2207 149.762C82.7001 149.855 82.1883 149.928 81.6883 149.983L80.0967 153.366L80.0982 153.787L81.3407 153.755ZM113.749 157.192L113.757 154.648L86.111 155.367L80.5124 155.513L80.039 155.525L81.9989 158.525L109.078 157.821L107.633 158.661C107.67 158.64 107.711 158.624 107.751 158.606C107.779 158.594 107.804 158.58 107.833 158.569C107.878 158.552 107.927 158.54 107.976 158.528C108.003 158.52 108.029 158.51 108.057 158.504C108.111 158.494 108.165 158.489 108.222 158.483C108.247 158.482 108.272 158.476 108.297 158.475C108.359 158.472 108.423 158.475 108.486 158.479C108.509 158.479 108.529 158.478 108.553 158.481C108.624 158.486 108.698 158.5 108.772 158.513C108.788 158.516 108.804 158.517 108.821 158.52C108.911 158.541 109.003 158.566 109.097 158.599C109.099 158.599 109.099 158.599 109.099 158.599C109.29 158.664 109.486 158.753 109.687 158.87C111.294 159.797 112.594 162.044 112.588 163.888C112.588 164.004 112.582 164.115 112.572 164.221C112.57 164.234 112.567 164.246 112.566 164.26C112.557 164.351 112.544 164.442 112.527 164.526C112.523 164.547 112.517 164.564 112.513 164.585C112.495 164.66 112.477 164.734 112.455 164.804C112.449 164.825 112.439 164.844 112.431 164.865C112.408 164.93 112.385 164.993 112.357 165.054C112.347 165.075 112.335 165.091 112.325 165.112C112.297 165.168 112.267 165.223 112.235 165.274C112.221 165.294 112.206 165.31 112.193 165.328C112.159 165.375 112.125 165.422 112.088 165.465C112.072 165.483 112.054 165.496 112.038 165.514C111.999 165.552 111.962 165.591 111.921 165.625C111.902 165.641 111.88 165.653 111.86 165.668C111.82 165.696 111.783 165.725 111.741 165.751L115.265 163.702C115.788 163.399 116.11 162.755 116.113 161.84C116.117 160.207 115.097 158.26 113.749 157.192ZM91.9966 176.887L92.0055 173.836L89.2025 174.445L78.8542 158.608L77.2375 156.133L74.3753 157.46L50.9083 168.33L49.0328 166.972L49.0239 170.024L49.2798 170.209L46.4546 171.851C46.4561 171.849 46.4575 171.849 46.4605 171.848C46.493 171.829 46.5285 171.815 46.5626 171.799C46.5981 171.783 46.6306 171.763 46.6676 171.75C46.7031 171.737 46.7415 171.728 46.78 171.718C46.817 171.707 46.8525 171.694 46.8924 171.687C46.9323 171.678 46.9738 171.676 47.0152 171.67C47.0536 171.666 47.0921 171.658 47.132 171.657C47.1779 171.654 47.2252 171.658 47.2711 171.658C47.3095 171.66 47.348 171.658 47.3879 171.661C47.4382 171.666 47.4929 171.678 47.5447 171.687C47.5817 171.692 47.6172 171.695 47.6557 171.703C47.7178 171.718 47.7829 171.737 47.8465 171.758C47.8761 171.766 47.9042 171.771 47.9337 171.781C48.0225 171.812 48.1127 171.849 48.2044 171.891C48.2103 171.892 48.2163 171.894 48.2222 171.897C48.3213 171.942 48.4204 171.994 48.521 172.052C50.1259 172.979 51.4261 175.226 51.4216 177.071C51.4216 177.284 51.4009 177.48 51.3669 177.664C51.3639 177.677 51.3639 177.692 51.361 177.705C51.3477 177.77 51.3299 177.831 51.3122 177.892C51.3048 177.923 51.2988 177.954 51.2885 177.983C51.2722 178.035 51.2515 178.081 51.2308 178.13C51.2175 178.164 51.2057 178.201 51.1909 178.233C51.1702 178.275 51.1465 178.313 51.1258 178.352C51.1066 178.386 51.0888 178.423 51.0681 178.454C51.0444 178.489 51.0193 178.519 50.9941 178.551C50.9705 178.582 50.9483 178.616 50.9231 178.645C50.8965 178.674 50.8669 178.698 50.8403 178.724C50.8122 178.752 50.7856 178.781 50.7545 178.806C50.7264 178.829 50.6939 178.849 50.6628 178.869C50.6332 178.89 50.6051 178.914 50.5741 178.931L54.0989 176.883C54.6196 176.58 54.9435 175.936 54.945 175.022C54.9494 173.46 54.0176 171.613 52.7573 170.519L77.2286 159.185L87.4068 174.763C87.3151 174.794 87.2248 174.831 87.142 174.879L83.6172 176.927C83.6201 176.926 83.6216 176.926 83.6231 176.924C83.6556 176.906 83.6911 176.892 83.7251 176.875C83.7606 176.859 83.7947 176.84 83.8316 176.827C83.8657 176.813 83.9041 176.806 83.9411 176.796C83.9795 176.784 84.0165 176.77 84.0565 176.763C84.0949 176.756 84.1349 176.753 84.1748 176.748C84.2147 176.742 84.2547 176.735 84.2961 176.733C84.339 176.73 84.3834 176.735 84.4263 176.736C84.4692 176.736 84.5091 176.735 84.552 176.739C84.5978 176.742 84.6452 176.753 84.691 176.76C84.7339 176.767 84.7753 176.77 84.8197 176.781C84.87 176.791 84.9233 176.809 84.9765 176.824C85.0164 176.835 85.0564 176.844 85.0978 176.858C85.1599 176.88 85.222 176.906 85.2842 176.933C85.3197 176.948 85.3522 176.958 85.3877 176.975C85.4853 177.019 85.5844 177.071 85.685 177.128C87.2899 178.056 88.5901 180.303 88.5857 182.147C88.5842 182.263 88.5798 182.372 88.5694 182.479C88.5664 182.504 88.562 182.524 88.559 182.548C88.5502 182.629 88.5398 182.709 88.5235 182.785C88.5176 182.814 88.5088 182.841 88.5014 182.87C88.4866 182.936 88.4718 183.002 88.4525 183.063C88.4422 183.092 88.4289 183.119 88.4185 183.147C88.3978 183.203 88.3786 183.26 88.3534 183.313C88.3401 183.341 88.3239 183.365 88.3091 183.391C88.2839 183.44 88.2588 183.489 88.2307 183.533C88.2144 183.558 88.1937 183.58 88.1759 183.606C88.1464 183.646 88.1183 183.687 88.0857 183.724C88.065 183.748 88.0399 183.767 88.0177 183.788C87.9851 183.822 87.9541 183.856 87.9171 183.884C87.8934 183.904 87.8653 183.921 87.8387 183.938C87.8047 183.962 87.7721 183.989 87.7381 184.009L91.2615 181.961C91.7822 181.658 92.1061 181.014 92.109 180.1C92.112 179.116 91.7422 178.02 91.155 177.069L91.9966 176.887Z" fill="#C5C5C5"/>
<path d="M64.8633 135.225L64.8855 135.465L62.7777 136.689L62.7215 136.105C62.334 132.092 61.8029 128.631 61.1418 125.813L61.1344 125.784C61.0929 125.606 61.053 125.443 61.0146 125.284L60.9909 125.19C60.9539 125.045 60.9169 124.901 60.8799 124.757L60.8474 124.636C60.8119 124.501 60.7749 124.368 60.7394 124.236L60.701 124.1C60.6655 123.975 60.6285 123.849 60.5915 123.725L60.5516 123.588C60.5146 123.467 60.4776 123.344 60.4392 123.225L60.3992 123.1C60.3593 122.978 60.3208 122.855 60.2794 122.735L60.2454 122.637C60.2025 122.51 60.1596 122.384 60.1152 122.26L60.0916 122.201C60.0427 122.066 59.9939 121.933 59.9436 121.803C59.5872 120.885 59.21 120.114 58.8195 119.5C58.3802 118.811 57.7338 118.059 56.898 117.268C55.4307 115.873 53.3436 114.327 50.6959 112.671C49.8572 112.146 48.9845 111.619 48.0999 111.109C48.0304 111.069 47.9594 111.029 47.8884 110.989L47.7124 110.89C47.5453 110.794 47.3766 110.699 47.2065 110.603C46.359 110.125 45.4863 109.647 44.6136 109.184C44.3 109.017 43.9893 108.855 43.6802 108.693L43.3222 108.508C43.0057 108.344 42.6906 108.183 42.3815 108.026L41.7617 107.714L43.8754 106.485L44.0559 106.575C45.4582 107.273 47.6636 108.414 50.2092 109.877C55.8567 113.143 59.4644 115.966 60.9317 118.272C63.2111 121.836 64.3279 129.458 64.8633 135.225ZM90.4544 86.4732C96.09 89.723 99.6977 92.5467 101.175 94.866C103.419 98.3776 104.535 105.836 105.073 111.473L105.129 112.057L107.243 110.829L107.221 110.59C106.687 104.824 105.57 97.2016 103.291 93.6368C101.823 91.3323 98.2156 88.5086 92.5667 85.2411C90.5757 84.0962 88.391 82.9247 86.4148 81.9396L86.2329 81.8494L84.1206 83.0786L84.7404 83.3907C86.0539 84.0533 88.1129 85.1257 90.4544 86.4732ZM118.917 123.109C116.125 127.925 106.094 133.817 104.106 134.953C102.544 135.876 88.6025 143.979 79.9272 143.979C78.7291 143.979 77.6655 143.821 76.7677 143.508L76.2367 143.324L76.2677 143.884C76.3535 145.445 76.358 147.174 76.2825 149.169L76.2722 149.441L76.5695 149.552C76.6109 149.567 76.6508 149.583 76.6878 149.595C77.596 149.921 78.6802 150.086 79.9094 150.086C88.5877 150.086 102.533 141.98 104.089 141.059C106.678 139.58 119.594 131.952 119.609 127.035L119.622 121.89L118.917 123.109Z" fill="#090001" fill-opacity="0.3"/>
<mask id="mask0_4407_479" style="mask-type:luminance" maskUnits="userSpaceOnUse" x="34" y="59" width="87" height="126">
<path d="M34.4004 59.0879H120.001V184.58H34.4004V59.0879Z" fill="white"/>
</mask>
<g mask="url(#mask0_4407_479)">
<path d="M119.996 120.914C119.993 120.092 119.668 119.373 119.022 118.771C117.176 117.054 112.654 114.077 107.641 110.982C107.129 105.303 106.003 97.1587 103.606 93.4046C102.098 91.0409 98.4552 88.1802 92.7782 84.9038C90.4514 83.5593 88.249 82.4129 86.5627 81.5713C85.2315 73.7894 83.8203 66.6479 82.776 64.1866C82.5261 63.5994 82.1311 63.1408 81.5942 62.8139C81.5587 62.7844 81.5202 62.7592 81.4773 62.7444L76.2544 59.7092C75.5976 59.3275 74.7294 59.1353 73.6733 59.1353C67.6915 59.1353 56.7738 65.2664 54.6452 66.4956C52.6291 67.6597 34.9324 78.0893 34.4383 85.6893C33.9399 93.3469 39.0696 126.196 39.6569 129.918C39.6746 130.03 39.7426 130.128 39.8403 130.184C40.145 130.359 42.1019 131.477 44.9745 133.101C45.0114 133.171 45.0691 133.228 45.1416 133.264C45.1934 133.287 45.2481 133.301 45.3028 133.301C45.3102 133.301 45.3161 133.298 45.3235 133.298C46.0306 133.697 46.7909 134.126 47.5896 134.577C47.9298 134.768 48.276 134.963 48.6295 135.161C57.1909 139.973 69.6351 146.859 74.9453 149.27L74.9527 152.148L48.8942 142.208C48.7641 142.158 48.6176 142.185 48.5126 142.276L46.8737 143.723C46.8678 143.729 46.8634 143.735 46.8589 143.739C46.8456 143.752 46.8352 143.764 46.8249 143.779C46.816 143.789 46.8086 143.8 46.8012 143.812C46.7924 143.826 46.785 143.843 46.779 143.857C46.7731 143.871 46.7672 143.883 46.7642 143.896C46.7583 143.912 46.7554 143.928 46.7539 143.945C46.7509 143.96 46.748 143.974 46.748 143.989C46.748 143.994 46.7465 143.998 46.7465 144.004L46.7376 146.779L44.5544 148.048C43.8784 148.407 43.4716 149.199 43.4687 150.262C43.4627 152.224 44.8458 154.62 46.5512 155.604C47.069 155.902 47.5719 156.053 48.0452 156.053C48.4372 156.053 48.7818 155.951 49.0717 155.765L52.5226 153.759C53.1868 153.373 53.5536 152.598 53.5566 151.574C53.5581 150.996 53.4427 150.389 53.24 149.795L70.78 156.488L48.8735 166.632C48.8706 166.632 48.8691 166.635 48.8661 166.637C48.8647 166.637 48.8632 166.637 48.8617 166.638C48.8543 166.641 48.8499 166.647 48.8425 166.651C48.8218 166.663 48.8011 166.677 48.7833 166.693C48.7744 166.702 48.767 166.711 48.7582 166.72C48.7449 166.734 48.7301 166.749 48.7197 166.767C48.7123 166.779 48.7064 166.791 48.7005 166.804C48.6916 166.82 48.6827 166.836 48.6768 166.856C48.6724 166.869 48.6709 166.884 48.6679 166.897C48.665 166.91 48.6605 166.922 48.6591 166.935C48.6576 166.941 48.6591 166.949 48.6591 166.955C48.6591 166.961 48.6576 166.965 48.6576 166.971L48.6487 170.022C48.6487 170.059 48.6561 170.095 48.6665 170.13L46.3057 171.503C45.6371 171.866 45.2348 172.654 45.2318 173.712C45.2259 175.673 46.6089 178.068 48.3144 179.053C48.8306 179.352 49.3336 179.502 49.8084 179.502C50.1974 179.502 50.542 179.4 50.8305 179.216L54.2858 177.207C54.95 176.821 55.3168 176.046 55.3197 175.024C55.3242 173.515 54.5476 171.805 53.4175 170.627L77.0931 159.661L86.86 174.611L83.4535 176.59C82.7938 176.957 82.3989 177.739 82.3959 178.79C82.39 180.751 83.7715 183.146 85.4785 184.131C85.9947 184.43 86.4976 184.58 86.9724 184.58C87.3615 184.58 87.7046 184.478 87.9931 184.293L91.4499 182.286C92.114 181.899 92.4794 181.124 92.4823 180.102C92.4853 179.195 92.2057 178.217 91.7383 177.325L92.0756 177.253C92.2472 177.214 92.3699 177.063 92.3699 176.887L92.3788 173.836C92.3788 173.83 92.3773 173.824 92.3758 173.818C92.3758 173.805 92.3744 173.791 92.3729 173.778C92.3699 173.762 92.367 173.747 92.361 173.731C92.3581 173.719 92.3537 173.709 92.3492 173.697C92.3433 173.68 92.3359 173.666 92.327 173.649C92.3226 173.643 92.3211 173.638 92.3182 173.632L82.6799 158.881L107.623 158.234L107.463 158.327C106.799 158.692 106.401 159.477 106.398 160.529C106.392 162.491 107.775 164.887 109.481 165.87C109.997 166.171 110.5 166.32 110.975 166.32C111.364 166.32 111.707 166.22 111.996 166.035L115.452 164.026C116.116 163.64 116.483 162.863 116.486 161.841C116.491 160.136 115.498 158.174 114.124 157.015L114.13 154.649C114.13 154.644 114.13 154.641 114.13 154.635C114.128 154.629 114.13 154.623 114.13 154.618L113.986 152.885C113.97 152.688 113.805 152.515 113.603 152.542L81.9374 153.364L83.4772 150.094C92.0534 148.501 102.913 142.188 104.286 141.375C106.904 139.88 119.967 132.157 119.982 127.036L119.998 120.933C119.998 120.926 119.996 120.92 119.996 120.914ZM118.513 119.32C119.01 119.783 119.252 120.315 119.249 120.939C119.248 121.049 119.239 121.163 119.223 121.277C119.22 121.3 119.215 121.324 119.212 121.348C118.766 124.117 114.12 127.998 109.487 131.15C107.16 132.724 105.097 133.949 104.224 134.454C104.144 134.5 104.063 134.546 103.986 134.591C103.962 134.604 103.94 134.617 103.919 134.629C103.058 135.139 98.4049 137.849 92.966 140.16C88.6084 142.011 83.7449 143.606 79.9272 143.606C78.7409 143.606 77.6995 143.449 76.8328 143.139C74.2827 142.226 69.8126 140.05 63.5498 136.672L65.0719 135.787C65.1976 135.713 65.2686 135.574 65.2568 135.429C64.7199 129.533 63.5883 121.737 61.2453 118.071C61.0308 117.734 60.7675 117.385 60.4643 117.028L87.0346 101.587L104.937 112.376C104.94 112.379 104.944 112.379 104.949 112.382C104.952 112.384 104.955 112.387 104.958 112.388C104.974 112.397 104.99 112.402 105.006 112.406C105.017 112.41 105.026 112.415 105.036 112.418C105.067 112.425 105.098 112.43 105.131 112.43C105.16 112.43 105.19 112.425 105.219 112.418C105.23 112.416 105.237 112.412 105.246 112.409C105.261 112.404 105.276 112.402 105.29 112.394C105.296 112.391 105.301 112.387 105.305 112.384C105.31 112.382 105.314 112.381 105.319 112.379L106.947 111.431C112.041 114.569 116.662 117.598 118.513 119.32ZM50.8956 112.35C50.0791 111.838 49.2123 111.317 48.2878 110.782C48.1606 110.709 48.0275 110.635 47.8988 110.563C47.7301 110.467 47.5615 110.371 47.3914 110.274C46.5453 109.797 45.6785 109.322 44.7896 108.85C44.4789 108.686 44.1683 108.522 43.8532 108.357C43.7334 108.295 43.6151 108.235 43.4953 108.173C43.1773 108.008 42.8622 107.846 42.5516 107.689L43.8887 106.911C45.3324 107.631 47.5171 108.763 50.0214 110.202C55.6156 113.437 59.1804 116.221 60.6152 118.474C62.8457 121.964 63.9522 129.477 64.4891 135.259L63.0957 136.068C62.7807 132.802 62.2837 129.033 61.5086 125.727C61.5041 125.713 61.5012 125.698 61.4982 125.683C61.4583 125.517 61.4198 125.355 61.3799 125.192C61.371 125.161 61.3636 125.13 61.3562 125.099C61.3192 124.952 61.2823 124.806 61.2438 124.661C61.2335 124.619 61.2216 124.58 61.2113 124.538C61.1743 124.402 61.1388 124.267 61.1018 124.136C61.0885 124.088 61.0752 124.044 61.0619 123.998C61.0264 123.871 60.9894 123.744 60.9524 123.618C60.9391 123.572 60.9258 123.526 60.911 123.48C60.874 123.356 60.837 123.232 60.7986 123.111C60.7853 123.068 60.7705 123.026 60.7572 122.985C60.7172 122.861 60.6773 122.736 60.6359 122.615C60.6255 122.581 60.6137 122.549 60.6019 122.515C60.5575 122.386 60.5131 122.259 60.4687 122.133C60.4613 122.112 60.4539 122.093 60.4465 122.072C60.3962 121.935 60.346 121.799 60.2942 121.666C60.2927 121.663 60.2912 121.66 60.2897 121.657C59.9421 120.759 59.559 119.96 59.136 119.297C58.676 118.576 58.0133 117.806 57.1569 116.994C55.6629 115.576 53.5699 114.024 50.8956 112.35ZM92.3803 85.568C97.9745 88.8029 101.539 91.5867 102.973 93.838C105.205 97.3303 106.31 104.842 106.847 110.624L105.449 111.437C104.891 105.621 103.76 98.2089 101.493 94.6634C99.9832 92.2937 96.3326 89.4286 90.6423 86.1478C88.3629 84.8358 86.3482 83.7811 84.909 83.0549L86.2477 82.2768C88.2238 83.2605 90.3938 84.426 92.3803 85.568ZM90.2695 86.7957C95.775 89.97 99.4374 92.8307 100.862 95.0657C103.029 98.4574 104.134 105.643 104.687 111.351L87.3807 100.92L84.6073 83.7412C86.0347 84.4615 88.0212 85.5029 90.2695 86.7957ZM79.3178 62.9604C79.4154 62.9648 79.513 62.9707 79.6062 62.9796C79.6077 62.9796 79.6106 62.9796 79.6121 62.9811C80.2334 63.0403 80.7496 63.1882 81.1549 63.4234C81.1593 63.4263 81.1638 63.4263 81.1682 63.4293C81.5912 63.6793 81.8945 64.0283 82.0853 64.4795C83.1103 66.892 84.5022 73.9447 85.8217 81.657L83.9328 82.7561C83.9283 82.759 83.9254 82.7635 83.9194 82.7664C83.9061 82.7753 83.8943 82.7857 83.881 82.796C83.8706 82.8049 83.8588 82.8123 83.8499 82.8226C83.8484 82.8241 83.8484 82.8241 83.847 82.8241C83.8277 82.8463 83.81 82.87 83.7952 82.8951C83.7922 82.9025 83.7908 82.9099 83.7863 82.9173C83.776 82.938 83.7671 82.9602 83.7612 82.9824C83.7582 82.9927 83.7567 83.0031 83.7553 83.012C83.7508 83.0342 83.7493 83.0549 83.7493 83.077C83.7493 83.083 83.7479 83.0874 83.7479 83.0918C83.7479 83.0978 83.7493 83.1037 83.7508 83.1081C83.7508 83.1185 83.7493 83.1288 83.7523 83.1392L86.6263 100.956L59.954 116.457C58.0518 114.444 54.8538 112.132 50.3956 109.554C47.9579 108.152 45.8235 107.043 44.371 106.315C44.2571 106.259 44.1461 106.202 44.0411 106.151C43.9272 106.096 43.7956 106.1 43.6861 106.162L43.6077 106.208L41.9954 107.146C41.0739 99.8168 40.5562 94.4666 40.4497 91.1711C40.4482 91.1341 40.4467 91.0971 40.4467 91.0616C40.4438 90.9625 40.4408 90.8649 40.4393 90.7702C40.4379 90.7184 40.4364 90.6667 40.4349 90.6149C40.4334 90.5291 40.4319 90.4418 40.4305 90.3575C40.4305 90.2969 40.4305 90.2392 40.4305 90.1815C40.429 90.0602 40.429 89.9433 40.4305 89.8294C40.4305 89.7614 40.4305 89.6919 40.4319 89.6238C40.4319 89.5662 40.4334 89.5099 40.4349 89.4537C40.4364 89.3887 40.4393 89.3236 40.4408 89.2614C40.4423 89.2097 40.4438 89.1594 40.4467 89.1106C40.4497 89.0307 40.4541 88.9553 40.4586 88.8798C40.46 88.8547 40.46 88.8281 40.463 88.8044C40.8431 82.9484 53.1084 74.3603 60.2971 70.2098C61.1491 69.7172 63.4315 68.4274 66.2301 67.068C70.3215 65.0815 75.5119 62.95 78.9509 62.95C79.0633 62.95 79.1743 62.953 79.2808 62.9574C79.2926 62.9574 79.3044 62.9589 79.3178 62.9604ZM40.3683 129.623C39.6657 125.153 34.7002 93.2064 35.1853 85.7381C35.567 79.8806 47.8322 71.294 55.0195 67.1435C57.1184 65.9305 67.8823 59.8837 73.6747 59.8837C74.5963 59.8837 75.3373 60.0435 75.8772 60.357L79.053 62.2016C79.019 62.2016 78.9849 62.2016 78.9509 62.2016C73.1555 62.2016 62.7274 67.9555 60.1463 69.4332C60.0634 69.4805 59.988 69.5234 59.9214 69.5619C59.7646 69.6536 59.5117 69.8 59.1789 69.9983C59.0443 70.0781 58.8993 70.1654 58.7411 70.2615C58.5044 70.4035 58.2411 70.5633 57.9541 70.7408C57.7633 70.8577 57.5622 70.9834 57.3506 71.115C57.0356 71.3118 56.6983 71.5248 56.3433 71.7511C50.5554 75.4593 40.0932 82.9365 39.716 88.7556C39.5341 91.5423 40.0725 97.9234 41.3135 107.721C41.3283 107.846 41.4067 107.955 41.5176 108.011C43.7556 109.121 45.9063 110.273 47.9121 111.43C53.4175 114.608 57.0814 117.469 58.5044 119.7C60.7616 123.236 61.871 130.904 62.405 136.713C62.4168 136.837 62.4893 136.95 62.5987 137.009C69.2106 140.59 73.9144 142.89 76.5798 143.843C76.6005 143.85 76.6227 143.856 76.6434 143.863C77.5783 144.187 78.6817 144.354 79.9272 144.354C88.7075 144.354 102.731 136.203 104.296 135.277C106.537 133.997 116.42 128.168 119.243 123.297L119.232 127.035C119.218 131.842 105.48 139.831 103.903 140.732C102.35 141.652 88.4871 149.709 79.9094 149.709C78.7231 149.709 77.6818 149.552 76.815 149.242C76.7662 149.224 76.7115 149.203 76.6597 149.184C70.8688 147.005 42.7335 130.974 40.3683 129.623ZM81.072 150.413L80.4508 151.731V150.447C80.6549 150.44 80.862 150.428 81.072 150.413ZM79.7038 152.722C79.6949 153.706 78.803 154.503 77.7084 154.503C76.6064 154.503 75.7115 153.697 75.7115 152.706C75.7115 152.679 75.7086 152.654 75.7041 152.629L75.6953 149.601C76.0251 149.742 76.318 149.858 76.5621 149.946C77.4584 150.267 78.5146 150.437 79.7023 150.455V152.706C79.7023 152.712 79.7038 152.718 79.7038 152.722ZM48.0452 155.305C47.7094 155.305 47.3219 155.185 46.9255 154.956C45.4286 154.092 44.2127 151.986 44.2171 150.264C44.2201 149.209 44.6831 148.579 45.4552 148.579C45.791 148.579 46.177 148.7 46.5705 148.927C48.0718 149.793 49.2892 151.898 49.2833 153.62C49.2803 154.676 48.8188 155.305 48.0452 155.305ZM52.1469 153.111L49.9533 154.386C49.9563 154.373 49.9578 154.358 49.9607 154.345C49.9785 154.255 49.9933 154.161 50.0051 154.065C50.0081 154.036 50.0125 154.005 50.0155 153.972C50.0258 153.86 50.0332 153.743 50.0332 153.621C50.0391 151.628 48.6827 149.282 46.9462 148.279C46.9062 148.257 46.8678 148.24 46.8293 148.22C46.7421 148.172 46.6548 148.125 46.569 148.086C46.5261 148.069 46.4847 148.055 46.4433 148.039C46.3649 148.008 46.288 147.975 46.211 147.95L47.0823 147.444L52.2875 149.431C52.6158 150.137 52.8111 150.885 52.8081 151.571C52.8066 152.318 52.5715 152.864 52.1469 153.111ZM47.4876 146.798L47.4935 144.547L70.848 153.459L74.398 154.814L71.7296 156.05L47.4876 146.798ZM49.8084 178.754C49.4711 178.754 49.0836 178.633 48.6886 178.405C47.1902 177.54 45.9744 175.436 45.9803 173.714C45.9832 172.658 46.4462 172.028 47.2184 172.028C47.5541 172.028 47.9402 172.148 48.3336 172.376C49.8335 173.243 51.0509 175.349 51.0464 177.069C51.0435 178.124 50.5805 178.754 49.8084 178.754ZM54.5698 175.022C54.5683 175.768 54.3331 176.313 53.9101 176.56L51.7165 177.835C51.7195 177.818 51.7209 177.798 51.7254 177.779C51.7416 177.695 51.755 177.609 51.7668 177.519C51.7697 177.486 51.7742 177.452 51.7771 177.418C51.7875 177.31 51.7934 177.199 51.7949 177.086C51.7949 177.081 51.7949 177.077 51.7949 177.071C51.7964 176.399 51.6411 175.686 51.3704 174.998C50.8394 173.648 49.8587 172.392 48.7079 171.728C48.6768 171.71 48.6472 171.698 48.6162 171.681C48.5215 171.629 48.4254 171.577 48.3307 171.536C48.2819 171.513 48.2345 171.499 48.1857 171.481C48.1147 171.453 48.0437 171.422 47.9727 171.4L49.2566 170.654L50.6796 171.684C50.7891 171.763 50.9325 171.777 51.0553 171.721L52.6927 170.963C53.7844 172 54.5742 173.635 54.5698 175.022ZM86.9724 183.832C86.6352 183.832 86.2477 183.711 85.8527 183.483C84.3528 182.618 83.1384 180.514 83.1429 178.792C83.1458 177.736 83.6088 177.106 84.3809 177.106C84.7167 177.106 85.1028 177.226 85.4962 177.454C86.9976 178.321 88.2149 180.427 88.2105 182.147C88.2061 183.202 87.7431 183.832 86.9724 183.832ZM91.0727 181.638L88.8791 182.913C88.8835 182.899 88.8835 182.881 88.8865 182.865C88.9057 182.777 88.919 182.689 88.9294 182.595C88.9338 182.563 88.9368 182.532 88.9397 182.499C88.9516 182.385 88.9575 182.27 88.959 182.15C88.9649 180.156 87.6085 177.809 85.8705 176.806C85.8335 176.784 85.7965 176.769 85.7595 176.75C85.6708 176.701 85.582 176.652 85.4948 176.614C85.4578 176.597 85.4223 176.587 85.3853 176.572C85.3025 176.538 85.2182 176.503 85.1368 176.478L87.2698 175.238L88.8791 177.702C88.9486 177.809 89.0669 177.872 89.1927 177.872C89.2193 177.872 89.2459 177.869 89.2725 177.862L90.9751 177.492C91.4454 178.327 91.7368 179.258 91.7339 180.099C91.7309 180.846 91.4972 181.391 91.0727 181.638ZM91.6215 176.586L89.3643 177.078L77.5413 158.98C77.4718 158.873 77.3519 158.812 77.2277 158.812C77.1759 158.812 77.1212 158.822 77.0709 158.846L50.9399 170.948L49.3972 169.833L49.4031 167.703L50.1649 168.255L50.687 168.634C50.7417 168.673 50.8053 168.696 50.8704 168.703C50.937 168.709 51.0035 168.699 51.0642 168.671L57.4083 165.731L74.5312 157.8C74.5326 157.8 74.5326 157.799 74.5341 157.799L77.1005 156.609L84.517 167.962L88.888 174.651C88.8894 174.654 88.8909 174.654 88.8924 174.657C88.9116 174.683 88.9323 174.707 88.956 174.728C88.9664 174.737 88.9797 174.744 88.9915 174.751C89.0078 174.763 89.024 174.774 89.0418 174.782C89.0551 174.788 89.0684 174.794 89.0832 174.799C89.1024 174.805 89.1217 174.809 89.1424 174.812C89.1557 174.815 89.1675 174.816 89.1823 174.818C89.1882 174.818 89.1942 174.819 89.2015 174.819C89.2282 174.819 89.2548 174.816 89.2814 174.812L89.5536 174.753L91.6274 174.302L91.6215 176.586ZM110.975 165.572C110.638 165.572 110.252 165.452 109.855 165.223C108.357 164.357 107.141 162.254 107.147 160.532C107.15 159.477 107.613 158.847 108.385 158.847C108.721 158.847 109.105 158.967 109.5 159.193C111 160.06 112.217 162.167 112.213 163.887C112.21 164.943 111.747 165.572 110.975 165.572ZM113.757 158.075C113.865 158.072 113.96 158.022 114.026 157.948C115.031 158.988 115.741 160.525 115.736 161.84C115.735 162.585 115.5 163.133 115.077 163.378L112.883 164.655C112.886 164.638 112.887 164.622 112.89 164.606C112.908 164.519 112.923 164.428 112.933 164.335C112.938 164.304 112.941 164.271 112.944 164.239C112.954 164.125 112.961 164.01 112.961 163.89C112.967 161.896 111.611 159.548 109.874 158.546C109.837 158.525 109.8 158.51 109.763 158.489C109.675 158.442 109.586 158.393 109.497 158.353C109.46 158.337 109.425 158.327 109.388 158.312C109.305 158.279 109.222 158.244 109.139 158.217L109.182 158.194L113.757 158.075ZM113.374 157.336L82.1977 158.146L80.7185 155.882L113.38 155.033L113.374 157.336ZM113.269 153.299L113.35 154.284L80.0278 155.151C79.8931 155.154 79.7704 155.231 79.7068 155.351C79.6432 155.472 79.6506 155.617 79.7245 155.731L91.3937 173.586L89.3731 174.025L77.5501 155.929C77.4791 155.82 77.3593 155.759 77.2366 155.759C77.1833 155.759 77.1301 155.771 77.0798 155.794L50.9488 167.898L49.7684 167.043L75.5178 155.121C75.6553 155.058 75.7396 154.919 75.7352 154.768C75.7293 154.618 75.6346 154.485 75.4941 154.432L47.8322 143.875L48.838 142.989L74.9764 152.959C75.114 154.244 76.2869 155.252 77.7084 155.252C78.6492 155.252 79.4805 154.811 79.976 154.139C80.0189 154.154 80.0633 154.161 80.1076 154.161L113.269 153.299ZM81.1001 153.386L80.4922 153.403L81.9388 150.33C82.1504 150.305 82.3634 150.276 82.5793 150.245L81.1001 153.386Z" fill="#090001"/>
</g>
</svg>
