<svg width="75" height="102" viewBox="0 0 75 102" fill="none" xmlns="http://www.w3.org/2000/svg">
<g filter="url(#filter0_d_4405_575)">
<circle cx="37" cy="32" r="32" fill="#00CED1"/>
</g>
<mask id="mask0_4405_575" style="mask-type:luminance" maskUnits="userSpaceOnUse" x="17" y="17" width="38" height="30">
<path d="M17.8008 17.9199H54.4941V46.2097H17.8008V17.9199Z" fill="white"/>
</mask>
<g mask="url(#mask0_4405_575)">
<path fill-rule="evenodd" clip-rule="evenodd" d="M48.8697 20.2914C52.9922 26.4678 55.04 33.435 54.2843 41.4707C51.1309 43.8372 48.0698 45.2716 45.0618 46.2117C44.3171 45.1874 43.6575 44.0958 43.0882 42.9501C44.1737 42.5362 45.2162 42.024 46.2015 41.4286C45.9439 41.2352 45.6893 41.0327 45.4407 40.8242C39.5189 43.6377 33.0068 43.6377 27.0118 40.8242C26.7653 41.0327 26.5107 41.2352 26.2511 41.4286C27.2333 42.023 28.2728 42.5322 29.3593 42.9471C28.789 44.0958 28.1264 45.1843 27.3847 46.2087C24.3787 45.2685 21.3226 43.8332 18.1683 41.4707C17.5238 34.5386 18.8138 27.5062 23.5678 20.2954C25.9273 19.1859 28.4502 18.378 31.0893 17.9199C31.4151 18.5073 31.802 19.2971 32.0636 19.9266C34.814 19.5026 37.5904 19.5026 40.3929 19.9266C40.6526 19.2971 41.0314 18.5073 41.3552 17.9199C43.9913 18.378 46.5112 19.1839 48.8697 20.2914ZM30.1752 37.2068C32.0064 37.2068 33.4528 35.5229 33.4498 33.4691C33.4819 31.4143 32.0064 29.7294 30.1752 29.7294C28.3459 29.7294 26.9006 31.4173 26.9006 33.4691C26.9006 35.5229 28.376 37.2068 30.1752 37.2068ZM42.2773 37.2068C44.1076 37.2068 45.5519 35.5229 45.5519 33.4691C45.584 31.4143 44.1076 29.7294 42.2773 29.7294C40.4461 29.7294 39.0027 31.4173 39.0027 33.4691C39.0027 35.5229 40.4781 37.2068 42.2773 37.2068Z" fill="white"/>
</g>
<rect x="0.25" y="84.25" width="74.5" height="17.5" rx="2.75" fill="white" stroke="#00CED1" stroke-width="0.5"/>
<path d="M16.5862 97V88.6H19.1422C19.9342 88.6 20.6302 88.78 21.2302 89.14C21.8382 89.492 22.3142 89.984 22.6582 90.616C23.0022 91.248 23.1742 91.976 23.1742 92.8C23.1742 93.616 23.0022 94.34 22.6582 94.972C22.3142 95.604 21.8382 96.1 21.2302 96.46C20.6302 96.82 19.9342 97 19.1422 97H16.5862ZM17.6062 96.064H19.1422C19.5662 96.064 19.9582 95.984 20.3182 95.824C20.6782 95.656 20.9942 95.42 21.2662 95.116C21.5462 94.812 21.7622 94.464 21.9142 94.072C22.0742 93.672 22.1542 93.248 22.1542 92.8C22.1542 92.352 22.0742 91.932 21.9142 91.54C21.7622 91.14 21.5462 90.788 21.2662 90.484C20.9942 90.18 20.6782 89.948 20.3182 89.788C19.9582 89.62 19.5662 89.536 19.1422 89.536H17.6062V96.064ZM25.1119 97V91H26.0719V97H25.1119ZM25.6039 89.608C25.4439 89.608 25.3039 89.548 25.1839 89.428C25.0639 89.308 25.0039 89.168 25.0039 89.008C25.0039 88.84 25.0639 88.7 25.1839 88.588C25.3039 88.468 25.4439 88.408 25.6039 88.408C25.7719 88.408 25.9119 88.468 26.0239 88.588C26.1439 88.7 26.2039 88.84 26.2039 89.008C26.2039 89.168 26.1439 89.308 26.0239 89.428C25.9119 89.548 25.7719 89.608 25.6039 89.608ZM30.4209 97.144C29.9809 97.144 29.5969 97.08 29.2689 96.952C28.9409 96.816 28.6649 96.64 28.4409 96.424C28.2249 96.208 28.0689 95.972 27.9729 95.716L28.8129 95.368C28.9489 95.64 29.1529 95.86 29.4249 96.028C29.6969 96.196 29.9969 96.28 30.3249 96.28C30.7009 96.28 31.0169 96.208 31.2729 96.064C31.5289 95.912 31.6569 95.7 31.6569 95.428C31.6569 95.18 31.5609 94.98 31.3689 94.828C31.1849 94.676 30.9089 94.552 30.5409 94.456L29.9649 94.3C29.4209 94.156 28.9969 93.94 28.6929 93.652C28.3889 93.356 28.2369 93.024 28.2369 92.656C28.2369 92.088 28.4209 91.648 28.7889 91.336C29.1649 91.016 29.7209 90.856 30.4569 90.856C30.8089 90.856 31.1289 90.908 31.4169 91.012C31.7049 91.116 31.9529 91.264 32.1609 91.456C32.3689 91.64 32.5209 91.86 32.6169 92.116L31.7769 92.488C31.6729 92.216 31.5009 92.02 31.2609 91.9C31.0209 91.78 30.7289 91.72 30.3849 91.72C30.0169 91.72 29.7289 91.8 29.5209 91.96C29.3129 92.112 29.2089 92.328 29.2089 92.608C29.2089 92.768 29.2929 92.92 29.4609 93.064C29.6369 93.2 29.8929 93.312 30.2289 93.4L30.8289 93.556C31.2209 93.652 31.5489 93.796 31.8129 93.988C32.0769 94.172 32.2769 94.384 32.4129 94.624C32.5489 94.864 32.6169 95.12 32.6169 95.392C32.6169 95.752 32.5209 96.064 32.3289 96.328C32.1369 96.592 31.8769 96.796 31.5489 96.94C31.2209 97.076 30.8449 97.144 30.4209 97.144ZM37.0668 97.144C36.4748 97.144 35.9508 97.012 35.4948 96.748C35.0388 96.476 34.6828 96.104 34.4268 95.632C34.1708 95.16 34.0428 94.616 34.0428 94C34.0428 93.384 34.1668 92.84 34.4148 92.368C34.6708 91.896 35.0268 91.528 35.4828 91.264C35.9388 90.992 36.4588 90.856 37.0428 90.856C37.6188 90.856 38.1348 90.988 38.5908 91.252C39.0468 91.516 39.3948 91.888 39.6348 92.368L38.7588 92.764C38.5988 92.444 38.3668 92.196 38.0628 92.02C37.7588 91.836 37.4108 91.744 37.0188 91.744C36.6268 91.744 36.2788 91.84 35.9748 92.032C35.6788 92.224 35.4428 92.492 35.2668 92.836C35.0988 93.172 35.0148 93.56 35.0148 94C35.0148 94.44 35.0988 94.832 35.2668 95.176C35.4428 95.512 35.6828 95.776 35.9868 95.968C36.2988 96.16 36.6508 96.256 37.0428 96.256C37.4348 96.256 37.7828 96.156 38.0868 95.956C38.3988 95.756 38.6348 95.476 38.7948 95.116L39.6708 95.512C39.4308 96.024 39.0828 96.424 38.6268 96.712C38.1708 97 37.6508 97.144 37.0668 97.144ZM44.015 97.144C43.431 97.144 42.911 97.012 42.455 96.748C42.007 96.476 41.655 96.104 41.399 95.632C41.143 95.16 41.015 94.616 41.015 94C41.015 93.384 41.139 92.84 41.387 92.368C41.643 91.896 41.995 91.528 42.443 91.264C42.899 90.992 43.415 90.856 43.991 90.856C44.583 90.856 45.103 90.992 45.551 91.264C46.007 91.528 46.359 91.896 46.607 92.368C46.863 92.84 46.991 93.384 46.991 94C46.991 94.616 46.863 95.16 46.607 95.632C46.359 96.104 46.011 96.476 45.563 96.748C45.115 97.012 44.599 97.144 44.015 97.144ZM44.015 96.256C44.415 96.256 44.763 96.16 45.059 95.968C45.355 95.776 45.587 95.512 45.755 95.176C45.931 94.84 46.019 94.448 46.019 94C46.019 93.552 45.931 93.16 45.755 92.824C45.587 92.488 45.351 92.224 45.047 92.032C44.743 91.84 44.391 91.744 43.991 91.744C43.599 91.744 43.251 91.84 42.947 92.032C42.651 92.224 42.415 92.488 42.239 92.824C42.071 93.16 41.987 93.552 41.987 94C41.987 94.44 42.071 94.832 42.239 95.176C42.415 95.512 42.655 95.776 42.959 95.968C43.271 96.16 43.623 96.256 44.015 96.256ZM49.3319 93.748C49.3319 93.1 49.4559 92.576 49.7039 92.176C49.9519 91.768 50.2679 91.468 50.6519 91.276C51.0439 91.076 51.4559 90.976 51.8879 90.976V91.876C51.5359 91.876 51.1959 91.936 50.8679 92.056C50.5479 92.168 50.2839 92.356 50.0759 92.62C49.8679 92.884 49.7639 93.244 49.7639 93.7L49.3319 93.748ZM48.8039 97V91H49.7639V97H48.8039ZM57.7786 97L57.7306 95.884V88.6H58.6906V97H57.7786ZM55.7026 97.144C55.1666 97.144 54.6946 97.012 54.2866 96.748C53.8786 96.484 53.5586 96.116 53.3266 95.644C53.1026 95.164 52.9906 94.616 52.9906 94C52.9906 93.376 53.1026 92.828 53.3266 92.356C53.5586 91.884 53.8786 91.516 54.2866 91.252C54.6946 90.988 55.1666 90.856 55.7026 90.856C56.2066 90.856 56.6466 90.988 57.0226 91.252C57.4066 91.516 57.7026 91.884 57.9106 92.356C58.1186 92.828 58.2226 93.376 58.2226 94C58.2226 94.616 58.1186 95.164 57.9106 95.644C57.7026 96.116 57.4066 96.484 57.0226 96.748C56.6466 97.012 56.2066 97.144 55.7026 97.144ZM55.9186 96.268C56.2706 96.268 56.5826 96.172 56.8546 95.98C57.1266 95.788 57.3386 95.52 57.4906 95.176C57.6506 94.832 57.7306 94.44 57.7306 94C57.7306 93.56 57.6506 93.168 57.4906 92.824C57.3386 92.48 57.1266 92.212 56.8546 92.02C56.5826 91.828 56.2666 91.732 55.9066 91.732C55.5306 91.732 55.1946 91.828 54.8986 92.02C54.6106 92.212 54.3826 92.48 54.2146 92.824C54.0466 93.168 53.9626 93.56 53.9626 94C53.9626 94.44 54.0466 94.832 54.2146 95.176C54.3826 95.52 54.6146 95.788 54.9106 95.98C55.2066 96.172 55.5426 96.268 55.9186 96.268Z" fill="black"/>
<defs>
<filter id="filter0_d_4405_575" x="1" y="0" width="72" height="72" filterUnits="userSpaceOnUse" color-interpolation-filters="sRGB">
<feFlood flood-opacity="0" result="BackgroundImageFix"/>
<feColorMatrix in="SourceAlpha" type="matrix" values="0 0 0 0 0 0 0 0 0 0 0 0 0 0 0 0 0 0 127 0" result="hardAlpha"/>
<feOffset dy="4"/>
<feGaussianBlur stdDeviation="2"/>
<feComposite in2="hardAlpha" operator="out"/>
<feColorMatrix type="matrix" values="0 0 0 0 0 0 0 0 0 0 0 0 0 0 0 0 0 0 0.25 0"/>
<feBlend mode="normal" in2="BackgroundImageFix" result="effect1_dropShadow_4405_575"/>
<feBlend mode="normal" in="SourceGraphic" in2="effect1_dropShadow_4405_575" result="shape"/>
</filter>
</defs>
</svg>
