<svg width="75" height="102" viewBox="0 0 75 102" fill="none" xmlns="http://www.w3.org/2000/svg">
<g filter="url(#filter0_d_4405_579)">
<circle cx="37" cy="32" r="32" fill="#00CED1"/>
</g>
<path d="M19.5087 21.6489C19.8098 21.4499 20.1705 21.3335 20.5578 21.3335H53.7142C54.1489 21.3335 54.5492 21.4794 54.8697 21.7251L37.1468 31.3439L19.5087 21.6489ZM55.3892 42.5206C55.5344 42.2519 55.617 41.9436 55.617 41.6167V23.4698L44.6832 29.2996L55.3892 42.5206ZM18.6543 23.3398V41.6167C18.6543 41.7848 18.6766 41.9479 18.7175 42.1031L29.6097 29.3003L18.6543 23.3398ZM42.9787 30.2553L37.6124 33.2647C37.468 33.3459 37.307 33.3861 37.1468 33.3861C36.9865 33.3861 36.8263 33.3459 36.6819 33.2647L31.3141 30.256L20.0663 43.4555C20.2229 43.4972 20.3875 43.5202 20.5578 43.5202H53.7142C53.7264 43.5202 53.7386 43.5194 53.7509 43.5187L42.9787 30.2553Z" fill="white"/>
<rect x="0.25" y="84.25" width="74.5" height="17.5" rx="2.75" fill="white" stroke="#00CED1" stroke-width="0.5"/>
<path d="M23.7302 97V88.6H28.6982V89.524H24.7502V92.236H28.3502V93.148H24.7502V96.076H28.7222V97H23.7302ZM31.0358 97V91H31.9358L31.9838 91.84C32.1678 91.52 32.4038 91.276 32.6918 91.108C32.9798 90.94 33.3158 90.856 33.6998 90.856C34.1798 90.856 34.5878 90.968 34.9238 91.192C35.2678 91.416 35.5158 91.756 35.6678 92.212C35.8358 91.772 36.0798 91.436 36.3998 91.204C36.7278 90.972 37.1158 90.856 37.5638 90.856C38.2358 90.856 38.7638 91.08 39.1478 91.528C39.5398 91.976 39.7318 92.656 39.7238 93.568V97H38.7638V93.928C38.7638 93.336 38.6998 92.884 38.5718 92.572C38.4518 92.26 38.2878 92.048 38.0798 91.936C37.8718 91.816 37.6318 91.756 37.3598 91.756C36.8878 91.756 36.5198 91.944 36.2558 92.32C35.9918 92.688 35.8598 93.212 35.8598 93.892V97H34.8998V93.928C34.8998 93.336 34.8358 92.884 34.7078 92.572C34.5878 92.26 34.4198 92.048 34.2038 91.936C33.9958 91.816 33.7558 91.756 33.4838 91.756C33.0198 91.756 32.6558 91.944 32.3918 92.32C32.1278 92.688 31.9958 93.212 31.9958 93.892V97H31.0358ZM45.4188 97L45.3708 96.016V93.832C45.3708 93.36 45.3188 92.972 45.2148 92.668C45.1108 92.356 44.9468 92.12 44.7228 91.96C44.4988 91.8 44.2068 91.72 43.8468 91.72C43.5188 91.72 43.2348 91.788 42.9948 91.924C42.7628 92.052 42.5708 92.26 42.4188 92.548L41.5548 92.212C41.7068 91.932 41.8908 91.692 42.1068 91.492C42.3228 91.284 42.5748 91.128 42.8628 91.024C43.1508 90.912 43.4788 90.856 43.8468 90.856C44.4068 90.856 44.8668 90.968 45.2268 91.192C45.5948 91.408 45.8708 91.732 46.0548 92.164C46.2388 92.588 46.3268 93.116 46.3188 93.748L46.3068 97H45.4188ZM43.6188 97.144C42.9148 97.144 42.3628 96.984 41.9628 96.664C41.5708 96.336 41.3748 95.884 41.3748 95.308C41.3748 94.7 41.5748 94.236 41.9748 93.916C42.3828 93.588 42.9508 93.424 43.6788 93.424H45.3948V94.228H43.8948C43.3348 94.228 42.9348 94.32 42.6948 94.504C42.4628 94.688 42.3468 94.952 42.3468 95.296C42.3468 95.608 42.4628 95.856 42.6948 96.04C42.9268 96.216 43.2508 96.304 43.6668 96.304C44.0108 96.304 44.3108 96.232 44.5668 96.088C44.8228 95.936 45.0188 95.724 45.1548 95.452C45.2988 95.172 45.3708 94.844 45.3708 94.468H45.7788C45.7788 95.284 45.5948 95.936 45.2268 96.424C44.8588 96.904 44.3228 97.144 43.6188 97.144ZM48.38 97V91H49.34V97H48.38ZM48.872 89.608C48.712 89.608 48.572 89.548 48.452 89.428C48.332 89.308 48.272 89.168 48.272 89.008C48.272 88.84 48.332 88.7 48.452 88.588C48.572 88.468 48.712 88.408 48.872 88.408C49.04 88.408 49.18 88.468 49.292 88.588C49.412 88.7 49.472 88.84 49.472 89.008C49.472 89.168 49.412 89.308 49.292 89.428C49.18 89.548 49.04 89.608 48.872 89.608ZM51.5891 97V88.6H52.5491V97H51.5891Z" fill="black"/>
<defs>
<filter id="filter0_d_4405_579" x="1" y="0" width="72" height="72" filterUnits="userSpaceOnUse" color-interpolation-filters="sRGB">
<feFlood flood-opacity="0" result="BackgroundImageFix"/>
<feColorMatrix in="SourceAlpha" type="matrix" values="0 0 0 0 0 0 0 0 0 0 0 0 0 0 0 0 0 0 127 0" result="hardAlpha"/>
<feOffset dy="4"/>
<feGaussianBlur stdDeviation="2"/>
<feComposite in2="hardAlpha" operator="out"/>
<feColorMatrix type="matrix" values="0 0 0 0 0 0 0 0 0 0 0 0 0 0 0 0 0 0 0.25 0"/>
<feBlend mode="normal" in2="BackgroundImageFix" result="effect1_dropShadow_4405_579"/>
<feBlend mode="normal" in="SourceGraphic" in2="effect1_dropShadow_4405_579" result="shape"/>
</filter>
</defs>
</svg>
