<svg width="834" height="150" viewBox="0 0 834 150" fill="none" xmlns="http://www.w3.org/2000/svg">
<path d="M212.098 96.52C207.765 96.52 204.363 95.805 201.893 94.375C199.467 92.945 197.733 90.9733 196.693 88.46C195.697 85.9467 195.198 83.065 195.198 79.815C195.198 73.835 196.52 69.545 199.163 66.945C201.807 64.3017 205.36 62.98 209.823 62.98C212.51 62.98 214.893 63.435 216.973 64.345C219.053 65.255 220.678 66.555 221.848 68.245C223.018 69.8917 223.603 71.9067 223.603 74.29C223.603 81.2233 218.663 84.69 208.783 84.69H205.013C205.36 86.0333 205.923 87.095 206.703 87.875C207.527 88.6117 208.957 88.98 210.993 88.98C212.12 88.98 213.03 88.915 213.723 88.785C214.417 88.655 215.067 88.525 215.673 88.395C216.323 88.265 217.06 88.2 217.883 88.2C219.053 88.2 219.985 88.4167 220.678 88.85C221.372 89.24 221.718 90.0633 221.718 91.32C221.718 93.0967 220.938 94.4183 219.378 95.285C217.862 96.1083 215.435 96.52 212.098 96.52ZM204.558 79.88C204.905 79.4033 205.295 79.1 205.728 78.97C206.162 78.7967 206.833 78.71 207.743 78.71C210.3 78.71 212.055 78.4717 213.008 77.995C214.005 77.475 214.503 76.565 214.503 75.265C214.503 73.6183 214.048 72.3617 213.138 71.495C212.228 70.585 211.08 70.13 209.693 70.13C208.09 70.13 206.833 70.8017 205.923 72.145C205.013 73.4883 204.558 76.0667 204.558 79.88ZM235.823 96.52C235.13 96.52 234.372 96.3683 233.548 96.065C232.768 95.805 232.075 95.35 231.468 94.7C230.905 94.05 230.623 93.2267 230.623 92.23C230.623 90.67 231.36 88.785 232.833 86.575C234.35 84.3217 236.408 81.96 239.008 79.49L232.118 70.65C231.815 70.2167 231.512 69.74 231.208 69.22C230.948 68.6567 230.818 68.0933 230.818 67.53C230.818 66.9233 230.948 66.3167 231.208 65.71C231.512 65.06 232.01 64.4317 232.703 63.825C233.18 63.435 233.657 63.175 234.133 63.045C234.61 62.8717 235.065 62.785 235.498 62.785C236.322 62.785 237.058 62.98 237.708 63.37C238.402 63.7167 238.922 64.1283 239.268 64.605L246.093 73.315C247.09 72.145 247.957 70.91 248.693 69.61C249.473 68.31 250.102 67.1183 250.578 66.035C251.012 65.0383 251.575 64.2583 252.268 63.695C252.962 63.0883 253.785 62.785 254.738 62.785C256.038 62.785 257.208 63.175 258.248 63.955C259.288 64.6917 259.808 65.8183 259.808 67.335C259.808 68.9383 259.137 70.78 257.793 72.86C256.493 74.94 254.478 77.3017 251.748 79.945L258.898 88.72C259.245 89.11 259.527 89.5867 259.743 90.15C260.003 90.67 260.133 91.2333 260.133 91.84C260.133 92.4033 259.982 93.01 259.678 93.66C259.418 94.2667 258.963 94.8733 258.313 95.48C257.88 95.87 257.425 96.13 256.948 96.26C256.472 96.4333 255.995 96.52 255.518 96.52C254.695 96.52 253.958 96.325 253.308 95.935C252.658 95.545 252.138 95.1333 251.748 94.7L244.533 85.86C243.623 86.9433 242.713 88.2217 241.803 89.695C240.937 91.1683 240.2 92.555 239.593 93.855C239.203 94.7217 238.705 95.3933 238.098 95.87C237.535 96.3033 236.777 96.52 235.823 96.52ZM280.945 96.52C276.612 96.52 273.232 95.5233 270.805 93.53C268.378 91.4933 267.165 88.8717 267.165 85.665C267.165 81.895 268.747 79.165 271.91 77.475C275.117 75.785 279.797 75.2 285.95 75.72C285.647 73.7267 285.018 72.3833 284.065 71.69C283.112 70.9533 281.963 70.585 280.62 70.585C279.537 70.585 278.627 70.65 277.89 70.78C277.197 70.8667 276.547 70.975 275.94 71.105C275.333 71.235 274.597 71.3 273.73 71.3C272.56 71.3 271.628 71.105 270.935 70.715C270.242 70.2817 269.895 69.4367 269.895 68.18C269.895 66.4033 270.653 65.1033 272.17 64.28C273.73 63.4133 276.178 62.98 279.515 62.98C284.802 62.98 288.723 64.4967 291.28 67.53C293.837 70.52 295.115 74.5283 295.115 79.555C295.115 85.3617 294.053 89.6517 291.93 92.425C289.85 95.155 286.188 96.52 280.945 96.52ZM276.525 85.665C276.525 88.135 278.193 89.37 281.53 89.37C282.613 89.37 283.458 89.175 284.065 88.785C284.672 88.395 285.105 87.615 285.365 86.445C285.668 85.275 285.885 83.52 286.015 81.18C285.798 81.3967 285.517 81.5483 285.17 81.635C284.823 81.7217 284.477 81.765 284.13 81.765C281.27 81.765 279.277 82.0467 278.15 82.61C277.067 83.13 276.525 84.1483 276.525 85.665ZM308.646 96.52C305.526 96.52 303.966 95.0467 303.966 92.1V76.5C303.966 72.08 305.006 68.7217 307.086 66.425C309.209 64.1283 312.242 62.98 316.186 62.98C321.559 62.98 325.199 64.9083 327.106 68.765C329.012 64.9083 332.652 62.98 338.026 62.98C341.969 62.98 344.981 64.1283 347.061 66.425C349.184 68.7217 350.246 72.08 350.246 76.5V92.1C350.246 95.0467 348.686 96.52 345.566 96.52C342.446 96.52 340.886 95.0467 340.886 92.1V77.02C340.886 74.81 340.517 73.2283 339.781 72.275C339.044 71.2783 337.896 70.78 336.336 70.78C333.216 70.78 331.656 72.86 331.656 77.02V91.84C331.656 94.7867 330.139 96.26 327.106 96.26C324.072 96.26 322.556 94.7867 322.556 91.84V77.02C322.556 72.86 320.996 70.78 317.876 70.78C314.842 70.78 313.326 72.86 313.326 77.02V92.1C313.326 95.0467 311.766 96.52 308.646 96.52ZM364.502 96.52C361.382 96.52 359.822 95.0467 359.822 92.1V67.465C359.822 64.475 361.382 62.98 364.502 62.98C366.062 62.98 367.189 63.3267 367.882 64.02C368.576 64.67 368.922 65.7533 368.922 67.27C369.702 65.84 370.807 64.7783 372.237 64.085C373.711 63.3483 375.422 62.98 377.372 62.98C381.099 62.98 382.962 64.605 382.962 67.855C382.962 69.0683 382.507 69.9783 381.597 70.585C380.687 71.1917 379.192 71.495 377.112 71.495C375.076 71.495 373.472 71.69 372.302 72.08C371.132 72.4267 370.309 73.0983 369.832 74.095C369.399 75.0483 369.182 76.435 369.182 78.255V92.1C369.182 95.0467 367.622 96.52 364.502 96.52ZM392.306 57.39C390.702 57.39 389.359 56.87 388.276 55.83C387.192 54.79 386.651 53.5117 386.651 51.995C386.651 50.3917 387.192 49.07 388.276 48.03C389.359 46.99 390.702 46.47 392.306 46.47C393.952 46.47 395.296 46.99 396.336 48.03C397.419 49.07 397.961 50.3917 397.961 51.995C397.961 53.5117 397.419 54.79 396.336 55.83C395.296 56.87 393.952 57.39 392.306 57.39ZM396.986 92.165C396.986 95.0683 395.469 96.52 392.436 96.52C390.962 96.52 389.792 96.1733 388.926 95.48C388.059 94.7433 387.626 93.6383 387.626 92.165V67.4C387.626 66.0133 387.972 64.93 388.666 64.15C389.402 63.37 390.616 62.98 392.306 62.98C393.996 62.98 395.187 63.37 395.881 64.15C396.617 64.93 396.986 66.0133 396.986 67.4V92.165ZM410.097 96C409.014 96 408.104 95.5667 407.367 94.7C406.674 93.8333 406.327 92.7717 406.327 91.515C406.327 90.6917 406.522 89.955 406.912 89.305L416.922 73.64C417.399 72.9033 417.789 72.3833 418.092 72.08C418.396 71.7767 418.721 71.56 419.067 71.43H409.967C407.064 71.43 405.612 70.1083 405.612 67.465C405.612 64.8217 407.064 63.5 409.967 63.5H426.022C427.192 63.5 428.167 63.9333 428.947 64.8C429.727 65.6667 430.117 66.7283 430.117 67.985C430.117 68.8083 429.922 69.545 429.532 70.195L418.937 85.99C418.157 87.2033 417.269 87.8967 416.272 88.07H427.322C430.226 88.07 431.677 89.435 431.677 92.165C431.677 94.7217 430.226 96 427.322 96H410.097ZM443.484 96C442.4 96 441.49 95.5667 440.754 94.7C440.06 93.8333 439.714 92.7717 439.714 91.515C439.714 90.6917 439.909 89.955 440.299 89.305L450.309 73.64C450.785 72.9033 451.175 72.3833 451.479 72.08C451.782 71.7767 452.107 71.56 452.454 71.43H443.354C440.45 71.43 438.999 70.1083 438.999 67.465C438.999 64.8217 440.45 63.5 443.354 63.5H459.409C460.579 63.5 461.554 63.9333 462.334 64.8C463.114 65.6667 463.504 66.7283 463.504 67.985C463.504 68.8083 463.309 69.545 462.919 70.195L452.324 85.99C451.544 87.2033 450.655 87.8967 449.659 88.07H460.709C463.612 88.07 465.064 89.435 465.064 92.165C465.064 94.7217 463.612 96 460.709 96H443.484ZM484.478 96.52C476.331 96.52 472.258 94.7217 472.258 91.125C472.258 89.9983 472.561 89.11 473.168 88.46C473.774 87.81 474.576 87.485 475.573 87.485C476.006 87.485 476.418 87.55 476.808 87.68C477.241 87.7667 478.064 88.005 479.278 88.395C479.798 88.5683 480.491 88.7417 481.358 88.915C482.224 89.0883 483.069 89.175 483.893 89.175C485.453 89.175 486.558 88.98 487.208 88.59C487.858 88.2 488.183 87.55 488.183 86.64C488.183 85.9033 488.009 85.34 487.663 84.95C487.316 84.5167 486.579 84.105 485.453 83.715C484.326 83.325 482.571 82.7833 480.188 82.09C478.021 81.4833 476.266 80.4 474.923 78.84C473.623 77.2367 472.973 75.265 472.973 72.925C472.973 69.6317 474.164 67.1183 476.548 65.385C478.931 63.6517 482.203 62.785 486.363 62.785C489.483 62.785 491.931 63.2183 493.708 64.085C495.484 64.9517 496.373 66.2083 496.373 67.855C496.373 68.895 496.069 69.7617 495.463 70.455C494.856 71.1483 494.033 71.495 492.993 71.495C492.559 71.495 492.039 71.43 491.433 71.3C490.869 71.17 490.176 70.9967 489.353 70.78C488.746 70.5633 488.096 70.39 487.403 70.26C486.753 70.13 486.059 70.065 485.323 70.065C483.243 70.065 482.203 70.8017 482.203 72.275C482.203 73.1417 482.614 73.8783 483.438 74.485C484.261 75.0483 485.843 75.6767 488.183 76.37C491.389 77.3233 493.751 78.6017 495.268 80.205C496.784 81.765 497.543 83.845 497.543 86.445C497.543 89.4783 496.373 91.9267 494.033 93.79C491.736 95.61 488.551 96.52 484.478 96.52ZM521.651 96.52C517.317 96.52 513.916 95.805 511.446 94.375C509.019 92.945 507.286 90.9733 506.246 88.46C505.249 85.9467 504.751 83.065 504.751 79.815C504.751 73.835 506.072 69.545 508.716 66.945C511.359 64.3017 514.912 62.98 519.376 62.98C522.062 62.98 524.446 63.435 526.526 64.345C528.606 65.255 530.231 66.555 531.401 68.245C532.571 69.8917 533.156 71.9067 533.156 74.29C533.156 81.2233 528.216 84.69 518.336 84.69H514.566C514.912 86.0333 515.476 87.095 516.256 87.875C517.079 88.6117 518.509 88.98 520.546 88.98C521.672 88.98 522.582 88.915 523.276 88.785C523.969 88.655 524.619 88.525 525.226 88.395C525.876 88.265 526.612 88.2 527.436 88.2C528.606 88.2 529.537 88.4167 530.231 88.85C530.924 89.24 531.271 90.0633 531.271 91.32C531.271 93.0967 530.491 94.4183 528.931 95.285C527.414 96.1083 524.987 96.52 521.651 96.52ZM514.111 79.88C514.457 79.4033 514.847 79.1 515.281 78.97C515.714 78.7967 516.386 78.71 517.296 78.71C519.852 78.71 521.607 78.4717 522.561 77.995C523.557 77.475 524.056 76.565 524.056 75.265C524.056 73.6183 523.601 72.3617 522.691 71.495C521.781 70.585 520.632 70.13 519.246 70.13C517.642 70.13 516.386 70.8017 515.476 72.145C514.566 73.4883 514.111 76.0667 514.111 79.88ZM553.176 96.52C548.842 96.52 545.462 95.5233 543.036 93.53C540.609 91.4933 539.396 88.8717 539.396 85.665C539.396 81.895 540.977 79.165 544.141 77.475C547.347 75.785 552.027 75.2 558.181 75.72C557.877 73.7267 557.249 72.3833 556.296 71.69C555.342 70.9533 554.194 70.585 552.851 70.585C551.767 70.585 550.857 70.65 550.121 70.78C549.427 70.8667 548.777 70.975 548.171 71.105C547.564 71.235 546.827 71.3 545.961 71.3C544.791 71.3 543.859 71.105 543.166 70.715C542.472 70.2817 542.126 69.4367 542.126 68.18C542.126 66.4033 542.884 65.1033 544.401 64.28C545.961 63.4133 548.409 62.98 551.746 62.98C557.032 62.98 560.954 64.4967 563.511 67.53C566.067 70.52 567.346 74.5283 567.346 79.555C567.346 85.3617 566.284 89.6517 564.161 92.425C562.081 95.155 558.419 96.52 553.176 96.52ZM548.756 85.665C548.756 88.135 550.424 89.37 553.761 89.37C554.844 89.37 555.689 89.175 556.296 88.785C556.902 88.395 557.336 87.615 557.596 86.445C557.899 85.275 558.116 83.52 558.246 81.18C558.029 81.3967 557.747 81.5483 557.401 81.635C557.054 81.7217 556.707 81.765 556.361 81.765C553.501 81.765 551.507 82.0467 550.381 82.61C549.297 83.13 548.756 84.1483 548.756 85.665ZM580.876 96.52C577.756 96.52 576.196 95.0467 576.196 92.1V67.465C576.196 64.475 577.756 62.98 580.876 62.98C582.436 62.98 583.563 63.3267 584.256 64.02C584.95 64.67 585.296 65.7533 585.296 67.27C586.076 65.84 587.181 64.7783 588.611 64.085C590.085 63.3483 591.796 62.98 593.746 62.98C597.473 62.98 599.336 64.605 599.336 67.855C599.336 69.0683 598.881 69.9783 597.971 70.585C597.061 71.1917 595.566 71.495 593.486 71.495C591.45 71.495 589.846 71.69 588.676 72.08C587.506 72.4267 586.683 73.0983 586.206 74.095C585.773 75.0483 585.556 76.435 585.556 78.255V92.1C585.556 95.0467 583.996 96.52 580.876 96.52ZM617.65 96.52C612.363 96.52 608.441 95.0033 605.885 91.97C603.328 88.8933 602.05 84.8417 602.05 79.815C602.05 74.7883 603.328 70.7367 605.885 67.66C608.441 64.54 612.363 62.98 617.65 62.98C620.986 62.98 623.413 63.3267 624.93 64.02C626.49 64.7133 627.27 65.9483 627.27 67.725C627.27 68.9817 626.923 69.8917 626.23 70.455C625.536 71.0183 624.605 71.3 623.435 71.3C622.611 71.3 621.961 71.235 621.485 71.105C621.008 70.975 620.488 70.8667 619.925 70.78C619.405 70.65 618.581 70.585 617.455 70.585C615.938 70.585 614.725 71.04 613.815 71.95C612.948 72.86 612.32 74.03 611.93 75.46C611.583 76.8467 611.41 78.2983 611.41 79.815C611.41 81.2883 611.54 82.74 611.8 84.17C612.103 85.5567 612.688 86.705 613.555 87.615C614.421 88.4817 615.743 88.915 617.52 88.915C619.166 88.915 620.38 88.8067 621.16 88.59C621.94 88.33 622.698 88.2 623.435 88.2C624.605 88.2 625.536 88.4167 626.23 88.85C626.923 89.24 627.27 90.0633 627.27 91.32C627.27 93.0967 626.49 94.4183 624.93 95.285C623.413 96.1083 620.986 96.52 617.65 96.52ZM645.662 92.165C645.662 95.0683 644.145 96.52 641.112 96.52C639.639 96.52 638.469 96.1517 637.602 95.415C636.735 94.6783 636.302 93.595 636.302 92.165V51.54C636.302 48.16 637.884 46.47 641.047 46.47C644.167 46.47 645.727 48.16 645.727 51.54V58.495C645.727 59.7083 645.597 60.8783 645.337 62.005C645.077 63.1317 644.644 64.3017 644.037 65.515C644.774 64.605 645.749 63.955 646.962 63.565C648.175 63.175 649.584 62.98 651.187 62.98C654.047 62.98 656.539 63.5433 658.662 64.67C660.785 65.7967 662.432 67.3783 663.602 69.415C664.815 71.4083 665.422 73.7917 665.422 76.565V92.165C665.422 95.0683 663.905 96.52 660.872 96.52C659.399 96.52 658.229 96.1517 657.362 95.415C656.495 94.6783 656.062 93.595 656.062 92.165V76.955C656.062 74.9183 655.585 73.38 654.632 72.34C653.722 71.3 652.444 70.78 650.797 70.78C649.194 70.78 647.937 71.3217 647.027 72.405C646.117 73.445 645.662 74.9617 645.662 76.955V92.165Z" fill="black"/>
<g filter="url(#filter0_d_4405_555)">
<mask id="mask0_4405_555" style="mask-type:luminance" maskUnits="userSpaceOnUse" x="745" y="32" width="85" height="59">
<path d="M745.666 32H829.666V90.542H745.666V32Z" fill="white"/>
</mask>
<g mask="url(#mask0_4405_555)">
<path d="M810.855 85.9264C821.227 85.9264 829.666 77.4888 829.666 67.1175C829.666 62.9825 828.344 59.0573 825.845 55.7645C825.666 55.5288 825.481 55.2987 825.292 55.072C824.474 54.0949 823.558 53.2029 822.564 52.4117L822.417 52.295L819.555 50.0167L819.495 49.9691C818.4 49.0974 817.211 48.3459 815.954 47.7361C814.542 44.3923 812.327 41.4736 809.458 39.1885L809.455 39.1851L806.391 36.7459L806.387 36.7425C806.177 36.5759 805.964 36.4115 805.746 36.2517C801.983 33.4701 797.518 32 792.837 32C787.759 32 782.84 33.7807 778.936 37.0247C776.732 36.0454 774.382 35.5489 771.94 35.5489C767.871 35.5489 763.921 37.0009 760.817 39.6385C760.404 39.9899 760.009 40.3583 759.633 40.7437C757.292 43.1455 755.691 46.1844 755.054 49.4703C753.378 50.3272 751.862 51.4494 750.557 52.7869C749.735 53.6302 748.997 54.5585 748.358 55.5605C746.597 58.3194 745.666 61.5101 745.666 64.7904C745.666 70.2311 748.206 75.0892 752.162 78.2437C752.163 78.2448 752.165 78.246 752.167 78.246L755.225 80.6841L755.228 80.6875L755.231 80.6898C758.171 83.0315 761.891 84.4325 765.933 84.4325C767.738 84.4325 769.52 84.148 771.238 83.5858L773.391 85.3019C777.605 88.6604 782.902 90.542 788.327 90.542C794.092 90.542 799.655 88.4473 804.037 84.6365C806.224 85.4923 808.516 85.9264 810.855 85.9264Z" fill="black"/>
</g>
<path d="M792.837 32.6323C802.213 32.6323 810.184 38.7701 812.939 47.2406C820.461 49.4668 825.967 56.4399 825.967 64.6735C825.967 74.6957 817.811 82.85 807.788 82.85C805.38 82.85 803.023 82.3649 800.844 81.4592C796.632 85.2462 791.093 87.4655 785.26 87.4655C778.8 87.4655 772.804 84.8007 768.51 80.3563C766.724 81.0081 764.818 81.3561 762.867 81.3561C753.731 81.3561 746.299 73.925 746.299 64.7891C746.299 58.2524 750.105 52.5872 755.618 49.8941C756.974 42.1139 763.777 36.1812 771.94 36.1812C774.457 36.1812 776.869 36.7401 779.039 37.7659C782.789 34.5298 787.649 32.6323 792.837 32.6323Z" fill="white"/>
<path d="M792.837 32.6323C802.213 32.6323 810.184 38.7701 812.939 47.2406C820.461 49.4668 825.966 56.44 825.966 64.6736C825.966 74.6958 817.811 82.8501 807.788 82.8501C805.38 82.8501 803.023 82.365 800.844 81.4593C796.632 85.2463 791.093 87.4656 785.26 87.4656C778.8 87.4656 772.804 84.8008 768.51 80.3564C766.724 81.0082 764.818 81.3562 762.867 81.3562C753.731 81.3562 746.299 73.9251 746.299 64.7892C746.299 58.2524 750.105 52.5873 755.618 49.8941C756.974 42.1139 763.777 36.1813 771.94 36.1813C774.457 36.1813 776.869 36.7401 779.039 37.7659C782.789 34.5298 787.649 32.6323 792.837 32.6323Z" stroke="black" stroke-width="4.01061" stroke-miterlimit="10"/>
<path d="M790.166 34V0" stroke="black"/>
</g>
<g filter="url(#filter1_d_4405_555)">
<path d="M90.6092 133.095C104.284 133.095 115.409 121.971 115.409 108.298C115.409 102.847 113.667 97.6716 110.372 93.3305C110.136 93.0197 109.892 92.7164 109.643 92.4175C108.564 91.1294 107.356 89.9533 106.046 88.9103L105.853 88.7563L102.08 85.7527L102.001 85.6899C100.557 84.5408 98.9895 83.55 97.3323 82.7461C95.4703 78.3377 92.5503 74.4898 88.7681 71.4772L88.7636 71.4727L84.7244 68.2568L84.7184 68.2524C84.442 68.0327 84.161 67.816 83.8741 67.6053C78.9129 63.9382 73.0266 62 66.8549 62C60.1603 62 53.6748 64.3476 48.5282 68.6245C45.6232 67.3333 42.5239 66.6788 39.3051 66.6788C33.9404 66.6788 28.7325 68.5931 24.641 72.0704C24.0956 72.5337 23.5755 73.0193 23.0794 73.5274C19.9936 76.6939 17.8821 80.7003 17.0422 85.0324C14.8336 86.1621 12.8341 87.6416 11.1141 89.4049C10.0307 90.5167 9.05791 91.7406 8.2151 93.0616C5.89288 96.6988 4.66602 100.905 4.66602 105.23C4.66602 112.403 8.01486 118.808 13.2301 122.966C13.2316 122.968 13.2346 122.969 13.2361 122.969L17.2679 126.184L17.2724 126.188L17.2768 126.191C21.1517 129.279 26.0562 131.126 31.385 131.126C33.7655 131.126 36.1146 130.751 38.3801 130.009L41.2179 132.272C46.7739 136.7 53.757 139.18 60.9089 139.18C68.5092 139.18 75.8435 136.419 81.6206 131.395C84.5047 132.523 87.5263 133.095 90.6092 133.095Z" fill="black"/>
<path d="M66.855 62.8335C79.2162 62.8335 89.7245 70.9254 93.3572 82.0927C103.274 85.0276 110.532 94.2208 110.532 105.076C110.532 118.289 99.78 129.039 86.5654 129.039C83.3914 129.039 80.2832 128.4 77.411 127.206C71.8581 132.198 64.5552 135.124 56.8652 135.124C48.349 135.124 40.4439 131.611 34.7833 125.752C32.4282 126.611 29.9147 127.07 27.3429 127.07C15.2984 127.07 5.5 117.273 5.5 105.228C5.5 96.6103 10.518 89.1415 17.7865 85.5909C19.5738 75.3337 28.5429 67.5123 39.3052 67.5123C42.6226 67.5123 45.8026 68.249 48.6643 69.6014C53.6076 65.335 60.0153 62.8335 66.855 62.8335Z" fill="white"/>
<path d="M66.855 62.8335C79.2162 62.8335 89.7245 70.9254 93.3572 82.0927C103.274 85.0276 110.532 94.2209 110.532 105.076C110.532 118.289 99.7799 129.039 86.5654 129.039C83.3914 129.039 80.2832 128.4 77.411 127.206C71.858 132.198 64.5552 135.124 56.8652 135.124C48.3489 135.124 40.4438 131.611 34.7833 125.752C32.4282 126.611 29.9147 127.07 27.3429 127.07C15.2984 127.07 5.5 117.273 5.5 105.228C5.5 96.6104 10.518 89.1416 17.7865 85.591C19.5738 75.3338 28.5429 67.5123 39.3052 67.5123C42.6226 67.5123 45.8026 68.249 48.6643 69.6014C53.6076 65.335 60.0153 62.8335 66.855 62.8335Z" stroke="black" stroke-width="3" stroke-miterlimit="10"/>
</g>
<path d="M63.166 63V0" stroke="black"/>
<path d="M355.884 141.396V124.188H359.052V121.128H362.22V118.032H366.828V121.128H369.996V124.188H373.2V141.396H368.592V135.24H360.456V141.396H355.884ZM360.456 130.308H368.592V126.024H365.424V122.964H363.624V126.024H360.456V130.308ZM380.743 141.396V138.336H377.575V121.128H380.743V118.032H391.687V121.128H394.891V129.084H391.687V130.308H394.891V138.336H391.687V141.396H380.743ZM382.147 136.5H390.283V132.144H383.911V127.284H390.283V122.964H382.147V136.5ZM402.434 141.396V138.336H399.266V121.128H402.434V118.032H413.378V121.128H416.582V138.336H413.378V141.396H402.434ZM403.838 136.5H411.974V122.964H403.838V136.5ZM424.126 141.396V138.336H420.958V118.032H425.53V136.5H433.666V118.032H438.274V138.336H435.07V141.396H424.126ZM447.895 141.396V122.964H446.131V126.024H441.559V121.128H444.727V118.032H455.671V121.128H458.875V126.024H454.267V122.964H452.503V141.396H447.895ZM473.626 141.396V138.336H470.458V118.032H475.03V136.5H483.166V118.032H487.774V138.336H484.57V141.396H473.626ZM495.317 141.396V138.336H492.149V133.404H496.721V136.5H504.857V132.144H495.317V129.084H492.149V121.128H495.317V118.032H506.261V121.128H509.465V126.024H504.857V122.964H496.721V127.284H506.261V130.308H509.465V138.336H506.261V141.396H495.317Z" fill="#0AB2B4"/>
<defs>
<filter id="filter0_d_4405_555" x="740.293" y="0" width="93.373" height="98.542" filterUnits="userSpaceOnUse" color-interpolation-filters="sRGB">
<feFlood flood-opacity="0" result="BackgroundImageFix"/>
<feColorMatrix in="SourceAlpha" type="matrix" values="0 0 0 0 0 0 0 0 0 0 0 0 0 0 0 0 0 0 127 0" result="hardAlpha"/>
<feOffset dy="4"/>
<feGaussianBlur stdDeviation="2"/>
<feComposite in2="hardAlpha" operator="out"/>
<feColorMatrix type="matrix" values="0 0 0 0 0 0 0 0 0 0 0 0 0 0 0 0 0 0 0.25 0"/>
<feBlend mode="normal" in2="BackgroundImageFix" result="effect1_dropShadow_4405_555"/>
<feBlend mode="normal" in="SourceGraphic" in2="effect1_dropShadow_4405_555" result="shape"/>
</filter>
<filter id="filter1_d_4405_555" x="0" y="61.3335" width="119.41" height="85.8467" filterUnits="userSpaceOnUse" color-interpolation-filters="sRGB">
<feFlood flood-opacity="0" result="BackgroundImageFix"/>
<feColorMatrix in="SourceAlpha" type="matrix" values="0 0 0 0 0 0 0 0 0 0 0 0 0 0 0 0 0 0 127 0" result="hardAlpha"/>
<feOffset dy="4"/>
<feGaussianBlur stdDeviation="2"/>
<feComposite in2="hardAlpha" operator="out"/>
<feColorMatrix type="matrix" values="0 0 0 0 0 0 0 0 0 0 0 0 0 0 0 0 0 0 0.25 0"/>
<feBlend mode="normal" in2="BackgroundImageFix" result="effect1_dropShadow_4405_555"/>
<feBlend mode="normal" in="SourceGraphic" in2="effect1_dropShadow_4405_555" result="shape"/>
</filter>
</defs>
</svg>
