<svg width="1314" height="89" viewBox="0 0 1314 89" fill="none" xmlns="http://www.w3.org/2000/svg">
<path d="M65 81.055C68.5018 81.055 72.0036 81.055 75.5055 81.055C80.4494 81.055 84.2249 71.8577 86.7292 68.215C88.9705 64.955 90.8596 61.0858 90.8596 67.3171C90.8596 71.5707 92.3988 74.821 94.092 78.6307C98.5152 88.5827 98.5152 71.5914 101.814 77.8226C105.108 84.044 117.066 83.5944 119.952 77.8226" stroke="#1E1D30" stroke-width="3" stroke-linecap="round"/>
<path d="M803.592 65.1306C812.956 65.1306 816.968 53.9829 819.395 46.0951C821.947 37.7994 818.015 50.4308 821.011 54.1762C822.743 56.3405 820.366 59.9916 825.321 58.5759C827.317 58.0058 827.835 52.071 827.835 53.817C827.835 63.0942 834.868 65.1306 842.381 65.1306" stroke="#1E1D30" stroke-width="3" stroke-linecap="round"/>
<path d="M411 78.6431C413.691 78.3067 419.081 68.9246 419.081 65.7133C419.081 56.4768 417.973 62.7493 419.171 68.1377C420.242 72.9596 423.326 76.1655 427.162 71.3701C428.226 70.0405 434.887 74.6345 438.476 77.0269" stroke="#1E1D30" stroke-width="3" stroke-linecap="round"/>
<path d="M1284.64 65.5224C1284.73 66.2733 1286.09 66.4577 1286.66 66.0096C1289.56 63.709 1291.19 58.212 1292.57 55.0134C1293.84 52.0696 1294.75 49.167 1295.6 46.1051C1296.01 44.6375 1295.91 40.0234 1295.91 41.5465C1295.91 42.8558 1295.88 44.1702 1295.91 45.4787C1295.95 46.9163 1298.05 60.2691 1301.41 57.2405C1302.77 56.0227 1303.56 53.6348 1304.02 52.0208C1304.18 51.4518 1304.06 49.6544 1304.06 50.246C1304.06 51.7424 1304.06 53.2387 1304.06 54.735C1304.06 61.1512 1303.71 66.7751 1311.57 66.7751" stroke="#1E1D30" stroke-width="3" stroke-linecap="round"/>
<path d="M1109 23.1154C1112.03 23.1154 1111.85 18.0759 1112.41 15.9122C1113.57 11.4439 1114.01 7.33029 1114.01 2.75849C1114.01 1.54691 1114.18 5.74233 1114.5 6.69068C1115.35 9.24338 1116.57 11.8135 1118.53 13.5807C1123.68 18.2095 1124.59 9.44793 1125.63 6.76027C1126.22 5.25243 1126.53 3.69598 1127.13 2.20172C1127.55 1.157 1127.08 4.45513 1127.16 5.57714C1127.46 9.43033 1128.55 13.347 1129.53 17.0605C1129.83 18.1938 1130.52 23.1799 1132.21 23.7417C1133.35 24.1212 1134.1 24.3681 1135.31 24.3681" stroke="#1E1D30" stroke-width="3" stroke-linecap="round"/>
<path d="M2 22.4638C3.90432 22.2522 6.03528 19.1364 7.28013 17.8633C9.05323 16.0499 10.8457 14.1657 11.7761 11.7467C12.6477 9.48051 13.2922 8.09795 13.2922 5.52557C13.2922 4.6598 13.2922 -0.229274 13.2922 1.29101C13.2922 5.4844 15.4261 9.37052 15.6447 13.5242C15.801 16.4945 19.2082 16.8135 21.2908 15.7722C22.5926 15.1212 23.3674 13.8343 24.5843 13.1582C26.3978 12.1507 25.1102 12.9423 25.0548 14.9357C24.958 18.4218 25.0782 20.6655 28.8189 21.6274C33.0646 22.7191 37.1452 23.4048 41.5226 23.4048" stroke="#1E1D30" stroke-width="3" stroke-linecap="round"/>
<path d="M557.263 29.4698C557.549 26.8924 561.312 24.4205 563.792 25.1289C564.578 25.3535 564.745 27.9016 565.736 28.1849C567.006 28.5477 569.768 28.4222 570.702 27.5598C571.107 27.1865 575.504 23.6512 575.877 23.9829C576.932 24.921 577.26 27.8931 578.516 28.7058C579.755 29.5075 580.187 30.72 581.78 30.72C584.161 30.72 586.295 30.8359 588.518 30.0949" stroke="#1E1D30" stroke-width="3" stroke-linecap="round"/>
<path d="M1067.43 83.8333C1069.16 83.8333 1070.26 82.6965 1071.72 81.883C1073.04 81.1535 1074.94 81.4929 1076.4 81.4929C1078.07 81.4929 1078.93 86.769 1082.26 86.9538C1090.27 87.3988 1096.93 80.4052 1104.88 83.0532" stroke="#1E1D30" stroke-width="3" stroke-linecap="round"/>
</svg>
