<svg width="47" height="47" viewBox="0 0 47 47" fill="none" xmlns="http://www.w3.org/2000/svg">
<path d="M16.4833 14.138H30.2534V9.66594H16.4833V14.138ZM32.2442 16.1294H14.4922V7.67578H32.2442V16.1294Z" fill="#00CED1"/>
<mask id="mask0_4215_3542" style="mask-type:luminance" maskUnits="userSpaceOnUse" x="14" y="7" width="19" height="10">
<path d="M14.1777 7.42578H32.5077V16.4497H14.1777V7.42578Z" fill="white"/>
</mask>
<g mask="url(#mask0_4215_3542)">
<path d="M16.4821 14.1388V14.3915H30.2522C30.3183 14.3915 30.3838 14.3643 30.4309 14.3175C30.4778 14.2707 30.505 14.2055 30.505 14.1388V9.66673C30.505 9.60033 30.4778 9.53516 30.4309 9.48834C30.3838 9.44122 30.3186 9.41429 30.2522 9.41429H16.4821C16.4154 9.41429 16.3502 9.44122 16.3034 9.48834C16.2566 9.53516 16.2294 9.60033 16.2294 9.66673V14.1388C16.2294 14.2055 16.2566 14.2707 16.3034 14.3175C16.3502 14.3643 16.4154 14.3915 16.4821 14.3915V14.1388H16.7349V9.91948H29.9995V13.886H16.4821V14.1388ZM32.243 16.1302V15.8774H14.7438V7.92902H31.9903V16.1302H32.243H32.4958V7.67658C32.4958 7.60987 32.4685 7.54469 32.4217 7.49727C32.3743 7.45045 32.3097 7.42383 32.243 7.42383H14.491C14.4246 7.42383 14.3595 7.45045 14.3123 7.49727C14.2655 7.54469 14.2383 7.60987 14.2383 7.67658V16.1302C14.2383 16.1969 14.2655 16.262 14.3123 16.3088C14.3595 16.3557 14.4246 16.3829 14.491 16.3829H32.243C32.3097 16.3829 32.3743 16.3557 32.4217 16.3088C32.4685 16.262 32.4958 16.1969 32.4958 16.1302H32.243Z" fill="black"/>
</g>
<path d="M42.323 40.3049H4.41211V13.0957H42.323V40.3049Z" fill="#00CED1"/>
<mask id="mask1_4215_3542" style="mask-type:luminance" maskUnits="userSpaceOnUse" x="4" y="12" width="39" height="29">
<path d="M4.15234 12.7676H42.614V40.5603H4.15234V12.7676Z" fill="white"/>
</mask>
<g mask="url(#mask1_4215_3542)">
<path d="M42.3238 40.3034V40.0504H4.66565V13.347H42.0711V40.3034H42.3238H42.5765V13.0942C42.5765 13.0281 42.5493 12.963 42.5019 12.9162C42.4551 12.8687 42.3899 12.8418 42.3238 12.8418H4.4129C4.3462 12.8418 4.28102 12.8687 4.23421 12.9162C4.18739 12.963 4.16016 13.0281 4.16016 13.0942V40.3034C4.16016 40.3695 4.18739 40.4347 4.23421 40.4821C4.28102 40.529 4.3462 40.5562 4.4129 40.5562H42.3238C42.3899 40.5562 42.4551 40.529 42.5019 40.4821C42.5493 40.4347 42.5765 40.3695 42.5765 40.3034H42.3238Z" fill="black"/>
</g>
<path d="M23.3672 27.3643L4.41211 13.0957H42.323L23.3672 27.3643Z" fill="white"/>
<path d="M23.3667 27.3637L23.5567 27.1112L5.35614 13.4112H41.3772L23.1767 27.1112L23.3667 27.3637L23.5567 27.6161L42.5118 13.3478C42.6205 13.2664 42.6648 13.1238 42.6214 12.995C42.5785 12.8668 42.4577 12.7793 42.3224 12.7793H4.41155C4.27569 12.7793 4.15482 12.8668 4.11198 12.995C4.06884 13.1238 4.11351 13.2664 4.22153 13.3478L23.1767 27.6161C23.2896 27.7009 23.4441 27.7009 23.5567 27.6161L23.3667 27.3637Z" fill="black"/>
<path d="M27.1844 28.0286H19.5527V25.1523H27.1844V28.0286Z" fill="white"/>
<path d="M27.1838 28.0283V27.7122H19.8682V25.4678H26.868V28.0283H27.1838H27.4996V25.152C27.4996 25.0691 27.4662 24.9877 27.4075 24.9283C27.3481 24.8696 27.2673 24.8359 27.1838 24.8359H19.5521C19.4689 24.8359 19.3875 24.8696 19.3287 24.9283C19.27 24.9877 19.2363 25.0691 19.2363 25.152V28.0283C19.2363 28.1116 19.27 28.1926 19.3287 28.2514C19.3875 28.3104 19.4689 28.3441 19.5521 28.3441H27.1838C27.2673 28.3441 27.3481 28.3104 27.4075 28.2514C27.4662 28.1926 27.4996 28.1116 27.4996 28.0283H27.1838Z" fill="black"/>
</svg>
