<svg width="1204" height="635" viewBox="0 0 1204 635" fill="none" xmlns="http://www.w3.org/2000/svg">
<g filter="url(#filter0_d_2009_514)">
<path d="M1066.99 491.847L997.807 450.95C995.426 449.543 991.269 449.719 988.521 451.344L920.006 491.847H906V501.844C906 501.908 906 501.97 906 502.031V502.058C906.064 502.543 906.239 502.984 906.521 503.379C906.806 503.773 907.163 504.073 907.596 504.282L989.183 552.518C991.564 553.924 995.723 553.748 998.469 552.123L1078.73 504.672C1080.16 503.828 1080.92 502.76 1080.99 501.732H1081V491.847H1066.99Z" fill="#F8F9FD"/>
<path d="M993.33 450.676C994.927 450.608 996.422 450.905 997.468 451.523L1066.65 492.421L1066.81 492.514H1080.33V501.543L1080.32 501.685C1080.27 502.411 1079.71 503.315 1078.39 504.099L998.129 551.55C996.866 552.297 995.251 552.723 993.661 552.791C992.164 552.855 990.756 552.597 989.724 552.056L989.522 551.943L907.936 503.708L907.912 503.694L907.887 503.682L907.765 503.618C907.488 503.463 907.256 503.256 907.063 502.99C906.852 502.695 906.72 502.368 906.667 502.005V492.514H920.188L920.346 492.421L988.86 451.918C990.124 451.171 991.74 450.743 993.33 450.676Z" stroke="black" stroke-width="1.33333"/>
</g>
<path d="M993.325 442.51C994.843 442.447 996.284 442.701 997.35 443.247L997.558 443.36L1079.14 490.404C1080.21 491.022 1080.58 491.794 1080.49 492.507C1080.39 493.259 1079.78 494.141 1078.48 494.892L998.228 541.167C996.935 541.913 995.29 542.336 993.675 542.403C992.055 542.47 990.523 542.177 989.438 541.552L907.856 494.509H907.855C906.785 493.89 906.425 493.118 906.514 492.405C906.607 491.653 907.221 490.771 908.524 490.02L988.772 443.744C990.065 442.998 991.711 442.576 993.325 442.51Z" fill="#00CED1" stroke="black"/>
<g filter="url(#filter1_d_2009_514)">
<path d="M1185.99 564.847L1116.81 523.95C1114.43 522.543 1110.27 522.719 1107.52 524.344L1039.01 564.847H1025V574.844C1025 574.908 1025 574.97 1025 575.031V575.058C1025.06 575.543 1025.24 575.984 1025.52 576.379C1025.81 576.773 1026.16 577.073 1026.6 577.282L1108.18 625.518C1110.56 626.924 1114.72 626.748 1117.47 625.123L1197.73 577.672C1199.16 576.828 1199.92 575.76 1199.99 574.732H1200V564.847H1185.99Z" fill="#F8F9FD"/>
<path d="M1112.33 523.676C1113.93 523.608 1115.42 523.905 1116.47 524.523L1185.65 565.421L1185.81 565.514H1199.33V574.543L1199.32 574.685C1199.27 575.411 1198.71 576.315 1197.39 577.099L1117.13 624.55C1115.87 625.297 1114.25 625.723 1112.66 625.791C1111.16 625.855 1109.76 625.597 1108.72 625.056L1108.52 624.943L1026.94 576.708L1026.91 576.694L1026.89 576.682L1026.76 576.618C1026.49 576.463 1026.26 576.256 1026.06 575.99C1025.85 575.695 1025.72 575.368 1025.67 575.005V565.514H1039.19L1039.35 565.421L1107.86 524.918C1109.12 524.171 1110.74 523.743 1112.33 523.676Z" stroke="black" stroke-width="1.33333"/>
</g>
<path d="M1112.33 515.51C1113.84 515.447 1115.28 515.701 1116.35 516.247L1116.56 516.36L1198.14 563.404C1199.21 564.022 1199.58 564.794 1199.49 565.507C1199.39 566.259 1198.78 567.141 1197.48 567.892L1117.23 614.167C1115.93 614.913 1114.29 615.336 1112.67 615.403C1111.06 615.47 1109.52 615.177 1108.44 614.552L1026.86 567.509H1026.86C1025.78 566.89 1025.42 566.118 1025.51 565.405C1025.61 564.653 1026.22 563.771 1027.52 563.02L1107.77 516.744C1109.07 515.998 1110.71 515.576 1112.33 515.51Z" fill="#00CED1" stroke="black"/>
<ellipse cx="502.664" cy="198.191" rx="502.664" ry="198.191" transform="matrix(0.993576 -0.113167 0.0965355 0.99533 41.8651 214.449)" fill="#D9D9D9"/>
<path d="M529.524 79.9426C667.345 64.2276 794.211 72.0727 887.9 97.4257C934.747 110.103 973.248 127.144 1000.67 147.763C1028.1 168.381 1044.37 192.512 1046.97 219.381C1049.58 246.251 1038.28 273.525 1015.41 299.878C992.536 326.233 958.142 351.585 914.748 374.552C827.965 420.483 705.375 456.773 567.555 472.488C429.734 488.203 302.868 480.357 209.179 455.004C162.332 442.327 123.831 425.287 96.4051 404.668C68.9809 384.05 52.7083 359.919 50.1051 333.049C47.502 306.179 58.7946 278.906 81.668 252.553C104.543 226.198 138.937 200.845 182.331 177.878C269.114 131.947 391.704 95.6576 529.524 79.9426Z" fill="white" stroke="black" stroke-width="2"/>
<path d="M312.444 452.294L297.746 452.602C297.746 452.602 292.062 446.909 292.642 441.262C293.223 435.615 297.864 435.886 297.864 435.886L302.521 436.698C302.521 436.698 298.112 429.002 300.646 425.442C303.178 421.883 308.499 422.917 308.499 422.917L313.449 425.442C313.449 425.442 308.574 412.098 316.123 408.733C323.671 405.37 331.438 409.894 331.438 409.894L335.965 413.723C335.965 413.723 337.58 404.85 344.318 405.02C351.056 405.191 353.021 410.127 353.021 410.127L353.834 412.737C353.834 412.737 358.94 408.773 364.102 411.13C369.264 413.489 366.656 422.079 366.656 422.079L361.84 441.745L312.444 452.294Z" fill="#1E1E2F"/>
<path d="M313.901 452.593C313.901 452.593 311.16 447.315 313.901 444.364C316.642 441.415 321.863 440.071 321.863 440.071C321.863 440.071 320.353 431.377 327.201 428.177C334.048 424.975 338.686 427.539 338.686 427.539L342.633 433.284C342.633 433.284 345.996 428.061 346.694 427.714C347.392 427.366 351.103 428.125 351.103 428.125L355.578 430.897C355.578 430.897 354.138 424.282 360.393 423.179C366.647 422.077 368.981 424.804 368.981 424.804L370.141 430.549C370.141 430.549 372.384 427.742 376.463 430.199C380.543 432.655 379.481 436.524 379.481 436.524L378.379 438.959C378.379 438.959 384.876 437.799 386.501 442.905C388.126 448.012 386.211 452.593 386.211 452.593H313.901Z" fill="white"/>
<mask id="mask0_2009_514" style="mask-type:luminance" maskUnits="userSpaceOnUse" x="291" y="404" width="99" height="51">
<path d="M291 404H389.136V454.478H291V404Z" fill="white"/>
</mask>
<g mask="url(#mask0_2009_514)">
<path d="M386.67 440.736C385.241 439.091 383.198 438.251 380.576 438.219C381.369 435.511 381.4 431.875 378.05 429.851C375.271 428.17 372.962 428.283 371.388 428.779C371.236 427.053 370.703 424.755 369.077 423.18C368.944 423.051 368.782 422.975 368.637 422.851C369.349 420.162 370.718 412.671 364.822 410.439C360.554 408.82 356.962 410.059 354.889 411.191C353.996 407.986 351.376 404.093 345.447 404.007H345.279C339.57 404.007 336.587 408.236 335.334 411.809C332.523 409.036 326.583 404.726 318.463 407.2C315.527 408.096 313.412 409.832 312.173 412.365C310.457 415.885 310.849 420.196 311.473 423.177C308.857 421.895 305.016 420.932 301.463 423.534C298.284 425.864 297.902 430.244 300.306 435.593C298.651 435.182 296.618 435.001 294.828 435.798C293.326 436.474 292.235 437.715 291.592 439.488C288.992 446.633 296.495 453.76 296.813 454.061C297.078 454.306 297.391 454.427 297.752 454.425H386.742C386.892 454.425 387.036 454.402 387.177 454.353C387.318 454.306 387.447 454.239 387.564 454.149C387.683 454.059 387.785 453.954 387.868 453.83C387.952 453.708 388.014 453.576 388.055 453.434C388.152 453.093 390.392 445.016 386.67 440.736ZM294.155 440.413C294.544 439.345 295.126 438.648 295.942 438.285C297.934 437.385 300.904 438.576 302.023 439.022C302.628 439.266 303.452 439.595 304.113 438.845C304.505 438.398 304.498 437.628 304.194 437.12C302.995 435.135 299.372 428.447 303.076 425.73C307.349 422.6 312.641 427.096 312.865 427.286C312.98 427.385 313.108 427.465 313.249 427.523C313.39 427.581 313.536 427.613 313.689 427.622C313.841 427.631 313.99 427.613 314.137 427.572C314.284 427.531 314.419 427.466 314.544 427.378C314.669 427.291 314.776 427.186 314.866 427.062C314.955 426.939 315.023 426.804 315.067 426.658C315.111 426.513 315.13 426.363 315.126 426.21C315.12 426.059 315.089 425.911 315.033 425.77C315.005 425.695 312.259 418.414 314.622 413.56C315.525 411.709 317.039 410.474 319.256 409.807C328.816 406.902 334.666 415.083 334.91 415.431C334.989 415.543 335.082 415.641 335.19 415.725C335.299 415.81 335.416 415.876 335.544 415.925C335.673 415.973 335.806 416.001 335.942 416.01C336.079 416.019 336.214 416.007 336.348 415.975C336.481 415.942 336.606 415.892 336.724 415.822C336.843 415.751 336.947 415.666 337.039 415.565C337.13 415.464 337.205 415.35 337.264 415.226C337.321 415.102 337.36 414.972 337.379 414.836C337.424 414.503 338.518 406.654 345.402 406.733C351.997 406.829 352.495 412.87 352.532 413.55C352.544 413.813 352.624 414.051 352.773 414.267C352.922 414.482 353.118 414.643 353.36 414.745C353.601 414.848 353.851 414.879 354.111 414.838C354.369 414.795 354.598 414.688 354.795 414.515C354.958 414.374 358.809 411.076 363.847 412.989C367.321 414.308 366.658 419.243 366.11 421.629C365.034 421.399 363.951 421.368 362.862 421.537C357.368 422.333 355.067 426.112 354.324 429.295C352.472 427.905 349.684 426.372 347.014 427.146C344.99 427.732 343.768 429.258 343.036 430.766C342.064 429.22 340.589 427.521 338.452 426.487C335.678 425.15 332.458 425.232 328.882 426.733C324.883 428.409 322.249 430.791 321.049 433.811C320.675 434.781 320.451 435.782 320.376 436.818C320.302 437.853 320.379 438.877 320.611 439.889C318.326 440.556 313.951 442.23 312.153 445.77C311.248 447.559 311.125 449.549 311.758 451.696H298.311C296.966 450.289 292.451 445.097 294.155 440.413ZM385.668 451.696H314.645C313.924 449.898 313.91 448.358 314.594 447.005C316.408 443.399 322.528 442.23 322.593 442.218C322.694 442.199 322.791 442.168 322.887 442.127C322.981 442.088 323.069 442.036 323.152 441.975C323.235 441.913 323.31 441.844 323.377 441.766C323.445 441.688 323.502 441.603 323.549 441.512C323.597 441.421 323.634 441.325 323.661 441.225C323.687 441.127 323.703 441.026 323.706 440.923C323.709 440.819 323.702 440.717 323.683 440.616C323.662 440.515 323.633 440.418 323.59 440.324C323.578 440.297 322.475 437.662 323.59 434.823C324.508 432.511 326.645 430.634 329.939 429.252C332.761 428.071 335.227 427.969 337.255 428.942C340.736 430.611 342.01 434.939 342.023 434.985C342.068 435.136 342.139 435.276 342.233 435.403C342.327 435.531 342.439 435.64 342.569 435.729C342.701 435.819 342.842 435.884 342.997 435.925C343.149 435.966 343.305 435.981 343.462 435.967C343.622 435.953 343.774 435.912 343.918 435.844C344.062 435.776 344.191 435.687 344.302 435.574C344.415 435.461 344.507 435.333 344.574 435.187C344.642 435.043 344.683 434.892 344.697 434.734C344.697 434.69 345.151 430.53 347.783 429.769C350.057 429.11 353.42 431.949 354.422 432.996C354.519 433.097 354.628 433.181 354.748 433.249C354.87 433.315 354.998 433.363 355.134 433.391C355.27 433.419 355.408 433.426 355.546 433.412C355.684 433.398 355.816 433.365 355.944 433.31C356.071 433.256 356.188 433.184 356.293 433.094C356.399 433.003 356.489 432.901 356.564 432.783C356.637 432.666 356.691 432.539 356.728 432.406C356.763 432.272 356.778 432.135 356.772 431.997C356.76 431.721 356.555 425.207 363.264 424.241C365.004 423.987 366.285 424.276 367.172 425.129C368.748 426.648 368.792 429.782 368.676 430.863C368.662 431 368.669 431.135 368.695 431.269C368.722 431.404 368.767 431.53 368.833 431.651C368.898 431.771 368.98 431.88 369.077 431.975C369.176 432.071 369.286 432.15 369.406 432.213C369.53 432.276 369.659 432.319 369.794 432.344C369.929 432.369 370.066 432.372 370.202 432.356C370.339 432.34 370.471 432.303 370.597 432.247C370.722 432.191 370.838 432.118 370.941 432.028C371.167 431.823 373.266 430.141 376.633 432.178C379.873 434.139 377.404 438.871 377.299 439.072C377.179 439.298 377.126 439.539 377.141 439.795C377.155 440.05 377.236 440.284 377.383 440.494C377.53 440.704 377.721 440.861 377.954 440.964C378.189 441.067 378.435 441.101 378.687 441.065C381.444 440.678 383.434 441.171 384.605 442.516C386.585 444.784 386.171 449.262 385.668 451.696Z" fill="#231F20"/>
</g>
<mask id="mask1_2009_514" style="mask-type:luminance" maskUnits="userSpaceOnUse" x="50" y="199" width="65" height="124">
<path d="M50.5186 199.606H114.159V322.24H50.5186V199.606Z" fill="white"/>
</mask>
<g mask="url(#mask1_2009_514)">
<path fill-rule="evenodd" clip-rule="evenodd" d="M99.6503 282.548C103.551 286.743 105.935 292.366 105.935 298.546C105.935 311.531 95.4069 322.061 82.4222 322.061C69.4356 322.061 58.9079 311.531 58.9079 298.546C58.9079 292.366 61.2917 286.743 65.1902 282.548C56.3834 276.876 50.5521 266.985 50.5521 255.732C50.5521 243.557 57.3797 232.979 67.416 227.612C65.5101 224.753 64.3982 221.321 64.3982 217.624C64.3982 207.671 72.4669 199.602 82.4222 199.602C92.3756 199.602 100.444 207.671 100.444 217.624C100.444 221.321 99.3324 224.753 97.4265 227.612C107.463 232.979 114.29 243.557 114.29 255.732C114.29 266.985 108.457 276.876 99.6503 282.548Z" fill="#1E1D30"/>
</g>
<mask id="mask2_2009_514" style="mask-type:luminance" maskUnits="userSpaceOnUse" x="64" y="241" width="31" height="124">
<path d="M94.2202 242.327V364.126H64.6333V242.327H94.2202Z" fill="white" stroke="white"/>
</mask>
<g mask="url(#mask2_2009_514)">
<path d="M81.0632 257.073L80.8718 256.923L71.7399 249.771C71.1535 249.312 71.0488 248.46 71.5085 247.872L71.5095 247.871C71.9672 247.284 72.8196 247.18 73.4079 247.64L80.2556 253.002L81.0632 253.636V244.014C81.0634 243.268 81.6716 242.66 82.4216 242.66C83.1685 242.66 83.7749 243.267 83.7751 244.014V264.086L84.5837 263.453L91.989 257.656H91.9899C92.5409 257.224 93.3246 257.288 93.7995 257.783L93.8903 257.889C94.3479 258.474 94.245 259.325 93.6579 259.788L83.9665 267.375L83.7751 267.525V292.649L84.5837 292.017L91.4323 286.655C92.0193 286.195 92.873 286.298 93.3337 286.887C93.7637 287.438 93.6989 288.222 93.2057 288.697L93.1013 288.787L83.9665 295.938L83.7751 296.089V362.917C83.7751 363.665 83.1679 364.272 82.4216 364.272C81.6722 364.272 81.0632 363.664 81.0632 362.917V292.232L80.8718 292.083L71.7399 284.932C71.1533 284.472 71.0479 283.618 71.5065 283.03C71.9665 282.443 72.82 282.339 73.4079 282.799L80.2556 288.162L81.0632 288.795V271.983L80.8718 271.833L65.4225 259.732L65.3181 259.642C64.8237 259.167 64.7589 258.384 65.1901 257.833C65.6213 257.282 66.3983 257.155 66.9782 257.521L67.0915 257.601L80.2556 267.91L81.0632 268.543V257.073Z" fill="white" stroke="black"/>
</g>
<path d="M546.008 4.05957C547.739 1.5082 550.27 -0.0998491 553.541 0.712891C554.363 0.94811 554.919 1.27656 555.316 1.65723C555.715 2.03902 555.981 2.49875 556.185 3.03711C556.391 3.58399 556.526 4.18925 556.679 4.86719C556.829 5.53347 556.994 6.26012 557.261 6.99121L557.264 6.99805L557.266 7.00586C558.033 8.92731 558.724 9.96495 559.812 10.5283C560.342 10.8021 560.933 10.9478 561.604 11.0576C562.266 11.1658 563.072 11.2487 563.999 11.3721L564.011 11.373L564.021 11.374C566.904 11.6242 569.706 12.3097 571.653 13.7773C573.555 15.2112 574.698 17.4327 574.217 20.9385C573.606 24.2124 571.706 25.8925 570.339 27.8936C569.663 28.8819 569.137 29.9451 569.114 31.2725C569.092 32.5881 569.567 34.0884 570.728 35.9629C571.056 36.616 571.445 37.2314 571.836 37.8193C572.237 38.4228 572.629 38.9828 572.988 39.5605C573.702 40.7082 574.212 41.8145 574.212 43.0664V43.0811L574.213 43.0957C574.271 44.1 574.108 44.8213 573.833 45.3916C573.555 45.9679 573.146 46.4252 572.657 46.8838C571.704 47.7774 570.369 48.706 569.683 50.4922L569.682 50.4932C569.1 52.0193 569.482 53.3336 570.293 54.498C571.081 55.6299 572.311 56.6727 573.496 57.7021C574.707 58.7537 575.895 59.8074 576.725 61.0068C577.543 62.1893 577.996 63.4893 577.766 65.0449L577.764 65.0586C577.407 68.0249 575.457 70.004 573.262 72.04C571.116 74.0303 568.705 76.0937 567.896 79.1689C566.946 82.2913 568.322 84.7116 569.146 86.8154C569.567 87.8912 569.855 88.8873 569.766 89.9287C569.678 90.9532 569.218 92.0859 568.013 93.4141C565.122 96.2993 560.003 97.2946 556.087 96.3193L554.591 95.8223L554.312 95.7295L554.095 95.9277C551.288 98.5012 546.422 98.1613 542.347 95.9521C538.28 93.7478 535.343 89.8679 536.167 85.748L536.169 85.7393C536.277 85.1416 536.551 84.6245 536.915 84.1152C537.3 83.5768 537.71 83.1408 538.16 82.5693C538.585 82.0301 538.995 81.4268 539.221 80.7021C539.448 79.9701 539.478 79.1472 539.204 78.1797H539.205C538.787 76.5108 537.485 75.0283 536.193 73.7051C535.526 73.0214 534.876 72.3961 534.271 71.7549C533.672 71.1211 533.162 70.519 532.811 69.9326L532.807 69.9248L532.573 69.5381C532.025 68.5998 531.454 67.4087 531.05 66.1973C530.584 64.7986 530.365 63.4484 530.587 62.4424C530.925 60.9776 531.751 60.2464 532.814 59.5479C533.801 58.8995 535.072 58.2482 536.115 57.0576L536.32 56.8125L536.327 56.8027C537.404 55.3894 537.827 53.9972 537.797 52.6201C537.767 51.2581 537.294 49.9526 536.661 48.7021C536.031 47.4574 535.212 46.215 534.467 45.0098C533.712 43.7885 533.024 42.5919 532.6 41.3799L532.593 41.3594L532.583 41.3389L532.359 40.8281C531.297 38.2905 531.02 35.9018 532.526 33.7373C533.559 32.4843 534.878 32.0126 536.329 31.6729C537.025 31.5099 537.843 31.3592 538.562 31.1748C539.308 30.9831 540.058 30.7309 540.751 30.3154L540.767 30.3057C543.894 28.2664 544.606 25.0698 544.541 21.8291C544.509 20.21 544.282 18.5499 544.053 16.9824C543.821 15.4016 543.589 13.9273 543.527 12.6279C543.406 10.0718 544.264 6.62969 546.008 4.05957Z" fill="#F8F9FD" stroke="black"/>
<path d="M554.657 112.278C554.657 112.278 554.554 110.811 554.377 108.241C554.21 105.673 553.998 102.001 553.774 97.596C553.679 95.3919 553.455 93.0214 553.289 90.5079C553.124 87.9944 552.951 85.3461 552.771 82.6044C552.595 79.8571 552.412 77.0177 552.227 74.1316C552.031 71.2441 551.863 68.3099 551.699 65.3742C551.55 62.4359 551.412 59.4892 551.302 56.5907C551.25 55.1429 551.198 53.7046 551.147 52.2842C551.121 51.5734 551.096 50.8666 551.07 50.1667C551.057 49.8161 551.045 49.4669 551.033 49.119L551.016 48.5979L551.011 48.3394L551.012 48.03C551.038 46.6523 551.061 45.2965 551.085 43.9696C551.154 42.6249 551.235 41.2953 551.327 40.0096C551.419 38.7515 551.507 37.5278 551.594 36.3439C551.636 35.7554 551.677 35.1765 551.719 34.6086C551.739 34.049 551.757 33.5004 551.778 32.9628C551.811 31.8971 551.885 30.8233 551.88 29.8924C551.852 28.8873 551.833 27.9358 551.826 27.0379C551.803 25.238 551.785 23.6678 551.836 22.3588C551.859 21.7056 551.847 21.1323 551.895 20.6166C551.94 20.1038 551.979 19.6665 552.01 19.3118C552.073 18.6078 552.108 18.231 552.108 18.231C552.145 17.8034 552.524 17.4871 552.953 17.5256C553.344 17.56 553.642 17.879 553.663 18.2613L553.666 18.3438C553.666 18.3438 553.685 18.7026 553.721 19.375C553.752 20.046 553.794 21.0195 553.93 22.2969C554.04 23.5591 554.206 25.106 554.396 26.8839C554.491 27.7749 554.591 28.7223 554.696 29.7219C554.785 30.7999 554.786 31.8394 554.837 32.9779C554.855 33.543 554.873 34.1191 554.892 34.7063C554.881 35.2838 554.873 35.8723 554.861 36.4704C554.84 37.6611 554.818 38.8918 554.795 40.1568C554.763 41.3929 554.733 42.6634 554.701 43.9614C554.72 45.2883 554.741 46.6413 554.762 48.0204C554.889 50.7497 555.023 53.5699 555.158 56.4367C555.273 59.3215 555.391 62.2516 555.51 65.1817C555.657 68.116 555.798 71.0516 555.908 73.9419C556.016 76.8362 556.168 79.6674 556.23 82.4394C556.302 85.2045 556.37 87.8775 556.435 90.4116C556.469 92.9444 556.559 95.3424 556.533 97.5465C556.479 101.957 556.409 105.634 556.343 108.207C556.264 110.781 556.219 112.251 556.219 112.251C556.205 112.682 555.845 113.022 555.413 113.008C555.009 112.996 554.686 112.673 554.657 112.278Z" fill="#1E1D30"/>
<path d="M554.789 88.9475C554.69 88.9475 554.59 88.9282 554.491 88.887C550.059 87.0404 545.506 80.3427 542.491 75.9097C541.87 74.9954 541.313 74.1759 540.837 73.5145C540.584 73.1653 540.662 72.6771 541.013 72.4241C541.362 72.1725 541.852 72.2509 542.102 72.6015C542.587 73.2711 543.152 74.103 543.785 75.0311C546.693 79.3115 551.09 85.7781 555.092 87.4446C555.489 87.611 555.679 88.0689 555.512 88.4662C555.387 88.766 555.097 88.9475 554.789 88.9475Z" fill="#1E1D30"/>
<path d="M541.926 85.8316C541.575 85.8316 541.256 85.5937 541.168 85.2389C541.064 84.8196 541.318 84.3961 541.736 84.2916C543.009 83.9739 543.962 83.5408 544.972 83.0829C545.886 82.6691 546.832 82.2387 548.002 81.9197C548.419 81.8069 548.848 82.0531 548.962 82.4683C549.075 82.8849 548.83 83.3139 548.413 83.4281C547.364 83.7127 546.516 84.0991 545.616 84.5061C544.589 84.9736 543.525 85.4548 542.116 85.8068C542.052 85.8233 541.988 85.8316 541.926 85.8316Z" fill="#1E1D30"/>
<path d="M539.831 62.7935C538.615 62.7935 537.448 62.4924 536.529 61.8489C536.176 61.6014 536.089 61.1146 536.337 60.7599C536.584 60.4051 537.072 60.3213 537.424 60.5688C539.155 61.7801 542.857 61.3085 544.548 59.0521C544.808 58.707 545.298 58.6369 545.643 58.8968C545.988 59.1553 546.058 59.6448 545.798 59.9899C544.457 61.7774 542.061 62.7935 539.831 62.7935Z" fill="#1E1D30"/>
<path d="M553.312 70.0631C553.072 70.0631 552.834 69.9504 552.68 69.7414C551.477 68.0859 549.427 65.714 547.444 63.4191C546.678 62.5309 545.934 61.6701 545.274 60.8919C543.786 59.1552 542.642 57.1959 541.536 55.3011C540.708 53.8849 539.851 52.4177 538.861 51.0675C538.607 50.7196 538.681 50.2301 539.03 49.9757C539.377 49.7214 539.866 49.7956 540.122 50.1435C541.16 51.5584 542.037 53.0612 542.884 54.5132C544.006 56.4327 545.064 58.245 546.465 59.8785C547.124 60.6581 547.863 61.5134 548.626 62.3975C550.631 64.7157 552.702 67.1151 553.944 68.8215C554.198 69.1707 554.12 69.6589 553.772 69.9132C553.633 70.0136 553.472 70.0631 553.312 70.0631Z" fill="#1E1D30"/>
<path d="M552.463 34.581C552.397 34.581 552.329 34.5728 552.263 34.5535C547.971 33.426 546.552 31.248 545.651 28.0979C545.533 27.684 545.773 27.2509 546.187 27.1326C546.602 27.0144 547.036 27.255 547.154 27.6689C547.958 30.4849 549.031 32.0882 552.661 33.0424C553.079 33.1524 553.328 33.58 553.219 33.9967C553.127 34.3473 552.809 34.581 552.463 34.581Z" fill="#1E1D30"/>
<path d="M552.461 48.3891C552.327 48.3891 552.19 48.3547 552.065 48.2818C551.125 47.7291 550.206 47.3303 549.317 46.9453C546.802 45.8563 544.429 44.8265 542.207 40.7537C542 40.3742 542.141 39.8998 542.519 39.6936C542.897 39.4873 543.373 39.6262 543.579 40.0057C545.542 43.6055 547.58 44.4882 549.937 45.5112C550.87 45.9155 551.836 46.3335 552.859 46.9357C553.23 47.1543 553.355 47.6328 553.136 48.0055C552.991 48.253 552.729 48.3891 552.461 48.3891Z" fill="#1E1D30"/>
<path d="M553.312 40.7564C553.026 40.7564 552.75 40.5983 552.614 40.3247C552.42 39.9383 552.577 39.4694 552.963 39.2755C559.686 35.915 563.398 28.5945 566.408 21.1833C566.57 20.7832 567.027 20.592 567.427 20.7543C567.826 20.9165 568.018 21.3717 567.856 21.7718C564.73 29.4663 560.847 37.081 553.662 40.6739C553.549 40.7303 553.429 40.7564 553.312 40.7564Z" fill="#1E1D30"/>
<path d="M562.953 31.0131C562.713 31.0131 562.475 30.9017 562.323 30.6927C559.754 27.1919 558.873 20.1863 561.634 16.7364C561.903 16.3996 562.394 16.3459 562.731 16.6154C563.068 16.8849 563.123 17.3758 562.852 17.7127C560.612 20.5122 561.396 26.7863 563.584 29.7687C563.838 30.1166 563.764 30.6061 563.416 30.8605C563.276 30.9622 563.115 31.0131 562.953 31.0131Z" fill="#1E1D30"/>
<path d="M553.949 55.4261C553.593 55.4261 553.272 55.1828 553.189 54.8211C553.092 54.4004 553.354 53.981 553.774 53.8848C555.735 53.4324 557.796 51.6779 559.901 48.6694C560.147 48.316 560.636 48.2308 560.989 48.4783C561.342 48.7244 561.429 49.2125 561.181 49.5659C558.848 52.8989 556.473 54.8651 554.126 55.4069C554.066 55.4206 554.007 55.4261 553.949 55.4261Z" fill="#1E1D30"/>
<path d="M554.163 76.6287C553.893 76.6287 553.63 76.4884 553.486 76.2368C553.27 75.8628 553.399 75.3843 553.772 75.1698C555.002 74.4617 556.178 73.8264 557.315 73.2118C562.695 70.3051 566.944 68.0074 571.076 61.2562C571.301 60.8877 571.783 60.7736 572.15 60.9977C572.518 61.2232 572.634 61.7044 572.41 62.0716C568.056 69.1831 563.424 71.6869 558.057 74.5868C556.93 75.1959 555.764 75.8257 554.553 76.5242C554.43 76.5943 554.295 76.6287 554.163 76.6287Z" fill="#1E1D30"/>
<path d="M566.708 67.9703C566.413 67.9703 566.132 67.804 566 67.5207C564.497 64.3032 564.091 59.4082 566.748 56.2677C567.027 55.9377 567.519 55.8964 567.849 56.1756C568.178 56.4547 568.22 56.9469 567.941 57.2756C565.727 59.8936 566.116 64.0777 567.416 66.8593C567.597 67.2498 567.428 67.7146 567.038 67.8975C566.93 67.9483 566.818 67.9703 566.708 67.9703Z" fill="#1E1D30"/>
<path d="M555.863 92.6351C555.433 92.6351 555.082 92.2845 555.082 91.8541C555.082 91.4224 555.433 91.0717 555.863 91.0717C558.982 91.0717 561.477 88.2502 563.677 85.7601C564.057 85.3311 564.427 84.9117 564.79 84.5199C565.082 84.2036 565.577 84.183 565.892 84.4759C566.21 84.7687 566.229 85.2624 565.938 85.5786C565.583 85.965 565.22 86.3747 564.849 86.7941C562.548 89.3956 559.686 92.6351 555.863 92.6351Z" fill="#1E1D30"/>
<path d="M560.807 114.285L554.084 115.134C554.084 115.134 551.203 112.798 551.197 110.181C551.191 107.564 553.332 107.465 553.332 107.465L555.506 107.613C555.506 107.613 553.114 104.297 554.104 102.543C555.093 100.789 557.583 101.007 557.583 101.007L559.974 101.926C559.974 101.926 557.096 96.0431 560.395 94.1366C563.693 92.2308 567.472 93.9306 567.472 93.9306L569.732 95.4679C569.732 95.4679 570.045 91.3222 573.142 91.0757C576.24 90.8291 577.379 92.9976 577.379 92.9976L577.877 94.1551C577.877 94.1551 580.027 92.0915 582.507 92.9236C584.987 93.7563 584.205 97.8199 584.205 97.8199L582.945 107.068L560.807 114.285Z" fill="#1E1E2F"/>
<path d="M561.42 115.337C561.42 115.337 559.909 113.049 561.024 111.564C562.138 110.08 564.467 109.212 564.467 109.212C564.467 109.212 563.356 105.299 566.341 103.502C569.326 101.704 571.576 102.656 571.576 102.656L573.662 105.099C573.662 105.099 574.953 102.543 575.256 102.35C575.559 102.157 577.297 102.326 577.297 102.326L579.482 103.381C579.482 103.381 578.503 100.418 581.318 99.6107C584.132 98.8043 585.333 99.9423 585.333 99.9423L586.142 102.52C586.142 102.52 587.035 101.125 589.023 102.055C591.012 102.984 590.712 104.809 590.712 104.809L590.324 105.979C590.324 105.979 593.247 105.134 594.238 107.397C595.229 109.66 594.572 111.852 594.572 111.852L561.42 115.337Z" fill="#F8F9FD"/>
<mask id="mask3_2009_514" style="mask-type:luminance" maskUnits="userSpaceOnUse" x="548" y="88" width="48" height="29">
<path d="M548.432 93.3972L593.424 88.6683L595.856 111.811L550.864 116.54L548.432 93.3972Z" fill="white"/>
</mask>
<g mask="url(#mask3_2009_514)">
<path d="M594.063 105.63C593.329 104.944 592.352 104.658 591.148 104.769C591.381 103.489 591.22 101.821 589.587 101.055C588.232 100.418 587.179 100.581 586.481 100.884C586.328 100.1 585.973 99.0721 585.152 98.4285C585.084 98.3757 585.007 98.3485 584.934 98.2989C585.131 97.0317 585.398 93.5315 582.587 92.7921C580.552 92.2557 578.965 92.9964 578.069 93.6155C577.505 92.1892 576.117 90.5304 573.394 90.777L573.317 90.7851C570.7 91.0602 569.536 93.1426 569.134 94.8413C567.711 93.7054 564.78 92.0153 561.177 93.5412C559.874 94.0934 558.988 94.9913 558.542 96.2118C557.925 97.9087 558.312 99.8661 558.742 101.203C557.481 100.741 555.674 100.485 554.17 101.849C552.824 103.07 552.86 105.097 554.221 107.433C553.442 107.324 552.501 107.339 551.719 107.791C551.063 108.173 550.623 108.795 550.413 109.639C549.566 113.04 553.349 115.946 553.509 116.068C553.642 116.168 553.791 116.208 553.957 116.19L594.756 111.902C594.825 111.895 594.89 111.877 594.952 111.848C595.014 111.82 595.07 111.783 595.12 111.736C595.17 111.689 595.211 111.636 595.244 111.575C595.276 111.515 595.298 111.452 595.31 111.384C595.338 111.223 595.976 107.413 594.063 105.63ZM551.633 109.94C551.76 109.431 551.993 109.083 552.35 108.878C553.219 108.369 554.638 108.772 555.173 108.923C555.462 109.005 555.856 109.116 556.123 108.741C556.281 108.517 556.24 108.164 556.077 107.946C555.431 107.093 553.448 104.202 555.015 102.778C556.823 101.137 559.466 102.943 559.578 103.019C559.636 103.06 559.698 103.09 559.765 103.11C559.833 103.129 559.902 103.137 559.972 103.134C560.042 103.131 560.11 103.115 560.175 103.089C560.241 103.063 560.299 103.027 560.352 102.981C560.405 102.935 560.449 102.881 560.485 102.821C560.52 102.76 560.544 102.694 560.557 102.626C560.571 102.557 560.572 102.487 560.563 102.417C560.553 102.348 560.531 102.282 560.499 102.22C560.483 102.187 558.873 98.9814 559.722 96.642C560.047 95.75 560.682 95.1107 561.666 94.6982C565.909 92.9056 568.985 96.3744 569.114 96.5223C569.155 96.5696 569.203 96.6103 569.256 96.6434C569.31 96.6772 569.367 96.7019 569.428 96.7179C569.49 96.7339 569.552 96.7404 569.615 96.7378C569.678 96.7353 569.739 96.7234 569.799 96.7021C569.859 96.6809 569.914 96.6519 569.964 96.614C570.015 96.5759 570.059 96.5318 570.097 96.4809C570.133 96.4301 570.162 96.3746 570.183 96.3145C570.204 96.2552 570.215 96.1934 570.217 96.1306C570.222 95.9755 570.345 92.3243 573.505 92.0289C576.533 91.7549 577.053 94.5005 577.102 94.8105C577.12 94.9305 577.169 95.0357 577.247 95.1275C577.326 95.2193 577.424 95.2833 577.54 95.3187C577.655 95.3542 577.771 95.3564 577.888 95.325C578.005 95.293 578.104 95.2328 578.186 95.1439C578.254 95.0714 579.861 93.3741 582.263 94.008C583.919 94.4453 583.853 96.7398 583.717 97.8604C583.212 97.8066 582.714 97.8446 582.223 97.9746C579.743 98.6042 578.87 100.448 578.682 101.943C577.766 101.395 576.414 100.826 575.227 101.31C574.328 101.676 573.841 102.435 573.578 103.161C573.058 102.499 572.3 101.791 571.271 101.42C569.934 100.941 568.462 101.134 566.895 101.994C565.142 102.955 564.049 104.174 563.645 105.617C563.52 106.079 563.466 106.549 563.481 107.028C563.497 107.506 563.582 107.971 563.737 108.424C562.721 108.84 560.796 109.819 560.142 111.528C559.814 112.392 559.853 113.31 560.247 114.264L554.082 114.912C553.397 114.332 551.077 112.169 551.633 109.94ZM594.132 110.703L561.571 114.125C561.153 113.336 561.072 112.63 561.321 111.977C561.979 110.236 564.728 109.405 564.758 109.397C564.803 109.383 564.846 109.364 564.888 109.341C564.929 109.318 564.967 109.29 565.002 109.258C565.037 109.226 565.068 109.191 565.095 109.152C565.123 109.113 565.145 109.071 565.162 109.027C565.18 108.983 565.192 108.937 565.199 108.89C565.207 108.844 565.209 108.796 565.206 108.749C565.202 108.701 565.194 108.655 565.18 108.61C565.166 108.564 565.148 108.521 565.123 108.48C565.117 108.469 564.484 107.314 564.858 105.958C565.168 104.854 566.057 103.891 567.501 103.098C568.738 102.421 569.863 102.255 570.84 102.604C572.516 103.201 573.309 105.124 573.317 105.144C573.345 105.211 573.384 105.272 573.434 105.326C573.483 105.38 573.539 105.424 573.603 105.459C573.668 105.494 573.736 105.517 573.809 105.528C573.881 105.54 573.953 105.539 574.024 105.525C574.097 105.511 574.164 105.485 574.227 105.447C574.29 105.409 574.345 105.362 574.391 105.304C574.437 105.247 574.473 105.184 574.496 105.114C574.521 105.045 574.532 104.974 574.531 104.9C574.529 104.88 574.537 102.951 575.707 102.475C576.717 102.063 578.396 103.203 578.906 103.635C578.955 103.677 579.009 103.71 579.068 103.735C579.127 103.759 579.188 103.775 579.251 103.782C579.315 103.788 579.378 103.785 579.441 103.771C579.504 103.759 579.563 103.737 579.619 103.706C579.675 103.675 579.724 103.636 579.768 103.59C579.813 103.543 579.849 103.492 579.877 103.434C579.905 103.377 579.924 103.316 579.935 103.253C579.944 103.19 579.944 103.127 579.935 103.064C579.916 102.938 579.508 99.9612 582.538 99.1949C583.323 98.9945 583.925 99.0654 584.372 99.4139C585.168 100.034 585.339 101.469 585.338 101.97C585.338 102.034 585.348 102.095 585.366 102.155C585.385 102.216 585.412 102.272 585.448 102.324C585.484 102.376 585.527 102.422 585.576 102.461C585.625 102.5 585.68 102.531 585.738 102.554C585.798 102.577 585.859 102.59 585.922 102.595C585.985 102.6 586.048 102.595 586.11 102.581C586.172 102.567 586.23 102.544 586.286 102.512C586.34 102.48 586.39 102.441 586.433 102.395C586.526 102.29 587.408 101.418 589.049 102.19C590.629 102.932 589.725 105.221 589.687 105.318C589.643 105.428 589.63 105.541 589.649 105.657C589.668 105.774 589.717 105.877 589.794 105.966C589.871 106.055 589.967 106.118 590.079 106.154C590.191 106.19 590.305 106.193 590.42 106.165C591.665 105.855 592.601 105.985 593.202 106.545C594.219 107.49 594.245 109.563 594.132 110.703Z" fill="#231F20"/>
</g>
<path d="M974.316 289.656L965.651 290.293C965.651 290.293 962.12 287.109 962.287 283.758C962.455 280.407 965.203 280.424 965.203 280.424L967.978 280.759C967.978 280.759 965.137 276.353 966.522 274.173C967.906 271.995 971.078 272.441 971.078 272.441L974.078 273.778C974.078 273.778 970.789 266.052 975.14 263.834C979.491 261.615 984.215 264.045 984.215 264.045L987.005 266.164C987.005 266.164 987.684 260.878 991.666 260.77C995.648 260.663 996.96 263.515 996.96 263.515L997.52 265.03C997.52 265.03 1000.41 262.532 1003.53 263.765C1006.65 264.997 1005.38 270.147 1005.38 270.147L1003.14 281.903L974.316 289.656Z" fill="white"/>
<path d="M975.185 289.789C975.185 289.789 973.405 286.758 974.931 284.931C976.457 283.105 979.497 282.151 979.497 282.151C979.497 282.151 978.337 277.068 982.279 274.966C986.221 272.865 989.038 274.235 989.038 274.235L991.545 277.502C991.545 277.502 993.369 274.317 993.77 274.09C994.171 273.863 996.385 274.197 996.385 274.197L999.112 275.694C999.112 275.694 998.057 271.834 1001.71 270.99C1005.37 270.146 1006.83 271.684 1006.83 271.684L1007.7 275.038C1007.7 275.038 1008.93 273.313 1011.42 274.636C1013.9 275.96 1013.39 278.275 1013.39 278.275L1012.82 279.748C1012.82 279.748 1016.62 278.861 1017.73 281.825C1018.85 284.789 1017.86 287.552 1017.86 287.552L975.185 289.789Z" fill="black"/>
<mask id="mask4_2009_514" style="mask-type:luminance" maskUnits="userSpaceOnUse" x="959" y="258" width="61" height="34">
<path d="M959.896 261.489L1017.84 258.452L1019.4 288.194L961.455 291.231L959.896 261.489Z" fill="white"/>
</mask>
<g mask="url(#mask4_2009_514)">
<path d="M1017.63 280.202C1016.74 279.275 1015.51 278.843 1013.96 278.905C1014.34 277.282 1014.25 275.135 1012.21 274.044C1010.52 273.138 1009.16 273.276 1008.25 273.618C1008.1 272.604 1007.72 271.263 1006.71 270.385C1006.63 270.313 1006.53 270.272 1006.44 270.204C1006.78 268.595 1007.35 264.132 1003.8 262.997C1001.23 262.173 999.152 263.015 997.964 263.747C997.338 261.884 995.671 259.666 992.169 259.8L992.071 259.805C988.701 259.982 987.071 262.569 986.441 264.717C984.698 263.167 981.059 260.807 976.342 262.519C974.637 263.138 973.443 264.229 972.79 265.762C971.885 267.893 972.25 270.424 972.71 272.165C971.127 271.489 968.83 271.039 966.814 272.685C965.01 274.158 964.919 276.755 966.504 279.838C965.514 279.646 964.309 279.602 963.277 280.129C962.412 280.573 961.807 281.339 961.482 282.406C960.168 286.704 964.816 290.678 965.014 290.845C965.178 290.982 965.366 291.043 965.579 291.031L1018.1 288.279C1018.19 288.274 1018.27 288.256 1018.35 288.223C1018.44 288.191 1018.51 288.147 1018.58 288.09C1018.64 288.033 1018.7 287.968 1018.75 287.893C1018.79 287.818 1018.83 287.738 1018.85 287.653C1018.89 287.449 1019.96 282.612 1017.63 280.202ZM963.023 282.873C963.219 282.231 963.542 281.801 964.012 281.561C965.16 280.968 966.949 281.58 967.623 281.809C967.987 281.933 968.485 282.102 968.852 281.639C969.07 281.363 969.041 280.909 968.846 280.619C968.078 279.484 965.732 275.65 967.834 273.931C970.259 271.952 973.521 274.442 973.659 274.546C973.73 274.602 973.808 274.645 973.893 274.675C973.978 274.704 974.066 274.719 974.156 274.72C974.246 274.72 974.334 274.705 974.419 274.676C974.504 274.647 974.582 274.604 974.654 274.549C974.725 274.493 974.784 274.428 974.834 274.352C974.883 274.277 974.918 274.195 974.94 274.108C974.962 274.021 974.968 273.932 974.96 273.842C974.952 273.752 974.93 273.666 974.893 273.584C974.873 273.542 973.027 269.329 974.272 266.391C974.748 265.271 975.603 264.495 976.89 264.033C982.443 262.023 986.149 266.67 986.304 266.867C986.353 266.931 986.411 266.986 986.478 267.033C986.545 267.08 986.616 267.115 986.693 267.139C986.77 267.164 986.85 267.177 986.931 267.178C987.012 267.178 987.091 267.167 987.169 267.145C987.246 267.121 987.319 267.087 987.386 267.043C987.454 266.998 987.513 266.944 987.564 266.881C987.616 266.818 987.656 266.749 987.687 266.674C987.717 266.599 987.735 266.521 987.743 266.44C987.759 266.242 988.162 261.576 992.228 261.41C996.122 261.262 996.603 264.812 996.646 265.213C996.653 265.289 996.671 265.361 996.699 265.432C996.726 265.503 996.764 265.568 996.81 265.629C996.857 265.689 996.911 265.741 996.973 265.786C997.034 265.831 997.1 265.866 997.171 265.893C997.243 265.919 997.316 265.934 997.392 265.939C997.468 265.945 997.543 265.939 997.617 265.923C997.692 265.907 997.762 265.882 997.829 265.846C997.897 265.81 997.957 265.765 998.011 265.713C998.103 265.623 1000.27 263.559 1003.31 264.531C1005.4 265.202 1005.16 268.135 1004.91 269.561C1004.27 269.458 1003.63 269.474 1002.99 269.607C999.772 270.247 998.531 272.549 998.191 274.45C997.055 273.686 995.362 272.868 993.81 273.407C992.633 273.816 991.959 274.755 991.575 275.667C990.953 274.784 990.029 273.827 988.737 273.284C987.057 272.58 985.16 272.728 983.095 273.726C980.787 274.838 979.306 276.325 978.692 278.145C978.501 278.728 978.4 279.326 978.387 279.94C978.375 280.553 978.453 281.155 978.621 281.745C977.292 282.209 974.763 283.333 973.811 285.477C973.332 286.561 973.321 287.74 973.761 288.987L965.825 289.403C964.987 288.615 962.162 285.689 963.023 282.873ZM1017.38 286.701L975.465 288.898C974.984 287.859 974.928 286.95 975.289 286.131C976.249 283.947 979.825 283.068 979.862 283.059C979.922 283.044 979.979 283.023 980.033 282.996C980.087 282.969 980.138 282.936 980.185 282.898C980.232 282.859 980.274 282.816 980.311 282.767C980.349 282.719 980.38 282.668 980.405 282.612C980.431 282.557 980.45 282.499 980.462 282.44C980.475 282.38 980.481 282.32 980.48 282.259C980.479 282.199 980.471 282.139 980.456 282.079C980.441 282.02 980.42 281.963 980.393 281.909C980.385 281.894 979.653 280.373 980.223 278.663C980.693 277.27 981.896 276.097 983.798 275.179C985.426 274.394 986.878 274.258 988.106 274.77C990.212 275.647 991.098 278.161 991.106 278.188C991.138 278.276 991.184 278.356 991.243 278.429C991.303 278.502 991.372 278.562 991.452 278.611C991.532 278.659 991.618 278.694 991.71 278.713C991.801 278.732 991.894 278.736 991.987 278.724C992.08 278.71 992.168 278.681 992.251 278.637C992.335 278.592 992.407 278.535 992.47 278.465C992.533 278.395 992.582 278.316 992.618 278.229C992.654 278.142 992.674 278.051 992.677 277.957C992.676 277.932 992.815 275.463 994.345 274.932C995.667 274.473 997.739 276.044 998.363 276.632C998.423 276.688 998.49 276.734 998.563 276.77C998.637 276.806 998.715 276.83 998.795 276.842C998.876 276.854 998.958 276.854 999.039 276.842C999.12 276.83 999.197 276.806 999.27 276.769C999.344 276.733 999.411 276.687 999.47 276.631C999.53 276.575 999.579 276.51 999.62 276.439C999.66 276.368 999.689 276.292 999.705 276.212C999.722 276.131 999.727 276.05 999.719 275.969C999.703 275.807 999.38 271.968 1003.31 271.19C1004.33 270.987 1005.09 271.117 1005.64 271.594C1006.62 272.441 1006.74 274.291 1006.71 274.932C1006.71 275.012 1006.71 275.092 1006.73 275.17C1006.75 275.249 1006.78 275.323 1006.83 275.391C1006.87 275.461 1006.92 275.522 1006.98 275.576C1007.04 275.629 1007.11 275.672 1007.18 275.706C1007.26 275.739 1007.33 275.761 1007.41 275.771C1007.5 275.781 1007.58 275.779 1007.66 275.765C1007.74 275.751 1007.81 275.726 1007.89 275.689C1007.96 275.652 1008.02 275.605 1008.08 275.548C1008.21 275.42 1009.4 274.363 1011.45 275.461C1013.42 276.519 1012.11 279.388 1012.05 279.51C1011.99 279.647 1011.96 279.791 1011.98 279.941C1012 280.092 1012.05 280.227 1012.15 280.346C1012.24 280.466 1012.36 280.553 1012.5 280.606C1012.64 280.659 1012.78 280.672 1012.93 280.644C1014.55 280.329 1015.74 280.558 1016.47 281.317C1017.71 282.593 1017.6 285.25 1017.38 286.701L1017.38 286.701Z" fill="#231F20"/>
</g>
<defs>
<filter id="filter0_d_2009_514" x="902" y="450" width="183" height="111.467" filterUnits="userSpaceOnUse" color-interpolation-filters="sRGB">
<feFlood flood-opacity="0" result="BackgroundImageFix"/>
<feColorMatrix in="SourceAlpha" type="matrix" values="0 0 0 0 0 0 0 0 0 0 0 0 0 0 0 0 0 0 127 0" result="hardAlpha"/>
<feOffset dy="4"/>
<feGaussianBlur stdDeviation="2"/>
<feComposite in2="hardAlpha" operator="out"/>
<feColorMatrix type="matrix" values="0 0 0 0 0 0 0 0 0 0 0 0 0 0 0 0 0 0 0.25 0"/>
<feBlend mode="normal" in2="BackgroundImageFix" result="effect1_dropShadow_2009_514"/>
<feBlend mode="normal" in="SourceGraphic" in2="effect1_dropShadow_2009_514" result="shape"/>
</filter>
<filter id="filter1_d_2009_514" x="1021" y="523" width="183" height="111.467" filterUnits="userSpaceOnUse" color-interpolation-filters="sRGB">
<feFlood flood-opacity="0" result="BackgroundImageFix"/>
<feColorMatrix in="SourceAlpha" type="matrix" values="0 0 0 0 0 0 0 0 0 0 0 0 0 0 0 0 0 0 127 0" result="hardAlpha"/>
<feOffset dy="4"/>
<feGaussianBlur stdDeviation="2"/>
<feComposite in2="hardAlpha" operator="out"/>
<feColorMatrix type="matrix" values="0 0 0 0 0 0 0 0 0 0 0 0 0 0 0 0 0 0 0.25 0"/>
<feBlend mode="normal" in2="BackgroundImageFix" result="effect1_dropShadow_2009_514"/>
<feBlend mode="normal" in="SourceGraphic" in2="effect1_dropShadow_2009_514" result="shape"/>
</filter>
</defs>
</svg>
