<svg width="187" height="225" viewBox="0 0 187 225" fill="none" xmlns="http://www.w3.org/2000/svg">
<path d="M43.6436 29.352V14.056H46.4596V11.336H49.2756V8.584H53.3716V11.336H56.1876V14.056H59.0356V29.352H54.9396V23.88H47.7076V29.352H43.6436ZM47.7076 19.496H54.9396V15.688H52.1236V12.968H50.5236V15.688H47.7076V19.496ZM65.7408 29.352V26.632H62.9248V22.248H66.9888V25H74.2208V21.128H65.7408V18.408H62.9248V11.336H65.7408V8.584H75.4688V11.336H78.3168V15.688H74.2208V12.968H66.9888V16.808H75.4688V19.496H78.3168V26.632H75.4688V29.352H65.7408ZM82.2061 29.352V11.336H85.0221V8.584H89.0861V12.968H86.2701V16.808H87.8381V14.056H90.6861V11.336H93.5021V8.584H97.5981V12.968H94.7501V15.688H91.9341V18.408H89.0861V19.496H91.9341V22.248H94.7501V25H97.5981V29.352H93.5021V26.632H90.6861V23.88H87.8381V21.128H86.2701V29.352H82.2061ZM110.71 29.352V26.632H107.894V11.336H110.71V8.584H120.438V11.336H123.286V18.408H120.438V19.496H123.286V26.632H120.438V29.352H110.71ZM111.958 25H119.19V21.128H113.526V16.808H119.19V12.968H111.958V25ZM129.991 29.352V26.632H127.175V11.336H129.991V8.584H139.719V11.336H142.567V26.632H139.719V29.352H129.991ZM131.239 25H138.471V12.968H131.239V25Z" fill="#1E1E2F"/>
<g clip-path="url(#clip0_4359_1676)">
<path d="M89.4931 189.299C71.321 189.299 56.5889 192.912 56.5889 197.371V205.642L56.5986 205.636C57.0194 210.003 71.5859 213.513 89.4931 213.513C107.398 213.513 121.963 210.003 122.386 205.636L122.395 205.642V197.371C122.395 192.912 107.663 189.299 89.4931 189.299Z" fill="#00CED1"/>
<mask id="mask0_4359_1676" style="mask-type:luminance" maskUnits="userSpaceOnUse" x="-19" y="19" width="225" height="225">
<path d="M205.7 19.3H-18.7002V243.7H205.7V19.3Z" fill="black" fill-opacity="0.6"/>
</mask>
<g mask="url(#mask0_4359_1676)">
<mask id="mask1_4359_1676" style="mask-type:luminance" maskUnits="userSpaceOnUse" x="60" y="195" width="4" height="3">
<path d="M63.3309 195.579H60.3389V197.573H63.3309V195.579Z" fill="white"/>
</mask>
<g mask="url(#mask1_4359_1676)">
<mask id="mask2_4359_1676" style="mask-type:luminance" maskUnits="userSpaceOnUse" x="60" y="195" width="4" height="3">
<path d="M60.6777 195.738H63.0717V197.534H60.6777V195.738Z" fill="white"/>
</mask>
<g mask="url(#mask2_4359_1676)">
<path d="M63.0077 196.171C62.8772 196.333 62.7311 196.477 62.5674 196.603C62.4155 196.724 62.2558 196.833 62.0882 196.933C61.9246 197.032 61.7532 197.118 61.572 197.186C61.3773 197.262 61.1747 197.305 60.9662 197.316H60.9623C60.9078 197.318 60.8611 197.301 60.8221 197.266C60.7831 197.229 60.7617 197.184 60.7598 197.129C60.7598 197.102 60.7637 197.075 60.7734 197.047C60.8611 196.843 60.9896 196.668 61.1552 196.518C61.3071 196.377 61.4766 196.261 61.6617 196.167C61.8428 196.072 62.0337 195.996 62.2324 195.939C62.4369 195.879 62.6473 195.851 62.8616 195.855C62.9414 195.857 62.9979 195.894 63.031 195.966C63.0642 196.038 63.0564 196.107 63.0077 196.169V196.171Z" fill="#89F3FF"/>
</g>
</g>
</g>
<mask id="mask3_4359_1676" style="mask-type:luminance" maskUnits="userSpaceOnUse" x="-19" y="19" width="225" height="225">
<path d="M205.7 19.3H-18.7002V243.7H205.7V19.3Z" fill="black" fill-opacity="0.6"/>
</mask>
<g mask="url(#mask3_4359_1676)">
<mask id="mask4_4359_1676" style="mask-type:luminance" maskUnits="userSpaceOnUse" x="62" y="192" width="12" height="5">
<path d="M73.8027 192.587H62.832V196.078H73.8027V192.587Z" fill="white"/>
</mask>
<g mask="url(#mask4_4359_1676)">
<mask id="mask5_4359_1676" style="mask-type:luminance" maskUnits="userSpaceOnUse" x="63" y="192" width="11" height="4">
<path d="M63.3311 192.865H73.3044V195.978H63.3311V192.865Z" fill="white"/>
</mask>
<g mask="url(#mask5_4359_1676)">
<path d="M73.0589 193.434C72.2856 193.708 71.5045 193.932 70.7292 194.153C69.952 194.377 69.1728 194.581 68.3976 194.788C67.6204 194.996 66.847 195.199 66.0698 195.391C65.2887 195.578 64.5115 195.771 63.7012 195.921H63.6992C63.5784 195.943 63.4927 195.896 63.446 195.783C63.3992 195.668 63.4265 195.577 63.5278 195.506C64.2251 195.045 64.9615 194.665 65.7426 194.369C66.512 194.069 67.299 193.823 68.1015 193.631C68.8982 193.434 69.7046 193.278 70.5208 193.165C71.335 193.044 72.1532 192.978 72.9771 192.966C73.0356 192.966 73.0882 192.984 73.133 193.023C73.1778 193.06 73.205 193.107 73.2148 193.165C73.2245 193.223 73.2148 193.278 73.1856 193.327C73.1563 193.377 73.1135 193.412 73.0589 193.432V193.434Z" fill="#89F3FF"/>
</g>
</g>
</g>
<mask id="mask6_4359_1676" style="mask-type:luminance" maskUnits="userSpaceOnUse" x="-19" y="19" width="225" height="225">
<path d="M205.7 19.3H-18.7002V243.7H205.7V19.3Z" fill="black" fill-opacity="0.2"/>
</mask>
<g mask="url(#mask6_4359_1676)">
<mask id="mask7_4359_1676" style="mask-type:luminance" maskUnits="userSpaceOnUse" x="56" y="189" width="67" height="26">
<path d="M122.672 189.096H56.3496V214.03H122.672V189.096Z" fill="white"/>
</mask>
<g mask="url(#mask7_4359_1676)">
<mask id="mask8_4359_1676" style="mask-type:luminance" maskUnits="userSpaceOnUse" x="56" y="189" width="67" height="25">
<path d="M56.4902 189.157H122.554V213.531H56.4902V189.157Z" fill="white"/>
</mask>
<g mask="url(#mask8_4359_1676)">
<path d="M122.396 197.371C122.396 192.912 107.664 189.299 89.4941 189.299C88.7305 189.299 87.9766 189.307 87.2286 189.318C104.37 189.61 117.922 193.276 117.922 197.757C117.922 200.521 112.758 202.977 104.772 204.52C99.6992 205.149 94.6054 205.457 89.4941 205.441C71.3219 205.441 56.5898 201.828 56.5898 197.371V205.642L56.5996 205.636C57.0203 210.003 71.5869 213.513 89.4941 213.513C107.399 213.513 121.964 210.003 122.387 205.636L122.396 205.642V197.371Z" fill="#1F1F35"/>
</g>
</g>
</g>
<path d="M72.7687 207.853C71.7324 207.845 70.7039 207.765 69.6793 207.615C68.6547 207.475 67.6418 207.278 66.6386 207.025C65.6276 206.775 64.64 206.46 63.6739 206.076C62.6941 205.702 61.7669 205.223 60.8942 204.64C60.8474 204.607 60.8143 204.562 60.7987 204.508C60.7832 204.451 60.789 204.397 60.8124 204.344C60.8377 204.292 60.8747 204.253 60.9273 204.227C60.9799 204.202 61.0344 204.198 61.0909 204.214H61.0948L64.0264 204.997L66.96 205.725C67.9398 205.965 68.9235 206.199 69.9072 206.448C70.8909 206.694 71.8765 206.943 72.8602 207.255C72.9323 207.278 72.9888 207.321 73.0297 207.385C73.0687 207.449 73.0823 207.519 73.0706 207.593C73.0589 207.667 73.0258 207.73 72.9674 207.779C72.9109 207.827 72.8447 207.853 72.7687 207.853Z" fill="#00CED1"/>
<path d="M77.9749 208.398C77.6457 208.48 77.3087 208.519 76.9698 208.519C76.6386 208.522 76.3094 208.503 75.9802 208.458C75.651 208.415 75.3277 208.349 75.0101 208.258C74.679 208.168 74.3654 208.037 74.0674 207.866C73.9894 207.819 73.9544 207.751 73.9661 207.66C73.9778 207.57 74.0265 207.512 74.1141 207.486L74.1219 207.484C74.453 207.391 74.79 207.338 75.1329 207.33C75.4601 207.317 75.7874 207.33 76.1146 207.367C76.4399 207.402 76.7613 207.463 77.0788 207.545C77.408 207.626 77.7236 207.747 78.0255 207.905L78.0333 207.909C78.1405 207.965 78.1853 208.053 78.1716 208.174C78.156 208.293 78.0918 208.367 77.9749 208.398Z" fill="#00CED1"/>
<mask id="mask9_4359_1676" style="mask-type:luminance" maskUnits="userSpaceOnUse" x="55" y="188" width="69" height="27">
<path d="M55.71 188.099H123.669V214.417H55.71V188.099Z" fill="white"/>
</mask>
<g mask="url(#mask9_4359_1676)">
<path d="M89.4907 214.391C75.1073 214.391 62.3446 212.101 57.7338 208.692C56.5028 207.78 55.8249 206.781 55.7236 205.719L55.7197 205.638L55.71 197.371C55.71 191.556 73.1146 188.42 89.4907 188.42C105.869 188.42 123.273 191.556 123.273 197.371L123.26 205.721C123.166 206.703 122.578 207.634 121.516 208.487C117.12 212.019 104.25 214.391 89.4907 214.391ZM57.4787 205.587C57.5624 206.251 58.2286 206.871 58.7799 207.278C63.0439 210.431 75.6722 212.633 89.4907 212.633C103.656 212.633 116.37 210.365 120.414 207.116C120.872 206.748 121.429 206.187 121.505 205.587L121.514 197.369C121.514 196.087 119.159 194.139 112.548 192.516C106.401 191.009 98.2116 190.179 89.4907 190.179C80.7719 190.179 72.5828 191.009 66.4352 192.516C59.824 194.139 57.4689 196.087 57.4689 197.371L57.4787 205.587Z" fill="#1F1F35"/>
</g>
<path d="M113.792 203.01C112.756 203.618 111.626 203.931 110.486 204.155C109.917 204.278 109.347 204.383 108.776 204.494C108.205 204.591 107.634 204.703 107.06 204.79C104.769 205.16 102.467 205.441 100.158 205.653C97.8501 205.869 95.536 205.996 93.2199 206.072C90.9038 206.146 88.5858 206.154 86.2697 206.107C81.6376 205.99 77.0035 205.669 72.4103 204.969C70.104 204.632 67.821 204.179 65.5614 203.606C64.9985 203.448 64.4316 203.3 63.8706 203.131C63.3135 202.947 62.7486 202.79 62.2013 202.568C61.9247 202.462 61.6558 202.342 61.3831 202.231C61.2448 202.174 61.1124 202.112 60.9819 202.04L60.5864 201.835C60.0566 201.557 59.5579 201.233 59.0865 200.863C59.0203 200.813 58.9775 200.744 58.958 200.663C58.9385 200.581 58.9482 200.503 58.9872 200.427C59.0242 200.351 59.0826 200.296 59.1586 200.263C59.2365 200.228 59.3164 200.224 59.3963 200.248L59.4313 200.257C59.9865 200.419 60.4949 200.641 61.0384 200.801C61.3052 200.892 61.5662 200.99 61.8351 201.076C62.1039 201.163 62.3746 201.241 62.6395 201.337C62.9045 201.432 63.1752 201.512 63.446 201.594L64.2563 201.847C64.7998 202.007 65.351 202.147 65.8965 202.297C68.1132 202.844 70.3533 203.275 72.6148 203.59C73.1797 203.68 73.7466 203.748 74.3154 203.818C74.8822 203.888 75.449 203.964 76.0198 204.019L77.7262 204.198L79.4384 204.344C81.7233 204.514 84.0121 204.648 86.3048 204.691C90.8921 204.821 95.4756 204.714 100.051 204.369C102.336 204.196 104.617 203.955 106.883 203.625C107.449 203.549 108.012 203.448 108.577 203.36C109.14 203.261 109.705 203.168 110.264 203.057C111.386 202.831 112.5 202.614 113.694 202.642H113.698C113.798 202.644 113.86 202.694 113.885 202.79C113.911 202.887 113.879 202.961 113.794 203.012L113.792 203.01Z" fill="#1F1F35"/>
<mask id="mask10_4359_1676" style="mask-type:luminance" maskUnits="userSpaceOnUse" x="-19" y="19" width="225" height="225">
<path d="M205.7 19.3H-18.7002V243.7H205.7V19.3Z" fill="black" fill-opacity="0.6"/>
</mask>
<g mask="url(#mask10_4359_1676)">
<mask id="mask11_4359_1676" style="mask-type:luminance" maskUnits="userSpaceOnUse" x="96" y="200" width="14" height="4">
<path d="M109.208 200.565H96.2422V203.557H109.208V200.565Z" fill="white"/>
</mask>
<g mask="url(#mask11_4359_1676)">
<mask id="mask12_4359_1676" style="mask-type:luminance" maskUnits="userSpaceOnUse" x="96" y="201" width="13" height="3">
<path d="M96.3418 201.064H108.709V203.398H96.3418V201.064Z" fill="white"/>
</mask>
<g mask="url(#mask12_4359_1676)">
<path d="M108.594 201.529C107.641 201.878 106.667 202.149 105.672 202.342C105.177 202.441 104.68 202.531 104.186 202.618C103.687 202.7 103.19 202.782 102.692 202.848C101.692 202.979 100.689 203.064 99.684 203.123C98.6731 203.185 97.664 203.17 96.657 203.076C96.581 203.066 96.5148 203.035 96.4622 202.979C96.4076 202.924 96.3784 202.856 96.3745 202.78C96.3706 202.702 96.3901 202.632 96.4368 202.57C96.4836 202.509 96.544 202.468 96.6199 202.451C97.5978 202.236 98.5873 202.073 99.5827 201.962C100.572 201.847 101.562 201.734 102.551 201.635L105.528 201.364C106.521 201.276 107.515 201.194 108.531 201.192C108.627 201.192 108.685 201.239 108.703 201.335C108.72 201.43 108.683 201.494 108.594 201.529Z" fill="#89F3FF"/>
</g>
</g>
</g>
<path d="M120.15 200.669C119.883 200.969 119.579 201.224 119.238 201.432C118.907 201.641 118.56 201.816 118.196 201.958C117.837 202.102 117.467 202.219 117.091 202.309C116.71 202.401 116.322 202.451 115.93 202.461C115.792 202.463 115.703 202.399 115.658 202.268C115.615 202.136 115.648 202.03 115.759 201.949L115.761 201.947C116.075 201.727 116.4 201.53 116.739 201.356C117.07 201.183 117.405 201.025 117.74 200.875C118.075 200.725 118.41 200.585 118.757 200.46C119.107 200.328 119.466 200.223 119.832 200.141H119.838C119.926 200.121 120.007 200.137 120.081 200.188C120.155 200.236 120.202 200.305 120.22 200.392C120.241 200.495 120.218 200.589 120.15 200.669Z" fill="#1F1F35"/>
<path d="M85.6865 134.712H93.297V184.107H85.6865V134.712Z" fill="#00CED1"/>
<mask id="mask13_4359_1676" style="mask-type:luminance" maskUnits="userSpaceOnUse" x="-19" y="19" width="225" height="225">
<path d="M205.7 19.3H-18.7002V243.7H205.7V19.3Z" fill="black" fill-opacity="0.6"/>
</mask>
<g mask="url(#mask13_4359_1676)">
<mask id="mask14_4359_1676" style="mask-type:luminance" maskUnits="userSpaceOnUse" x="87" y="148" width="3" height="15">
<path d="M89.2613 148.704H87.2666V162.667H89.2613V148.704Z" fill="white"/>
</mask>
<g mask="url(#mask14_4359_1676)">
<mask id="mask15_4359_1676" style="mask-type:luminance" maskUnits="userSpaceOnUse" x="87" y="149" width="3" height="14">
<path d="M87.6055 149.062H89.0411V162.587H87.6055V149.062Z" fill="white"/>
</mask>
<g mask="url(#mask15_4359_1676)">
<path d="M88.102 162.199C87.9637 161.136 87.8877 160.072 87.8254 159.008C87.7981 158.477 87.7709 157.945 87.7553 157.413L87.7299 156.616L87.7202 155.818C87.6949 154.754 87.7105 153.691 87.7533 152.627C87.7942 151.56 87.8936 150.496 88.0514 149.438C88.065 149.364 88.0981 149.304 88.1565 149.255C88.213 149.206 88.2793 149.183 88.3533 149.183C88.4273 149.183 88.4935 149.206 88.55 149.255C88.6065 149.304 88.6416 149.364 88.6533 149.438C88.813 150.496 88.9123 151.56 88.9532 152.627C88.9961 153.691 89.0117 154.754 88.9864 155.818L88.9766 156.616L88.9493 157.413C88.9357 157.945 88.9084 158.477 88.8812 159.008C88.8188 160.072 88.7429 161.136 88.6046 162.199C88.5948 162.261 88.5675 162.314 88.5208 162.357C88.4721 162.398 88.4156 162.419 88.3533 162.419C88.289 162.419 88.2345 162.398 88.1858 162.357C88.139 162.314 88.1098 162.261 88.102 162.199Z" fill="#89F3FF"/>
</g>
</g>
</g>
<mask id="mask16_4359_1676" style="mask-type:luminance" maskUnits="userSpaceOnUse" x="-19" y="19" width="225" height="225">
<path d="M205.7 19.3H-18.7002V243.7H205.7V19.3Z" fill="black" fill-opacity="0.6"/>
</mask>
<g mask="url(#mask16_4359_1676)">
<mask id="mask17_4359_1676" style="mask-type:luminance" maskUnits="userSpaceOnUse" x="87" y="163" width="3" height="6">
<path d="M89.2613 163.166H87.2666V168.152H89.2613V163.166Z" fill="white"/>
</mask>
<g mask="url(#mask17_4359_1676)">
<mask id="mask18_4359_1676" style="mask-type:luminance" maskUnits="userSpaceOnUse" x="87" y="163" width="3" height="5">
<path d="M87.6055 163.306H89.0411V167.852H87.6055V163.306Z" fill="white"/>
</mask>
<g mask="url(#mask18_4359_1676)">
<path d="M88.1024 167.503C87.9738 167.188 87.8823 166.864 87.8258 166.529C87.7673 166.206 87.7303 165.881 87.7167 165.553C87.6972 165.228 87.7109 164.903 87.7537 164.579C87.7985 164.237 87.8979 163.911 88.0537 163.604C88.118 163.483 88.2173 163.422 88.3537 163.422C88.49 163.422 88.5913 163.483 88.6556 163.604C88.8095 163.911 88.9108 164.237 88.9536 164.579C88.9984 164.903 89.0101 165.228 88.9926 165.553C88.977 165.881 88.9419 166.206 88.8835 166.529C88.827 166.864 88.7335 167.188 88.6069 167.503C88.5602 167.614 88.4764 167.671 88.3556 167.671C88.2348 167.671 88.1511 167.614 88.1043 167.503H88.1024Z" fill="#89F3FF"/>
</g>
</g>
</g>
<mask id="mask19_4359_1676" style="mask-type:luminance" maskUnits="userSpaceOnUse" x="-19" y="19" width="225" height="225">
<path d="M205.7 19.3H-18.7002V243.7H205.7V19.3Z" fill="black" fill-opacity="0.2"/>
</mask>
<g mask="url(#mask19_4359_1676)">
<mask id="mask20_4359_1676" style="mask-type:luminance" maskUnits="userSpaceOnUse" x="85" y="134" width="9" height="51">
<path d="M93.7488 134.243H85.2715V184.608H93.7488V134.243Z" fill="white"/>
</mask>
<g mask="url(#mask20_4359_1676)">
<mask id="mask21_4359_1676" style="mask-type:luminance" maskUnits="userSpaceOnUse" x="85" y="134" width="9" height="51">
<path d="M85.5713 134.582H93.3493V184.109H85.5713V134.582Z" fill="white"/>
</mask>
<g mask="url(#mask21_4359_1676)">
<path d="M85.6865 134.712V142.726C86.1501 142.498 86.6391 142.385 87.1553 142.383H87.6929C87.913 142.383 88.1312 142.404 88.3474 142.447C88.5616 142.49 88.772 142.554 88.9746 142.638C89.1772 142.722 89.37 142.825 89.5531 142.948C89.7362 143.07 89.9057 143.209 90.0615 143.365C90.2174 143.518 90.3557 143.688 90.4765 143.871C90.5992 144.054 90.7024 144.247 90.7862 144.45C90.8699 144.654 90.9342 144.863 90.9771 145.079C91.0199 145.293 91.0413 145.511 91.0413 145.731V177.381C91.0413 177.601 91.0199 177.819 90.9771 178.036C90.9342 178.25 90.8699 178.46 90.7862 178.663C90.7024 178.865 90.5992 179.058 90.4765 179.241C90.3557 179.424 90.2174 179.594 90.0615 179.75C89.9057 179.904 89.7362 180.044 89.5531 180.165C89.37 180.287 89.1772 180.391 88.9746 180.474C88.772 180.558 88.5616 180.622 88.3474 180.665C88.1312 180.708 87.913 180.73 87.6929 180.73H87.1553C86.6391 180.73 86.1501 180.615 85.6865 180.387V184.107H93.297V134.712H85.6865Z" fill="#1F1F35"/>
</g>
</g>
</g>
<path d="M94.4949 195.228C91.1601 196.572 87.8233 196.572 84.4885 195.228C84.1807 195.103 83.9333 194.905 83.7483 194.63C83.5613 194.355 83.4697 194.052 83.4678 193.72V186.745C83.4678 186.546 83.4892 186.352 83.5301 186.157C83.571 185.962 83.6314 185.775 83.7132 185.594C83.7931 185.413 83.8924 185.243 84.0093 185.081C84.1262 184.922 84.2586 184.776 84.4067 184.643C84.5528 184.511 84.7144 184.396 84.8859 184.298C85.0573 184.199 85.2384 184.121 85.4274 184.061C85.6163 184 85.8092 183.961 86.0079 183.942C86.2046 183.922 86.4013 183.924 86.5981 183.946C88.5285 184.168 90.4569 184.162 92.3853 183.924C92.5821 183.901 92.7788 183.899 92.9775 183.919C93.1742 183.938 93.3671 183.977 93.556 184.037C93.745 184.098 93.9261 184.178 94.0976 184.275C94.2709 184.374 94.4306 184.489 94.5787 184.622C94.7267 184.754 94.8592 184.9 94.9761 185.06C95.0929 185.22 95.1903 185.391 95.2721 185.572C95.352 185.753 95.4124 185.94 95.4553 186.135C95.4962 186.33 95.5156 186.525 95.5156 186.724V193.722C95.5137 194.054 95.4202 194.355 95.2351 194.63C95.0501 194.905 94.8027 195.103 94.4949 195.228Z" fill="#00CED1"/>
<mask id="mask22_4359_1676" style="mask-type:luminance" maskUnits="userSpaceOnUse" x="-19" y="19" width="225" height="225">
<path d="M205.7 19.3H-18.7002V243.7H205.7V19.3Z" fill="black" fill-opacity="0.6"/>
</mask>
<g mask="url(#mask22_4359_1676)">
<mask id="mask23_4359_1676" style="mask-type:luminance" maskUnits="userSpaceOnUse" x="85" y="186" width="3" height="7">
<path d="M87.2662 186.104H85.2715V192.587H87.2662V186.104Z" fill="white"/>
</mask>
<g mask="url(#mask23_4359_1676)">
<mask id="mask24_4359_1676" style="mask-type:luminance" maskUnits="userSpaceOnUse" x="85" y="186" width="3" height="7">
<path d="M85.332 186.603H87.0072V192.088H85.332V186.603Z" fill="white"/>
</mask>
<g mask="url(#mask24_4359_1676)">
<path d="M85.6635 191.72C85.5915 191.301 85.5428 190.878 85.5135 190.454C85.4863 190.033 85.4668 189.61 85.4648 189.189L85.4629 188.872C85.4629 188.751 85.4707 188.63 85.4863 188.51C85.5194 188.268 85.5837 188.034 85.6791 187.81C85.8661 187.358 86.1641 187 86.5732 186.733C86.6667 186.675 86.7524 186.684 86.8303 186.76C86.9102 186.834 86.9219 186.92 86.8693 187.015L86.8634 187.023C86.6687 187.352 86.5226 187.701 86.4252 188.071C86.3804 188.247 86.3511 188.424 86.3375 188.605C86.3278 188.693 86.3278 188.782 86.3258 188.872L86.3219 189.189C86.3219 189.612 86.3024 190.033 86.2732 190.456C86.246 190.88 86.1953 191.301 86.1252 191.72C86.1135 191.776 86.0882 191.823 86.0434 191.858C86.0005 191.895 85.9499 191.913 85.8934 191.913C85.8369 191.913 85.7882 191.895 85.7434 191.858C85.7005 191.823 85.6733 191.776 85.6635 191.72Z" fill="#89F3FF"/>
</g>
</g>
</g>
<mask id="mask25_4359_1676" style="mask-type:luminance" maskUnits="userSpaceOnUse" x="-19" y="19" width="225" height="225">
<path d="M205.7 19.3H-18.7002V243.7H205.7V19.3Z" fill="black" fill-opacity="0.2"/>
</mask>
<g mask="url(#mask25_4359_1676)">
<mask id="mask26_4359_1676" style="mask-type:luminance" maskUnits="userSpaceOnUse" x="83" y="183" width="13" height="14">
<path d="M95.744 183.611H83.2773V196.576H95.744V183.611Z" fill="white"/>
</mask>
<g mask="url(#mask26_4359_1676)">
<mask id="mask27_4359_1676" style="mask-type:luminance" maskUnits="userSpaceOnUse" x="83" y="183" width="13" height="14">
<path d="M83.418 183.771H95.6256V196.457H83.418V183.771Z" fill="white"/>
</mask>
<g mask="url(#mask27_4359_1676)">
<path d="M92.3922 183.925C92.6785 184.164 92.9025 184.454 93.0603 184.793C93.22 185.132 93.2979 185.489 93.2979 185.865V192.143C93.2979 192.441 93.2142 192.714 93.0467 192.959C92.8811 193.206 92.659 193.386 92.3824 193.497C89.4118 194.695 86.4393 194.702 83.4688 193.522V193.721C83.4688 194.052 83.5623 194.356 83.7493 194.63C83.9343 194.905 84.1817 195.104 84.4895 195.228C87.8243 196.572 91.1591 196.572 94.4959 195.228C94.8037 195.104 95.0491 194.905 95.2361 194.63C95.4212 194.356 95.5147 194.054 95.5166 193.723V186.724C95.5166 186.525 95.4971 186.33 95.4562 186.135C95.4153 185.943 95.353 185.756 95.2731 185.574C95.1933 185.393 95.0939 185.222 94.977 185.062C94.8621 184.902 94.7297 184.756 94.5816 184.624C94.4336 184.491 94.2738 184.376 94.1024 184.277C93.931 184.18 93.7499 184.1 93.5609 184.04C93.3739 183.979 93.1811 183.94 92.9824 183.921C92.7856 183.899 92.5889 183.901 92.3922 183.925Z" fill="#1F1F35"/>
</g>
</g>
</g>
<path d="M94.1781 184.986H84.8066V133.832H94.1781V184.986ZM86.5676 183.227H92.4191V135.591H86.5676V183.227Z" fill="#1F1F35"/>
<path d="M89.4913 197.114C87.6447 197.104 85.8682 196.747 84.1599 196.042C83.9281 195.951 83.7138 195.826 83.519 195.668C83.3262 195.512 83.1586 195.331 83.0184 195.123C82.8781 194.916 82.771 194.694 82.6989 194.455C82.6249 194.215 82.5898 193.972 82.5898 193.72V186.745C82.5898 186.484 82.6152 186.227 82.6697 185.971C82.7242 185.718 82.8041 185.471 82.9112 185.233C83.0164 184.996 83.1469 184.772 83.3008 184.561C83.4528 184.351 83.6281 184.16 83.8209 183.987C84.0157 183.813 84.2261 183.661 84.4521 183.533C84.678 183.404 84.9157 183.301 85.163 183.221C85.4124 183.143 85.6656 183.091 85.9247 183.065C86.1837 183.04 86.4428 183.042 86.7019 183.073C88.5622 183.285 90.4224 183.278 92.2807 183.052C92.8008 182.989 93.3112 183.036 93.8098 183.194C94.3105 183.35 94.7546 183.603 95.1481 183.95C95.5435 184.302 95.8513 184.719 96.0675 185.202C96.2856 185.687 96.3947 186.194 96.3947 186.723V193.722C96.3947 193.972 96.3597 194.215 96.2856 194.455C96.2136 194.694 96.1064 194.916 95.9662 195.123C95.8259 195.331 95.6604 195.512 95.4656 195.67C95.2708 195.826 95.0565 195.951 94.8247 196.044C93.1164 196.747 91.3399 197.104 89.4913 197.114ZM86.2675 184.805C85.7825 184.805 85.3598 184.968 84.9994 185.292C84.7929 185.477 84.6332 185.695 84.5183 185.948C84.4053 186.201 84.3488 186.468 84.3488 186.745V193.72C84.3488 193.874 84.3917 194.012 84.4774 194.139C84.5631 194.264 84.6761 194.355 84.8183 194.412C87.9622 195.68 91.0204 195.68 94.1663 194.412C94.3085 194.355 94.4215 194.266 94.5072 194.139C94.5929 194.012 94.6358 193.874 94.6358 193.72V186.723C94.6358 186.445 94.5793 186.178 94.4643 185.925C94.3494 185.67 94.1877 185.451 93.9793 185.266C93.7767 185.083 93.5469 184.951 93.2859 184.869C93.0268 184.787 92.7599 184.764 92.4911 184.797C90.4925 185.04 88.4959 185.048 86.4974 184.818C86.4214 184.811 86.3435 184.805 86.2675 184.805Z" fill="#1F1F35"/>
<path d="M100.251 52.0835L109.574 55.21C110.24 55.432 110.893 55.6872 111.534 55.9735C112.173 56.2618 112.798 56.5793 113.408 56.928C114.015 57.2767 114.606 57.6546 115.178 58.0598C115.751 58.4669 116.3 58.9013 116.83 59.361C117.36 59.8226 117.864 60.3076 118.347 60.818C118.829 61.3284 119.284 61.8601 119.713 62.4153C120.143 62.9705 120.543 63.5451 120.917 64.1411C121.289 64.7353 121.632 65.3469 121.945 65.9741C122.257 66.6033 122.539 67.2442 122.789 67.9006C123.038 68.5571 123.254 69.2233 123.439 69.8992C123.624 70.5771 123.774 71.2608 123.891 71.9542C124.008 72.6458 124.09 73.3412 124.139 74.0405C124.187 74.7417 124.203 75.443 124.182 76.1442C124.162 76.8455 124.107 77.5448 124.018 78.2402C123.928 78.9356 123.806 79.6251 123.65 80.3108C123.492 80.9945 123.303 81.6685 123.079 82.3347L111.68 116.343C111.475 116.949 111.243 117.543 110.982 118.128C110.721 118.71 110.431 119.279 110.114 119.832C109.796 120.387 109.453 120.925 109.083 121.445C108.713 121.965 108.318 122.468 107.899 122.949C107.48 123.43 107.038 123.892 106.574 124.33C106.109 124.768 105.624 125.183 105.119 125.573C104.613 125.964 104.091 126.328 103.549 126.667C103.008 127.008 102.451 127.32 101.88 127.604C101.307 127.889 100.723 128.146 100.127 128.372C99.5287 128.6 98.9229 128.796 98.3073 128.964C97.6898 129.131 97.0665 129.27 96.4373 129.375C95.8082 129.482 95.1731 129.558 94.5362 129.603C93.8992 129.646 93.2622 129.659 92.6233 129.64C91.9844 129.622 91.3474 129.572 90.7143 129.492C90.0813 129.41 89.4521 129.299 88.8307 129.157C88.2074 129.013 87.5938 128.841 86.988 128.637L75.0297 124.628C74.4064 124.419 73.7947 124.18 73.1928 123.911C72.5929 123.642 72.0085 123.344 71.4378 123.017C70.867 122.692 70.3138 122.337 69.7762 121.955C69.2405 121.575 68.7243 121.168 68.2276 120.736C67.7328 120.305 67.2595 119.85 66.8076 119.37C66.3556 118.893 65.9291 118.395 65.5258 117.872C65.1246 117.352 64.7486 116.815 64.398 116.258C64.0493 115.701 63.7279 115.128 63.4357 114.538C63.1416 113.949 62.8786 113.347 62.6449 112.734C62.4111 112.118 62.2066 111.493 62.0352 110.858C61.8618 110.225 61.7196 109.582 61.6105 108.933C61.5014 108.285 61.4235 107.634 61.3787 106.978C61.332 106.321 61.3203 105.665 61.3378 105.006C61.3573 104.35 61.4079 103.694 61.4917 103.041C61.5755 102.39 61.6904 101.744 61.8384 101.101C61.9845 100.46 62.1618 99.8289 62.3722 99.2056L73.7422 65.2826C73.9603 64.632 74.2097 63.9951 74.4902 63.3678C74.7707 62.7425 75.0823 62.1328 75.4232 61.5368C75.7641 60.9427 76.1322 60.3641 76.5296 59.8051C76.927 59.246 77.3516 58.7084 77.8016 58.1922C78.2516 57.6741 78.7249 57.1793 79.2236 56.7098C79.7223 56.2385 80.2443 55.7943 80.7858 55.3736C81.3293 54.9548 81.8903 54.5632 82.4708 54.199C83.0532 53.8328 83.6493 53.4977 84.2648 53.1939C84.8784 52.888 85.5056 52.6134 86.1465 52.3679C86.7873 52.1245 87.438 51.9121 88.1002 51.7329C88.7625 51.5518 89.4307 51.4057 90.1066 51.2907C90.7825 51.1758 91.4643 51.096 92.148 51.0492C92.8317 51.0005 93.5174 50.9869 94.2031 51.0063C94.8868 51.0258 95.5705 51.0804 96.2503 51.1661C96.9302 51.2537 97.6061 51.3745 98.2742 51.5264C98.9424 51.6803 99.6007 51.8654 100.251 52.0835Z" fill="#00CED1"/>
<mask id="mask28_4359_1676" style="mask-type:luminance" maskUnits="userSpaceOnUse" x="-19" y="19" width="225" height="225">
<path d="M205.7 19.3H-18.7002V243.7H205.7V19.3Z" fill="black" fill-opacity="0.6"/>
</mask>
<g mask="url(#mask28_4359_1676)">
<mask id="mask29_4359_1676" style="mask-type:luminance" maskUnits="userSpaceOnUse" x="74" y="120" width="11" height="5">
<path d="M84.2741 120.28H74.3008V124.768H84.2741V120.28Z" fill="white"/>
</mask>
<g mask="url(#mask29_4359_1676)">
<mask id="mask30_4359_1676" style="mask-type:luminance" maskUnits="userSpaceOnUse" x="74" y="120" width="11" height="5">
<path d="M74.3203 120.341H84.0151V124.27H74.3203V120.341Z" fill="white"/>
</mask>
<g mask="url(#mask30_4359_1676)">
<path d="M83.4815 124.061C82.7121 123.968 81.9524 123.832 81.2025 123.649C80.4545 123.469 79.7162 123.263 78.9857 123.033C78.2533 122.803 77.5307 122.55 76.8177 122.256C76.4612 122.108 76.1106 121.958 75.758 121.782C75.4035 121.601 75.0568 121.403 74.7218 121.188C74.6575 121.145 74.6127 121.087 74.5874 121.013C74.562 120.941 74.562 120.867 74.5874 120.793C74.6127 120.721 74.6555 120.662 74.7218 120.62C74.786 120.577 74.8562 120.557 74.9341 120.563H74.9575C75.349 120.59 75.723 120.655 76.095 120.715C76.471 120.777 76.8547 120.845 77.2287 120.925C77.9826 121.083 78.7228 121.284 79.4571 121.506C80.1896 121.728 80.9161 121.973 81.6349 122.248C82.3576 122.521 83.0627 122.836 83.7484 123.193C83.8458 123.245 83.9159 123.323 83.9588 123.425C83.9997 123.528 84.0055 123.631 83.9724 123.736C83.9393 123.843 83.877 123.925 83.7854 123.987C83.6919 124.048 83.5906 124.073 83.4815 124.061Z" fill="#89F3FF"/>
</g>
</g>
</g>
<mask id="mask31_4359_1676" style="mask-type:luminance" maskUnits="userSpaceOnUse" x="-19" y="19" width="225" height="225">
<path d="M205.7 19.3H-18.7002V243.7H205.7V19.3Z" fill="black" fill-opacity="0.6"/>
</mask>
<g mask="url(#mask31_4359_1676)">
<mask id="mask32_4359_1676" style="mask-type:luminance" maskUnits="userSpaceOnUse" x="85" y="53" width="19" height="5">
<path d="M103.723 53.9573H85.7705V57.9466H103.723V53.9573Z" fill="white"/>
</mask>
<g mask="url(#mask32_4359_1676)">
<mask id="mask33_4359_1676" style="mask-type:luminance" maskUnits="userSpaceOnUse" x="85" y="54" width="19" height="4">
<path d="M85.8096 54.156H103.524V57.748H85.8096V54.156Z" fill="white"/>
</mask>
<g mask="url(#mask33_4359_1676)">
<path d="M86.1426 56.5304C87.4068 55.7415 88.7606 55.1708 90.2079 54.8182C91.6532 54.4676 93.122 54.2942 94.6102 54.302C95.3484 54.3098 96.0867 54.3546 96.8211 54.4364C97.1873 54.4793 97.5535 54.528 97.9158 54.5981L98.4593 54.6955L98.9969 54.8182C99.3553 54.8981 99.7079 55.0013 100.06 55.1046C100.415 55.1961 100.758 55.3305 101.103 55.4513C101.455 55.5701 101.773 55.7026 102.106 55.835C102.437 55.9636 102.766 56.1019 103.093 56.2363C103.21 56.283 103.294 56.3649 103.349 56.4759C103.401 56.5889 103.409 56.7057 103.374 56.8246C103.337 56.9453 103.265 57.0369 103.158 57.1012C103.051 57.1635 102.936 57.183 102.815 57.1596L102.809 57.1577C102.116 57.0174 101.412 56.8518 100.734 56.7018C100.397 56.6317 100.064 56.5538 99.7254 56.4993C99.3865 56.4389 99.0514 56.3765 98.7105 56.3395L98.2041 56.2694L97.6937 56.2207C97.5243 56.2051 97.3567 56.1837 97.1853 56.1759L96.6769 56.1486C95.999 56.1097 95.3212 56.1058 94.6433 56.135C93.2856 56.1662 91.9474 56.3863 90.6189 56.6415C89.2885 56.9005 87.9775 57.2551 86.6335 57.6193L86.6257 57.6213C86.4815 57.6602 86.3432 57.6485 86.2069 57.5842C86.0725 57.52 85.9751 57.4187 85.9147 57.2823C85.8543 57.146 85.8465 57.0077 85.8894 56.8635C85.9322 56.7213 86.016 56.6103 86.1406 56.5304H86.1426Z" fill="#89F3FF"/>
</g>
</g>
</g>
<mask id="mask34_4359_1676" style="mask-type:luminance" maskUnits="userSpaceOnUse" x="-19" y="19" width="225" height="225">
<path d="M205.7 19.3H-18.7002V243.7H205.7V19.3Z" fill="black" fill-opacity="0.6"/>
</mask>
<g mask="url(#mask34_4359_1676)">
<mask id="mask35_4359_1676" style="mask-type:luminance" maskUnits="userSpaceOnUse" x="80" y="56" width="6" height="5">
<path d="M85.7708 56.9495H80.7842V60.4401H85.7708V56.9495Z" fill="white"/>
</mask>
<g mask="url(#mask35_4359_1676)">
<mask id="mask36_4359_1676" style="mask-type:luminance" maskUnits="userSpaceOnUse" x="81" y="57" width="5" height="4">
<path d="M81.2832 57.2688H85.4517V60.3796H81.2832V57.2688Z" fill="white"/>
</mask>
<g mask="url(#mask36_4359_1676)">
<path d="M81.4642 59.468C81.5869 59.1349 81.7798 58.8544 82.0466 58.6226C82.2998 58.4083 82.5706 58.2252 82.8628 58.0693C83.1511 57.9057 83.4511 57.7674 83.7608 57.6505C84.0783 57.5317 84.4036 57.448 84.7386 57.3993C84.836 57.3876 84.9276 57.4032 85.0152 57.446C85.1029 57.4908 85.1711 57.5551 85.2178 57.6408C85.2665 57.7265 85.286 57.8161 85.2763 57.9155C85.2685 58.0129 85.2334 58.0986 85.173 58.1745L85.1672 58.1823C84.9607 58.4278 84.7406 58.6596 84.5049 58.8758C84.277 59.0881 84.0432 59.2848 83.8075 59.4777C83.5738 59.6725 83.3303 59.8517 83.0732 60.0134C82.7907 60.1848 82.4868 60.288 82.1596 60.327H82.144C82.0583 60.3367 81.9726 60.3289 81.8908 60.3036C81.809 60.2802 81.733 60.2393 81.6668 60.1867C81.6005 60.1322 81.546 60.066 81.5051 59.99C81.4642 59.916 81.4389 59.8342 81.4311 59.7485C81.4213 59.653 81.433 59.5595 81.4642 59.468Z" fill="#89F3FF"/>
</g>
</g>
</g>
<path d="M93.1732 129.761C91.0441 129.761 88.9715 129.42 86.9535 128.742L74.9952 124.733C74.368 124.523 73.7544 124.281 73.1505 124.012C72.5467 123.742 71.9584 123.442 71.3838 123.112C70.8092 122.785 70.254 122.429 69.7144 122.045C69.1748 121.663 68.6567 121.254 68.158 120.82C67.6594 120.385 67.1821 119.928 66.7283 119.446C66.2744 118.965 65.8459 118.465 65.4407 117.941C65.0355 117.419 64.6576 116.875 64.307 116.316C63.9564 115.755 63.633 115.179 63.3389 114.588C63.0428 113.996 62.7779 113.39 62.5422 112.773C62.3084 112.155 62.1039 111.526 61.9286 110.889C61.7552 110.25 61.613 109.606 61.504 108.953C61.3929 108.3 61.315 107.646 61.2702 106.986C61.2235 106.325 61.2098 105.665 61.2293 105.005C61.2488 104.342 61.3014 103.684 61.3851 103.029C61.4689 102.373 61.5838 101.722 61.7319 101.078C61.8799 100.433 62.0572 99.7978 62.2675 99.1705L73.6395 65.2476C73.8576 64.5931 74.1089 63.9522 74.3914 63.323C74.6738 62.6938 74.9855 62.0803 75.3283 61.4822C75.6712 60.8842 76.0413 60.3038 76.4406 59.7428C76.8399 59.1798 77.2665 58.6402 77.7184 58.1201C78.1723 57.6 78.6476 57.1033 79.1501 56.63C79.6507 56.1566 80.1747 55.7086 80.7202 55.2879C81.2656 54.8652 81.8305 54.4717 82.4148 54.1055C82.9973 53.7393 83.5992 53.4023 84.2147 53.0945C84.8322 52.7867 85.4633 52.5101 86.1081 52.2667C86.7529 52.0212 87.4074 51.8069 88.0716 51.6258C88.7378 51.4446 89.4098 51.2966 90.0896 51.1817C90.7695 51.0687 91.4532 50.9869 92.1408 50.9382C92.8284 50.8914 93.516 50.8778 94.2056 50.8973C94.8951 50.9167 95.5808 50.9713 96.2645 51.057C96.9482 51.1447 97.6261 51.2654 98.2982 51.4193C98.9702 51.5732 99.6344 51.7602 100.287 51.9803L109.61 55.1048C110.28 55.3288 110.934 55.5859 111.579 55.8742C112.222 56.1625 112.849 56.4819 113.463 56.8326C114.074 57.1832 114.668 57.563 115.243 57.9702C115.818 58.3792 116.371 58.8155 116.903 59.2792C117.434 59.7408 117.943 60.2297 118.428 60.742C118.911 61.2543 119.369 61.79 119.801 62.3491C120.232 62.9062 120.635 63.4847 121.011 64.0827C121.385 64.6788 121.73 65.2943 122.043 65.9254C122.359 66.5566 122.641 67.2013 122.893 67.8617C123.144 68.5201 123.362 69.1902 123.547 69.87C123.732 70.5517 123.882 71.2394 124.001 71.9348C124.118 72.6302 124.202 73.3295 124.25 74.0327C124.299 74.7378 124.313 75.441 124.293 76.1462C124.272 76.8513 124.217 77.5545 124.128 78.2538C124.038 78.9531 123.915 79.6466 123.757 80.3342C123.6 81.0218 123.409 81.6997 123.185 82.3678L111.784 116.378C109.037 124.573 101.374 129.761 93.1732 129.761ZM87.0236 128.533C97.1625 131.933 108.176 126.449 111.575 116.31L122.976 82.2996C123.198 81.6373 123.387 80.9673 123.543 80.2874C123.699 79.6057 123.822 78.92 123.909 78.2265C123.999 77.535 124.052 76.8396 124.073 76.1423C124.092 75.443 124.079 74.7456 124.03 74.0502C123.981 73.3528 123.9 72.6613 123.783 71.9737C123.668 71.2842 123.518 70.6043 123.335 69.9304C123.152 69.2564 122.935 68.5941 122.686 67.9415C122.439 67.289 122.158 66.6501 121.847 66.0248C121.537 65.3995 121.196 64.7918 120.824 64.1996C120.454 63.6094 120.054 63.0367 119.628 62.4854C119.199 61.9322 118.747 61.4024 118.268 60.894C117.789 60.3875 117.286 59.9044 116.759 59.4447C116.233 58.987 115.685 58.5565 115.115 58.1513C114.546 57.7461 113.959 57.3721 113.354 57.0254C112.748 56.6787 112.126 56.3612 111.489 56.0768C110.852 55.7904 110.202 55.5372 109.54 55.3151L100.217 52.1887C99.5701 51.9706 98.9156 51.7875 98.2495 51.6336C97.5852 51.4816 96.9151 51.3628 96.2373 51.2752C95.5613 51.1895 94.8815 51.1369 94.1997 51.1174C93.518 51.0979 92.8362 51.1115 92.1564 51.1583C91.4746 51.205 90.7987 51.2849 90.1266 51.3998C89.4527 51.5128 88.7884 51.6589 88.13 51.8381C87.4716 52.0173 86.823 52.2277 86.186 52.4712C85.549 52.7147 84.9238 52.9874 84.3141 53.2913C83.7024 53.5951 83.1083 53.9282 82.5298 54.2905C81.9532 54.6528 81.3941 55.0444 80.8546 55.4612C80.315 55.8781 79.7968 56.3203 79.3001 56.7897C78.8053 57.2572 78.332 57.7481 77.884 58.2643C77.436 58.7785 77.0152 59.3142 76.6198 59.8694C76.2244 60.4245 75.8582 60.9992 75.5192 61.5913C75.1803 62.1835 74.8706 62.7912 74.592 63.4126C74.3135 64.036 74.0641 64.671 73.8479 65.3177L62.476 99.2407C62.2695 99.8601 62.0922 100.489 61.9461 101.126C61.8 101.765 61.6851 102.408 61.6013 103.057C61.5195 103.705 61.4689 104.356 61.4494 105.01C61.4299 105.665 61.4436 106.317 61.4884 106.97C61.5332 107.623 61.6111 108.271 61.7202 108.916C61.8293 109.561 61.9695 110.2 62.1409 110.831C62.3123 111.462 62.5149 112.083 62.7487 112.695C62.9805 113.305 63.2434 113.905 63.5337 114.489C63.8259 115.075 64.1453 115.644 64.4921 116.199C64.8407 116.752 65.2147 117.288 65.6141 117.806C66.0153 118.324 66.44 118.821 66.888 119.296C67.338 119.772 67.8074 120.224 68.3022 120.654C68.795 121.083 69.3093 121.488 69.841 121.866C70.3748 122.246 70.926 122.596 71.4929 122.921C72.0597 123.247 72.6421 123.543 73.2402 123.812C73.8362 124.079 74.444 124.316 75.0653 124.525L87.0256 128.533H87.0236Z" fill="#00CED1"/>
<mask id="mask37_4359_1676" style="mask-type:luminance" maskUnits="userSpaceOnUse" x="-19" y="19" width="225" height="225">
<path d="M205.7 19.3H-18.7002V243.7H205.7V19.3Z" fill="black" fill-opacity="0.2"/>
</mask>
<g mask="url(#mask37_4359_1676)">
<mask id="mask38_4359_1676" style="mask-type:luminance" maskUnits="userSpaceOnUse" x="68" y="56" width="57" height="75">
<path d="M124.666 56.9495H68.8154V130.253H124.666V56.9495Z" fill="white"/>
</mask>
<g mask="url(#mask38_4359_1676)">
<mask id="mask39_4359_1676" style="mask-type:luminance" maskUnits="userSpaceOnUse" x="68" y="57" width="57" height="73">
<path d="M68.9346 57.2688H124.347V129.755H68.9346V57.2688Z" fill="white"/>
</mask>
<g mask="url(#mask39_4359_1676)">
<path d="M113.414 57.3916C113.626 57.6429 113.805 57.9136 113.951 58.2078C116.355 61.1998 110.944 60.1908 108.941 60.966C104.742 62.2731 101.9 65.5495 99.7218 69.1746C96.9227 74.9034 97.1155 76.5883 92.982 88.8427C87.7772 106.425 83.0827 112.518 88.7804 123.171C95.0352 132.092 72.7588 122.618 69.1025 121.429C72.7529 124.312 75.1664 124.573 82.0016 126.965C91.9828 130.871 99.7199 131.017 107.348 123.562C109.752 121.455 112.033 115.827 111.894 115.701C113.273 111.59 120.337 90.5159 122.472 84.1501C123.169 81.9373 122.729 83.6943 123.609 80.4881C125.218 74.319 123.551 67.3805 119.556 62.2322C117.828 60.2122 115.78 58.5993 113.414 57.3916Z" fill="#1F1F35"/>
</g>
</g>
</g>
<path d="M124.172 76.5433L119.275 73.9506C119.168 73.8941 119.059 73.8513 118.942 73.8221C118.827 73.7929 118.708 73.7753 118.589 73.7734C118.468 73.7714 118.352 73.7851 118.235 73.8104C118.118 73.8357 118.005 73.8766 117.898 73.9292C117.791 73.9818 117.691 74.0461 117.6 74.1221C117.506 74.2 117.424 74.2857 117.354 74.3811C117.282 74.4766 117.222 74.5798 117.175 74.6908C117.128 74.7999 117.095 74.9129 117.074 75.0317L117.066 75.0824C117.039 75.2402 117.037 75.396 117.06 75.5557C117.082 75.7135 117.128 75.8635 117.198 76.0076C117.269 76.1498 117.36 76.2784 117.471 76.3933C117.582 76.5083 117.707 76.6037 117.849 76.6777L123.759 79.808C123.981 78.7308 124.119 77.6419 124.172 76.5433Z" fill="#1F1F35"/>
<path d="M117.268 80.9846C117.171 80.934 117.07 80.8931 116.964 80.8639C116.857 80.8346 116.75 80.8171 116.641 80.8113C116.53 80.8054 116.421 80.8113 116.314 80.8288C116.205 80.8483 116.1 80.8775 115.996 80.9184C115.895 80.9593 115.8 81.01 115.708 81.0723C115.616 81.1327 115.535 81.2048 115.459 81.2846C115.383 81.3645 115.316 81.4502 115.26 81.5456C115.203 81.6391 115.159 81.7385 115.124 81.8437L115.108 81.8885C115.05 82.0599 115.024 82.2333 115.03 82.4144C115.034 82.5936 115.071 82.767 115.137 82.9326C115.203 83.1001 115.297 83.2501 115.418 83.3825C115.537 83.5169 115.677 83.626 115.835 83.7098L121.597 86.7602L122.588 83.8013L117.268 80.9846Z" fill="#1F1F35"/>
<path d="M115.097 87.4674C115 87.4148 114.898 87.3758 114.791 87.3466C114.686 87.3174 114.579 87.2999 114.468 87.294C114.359 87.2862 114.25 87.294 114.141 87.3116C114.033 87.3291 113.928 87.3583 113.825 87.3992C113.724 87.4401 113.626 87.4908 113.537 87.5531C113.445 87.6154 113.361 87.6856 113.285 87.7654C113.211 87.8453 113.145 87.933 113.089 88.0265C113.032 88.12 112.985 88.2193 112.95 88.3245L112.935 88.3712C112.878 88.5407 112.853 88.716 112.857 88.8952C112.863 89.0744 112.9 89.2478 112.966 89.4134C113.032 89.5809 113.126 89.7309 113.246 89.8653C113.365 89.9977 113.505 90.1068 113.663 90.1906L119.425 93.241L120.417 90.2821L115.097 87.4674Z" fill="#1F1F35"/>
<path d="M118.242 96.7647L112.923 93.948C112.825 93.8954 112.724 93.8565 112.619 93.8272C112.513 93.798 112.404 93.7805 112.295 93.7747C112.186 93.7688 112.077 93.7747 111.968 93.7922C111.859 93.8097 111.754 93.8389 111.652 93.8798C111.549 93.9207 111.454 93.9714 111.362 94.0337C111.273 94.0961 111.189 94.1662 111.113 94.246C111.037 94.3259 110.971 94.4136 110.914 94.5071C110.858 94.6025 110.813 94.6999 110.778 94.8051L110.762 94.8519C110.706 95.0213 110.679 95.1966 110.684 95.3758C110.69 95.555 110.725 95.7284 110.792 95.894C110.86 96.0615 110.951 96.2115 111.072 96.3459C111.193 96.4784 111.331 96.5874 111.491 96.6712L117.251 99.7216L118.242 96.7647Z" fill="#1F1F35"/>
<path d="M116.07 103.246L110.751 100.429C110.653 100.378 110.552 100.337 110.447 100.308C110.34 100.279 110.233 100.261 110.123 100.256C110.012 100.25 109.903 100.256 109.796 100.273C109.687 100.291 109.582 100.32 109.479 100.361C109.377 100.402 109.282 100.452 109.19 100.515C109.099 100.577 109.017 100.647 108.941 100.727C108.865 100.807 108.799 100.895 108.742 100.988C108.686 101.083 108.641 101.183 108.606 101.286L108.59 101.333C108.534 101.502 108.507 101.678 108.512 101.857C108.516 102.036 108.553 102.209 108.62 102.377C108.686 102.542 108.779 102.692 108.9 102.827C109.019 102.959 109.159 103.068 109.317 103.152L115.079 106.203L116.07 103.246Z" fill="#1F1F35"/>
<path d="M112.907 112.685L113.898 109.726L108.578 106.909C108.481 106.859 108.38 106.818 108.273 106.789C108.167 106.759 108.06 106.742 107.949 106.736C107.84 106.73 107.731 106.736 107.622 106.754C107.515 106.771 107.41 106.802 107.306 106.841C107.205 106.882 107.108 106.935 107.018 106.995C106.927 107.057 106.843 107.13 106.769 107.209C106.693 107.289 106.627 107.375 106.57 107.47C106.514 107.564 106.467 107.663 106.432 107.767L106.416 107.813C106.36 107.985 106.334 108.158 106.338 108.337C106.344 108.518 106.379 108.69 106.447 108.857C106.514 109.025 106.607 109.175 106.726 109.307C106.847 109.442 106.987 109.551 107.145 109.635L112.907 112.685Z" fill="#1F1F35"/>
<path d="M79.9792 105.511L84.662 106.019C84.7185 106.025 84.773 106.033 84.8295 106.039C84.9873 106.06 85.1431 106.054 85.2989 106.019C85.4548 105.984 85.6009 105.924 85.7333 105.836C85.8677 105.75 85.9827 105.643 86.0781 105.515C86.1755 105.388 86.2456 105.246 86.2904 105.094C86.3274 104.969 86.3664 104.843 86.4054 104.716C86.4326 104.622 86.4521 104.527 86.4599 104.428C86.4677 104.33 86.4638 104.233 86.4502 104.135C86.4365 104.04 86.4131 103.945 86.3781 103.853C86.345 103.761 86.3002 103.674 86.2476 103.592C86.195 103.51 86.1326 103.434 86.0625 103.366C85.9924 103.296 85.9164 103.236 85.8327 103.185C85.7489 103.132 85.6612 103.089 85.5697 103.058C85.4762 103.025 85.3827 103.002 85.2853 102.99L85.2678 102.988L80.3434 102.454C80.172 102.435 80.0045 102.447 79.837 102.49C79.6714 102.53 79.5175 102.601 79.3753 102.698C79.2331 102.795 79.1143 102.912 79.015 103.052C78.9156 103.193 78.8435 103.347 78.7987 103.512C78.7812 103.578 78.7637 103.645 78.7461 103.711C78.7189 103.812 78.7033 103.913 78.6994 104.017C78.6955 104.12 78.7013 104.223 78.7189 104.324C78.7364 104.428 78.7656 104.527 78.8046 104.622C78.8435 104.718 78.8922 104.809 78.9507 104.893C79.0091 104.979 79.0753 105.057 79.1513 105.129C79.2273 105.199 79.3091 105.261 79.3987 105.314C79.4864 105.369 79.5799 105.411 79.6792 105.444C79.7766 105.478 79.8779 105.499 79.9792 105.511Z" fill="#1F1F35"/>
<path d="M97.8416 108.859L91.0824 105.281L90.274 104.854C90.1746 104.802 90.0714 104.761 89.9623 104.73C89.8532 104.701 89.7442 104.683 89.6312 104.679C89.5182 104.673 89.4072 104.681 89.2961 104.701C89.1851 104.72 89.078 104.751 88.9747 104.794C88.8715 104.839 88.7721 104.893 88.6806 104.958C88.589 105.022 88.5053 105.096 88.4313 105.18C88.3553 105.264 88.291 105.355 88.2345 105.452C88.18 105.552 88.1352 105.653 88.104 105.762L88.0943 105.791C88.0436 105.961 88.0241 106.132 88.0319 106.31C88.0417 106.485 88.0806 106.654 88.1488 106.818C88.217 106.98 88.3105 107.126 88.4293 107.256C88.5481 107.387 88.6845 107.494 88.8403 107.576L96.4489 111.604C96.5404 111.651 96.6359 111.69 96.7352 111.717C96.8346 111.744 96.9339 111.762 97.0372 111.768C97.1404 111.772 97.2436 111.766 97.3449 111.75C97.4462 111.733 97.5456 111.705 97.641 111.668C97.7365 111.629 97.8261 111.581 97.9118 111.522C97.9975 111.466 98.0754 111.399 98.1455 111.323C98.2176 111.249 98.278 111.168 98.3325 111.078C98.3851 110.99 98.428 110.897 98.4611 110.799L98.465 110.784L98.5332 110.585C98.5857 110.424 98.6111 110.258 98.6052 110.089C98.6013 109.917 98.5682 109.753 98.5039 109.596C98.4416 109.438 98.352 109.296 98.239 109.169C98.1241 109.041 97.9916 108.937 97.8416 108.859Z" fill="#1F1F35"/>
<path d="M82.0756 99.032L87.1343 99.5813H87.1421C87.2745 99.5989 87.4051 99.593 87.5336 99.5638C87.6641 99.5365 87.7849 99.4878 87.8979 99.4197C88.0109 99.3495 88.1083 99.2638 88.192 99.1625C88.2758 99.0593 88.3401 98.9463 88.3849 98.8216C88.4706 98.5821 88.5563 98.3405 88.642 98.0951C88.7004 97.9334 88.7199 97.7678 88.7043 97.5964C88.6868 97.425 88.6361 97.2672 88.5485 97.1192C88.4608 96.9711 88.3459 96.8484 88.2037 96.751C88.0635 96.6556 87.9076 96.5932 87.7382 96.564C87.557 96.5348 87.3758 96.5114 87.1927 96.4919L82.4535 95.9757C82.2898 95.9582 82.1282 95.9679 81.9684 96.005C81.8087 96.0439 81.6607 96.1062 81.5223 96.1939C81.384 96.2835 81.2652 96.3926 81.1639 96.5212C81.0626 96.6497 80.9867 96.7919 80.9341 96.9477L80.8678 97.1445C80.8347 97.2477 80.8114 97.351 80.8016 97.4581C80.7899 97.5652 80.7919 97.6724 80.8055 97.7795C80.8172 97.8847 80.8425 97.9899 80.8795 98.0892C80.9165 98.1905 80.9633 98.286 81.0217 98.3775C81.0782 98.4671 81.1464 98.5509 81.2224 98.6269C81.2983 98.7009 81.3821 98.7671 81.4737 98.8236C81.5652 98.8801 81.6626 98.9268 81.7639 98.9619C81.8652 98.997 81.9684 99.0203 82.0756 99.032Z" fill="#1F1F35"/>
<path d="M100.014 102.377L93.4611 98.9095C93.4611 98.9095 92.9878 98.6582 92.4443 98.3738C92.3488 98.3232 92.2476 98.2822 92.1424 98.253C92.0372 98.2238 91.93 98.2063 91.821 98.2004C91.7119 98.1946 91.6028 98.2004 91.4957 98.218C91.3866 98.2355 91.2833 98.2628 91.1801 98.3037C91.0788 98.3426 90.9834 98.3933 90.8918 98.4537C90.8003 98.514 90.7165 98.5842 90.6405 98.6621C90.5646 98.74 90.4983 98.8257 90.4418 98.9192C90.3834 99.0127 90.3366 99.1101 90.2996 99.2134L90.2899 99.2426C90.2295 99.414 90.2003 99.5912 90.2022 99.7744C90.2061 99.9575 90.2412 100.133 90.3074 100.302C90.3737 100.474 90.4672 100.626 90.5879 100.762C90.7106 100.898 90.8509 101.009 91.0126 101.095L98.6036 105.114C98.6971 105.162 98.7926 105.201 98.8938 105.229C98.9932 105.256 99.0964 105.273 99.1997 105.279C99.3049 105.285 99.4081 105.279 99.5113 105.262C99.6146 105.244 99.7139 105.217 99.8113 105.178C99.9068 105.139 99.9983 105.09 100.084 105.032C100.172 104.973 100.25 104.905 100.322 104.831C100.394 104.755 100.456 104.671 100.509 104.582C100.563 104.492 100.606 104.399 100.639 104.299L100.705 104.105C100.76 103.943 100.783 103.777 100.779 103.608C100.774 103.436 100.74 103.273 100.676 103.115C100.614 102.955 100.526 102.813 100.411 102.686C100.298 102.56 100.166 102.457 100.014 102.377Z" fill="#1F1F35"/>
<path d="M84.245 92.5594L89.3291 93.1126L89.3408 93.1145C89.481 93.1321 89.6213 93.1243 89.7596 93.0931C89.8979 93.0639 90.0284 93.0093 90.1491 92.9353C90.268 92.8593 90.3732 92.7658 90.4628 92.6548C90.5504 92.5438 90.6186 92.4211 90.6634 92.2867C90.7296 92.0919 90.7959 91.8951 90.8621 91.6984C90.9186 91.527 90.9381 91.3517 90.9186 91.1705C90.8991 90.9913 90.8426 90.8238 90.7491 90.6699C90.6556 90.5141 90.5348 90.3874 90.3848 90.2861C90.2349 90.1849 90.0712 90.1186 89.892 90.0894C89.7245 90.0641 89.557 90.0407 89.3895 90.0232L84.621 89.505C84.4593 89.4875 84.2976 89.4972 84.1379 89.5343C83.9781 89.5713 83.8301 89.6355 83.6918 89.7232C83.5535 89.8128 83.4327 89.9199 83.3334 90.0505C83.2321 90.179 83.1561 90.3212 83.1035 90.477L83.0373 90.6738C83.0022 90.777 82.9808 90.8803 82.9691 90.9874C82.9594 91.0945 82.9613 91.2017 82.973 91.3069C82.9867 91.414 83.012 91.5172 83.049 91.6185C83.0841 91.7198 83.1308 91.8153 83.1892 91.9068C83.2477 91.9964 83.3139 92.0802 83.3918 92.1542C83.4678 92.2302 83.5516 92.2964 83.6431 92.3529C83.7347 92.4094 83.8301 92.4561 83.9314 92.4892C84.0346 92.5243 84.1379 92.5477 84.245 92.5594Z" fill="#1F1F35"/>
<path d="M102.188 95.8959L95.0894 92.1383L94.6881 91.928C94.5907 91.8754 94.4895 91.8364 94.3823 91.8072C94.2752 91.778 94.168 91.7604 94.057 91.7546C93.9479 91.7488 93.8388 91.7546 93.7298 91.7741C93.6207 91.7916 93.5155 91.8208 93.4123 91.8617C93.311 91.9026 93.2136 91.9552 93.122 92.0176C93.0305 92.078 92.9467 92.15 92.8707 92.2299C92.7967 92.3098 92.7305 92.3974 92.672 92.4929C92.6156 92.5864 92.5708 92.6857 92.5357 92.7909L92.526 92.8201C92.4675 92.9915 92.4402 93.1668 92.4461 93.348C92.4519 93.5272 92.487 93.7025 92.5532 93.87C92.6214 94.0376 92.7149 94.1876 92.8357 94.322C92.9564 94.4564 93.0967 94.5654 93.2564 94.6512L100.775 98.6327C100.869 98.6814 100.964 98.7184 101.066 98.7476C101.165 98.7749 101.268 98.7905 101.371 98.7963C101.477 98.8022 101.58 98.7963 101.683 98.7788C101.786 98.7632 101.886 98.734 101.981 98.697C102.079 98.658 102.17 98.6093 102.256 98.5509C102.343 98.4924 102.421 98.4243 102.493 98.3483C102.566 98.2723 102.628 98.1905 102.68 98.1009C102.735 98.0113 102.778 97.9178 102.811 97.8185L102.877 97.6237C102.932 97.462 102.955 97.2964 102.951 97.125C102.945 96.9555 102.912 96.7919 102.85 96.6322C102.786 96.4744 102.698 96.3322 102.583 96.2056C102.47 96.079 102.338 95.9757 102.188 95.8959Z" fill="#1F1F35"/>
<path d="M104.36 89.4154C104.36 89.4154 99.4454 86.8169 96.843 85.4436C96.7475 85.391 96.6463 85.3521 96.5391 85.3228C96.4339 85.2936 96.3268 85.2741 96.2177 85.2683C96.1086 85.2625 95.9995 85.2683 95.8905 85.2858C95.7833 85.3034 95.6781 85.3326 95.5768 85.3735C95.4736 85.4125 95.3782 85.465 95.2866 85.5254C95.1951 85.5858 95.1132 85.6559 95.0373 85.7358C94.9613 85.8157 94.8951 85.9014 94.8366 85.9949C94.7801 86.0884 94.7334 86.1877 94.6983 86.291L94.6886 86.3202C94.6302 86.4916 94.6009 86.6689 94.6048 86.85C94.6087 87.0312 94.6438 87.2065 94.712 87.376C94.7782 87.5435 94.8717 87.6954 94.9925 87.8318C95.1132 87.9662 95.2535 88.0772 95.4132 88.161L102.95 92.1503C103.041 92.199 103.139 92.238 103.238 92.2652C103.339 92.2944 103.443 92.31 103.546 92.3159C103.649 92.3217 103.754 92.3159 103.855 92.2983C103.959 92.2828 104.058 92.2535 104.155 92.2146C104.253 92.1756 104.344 92.1289 104.43 92.0685C104.516 92.01 104.596 91.9438 104.668 91.8678C104.738 91.7919 104.802 91.7101 104.855 91.6205C104.909 91.5309 104.952 91.4354 104.985 91.338L105.05 91.1413C105.104 90.9815 105.129 90.814 105.124 90.6446C105.12 90.4751 105.087 90.3095 105.022 90.1517C104.96 89.994 104.87 89.8518 104.757 89.7251C104.642 89.5985 104.51 89.4953 104.36 89.4154Z" fill="#1F1F35"/>
<path d="M86.4134 86.0882L91.5267 86.6453H91.5365C91.6709 86.6628 91.8033 86.655 91.9338 86.6277C92.0663 86.5985 92.189 86.5479 92.3039 86.4778C92.4189 86.4076 92.5182 86.32 92.602 86.2148C92.6877 86.1096 92.752 85.9947 92.7968 85.8681C92.8805 85.6285 92.9623 85.3928 93.0403 85.1629C93.0968 84.9993 93.1162 84.8318 93.0968 84.6604C93.0792 84.4889 93.0266 84.3292 92.937 84.1812C92.8494 84.0331 92.7325 83.9104 92.5903 83.813C92.4481 83.7156 92.2903 83.6533 92.1208 83.626C91.9436 83.5987 91.7644 83.5734 91.5852 83.5559L86.7913 83.0338C86.6277 83.0163 86.466 83.0261 86.3063 83.0631C86.1466 83.1001 85.9985 83.1644 85.8602 83.252C85.7219 83.3397 85.6031 83.4487 85.5018 83.5773C85.4005 83.7078 85.3246 83.85 85.272 84.0059L85.2057 84.2026C85.1726 84.3039 85.1492 84.4091 85.1395 84.5162C85.1278 84.6214 85.1298 84.7285 85.1434 84.8357C85.1551 84.9428 85.1804 85.046 85.2174 85.1473C85.2525 85.2486 85.3012 85.3441 85.3577 85.4337C85.4161 85.5252 85.4843 85.609 85.5603 85.683C85.6362 85.759 85.72 85.8252 85.8115 85.8817C85.9031 85.9382 86.0005 85.983 86.1018 86.0181C86.2031 86.0531 86.3063 86.0765 86.4134 86.0882Z" fill="#1F1F35"/>
<path d="M88.5834 79.6175L93.7239 80.1765H93.7337C93.8642 80.1941 93.9927 80.1863 94.1213 80.159C94.2479 80.1298 94.3667 80.0811 94.4778 80.011C94.5888 79.9408 94.6842 79.8532 94.7641 79.7499C94.844 79.6467 94.9044 79.5337 94.9453 79.409C95.0349 79.1305 95.1206 78.8617 95.2024 78.6026C95.2511 78.4468 95.2667 78.289 95.2472 78.1273C95.2277 77.9656 95.1751 77.8157 95.0894 77.6773C95.0037 77.539 94.8927 77.4241 94.7583 77.3326C94.6239 77.243 94.4758 77.1845 94.3141 77.1592C94.1388 77.1319 93.9616 77.1066 93.7843 77.0871L88.9613 76.5631C88.7976 76.5456 88.636 76.5553 88.4762 76.5924C88.3165 76.6313 88.1685 76.6937 88.0302 76.7813C87.8919 76.8709 87.773 76.98 87.6717 77.1086C87.5705 77.2371 87.4945 77.3793 87.4419 77.5352L87.3757 77.7319C87.3425 77.8351 87.3192 77.9384 87.3094 78.0455C87.2977 78.1526 87.2997 78.2598 87.3133 78.365C87.327 78.4721 87.3503 78.5753 87.3873 78.6766C87.4244 78.7779 87.4711 78.8734 87.5295 78.9649C87.586 79.0545 87.6542 79.1363 87.7302 79.2123C87.8062 79.2883 87.8899 79.3545 87.9815 79.411C88.073 79.4675 88.1704 79.5123 88.2717 79.5473C88.373 79.5824 88.4762 79.6058 88.5834 79.6175Z" fill="#1F1F35"/>
<path d="M106.531 82.9344L99.4273 79.1729L98.9774 78.9373C98.88 78.8847 98.7787 78.8457 98.6735 78.8165C98.5663 78.7873 98.4592 78.7697 98.3501 78.7658C98.2391 78.76 98.13 78.7658 98.0229 78.7853C97.9138 78.8028 97.8086 78.834 97.7073 78.8749C97.606 78.9178 97.5106 78.9684 97.419 79.0327C97.3294 79.095 97.2476 79.1652 97.1736 79.247C97.0976 79.3268 97.0333 79.4145 96.9788 79.5099C96.9223 79.6054 96.8794 79.7047 96.8444 79.8099L96.823 79.8781C96.7704 80.0456 96.747 80.217 96.7528 80.3943C96.7606 80.5696 96.7976 80.7391 96.8639 80.9027C96.9301 81.0663 97.0236 81.2124 97.1405 81.3429C97.2593 81.4734 97.3956 81.5806 97.5515 81.6624L105.121 85.6693C105.215 85.7179 105.31 85.7569 105.411 85.7842C105.511 85.8134 105.614 85.829 105.717 85.8348C105.822 85.8407 105.926 85.8348 106.029 85.8173C106.13 85.8017 106.231 85.7725 106.327 85.7335C106.424 85.6965 106.516 85.6478 106.601 85.5874C106.689 85.529 106.767 85.4628 106.839 85.3868C106.911 85.3108 106.974 85.229 107.026 85.1394C107.081 85.0498 107.124 84.9563 107.157 84.857L107.223 84.6622C107.277 84.5005 107.301 84.333 107.297 84.1635C107.291 83.994 107.258 83.8285 107.194 83.6707C107.131 83.5129 107.042 83.3707 106.929 83.2441C106.814 83.1175 106.681 83.0142 106.531 82.9344Z" fill="#1F1F35"/>
<path d="M90.7535 73.1462L95.9213 73.7072L95.931 73.7091C96.046 73.7228 96.1589 73.7169 96.2739 73.6935C96.3868 73.6682 96.492 73.6273 96.5914 73.5669C96.6907 73.5065 96.7784 73.4306 96.8524 73.341C96.9245 73.2514 96.9829 73.154 97.0238 73.0449C97.1426 72.7196 97.2634 72.3982 97.392 72.0768C97.4485 71.9326 97.4718 71.7826 97.4621 71.6287C97.4504 71.4729 97.4076 71.3288 97.3316 71.1944C97.2537 71.06 97.1524 70.9489 97.0238 70.8613C96.8972 70.7717 96.7569 70.7171 96.6031 70.6918C96.4881 70.6762 96.3713 70.6606 96.2544 70.6489L91.1294 70.0918C90.9658 70.0724 90.8061 70.084 90.6463 70.1211C90.4866 70.1581 90.3366 70.2204 90.1983 70.31C90.062 70.3977 89.9412 70.5067 89.8418 70.6353C89.7406 70.7658 89.6646 70.908 89.612 71.0638L89.5458 71.2606C89.5107 71.3619 89.4893 71.4671 89.4776 71.5742C89.4678 71.6813 89.4678 71.7865 89.4815 71.8937C89.4951 72.0008 89.5204 72.104 89.5555 72.2053C89.5925 72.3066 89.6393 72.4021 89.6977 72.4917C89.7561 72.5832 89.8224 72.665 89.9003 72.741C89.9762 72.817 90.06 72.8832 90.1516 72.9397C90.2431 72.9962 90.3386 73.041 90.4399 73.076C90.5411 73.1111 90.6463 73.1345 90.7535 73.1462Z" fill="#1F1F35"/>
<path d="M108.705 76.4518C108.705 76.4518 103.713 73.8105 101.145 72.4528C101.05 72.4021 100.951 72.3631 100.845 72.3339C100.742 72.3047 100.637 72.2872 100.528 72.2794C100.421 72.2735 100.314 72.2774 100.206 72.295C100.101 72.3106 99.9961 72.3378 99.8948 72.3748C99.7955 72.4138 99.6981 72.4625 99.6085 72.5209C99.5169 72.5794 99.4331 72.6475 99.3572 72.7235C99.2812 72.7995 99.213 72.8832 99.1546 72.9728C99.0962 73.0644 99.0475 73.1598 99.0104 73.2611L98.9988 73.2884C98.9325 73.4618 98.8994 73.6429 98.8994 73.828C98.8994 74.013 98.9325 74.1922 98.9988 74.3656C99.065 74.539 99.1585 74.6968 99.2812 74.8351C99.4039 74.9753 99.5481 75.0863 99.7117 75.174L107.295 79.1886C107.386 79.2373 107.484 79.2744 107.583 79.3036C107.685 79.3308 107.786 79.3484 107.891 79.3523C107.994 79.3581 108.097 79.3523 108.201 79.3367C108.304 79.3192 108.403 79.2919 108.501 79.2529C108.598 79.214 108.69 79.1653 108.775 79.1068C108.861 79.0484 108.941 78.9802 109.011 78.9043C109.083 78.8283 109.145 78.7465 109.2 78.6569C109.253 78.5673 109.297 78.4738 109.331 78.3744L109.395 78.1796C109.449 78.018 109.475 77.8524 109.469 77.681C109.465 77.5115 109.43 77.3479 109.368 77.1881C109.303 77.0304 109.216 76.8882 109.101 76.7615C108.988 76.6349 108.855 76.5317 108.705 76.4518Z" fill="#1F1F35"/>
<path d="M93.5529 66.648L98.7246 67.2109C98.7948 67.2187 98.8649 67.2265 98.9331 67.2362C99.1726 67.2674 99.4025 67.2362 99.6246 67.1388C99.8466 67.0414 100.026 66.8954 100.166 66.6967C100.265 66.5564 100.365 66.4181 100.468 66.2798C100.534 66.1883 100.589 66.0889 100.632 65.9837C100.673 65.8785 100.7 65.7695 100.713 65.6565C100.727 65.5435 100.725 65.4305 100.71 65.3175C100.692 65.2046 100.663 65.0974 100.618 64.9922C100.573 64.8871 100.515 64.7916 100.445 64.702C100.376 64.6124 100.295 64.5325 100.205 64.4644C100.113 64.3962 100.016 64.3397 99.9109 64.2968C99.8057 64.254 99.6966 64.2248 99.5837 64.2111C99.4999 64.1994 99.4161 64.1897 99.3324 64.18L93.997 63.5995C93.738 63.5703 93.4886 63.6092 93.249 63.7164C93.0094 63.8235 92.8146 63.9852 92.6647 64.1975C92.614 64.2696 92.5653 64.3397 92.5166 64.4118C92.4484 64.515 92.3939 64.6241 92.351 64.741C92.3101 64.8578 92.2848 64.9786 92.2751 65.1013C92.2653 65.226 92.2712 65.3487 92.2926 65.4695C92.316 65.5922 92.351 65.7091 92.4036 65.8221C92.4562 65.935 92.5225 66.0383 92.6004 66.1337C92.6802 66.2292 92.7698 66.3129 92.8692 66.385C92.9705 66.459 93.0796 66.5175 93.1945 66.5603C93.3094 66.6051 93.4302 66.6343 93.5529 66.648Z" fill="#1F1F35"/>
<path d="M110.028 69.0556L104.525 66.1435C104.368 66.0597 104.198 66.0052 104.021 65.9798C103.842 65.9565 103.666 65.9623 103.491 66.0013C103.314 66.0383 103.15 66.1045 102.998 66.2C102.846 66.2974 102.716 66.4162 102.605 66.5584L102.587 66.5818C102.519 66.6714 102.461 66.7649 102.414 66.8662C102.367 66.9655 102.33 67.0707 102.307 67.1798C102.281 67.2869 102.27 67.3979 102.27 67.509C102.268 67.62 102.279 67.7291 102.303 67.8382C102.328 67.9472 102.361 68.0505 102.408 68.1518C102.455 68.2531 102.511 68.3485 102.579 68.4362C102.646 68.5258 102.722 68.6056 102.807 68.6777C102.891 68.7498 102.983 68.8102 103.08 68.8628C105.184 69.975 108.692 71.8294 108.692 71.8294C108.803 71.8898 108.918 71.9327 109.041 71.9619C109.161 71.9892 109.286 72.0009 109.411 71.997C109.535 71.9931 109.658 71.9736 109.779 71.9385C109.898 71.9015 110.011 71.8509 110.118 71.7866C110.225 71.7204 110.32 71.6424 110.408 71.5509C110.494 71.4613 110.566 71.36 110.626 71.2509C110.687 71.1418 110.731 71.025 110.761 70.9042C110.792 70.7815 110.806 70.6587 110.802 70.5341C110.8 70.4464 110.798 70.3607 110.794 70.275C110.784 70.0179 110.71 69.7802 110.574 69.5621C110.437 69.3458 110.254 69.1764 110.028 69.0556Z" fill="#1F1F35"/>
<path d="M106.347 113.361C106.253 113.31 106.154 113.271 106.051 113.242C105.947 113.213 105.844 113.195 105.737 113.188C105.63 113.182 105.525 113.186 105.417 113.201C105.312 113.217 105.209 113.244 105.11 113.281C105.008 113.318 104.915 113.365 104.823 113.423C104.734 113.48 104.65 113.546 104.574 113.622C104.498 113.696 104.432 113.778 104.373 113.867C104.313 113.957 104.264 114.051 104.225 114.15L104.212 114.189C104.144 114.362 104.108 114.543 104.107 114.728C104.105 114.915 104.136 115.095 104.2 115.27C104.264 115.445 104.358 115.603 104.481 115.743C104.603 115.884 104.747 115.997 104.911 116.084L110.537 119.061C110.985 118.184 111.366 117.278 111.68 116.343L111.725 116.209L106.347 113.361Z" fill="#1F1F35"/>
<path d="M79.8077 62.0783L75.386 61.5972C74.8503 62.5439 74.3906 63.5256 74.0068 64.5424L79.4688 65.1365C79.6441 65.156 79.8175 65.1443 79.9908 65.1034C80.1623 65.0625 80.322 64.9924 80.47 64.895C80.6181 64.7976 80.7447 64.6788 80.8499 64.5385C80.957 64.3963 81.0369 64.2405 81.0875 64.073L81.0973 64.0418C81.1304 63.9347 81.1518 63.8256 81.1615 63.7126C81.1693 63.6016 81.1674 63.4905 81.1498 63.3776C81.1343 63.2665 81.107 63.1594 81.068 63.0542C81.0271 62.949 80.9765 62.8497 80.9161 62.7562C80.8538 62.6607 80.7817 62.575 80.7018 62.4971C80.622 62.4192 80.5324 62.351 80.4369 62.2926C80.3415 62.2341 80.2402 62.1854 80.133 62.1504C80.0278 62.1134 79.9188 62.09 79.8077 62.0783Z" fill="#1F1F35"/>
<path d="M93.1711 130.53C90.9602 130.528 88.8058 130.175 86.7098 129.47L74.7496 125.462C74.099 125.243 73.4601 124.994 72.8348 124.714C72.2076 124.433 71.596 124.121 71.0018 123.78C70.4058 123.44 69.8272 123.069 69.2682 122.672C68.7091 122.275 68.1696 121.85 67.6514 121.4C67.1333 120.948 66.6385 120.475 66.1691 119.974C65.6977 119.476 65.2516 118.954 64.8308 118.412C64.412 117.869 64.0186 117.306 63.6543 116.725C63.29 116.143 62.955 115.545 62.6492 114.929C62.3434 114.316 62.0667 113.688 61.8233 113.046C61.5798 112.405 61.3674 111.752 61.1863 111.09C61.0071 110.428 60.859 109.757 60.7441 109.082C60.6311 108.404 60.5493 107.724 60.5026 107.038C60.4539 106.352 60.4402 105.669 60.4597 104.981C60.4792 104.295 60.5337 103.612 60.6214 102.93C60.7071 102.25 60.8279 101.574 60.9818 100.906C61.1337 100.236 61.3207 99.5757 61.5389 98.9251L72.9089 65.0021C73.1368 64.3262 73.3958 63.66 73.69 63.0094C73.9822 62.3568 74.3055 61.7199 74.66 61.1004C75.0145 60.479 75.4002 59.8791 75.8132 59.2967C76.2281 58.7142 76.6683 58.1532 77.1378 57.6137C77.6072 57.0741 78.102 56.5598 78.6221 56.069C79.1402 55.58 79.6837 55.1145 80.2486 54.6781C80.8135 54.2418 81.3998 53.8327 82.0056 53.4529C82.6095 53.0731 83.2328 52.7244 83.8717 52.4049C84.5126 52.0874 85.1651 51.8011 85.8333 51.5459C86.5014 51.2927 87.1812 51.0706 87.8708 50.8836C88.5584 50.6966 89.2558 50.5427 89.9609 50.4239C90.6661 50.3051 91.3751 50.2213 92.088 50.1707C92.801 50.122 93.5139 50.1064 94.2288 50.1278C94.9417 50.1492 95.6547 50.2038 96.3618 50.2953C97.0708 50.3849 97.774 50.5096 98.4714 50.6693C99.1668 50.8291 99.8544 51.0219 100.532 51.2498L109.855 54.3743C110.546 54.608 111.226 54.8729 111.893 55.171C112.561 55.4709 113.209 55.8021 113.844 56.1644C114.477 56.5267 115.093 56.9202 115.689 57.3429C116.283 57.7675 116.858 58.2175 117.409 58.6986C117.96 59.1778 118.486 59.6823 118.987 60.2141C119.487 60.7459 119.963 61.2991 120.409 61.8776C120.857 62.4562 121.274 63.0542 121.661 63.6736C122.051 64.2911 122.407 64.9281 122.733 65.5826C123.058 66.2371 123.35 66.9052 123.611 67.587C123.87 68.2707 124.096 68.9642 124.289 69.6693C124.48 70.3745 124.638 71.0854 124.758 71.8062C124.881 72.5269 124.967 73.2515 125.018 73.98C125.068 74.7086 125.082 75.439 125.06 76.1695C125.041 76.9 124.983 77.6265 124.891 78.3512C124.797 79.0758 124.671 79.7946 124.507 80.5056C124.344 81.2185 124.147 81.9198 123.913 82.6132L112.514 116.624C109.658 125.138 101.693 130.53 93.1711 130.53ZM87.2669 127.803C97.0046 131.068 107.582 125.8 110.846 116.065L122.246 82.0542C122.46 81.4172 122.641 80.7685 122.793 80.114C122.943 79.4576 123.06 78.7953 123.146 78.1291C123.231 77.461 123.284 76.7909 123.303 76.1189C123.323 75.4449 123.309 74.7729 123.262 74.1028C123.216 73.4307 123.136 72.7626 123.025 72.1003C122.912 71.4361 122.768 70.7796 122.59 70.131C122.415 69.4804 122.207 68.8414 121.967 68.2123C121.728 67.585 121.457 66.9675 121.157 66.3656C120.857 65.7637 120.53 65.1774 120.171 64.6067C119.815 64.0379 119.429 63.4866 119.018 62.9529C118.605 62.4211 118.169 61.9108 117.707 61.4218C117.245 60.931 116.76 60.4654 116.254 60.0252C115.745 59.583 115.218 59.1661 114.668 58.7766C114.121 58.387 113.554 58.0247 112.97 57.6916C112.385 57.3565 111.787 57.0527 111.174 56.776C110.558 56.5014 109.933 56.256 109.294 56.0417L99.9732 52.9172C99.3499 52.7088 98.7187 52.5315 98.0779 52.3835C97.437 52.2374 96.7923 52.1225 96.1397 52.0387C95.4872 51.955 94.8346 51.9043 94.1762 51.8848C93.5198 51.8673 92.8653 51.8809 92.2088 51.9257C91.5543 51.9705 90.9018 52.0485 90.255 52.1575C89.6064 52.2666 88.9655 52.4088 88.3305 52.5802C87.6974 52.7536 87.0741 52.9562 86.4586 53.1899C85.845 53.4237 85.245 53.6867 84.6567 53.9808C84.0685 54.273 83.4958 54.5944 82.9387 54.9431C82.3835 55.2917 81.8439 55.6677 81.3239 56.069C80.8057 56.4722 80.307 56.8968 79.8279 57.3487C79.3506 57.8007 78.8967 58.272 78.4643 58.7688C78.0338 59.2635 77.6267 59.7797 77.2469 60.3154C76.867 60.8511 76.5125 61.4043 76.1872 61.9731C75.8599 62.5438 75.5619 63.1282 75.2931 63.7282C75.0243 64.3281 74.7866 64.9398 74.5763 65.5612L63.2063 99.4841C63.0056 100.08 62.8362 100.686 62.6959 101.3C62.5557 101.911 62.4446 102.531 62.3648 103.154C62.2849 103.777 62.2362 104.405 62.2187 105.034C62.1992 105.661 62.2128 106.29 62.2557 106.917C62.3005 107.545 62.3745 108.168 62.4797 108.787C62.5829 109.409 62.7193 110.022 62.8829 110.628C63.0485 111.236 63.2433 111.832 63.4673 112.42C63.6913 113.009 63.9426 113.583 64.2231 114.146C64.5036 114.709 64.8114 115.258 65.1445 115.79C65.4795 116.324 65.8379 116.838 66.2236 117.335C66.6073 117.833 67.0164 118.311 67.4469 118.768C67.8793 119.224 68.3332 119.661 68.8065 120.074C69.2818 120.487 69.7747 120.874 70.287 121.238C70.7993 121.603 71.3291 121.942 71.8745 122.253C72.4219 122.567 72.9809 122.851 73.5556 123.108C74.1282 123.366 74.7126 123.595 75.3106 123.794L87.2669 127.803Z" fill="#1F1F35"/>
<path d="M69.1222 109.537C69.1339 109.415 69.1242 109.294 69.0891 109.175C69.056 109.056 69.0014 108.949 68.9255 108.852C68.8495 108.754 68.7579 108.674 68.6528 108.612C68.5456 108.55 68.4307 108.511 68.308 108.491L68.0041 108.45C67.8755 108.433 67.7509 108.443 67.6282 108.476C67.5035 108.509 67.3925 108.567 67.2912 108.645C67.1918 108.725 67.11 108.821 67.0477 108.934C66.9873 109.047 66.9503 109.165 66.9366 109.292C66.66 112.003 67.0146 114.631 67.9983 117.171C68.0723 117.37 68.1931 117.536 68.3567 117.668C68.5222 117.8 68.7092 117.884 68.9177 117.915C69.017 117.929 69.1183 117.929 69.2177 117.917C69.317 117.904 69.4124 117.88 69.5059 117.843C69.5994 117.806 69.6871 117.758 69.7689 117.697C69.8488 117.639 69.9209 117.571 69.9851 117.491C70.0475 117.413 70.1001 117.329 70.141 117.238C70.1838 117.146 70.213 117.051 70.2306 116.951C70.2462 116.852 70.2501 116.753 70.2423 116.653C70.2345 116.554 70.213 116.456 70.1799 116.361C69.5878 114.641 68.8846 111.98 69.1222 109.537Z" fill="#1F1F35"/>
<path d="M74.101 110.531C74.1146 110.406 74.1049 110.285 74.0717 110.164C74.0386 110.044 73.9841 109.935 73.9081 109.835C73.8322 109.738 73.7406 109.656 73.6335 109.592C73.5263 109.527 73.4114 109.487 73.2887 109.467L72.9829 109.424C72.8543 109.409 72.7296 109.418 72.605 109.453C72.4803 109.488 72.3673 109.545 72.268 109.627C72.1667 109.707 72.0868 109.804 72.0245 109.919C71.9641 110.032 71.929 110.153 71.9174 110.281C71.6407 113.036 71.9933 115.706 72.977 118.293C73.0491 118.492 73.1699 118.659 73.3335 118.796C73.4991 118.93 73.6861 119.014 73.8964 119.047C74.7594 119.175 75.445 118.316 75.1587 117.467C74.5665 115.72 73.8633 113.014 74.101 110.531Z" fill="#1F1F35"/>
<path d="M79.2748 110.843C79.2884 110.718 79.2787 110.595 79.2475 110.472C79.2144 110.352 79.1599 110.241 79.0839 110.139C79.0079 110.038 78.9164 109.956 78.8092 109.89C78.7021 109.826 78.5852 109.783 78.4625 109.761L78.1567 109.719C78.0262 109.703 77.8996 109.713 77.7749 109.748C77.6502 109.785 77.5372 109.843 77.436 109.927C77.3366 110.009 77.2548 110.106 77.1944 110.223C77.134 110.338 77.099 110.461 77.0892 110.589C76.8126 113.387 77.1652 116.104 78.1489 118.737C78.221 118.94 78.3378 119.11 78.5034 119.246C78.669 119.384 78.856 119.47 79.0683 119.505C79.9312 119.634 80.6169 118.761 80.3306 117.898C79.7384 116.119 79.0371 113.369 79.2748 110.843Z" fill="#1F1F35"/>
<path d="M87.1359 51.8749C86.7619 52.4866 86.4268 53.1196 86.1327 53.7741C86.0801 53.891 86.0528 54.0137 86.0489 54.1423C86.047 54.2689 86.0684 54.3936 86.1152 54.5124C86.1639 54.6312 86.2321 54.7364 86.3217 54.828C86.4113 54.9176 86.5164 54.9877 86.6333 55.0364L86.9197 55.1533C87.0346 55.2 87.1534 55.2214 87.2781 55.2214C87.4008 55.2214 87.5196 55.1981 87.6346 55.1513C87.7475 55.1046 87.8508 55.0383 87.9384 54.9526C88.028 54.8669 88.0962 54.7676 88.1469 54.6546C88.815 53.1859 89.8824 51.8399 90.9265 50.751C89.6273 51.0062 88.365 51.3802 87.1359 51.8749Z" fill="#1F1F35"/>
<path d="M96.7527 51.0823C95.6931 50.9849 94.6334 50.9674 93.5718 51.0317C92.5725 52.2413 91.7505 53.562 91.1057 54.9918C91.0512 55.1086 91.022 55.2333 91.0181 55.3619C91.0142 55.4904 91.0336 55.6151 91.0804 55.7359C91.1271 55.8547 91.1953 55.9618 91.2869 56.0553C91.3765 56.1469 91.4817 56.217 91.6005 56.2677L91.8868 56.3845C92.0018 56.4293 92.1225 56.4508 92.2472 56.4488C92.3719 56.4469 92.4907 56.4235 92.6056 56.3748C92.7225 56.3261 92.8238 56.2599 92.9114 56.1722C93.001 56.0845 93.0712 55.9833 93.1199 55.8703C93.9808 53.9886 95.4768 52.2997 96.7527 51.0823Z" fill="#1F1F35"/>
<path d="M101.697 52.2705C100.916 52.0075 100.121 51.7932 99.3147 51.6238C98.2044 52.9289 97.2947 54.3606 96.5857 55.9228C96.5311 56.0397 96.5 56.1624 96.4941 56.2929C96.4883 56.4234 96.5097 56.5481 96.5545 56.6708C96.6012 56.7916 96.6694 56.8987 96.759 56.9942C96.8486 57.0877 96.9538 57.1598 97.0746 57.2104L97.3609 57.3253C97.4778 57.3701 97.6005 57.3916 97.7252 57.3877C97.8518 57.3857 97.9726 57.3584 98.0875 57.3097C98.2044 57.261 98.3057 57.1909 98.3953 57.1033C98.4849 57.0137 98.555 56.9124 98.6037 56.7955C99.3907 55.0852 100.684 53.5269 101.872 52.3289L101.697 52.2705Z" fill="#1F1F35"/>
<mask id="mask40_4359_1676" style="mask-type:luminance" maskUnits="userSpaceOnUse" x="-19" y="19" width="225" height="225">
<path d="M205.7 19.3H-18.7002V243.7H205.7V19.3Z" fill="black" fill-opacity="0.6"/>
</mask>
<g mask="url(#mask40_4359_1676)">
<mask id="mask41_4359_1676" style="mask-type:luminance" maskUnits="userSpaceOnUse" x="64" y="70" width="12" height="33">
<path d="M75.7975 70.9121H64.3281V102.827H75.7975V70.9121Z" fill="white"/>
</mask>
<g mask="url(#mask41_4359_1676)">
<mask id="mask42_4359_1676" style="mask-type:luminance" maskUnits="userSpaceOnUse" x="64" y="71" width="12" height="32">
<path d="M64.6279 71.031H75.7583V102.628H64.6279V71.031Z" fill="white"/>
</mask>
<g mask="url(#mask42_4359_1676)">
<path d="M75.6683 71.5512C75.0313 74.1731 74.2989 76.7658 73.5295 79.3448C73.1477 80.6343 72.7445 81.918 72.3471 83.2036C71.9419 84.4873 71.529 85.7671 71.1082 87.0449C70.2667 89.6006 69.3921 92.1446 68.4883 94.6788C67.5825 97.2131 66.6475 99.7376 65.6248 102.235C65.58 102.348 65.5001 102.43 65.3891 102.48C65.2781 102.531 65.1651 102.537 65.0502 102.5C64.9333 102.461 64.8456 102.389 64.7872 102.282C64.7288 102.174 64.7151 102.061 64.7444 101.945C65.4086 99.3304 66.1605 96.7456 66.9397 94.1685C67.7208 91.5933 68.537 89.0299 69.3785 86.4742C69.7992 85.1964 70.2297 83.9224 70.6699 82.6504C71.116 81.3823 71.5562 80.1104 72.0179 78.8462C72.9334 76.3158 73.8879 73.7972 74.9378 71.3097C74.9768 71.2181 75.041 71.1499 75.1326 71.109C75.2241 71.0662 75.3176 71.0623 75.4131 71.0934C75.5085 71.1246 75.5806 71.185 75.6293 71.2727C75.68 71.3603 75.6916 71.4538 75.6683 71.5512Z" fill="#89F3FF"/>
</g>
</g>
</g>
<path d="M61.4375 103.495L67.5033 104.153C67.702 104.177 67.8948 104.159 68.0877 104.105C68.2786 104.05 68.4519 103.96 68.6097 103.838C68.7656 103.715 68.8922 103.567 68.9915 103.394C69.0889 103.22 69.1513 103.035 69.1766 102.838L69.1805 102.807C69.2077 102.605 69.1941 102.404 69.1396 102.205C69.085 102.009 68.9954 101.829 68.8688 101.668C68.7422 101.506 68.5903 101.377 68.411 101.276C68.2318 101.177 68.0409 101.116 67.8364 101.095L61.9966 100.46C61.7316 101.457 61.5466 102.468 61.4375 103.495Z" fill="#1F1F35"/>
<path d="M69.1255 97.6236C69.3028 97.643 69.4762 97.6314 69.6476 97.5905C69.819 97.5495 69.9807 97.4794 70.1268 97.382C70.2748 97.2846 70.4034 97.1658 70.5086 97.0236C70.6157 96.8834 70.6936 96.7275 70.7462 96.5581L70.756 96.5288C70.7891 96.4217 70.8105 96.3126 70.8202 96.1996C70.828 96.0886 70.8241 95.9756 70.8085 95.8646C70.793 95.7536 70.7657 95.6464 70.7267 95.5412C70.6858 95.4361 70.6352 95.3367 70.5748 95.2432C70.5125 95.1478 70.4404 95.0621 70.3605 94.9841C70.2807 94.9062 70.1911 94.838 70.0956 94.7796C70.0002 94.7212 69.8989 94.6725 69.7917 94.6374C69.6865 94.6004 69.5775 94.577 69.4664 94.5634L64.1233 93.9829L63.1221 96.971L69.1255 97.6236Z" fill="#1F1F35"/>
<path d="M71.1338 91.1353C71.3091 91.1548 71.4844 91.1431 71.6558 91.1022C71.8272 91.0594 71.987 90.9912 72.135 90.8938C72.2831 90.7964 72.4097 90.6776 72.5168 90.5354C72.622 90.3951 72.7019 90.2393 72.7545 90.0698L72.7642 90.0406C72.7973 89.9335 72.8168 89.8244 72.8265 89.7114C72.8363 89.6004 72.8324 89.4874 72.8168 89.3764C72.8012 89.2653 72.7739 89.1582 72.733 89.053C72.6941 88.9478 72.6434 88.8485 72.5811 88.753C72.5188 88.6595 72.4486 88.5738 72.3688 88.4959C72.287 88.418 72.1993 88.3498 72.1039 88.2914C72.0065 88.2329 71.9071 88.1842 71.8 88.1492C71.6928 88.1122 71.5838 88.0888 71.4727 88.0752L66.2913 87.5122L65.29 90.5003L71.1338 91.1353Z" fill="#1F1F35"/>
<path d="M73.479 81.5864L68.4592 81.041L67.458 84.0291L73.142 84.6466C73.3173 84.6641 73.4907 84.6544 73.6621 84.6115C73.8355 84.5706 73.9952 84.5025 74.1413 84.4051C74.2894 84.3077 74.4179 84.1888 74.5231 84.0467C74.6302 83.9064 74.7082 83.7506 74.7607 83.5811L74.7705 83.5519C74.8036 83.4447 74.825 83.3337 74.8328 83.2227C74.8426 83.1097 74.8387 82.9987 74.8231 82.8876C74.8075 82.7766 74.7802 82.6675 74.7413 82.5643C74.7004 82.4591 74.6497 82.3578 74.5874 82.2643C74.527 82.1708 74.4549 82.0851 74.3751 82.0072C74.2932 81.9293 74.2056 81.8611 74.1101 81.8007C74.0147 81.7423 73.9134 81.6955 73.8063 81.6585C73.7011 81.6234 73.592 81.5981 73.479 81.5864Z" fill="#1F1F35"/>
<path d="M69.6279 77.5565L75.1483 78.1564C75.3236 78.1759 75.499 78.1642 75.6704 78.1233C75.8418 78.0824 76.0015 78.0123 76.1496 77.9168C76.2976 77.8194 76.4242 77.6987 76.5313 77.5584C76.6365 77.4162 76.7164 77.2623 76.769 77.0929L76.7787 77.0636C76.8118 76.9565 76.8313 76.8455 76.8411 76.7344C76.8508 76.6215 76.8469 76.5104 76.8313 76.3994C76.8157 76.2884 76.7885 76.1793 76.7476 76.0741C76.7086 75.9689 76.658 75.8696 76.5956 75.7761C76.5352 75.6826 76.4632 75.5969 76.3833 75.5189C76.3015 75.4391 76.2138 75.3709 76.1184 75.3125C76.021 75.254 75.9216 75.2073 75.8145 75.1703C75.7074 75.1352 75.5983 75.1099 75.4873 75.0982L70.6292 74.5703L69.6279 77.5565Z" fill="#1F1F35"/>
<path d="M71.7979 71.0853L77.1566 71.6677C77.3319 71.6872 77.5052 71.6755 77.6767 71.6346C77.85 71.5937 78.0098 71.5236 78.1578 71.4262C78.3058 71.3307 78.4325 71.2099 78.5376 71.0697C78.6448 70.9275 78.7246 70.7736 78.7753 70.6041L78.785 70.5749C78.8181 70.4658 78.8396 70.3568 78.8493 70.2457C78.8571 70.1327 78.8532 70.0217 78.8376 69.9107C78.822 69.7997 78.7948 69.6906 78.7558 69.5854C78.7149 69.4802 78.6643 69.3809 78.6039 69.2874C78.5415 69.1939 78.4714 69.1081 78.3896 69.0302C78.3097 68.9504 78.2201 68.8822 78.1247 68.8237C78.0292 68.7653 77.9279 68.7186 77.8228 68.6815C77.7156 68.6465 77.6065 68.6212 77.4955 68.6095L72.7991 68.0991L71.7979 71.0853Z" fill="#1F1F35"/>
<path d="M108.645 90.2138C108.429 90.1982 108.213 90.2021 107.999 90.2275C107.782 90.2547 107.572 90.3015 107.368 90.3677C107.161 90.4359 106.964 90.5235 106.775 90.6287C106.586 90.7359 106.409 90.8586 106.246 91.0008C106.082 91.141 105.932 91.2969 105.799 91.4683C105.665 91.6377 105.55 91.8209 105.453 92.0137C105.353 92.2065 105.275 92.4091 105.219 92.6175C105.161 92.826 105.124 93.0383 105.106 93.2545L102.533 127.263L102.377 129.318C102.354 129.624 102.301 129.922 102.217 130.216C102.134 130.51 102.021 130.793 101.878 131.064C101.738 131.336 101.571 131.59 101.378 131.827C101.185 132.065 100.971 132.279 100.735 132.474C100.497 132.667 100.244 132.834 99.9733 132.976C99.7045 133.121 99.422 133.234 99.1279 133.319C98.8337 133.403 98.5357 133.458 98.2299 133.483C97.926 133.506 97.6221 133.5 97.3183 133.463L77.1086 130.976C76.8164 130.939 76.5301 130.875 76.2515 130.781C75.971 130.69 75.7042 130.571 75.447 130.427C75.1919 130.281 74.9503 130.113 74.7283 129.922C74.5043 129.729 74.3017 129.519 74.1186 129.289C73.9355 129.057 73.7777 128.812 73.6433 128.549C73.5089 128.288 73.3998 128.015 73.3199 127.733C73.2381 127.45 73.1836 127.162 73.1582 126.868C73.1329 126.576 73.1368 126.281 73.168 125.989L73.39 124C71.0681 122.991 69.0131 121.593 67.2229 119.801L66.6152 125.257C65.9393 131.278 70.2851 136.781 76.3022 137.523L96.5138 140.008C96.9735 140.065 97.4371 140.094 97.9007 140.094C98.2474 140.094 98.5922 140.077 98.937 140.043C99.2798 140.01 99.6226 139.96 99.9616 139.895C100.302 139.829 100.638 139.749 100.969 139.652C101.302 139.556 101.629 139.444 101.95 139.317C102.272 139.19 102.587 139.048 102.895 138.892C103.203 138.736 103.505 138.565 103.797 138.38C104.089 138.197 104.374 137.998 104.646 137.788C104.921 137.577 105.184 137.353 105.437 137.118C105.69 136.882 105.932 136.635 106.164 136.377C106.394 136.118 106.612 135.852 106.816 135.573C107.021 135.294 107.214 135.006 107.391 134.71C107.57 134.414 107.734 134.11 107.884 133.798C108.034 133.487 108.17 133.169 108.289 132.846C108.41 132.521 108.515 132.191 108.604 131.858C108.694 131.523 108.768 131.186 108.827 130.845C108.885 130.505 108.926 130.162 108.953 129.817L109.651 120.613L111.684 93.7512C111.7 93.535 111.694 93.3188 111.669 93.1045C111.643 92.8903 111.596 92.6799 111.528 92.4734C111.46 92.2689 111.374 92.0702 111.267 91.8812C111.162 91.6942 111.037 91.517 110.897 91.3533C110.755 91.1897 110.599 91.0397 110.43 90.9073C110.258 90.7729 110.077 90.6579 109.884 90.5586C109.691 90.4612 109.491 90.3833 109.282 90.3248C109.074 90.2684 108.862 90.2294 108.645 90.2138Z" fill="#00CED1"/>
<mask id="mask43_4359_1676" style="mask-type:luminance" maskUnits="userSpaceOnUse" x="-19" y="19" width="225" height="225">
<path d="M205.7 19.3H-18.7002V243.7H205.7V19.3Z" fill="black" fill-opacity="0.6"/>
</mask>
<g mask="url(#mask43_4359_1676)">
<mask id="mask44_4359_1676" style="mask-type:luminance" maskUnits="userSpaceOnUse" x="104" y="116" width="3" height="6">
<path d="M106.714 116.79H104.72V121.278H106.714V116.79Z" fill="white"/>
</mask>
<g mask="url(#mask44_4359_1676)">
<mask id="mask45_4359_1676" style="mask-type:luminance" maskUnits="userSpaceOnUse" x="104" y="116" width="3" height="6">
<path d="M104.959 116.87H106.395V121.058H104.959V116.87Z" fill="white"/>
</mask>
<g mask="url(#mask45_4359_1676)">
<path d="M106.089 117.236C106.165 117.538 106.208 117.843 106.217 118.155C106.229 118.459 106.223 118.761 106.196 119.063C106.171 119.367 106.126 119.667 106.062 119.963C105.997 120.27 105.9 120.565 105.769 120.851C105.717 120.962 105.629 121.013 105.506 121.003C105.384 120.993 105.304 120.931 105.269 120.812C105.183 120.512 105.132 120.204 105.115 119.891C105.094 119.589 105.095 119.285 105.115 118.983C105.134 118.679 105.173 118.379 105.232 118.081C105.288 117.775 105.376 117.479 105.497 117.191C105.557 117.054 105.66 116.992 105.808 117.004C105.956 117.016 106.05 117.093 106.089 117.236Z" fill="#89F3FF"/>
</g>
</g>
</g>
<mask id="mask46_4359_1676" style="mask-type:luminance" maskUnits="userSpaceOnUse" x="-19" y="19" width="225" height="225">
<path d="M205.7 19.3H-18.7002V243.7H205.7V19.3Z" fill="black" fill-opacity="0.6"/>
</mask>
<g mask="url(#mask46_4359_1676)">
<mask id="mask47_4359_1676" style="mask-type:luminance" maskUnits="userSpaceOnUse" x="105" y="102" width="3" height="14">
<path d="M107.712 102.328H105.219V115.792H107.712V102.328Z" fill="white"/>
</mask>
<g mask="url(#mask47_4359_1676)">
<mask id="mask48_4359_1676" style="mask-type:luminance" maskUnits="userSpaceOnUse" x="105" y="102" width="3" height="14">
<path d="M105.558 102.827H107.213V115.792H105.558V102.827Z" fill="white"/>
</mask>
<g mask="url(#mask48_4359_1676)">
<path d="M107.149 103.249C107.178 104.27 107.155 105.287 107.114 106.302C107.075 107.318 107.007 108.331 106.932 109.342L106.798 110.86C106.744 111.364 106.699 111.871 106.634 112.375C106.514 113.384 106.375 114.391 106.183 115.394C106.171 115.459 106.14 115.509 106.089 115.548C106.036 115.587 105.98 115.605 105.916 115.599C105.851 115.595 105.797 115.57 105.752 115.523C105.707 115.476 105.684 115.422 105.682 115.357C105.643 114.337 105.657 113.32 105.69 112.303C105.701 111.795 105.735 111.288 105.756 110.782L105.853 109.26C105.931 108.248 106.015 107.237 106.132 106.228C106.243 105.219 106.373 104.21 106.557 103.206C106.57 103.13 106.607 103.07 106.668 103.023C106.728 102.976 106.796 102.955 106.872 102.961C106.948 102.967 107.014 102.998 107.067 103.052C107.119 103.109 107.147 103.175 107.149 103.251V103.249Z" fill="#89F3FF"/>
</g>
</g>
</g>
<mask id="mask49_4359_1676" style="mask-type:luminance" maskUnits="userSpaceOnUse" x="-19" y="19" width="225" height="225">
<path d="M205.7 19.3H-18.7002V243.7H205.7V19.3Z" fill="black" fill-opacity="0.6"/>
</mask>
<g mask="url(#mask49_4359_1676)">
<mask id="mask50_4359_1676" style="mask-type:luminance" maskUnits="userSpaceOnUse" x="72" y="133" width="5" height="3">
<path d="M76.2954 133.246H72.8047V135.24H76.2954V133.246Z" fill="white"/>
</mask>
<g mask="url(#mask50_4359_1676)">
<mask id="mask51_4359_1676" style="mask-type:luminance" maskUnits="userSpaceOnUse" x="73" y="133" width="3" height="3">
<path d="M73.0029 133.265H75.7962V135.061H73.0029V133.265Z" fill="white"/>
</mask>
<g mask="url(#mask51_4359_1676)">
<path d="M73.3726 133.399C73.5927 133.438 73.807 133.497 74.0154 133.577C74.2141 133.651 74.405 133.731 74.592 133.82C74.779 133.908 74.9621 134.003 75.1471 134.11C75.3419 134.221 75.525 134.352 75.6945 134.5L75.6984 134.504C75.7743 134.57 75.7977 134.652 75.7724 134.749C75.7451 134.845 75.6847 134.903 75.5854 134.925C75.3439 134.969 75.1004 134.969 74.8588 134.925C74.6231 134.884 74.3972 134.814 74.179 134.714C73.9608 134.615 73.7583 134.492 73.5713 134.344C73.3784 134.192 73.2187 134.013 73.0901 133.805C73.0317 133.705 73.0356 133.608 73.0999 133.514C73.1641 133.419 73.2518 133.38 73.3667 133.399H73.3726Z" fill="#89F3FF"/>
</g>
</g>
</g>
<mask id="mask52_4359_1676" style="mask-type:luminance" maskUnits="userSpaceOnUse" x="-19" y="19" width="225" height="225">
<path d="M205.7 19.3H-18.7002V243.7H205.7V19.3Z" fill="black" fill-opacity="0.6"/>
</mask>
<g mask="url(#mask52_4359_1676)">
<mask id="mask53_4359_1676" style="mask-type:luminance" maskUnits="userSpaceOnUse" x="68" y="125" width="6" height="9">
<path d="M73.3041 125.766H68.3174V133.744H73.3041V125.766Z" fill="white"/>
</mask>
<g mask="url(#mask53_4359_1676)">
<mask id="mask54_4359_1676" style="mask-type:luminance" maskUnits="userSpaceOnUse" x="68" y="125" width="5" height="9">
<path d="M68.8164 125.964H72.8057V133.386H68.8164V125.964Z" fill="white"/>
</mask>
<g mask="url(#mask54_4359_1676)">
<path d="M69.3464 126.194C69.5489 126.808 69.7418 127.41 69.9599 128C70.1801 128.59 70.4138 129.169 70.6885 129.728L70.893 130.147L71.1131 130.558L71.343 130.963C71.4248 131.095 71.5066 131.226 71.5845 131.36C71.9254 131.89 72.2916 132.4 72.6851 132.891L72.687 132.893C72.7201 132.936 72.7377 132.983 72.7357 133.037C72.7338 133.092 72.7143 133.139 72.6792 133.179C72.6422 133.22 72.5974 133.244 72.5448 133.252C72.4903 133.259 72.4416 133.25 72.3948 133.22C71.8202 132.85 71.3196 132.4 70.8911 131.867C70.6768 131.604 70.4781 131.329 70.295 131.043C70.1158 130.754 69.9522 130.458 69.8002 130.156C69.508 129.547 69.2801 128.916 69.1165 128.259C68.9509 127.607 68.8652 126.944 68.8594 126.272C68.8594 126.21 68.8789 126.155 68.9178 126.109C68.9587 126.062 69.0094 126.033 69.0697 126.023C69.1301 126.013 69.1866 126.025 69.2392 126.058C69.2918 126.089 69.3288 126.134 69.3464 126.194Z" fill="#89F3FF"/>
</g>
</g>
</g>
<mask id="mask55_4359_1676" style="mask-type:luminance" maskUnits="userSpaceOnUse" x="-19" y="19" width="225" height="225">
<path d="M205.7 19.3H-18.7002V243.7H205.7V19.3Z" fill="black" fill-opacity="0.2"/>
</mask>
<g mask="url(#mask55_4359_1676)">
<mask id="mask56_4359_1676" style="mask-type:luminance" maskUnits="userSpaceOnUse" x="66" y="89" width="47" height="52">
<path d="M112.2 89.8613H66.8213V140.227H112.2V89.8613Z" fill="white"/>
</mask>
<g mask="url(#mask56_4359_1676)">
<mask id="mask57_4359_1676" style="mask-type:luminance" maskUnits="userSpaceOnUse" x="66" y="119" width="10" height="12">
<path d="M66.9014 119.781H75.7975V130.752H66.9014V119.781Z" fill="white"/>
</mask>
<g mask="url(#mask57_4359_1676)">
<path d="M71.2165 123.463L70.9944 125.454C70.9633 125.746 70.9594 126.038 70.9847 126.332C71.01 126.624 71.0626 126.913 71.1444 127.195C71.2262 127.479 71.3334 127.75 71.4697 128.013C71.6041 128.274 71.7619 128.522 71.945 128.751C72.1262 128.983 72.3288 129.194 72.5528 129.385C72.7768 129.577 73.0164 129.745 73.2735 129.889C73.5287 130.033 73.7975 130.152 74.076 130.246C74.3565 130.337 74.6409 130.401 74.9331 130.438L75.6422 130.526C75.2292 130.32 74.8571 130.055 74.526 129.735C74.1929 129.414 73.9163 129.049 73.6962 128.644C73.4741 128.239 73.3202 127.811 73.2287 127.357C73.1391 126.905 73.1196 126.449 73.1683 125.989L73.3904 124C71.0685 122.991 69.0134 121.593 67.2233 119.801L67.085 121.042C68.3647 122.016 69.7419 122.822 71.2165 123.463Z" fill="#1F1F35"/>
</g>
<mask id="mask58_4359_1676" style="mask-type:luminance" maskUnits="userSpaceOnUse" x="73" y="90" width="39" height="51">
<path d="M73.8027 90.1807H111.701V140.207H73.8027V90.1807Z" fill="white"/>
</mask>
<g mask="url(#mask58_4359_1676)">
<path d="M108.645 90.2137C108.447 90.2001 108.248 90.202 108.051 90.2235C108.295 90.3871 108.513 90.578 108.704 90.7981C108.897 91.0182 109.056 91.2598 109.185 91.5227C109.314 91.7857 109.405 92.0603 109.46 92.3467C109.514 92.635 109.532 92.9233 109.508 93.2155L107.475 120.077L106.779 129.281C106.752 129.626 106.711 129.969 106.653 130.31C106.594 130.651 106.52 130.988 106.431 131.323C106.341 131.656 106.236 131.985 106.115 132.308C105.994 132.634 105.86 132.951 105.71 133.263C105.56 133.574 105.396 133.878 105.217 134.174C105.04 134.47 104.847 134.759 104.642 135.037C104.436 135.316 104.22 135.583 103.99 135.842C103.758 136.099 103.517 136.346 103.263 136.582C103.01 136.818 102.747 137.04 102.473 137.252C102.198 137.462 101.915 137.659 101.623 137.844C101.331 138.029 101.029 138.199 100.721 138.356C100.414 138.512 100.098 138.655 99.7766 138.781C99.4552 138.908 99.1279 139.021 98.7949 139.116C98.4637 139.214 98.1267 139.293 97.7878 139.36C97.4488 139.424 97.106 139.473 96.7612 139.506C96.4184 139.541 96.0736 139.556 95.7269 139.558C95.2633 139.558 94.7997 139.529 94.34 139.473L74.1284 136.985C74.0622 136.977 73.9979 136.966 73.9316 136.956C74.7011 137.233 75.4919 137.421 76.3042 137.523L96.5138 140.008C96.9755 140.067 97.4372 140.094 97.9008 140.094C98.2475 140.094 98.5923 140.076 98.937 140.043C99.2818 140.01 99.6227 139.96 99.9617 139.895C100.303 139.831 100.638 139.749 100.971 139.652C101.302 139.556 101.629 139.443 101.95 139.317C102.272 139.19 102.587 139.048 102.895 138.892C103.205 138.736 103.505 138.565 103.797 138.38C104.089 138.197 104.374 137.998 104.646 137.788C104.921 137.577 105.186 137.353 105.439 137.118C105.692 136.882 105.934 136.636 106.164 136.377C106.394 136.12 106.612 135.851 106.816 135.573C107.021 135.294 107.214 135.008 107.391 134.71C107.57 134.414 107.734 134.11 107.884 133.798C108.034 133.487 108.17 133.169 108.291 132.846C108.41 132.521 108.515 132.191 108.605 131.858C108.694 131.523 108.768 131.186 108.827 130.845C108.885 130.504 108.928 130.162 108.953 129.817L109.651 120.615L111.684 93.7511C111.7 93.5349 111.696 93.3187 111.669 93.1044C111.643 92.8902 111.597 92.6798 111.528 92.4733C111.462 92.2688 111.374 92.0701 111.267 91.8831C111.162 91.6941 111.038 91.5169 110.897 91.3533C110.755 91.1877 110.601 91.0396 110.43 90.9052C110.26 90.7728 110.077 90.6578 109.884 90.5585C109.691 90.4611 109.491 90.3832 109.282 90.3248C109.074 90.2663 108.862 90.2293 108.645 90.2137Z" fill="#1F1F35"/>
</g>
</g>
</g>
<path d="M97.9007 140.975C97.4001 140.975 96.9014 140.943 96.4067 140.881L76.1951 138.396C69.7027 137.595 65.0121 131.658 65.7406 125.16L66.5529 117.882L67.8463 119.179C69.5546 120.894 71.5201 122.232 73.7407 123.194L74.3368 123.453L74.0426 126.087C74.0173 126.322 74.0134 126.558 74.0348 126.794C74.0543 127.031 74.0991 127.263 74.1634 127.491C74.2296 127.717 74.3173 127.937 74.4244 128.148C74.5335 128.36 74.6601 128.557 74.8082 128.744C74.9543 128.929 75.1179 129.1 75.299 129.254C75.4782 129.408 75.6711 129.542 75.8776 129.659C76.084 129.776 76.3003 129.872 76.5262 129.946C76.7502 130.022 76.9801 130.072 77.2158 130.103L97.4254 132.589C97.6709 132.62 97.9143 132.624 98.1598 132.604C98.4052 132.585 98.6468 132.542 98.8825 132.474C99.1201 132.404 99.348 132.312 99.5642 132.199C99.7824 132.084 99.9869 131.948 100.178 131.792C100.369 131.636 100.54 131.463 100.696 131.272C100.852 131.081 100.986 130.877 101.099 130.657C101.212 130.438 101.304 130.212 101.372 129.975C101.438 129.737 101.481 129.498 101.5 129.252L104.231 93.1884C104.251 92.9137 104.298 92.6449 104.372 92.38C104.446 92.117 104.543 91.8618 104.668 91.6164C104.79 91.371 104.939 91.1411 105.108 90.9249C105.276 90.7087 105.464 90.5119 105.673 90.3327C105.881 90.1535 106.105 89.9977 106.343 89.8633C106.583 89.7269 106.832 89.6178 107.093 89.5321C107.354 89.4464 107.621 89.388 107.894 89.3549C108.166 89.3218 108.439 89.3159 108.712 89.3373C108.986 89.3568 109.255 89.4055 109.518 89.4795C109.783 89.5536 110.036 89.6529 110.282 89.7756C110.525 89.9003 110.755 90.0464 110.971 90.2158C111.187 90.3853 111.384 90.5743 111.563 90.7807C111.741 90.9892 111.898 91.2132 112.033 91.4508C112.167 91.6904 112.278 91.9398 112.364 92.2008C112.45 92.4618 112.508 92.7267 112.541 92.9994C112.574 93.2721 112.58 93.5448 112.561 93.8175L109.83 129.883C109.801 130.255 109.756 130.625 109.693 130.994C109.631 131.362 109.551 131.726 109.454 132.086C109.356 132.447 109.243 132.801 109.113 133.152C108.984 133.502 108.838 133.845 108.677 134.18C108.515 134.517 108.338 134.847 108.145 135.166C107.952 135.485 107.745 135.795 107.523 136.095C107.301 136.397 107.068 136.685 106.818 136.964C106.569 137.242 106.308 137.509 106.035 137.763C105.763 138.018 105.478 138.257 105.182 138.485C104.886 138.713 104.58 138.927 104.265 139.126C103.949 139.325 103.624 139.508 103.291 139.677C102.959 139.847 102.619 139.999 102.272 140.137C101.923 140.273 101.571 140.394 101.212 140.497C100.854 140.603 100.491 140.69 100.125 140.76C99.759 140.831 99.3889 140.883 99.0188 140.918C98.6468 140.955 98.2747 140.973 97.9007 140.975ZM67.9067 121.622L67.4898 125.354C67.4528 125.685 67.4333 126.017 67.4295 126.35C67.4275 126.683 67.4392 127.014 67.4684 127.345C67.4957 127.676 67.5405 128.005 67.6009 128.333C67.6613 128.66 67.7392 128.983 67.8307 129.303C67.9223 129.622 68.0294 129.936 68.1521 130.246C68.2748 130.555 68.4112 130.857 68.5631 131.153C68.7151 131.449 68.8806 131.736 69.0618 132.016C69.241 132.295 69.4339 132.565 69.6403 132.827C69.8468 133.088 70.065 133.339 70.2948 133.578C70.5247 133.818 70.7662 134.046 71.0195 134.262C71.2727 134.478 71.5337 134.681 71.8064 134.872C72.0791 135.063 72.3596 135.24 72.6499 135.404C72.9401 135.567 73.2362 135.717 73.5401 135.852C73.8439 135.986 74.1537 136.105 74.4692 136.21C74.7848 136.315 75.1042 136.403 75.4295 136.477C75.7529 136.551 76.0801 136.607 76.4113 136.65L96.6209 139.136C97.0456 139.188 97.4722 139.216 97.9007 139.216C98.2202 139.214 98.5377 139.198 98.8552 139.167C99.1708 139.138 99.4863 139.091 99.798 139.031C100.112 138.972 100.421 138.896 100.727 138.809C101.033 138.719 101.333 138.616 101.629 138.499C101.925 138.382 102.215 138.251 102.5 138.107C102.784 137.963 103.061 137.805 103.33 137.636C103.598 137.466 103.859 137.283 104.113 137.091C104.364 136.896 104.607 136.691 104.839 136.473C105.073 136.257 105.295 136.029 105.507 135.791C105.72 135.554 105.92 135.306 106.109 135.051C106.298 134.794 106.473 134.529 106.639 134.256C106.803 133.984 106.955 133.705 107.093 133.417C107.231 133.13 107.354 132.838 107.465 132.538C107.576 132.24 107.673 131.938 107.755 131.63C107.839 131.323 107.905 131.011 107.96 130.697C108.012 130.384 108.051 130.068 108.077 129.751L110.806 93.6851C110.819 93.5273 110.815 93.3676 110.796 93.2117C110.776 93.054 110.743 92.8981 110.693 92.7481C110.644 92.5962 110.58 92.4521 110.502 92.3138C110.424 92.1754 110.334 92.0469 110.229 91.9261C110.126 91.8053 110.013 91.6963 109.888 91.5989C109.762 91.4995 109.629 91.4158 109.487 91.3437C109.345 91.2716 109.199 91.2151 109.045 91.1723C108.893 91.1294 108.737 91.1021 108.579 91.0905C108.419 91.0788 108.262 91.0807 108.104 91.1002C107.946 91.1197 107.792 91.1547 107.642 91.2034C107.49 91.2521 107.346 91.3164 107.208 91.3943C107.07 91.4723 106.939 91.5638 106.818 91.667C106.699 91.7703 106.588 91.8852 106.491 92.0099C106.394 92.1345 106.308 92.2689 106.238 92.4111C106.166 92.5514 106.107 92.6994 106.066 92.8533C106.024 93.0053 105.996 93.1611 105.985 93.3189L103.254 129.385C103.226 129.749 103.162 130.105 103.063 130.458C102.961 130.808 102.827 131.145 102.659 131.471C102.49 131.794 102.291 132.098 102.061 132.38C101.83 132.665 101.574 132.922 101.292 133.154C101.01 133.386 100.706 133.586 100.382 133.756C100.059 133.925 99.722 134.061 99.3714 134.163C99.0208 134.264 98.6643 134.33 98.3 134.358C97.9358 134.387 97.5715 134.379 97.2092 134.334L76.9996 131.849C76.6509 131.804 76.31 131.726 75.9769 131.617C75.6438 131.506 75.3224 131.364 75.0166 131.19C74.7108 131.019 74.4244 130.818 74.1576 130.588C73.8907 130.36 73.6472 130.107 73.429 129.833C73.2128 129.556 73.0219 129.262 72.8622 128.95C72.7005 128.637 72.572 128.311 72.4746 127.974C72.3772 127.635 72.3129 127.292 72.2837 126.942C72.2525 126.591 72.2564 126.243 72.2934 125.892L72.4453 124.536C70.8052 123.765 69.2917 122.793 67.9067 121.622Z" fill="#1F1F35"/>
<path d="M109.876 95.7284C109.876 96.0011 109.841 96.2621 109.767 96.5134C109.695 96.7647 109.592 96.9868 109.455 97.1777C109.321 97.3705 109.167 97.5185 108.99 97.6218C108.815 97.727 108.631 97.7776 108.441 97.7776C108.252 97.7776 108.068 97.727 107.893 97.6218C107.716 97.5185 107.562 97.3705 107.426 97.1777C107.291 96.9868 107.188 96.7647 107.116 96.5134C107.042 96.2621 107.007 96.0011 107.007 95.7284C107.007 95.4557 107.042 95.1947 107.116 94.9434C107.188 94.6921 107.291 94.47 107.426 94.2792C107.562 94.0863 107.716 93.9383 107.893 93.835C108.068 93.7298 108.252 93.6772 108.441 93.6772C108.631 93.6772 108.815 93.7298 108.99 93.835C109.167 93.9383 109.321 94.0863 109.455 94.2792C109.592 94.47 109.695 94.6921 109.767 94.9434C109.841 95.1947 109.876 95.4557 109.876 95.7284Z" fill="#00CED1"/>
<path d="M108.441 98.3289C107.329 98.3289 106.458 97.1854 106.458 95.7284C106.458 94.2714 107.329 93.1279 108.441 93.1279C109.555 93.1279 110.426 94.2714 110.426 95.7284C110.426 97.1854 109.555 98.3289 108.441 98.3289ZM108.441 94.2285C108.022 94.2285 107.557 94.844 107.557 95.7284C107.557 96.6128 108.022 97.2283 108.441 97.2283C108.862 97.2283 109.327 96.6128 109.327 95.7284C109.327 94.844 108.862 94.2285 108.441 94.2285Z" fill="#1F1F35"/>
</g>
<defs>
<clipPath id="clip0_4359_1676">
<rect width="187" height="187" fill="white" transform="translate(0 38)"/>
</clipPath>
</defs>
</svg>
