<svg width="106" height="106" viewBox="0 0 106 106" fill="none" xmlns="http://www.w3.org/2000/svg">
<path d="M86.2399 23.0538V91.0063C86.2399 95.4547 82.7127 99.0957 78.2809 99.0957H26.5231L23.5273 94.5396V94.4837H73.446C77.8779 94.4837 81.4464 90.8027 81.4464 86.355V15.5938C84.3469 16.818 86.2399 19.7082 86.2399 23.0538Z" fill="#B3F0F2"/>
<path d="M23.5273 86.8658V6.87305H73.446C77.8779 6.87305 81.4464 10.514 81.4464 14.9638V86.3544C81.4464 90.8021 77.8779 94.4832 73.446 94.4832H23.5273V86.8658Z" fill="#D4D0FF"/>
<path d="M39.1058 23.1133H70.2626C70.3151 23.1133 70.3668 23.1181 70.4179 23.1285C70.4696 23.1388 70.5193 23.154 70.5683 23.174C70.6166 23.194 70.6622 23.2189 70.7063 23.2479C70.7498 23.2768 70.7898 23.31 70.8271 23.3472C70.8644 23.3845 70.8975 23.4245 70.9265 23.468C70.9555 23.5122 70.9803 23.5577 71.0003 23.606C71.0203 23.655 71.0355 23.7047 71.0459 23.7565C71.0562 23.8075 71.0611 23.86 71.0611 23.9124V37.9512C71.0611 38.0037 71.0562 38.0554 71.0459 38.1072C71.0355 38.1582 71.0203 38.2086 71.0003 38.2569C70.9803 38.3052 70.9555 38.3515 70.9265 38.3949C70.8975 38.4384 70.8644 38.4791 70.8271 38.5164C70.7898 38.553 70.7498 38.5861 70.7063 38.6158C70.6622 38.6448 70.6166 38.6689 70.5683 38.6896C70.5193 38.7096 70.4696 38.7248 70.4179 38.7345C70.3668 38.7448 70.3151 38.7504 70.2626 38.7504H39.1058C39.0533 38.7504 39.0016 38.7448 38.9498 38.7345C38.8988 38.7248 38.8484 38.7096 38.8001 38.6896C38.7518 38.6689 38.7055 38.6448 38.662 38.6158C38.6186 38.5861 38.5779 38.553 38.5406 38.5164C38.504 38.4791 38.4709 38.4384 38.4412 38.3949C38.4122 38.3515 38.3881 38.3052 38.3674 38.2569C38.3474 38.2086 38.3322 38.1582 38.3225 38.1072C38.3122 38.0554 38.3066 38.0037 38.3066 37.9512V23.9124C38.3066 23.86 38.3122 23.8075 38.3225 23.7565C38.3322 23.7047 38.3474 23.655 38.3674 23.606C38.3881 23.5577 38.4122 23.5122 38.4412 23.468C38.4709 23.4245 38.504 23.3845 38.5406 23.3472C38.5779 23.31 38.6186 23.2768 38.662 23.2479C38.7055 23.2189 38.7518 23.194 38.8001 23.174C38.8484 23.154 38.8988 23.1388 38.9498 23.1285C39.0016 23.1181 39.0533 23.1133 39.1058 23.1133Z" fill="#B3F0F2"/>
<path d="M29.5188 79.6494V6.87305H23.5273V94.4832H29.5188V79.6494Z" fill="#B3F0F2"/>
<path d="M44.2988 37.9512V23.9124C44.2988 23.4708 44.6563 23.1133 45.0973 23.1133H39.1058C38.6641 23.1133 38.3066 23.4708 38.3066 23.9124V37.9512C38.3066 38.3929 38.6641 38.7504 39.1058 38.7504H45.0973C44.6563 38.7504 44.2988 38.3929 44.2988 37.9512Z" fill="#719DD1"/>
<path d="M70.2622 22.3145H39.1054C38.2241 22.3145 37.5078 23.0315 37.5078 23.912V37.9522C37.5078 38.8328 38.2241 39.5498 39.1054 39.5498H70.2622C71.1428 39.5498 71.8598 38.8328 71.8598 37.9522V23.912C71.8598 23.0315 71.1428 22.3145 70.2622 22.3145ZM39.1054 37.9522V23.912H70.2622L70.2629 37.9522H39.1054Z" fill="#284268"/>
<path d="M68.2659 76.2432H40.9046C40.4629 76.2432 40.1055 76.6013 40.1055 77.0423C40.1055 77.4833 40.4629 77.8414 40.9046 77.8414H68.2659C68.7075 77.8414 69.065 77.4833 69.065 77.0423C69.065 76.6013 68.7075 76.2432 68.2659 76.2432Z" fill="#284268"/>
<path d="M64.2714 82.2598H44.8988C44.4571 82.2598 44.0996 82.6172 44.0996 83.0582C44.0996 83.4999 44.4571 83.8574 44.8988 83.8574H64.2714C64.713 83.8574 65.0705 83.4999 65.0705 83.0582C65.0705 82.6172 64.713 82.2598 64.2714 82.2598Z" fill="#284268"/>
<path d="M82.2451 15.0834V14.9654C82.2451 10.0636 78.2977 6.07617 73.4456 6.07617H23.5269C23.086 6.07617 22.7285 6.43365 22.7285 6.87462V13.6942H19.732C19.2911 13.6942 18.9336 14.0517 18.9336 14.4934C18.9336 14.9344 19.2911 15.2918 19.732 15.2918H22.7285V21.1122H19.732C19.2911 21.1122 18.9336 21.4696 18.9336 21.9106C18.9336 22.3523 19.2911 22.7098 19.732 22.7098H22.7285V28.1291H19.732C19.2911 28.1291 18.9336 28.4866 18.9336 28.9276C18.9336 29.3693 19.2911 29.7267 19.732 29.7267H22.7285V35.3463H19.732C19.2911 35.3463 18.9336 35.7037 18.9336 36.1454C18.9336 36.5864 19.2911 36.9438 19.732 36.9438H22.7285V42.7642H19.732C19.2911 42.7642 18.9336 43.1217 18.9336 43.5633C18.9336 44.0043 19.2911 44.3618 19.732 44.3618H22.7285V49.9813H19.732C19.2911 49.9813 18.9336 50.3395 18.9336 50.7804C18.9336 51.2214 19.2911 51.5796 19.732 51.5796H22.7285V56.9983H19.732C19.2911 56.9983 18.9336 57.3564 18.9336 57.7974C18.9336 58.2384 19.2911 58.5966 19.732 58.5966H22.7285V64.617H19.732C19.2911 64.617 18.9336 64.9745 18.9336 65.4155C18.9336 65.8571 19.2911 66.2146 19.732 66.2146H22.7285V71.634H19.732C19.2911 71.634 18.9336 71.9915 18.9336 72.4325C18.9336 72.8741 19.2911 73.2316 19.732 73.2316H22.7285V78.8511H19.732C19.2911 78.8511 18.9336 79.2086 18.9336 79.6503C18.9336 80.0912 19.2911 80.4487 19.732 80.4487H22.7285V86.0682H19.732C19.2911 86.0682 18.9336 86.4264 18.9336 86.8674C18.9336 87.3083 19.2911 87.6665 19.732 87.6665H22.7285V94.4854C22.7285 94.4937 22.7305 94.5013 22.7305 94.5096C22.7236 94.6704 22.7644 94.8346 22.8596 94.9802L25.8553 99.5356C26.003 99.7606 26.2535 99.8958 26.5227 99.8958H78.2805C83.1098 99.8958 87.0386 95.9084 87.0386 91.0066V23.0548C87.0386 19.6105 85.1767 16.5492 82.2451 15.0834ZM24.3261 87.6665H27.5213C27.9629 87.6665 28.3204 87.3083 28.3204 86.8674C28.3204 86.4264 27.9629 86.0682 27.5213 86.0682H24.3261V80.4487H27.5213C27.9629 80.4487 28.3204 80.0912 28.3204 79.6503C28.3204 79.2086 27.9629 78.8511 27.5213 78.8511H24.3261V73.2316H27.5213C27.9629 73.2316 28.3204 72.8741 28.3204 72.4325C28.3204 71.9915 27.9629 71.634 27.5213 71.634H24.3261V66.2146H27.5213C27.9629 66.2146 28.3204 65.8571 28.3204 65.4155C28.3204 64.9745 27.9629 64.617 27.5213 64.617H24.3261V58.5966H27.5213C27.9629 58.5966 28.3204 58.2384 28.3204 57.7974C28.3204 57.3564 27.9629 56.9983 27.5213 56.9983H24.3261V51.5796H27.5213C27.9629 51.5796 28.3204 51.2214 28.3204 50.7804C28.3204 50.3395 27.9629 49.9813 27.5213 49.9813H24.3261V44.3618H27.5213C27.9629 44.3618 28.3204 44.0043 28.3204 43.5633C28.3204 43.1217 27.9629 42.7642 27.5213 42.7642H24.3261V36.9438H27.5213C27.9629 36.9438 28.3204 36.5864 28.3204 36.1454C28.3204 35.7037 27.9629 35.3463 27.5213 35.3463H24.3261V29.7267H27.5213C27.9629 29.7267 28.3204 29.3693 28.3204 28.9276C28.3204 28.4866 27.9629 28.1291 27.5213 28.1291H24.3261V22.7098H27.5213C27.9629 22.7098 28.3204 22.3523 28.3204 21.9106C28.3204 21.4696 27.9629 21.1122 27.5213 21.1122H24.3261V15.2918H27.5213C27.9629 15.2918 28.3204 14.9344 28.3204 14.4934C28.3204 14.0517 27.9629 13.6942 27.5213 13.6942H24.3261V7.67376H73.4456C77.4165 7.67376 80.6475 10.9449 80.6475 14.9654V15.2132C80.6399 15.2283 80.6303 15.2414 80.6241 15.2566L80.6475 86.3553C80.6475 90.3979 77.4165 93.687 73.4456 93.687H24.3261V87.6665ZM85.441 91.0066C85.441 95.0272 82.2286 98.2976 78.2805 98.2976H26.954L24.972 95.2846H73.4456C78.2977 95.2846 82.2451 91.2792 82.2451 86.3553V16.9315C84.2188 18.2393 85.441 20.5166 85.441 23.0555V91.0066Z" fill="#284268"/>
</svg>
