<svg width="173" height="186" viewBox="0 0 173 186" fill="none" xmlns="http://www.w3.org/2000/svg">
<path d="M43.0649 29.352V26.632H40.2489V8.584H44.3129V25H51.5449V22.248H55.6409V26.632H52.7929V29.352H43.0649ZM62.3461 29.352V26.632H59.5301V11.336H62.3461V8.584H72.0741V11.336H74.9221V15.688H70.8261V12.968H63.5941V16.808H69.2581V21.128H63.5941V25H70.8261V22.248H74.9221V26.632H72.0741V29.352H62.3461ZM78.8114 29.352V14.056H81.6274V11.336H84.4434V8.584H88.5394V11.336H91.3554V14.056H94.2034V29.352H90.1074V23.88H82.8754V29.352H78.8114ZM82.8754 19.496H90.1074V15.688H87.2914V12.968H85.6914V15.688H82.8754V19.496ZM98.0926 29.352V11.336H100.909V8.584H110.637V11.336H113.485V21.128H110.637V23.88H109.261V25H112.045V29.352H108.013V26.632H105.133V23.88H102.157V29.352H98.0926ZM102.157 19.496H109.389V12.968H102.157V19.496ZM117.374 29.352V8.584H121.438V11.336H124.254V14.056H127.102V22.248H128.67V8.584H132.766V29.352H128.67V26.632H125.854V23.88H123.006V15.688H121.438V29.352H117.374Z" fill="#1E1E2F"/>
<path d="M110.746 149.629C110.717 151.139 110.347 152.591 109.72 153.96C110.432 155.528 110.802 157.181 110.746 158.89V158.919C110.717 160.429 110.347 161.883 109.72 163.252C110.432 164.819 110.802 166.471 110.746 168.182C110.489 177.53 98.0648 184.996 83.0163 184.826C67.9695 184.654 55.9987 176.932 56.2554 167.583C56.2838 166.073 56.6539 164.619 57.2807 163.252C56.5689 161.683 56.1988 160.031 56.2554 158.32V158.292C56.2838 156.781 56.6539 155.327 57.2807 153.96C56.5689 152.393 56.1988 150.739 56.2554 149.03C56.3121 146.75 57.1107 144.584 58.4778 142.618C58.6779 143.872 59.0197 145.069 59.6466 146.151C60.7303 147.975 62.5543 149.2 64.3782 150.199C70.3335 153.475 76.9175 154.816 83.5865 154.759C90.2554 154.816 96.8093 153.475 102.795 150.199C104.647 149.2 106.471 147.947 107.526 146.151C108.125 145.126 108.467 143.985 108.665 142.816C110.062 144.926 110.802 147.235 110.746 149.629Z" fill="#F8F9FD"/>
<path d="M128.273 84.5066V84.5367C128.217 83.8514 128.16 83.1395 128.073 82.4276C125.052 58.6294 104.59 44.066 83.5865 43.811C62.5543 44.066 42.0906 58.6294 39.0997 82.4559C39.0129 83.1678 38.9562 83.8797 38.8996 84.565V84.5933C38.8996 84.5933 38.8996 84.5933 38.8996 84.6217C38.8996 84.6217 38.8996 84.6217 38.8996 84.5933V84.6217C38.8996 84.6217 38.8996 84.6217 38.8996 84.65C37.5307 105.682 55.7986 119.277 58.1078 139.569C58.3646 141.848 58.5062 144.27 59.675 146.238C60.7587 148.062 62.5827 149.287 64.4066 150.284C70.3619 153.562 76.9459 154.901 83.6149 154.844C90.2838 154.901 96.8394 153.562 102.823 150.284C104.675 149.287 106.499 148.032 107.555 146.238C108.723 144.242 108.865 141.848 109.122 139.569C111.401 119.277 129.671 105.711 128.33 84.65C128.33 84.65 128.33 84.65 128.33 84.6217V84.5933C128.33 84.5933 128.33 84.5933 128.33 84.6217C128.33 84.6217 128.33 84.6217 128.33 84.5933C128.273 84.5367 128.273 84.5367 128.273 84.5066ZM38.8996 84.5066C38.8996 84.5367 38.8996 84.5367 38.8996 84.565C38.8996 84.5367 38.8996 84.5066 38.8996 84.4782C38.8996 84.4782 38.8996 84.4782 38.8996 84.5066ZM38.8996 84.3932C38.8996 84.3649 38.8996 84.3649 38.8996 84.3366V84.3932Z" fill="#00CED1"/>
<path d="M51.439 57.0621C51.6107 56.8921 51.7807 56.7204 51.9808 56.5486H51.439V57.0621Z" fill="#1E1E2F"/>
<path d="M95.1572 45.4348C95.329 45.4915 95.4707 45.5198 95.6424 45.5765V45.4348H95.1572Z" fill="#1E1E2F"/>
<path d="M123.428 105.654C123.315 105.882 123.228 106.081 123.115 106.309H123.428V105.654Z" fill="#1E1E2F"/>
<path d="M73.4414 45.0364C73.213 45.093 72.9845 45.1497 72.7844 45.2064H73.4414V45.0364Z" fill="#1E1E2F"/>
<path d="M112.541 60.8252H112.313V61.8788H111.259V62.1073H112.313V63.1326H112.541V62.1073H113.597V61.8788H112.541V60.8252Z" fill="#1E1E2F"/>
<path d="M118.098 66.3821H117.872V67.4074H116.816V67.6642H117.872V68.6895H118.098V67.6642H119.126V67.4074H118.098V66.3821Z" fill="#1E1E2F"/>
<path d="M123.657 71.939H123.429V72.9643H122.375V73.1927H123.429V74.2481H123.657V73.1927H124.682V72.9643H123.657V71.939Z" fill="#1E1E2F"/>
<path d="M112.541 71.939H112.313V72.9643H111.259V73.1927H112.313V74.2481H112.541V73.1927H113.597V72.9643H112.541V71.939Z" fill="#1E1E2F"/>
<path d="M118.098 77.4958H117.872V78.5229H116.816V78.7514H117.872V79.805H118.098V78.7514H119.126V78.5229H118.098V77.4958Z" fill="#1E1E2F"/>
<path d="M123.657 83.0544H123.429V84.0798H122.375V84.3082H123.429V85.3618H123.657V84.3082H124.682V84.0798H123.657V83.0544Z" fill="#1E1E2F"/>
<path d="M112.541 83.0544H112.313V84.0798H111.259V84.3082H112.313V85.3618H112.541V84.3082H113.597V84.0798H112.541V83.0544Z" fill="#1E1E2F"/>
<path d="M127.932 89.6367V89.8652H128.13C128.13 89.7802 128.13 89.7235 128.16 89.6367H127.932Z" fill="#1E1E2F"/>
<path d="M118.098 88.6113H117.872V89.6366H116.816V89.8651H117.872V90.9205H118.098V89.8651H119.126V89.6366H118.098V88.6113Z" fill="#1E1E2F"/>
<path d="M123.657 94.1399H123.429V95.1953H122.375V95.422H123.429V96.4774H123.657V95.422H124.682V95.1953H123.657V94.1399Z" fill="#1E1E2F"/>
<path d="M112.541 94.1399H112.313V95.1953H111.259V95.422H112.313V96.4774H112.541V95.422H113.597V95.1953H112.541V94.1399Z" fill="#1E1E2F"/>
<path d="M118.098 99.6968H117.872V100.752H116.816V100.981H117.872V102.034H118.098V100.981H119.126V100.752H118.098V99.6968Z" fill="#1E1E2F"/>
<path d="M122.375 106.309V106.538H123.002C123.03 106.453 123.087 106.394 123.115 106.309H122.375Z" fill="#1E1E2F"/>
<path d="M123.428 105.654C123.485 105.512 123.542 105.397 123.6 105.255H123.428V105.654Z" fill="#1E1E2F"/>
<path d="M112.541 105.255H112.313V106.309H111.259V106.537H112.313V107.563H112.541V106.537H113.597V106.309H112.541V105.255Z" fill="#1E1E2F"/>
<path d="M118.098 110.812H117.872V111.866H116.816V112.094H117.872V113.121H118.098V112.094H119.126V111.866H118.098V110.812Z" fill="#1E1E2F"/>
<path d="M112.541 116.369H112.313V117.425H111.259V117.653H112.313V118.678H112.541V117.653H113.597V117.425H112.541V116.369Z" fill="#1E1E2F"/>
<path d="M111.259 128.738H111.714C111.744 128.653 111.773 128.597 111.801 128.51H111.259V128.738Z" fill="#1E1E2F"/>
<path d="M95.1571 45.4349C94.9854 45.3783 94.787 45.3499 94.5869 45.2915V45.4349H95.1571Z" fill="#1E1E2F"/>
<path d="M95.6423 46.4886H95.869V45.6351C95.784 45.605 95.7273 45.5767 95.6423 45.5767V46.4886Z" fill="#1E1E2F"/>
<path d="M84.7835 44.1528H84.5268V45.2065H83.5015V45.4349H84.5268V46.4886H84.7835V45.4349H85.8089V45.2065H84.7835V44.1528Z" fill="#1E1E2F"/>
<path d="M72.386 45.2065V45.2915C72.4993 45.2632 72.6428 45.2349 72.7561 45.2065H72.386Z" fill="#1E1E2F"/>
<path d="M73.4414 45.4349V46.4885H73.6681V45.4349H74.7235V45.2065H73.6681V44.978C73.5831 45.0081 73.5264 45.0081 73.4414 45.0365V45.2065H72.7844C72.6711 45.2348 72.5294 45.2631 72.4143 45.2915V45.4349H73.4414Z" fill="#1E1E2F"/>
<path d="M101.428 49.7097H101.199V50.7634H100.172V50.9918H101.199V52.0189H101.428V50.9918H102.481V50.7634H101.428V49.7097Z" fill="#1E1E2F"/>
<path d="M90.3123 49.7097H90.0839V50.7634H89.0586V50.9918H90.0839V52.0189H90.3123V50.9918H91.3678V50.7634H90.3123V49.7097Z" fill="#1E1E2F"/>
<path d="M79.2267 49.7097H78.9983V50.7634H77.9429V50.9918H78.9983V52.0189H79.2267V50.9918H80.252V50.7634H79.2267V49.7097Z" fill="#1E1E2F"/>
<path d="M68.1112 49.7097H67.8827V50.7634H66.8291V50.9918H67.8827V52.0189H68.1112V50.9918H69.1365V50.7634H68.1112V49.7097Z" fill="#1E1E2F"/>
<path d="M106.984 55.2666H106.756V56.322H105.702V56.5487H106.756V57.5758H106.984V56.5487H108.038V56.322H106.984V55.2666Z" fill="#1E1E2F"/>
<path d="M95.869 55.2666H95.6423V56.322H94.6152V56.5487H95.6423V57.5758H95.869V56.5487H96.9244V56.322H95.869V55.2666Z" fill="#1E1E2F"/>
<path d="M84.7835 55.2666H84.5268V56.322H83.5015V56.5487H84.5268V57.5758H84.7835V56.5487H85.8089V56.322H84.7835V55.2666Z" fill="#1E1E2F"/>
<path d="M73.6681 55.2666H73.4414V56.322H72.386V56.5487H73.4414V57.5758H73.6681V56.5487H74.6952V56.322H73.6681V55.2666Z" fill="#1E1E2F"/>
<path d="M101.428 60.8252H101.199V61.8788H100.172V62.1073H101.199V63.1326H101.428V62.1073H102.481V61.8788H101.428V60.8252Z" fill="#1E1E2F"/>
<path d="M90.3123 60.8252H90.0839V61.8788H89.0586V62.1073H90.0839V63.1326H90.3123V62.1073H91.3678V61.8788H90.3123V60.8252Z" fill="#1E1E2F"/>
<path d="M79.2267 60.8252H78.9983V61.8788H77.9429V62.1073H78.9983V63.1326H79.2267V62.1073H80.252V61.8788H79.2267V60.8252Z" fill="#1E1E2F"/>
<path d="M68.1112 60.8252H67.8827V61.8788H66.8291V62.1073H67.8827V63.1326H68.1112V62.1073H69.1365V61.8788H68.1112V60.8252Z" fill="#1E1E2F"/>
<path d="M106.984 66.3821H106.756V67.4074H105.702V67.6642H106.756V68.6895H106.984V67.6642H108.038V67.4074H106.984V66.3821Z" fill="#1E1E2F"/>
<path d="M95.869 66.3821H95.6423V67.4074H94.6152V67.6642H95.6423V68.6895H95.869V67.6642H96.9244V67.4074H95.869V66.3821Z" fill="#1E1E2F"/>
<path d="M84.7835 66.3821H84.5268V67.4074H83.5015V67.6642H84.5268V68.6895H84.7835V67.6642H85.8089V67.4074H84.7835V66.3821Z" fill="#1E1E2F"/>
<path d="M73.6681 66.3821H73.4414V67.4074H72.386V67.6642H73.4414V68.6895H73.6681V67.6642H74.6952V67.4074H73.6681V66.3821Z" fill="#1E1E2F"/>
<path d="M101.428 71.939H101.199V72.9643H100.172V73.1927H101.199V74.2481H101.428V73.1927H102.481V72.9643H101.428V71.939Z" fill="#1E1E2F"/>
<path d="M90.3123 71.939H90.0839V72.9643H89.0586V73.1927H90.0839V74.2481H90.3123V73.1927H91.3678V72.9643H90.3123V71.939Z" fill="#1E1E2F"/>
<path d="M79.2267 71.939H78.9983V72.9643H77.9429V73.1927H78.9983V74.2481H79.2267V73.1927H80.252V72.9643H79.2267V71.939Z" fill="#1E1E2F"/>
<path d="M68.1112 71.939H67.8827V72.9643H66.8291V73.1927H67.8827V74.2481H68.1112V73.1927H69.1365V72.9643H68.1112V71.939Z" fill="#1E1E2F"/>
<path d="M106.984 77.4958H106.756V78.5229H105.702V78.7514H106.756V79.805H106.984V78.7514H108.038V78.5229H106.984V77.4958Z" fill="#1E1E2F"/>
<path d="M95.869 77.4958H95.6423V78.5229H94.6152V78.7514H95.6423V79.805H95.869V78.7514H96.9244V78.5229H95.869V77.4958Z" fill="#1E1E2F"/>
<path d="M84.7835 77.4958H84.5268V78.5229H83.5015V78.7514H84.5268V79.805H84.7835V78.7514H85.8089V78.5229H84.7835V77.4958Z" fill="#1E1E2F"/>
<path d="M73.6681 77.4958H73.4414V78.5229H72.386V78.7514H73.4414V79.805H73.6681V78.7514H74.6952V78.5229H73.6681V77.4958Z" fill="#1E1E2F"/>
<path d="M101.428 83.0544H101.199V84.0798H100.172V84.3082H101.199V85.3618H101.428V84.3082H102.481V84.0798H101.428V83.0544Z" fill="#1E1E2F"/>
<path d="M90.3123 83.0544H90.0839V84.0798H89.0586V84.3082H90.0839V85.3618H90.3123V84.3082H91.3678V84.0798H90.3123V83.0544Z" fill="#1E1E2F"/>
<path d="M79.2267 83.0544H78.9983V84.0798H77.9429V84.3082H78.9983V85.3618H79.2267V84.3082H80.252V84.0798H79.2267V83.0544Z" fill="#1E1E2F"/>
<path d="M68.1112 83.0544H67.8827V84.0798H66.8291V84.3082H67.8827V85.3618H68.1112V84.3082H69.1365V84.0798H68.1112V83.0544Z" fill="#1E1E2F"/>
<path d="M106.984 88.6113H106.756V89.6366H105.702V89.8651H106.756V90.9205H106.984V89.8651H108.038V89.6366H106.984V88.6113Z" fill="#1E1E2F"/>
<path d="M95.869 88.6113H95.6423V89.6366H94.6152V89.8651H95.6423V90.9205H95.869V89.8651H96.9244V89.6366H95.869V88.6113Z" fill="#1E1E2F"/>
<path d="M84.7835 88.6113H84.5268V89.6366H83.5015V89.8651H84.5268V90.9205H84.7835V89.8651H85.8089V89.6366H84.7835V88.6113Z" fill="#1E1E2F"/>
<path d="M73.6681 88.6113H73.4414V89.6366H72.386V89.8651H73.4414V90.9205H73.6681V89.8651H74.6952V89.6366H73.6681V88.6113Z" fill="#1E1E2F"/>
<path d="M101.428 94.1399H101.199V95.1953H100.172V95.422H101.199V96.4774H101.428V95.422H102.481V95.1953H101.428V94.1399Z" fill="#1E1E2F"/>
<path d="M90.3123 94.1399H90.0839V95.1953H89.0586V95.422H90.0839V96.4774H90.3123V95.422H91.3678V95.1953H90.3123V94.1399Z" fill="#1E1E2F"/>
<path d="M79.2267 94.1399H78.9983V95.1953H77.9429V95.422H78.9983V96.4774H79.2267V95.422H80.252V95.1953H79.2267V94.1399Z" fill="#1E1E2F"/>
<path d="M68.1112 94.1399H67.8827V95.1953H66.8291V95.422H67.8827V96.4774H68.1112V95.422H69.1365V95.1953H68.1112V94.1399Z" fill="#1E1E2F"/>
<path d="M106.984 99.6968H106.756V100.752H105.702V100.981H106.756V102.034H106.984V100.981H108.038V100.752H106.984V99.6968Z" fill="#1E1E2F"/>
<path d="M95.869 99.6968H95.6423V100.752H94.6152V100.981H95.6423V102.034H95.869V100.981H96.9244V100.752H95.869V99.6968Z" fill="#1E1E2F"/>
<path d="M84.7835 99.6968H84.5268V100.752H83.5015V100.981H84.5268V102.034H84.7835V100.981H85.8089V100.752H84.7835V99.6968Z" fill="#1E1E2F"/>
<path d="M73.6681 99.6968H73.4414V100.752H72.386V100.981H73.4414V102.034H73.6681V100.981H74.6952V100.752H73.6681V99.6968Z" fill="#1E1E2F"/>
<path d="M101.428 105.255H101.199V106.309H100.172V106.537H101.199V107.563H101.428V106.537H102.481V106.309H101.428V105.255Z" fill="#1E1E2F"/>
<path d="M90.3123 105.255H90.0839V106.309H89.0586V106.537H90.0839V107.563H90.3123V106.537H91.3678V106.309H90.3123V105.255Z" fill="#1E1E2F"/>
<path d="M79.2267 105.255H78.9983V106.309H77.9429V106.537H78.9983V107.563H79.2267V106.537H80.252V106.309H79.2267V105.255Z" fill="#1E1E2F"/>
<path d="M68.1112 105.255H67.8827V106.309H66.8291V106.537H67.8827V107.563H68.1112V106.537H69.1365V106.309H68.1112V105.255Z" fill="#1E1E2F"/>
<path d="M106.984 110.812H106.756V111.866H105.702V112.094H106.756V113.121H106.984V112.094H108.038V111.866H106.984V110.812Z" fill="#1E1E2F"/>
<path d="M95.869 110.812H95.6423V111.866H94.6152V112.094H95.6423V113.121H95.869V112.094H96.9244V111.866H95.869V110.812Z" fill="#1E1E2F"/>
<path d="M84.7835 110.812H84.5268V111.866H83.5015V112.094H84.5268V113.121H84.7835V112.094H85.8089V111.866H84.7835V110.812Z" fill="#1E1E2F"/>
<path d="M73.6681 110.812H73.4414V111.866H72.386V112.094H73.4414V113.121H73.6681V112.094H74.6952V111.866H73.6681V110.812Z" fill="#1E1E2F"/>
<path d="M101.428 116.369H101.199V117.425H100.172V117.653H101.199V118.678H101.428V117.653H102.481V117.425H101.428V116.369Z" fill="#1E1E2F"/>
<path d="M90.3123 116.369H90.0839V117.425H89.0586V117.653H90.0839V118.678H90.3123V117.653H91.3678V117.425H90.3123V116.369Z" fill="#1E1E2F"/>
<path d="M79.2267 116.369H78.9983V117.425H77.9429V117.653H78.9983V118.678H79.2267V117.653H80.252V117.425H79.2267V116.369Z" fill="#1E1E2F"/>
<path d="M68.1112 116.369H67.8827V117.425H66.8291V117.653H67.8827V118.678H68.1112V117.653H69.1365V117.425H68.1112V116.369Z" fill="#1E1E2F"/>
<path d="M106.984 121.928H106.756V122.953H105.702V123.21H106.756V124.235H106.984V123.21H108.038V122.953H106.984V121.928Z" fill="#1E1E2F"/>
<path d="M95.869 121.928H95.6423V122.953H94.6152V123.21H95.6423V124.235H95.869V123.21H96.9244V122.953H95.869V121.928Z" fill="#1E1E2F"/>
<path d="M84.7835 121.928H84.5268V122.953H83.5015V123.21H84.5268V124.235H84.7835V123.21H85.8089V122.953H84.7835V121.928Z" fill="#1E1E2F"/>
<path d="M73.6681 121.928H73.4414V122.953H72.386V123.21H73.4414V124.235H73.6681V123.21H74.6952V122.953H73.6681V121.928Z" fill="#1E1E2F"/>
<path d="M101.428 127.485H101.199V128.51H100.172V128.739H101.199V129.792H101.428V128.739H102.481V128.51H101.428V127.485Z" fill="#1E1E2F"/>
<path d="M90.3123 127.485H90.0839V128.51H89.0586V128.739H90.0839V129.792H90.3123V128.739H91.3678V128.51H90.3123V127.485Z" fill="#1E1E2F"/>
<path d="M79.2267 127.485H78.9983V128.51H77.9429V128.739H78.9983V129.792H79.2267V128.739H80.252V128.51H79.2267V127.485Z" fill="#1E1E2F"/>
<path d="M68.1112 127.485H67.8827V128.51H66.8291V128.739H67.8827V129.792H68.1112V128.739H69.1365V128.51H68.1112V127.485Z" fill="#1E1E2F"/>
<path d="M106.984 133.042H106.756V134.069H105.702V134.295H106.756V135.351H106.984V134.295H108.038V134.069H106.984V133.042Z" fill="#1E1E2F"/>
<path d="M95.869 133.042H95.6423V134.069H94.6152V134.295H95.6423V135.351H95.869V134.295H96.9244V134.069H95.869V133.042Z" fill="#1E1E2F"/>
<path d="M84.7835 133.042H84.5268V134.069H83.5015V134.295H84.5268V135.351H84.7835V134.295H85.8089V134.069H84.7835V133.042Z" fill="#1E1E2F"/>
<path d="M73.6681 133.042H73.4414V134.069H72.386V134.295H73.4414V135.351H73.6681V134.295H74.6952V134.069H73.6681V133.042Z" fill="#1E1E2F"/>
<path d="M101.428 138.599H101.199V139.626H100.172V139.854H101.199V140.908H101.428V139.854H102.481V139.626H101.428V138.599Z" fill="#1E1E2F"/>
<path d="M90.3123 138.599H90.0839V139.626H89.0586V139.854H90.0839V140.908H90.3123V139.854H91.3678V139.626H90.3123V138.599Z" fill="#1E1E2F"/>
<path d="M79.2267 138.599H78.9983V139.626H77.9429V139.854H78.9983V140.908H79.2267V139.854H80.252V139.626H79.2267V138.599Z" fill="#1E1E2F"/>
<path d="M68.1112 138.599H67.8827V139.626H66.8291V139.854H67.8827V140.908H68.1112V139.854H69.1365V139.626H68.1112V138.599Z" fill="#1E1E2F"/>
<path d="M108.038 145.411V145.182H107.925C107.897 145.267 107.868 145.326 107.84 145.411H108.038Z" fill="#1E1E2F"/>
<path d="M106.984 144.129H106.756V145.183H105.702V145.411H106.756V146.465H106.984V145.411H107.84C107.868 145.326 107.896 145.268 107.925 145.183H106.984V144.129Z" fill="#1E1E2F"/>
<path d="M95.869 144.129H95.6423V145.183H94.6152V145.411H95.6423V146.465H95.869V145.411H96.9244V145.183H95.869V144.129Z" fill="#1E1E2F"/>
<path d="M84.7835 144.129H84.5268V145.183H83.5015V145.411H84.5268V146.465H84.7835V145.411H85.8089V145.183H84.7835V144.129Z" fill="#1E1E2F"/>
<path d="M73.6681 144.129H73.4414V145.183H72.386V145.411H73.4414V146.465H73.6681V145.411H74.6952V145.183H73.6681V144.129Z" fill="#1E1E2F"/>
<path d="M101.428 149.686H101.199V150.739H100.172V150.968H101.228V150.996C101.399 150.911 101.598 150.826 101.769 150.739H101.456V149.686H101.428Z" fill="#1E1E2F"/>
<path d="M90.3123 149.686H90.0839V150.739H89.0586V150.968H90.0839V152.023H90.3123V150.968H91.3678V150.739H90.3123V149.686Z" fill="#1E1E2F"/>
<path d="M79.2267 149.686H78.9983V150.739H77.9429V150.968H78.9983V152.023H79.2267V150.968H80.252V150.739H79.2267V149.686Z" fill="#1E1E2F"/>
<path d="M67.8828 152.023H68.0546C67.9979 151.995 67.9395 151.965 67.8828 151.965V152.023Z" fill="#1E1E2F"/>
<path d="M68.1112 150.968H69.1648V150.739H68.1112V149.686H67.8827V150.739H66.8291V150.968H67.8827V151.936C67.9394 151.965 67.9979 151.995 68.0545 151.995H68.1112V150.968Z" fill="#1E1E2F"/>
<path d="M62.5544 99.6968H62.3259V100.752H61.2705V100.981H62.3259V102.034H62.5544V100.981H63.608V100.752H62.5544V99.6968Z" fill="#1E1E2F"/>
<path d="M51.4388 99.6968H51.2104V100.752H50.1851V100.981H51.2104V102.034H51.4388V100.981H52.4942V100.752H51.4388V99.6968Z" fill="#1E1E2F"/>
<path d="M56.9957 105.255H56.769V106.309H55.7136V106.537H56.769V107.563H56.9957V106.537H58.0511V106.309H56.9957V105.255Z" fill="#1E1E2F"/>
<path d="M45.8819 105.255H45.6535V106.309H44.6282V106.537H45.6535V107.563H45.8819V106.537H46.9356V106.309H45.8819V105.255Z" fill="#1E1E2F"/>
<path d="M62.5544 110.812H62.3259V111.866H61.2705V112.094H62.3259V113.121H62.5544V112.094H63.608V111.866H62.5544V110.812Z" fill="#1E1E2F"/>
<path d="M51.4388 110.812H51.2104V111.866H50.1851V112.094H51.2104V113.121H51.4388V112.094H52.4942V111.866H51.4388V110.812Z" fill="#1E1E2F"/>
<path d="M56.9957 116.369H56.769V117.425H55.7136V117.653H56.769V118.678H56.9957V117.653H58.0511V117.425H56.9957V116.369Z" fill="#1E1E2F"/>
<path d="M62.5544 121.928H62.3259V122.953H61.2705V123.21H62.3259V124.235H62.5544V123.21H63.608V122.953H62.5544V121.928Z" fill="#1E1E2F"/>
<path d="M56.9957 127.485H56.769V128.51H55.7136V128.739H56.769V129.792H56.9957V128.739H58.0511V128.51H56.9957V127.485Z" fill="#1E1E2F"/>
<path d="M62.5544 133.042H62.3259V134.069H61.2705V134.295H62.3259V135.351H62.5544V134.295H63.608V134.069H62.5544V133.042Z" fill="#1E1E2F"/>
<path d="M58.0512 139.625C58.0228 139.71 58.0512 139.767 58.0512 139.854V139.625Z" fill="#1E1E2F"/>
<path d="M62.5544 144.129H62.3259V145.183H61.2705V145.411H62.3259V146.465H62.5544V145.411H63.608V145.183H62.5544V144.129Z" fill="#1E1E2F"/>
<path d="M62.5544 55.2666H62.3259V56.322H61.2705V56.5487H62.3259V57.5758H62.5544V56.5487H63.608V56.322H62.5544V55.2666Z" fill="#1E1E2F"/>
<path d="M51.4389 57.5758V57.0339C51.3539 57.1189 51.2972 57.2057 51.2104 57.2624V57.5475H51.4389V57.5758Z" fill="#1E1E2F"/>
<path d="M52.4943 56.5487V56.322H52.2375C52.1507 56.407 52.0657 56.4637 51.9807 56.5487H52.4943Z" fill="#1E1E2F"/>
<path d="M56.9957 60.8252H56.769V61.8788H55.7136V62.1073H56.769V63.1326H56.9957V62.1073H58.0511V61.8788H56.9957V60.8252Z" fill="#1E1E2F"/>
<path d="M62.5544 66.3821H62.3259V67.4074H61.2705V67.6642H62.3259V68.6895H62.5544V67.6642H63.608V67.4074H62.5544V66.3821Z" fill="#1E1E2F"/>
<path d="M51.4388 66.3821H51.2104V67.4074H50.1851V67.6642H51.2104V68.6895H51.4388V67.6642H52.4942V67.4074H51.4388V66.3821Z" fill="#1E1E2F"/>
<path d="M56.9957 71.939H56.769V72.9643H55.7136V73.1927H56.769V74.2481H56.9957V73.1927H58.0511V72.9643H56.9957V71.939Z" fill="#1E1E2F"/>
<path d="M45.8819 71.939H45.6535V72.9643H44.6282V73.1927H45.6535V74.2481H45.8819V73.1927H46.9356V72.9643H45.8819V71.939Z" fill="#1E1E2F"/>
<path d="M62.5544 77.4958H62.3259V78.5229H61.2705V78.7514H62.3259V79.805H62.5544V78.7514H63.608V78.5229H62.5544V77.4958Z" fill="#1E1E2F"/>
<path d="M51.4388 77.4958H51.2104V78.5229H50.1851V78.7514H51.2104V79.805H51.4388V78.7514H52.4942V78.5229H51.4388V77.4958Z" fill="#1E1E2F"/>
<path d="M40.0965 79.805H40.325V78.7514H41.3786V78.5229H40.325V77.4675H40.0965V78.5229H39.6981C39.668 78.6079 39.668 78.6646 39.6396 78.7514H40.0965V79.805Z" fill="#1E1E2F"/>
<path d="M56.9957 83.0544H56.769V84.0798H55.7136V84.3082H56.769V85.3618H56.9957V84.3082H58.0511V84.0798H56.9957V83.0544Z" fill="#1E1E2F"/>
<path d="M45.8819 83.0544H45.6535V84.0798H44.6282V84.3082H45.6535V85.3618H45.8819V84.3082H46.9356V84.0798H45.8819V83.0544Z" fill="#1E1E2F"/>
<path d="M62.5544 88.6113H62.3259V89.6366H61.2705V89.8651H62.3259V90.9205H62.5544V89.8651H63.608V89.6366H62.5544V88.6113Z" fill="#1E1E2F"/>
<path d="M51.4388 88.6113H51.2104V89.6366H50.1851V89.8651H51.2104V90.9205H51.4388V89.8651H52.4942V89.6366H51.4388V88.6113Z" fill="#1E1E2F"/>
<path d="M40.3249 88.6113H40.0964V89.6366H39.0693V89.8651H40.0964V90.9205H40.3249V89.8651H41.3785V89.6366H40.3249V88.6113Z" fill="#1E1E2F"/>
<path d="M56.9957 94.1399H56.769V95.1953H55.7136V95.422H56.769V96.4774H56.9957V95.422H58.0511V95.1953H56.9957V94.1399Z" fill="#1E1E2F"/>
<path d="M45.8819 94.1399H45.6535V95.1953H44.6282V95.422H45.6535V96.4774H45.8819V95.422H46.9356V95.1953H45.8819V94.1399Z" fill="#1E1E2F"/>
<path d="M105.189 107.935C105.189 119.904 95.4707 129.622 83.5017 129.622C71.5308 129.622 61.8125 119.904 61.8125 107.935C61.8125 95.9639 71.5308 86.2456 83.5017 86.2456C95.4707 86.2456 105.189 95.9639 105.189 107.935Z" fill="#F8F9FD"/>
<mask id="mask0_80_17" style="mask-type:luminance" maskUnits="userSpaceOnUse" x="38" y="43" width="92" height="143">
<path d="M38 43H129.12V185.46H38V43Z" fill="white"/>
</mask>
<g mask="url(#mask0_80_17)">
<path d="M109.834 139.597C110.861 130.563 115.192 122.696 119.382 115.116C124.482 105.882 129.756 96.334 129.014 84.5934V84.3933C128.957 83.7098 128.9 82.9979 128.815 82.3409C125.623 56.8639 103.622 43.2692 83.5582 43.0408C63.523 43.2692 41.5505 56.8639 38.3293 82.3409C38.2443 83.0546 38.1576 83.7664 38.1292 84.4783V84.5651C37.3607 96.3057 42.6608 105.882 47.7626 115.116C51.9524 122.696 56.2838 130.563 57.3091 139.597L57.3959 140.394C57.4809 141.108 57.5376 141.791 57.6527 142.503C56.3121 144.499 55.5436 146.721 55.4852 149.031C55.4285 150.711 55.7703 152.365 56.4556 153.961C55.857 155.358 55.5436 156.81 55.4852 158.292C55.4285 159.974 55.7703 161.627 56.4556 163.222C55.857 164.619 55.5436 166.073 55.4852 167.527C55.4002 170.918 56.7974 174.196 59.5333 177.074C64.5483 182.289 73.3263 185.453 83.0163 185.566C83.1881 185.566 83.3297 185.566 83.5015 185.566C98.7201 185.566 111.231 177.814 111.516 168.182C111.573 166.5 111.231 164.848 110.547 163.252C111.116 161.912 111.431 160.516 111.488 159.091V158.919C111.544 157.238 111.203 155.584 110.519 153.989C111.116 152.592 111.431 151.14 111.488 149.686C111.544 147.292 110.861 144.926 109.435 142.732C109.549 141.963 109.635 141.193 109.72 140.453L109.834 139.597ZM109.577 155.841C109.862 156.838 110.006 157.865 109.977 158.891C109.949 160.259 109.607 161.598 109.037 162.909C105.787 170.006 95.1288 174.851 83.073 174.764C71.474 174.651 61.1855 169.778 58.0511 162.909C57.3676 161.428 57.0541 159.888 57.0825 158.379V158.292C57.1108 157.467 57.2525 156.64 57.4809 155.813C61.5857 162.453 71.559 166.9 83.073 167.013C83.2447 167.013 83.3864 167.013 83.5582 167.013C95.0721 167.042 105.389 162.538 109.577 155.841ZM83.5015 184.056C83.3297 184.056 83.1881 184.056 83.0163 184.056C73.7247 183.943 65.3753 180.95 60.6436 176.048C58.1928 173.482 56.939 170.576 57.0258 167.612C57.0541 166.785 57.1958 165.93 57.4242 165.104C61.5272 171.743 71.5023 176.19 83.0163 176.303C83.1881 176.303 83.3297 176.303 83.5015 176.303C95.0721 176.303 105.389 171.802 109.577 165.104C109.862 166.101 110.006 167.127 109.977 168.154C109.72 176.988 97.8931 184.056 83.5015 184.056ZM109.977 149.601C109.949 150.968 109.607 152.308 109.009 153.647V153.675C105.759 160.771 95.1005 165.645 83.0446 165.503C71.4457 165.39 61.1571 160.516 58.0228 153.675V153.647C57.3392 152.165 57.0258 150.626 57.0541 149.059C57.1108 147.548 57.4809 146.066 58.1928 144.669C58.3929 145.326 58.6496 145.953 59.0197 146.58C60.2452 148.66 62.3542 149.971 64.0649 150.911C69.7067 153.989 76.1773 155.556 83.3014 155.556C83.5298 155.556 83.7282 155.556 83.9566 155.556C91.0824 155.556 97.5513 153.989 103.193 150.911C104.904 149.971 107.013 148.63 108.238 146.58C108.552 146.038 108.808 145.468 108.978 144.897C109.664 146.436 110.006 148.003 109.977 149.601ZM93.7883 114.717C97.2945 113.035 99.5169 109.045 99.1185 105.256C98.89 103.175 97.4362 100.724 95.1571 100.295C92.678 99.812 90.9107 101.949 90.4556 104.257C90.1705 105.626 90.1705 109.302 90.3121 114.062C88.3164 114.232 86.2374 113.662 84.6118 112.465C86.5792 110.299 87.5479 107.249 87.1494 104.287C86.8927 102.404 85.9807 101.037 84.6685 100.581C84.2984 100.439 83.9 100.411 83.4732 100.411C83.073 100.382 82.6745 100.439 82.2761 100.581C80.9639 101.066 80.0803 102.404 79.7952 104.287C79.3684 107.249 80.3654 110.271 82.3328 112.465C80.7071 113.69 78.6282 114.232 76.6325 114.062C76.7759 109.302 76.7759 105.626 76.4908 104.257C76.0056 101.921 74.2383 99.812 71.7875 100.295C69.5084 100.724 68.0545 103.175 67.8261 105.256C67.4277 109.045 69.6784 113.035 73.1563 114.717C73.7548 115.002 74.3817 115.231 75.0369 115.372C74.8935 118.82 74.6952 122.781 74.4667 126.801C67.4277 123.438 62.5543 116.228 62.5543 107.935C62.5543 96.3925 71.9309 87.0159 83.4732 87.0159C95.0155 87.0159 104.39 96.3925 104.39 107.935C104.39 116.256 99.5169 123.438 92.4779 126.801C92.2494 122.781 92.0228 118.82 91.9077 115.372C92.5629 115.231 93.1915 115.002 93.7883 114.717ZM91.851 113.805C91.7093 109.274 91.7093 105.826 91.9643 104.57C92.1928 103.375 93.0764 101.778 94.5019 101.778C94.6153 101.778 94.7587 101.778 94.872 101.806C96.3259 102.091 97.4362 103.887 97.5796 105.426C97.9214 108.59 96.0408 111.924 93.1047 113.32C92.7346 113.52 92.3079 113.662 91.851 113.805ZM83.5015 113.52C83.5582 113.577 83.6432 113.633 83.6998 113.69C85.6106 115.116 88.0331 115.771 90.3971 115.601C90.5406 119.192 90.7389 123.295 90.9957 127.428C88.66 128.312 86.1507 128.824 83.5015 128.824C80.8789 128.824 78.3431 128.34 76.0339 127.428C76.2907 123.295 76.4908 119.192 76.6325 115.601C78.9983 115.771 81.4208 115.116 83.3297 113.69C83.3581 113.633 83.4147 113.577 83.5015 113.52ZM81.3641 104.514C81.4208 104.2 81.5625 103.403 81.9627 102.776L81.991 102.805C82.3328 102.376 82.903 102.006 83.5015 101.978C84.0717 102.034 84.6685 102.376 85.012 102.805L85.0404 102.776C85.4388 103.403 85.6106 104.2 85.6389 104.514C85.9807 106.964 85.1537 109.559 83.5015 111.383C81.8759 109.53 81.0206 106.964 81.3641 104.514ZM75.1219 113.805C74.6952 113.69 74.2666 113.52 73.8682 113.32C70.9321 111.896 69.0515 108.59 69.3933 105.426C69.5651 103.915 70.647 102.091 72.1009 101.806C72.2443 101.778 72.3577 101.778 72.471 101.778C73.8965 101.778 74.7518 103.403 75.0086 104.57C75.2654 105.797 75.2654 109.274 75.1219 113.805ZM75.9206 129.052C78.2846 129.907 80.8506 130.362 83.5015 130.362C86.1507 130.362 88.7166 129.907 91.0824 129.052C91.7377 139.654 92.6213 150.171 93.0197 153.049C90.027 153.704 86.8927 154.046 83.5582 154.017C80.1954 154.046 77.0026 153.704 73.9532 153.02C74.3817 150.113 75.2654 139.626 75.9206 129.052ZM108.323 139.426L108.238 140.224C108.038 142.161 107.812 144.186 106.871 145.781C105.844 147.52 103.963 148.717 102.425 149.542C99.9738 150.883 97.3229 151.908 94.5586 152.65C94.1602 149.742 93.2765 139.027 92.6213 128.425C100.487 124.919 105.988 117.055 105.988 107.905C105.988 95.5372 95.9274 85.4487 83.5298 85.4487C71.1606 85.4487 61.0721 95.5088 61.0721 107.905C61.0721 117.055 66.5724 124.919 74.4384 128.425C73.7832 138.999 72.9279 149.629 72.4993 152.622C69.7935 151.88 67.1992 150.883 64.7767 149.542C63.2379 148.717 61.3572 147.52 60.3302 145.781C59.3899 144.186 59.1632 142.161 58.9631 140.224L58.8781 139.426C57.8227 130.077 53.4062 122.098 49.1314 114.375C43.8862 104.885 38.9279 95.9356 39.6398 84.7067V84.5367C39.6398 84.4783 39.6398 84.45 39.6398 84.3933C39.6982 83.7664 39.7549 83.1396 39.8115 82.541C42.9742 57.9176 64.2065 44.8081 83.5582 44.5796C102.938 44.8081 124.169 57.9176 127.305 82.541C127.39 83.1962 127.446 83.8798 127.503 84.5651V84.7351C128.217 95.9639 123.257 104.914 118.042 114.375C113.767 122.098 109.379 130.077 108.323 139.426Z" fill="#1E1E2F"/>
</g>
</svg>
