<svg width="105" height="69" viewBox="0 0 105 69" fill="none" xmlns="http://www.w3.org/2000/svg">
<mask id="mask0_4209_1720" style="mask-type:luminance" maskUnits="userSpaceOnUse" x="0" y="0" width="105" height="69">
<path d="M0 0H105V68.5234H0V0Z" fill="white"/>
</mask>
<g mask="url(#mask0_4209_1720)">
<path fill-rule="evenodd" clip-rule="evenodd" d="M7.53632 0.0214844H97.4401C99.4612 0.0214844 101.308 0.844916 102.655 2.19157C104.003 3.53822 104.826 5.38393 104.826 7.4043V61.1293C104.826 63.1489 104.003 64.9946 102.655 66.342C101.308 67.6887 99.4612 68.5121 97.4401 68.5121H7.53632C5.49022 68.5121 3.66869 67.6887 2.32126 66.342C0.973822 64.9946 0.150391 63.1489 0.150391 61.1293V7.4043C0.150391 5.35897 0.973822 3.53822 2.32126 2.19157C3.66869 0.844916 5.51517 0.0214844 7.53632 0.0214844Z" fill="black"/>
</g>
<path d="M8.03366 6.70703H96.9643C97.613 6.70703 98.162 7.25521 98.162 7.90397V60.6558C98.162 61.3038 97.638 61.8528 96.9643 61.8528H8.03366C7.35994 61.8528 6.83594 61.3288 6.83594 60.6558V7.90397C6.83594 7.23025 7.35994 6.70703 8.03366 6.70703Z" fill="white"/>
<path fill-rule="evenodd" clip-rule="evenodd" d="M52.3755 15.4611C51.7267 15.4611 51.1777 14.9121 51.1777 14.2633C51.1777 13.6154 51.7017 13.0664 52.3755 13.0664H88.8061C89.4548 13.0664 90.0038 13.6154 90.0038 14.2633C90.0038 14.9121 89.4798 15.4611 88.8061 15.4611H52.3755Z" fill="#00CED1"/>
<path fill-rule="evenodd" clip-rule="evenodd" d="M52.3755 22.1212C51.7267 22.1212 51.1777 21.5723 51.1777 20.9243C51.1777 20.2755 51.7017 19.7266 52.3755 19.7266H88.8061C89.4548 19.7266 90.0038 20.2755 90.0038 20.9243C90.0038 21.5723 89.4798 22.1212 88.8061 22.1212H52.3755Z" fill="#00CED1"/>
<path fill-rule="evenodd" clip-rule="evenodd" d="M47.5356 28.804C46.8868 28.804 46.3379 28.2808 46.3379 27.6071C46.3379 26.9334 46.8619 26.4102 47.5356 26.4102H88.807C89.4558 26.4102 90.0047 26.9334 90.0047 27.6071C90.0047 28.2808 89.4807 28.804 88.807 28.804H47.5356Z" fill="#00CED1"/>
<path fill-rule="evenodd" clip-rule="evenodd" d="M47.5356 35.465C46.8868 35.465 46.3379 34.941 46.3379 34.2673C46.3379 33.6193 46.8619 33.0703 47.5356 33.0703H88.807C89.4558 33.0703 90.0047 33.5943 90.0047 34.2673C90.0047 34.916 89.4807 35.465 88.807 35.465H47.5356Z" fill="#00CED1"/>
<path fill-rule="evenodd" clip-rule="evenodd" d="M16.1684 42.1232C15.4947 42.1232 14.9707 41.5992 14.9707 40.9262C14.9707 40.2775 15.5197 39.7285 16.1684 39.7285H88.8051C89.4538 39.7285 90.0028 40.2525 90.0028 40.9262C90.0028 41.5742 89.4788 42.1232 88.8051 42.1232H16.1684Z" fill="#00CED1"/>
<path fill-rule="evenodd" clip-rule="evenodd" d="M16.1684 48.8079C15.4947 48.8079 14.9707 48.2847 14.9707 47.611C14.9707 46.9622 15.5197 46.4141 16.1684 46.4141H88.8051C89.4538 46.4141 90.0028 46.9373 90.0028 47.611C90.0028 48.2598 89.4788 48.8079 88.8051 48.8079H16.1684Z" fill="#00CED1"/>
<path fill-rule="evenodd" clip-rule="evenodd" d="M16.1684 55.4669C15.4947 55.4669 14.9707 54.9429 14.9707 54.2692C14.9707 53.5963 15.5197 53.0723 16.1684 53.0723H88.8051C89.4538 53.0723 90.0028 53.5963 90.0028 54.2692C90.0028 54.918 89.4788 55.4669 88.8051 55.4669H16.1684Z" fill="#00CED1"/>
<path fill-rule="evenodd" clip-rule="evenodd" d="M19.2871 21.9704C19.2871 21.2974 19.8361 20.7734 20.4848 20.7734C26.2738 20.7734 35.4064 20.7734 41.1954 20.7734C41.8441 20.7734 42.3931 21.3224 42.3931 21.9704V28.9789C42.3931 29.428 42.1436 29.8273 41.7443 30.0519L31.3891 35.3145C31.0647 35.4892 30.6654 35.4892 30.2912 35.3145L19.9858 30.0768C19.5616 29.8772 19.2871 29.478 19.2871 28.9789V21.9704Z" fill="#3E3E3E"/>
<path fill-rule="evenodd" clip-rule="evenodd" d="M31.2898 13.1411L45.9618 19.1024C46.5607 19.3519 46.8601 20.0498 46.6106 20.6487C46.4858 20.9731 46.2363 21.1976 45.9618 21.2975L31.2898 27.258C30.9903 27.3827 30.666 27.3578 30.3915 27.258L15.7194 21.2975C15.1206 21.0479 14.8211 20.3493 15.0707 19.7504C15.1954 19.4268 15.445 19.2022 15.7194 19.1024L30.3915 13.1411C30.6909 13.0164 31.0153 13.0413 31.2898 13.1411Z" fill="#00CED1"/>
</svg>
