<svg width="37" height="37" viewBox="0 0 37 37" fill="none" xmlns="http://www.w3.org/2000/svg">
<path d="M35.4577 10.7923L24.666 18.5007L35.4577 26.209V10.7923Z" fill="#B3F0F2"/>
<path d="M21.5827 7.70898H4.62435C2.92147 7.70898 1.54102 9.08944 1.54102 10.7923V26.209C1.54102 27.9119 2.92147 29.2923 4.62435 29.2923H21.5827C23.2856 29.2923 24.666 27.9119 24.666 26.209V10.7923C24.666 9.08944 23.2856 7.70898 21.5827 7.70898Z" fill="#B3F0F2"/>
<path d="M35.4577 10.7923L24.666 18.5007L35.4577 26.209V10.7923Z" stroke="#1E1E1E" stroke-width="2.5" stroke-linecap="round" stroke-linejoin="round"/>
<path d="M21.5827 7.70898H4.62435C2.92147 7.70898 1.54102 9.08944 1.54102 10.7923V26.209C1.54102 27.9119 2.92147 29.2923 4.62435 29.2923H21.5827C23.2856 29.2923 24.666 27.9119 24.666 26.209V10.7923C24.666 9.08944 23.2856 7.70898 21.5827 7.70898Z" stroke="#1E1E1E" stroke-width="2.5" stroke-linecap="round" stroke-linejoin="round"/>
</svg>
