<svg xmlns="http://www.w3.org/2000/svg" xmlns:xlink="http://www.w3.org/1999/xlink" width="500" zoomAndPan="magnify" viewBox="0 0 375 374.999991" height="500" preserveAspectRatio="xMidYMid meet" version="1.0"><defs><clipPath id="cb2d28adb6"><path d="M 61.25 18 L 318 18 L 318 353.757812 L 61.25 353.757812 Z M 61.25 18 " clip-rule="nonzero"/></clipPath></defs><path fill="#fffcf6" d="M 300.261719 176.476562 C 295.996094 175.976562 291.804688 175.09375 287.648438 174.007812 C 281.65625 172.445312 275.84375 170.421875 270.445312 167.367188 C 265.402344 164.515625 260.445312 161.515625 255.671875 158.234375 C 251.472656 155.347656 247.324219 152.386719 243.1875 149.40625 C 239.5625 146.796875 236.226562 143.851562 233.308594 140.460938 C 230.613281 137.332031 227.9375 134.179688 225.34375 130.964844 C 222.683594 127.667969 220.167969 124.253906 217.527344 120.941406 C 214.109375 116.660156 210.945312 112.195312 207.910156 107.644531 C 204.8125 103.003906 201.78125 98.320312 198.847656 93.578125 C 195.636719 88.375 192.535156 83.105469 189.464844 77.820312 C 187.441406 74.34375 185.578125 70.773438 183.601562 67.273438 C 180.863281 62.417969 178.050781 57.597656 175.324219 52.734375 C 173.109375 48.789062 170.546875 45.105469 167.589844 41.679688 C 161.394531 34.511719 154.132812 28.78125 145.332031 25.125 C 140.160156 22.976562 134.898438 21.226562 129.179688 21.328125 C 125.425781 21.394531 121.675781 21.429688 117.960938 22.109375 C 113.992188 22.828125 110.144531 23.921875 106.425781 25.515625 C 92.929688 31.296875 79.683594 43.136719 73.089844 56.339844 C 70.738281 61.042969 68.714844 65.886719 67.53125 71.046875 C 66.59375 75.128906 65.855469 79.234375 65.515625 83.417969 C 65.1875 87.433594 65.277344 91.457031 65.207031 95.480469 C 65.203125 95.695312 65.207031 96.800781 65.207031 96.800781 C 65.207031 96.800781 65.957031 96.089844 66.773438 95.816406 C 67.921875 95.4375 69.277344 95.1875 70.746094 95.8125 C 71.902344 96.300781 72.882812 97.035156 73.761719 97.914062 C 76.925781 101.09375 78.0625 105.878906 79.09375 110.097656 C 80.273438 114.902344 80.882812 119.847656 80.910156 124.796875 C 80.941406 130.089844 81.394531 138.339844 76.164062 141.472656 C 74.039062 142.746094 71.054688 142.417969 69.855469 142.003906 C 69.140625 141.753906 68.589844 141.433594 68.589844 141.433594 C 68.589844 141.433594 68.753906 142.710938 68.839844 143.289062 C 69.433594 147.210938 70.023438 151.132812 70.65625 155.050781 C 71.613281 160.980469 72.4375 166.925781 73.546875 172.832031 C 74.410156 177.414062 75.210938 182.007812 76.066406 186.59375 C 76.824219 190.652344 77.632812 194.699219 78.394531 198.753906 C 79.539062 204.867188 80.648438 210.988281 81.796875 217.097656 C 82.34375 219.996094 83.007812 222.871094 83.523438 225.773438 C 84.457031 231 85.285156 236.242188 86.214844 241.46875 C 87.300781 247.539062 88.097656 253.652344 88.972656 259.753906 C 89.621094 264.265625 90.125 268.796875 90.640625 273.328125 C 90.773438 274.472656 91.308594 275.238281 92.320312 275.671875 C 93.054688 275.984375 93.820312 276.25 94.597656 276.441406 C 97.109375 277.0625 99.683594 277.25 102.253906 277.347656 C 108.4375 277.582031 114.582031 277.101562 120.683594 276.09375 C 123.070312 275.695312 125.402344 275.085938 127.640625 274.15625 C 128.90625 273.628906 130.007812 272.890625 130.726562 271.6875 C 131.386719 270.585938 131.234375 270.183594 130.046875 269.824219 C 129.738281 269.730469 129.417969 269.6875 129.101562 269.625 C 127.472656 269.296875 125.84375 268.976562 124.214844 268.644531 C 120.855469 267.957031 118.402344 266.054688 117.074219 262.890625 C 116.242188 260.914062 115.484375 258.929688 114.789062 256.898438 C 113.511719 253.140625 112.503906 249.300781 111.4375 245.480469 C 109.148438 237.273438 106.695312 229.109375 104.597656 220.847656 C 102.460938 212.429688 100.15625 204.058594 97.882812 195.675781 C 96.15625 189.308594 94.652344 182.894531 93.246094 176.449219 C 93.121094 175.875 93.011719 175.292969 92.960938 174.710938 C 92.910156 174.113281 93.152344 173.707031 93.5 173.679688 C 93.972656 173.640625 94.132812 174.007812 94.308594 174.335938 C 95.085938 175.8125 95.640625 177.378906 96.09375 178.980469 C 96.601562 180.789062 97.0625 182.609375 97.582031 184.410156 C 100.335938 193.992188 103.089844 203.574219 105.875 213.148438 C 107.195312 217.679688 108.210938 222.289062 109.460938 226.835938 C 111.394531 233.863281 113.394531 240.875 115.351562 247.898438 C 116.3125 251.359375 117.324219 254.804688 118.648438 258.148438 C 118.78125 258.480469 119.144531 259.226562 119.144531 259.226562 C 119.144531 259.226562 119.503906 258.960938 119.617188 258.859375 C 122.101562 256.613281 124.898438 254.835938 127.847656 253.269531 C 131.171875 251.503906 134.652344 250.105469 138.199219 248.878906 C 144.207031 246.796875 150.371094 245.523438 156.734375 245.125 C 159.988281 244.925781 163.65625 246.070312 163.65625 246.070312 C 163.65625 246.070312 163.140625 245.027344 162.953125 244.667969 C 162.15625 243.148438 161.324219 241.644531 160.5 240.140625 C 156.6875 233.179688 152.890625 226.207031 149.058594 219.257812 C 145.722656 213.199219 142.40625 207.128906 139.457031 200.863281 C 134.839844 191.039062 131.089844 180.894531 128.117188 170.460938 C 127.96875 169.945312 127.835938 169.421875 127.757812 168.894531 C 127.695312 168.476562 127.683594 168.035156 127.734375 167.617188 C 127.796875 167.074219 128.40625 166.871094 128.832031 167.203125 C 129.277344 167.546875 129.519531 168.027344 129.726562 168.519531 C 130.445312 170.195312 131.1875 171.859375 131.839844 173.5625 C 133.433594 177.71875 134.929688 181.90625 136.546875 186.050781 C 139.851562 194.503906 143.765625 202.679688 148.050781 210.667969 C 152.515625 218.980469 157.128906 227.214844 161.636719 235.507812 C 163.886719 239.652344 166.121094 243.804688 167.601562 248.320312 C 168.601562 251.371094 168.226562 254.125 166.265625 256.664062 C 165.90625 257.132812 165.511719 257.570312 165.160156 258.042969 C 164.332031 259.164062 163.949219 260.421875 164.015625 261.816406 C 164.066406 262.792969 164.480469 263.570312 165.320312 264.085938 C 166.492188 264.8125 167.957031 265.058594 169.339844 264.90625 C 171.097656 264.710938 172.65625 264.59375 174.410156 264.359375 C 176.859375 264.027344 179.253906 263.4375 181.65625 262.878906 C 185.894531 261.898438 190.070312 260.699219 194.035156 258.90625 C 198.773438 256.757812 203.402344 254.390625 207.808594 251.601562 C 211.722656 249.125 215.003906 246.027344 217.761719 242.335938 C 218.585938 241.234375 218.4375 240.417969 217.320312 239.65625 C 216.9375 239.394531 216.519531 239.367188 216.089844 239.375 C 214.585938 239.40625 213.085938 239.433594 211.585938 239.488281 C 210.1875 239.539062 208.796875 239.539062 207.40625 239.398438 C 204.484375 239.109375 202.085938 237.855469 200.230469 235.566406 C 199.183594 234.269531 198.214844 232.921875 197.378906 231.480469 C 194.117188 225.871094 190.777344 220.300781 187.617188 214.636719 C 181.0625 202.878906 174.65625 191.042969 167.929688 179.378906 C 163.269531 171.296875 158.75 163.128906 153.691406 155.277344 C 153.375 154.785156 153.109375 154.253906 152.847656 153.726562 C 152.707031 153.4375 152.589844 153.132812 152.519531 152.820312 C 152.433594 152.453125 152.394531 152.066406 152.789062 151.816406 C 153.171875 151.574219 153.542969 151.722656 153.832031 151.949219 C 154.335938 152.347656 154.835938 152.769531 155.253906 153.253906 C 156.265625 154.433594 157.269531 155.625 158.203125 156.867188 C 160.425781 159.828125 162.425781 162.945312 164.316406 166.128906 C 167.570312 171.617188 170.792969 177.128906 174.039062 182.621094 C 180.453125 193.472656 186.457031 204.554688 192.601562 215.558594 C 194.742188 219.402344 196.910156 223.226562 198.871094 227.164062 C 199.5625 228.554688 201.589844 231.679688 201.589844 231.679688 C 201.589844 231.679688 201.660156 231.382812 201.707031 231.242188 C 202.394531 229.046875 203.644531 227.1875 205.132812 225.472656 C 205.800781 224.703125 206.449219 223.914062 207.160156 223.183594 C 210.207031 220.027344 213.644531 217.398438 217.734375 215.734375 C 219.96875 214.824219 222.257812 214.066406 224.617188 213.527344 C 225.871094 213.242188 227.097656 212.847656 228.328125 212.46875 C 230.234375 211.886719 232.171875 211.503906 234.171875 211.484375 C 234.417969 211.480469 235.328125 211.460938 235.328125 211.460938 C 235.328125 211.460938 233.609375 209.964844 232.917969 209.402344 C 227.742188 205.210938 222.882812 200.667969 218.246094 195.890625 C 211.875 189.324219 206.105469 182.285156 201.316406 174.46875 C 199.238281 171.074219 197.476562 167.523438 195.898438 163.878906 C 195.6875 163.394531 195.546875 162.871094 195.4375 162.347656 C 195.382812 162.089844 195.53125 161.824219 195.78125 161.667969 C 196.058594 161.496094 196.300781 161.617188 196.503906 161.808594 C 196.699219 161.988281 196.890625 162.183594 197.039062 162.402344 C 197.910156 163.691406 198.839844 164.945312 199.617188 166.289062 C 203.425781 172.910156 207.828125 179.121094 212.757812 184.945312 C 219.082031 192.421875 226.179688 199.117188 233.792969 205.273438 C 236.421875 207.394531 239.078125 209.484375 241.515625 211.839844 C 242.171875 212.472656 242.800781 213.128906 243.34375 213.867188 C 244.285156 215.132812 244.957031 216.542969 245.328125 218.058594 C 245.867188 220.246094 245.402344 222.324219 244.3125 224.257812 C 243.597656 225.523438 242.683594 226.648438 241.710938 227.726562 C 241.097656 228.40625 240.539062 229.125 240.253906 230.015625 C 239.988281 230.84375 240.253906 231.402344 241.074219 231.605469 C 241.816406 231.789062 242.5625 231.703125 243.308594 231.558594 C 245.265625 231.183594 247.132812 230.535156 248.957031 229.734375 C 250.871094 228.894531 252.804688 228.101562 254.710938 227.242188 C 261.261719 224.292969 267.71875 221.152344 273.890625 217.449219 C 276.609375 215.820312 279.171875 213.960938 281.75 212.132812 C 283.058594 211.207031 284.257812 210.117188 285.457031 209.042969 C 286.246094 208.332031 287.378906 206.40625 287.378906 206.40625 C 287.378906 206.40625 287.019531 206.3125 286.8125 206.261719 C 281.5625 204.996094 276.5625 203.179688 271.742188 200.789062 C 264.609375 197.25 257.925781 192.980469 251.535156 188.25 C 246.839844 184.769531 242.214844 181.1875 237.460938 177.78125 C 229.210938 171.863281 221.265625 165.578125 214.105469 158.347656 C 211.539062 155.757812 208.757812 153.378906 206.289062 150.6875 C 205.855469 150.214844 205.421875 149.738281 205.023438 149.234375 C 204.828125 148.988281 204.691406 148.683594 204.582031 148.386719 C 204.539062 148.265625 204.601562 148.078125 204.667969 147.945312 C 204.757812 147.757812 204.953125 147.800781 205.085938 147.867188 C 205.421875 148.035156 205.761719 148.199219 206.058594 148.421875 C 206.910156 149.074219 207.761719 149.726562 208.582031 150.417969 C 212.152344 153.425781 215.648438 156.519531 219.039062 159.726562 C 220.558594 161.164062 222.144531 162.53125 223.742188 163.886719 C 229.929688 169.132812 236.539062 173.8125 243.257812 178.339844 C 245.570312 179.902344 247.863281 181.496094 250.101562 183.160156 C 254.277344 186.269531 258.601562 189.15625 262.949219 192.011719 C 268.347656 195.558594 274.070312 198.472656 279.992188 201.023438 C 281.417969 201.640625 285.199219 202.941406 285.199219 202.941406 C 285.199219 202.941406 285.054688 202.5625 285.03125 202.140625 C 284.632812 199.617188 285.742188 197.640625 286.988281 195.472656 C 287.464844 194.636719 287.972656 193.8125 288.542969 193.03125 C 289.585938 191.605469 290.632812 190.175781 291.765625 188.816406 C 295.351562 184.496094 299.339844 180.625 304.28125 177.84375 C 304.421875 177.765625 305.648438 177.226562 305.648438 177.226562 C 305.648438 177.226562 301.699219 176.644531 300.261719 176.476562 Z M 112.976562 127.109375 C 112.1875 132.117188 108.207031 138.171875 102.671875 138.398438 C 96.367188 138.65625 92.292969 131.070312 90.34375 126 C 87.738281 119.21875 86.15625 111.679688 86.175781 104.421875 C 86.1875 100.484375 86.5625 96.117188 88.214844 92.5 C 90.429688 87.652344 95.625 85.46875 100.367188 88.277344 C 104.8125 90.914062 106.980469 95.820312 108.683594 100.46875 C 110.445312 105.273438 111.992188 110.199219 112.800781 115.261719 C 113.003906 116.546875 113.160156 117.84375 113.257812 119.140625 C 113.453125 121.800781 113.394531 124.472656 112.976562 127.109375 Z M 112.976562 127.109375 " fill-opacity="1" fill-rule="nonzero"/><path fill="#fffcf6" d="M 111.359375 338.949219 C 108.597656 338.949219 106.359375 341.179688 106.34375 343.9375 C 106.359375 346.695312 108.597656 348.925781 111.359375 348.925781 C 114.121094 348.925781 116.363281 346.695312 116.378906 343.9375 C 116.363281 341.179688 114.121094 338.949219 111.359375 338.949219 Z M 111.359375 346.546875 C 109.902344 346.546875 108.722656 345.367188 108.722656 343.910156 C 108.722656 342.449219 109.902344 341.269531 111.359375 341.269531 C 112.816406 341.269531 114 342.453125 114 343.910156 C 114 345.363281 112.816406 346.546875 111.359375 346.546875 Z M 147.597656 338.949219 C 144.835938 338.949219 142.597656 341.179688 142.582031 343.9375 C 142.597656 346.695312 144.835938 348.925781 147.597656 348.925781 C 150.359375 348.925781 152.597656 346.695312 152.613281 343.9375 C 152.597656 341.179688 150.359375 338.949219 147.597656 338.949219 Z M 147.597656 346.546875 C 146.140625 346.546875 144.957031 345.367188 144.957031 343.910156 C 144.957031 342.449219 146.140625 341.269531 147.597656 341.269531 C 149.054688 341.269531 150.238281 342.453125 150.238281 343.910156 C 150.238281 345.363281 149.054688 346.546875 147.597656 346.546875 Z M 288.347656 302.695312 C 286.152344 301.023438 283.019531 301.4375 281.332031 303.625 C 279.648438 305.8125 280.050781 308.949219 282.222656 310.640625 C 284.417969 312.3125 287.554688 311.898438 289.238281 309.710938 C 290.921875 307.523438 290.523438 304.390625 288.347656 302.695312 Z M 285.285156 309.308594 C 283.828125 309.308594 282.644531 308.125 282.644531 306.667969 C 282.644531 305.210938 283.828125 304.03125 285.285156 304.03125 C 286.742188 304.03125 287.925781 305.210938 287.925781 306.667969 C 287.925781 308.125 286.742188 309.308594 285.285156 309.308594 Z M 310.460938 273.992188 C 308.265625 272.324219 305.128906 272.738281 303.445312 274.921875 C 301.761719 277.109375 302.164062 280.246094 304.335938 281.941406 C 306.53125 283.609375 309.667969 283.199219 311.351562 281.011719 C 313.035156 278.824219 312.636719 275.6875 310.460938 273.992188 Z M 307.398438 280.605469 C 305.941406 280.605469 304.757812 279.425781 304.757812 277.96875 C 304.757812 276.507812 305.941406 275.328125 307.398438 275.328125 C 308.855469 275.328125 310.039062 276.511719 310.039062 277.96875 C 310.039062 279.421875 308.855469 280.605469 307.398438 280.605469 Z M 307.398438 280.605469 " fill-opacity="1" fill-rule="nonzero"/><path fill="#eebeb2" d="M 163.035156 328.390625 C 163.695312 328.347656 164.5625 328.332031 164.5625 328.332031 C 164.5625 328.332031 164.535156 330.574219 164.496094 331.429688 C 164.46875 331.964844 164.1875 332.335938 163.65625 332.472656 C 162.929688 332.660156 162.203125 332.800781 161.445312 332.867188 C 150.453125 333.832031 116.179688 334.113281 103.40625 332.871094 C 99.742188 332.515625 96.011719 331.433594 93.261719 329.175781 C 88.859375 325.5625 89.804688 321.476562 89.804688 321.476562 C 89.804688 321.476562 92.398438 324.496094 99.957031 326.738281 C 103.710938 327.847656 108.835938 328.695312 112.734375 329.078125 C 117.492188 329.546875 122.28125 329.785156 127.054688 329.695312 C 130.007812 329.636719 132.957031 329.632812 135.90625 329.496094 C 139.660156 329.324219 143.410156 329.246094 147.164062 329.191406 C 150.222656 329.144531 152.738281 328.917969 155.792969 328.835938 C 158.316406 328.769531 160.519531 328.558594 163.039062 328.390625 Z M 144.914062 318.707031 C 143.890625 318.703125 142.878906 318.777344 141.882812 319.015625 C 140.796875 319.273438 139.914062 319.800781 139.292969 320.769531 C 138.828125 321.492188 138.457031 322.257812 138.023438 323 C 137.398438 324.082031 136.167969 326.449219 136.167969 326.449219 C 136.167969 326.449219 137.511719 326.457031 137.992188 326.445312 C 141.53125 326.367188 145.074219 326.410156 148.609375 326.222656 C 149.949219 326.222656 164.4375 325.648438 164.4375 325.648438 L 164.566406 318.484375 C 164.566406 318.484375 149.6875 318.71875 144.914062 318.707031 Z M 164.113281 286.324219 C 160.316406 286.082031 156.515625 285.824219 152.71875 285.617188 C 149.34375 285.4375 146.484375 285.453125 143.117188 285.179688 C 139.585938 284.890625 137.484375 284.804688 133.535156 284.675781 C 133.03125 284.65625 131.238281 284.675781 131.238281 284.675781 C 131.238281 284.675781 130.984375 287.425781 130.871094 288.492188 C 130.511719 291.847656 130.257812 295.34375 129.757812 298.695312 C 129.152344 302.71875 127.679688 305.824219 127.679688 305.824219 C 127.679688 305.824219 128.058594 306.140625 128.285156 306.28125 C 129.808594 307.210938 131.109375 308.496094 132.175781 309.933594 C 132.675781 310.609375 133.246094 311.3125 133.105469 312.195312 C 132.972656 313.023438 132.074219 313.425781 131.40625 312.933594 C 131.152344 312.746094 130.945312 312.488281 130.761719 312.234375 C 129.507812 310.519531 128.125 309.421875 126.453125 308.15625 C 126.144531 307.925781 125.890625 307.730469 125.890625 307.730469 C 125.890625 307.730469 124.050781 308.925781 122.433594 309.53125 C 121.535156 309.867188 120.015625 310.28125 120.015625 310.28125 C 120.015625 310.28125 120.757812 311.195312 121.09375 311.53125 C 122.050781 312.484375 122.863281 313.542969 123.527344 314.71875 C 123.707031 315.042969 123.875 315.386719 123.980469 315.738281 C 124.109375 316.167969 123.816406 316.753906 123.425781 316.984375 C 123.035156 317.214844 122.429688 317.148438 122.089844 316.796875 C 121.90625 316.609375 121.75 316.386719 121.609375 316.160156 C 120.675781 314.703125 117.355469 310.867188 117.355469 310.867188 C 117.355469 310.867188 115.339844 311.257812 114.050781 311.453125 C 112.3125 311.71875 111.175781 311.832031 109.125 312.183594 C 109.777344 312.878906 110.367188 313.445312 110.804688 313.90625 C 111.585938 314.726562 112.257812 315.625 112.777344 316.632812 C 113.027344 317.113281 113.203125 317.613281 113.15625 318.171875 C 113.125 318.582031 112.964844 318.894531 112.585938 319.066406 C 112.199219 319.246094 111.828125 319.144531 111.535156 318.890625 C 111.257812 318.648438 110.992188 318.359375 110.8125 318.042969 C 109.695312 316.015625 105.960938 312.351562 105.960938 312.351562 C 105.960938 312.351562 104.925781 312.40625 104 312.523438 C 102.40625 312.726562 101.953125 312.664062 100.359375 312.882812 C 99.550781 312.992188 98.597656 313.246094 98.597656 313.246094 C 98.597656 313.246094 99.730469 314.339844 99.996094 314.597656 C 100.933594 315.496094 101.679688 316.539062 102.375 317.628906 C 102.632812 318.039062 102.851562 318.464844 102.828125 318.976562 C 102.8125 319.367188 102.710938 319.726562 102.347656 319.933594 C 101.929688 320.171875 101.496094 320.097656 101.152344 319.804688 C 100.828125 319.53125 100.558594 319.1875 100.292969 318.855469 C 99.007812 317.261719 95.429688 314.121094 95.429688 314.121094 C 95.429688 314.121094 94.117188 314.507812 92.914062 315.570312 C 90.953125 317.304688 90.507812 318.816406 90.507812 318.816406 C 90.507812 318.816406 92.453125 320.679688 94.3125 321.726562 C 96.417969 322.914062 100.5625 324.210938 102.949219 324.671875 C 107.316406 325.515625 109.179688 325.710938 113.601562 326.238281 C 119.59375 326.953125 125.265625 326.699219 131.265625 326.660156 C 131.8125 326.660156 132.441406 326.570312 132.441406 326.570312 C 132.441406 326.570312 134.292969 323.519531 134.964844 322.238281 C 135.488281 321.242188 136.058594 320.273438 136.691406 319.339844 C 138.183594 317.148438 140.253906 316.03125 142.871094 315.773438 C 145.0625 315.5625 147.261719 315.546875 149.457031 315.519531 C 154.230469 315.464844 159 315.425781 163.769531 315.378906 C 164.46875 315.371094 164.5625 315.359375 164.5625 315.359375 C 164.5625 315.359375 164.859375 310.691406 164.914062 308.765625 C 165.066406 303.40625 165.203125 298.046875 165.339844 292.6875 C 165.386719 290.8125 165.402344 288.933594 165.449219 287.058594 C 165.457031 286.664062 165.449219 286.429688 165.449219 286.429688 C 165.449219 286.429688 164.378906 286.335938 164.113281 286.320312 Z M 307.800781 256.949219 C 307.148438 256.394531 305.390625 255.003906 305.390625 255.003906 C 305.390625 255.003906 304.871094 255.699219 304.503906 256.25 C 303.101562 258.347656 301.921875 260.21875 300.4375 262.257812 C 298.636719 264.730469 297.28125 266.859375 295.453125 269.308594 C 293.207031 272.316406 290.976562 275.339844 288.820312 278.414062 C 287.132812 280.832031 285.335938 283.175781 283.578125 285.542969 C 280.734375 289.382812 277.625 293.03125 274.347656 296.511719 C 271.667969 299.367188 267.867188 302.90625 264.699219 305.203125 C 258.3125 309.824219 254.332031 310.035156 254.332031 310.035156 C 254.332031 310.035156 256.992188 313.277344 262.542969 311.996094 C 266.007812 311.195312 269.144531 308.898438 271.660156 306.214844 C 280.441406 296.855469 301.132812 269.535156 307.078125 260.238281 C 307.488281 259.597656 307.820312 258.9375 308.113281 258.25 C 308.332031 257.746094 308.210938 257.292969 307.800781 256.945312 Z M 284.164062 267.285156 C 283.707031 268.300781 283.585938 269.324219 283.972656 270.402344 C 284.265625 271.210938 284.640625 271.976562 284.96875 272.773438 C 285.441406 273.925781 286.566406 276.347656 286.566406 276.347656 C 286.566406 276.347656 287.394531 275.285156 287.679688 274.898438 C 289.777344 272.046875 291.96875 269.269531 293.980469 266.355469 C 294.796875 265.292969 303.183594 253.46875 303.183594 253.46875 L 297.585938 248.992188 C 297.585938 248.992188 288.691406 260.917969 285.769531 264.695312 C 285.144531 265.503906 284.585938 266.351562 284.167969 267.285156 Z M 264.890625 301.570312 C 268.222656 298.628906 269.511719 297.269531 272.628906 294.089844 C 276.855469 289.777344 280.113281 285.136719 283.746094 280.355469 C 284.078125 279.921875 284.390625 279.367188 284.390625 279.367188 C 284.390625 279.367188 283.105469 276.042969 282.5 274.726562 C 282.027344 273.703125 281.605469 272.664062 281.253906 271.589844 C 280.429688 269.074219 280.808594 266.75 282.203125 264.523438 C 283.371094 262.652344 284.699219 260.90625 286.019531 259.148438 C 288.886719 255.335938 291.769531 251.535156 294.644531 247.726562 C 295.0625 247.171875 295.109375 247.085938 295.109375 247.085938 C 295.109375 247.085938 291.59375 244.003906 290.101562 242.785156 C 285.949219 239.390625 281.785156 236.011719 277.625 232.632812 C 276.167969 231.453125 274.691406 230.292969 273.230469 229.113281 C 272.921875 228.867188 272.730469 228.730469 272.730469 228.730469 C 272.730469 228.730469 272.003906 229.519531 271.828125 229.722656 C 269.320312 232.585938 266.796875 235.433594 264.3125 238.316406 C 262.113281 240.878906 260.378906 243.15625 258.105469 245.652344 C 255.722656 248.277344 254.371094 249.886719 251.859375 252.933594 C 251.539062 253.324219 250.460938 254.753906 250.460938 254.753906 C 250.460938 254.753906 252.484375 256.632812 253.257812 257.371094 C 255.699219 259.707031 258.3125 262.039062 260.660156 264.484375 C 263.480469 267.417969 265.042969 270.480469 265.042969 270.480469 C 265.042969 270.480469 265.527344 270.371094 265.773438 270.277344 C 267.441406 269.640625 269.253906 269.390625 271.039062 269.425781 C 271.882812 269.441406 272.789062 269.417969 273.402344 270.070312 C 273.976562 270.683594 273.746094 271.640625 272.949219 271.867188 C 272.648438 271.953125 272.316406 271.957031 272 271.949219 C 269.878906 271.898438 268.160156 272.324219 266.140625 272.875 C 265.769531 272.976562 265.460938 273.0625 265.460938 273.0625 C 265.460938 273.0625 265.285156 275.25 264.777344 276.898438 C 264.5 277.8125 263.894531 279.269531 263.894531 279.269531 C 263.894531 279.269531 265.074219 279.242188 265.546875 279.179688 C 266.882812 279 268.21875 279.003906 269.554688 279.195312 C 269.921875 279.25 270.296875 279.328125 270.644531 279.460938 C 271.0625 279.621094 271.347656 280.207031 271.292969 280.660156 C 271.238281 281.113281 270.8125 281.546875 270.328125 281.605469 C 270.066406 281.636719 269.792969 281.621094 269.527344 281.597656 C 267.804688 281.449219 262.738281 281.738281 262.738281 281.738281 C 262.738281 281.738281 261.816406 283.570312 261.1875 284.710938 C 260.335938 286.25 259.730469 287.21875 258.757812 289.058594 C 259.707031 288.96875 260.519531 288.84375 261.148438 288.78125 C 262.273438 288.664062 263.398438 288.679688 264.511719 288.882812 C 265.046875 288.980469 265.546875 289.144531 265.964844 289.523438 C 266.269531 289.796875 266.417969 290.117188 266.324219 290.523438 C 266.230469 290.933594 265.921875 291.167969 265.546875 291.246094 C 265.183594 291.320312 264.792969 291.351562 264.433594 291.296875 C 262.144531 290.945312 256.960938 291.667969 256.960938 291.667969 C 256.960938 291.667969 256.375 292.523438 255.902344 293.324219 C 255.089844 294.710938 254.765625 295.03125 253.964844 296.425781 C 253.558594 297.136719 253.179688 298.046875 253.179688 298.046875 C 253.179688 298.046875 254.738281 297.820312 255.105469 297.761719 C 256.386719 297.570312 257.667969 297.613281 258.957031 297.730469 C 259.441406 297.773438 259.910156 297.863281 260.300781 298.191406 C 260.601562 298.445312 260.824219 298.742188 260.765625 299.15625 C 260.699219 299.632812 260.378906 299.929688 259.933594 300.023438 C 259.519531 300.113281 259.085938 300.117188 258.65625 300.125 C 256.609375 300.167969 251.9375 301.089844 251.9375 301.089844 C 251.9375 301.089844 251.441406 302.363281 251.550781 303.964844 C 251.726562 306.578125 252.65625 307.855469 252.65625 307.855469 C 252.65625 307.855469 255.316406 307.449219 257.285156 306.617188 C 259.507812 305.671875 263.066406 303.179688 264.890625 301.570312 Z M 264.890625 301.570312 " fill-opacity="1" fill-rule="nonzero"/><g clip-path="url(#cb2d28adb6)"><path fill="#000000" d="M 286.417969 212.054688 C 287.679688 210.957031 288.859375 209.800781 289.683594 208.320312 C 289.839844 208.039062 290.402344 206.992188 290.402344 206.992188 C 290.402344 206.992188 291.828125 206.855469 292.089844 206.800781 C 293.773438 206.4375 295.488281 206.058594 296.792969 204.863281 C 298.613281 203.191406 300.3125 201.402344 301.410156 199.132812 C 302.195312 197.515625 302.0625 197.09375 300.3125 196.621094 C 298.1875 196.042969 296.125 195.300781 294.117188 194.394531 C 293.488281 194.113281 292.222656 193.550781 292.222656 193.550781 L 296.597656 188.203125 C 296.597656 188.203125 296.863281 188.292969 297.132812 188.390625 C 298.339844 188.835938 299.539062 189.304688 300.761719 189.699219 C 302.035156 190.109375 303.332031 190.445312 304.621094 190.808594 C 305.726562 191.117188 306.734375 190.859375 307.707031 190.304688 C 308.980469 189.578125 310.050781 188.617188 310.988281 187.496094 C 312.695312 185.457031 313.851562 183.101562 314.832031 180.652344 C 314.988281 180.261719 315.070312 179.828125 315.121094 179.40625 C 315.339844 177.589844 314.628906 176.28125 312.996094 175.464844 C 312.171875 175.050781 311.273438 174.867188 310.375 174.738281 C 302.648438 173.648438 294.921875 172.632812 287.460938 170.613281 C 275.25 167.308594 263.761719 160.222656 253.605469 152.832031 C 239.535156 142.585938 228.777344 129.855469 218.167969 116.140625 C 213.007812 109.472656 208.492188 102.359375 203.84375 95.339844 C 200.640625 90.507812 197.765625 85.476562 194.792969 80.507812 C 193.089844 77.652344 191.449219 74.761719 189.835938 71.851562 C 185.964844 64.859375 182.082031 57.878906 178.105469 50.945312 C 174.828125 45.230469 170.835938 40.074219 166.269531 35.347656 C 162.175781 31.117188 157.570312 27.519531 152.351562 24.785156 C 138.8125 17.695312 123.453125 16.257812 108.929688 21.21875 C 97.746094 25.042969 87.738281 32.65625 79.695312 41.183594 C 68.078125 53.5 62.140625 70.796875 61.65625 87.550781 C 61.5625 90.875 61.566406 94.199219 61.417969 97.523438 C 61.269531 100.84375 61.292969 104.175781 61.484375 107.5 C 61.75 112.210938 62.035156 116.921875 62.367188 121.628906 C 62.625 125.375 62.972656 129.113281 63.488281 132.835938 C 63.992188 136.445312 64.433594 140.0625 64.925781 143.679688 C 65.292969 146.386719 65.671875 149.097656 66.09375 151.796875 C 66.53125 154.605469 67.019531 157.402344 67.492188 160.207031 C 68.273438 164.804688 69.007812 169.410156 69.859375 173.996094 C 71.28125 181.636719 72.78125 189.265625 74.246094 196.898438 C 75.191406 201.847656 76.125 206.800781 77.082031 211.75 C 78.039062 216.695312 79.085938 221.625 79.972656 226.585938 C 81.425781 234.714844 82.800781 242.855469 84.164062 250.996094 C 85.296875 257.765625 86.359375 264.546875 87.46875 271.316406 C 87.753906 273.054688 87.921875 275.066406 89.105469 276.515625 C 90.480469 278.191406 92.859375 279.128906 94.914062 279.574219 C 97.488281 280.136719 100.101562 280.402344 102.730469 280.542969 C 106.863281 280.761719 110.988281 280.570312 115.105469 280.1875 C 118.363281 279.882812 121.597656 279.410156 124.789062 278.660156 C 127.613281 277.996094 130.132812 276.765625 132.304688 274.832031 C 134.351562 273.007812 135.265625 270.835938 134.515625 268.070312 C 133.992188 266.148438 133.355469 264.277344 132.617188 262.433594 C 131.816406 260.445312 129.871094 255.476562 129.871094 255.476562 C 129.871094 255.476562 131.078125 254.960938 131.273438 254.867188 C 136.882812 252.25 142.710938 250.285156 148.773438 249.03125 C 150.191406 248.738281 151.613281 248.457031 153.058594 248.339844 C 153.5 248.304688 153.722656 248.28125 153.722656 248.28125 C 153.722656 248.28125 156.546875 256.199219 157.945312 259.214844 C 158.550781 260.523438 159.273438 261.789062 160.015625 263.027344 C 160.816406 264.371094 161.8125 265.566406 163.019531 266.574219 C 164.175781 267.542969 165.507812 268.03125 167.007812 268.0625 C 169.695312 268.117188 172.363281 267.882812 175.027344 267.527344 C 187.753906 265.828125 199.792969 260.292969 210.542969 253.640625 C 213.757812 251.652344 216.65625 249.285156 219.1875 246.480469 C 220.460938 245.070312 221.40625 243.476562 221.8125 241.574219 C 222.089844 240.265625 221.824219 239.136719 221.097656 238.066406 C 220.460938 237.125 219.695312 236.308594 218.808594 235.597656 C 216.75 233.957031 214.785156 232.214844 213.03125 230.246094 C 212.707031 229.886719 212.351562 229.5625 212.011719 229.214844 C 211.113281 228.296875 208.859375 225.988281 208.859375 225.988281 C 208.859375 225.988281 208.917969 225.910156 209.300781 225.507812 C 209.925781 224.851562 210.546875 224.171875 211.246094 223.59375 C 212.359375 222.667969 213.523438 221.808594 214.683594 220.941406 C 216.863281 219.3125 219.375 218.378906 221.917969 217.507812 C 222.503906 217.304688 222.757812 217.214844 222.757812 217.214844 C 222.757812 217.214844 224.632812 218.839844 225.246094 219.367188 C 228.46875 222.132812 231.511719 225.070312 234.023438 228.523438 C 234.777344 229.566406 235.515625 230.636719 236.394531 231.570312 C 238.492188 233.8125 241.039062 234.945312 244.183594 234.414062 C 246.84375 233.96875 249.390625 233.179688 251.828125 232.015625 C 263.898438 226.234375 276.226562 220.96875 286.421875 212.054688 Z M 243.308594 231.558594 C 242.566406 231.699219 241.816406 231.785156 241.074219 231.601562 C 240.253906 231.398438 239.988281 230.839844 240.253906 230.011719 C 240.542969 229.121094 241.101562 228.402344 241.710938 227.722656 C 242.6875 226.644531 243.601562 225.519531 244.316406 224.253906 C 245.40625 222.320312 245.867188 220.242188 245.332031 218.058594 C 244.957031 216.542969 244.285156 215.132812 243.347656 213.863281 C 242.804688 213.128906 242.175781 212.46875 241.515625 211.835938 C 239.082031 209.484375 236.425781 207.394531 233.796875 205.269531 C 226.183594 199.113281 219.085938 192.421875 212.757812 184.941406 C 207.832031 179.117188 203.429688 172.910156 199.617188 166.289062 C 198.84375 164.941406 197.910156 163.6875 197.039062 162.402344 C 196.890625 162.179688 196.699219 161.984375 196.503906 161.804688 C 196.300781 161.617188 196.058594 161.492188 195.78125 161.667969 C 195.535156 161.820312 195.386719 162.085938 195.441406 162.347656 C 195.550781 162.867188 195.6875 163.390625 195.898438 163.878906 C 197.476562 167.523438 199.238281 171.074219 201.320312 174.464844 C 206.109375 182.28125 211.878906 189.324219 218.246094 195.886719 C 222.882812 200.664062 227.742188 205.207031 232.917969 209.402344 C 233.613281 209.964844 235.332031 211.460938 235.332031 211.460938 C 235.332031 211.460938 234.417969 211.476562 234.175781 211.480469 C 232.171875 211.5 230.234375 211.882812 228.328125 212.46875 C 227.097656 212.84375 225.871094 213.238281 224.621094 213.527344 C 222.257812 214.0625 219.96875 214.820312 217.738281 215.730469 C 213.644531 217.394531 210.207031 220.023438 207.160156 223.179688 C 206.453125 223.914062 205.800781 224.699219 205.132812 225.46875 C 203.644531 227.183594 202.398438 229.046875 201.707031 231.238281 C 201.664062 231.382812 201.589844 231.675781 201.589844 231.675781 C 201.589844 231.675781 199.5625 228.554688 198.871094 227.160156 C 196.910156 223.222656 194.742188 219.398438 192.601562 215.558594 C 186.460938 204.554688 180.453125 193.472656 174.042969 182.621094 C 170.796875 177.125 167.570312 171.617188 164.316406 166.128906 C 162.425781 162.945312 160.425781 159.828125 158.203125 156.863281 C 157.269531 155.621094 156.265625 154.429688 155.253906 153.25 C 154.839844 152.765625 154.339844 152.34375 153.835938 151.949219 C 153.546875 151.722656 153.171875 151.574219 152.789062 151.816406 C 152.398438 152.066406 152.433594 152.453125 152.519531 152.820312 C 152.59375 153.128906 152.707031 153.4375 152.851562 153.722656 C 153.113281 154.253906 153.378906 154.78125 153.695312 155.277344 C 158.75 163.128906 163.269531 171.292969 167.929688 179.378906 C 174.65625 191.042969 181.066406 202.878906 187.621094 214.632812 C 190.78125 220.300781 194.117188 225.871094 197.378906 231.480469 C 198.214844 232.917969 199.183594 234.269531 200.234375 235.5625 C 202.085938 237.855469 204.484375 239.109375 207.40625 239.398438 C 208.796875 239.539062 210.191406 239.539062 211.585938 239.488281 C 213.085938 239.433594 214.589844 239.40625 216.089844 239.375 C 216.519531 239.367188 216.9375 239.394531 217.320312 239.65625 C 218.4375 240.417969 218.585938 241.234375 217.765625 242.335938 C 215.007812 246.027344 211.722656 249.125 207.8125 251.597656 C 203.402344 254.386719 198.777344 256.753906 194.039062 258.902344 C 190.070312 260.699219 185.894531 261.898438 181.65625 262.878906 C 179.253906 263.433594 176.859375 264.027344 174.414062 264.355469 C 172.660156 264.59375 171.101562 264.710938 169.339844 264.902344 C 167.960938 265.054688 166.492188 264.8125 165.320312 264.085938 C 164.484375 263.566406 164.066406 262.792969 164.019531 261.8125 C 163.949219 260.417969 164.332031 259.160156 165.160156 258.042969 C 165.511719 257.570312 165.90625 257.128906 166.269531 256.664062 C 168.226562 254.125 168.605469 251.371094 167.605469 248.320312 C 166.125 243.804688 163.890625 239.652344 161.636719 235.507812 C 157.132812 227.214844 152.515625 218.980469 148.054688 210.664062 C 143.765625 202.675781 139.855469 194.5 136.550781 186.050781 C 134.929688 181.90625 133.433594 177.714844 131.84375 173.558594 C 131.191406 171.859375 130.449219 170.191406 129.730469 168.519531 C 129.519531 168.027344 129.28125 167.542969 128.835938 167.203125 C 128.410156 166.871094 127.796875 167.074219 127.738281 167.613281 C 127.6875 168.035156 127.699219 168.472656 127.757812 168.894531 C 127.835938 169.421875 127.972656 169.945312 128.117188 170.460938 C 131.089844 180.894531 134.839844 191.039062 139.460938 200.863281 C 142.40625 207.128906 145.722656 213.195312 149.0625 219.257812 C 152.894531 226.207031 156.691406 233.175781 160.503906 240.136719 C 161.328125 241.644531 162.160156 243.144531 162.953125 244.664062 C 163.140625 245.023438 163.65625 246.070312 163.65625 246.070312 C 163.65625 246.070312 159.988281 244.921875 156.738281 245.125 C 150.371094 245.519531 144.210938 246.796875 138.203125 248.875 C 134.652344 250.105469 131.175781 251.503906 127.851562 253.269531 C 124.902344 254.835938 122.105469 256.613281 119.621094 258.859375 C 119.507812 258.960938 119.148438 259.226562 119.148438 259.226562 C 119.148438 259.226562 118.78125 258.476562 118.652344 258.148438 C 117.324219 254.804688 116.316406 251.359375 115.351562 247.898438 C 113.398438 240.875 111.398438 233.863281 109.464844 226.832031 C 108.214844 222.289062 107.195312 217.675781 105.878906 213.144531 C 103.089844 203.574219 100.339844 193.992188 97.585938 184.40625 C 97.066406 182.605469 96.605469 180.785156 96.09375 178.980469 C 95.644531 177.378906 95.089844 175.8125 94.308594 174.335938 C 94.136719 174.003906 93.972656 173.640625 93.503906 173.679688 C 93.15625 173.707031 92.910156 174.113281 92.964844 174.707031 C 93.015625 175.292969 93.125 175.875 93.25 176.449219 C 94.652344 182.890625 96.15625 189.308594 97.886719 195.675781 C 100.15625 204.054688 102.460938 212.429688 104.597656 220.84375 C 106.699219 229.109375 109.148438 237.273438 111.441406 245.480469 C 112.507812 249.300781 113.511719 253.140625 114.792969 256.894531 C 115.488281 258.929688 116.242188 260.914062 117.078125 262.890625 C 118.40625 266.050781 120.859375 267.953125 124.21875 268.644531 C 125.84375 268.976562 127.476562 269.292969 129.105469 269.621094 C 129.421875 269.6875 129.742188 269.730469 130.046875 269.820312 C 131.238281 270.183594 131.390625 270.585938 130.726562 271.6875 C 130.007812 272.890625 128.910156 273.625 127.644531 274.152344 C 125.402344 275.085938 123.074219 275.695312 120.6875 276.089844 C 114.585938 277.101562 108.441406 277.582031 102.257812 277.347656 C 99.6875 277.25 97.113281 277.0625 94.601562 276.4375 C 93.824219 276.246094 93.058594 275.984375 92.320312 275.667969 C 91.3125 275.238281 90.773438 274.472656 90.644531 273.324219 C 90.128906 268.796875 89.621094 264.265625 88.976562 259.753906 C 88.097656 253.652344 87.304688 247.535156 86.21875 241.464844 C 85.289062 236.238281 84.457031 230.996094 83.527344 225.769531 C 83.007812 222.867188 82.347656 219.992188 81.800781 217.097656 C 80.648438 210.984375 79.542969 204.867188 78.394531 198.753906 C 77.636719 194.695312 76.828125 190.648438 76.066406 186.589844 C 75.210938 182.007812 74.410156 177.414062 73.550781 172.828125 C 72.441406 166.925781 71.617188 160.976562 70.65625 155.050781 C 70.023438 151.132812 69.4375 147.207031 68.839844 143.285156 C 68.753906 142.710938 68.589844 141.429688 68.589844 141.429688 C 68.589844 141.429688 69.140625 141.75 69.855469 142 C 71.054688 142.417969 74.039062 142.742188 76.164062 141.472656 C 81.394531 138.335938 80.941406 130.089844 80.910156 124.792969 C 80.882812 119.84375 80.277344 114.898438 79.097656 110.09375 C 78.0625 105.878906 76.925781 101.089844 73.761719 97.914062 C 72.886719 97.03125 71.902344 96.300781 70.75 95.808594 C 69.277344 95.183594 67.925781 95.433594 66.777344 95.816406 C 65.960938 96.085938 65.207031 96.800781 65.207031 96.800781 C 65.207031 96.800781 65.203125 95.691406 65.207031 95.476562 C 65.277344 91.457031 65.191406 87.433594 65.515625 83.414062 C 65.855469 79.234375 66.597656 75.128906 67.53125 71.046875 C 68.714844 65.882812 70.738281 61.042969 73.089844 56.335938 C 79.683594 43.136719 92.929688 31.296875 106.425781 25.515625 C 110.144531 23.921875 113.992188 22.828125 117.960938 22.105469 C 121.675781 21.429688 125.425781 21.390625 129.179688 21.324219 C 134.898438 21.222656 140.160156 22.972656 145.332031 25.121094 C 154.132812 28.777344 161.394531 34.507812 167.589844 41.679688 C 170.546875 45.101562 173.113281 48.785156 175.324219 52.730469 C 178.050781 57.59375 180.863281 62.414062 183.605469 67.269531 C 185.582031 70.773438 187.445312 74.339844 189.464844 77.816406 C 192.535156 83.101562 195.640625 88.371094 198.851562 93.574219 C 201.78125 98.320312 204.816406 103 207.910156 107.640625 C 210.949219 112.191406 214.113281 116.65625 217.527344 120.9375 C 220.171875 124.25 222.683594 127.664062 225.34375 130.960938 C 227.9375 134.175781 230.613281 137.328125 233.308594 140.457031 C 236.226562 143.847656 239.5625 146.792969 243.191406 149.40625 C 247.324219 152.382812 251.472656 155.34375 255.671875 158.230469 C 260.449219 161.511719 265.40625 164.511719 270.445312 167.363281 C 275.84375 170.417969 281.660156 172.441406 287.648438 174.003906 C 291.808594 175.089844 295.996094 175.972656 300.265625 176.472656 C 301.703125 176.640625 305.648438 177.21875 305.648438 177.21875 C 305.648438 177.21875 304.421875 177.761719 304.285156 177.839844 C 299.34375 180.617188 295.355469 184.492188 291.765625 188.808594 C 290.636719 190.167969 289.585938 191.597656 288.542969 193.027344 C 287.976562 193.808594 287.46875 194.632812 286.988281 195.46875 C 285.746094 197.636719 284.632812 199.613281 285.03125 202.136719 C 285.058594 202.558594 285.199219 202.933594 285.199219 202.933594 C 285.199219 202.933594 281.421875 201.636719 279.992188 201.019531 C 274.074219 198.46875 268.351562 195.554688 262.953125 192.007812 C 258.605469 189.148438 254.277344 186.265625 250.101562 183.15625 C 247.867188 181.488281 245.574219 179.894531 243.261719 178.335938 C 236.542969 173.804688 229.933594 169.125 223.746094 163.878906 C 222.148438 162.527344 220.5625 161.160156 219.042969 159.722656 C 215.652344 156.511719 212.15625 153.421875 208.585938 150.414062 C 207.765625 149.722656 206.914062 149.066406 206.0625 148.417969 C 205.765625 148.191406 205.425781 148.027344 205.089844 147.859375 C 204.957031 147.792969 204.761719 147.75 204.671875 147.9375 C 204.609375 148.070312 204.542969 148.257812 204.585938 148.382812 C 204.695312 148.679688 204.832031 148.980469 205.027344 149.226562 C 205.425781 149.730469 205.859375 150.207031 206.292969 150.683594 C 208.761719 153.375 211.542969 155.75 214.109375 158.34375 C 221.269531 165.574219 229.214844 171.855469 237.464844 177.773438 C 242.21875 181.183594 246.84375 184.761719 251.539062 188.242188 C 257.929688 192.972656 264.613281 197.242188 271.746094 200.78125 C 276.566406 203.175781 281.566406 204.992188 286.816406 206.257812 C 287.023438 206.304688 287.382812 206.398438 287.382812 206.398438 C 287.382812 206.398438 286.25 208.324219 285.460938 209.035156 C 284.261719 210.109375 283.0625 211.199219 281.753906 212.125 C 279.175781 213.953125 276.613281 215.8125 273.894531 217.445312 C 267.722656 221.148438 261.265625 224.285156 254.714844 227.238281 C 252.808594 228.097656 250.875 228.890625 248.960938 229.730469 C 247.136719 230.53125 245.269531 231.179688 243.3125 231.554688 Z M 113.257812 119.140625 C 113.453125 121.796875 113.394531 124.472656 112.976562 127.109375 C 112.1875 132.117188 108.207031 138.171875 102.671875 138.398438 C 96.367188 138.65625 92.292969 131.070312 90.34375 126 C 87.738281 119.21875 86.15625 111.679688 86.175781 104.421875 C 86.1875 100.484375 86.5625 96.117188 88.214844 92.5 C 90.429688 87.652344 95.625 85.46875 100.367188 88.277344 C 104.8125 90.914062 106.980469 95.820312 108.683594 100.46875 C 110.445312 105.277344 111.992188 110.199219 112.800781 115.261719 C 113.003906 116.546875 113.160156 117.84375 113.257812 119.140625 Z M 167.128906 283.578125 C 166.140625 283.335938 164.648438 283.257812 163.625 283.179688 C 161.273438 283.007812 159.238281 282.808594 156.882812 282.65625 C 154.261719 282.488281 151.636719 282.390625 149.011719 282.238281 C 143.871094 281.945312 139.640625 281.625 134.210938 281.484375 C 133.230469 281.457031 131.972656 281.457031 131.171875 281.492188 C 129.160156 281.574219 128.984375 282.183594 128.8125 283.492188 C 128.765625 283.867188 128.675781 284.230469 128.632812 284.605469 C 128.417969 286.578125 128.222656 288.550781 128.003906 290.523438 C 127.699219 293.296875 127.371094 296.0625 126.882812 298.808594 C 126.5 300.960938 125.628906 302.890625 124.394531 304.679688 C 123.886719 305.410156 123.246094 305.929688 122.453125 306.316406 C 120.992188 307.019531 118.757812 307.785156 117.160156 308.042969 C 113.539062 308.625 110.625 308.941406 106.988281 309.425781 C 103.402344 309.90625 99.65625 309.976562 96.171875 311.011719 C 90.679688 312.644531 87.050781 317.078125 87.226562 322.875 C 87.3125 325.828125 88.523438 328.402344 90.648438 330.464844 C 92.644531 332.402344 95.097656 333.527344 97.703125 334.488281 C 99.382812 335.105469 102.75 335.507812 105.945312 335.75 C 103.308594 337.507812 101.566406 340.503906 101.566406 343.910156 C 101.566406 343.917969 101.566406 343.929688 101.566406 343.9375 C 101.566406 343.949219 101.566406 343.957031 101.566406 343.96875 C 101.566406 349.375 105.953125 353.757812 111.363281 353.757812 C 116.769531 353.757812 121.15625 349.375 121.15625 343.96875 C 121.15625 343.957031 121.15625 343.949219 121.15625 343.9375 C 121.15625 343.929688 121.15625 343.921875 121.15625 343.910156 C 121.15625 340.703125 119.613281 337.851562 117.226562 336.066406 C 122.519531 336.042969 130.289062 335.996094 132.351562 336.054688 C 133.339844 336.082031 137.269531 336.074219 141.753906 336.054688 C 139.355469 337.839844 137.804688 340.695312 137.804688 343.910156 C 137.804688 343.917969 137.804688 343.929688 137.804688 343.9375 C 137.804688 343.949219 137.804688 343.957031 137.804688 343.96875 C 137.804688 349.375 142.191406 353.757812 147.597656 353.757812 C 153.007812 353.757812 157.390625 349.375 157.390625 343.96875 C 157.390625 343.957031 157.390625 343.949219 157.390625 343.9375 C 157.390625 343.929688 157.390625 343.921875 157.390625 343.910156 C 157.390625 340.648438 155.792969 337.757812 153.339844 335.976562 C 155.902344 335.957031 157.902344 335.914062 157.984375 335.90625 C 159.585938 335.75 160.945312 335.628906 162.546875 335.496094 C 163.363281 335.429688 164.472656 335.410156 165.199219 335.054688 C 166.179688 334.574219 166.707031 333.863281 166.910156 332.785156 C 167.238281 331.046875 167.261719 329.03125 167.242188 327.238281 C 167.207031 324.128906 167.265625 321.015625 167.363281 317.90625 C 167.484375 314.101562 167.691406 310.300781 167.847656 306.496094 C 168.128906 299.6875 168.050781 292.875 168.175781 286.0625 C 168.179688 285.792969 168.191406 285.523438 168.164062 285.257812 C 168.085938 284.398438 167.972656 283.785156 167.132812 283.582031 Z M 111.359375 348.925781 C 108.597656 348.925781 106.359375 346.695312 106.34375 343.9375 C 106.359375 341.179688 108.597656 338.949219 111.359375 338.949219 C 114.121094 338.949219 116.363281 341.179688 116.378906 343.9375 C 116.363281 346.695312 114.121094 348.925781 111.359375 348.925781 Z M 147.597656 348.925781 C 144.835938 348.925781 142.597656 346.695312 142.582031 343.9375 C 142.597656 341.179688 144.835938 338.949219 147.597656 338.949219 C 150.359375 338.949219 152.597656 341.179688 152.613281 343.9375 C 152.597656 346.695312 150.359375 348.925781 147.597656 348.925781 Z M 164.496094 331.429688 C 164.46875 331.964844 164.1875 332.339844 163.65625 332.472656 C 162.929688 332.660156 162.203125 332.800781 161.445312 332.867188 C 150.453125 333.832031 116.179688 334.113281 103.40625 332.871094 C 99.742188 332.515625 96.011719 331.433594 93.261719 329.175781 C 88.859375 325.5625 89.804688 321.476562 89.804688 321.476562 C 89.804688 321.476562 92.398438 324.5 99.957031 326.738281 C 103.710938 327.851562 108.835938 328.695312 112.734375 329.082031 C 117.492188 329.550781 122.28125 329.785156 127.054688 329.695312 C 130.007812 329.640625 132.957031 329.632812 135.90625 329.496094 C 139.660156 329.324219 143.410156 329.25 147.164062 329.191406 C 150.222656 329.144531 152.738281 328.921875 155.792969 328.839844 C 158.316406 328.769531 160.519531 328.5625 163.039062 328.390625 C 163.699219 328.347656 164.5625 328.332031 164.5625 328.332031 C 164.5625 328.332031 164.539062 330.574219 164.496094 331.429688 Z M 164.4375 325.648438 C 164.4375 325.648438 149.949219 326.226562 148.609375 326.226562 C 145.074219 326.410156 141.53125 326.367188 137.992188 326.445312 C 137.511719 326.457031 136.167969 326.453125 136.167969 326.453125 C 136.167969 326.453125 137.398438 324.082031 138.023438 323.003906 C 138.457031 322.257812 138.828125 321.492188 139.292969 320.769531 C 139.914062 319.800781 140.796875 319.273438 141.882812 319.015625 C 142.878906 318.78125 143.890625 318.703125 144.914062 318.707031 C 149.6875 318.71875 164.566406 318.484375 164.566406 318.484375 Z M 165.34375 292.691406 C 165.207031 298.050781 165.070312 303.410156 164.917969 308.769531 C 164.863281 310.699219 164.566406 315.363281 164.566406 315.363281 C 164.566406 315.363281 164.46875 315.375 163.773438 315.382812 C 159.003906 315.433594 154.234375 315.46875 149.460938 315.523438 C 147.261719 315.550781 145.066406 315.566406 142.875 315.78125 C 140.253906 316.035156 138.183594 317.152344 136.695312 319.34375 C 136.058594 320.277344 135.492188 321.246094 134.96875 322.242188 C 134.296875 323.527344 132.445312 326.574219 132.445312 326.574219 C 132.445312 326.574219 131.816406 326.664062 131.269531 326.667969 C 125.269531 326.707031 119.597656 326.957031 113.605469 326.242188 C 109.183594 325.714844 107.320312 325.523438 102.953125 324.675781 C 100.566406 324.214844 96.421875 322.917969 94.316406 321.734375 C 92.453125 320.683594 90.511719 318.820312 90.511719 318.820312 C 90.511719 318.820312 90.957031 317.308594 92.917969 315.574219 C 94.121094 314.511719 95.433594 314.128906 95.433594 314.128906 C 95.433594 314.128906 99.011719 317.265625 100.296875 318.863281 C 100.5625 319.195312 100.832031 319.535156 101.15625 319.808594 C 101.5 320.105469 101.933594 320.175781 102.351562 319.9375 C 102.714844 319.734375 102.816406 319.375 102.832031 318.980469 C 102.855469 318.472656 102.636719 318.046875 102.375 317.636719 C 101.683594 316.546875 100.9375 315.503906 100 314.601562 C 99.730469 314.347656 98.597656 313.25 98.597656 313.25 C 98.597656 313.25 99.550781 313 100.363281 312.886719 C 101.957031 312.667969 102.40625 312.730469 104.003906 312.527344 C 104.925781 312.410156 105.960938 312.355469 105.960938 312.355469 C 105.960938 312.355469 109.699219 316.023438 110.816406 318.046875 C 110.992188 318.367188 111.257812 318.65625 111.535156 318.894531 C 111.828125 319.148438 112.199219 319.25 112.585938 319.074219 C 112.964844 318.898438 113.128906 318.585938 113.160156 318.179688 C 113.203125 317.621094 113.027344 317.121094 112.777344 316.636719 C 112.257812 315.632812 111.585938 314.734375 110.804688 313.910156 C 110.367188 313.453125 109.777344 312.882812 109.125 312.1875 C 111.179688 311.835938 112.3125 311.722656 114.054688 311.460938 C 115.339844 311.265625 117.355469 310.871094 117.355469 310.871094 C 117.355469 310.871094 120.675781 314.707031 121.609375 316.167969 C 121.753906 316.390625 121.90625 316.613281 122.09375 316.804688 C 122.433594 317.152344 123.035156 317.222656 123.429688 316.988281 C 123.816406 316.757812 124.109375 316.171875 123.984375 315.746094 C 123.878906 315.390625 123.710938 315.046875 123.527344 314.722656 C 122.863281 313.546875 122.050781 312.488281 121.09375 311.535156 C 120.757812 311.199219 120.015625 310.285156 120.015625 310.285156 C 120.015625 310.285156 121.539062 309.871094 122.433594 309.539062 C 124.050781 308.929688 125.890625 307.734375 125.890625 307.734375 C 125.890625 307.734375 126.148438 307.929688 126.453125 308.160156 C 128.125 309.425781 129.507812 310.527344 130.761719 312.238281 C 130.949219 312.492188 131.152344 312.753906 131.40625 312.9375 C 132.074219 313.429688 132.972656 313.03125 133.105469 312.199219 C 133.25 311.316406 132.675781 310.613281 132.175781 309.9375 C 131.113281 308.5 129.808594 307.214844 128.285156 306.285156 C 128.0625 306.144531 127.679688 305.828125 127.679688 305.828125 C 127.679688 305.828125 129.152344 302.722656 129.757812 298.699219 C 130.261719 295.347656 130.515625 291.851562 130.875 288.496094 C 130.988281 287.429688 131.242188 284.683594 131.242188 284.683594 C 131.242188 284.683594 133.035156 284.664062 133.539062 284.679688 C 137.484375 284.808594 139.589844 284.894531 143.121094 285.183594 C 146.484375 285.457031 149.347656 285.441406 152.71875 285.625 C 156.519531 285.832031 160.316406 286.089844 164.117188 286.328125 C 164.382812 286.34375 165.453125 286.4375 165.453125 286.4375 C 165.453125 286.4375 165.460938 286.671875 165.453125 287.070312 C 165.410156 288.945312 165.394531 290.820312 165.34375 292.695312 Z M 114 343.910156 C 114 345.367188 112.816406 346.550781 111.359375 346.550781 C 109.902344 346.550781 108.722656 345.367188 108.722656 343.910156 C 108.722656 342.453125 109.902344 341.273438 111.359375 341.273438 C 112.816406 341.273438 114 342.453125 114 343.910156 Z M 150.238281 343.910156 C 150.238281 345.367188 149.054688 346.550781 147.597656 346.550781 C 146.140625 346.550781 144.957031 345.367188 144.957031 343.910156 C 144.957031 342.453125 146.140625 341.273438 147.597656 341.273438 C 149.054688 341.273438 150.238281 342.453125 150.238281 343.910156 Z M 287.925781 306.667969 C 287.925781 308.125 286.742188 309.308594 285.285156 309.308594 C 283.828125 309.308594 282.644531 308.125 282.644531 306.667969 C 282.644531 305.210938 283.828125 304.03125 285.285156 304.03125 C 286.742188 304.03125 287.925781 305.210938 287.925781 306.667969 Z M 310.039062 277.964844 C 310.039062 279.421875 308.855469 280.605469 307.398438 280.605469 C 305.941406 280.605469 304.761719 279.421875 304.761719 277.964844 C 304.761719 276.507812 305.941406 275.328125 307.398438 275.328125 C 308.855469 275.328125 310.039062 276.507812 310.039062 277.964844 Z M 271.496094 225.660156 C 270.703125 226.296875 269.726562 227.429688 269.042969 228.195312 C 267.46875 229.949219 266.070312 231.441406 264.511719 233.214844 C 262.78125 235.1875 261.097656 237.207031 259.378906 239.195312 C 256.003906 243.085938 253.171875 246.242188 249.746094 250.457031 C 249.125 251.21875 248.359375 252.210938 247.894531 252.867188 C 246.734375 254.511719 247.109375 255.019531 248.046875 255.957031 C 248.308594 256.222656 248.546875 256.515625 248.816406 256.777344 C 250.25 258.148438 251.691406 259.511719 253.121094 260.886719 C 255.128906 262.820312 257.121094 264.769531 259 266.832031 C 260.472656 268.445312 261.46875 270.316406 262.132812 272.386719 C 262.402344 273.230469 262.425781 274.0625 262.242188 274.921875 C 261.914062 276.507812 261.15625 278.746094 260.386719 280.167969 C 258.632812 283.390625 257.105469 285.890625 255.269531 289.066406 C 253.460938 292.203125 251.230469 295.214844 249.925781 298.605469 C 247.871094 303.953125 249.167969 309.53125 253.867188 312.929688 C 256.261719 314.660156 259.039062 315.273438 261.96875 314.851562 C 264.722656 314.453125 267.113281 313.195312 269.464844 311.714844 C 270.980469 310.761719 273.351562 308.339844 275.496094 305.960938 C 275.273438 309.121094 276.589844 312.328125 279.289062 314.40625 C 279.296875 314.410156 279.304688 314.417969 279.308594 314.421875 C 279.316406 314.429688 279.324219 314.433594 279.332031 314.441406 C 283.617188 317.742188 289.765625 316.941406 293.066406 312.660156 C 296.367188 308.375 295.570312 302.226562 291.285156 298.925781 C 291.277344 298.921875 291.269531 298.914062 291.261719 298.910156 C 291.253906 298.902344 291.25 298.898438 291.242188 298.890625 C 288.699219 296.933594 285.5 296.417969 282.628906 297.21875 C 285.839844 293.007812 290.542969 286.828125 291.847656 285.230469 C 292.472656 284.464844 294.867188 281.347656 297.585938 277.785156 C 297.539062 280.769531 298.851562 283.742188 301.402344 285.703125 C 301.410156 285.710938 301.417969 285.714844 301.421875 285.722656 C 301.429688 285.726562 301.4375 285.734375 301.445312 285.738281 C 305.730469 289.039062 311.878906 288.242188 315.179688 283.957031 C 318.480469 279.671875 317.683594 273.523438 313.398438 270.222656 C 313.390625 270.21875 313.382812 270.210938 313.375 270.207031 C 313.367188 270.203125 313.359375 270.195312 313.351562 270.191406 C 310.769531 268.199219 307.503906 267.699219 304.59375 268.558594 C 306.140625 266.515625 307.332031 264.90625 307.375 264.835938 C 308.226562 263.472656 308.960938 262.324219 309.835938 260.972656 C 310.28125 260.285156 310.941406 259.394531 311.101562 258.601562 C 311.316406 257.535156 311.078125 256.683594 310.347656 255.867188 C 309.171875 254.542969 307.585938 253.292969 306.15625 252.214844 C 303.667969 250.347656 301.242188 248.398438 298.835938 246.425781 C 295.894531 244.007812 293.007812 241.523438 290.089844 239.078125 C 284.867188 234.699219 279.421875 230.605469 274.101562 226.347656 C 273.890625 226.179688 273.683594 226.007812 273.457031 225.867188 C 272.726562 225.402344 272.171875 225.117188 271.496094 225.660156 Z M 289.238281 309.710938 C 287.554688 311.898438 284.417969 312.3125 282.222656 310.640625 C 280.050781 308.945312 279.648438 305.808594 281.332031 303.625 C 283.019531 301.4375 286.152344 301.023438 288.347656 302.695312 C 290.523438 304.390625 290.921875 307.523438 289.238281 309.710938 Z M 311.351562 281.011719 C 309.667969 283.195312 306.53125 283.609375 304.339844 281.9375 C 302.164062 280.242188 301.761719 277.109375 303.449219 274.921875 C 305.132812 272.734375 308.269531 272.320312 310.460938 273.992188 C 312.636719 275.6875 313.035156 278.824219 311.351562 281.011719 Z M 307.804688 256.949219 C 308.210938 257.296875 308.332031 257.75 308.117188 258.25 C 307.820312 258.941406 307.492188 259.601562 307.078125 260.242188 C 301.136719 269.539062 280.445312 296.855469 271.664062 306.21875 C 269.148438 308.898438 266.011719 311.195312 262.546875 311.996094 C 256.996094 313.277344 254.335938 310.035156 254.335938 310.035156 C 254.335938 310.035156 258.3125 309.824219 264.699219 305.203125 C 267.871094 302.910156 271.667969 299.367188 274.351562 296.515625 C 277.628906 293.03125 280.738281 289.382812 283.582031 285.546875 C 285.335938 283.175781 287.132812 280.832031 288.824219 278.417969 C 290.980469 275.339844 293.207031 272.320312 295.453125 269.308594 C 297.285156 266.863281 298.640625 264.730469 300.4375 262.261719 C 301.925781 260.222656 303.101562 258.351562 304.507812 256.25 C 304.875 255.703125 305.390625 255.007812 305.390625 255.007812 C 305.390625 255.007812 307.152344 256.394531 307.804688 256.949219 Z M 303.183594 253.46875 C 303.183594 253.46875 294.800781 265.292969 293.980469 266.355469 C 291.972656 269.269531 289.777344 272.046875 287.679688 274.898438 C 287.394531 275.285156 286.570312 276.347656 286.570312 276.347656 C 286.570312 276.347656 285.445312 273.925781 284.972656 272.773438 C 284.644531 271.976562 284.265625 271.210938 283.976562 270.402344 C 283.585938 269.324219 283.710938 268.300781 284.167969 267.285156 C 284.585938 266.347656 285.144531 265.503906 285.769531 264.691406 C 288.691406 260.917969 297.585938 248.992188 297.585938 248.992188 Z M 277.625 232.636719 C 281.789062 236.015625 285.953125 239.394531 290.105469 242.785156 C 291.597656 244.003906 295.113281 247.089844 295.113281 247.089844 C 295.113281 247.089844 295.066406 247.171875 294.644531 247.726562 C 291.773438 251.535156 288.890625 255.335938 286.023438 259.152344 C 284.699219 260.90625 283.375 262.65625 282.203125 264.523438 C 280.808594 266.753906 280.429688 269.074219 281.257812 271.59375 C 281.609375 272.664062 282.03125 273.707031 282.5 274.726562 C 283.109375 276.042969 284.394531 279.371094 284.394531 279.371094 C 284.394531 279.371094 284.078125 279.921875 283.75 280.355469 C 280.117188 285.136719 276.859375 289.78125 272.632812 294.089844 C 269.515625 297.269531 268.226562 298.628906 264.890625 301.570312 C 263.070312 303.179688 259.511719 305.671875 257.289062 306.617188 C 255.320312 307.449219 252.65625 307.855469 252.65625 307.855469 C 252.65625 307.855469 251.730469 306.578125 251.554688 303.964844 C 251.445312 302.363281 251.941406 301.089844 251.941406 301.089844 C 251.941406 301.089844 256.613281 300.167969 258.660156 300.125 C 259.085938 300.117188 259.519531 300.113281 259.933594 300.023438 C 260.378906 299.929688 260.703125 299.632812 260.769531 299.15625 C 260.828125 298.746094 260.605469 298.445312 260.304688 298.191406 C 259.914062 297.859375 259.441406 297.773438 258.957031 297.730469 C 257.671875 297.613281 256.390625 297.570312 255.105469 297.761719 C 254.738281 297.820312 253.179688 298.046875 253.179688 298.046875 C 253.179688 298.046875 253.5625 297.136719 253.96875 296.425781 C 254.769531 295.03125 255.09375 294.710938 255.90625 293.324219 C 256.378906 292.523438 256.964844 291.667969 256.964844 291.667969 C 256.964844 291.667969 262.148438 290.945312 264.4375 291.296875 C 264.796875 291.351562 265.1875 291.320312 265.546875 291.246094 C 265.925781 291.167969 266.234375 290.933594 266.328125 290.523438 C 266.421875 290.117188 266.269531 289.796875 265.96875 289.523438 C 265.550781 289.144531 265.050781 288.980469 264.515625 288.882812 C 263.402344 288.679688 262.277344 288.664062 261.152344 288.78125 C 260.519531 288.847656 259.710938 288.96875 258.761719 289.058594 C 259.734375 287.21875 260.339844 286.25 261.191406 284.714844 C 261.820312 283.574219 262.742188 281.738281 262.742188 281.738281 C 262.742188 281.738281 267.808594 281.449219 269.53125 281.601562 C 269.796875 281.625 270.070312 281.636719 270.332031 281.605469 C 270.816406 281.546875 271.238281 281.113281 271.296875 280.660156 C 271.351562 280.210938 271.0625 279.621094 270.648438 279.460938 C 270.300781 279.328125 269.925781 279.25 269.558594 279.199219 C 268.222656 279.003906 266.886719 279.003906 265.550781 279.179688 C 265.078125 279.242188 263.898438 279.273438 263.898438 279.273438 C 263.898438 279.273438 264.503906 277.8125 264.78125 276.898438 C 265.289062 275.25 265.464844 273.0625 265.464844 273.0625 C 265.464844 273.0625 265.773438 272.980469 266.144531 272.878906 C 268.164062 272.324219 269.882812 271.898438 272.003906 271.953125 C 272.320312 271.960938 272.652344 271.957031 272.953125 271.871094 C 273.75 271.640625 273.980469 270.683594 273.40625 270.070312 C 272.792969 269.417969 271.886719 269.441406 271.042969 269.425781 C 269.257812 269.394531 267.445312 269.640625 265.777344 270.28125 C 265.53125 270.375 265.046875 270.480469 265.046875 270.480469 C 265.046875 270.480469 263.484375 267.417969 260.664062 264.484375 C 258.316406 262.039062 255.703125 259.707031 253.261719 257.375 C 252.488281 256.632812 250.464844 254.753906 250.464844 254.753906 C 250.464844 254.753906 251.542969 253.324219 251.863281 252.9375 C 254.375 249.890625 255.726562 248.277344 258.109375 245.65625 C 260.382812 243.15625 262.117188 240.878906 264.320312 238.320312 C 266.800781 235.433594 269.324219 232.585938 271.832031 229.722656 C 272.007812 229.519531 272.734375 228.730469 272.734375 228.730469 C 272.734375 228.730469 272.925781 228.867188 273.234375 229.117188 C 274.695312 230.296875 276.167969 231.453125 277.628906 232.636719 Z M 277.625 232.636719 " fill-opacity="1" fill-rule="nonzero"/></g></svg>