<svg width="173" height="185" viewBox="0 0 173 185" fill="none" xmlns="http://www.w3.org/2000/svg">
<path d="M33.4242 29.352V26.632H30.6082V22.248H34.6722V25H41.9042V21.128H33.4242V18.408H30.6082V11.336H33.4242V8.584H43.1522V11.336H46.0002V15.688H41.9042V12.968H34.6722V16.808H43.1522V19.496H46.0002V26.632H43.1522V29.352H33.4242ZM52.7055 29.352V26.632H49.8895V11.336H52.7055V8.584H62.4335V11.336H65.2815V15.688H61.1855V12.968H53.9535V16.808H59.6175V21.128H53.9535V25H61.1855V22.248H65.2815V26.632H62.4335V29.352H52.7055ZM69.1707 29.352V14.056H71.9867V11.336H74.8027V8.584H78.8987V11.336H81.7147V14.056H84.5627V29.352H80.4667V23.88H73.2347V29.352H69.1707ZM73.2347 19.496H80.4667V15.688H77.6507V12.968H76.0507V15.688H73.2347V19.496ZM88.452 29.352V11.336H91.268V8.584H100.996V11.336H103.844V21.128H100.996V23.88H99.62V25H102.404V29.352H98.372V26.632H95.492V23.88H92.516V29.352H88.452ZM92.516 19.496H99.748V12.968H92.516V19.496ZM110.549 29.352V26.632H107.733V11.336H110.549V8.584H120.277V11.336H123.125V18.408H119.029V12.968H111.797V25H119.029V19.496H123.125V26.632H120.277V29.352H110.549ZM127.014 29.352V8.584H131.078V16.808H132.646V14.056H136.742V16.808H138.31V8.584H142.406V29.352H138.31V21.128H131.078V29.352H127.014Z" fill="#1E1E2F"/>
<path fill-rule="evenodd" clip-rule="evenodd" d="M80.4011 136.739L63.3561 178.926C61.7047 183.012 57.0458 184.992 52.9581 183.34C48.8719 181.689 46.8941 177.028 48.5454 172.942L65.5926 130.749C57.8997 125.984 51.8036 118.93 48.2208 110.489C43.65 99.7241 43.5455 87.5825 47.9258 76.74C57.0496 54.1593 82.7517 43.248 105.332 52.3718L106.261 52.7475C117.105 57.1276 125.765 65.6375 130.334 76.4039C134.904 87.1703 135.01 99.3101 130.628 110.153C122.462 130.369 101.008 141.23 80.4011 136.739ZM78.2779 119.335L79.2068 119.71C93.6071 125.529 110 118.57 115.817 104.17C118.612 97.2544 118.544 89.5119 115.629 82.6459C112.715 75.78 107.193 70.3525 100.277 67.5581L99.3485 67.1824C84.9468 61.3651 68.5554 68.3222 62.738 82.7238C59.9437 89.6398 60.0113 97.3808 62.9262 104.248C65.8394 111.114 71.3619 116.54 78.2779 119.335Z" fill="#F8F9FD" stroke="black" stroke-width="1.5" stroke-miterlimit="2" stroke-linejoin="round"/>
<path fill-rule="evenodd" clip-rule="evenodd" d="M75.3111 133.409L58.2661 175.596C56.615 179.684 51.9558 181.662 47.8681 180.011C43.782 178.359 41.8043 173.7 43.4555 169.612L60.5027 127.419C52.8098 122.654 46.7136 115.6 43.1311 107.161C38.5616 96.3941 38.4557 84.2543 42.8374 73.41C51.9597 50.8295 77.662 39.9197 100.243 49.042L101.171 49.4177C112.016 53.7993 120.675 62.3092 125.245 73.0741C129.814 83.8405 129.92 95.9803 125.538 106.825C117.372 127.039 95.9179 137.9 75.3111 133.409ZM73.1879 116.005L74.1169 116.38C88.5172 122.2 104.91 115.241 110.728 100.841C113.522 93.9246 113.454 86.1821 110.539 79.3161C107.626 72.45 102.103 67.0227 95.1875 64.2283L94.2588 63.8542C79.8584 58.0351 63.4656 64.9939 57.6481 79.394C54.8537 86.31 54.9215 94.0525 57.8362 100.918C60.7494 107.785 66.272 113.21 73.1879 116.005Z" fill="#00CED1" stroke="black" stroke-width="1.5" stroke-miterlimit="2" stroke-linejoin="round"/>
</svg>
