<svg width="28" height="28" viewBox="0 0 28 28" fill="none" xmlns="http://www.w3.org/2000/svg">
<path d="M13.5448 27.0896C6.07615 27.0896 0 21.0134 0 13.5448C0 6.07615 6.07615 0 13.5448 0C21.0134 0 27.0896 6.07615 27.0896 13.5448C27.0896 21.0134 21.0134 27.0896 13.5448 27.0896ZM13.5448 1.29002C6.78725 1.29002 1.29002 6.78725 1.29002 13.5448C1.29002 20.302 6.78725 25.7996 13.5448 25.7996C20.302 25.7996 25.7996 20.302 25.7996 13.5448C25.7996 6.78725 20.302 1.29002 13.5448 1.29002Z" fill="black"/>
<path d="M15.6588 16.328C17.2717 15.5391 18.3924 13.8962 18.3924 11.9753C18.3924 11.9592 18.3913 11.9435 18.391 11.9275C18.05 12.0252 17.6944 12.0769 17.3338 12.0769C17.2533 12.0769 17.1722 12.0742 17.0911 12.0691C15.1794 11.9483 13.6467 10.4156 13.5258 8.50354C13.4961 8.03125 13.5543 7.56372 13.6916 7.12203C13.6426 7.12054 13.5941 7.11816 13.5451 7.11816C10.8683 7.11816 8.69841 9.29276 8.69841 11.9753C8.69841 13.8947 9.81913 15.5391 11.4317 16.328C8.51425 16.8523 6.38184 18.4091 6.38184 20.2712H20.7078C20.709 18.4094 18.5766 16.8526 15.6588 16.328Z" fill="black"/>
<path d="M19.6927 5.89997C19.0669 5.27412 18.2167 4.9248 17.3337 4.9248C17.2633 4.9248 17.1926 4.92718 17.1219 4.93164C15.7615 5.01748 14.6214 5.92462 14.1919 7.16178C14.1913 7.16296 14.191 7.16445 14.1907 7.16564C14.1691 7.22772 14.1497 7.29099 14.1319 7.35485C14.129 7.36554 14.126 7.37594 14.123 7.38693C14.1052 7.45317 14.0889 7.52 14.0752 7.58802C14.0746 7.5904 14.0743 7.59307 14.0737 7.59545C14.0612 7.65812 14.0508 7.72139 14.0419 7.78495C14.0395 7.80189 14.0372 7.81911 14.0351 7.83604C14.0271 7.90169 14.0199 7.96733 14.0158 8.03387C14.0155 8.03536 14.0155 8.03684 14.0155 8.03803C13.9852 8.51715 14.0583 8.99092 14.2234 9.42934C14.3886 9.86806 14.6458 10.2711 14.9838 10.6092C15.6599 11.2852 16.597 11.6375 17.5547 11.5775C17.6191 11.5736 17.6833 11.5668 17.7465 11.5591C17.7596 11.5576 17.7724 11.5558 17.7852 11.554C17.8413 11.5466 17.8971 11.5377 17.9524 11.5273C17.9589 11.5261 17.9655 11.5249 17.9723 11.5237C19.4385 11.2416 20.5645 9.9949 20.6611 8.47111C20.7216 7.51317 20.3688 6.57602 19.6927 5.89997ZM19.276 8.52903H17.6111V10.1918C17.6111 10.3424 17.489 10.4645 17.3384 10.4645C17.1878 10.4645 17.0657 10.3424 17.0657 10.1918V8.52903H15.4009C15.2506 8.52903 15.1285 8.40665 15.1285 8.25635C15.1285 8.10605 15.2509 7.98367 15.4009 7.98367H17.0657V6.31701C17.0657 6.16671 17.1881 6.04433 17.3384 6.04433C17.4887 6.04433 17.6111 6.16671 17.6111 6.31701V7.98367H19.276C19.4263 7.98367 19.5487 8.10605 19.5487 8.25635C19.5487 8.40665 19.4263 8.52903 19.276 8.52903Z" fill="black"/>
</svg>
