<svg width="26" height="26" viewBox="0 0 26 26" fill="none" xmlns="http://www.w3.org/2000/svg">
<path d="M18.417 23.8337C17.5142 23.8337 16.7469 23.5177 16.1149 22.8857C15.483 22.2538 15.167 21.4864 15.167 20.5837C15.167 20.4753 15.1941 20.2225 15.2482 19.8253L7.63783 15.3837C7.34894 15.6545 7.01491 15.8666 6.63574 16.0201C6.25658 16.1736 5.85033 16.2503 5.41699 16.2503C4.51421 16.2503 3.74685 15.9344 3.11491 15.3024C2.48296 14.6705 2.16699 13.9031 2.16699 13.0003C2.16699 12.0975 2.48296 11.3302 3.11491 10.6982C3.74685 10.0663 4.51421 9.75033 5.41699 9.75033C5.85033 9.75033 6.25658 9.82706 6.63574 9.98053C7.01491 10.134 7.34894 10.3462 7.63783 10.617L15.2482 6.17533C15.2121 6.04894 15.1896 5.92706 15.1805 5.8097C15.1715 5.69234 15.167 5.56144 15.167 5.41699C15.167 4.51421 15.483 3.74685 16.1149 3.11491C16.7469 2.48296 17.5142 2.16699 18.417 2.16699C19.3198 2.16699 20.0871 2.48296 20.7191 3.11491C21.351 3.74685 21.667 4.51421 21.667 5.41699C21.667 6.31977 21.351 7.08713 20.7191 7.71908C20.0871 8.35102 19.3198 8.66699 18.417 8.66699C17.9837 8.66699 17.5774 8.59026 17.1982 8.43678C16.8191 8.28331 16.485 8.07116 16.1962 7.80033L8.58574 12.242C8.62185 12.3684 8.64442 12.4903 8.65345 12.6076C8.66248 12.725 8.66699 12.8559 8.66699 13.0003C8.66699 13.1448 8.66248 13.2757 8.65345 13.393C8.64442 13.5104 8.62185 13.6323 8.58574 13.7587L16.1962 18.2003C16.485 17.9295 16.8191 17.7173 17.1982 17.5639C17.5774 17.4104 17.9837 17.3337 18.417 17.3337C19.3198 17.3337 20.0871 17.6496 20.7191 18.2816C21.351 18.9135 21.667 19.6809 21.667 20.5837C21.667 21.4864 21.351 22.2538 20.7191 22.8857C20.0871 23.5177 19.3198 23.8337 18.417 23.8337Z" fill="#1D1B20"/>
</svg>
