<svg width="56" height="56" viewBox="0 0 56 56" fill="none" xmlns="http://www.w3.org/2000/svg">
<path d="M33.79 7.00098C34.4994 6.67282 35.2817 6.52653 36.1738 6.63574C30.8507 14.0341 27.7979 22.0303 26.4375 30.4639C25.758 30.4813 25.0814 30.5066 24.4082 30.5439C21.5416 20.6579 17.2943 13.4981 11.709 8.95703C12.0496 8.80187 12.4022 8.75133 12.7725 8.7832C13.361 8.83398 14.0166 9.09275 14.7344 9.52051C15.8392 10.1788 16.8963 10.8273 17.9482 11.4727C18.9993 12.1175 20.045 12.7598 21.124 13.4004C23.2576 14.6675 25.866 14.4148 27.7178 12.7637C28.9417 11.6722 30.1001 10.5496 31.2715 9.11816V9.11719C32.0544 8.15999 32.8779 7.42306 33.79 7.00098Z" fill="#00CED1" stroke="black"/>
<path d="M24.3525 7.77051C24.4477 7.77455 24.5427 7.78256 24.6367 7.7959C24.7309 7.80922 24.8252 7.82795 24.9189 7.85059V7.84961C25.0114 7.8724 25.1029 7.90038 25.1924 7.93164L25.4561 8.03906C25.542 8.07892 25.6266 8.12316 25.709 8.17188V8.17285C25.7902 8.22073 25.8703 8.27273 25.9473 8.3291C26.0246 8.38579 26.0983 8.44561 26.1689 8.50879C26.2399 8.57228 26.3081 8.63915 26.3721 8.70898C26.4371 8.77998 26.4978 8.85396 26.5547 8.92969C26.6114 9.00518 26.6648 9.08326 26.7148 9.16504V9.16602C26.7643 9.24759 26.8101 9.33108 26.8516 9.41699C26.8927 9.5031 26.9295 9.5907 26.9619 9.67969C26.9947 9.76953 27.0233 9.86132 27.0469 9.95312V9.9541C27.0705 10.0453 27.0897 10.1383 27.1045 10.2334C27.1191 10.3277 27.1295 10.4225 27.1348 10.5176C27.14 10.6126 27.1407 10.7077 27.1367 10.8027C27.1327 10.8982 27.1238 10.9931 27.1104 11.0879C27.0971 11.1813 27.079 11.2744 27.0566 11.3672C27.0337 11.4603 27.0061 11.5525 26.9746 11.6426C26.9435 11.7317 26.9077 11.82 26.8672 11.9072C26.8277 11.9923 26.7832 12.0759 26.7344 12.1592C26.686 12.2411 26.6334 12.3206 26.5771 12.3975L26.5762 12.3994C26.5213 12.4747 26.4618 12.5479 26.3984 12.6191C26.3342 12.6906 26.2671 12.7589 26.1973 12.8232C26.1264 12.8882 26.0532 12.949 25.9775 13.0059C25.9008 13.0635 25.822 13.117 25.7412 13.166L25.7402 13.167C25.6593 13.2164 25.5764 13.262 25.4912 13.3027H25.4893L25.2266 13.4141C25.1375 13.4467 25.0459 13.4745 24.9541 13.498L24.9531 13.499C24.861 13.5229 24.7684 13.5416 24.6758 13.5557H24.6738C24.5798 13.5702 24.4853 13.5806 24.3906 13.5859C24.2954 13.5912 24.1997 13.5919 24.1045 13.5879L23.8203 13.5615C23.7262 13.5482 23.6326 13.5304 23.5391 13.5078H23.54C23.4472 13.4851 23.3558 13.4583 23.2656 13.4268H23.2666C23.1757 13.3947 23.0873 13.3591 23.002 13.3193L23.001 13.3184C22.9151 13.2785 22.8304 13.2342 22.748 13.1855C22.6661 13.1371 22.5871 13.0852 22.5107 13.0293L22.5098 13.0283L22.2871 12.8477C22.2164 12.7844 22.1487 12.718 22.085 12.6484C22.02 12.5775 21.9592 12.5043 21.9023 12.4287C21.845 12.3524 21.7908 12.2729 21.7412 12.1914L21.6055 11.9404C21.5643 11.8538 21.5274 11.7664 21.4951 11.6777V11.6768L21.4102 11.4033C21.3865 11.3112 21.3666 11.2186 21.3525 11.126V11.125L21.3232 10.8408C21.318 10.7456 21.3172 10.6503 21.3213 10.5547C21.3253 10.4595 21.3333 10.3646 21.3467 10.2705C21.36 10.1764 21.3788 10.0818 21.4014 9.98828L21.4004 9.9873C21.4231 9.89531 21.4513 9.80483 21.4824 9.71582C21.5136 9.62668 21.5494 9.53745 21.5898 9.4502L21.7227 9.19824L21.8799 8.95898C21.9355 8.88281 21.996 8.80879 22.0605 8.73633L22.0596 8.73535L22.2607 8.53418C22.3306 8.46992 22.4031 8.40892 22.4795 8.35156H22.4805C22.5559 8.29463 22.6342 8.24091 22.7158 8.19141H22.7168C22.7973 8.14224 22.8803 8.09598 22.9658 8.05469L22.9668 8.05566C23.0532 8.01432 23.1412 7.97701 23.2305 7.94434L23.2314 7.94336C23.3187 7.91124 23.4089 7.88269 23.502 7.8584L23.5029 7.85938L23.7832 7.80176C23.8764 7.7873 23.9712 7.7778 24.0674 7.77246C24.1625 7.76719 24.2575 7.76647 24.3525 7.77051Z" fill="#00CED1" stroke="black"/>
<path d="M29.6582 15.373C34.8345 17.565 41.4783 18.3786 47.0303 17.5029C47.3312 19.6962 47.3557 22.0984 47.0498 24.5918V24.5928C46.4747 29.2834 44.8472 33.3699 42.707 36.1855C40.5583 39.0123 37.9629 40.4808 35.4355 40.1709C32.9081 39.8609 30.7432 37.8085 29.3408 34.5459C27.944 31.2962 27.3517 26.9368 27.9268 22.2461C28.2323 19.7528 28.8367 17.4282 29.6582 15.373Z" fill="#00CED1" stroke="black"/>
<path fill-rule="evenodd" clip-rule="evenodd" d="M40.9299 27.5566C40.9197 27.7619 40.9018 27.9693 40.8759 28.1793C40.5194 31.0873 38.8168 33.2711 37.0726 33.0571C35.3587 32.8467 34.2431 30.4004 34.5428 27.5566H40.9299Z" fill="black"/>
<path d="M17.6299 24.4102L15.0322 30.0039L10.9121 29.7881C10.9941 26.2827 12.8773 23.2156 15.6992 21.4951L17.6299 24.4102Z" fill="#00CED1" stroke="black"/>
<path d="M25.6162 38.8096C22.6243 40.4241 18.9897 40.4005 16.0176 38.7363L17.2988 33.8906L22.1826 33.7275L25.6162 38.8096Z" fill="#00CED1" stroke="black"/>
<path d="M26.1123 21.5195C28.9016 23.2393 30.765 26.2808 30.8564 29.7539L25.6309 29.6797L23.917 25.6787L26.1123 21.5195Z" fill="#00CED1" stroke="black"/>
<path d="M22.1592 32.7168L20.5225 35.4619L15.4482 38.3916C12.8502 36.6991 11.0901 33.8314 10.9209 30.543L19.249 25.7285L22.1592 32.7168Z" fill="#00CED1" stroke="black"/>
<path d="M25.7314 27.5879L30.8477 30.543C30.6784 33.8317 28.9186 36.6995 26.3203 38.3916L21.3848 35.541V30.0986L22.4111 26.8848L25.7314 27.5879Z" fill="#00CED1" stroke="black"/>
<path d="M20.8867 20.041C22.5184 20.0411 24.057 20.4331 25.416 21.127V26.8281L20.8857 29.4453L16.3574 26.8281V21.126C17.716 20.4323 19.2549 20.041 20.8867 20.041Z" fill="#00CED1" stroke="black"/>
<path fill-rule="evenodd" clip-rule="evenodd" d="M32.5271 23.0584C32.3393 23.4263 31.8887 23.5721 31.5208 23.3844C31.1533 23.1963 31.0075 22.7456 31.1952 22.3778C32.1089 20.5913 34.4714 20.1447 35.9709 21.4915C36.4339 21.9071 36.7657 22.4602 36.9101 23.0778C37.0038 23.481 36.7529 23.8846 36.3497 23.9787C35.9461 24.0727 35.5429 23.8215 35.4492 23.4179C35.12 22.0055 33.1877 21.7682 32.5271 23.0584ZM40.39 24.0756C40.2023 24.4435 39.7516 24.5893 39.3841 24.4016C39.0163 24.2134 38.8704 23.7628 39.0586 23.395C39.9722 21.6085 42.3343 21.1619 43.8339 22.5087C44.2969 22.9243 44.629 23.4774 44.773 24.095C44.8671 24.4986 44.6163 24.9018 44.2127 24.9958C43.8095 25.0899 43.4062 24.8391 43.3122 24.4355C42.9829 23.0227 41.0506 22.7854 40.39 24.0756Z" fill="black"/>
</svg>
