<svg width="241" height="251" viewBox="0 0 241 251" fill="none" xmlns="http://www.w3.org/2000/svg">
<path d="M224.958 96.4236L154.509 55.7875C150.51 53.4829 144.469 53.2219 141.035 55.2227L14.3897 128.323C12.7805 129.237 12.0425 130.452 12.0425 131.758V146.23C12.0425 147.752 13.1722 149.358 15.3462 150.618L85.796 191.3C89.7951 193.602 95.8352 193.863 99.2694 191.865L141.949 167.222L150.075 171.914C154.335 174.392 161.289 174.349 165.635 171.872L215.703 142.969C220.005 140.494 220.048 136.452 215.745 134.017L207.619 129.323L225.96 118.761C227.436 117.893 228.219 116.763 228.305 115.545V100.9C228.262 99.3357 227.132 97.6838 224.958 96.4236ZM205.576 136.322C208.53 138.016 208.53 140.798 205.533 142.535L164.809 166.047C161.854 167.745 157.029 167.787 154.074 166.093L148.988 163.135L200.447 133.41L205.576 136.322Z" fill="#00CED1"/>
<path d="M85.796 176.654L60.1094 161.833L199.229 81.4717L224.958 96.3359C228.958 98.6404 229.392 102.117 225.915 104.116L99.2694 177.219C95.7925 179.217 89.7951 178.956 85.796 176.654ZM154.117 166.048C157.072 167.745 161.854 167.745 164.852 166.005L205.576 142.492C208.53 140.798 208.576 138.016 205.618 136.277L200.535 133.322L149.076 163.05L154.117 166.048ZM150.033 171.872L141.949 167.177L99.2694 191.822C95.8352 193.82 89.7951 193.559 85.796 191.257L15.3462 150.619C13.1722 149.358 12.0425 147.752 12.0425 146.23V160.746C12.0425 162.267 13.1722 163.876 15.3462 165.091L85.796 205.772C89.7951 208.074 95.8352 208.336 99.2694 206.337L155.899 173.611C153.771 173.393 151.684 172.828 150.033 171.872ZM225.915 118.719L207.574 129.28L215.703 133.975C217.354 134.931 218.354 136.103 218.745 137.364L225.915 133.234C227.567 132.28 228.35 130.975 228.22 129.629V115.546C228.174 116.72 227.394 117.85 225.915 118.719Z" fill="#F8F9FD"/>
<mask id="mask0_79_17" style="mask-type:luminance" maskUnits="userSpaceOnUse" x="11" y="53" width="218" height="156">
<path d="M11.568 53.0586H228.789V208.343H11.568V53.0586Z" fill="white"/>
</mask>
<g mask="url(#mask0_79_17)">
<path d="M228.696 100.726C228.696 98.9867 227.394 97.2043 225.177 95.9441L154.725 55.2653C150.64 52.8754 144.382 52.657 140.819 54.7004L14.1713 127.846C12.5194 128.803 11.6082 130.149 11.6082 131.627C11.6082 131.67 11.6082 131.715 11.6082 131.758V131.8V160.791C11.6082 162.528 12.9111 164.268 15.1278 165.528L85.5776 206.207C87.8395 207.51 90.7064 208.162 93.4452 208.162C95.7046 208.162 97.8786 207.685 99.5305 206.771L152.38 176.262C154.074 176.782 155.942 177.043 157.812 177.043C160.724 177.043 163.636 176.393 165.851 175.133L215.876 146.188C218.135 144.882 219.353 143.145 219.353 141.232C219.353 140.755 219.353 138.927 219.353 138.45C219.353 138.408 219.353 138.363 219.353 138.32C219.353 138.277 219.353 138.189 219.353 138.147C219.353 138.102 219.353 138.059 219.353 138.016C219.353 137.928 219.353 137.886 219.31 137.798C219.31 137.755 219.31 137.712 219.265 137.667V137.625L226.133 133.671C227.916 132.669 228.784 131.193 228.696 129.629V100.9C228.696 100.857 228.696 100.857 228.696 100.812C228.696 100.769 228.696 100.726 228.696 100.726ZM224.697 96.8152C226.61 97.9449 227.74 99.3357 227.785 100.769C227.785 101.899 227.002 102.943 225.699 103.724L99.051 176.827C95.7498 178.74 89.8804 178.479 86.0144 176.262L62.8909 162.919L85.1885 150.054H85.2311C86.1876 150.618 87.5784 150.664 88.4043 150.184L89.534 149.534L98.1397 154.487C99.3999 155.228 101.313 155.313 102.397 154.66L108.222 151.314C109.309 150.664 109.178 149.577 107.918 148.839L99.3121 143.883L100.442 143.23C101.268 142.753 101.137 141.927 100.226 141.405H100.181L168.374 102.029L168.59 102.16C169.546 102.725 170.937 102.767 171.763 102.29L172.892 101.638L181.498 106.593C182.758 107.331 184.671 107.419 185.758 106.766L191.58 103.42C192.667 102.767 192.536 101.683 191.276 100.942L182.67 95.9893L183.8 95.3366C184.626 94.8596 184.496 94.0337 183.584 93.5115L183.366 93.3809L201.054 83.1686L224.697 96.8152ZM14.6056 128.715L141.254 55.6142C142.775 54.7431 144.773 54.3088 146.859 54.3088C149.423 54.3088 152.119 54.9188 154.248 56.1791L198.187 81.5594L180.499 91.7718L177.891 90.2956C176.934 89.7308 175.543 89.6856 174.717 90.1651L173.588 90.8178L167.548 87.3409C166.287 86.6003 164.375 86.515 163.288 87.1652L157.463 90.5115C156.376 91.1642 156.507 92.2513 157.767 92.9893L163.81 96.4662L162.68 97.119C161.854 97.5959 161.985 98.4219 162.896 98.944L165.504 100.423L97.3138 139.799L94.5322 138.189C93.5758 137.625 92.185 137.582 91.3591 138.059L90.2294 138.712L84.1868 135.235C82.9266 134.497 81.0162 134.409 79.9291 135.061L74.105 138.408C73.018 139.058 73.1485 140.145 74.4087 140.883L80.4513 144.36L79.3191 145.013C78.4957 145.492 78.6237 146.316 79.5375 146.838L82.3191 148.447L60.0241 161.31L15.6072 135.581C13.6943 134.497 12.6073 133.061 12.5194 131.67C12.5646 130.54 13.26 129.498 14.6056 128.715ZM12.5194 134.148C13.1295 134.974 13.9981 135.757 15.1278 136.407L85.5776 177.088C87.8395 178.391 90.7064 179.044 93.4452 179.044C95.4435 179.044 97.3565 178.695 98.8778 177.957C99.0962 177.869 99.3121 177.738 99.5305 177.608L226.176 104.507C226.871 104.115 227.394 103.639 227.828 103.159V115.503C227.785 116.459 227.22 117.328 226.176 118.023C226.045 118.111 225.872 118.242 225.699 118.327L207.574 128.758L204.227 126.802L196.666 131.148V134.497L197.1 134.755L148.988 162.528L145.642 160.572L138.08 164.918V168.264L138.515 168.525L99.0083 191.342C95.7046 193.255 89.8378 192.994 85.9692 190.778L15.6072 150.184C15.3462 150.054 15.1278 149.88 14.9119 149.75C13.3906 148.708 12.5194 147.448 12.5194 146.188V134.148ZM218.223 135.496C218.223 135.451 218.18 135.451 218.18 135.408C218.135 135.32 218.05 135.277 218.005 135.192C217.962 135.147 217.919 135.104 217.919 135.104C217.874 135.061 217.789 134.974 217.743 134.931C217.701 134.886 217.658 134.843 217.615 134.8C217.57 134.755 217.528 134.712 217.44 134.67C217.354 134.625 217.309 134.539 217.224 134.497C217.179 134.451 217.136 134.409 217.093 134.409C217.048 134.366 217.005 134.321 216.963 134.321L227.785 123.498V126.021L218.223 135.496ZM216.832 134.148C216.79 134.148 216.79 134.148 216.832 134.148C216.79 134.105 216.744 134.105 216.744 134.06C216.614 133.974 216.528 133.887 216.398 133.844C216.398 133.844 216.353 133.844 216.353 133.801C216.225 133.713 216.094 133.625 215.964 133.54L215.268 133.148L223.829 124.585L227.785 120.632V123.152L216.832 134.148ZM215.138 133.106L213.529 132.192L227.785 117.935V120.458L215.138 133.106ZM213.398 132.104L211.791 131.193L220.786 122.196L226.133 119.11C226.307 119.022 226.48 118.892 226.653 118.761C226.698 118.719 226.741 118.676 226.784 118.631C226.871 118.588 226.959 118.503 227.002 118.457L213.398 132.104ZM213.877 126.195L209.966 130.106L208.53 129.28L213.877 126.195ZM214.312 125.934L220.309 122.457L211.661 131.105L210.052 130.194L214.312 125.934ZM206.836 140.798C206.489 141.275 205.967 141.709 205.314 142.101L201.185 144.491L205.837 139.841C206.271 140.145 206.575 140.449 206.836 140.798ZM201.88 143.665L200.75 144.797L194.753 148.274L204.142 138.885L205.357 139.58C205.488 139.668 205.618 139.753 205.706 139.799L201.88 143.665ZM199.144 143.665L194.276 148.532L188.279 152.009L202.36 137.928L203.966 138.842L199.144 143.665ZM196.405 143.665L187.844 152.228L181.845 155.705L191.06 146.491L199.274 138.277L200.708 136.841L202.317 137.755L196.405 143.665ZM193.666 143.665L181.368 155.966L175.37 159.443L198.925 135.887L200.535 136.799L193.666 143.665ZM190.93 143.665L174.891 159.704L168.893 163.181L194.926 137.148L198.057 135.365L198.84 135.799L190.93 143.665ZM155.681 159.789L151.466 164.007L149.902 163.093L155.681 159.789ZM156.16 159.528L162.158 156.051L153.206 165.006L151.597 164.092L156.16 159.528ZM158.247 160.138L162.592 155.792L168.59 152.315L154.943 165.962C154.725 165.874 154.509 165.744 154.335 165.658L153.334 165.091L158.247 160.138ZM158.247 162.877L169.069 152.054L175.066 148.577L163.591 160.05L156.986 166.658C156.291 166.527 155.638 166.309 155.031 166.047L158.247 162.877ZM158.247 165.613L175.543 148.316L181.541 144.839L163.636 162.746L159.55 166.831C158.769 166.831 157.986 166.788 157.202 166.612L158.247 165.613ZM182.02 144.578L188.018 141.101L162.723 166.396C161.766 166.658 160.767 166.831 159.723 166.831L182.02 144.578ZM188.452 140.84L194.449 137.363L168.416 163.396L164.59 165.613C164.113 165.917 163.549 166.135 162.984 166.309L188.452 140.84ZM149.945 176.436L149.729 176.654L143.729 180.131L149.119 174.741L149.814 175.133C150.118 175.306 150.467 175.479 150.771 175.61L149.945 176.436ZM147.251 176.436L143.295 180.389L137.297 183.866L147.424 173.742L149.033 174.653L147.251 176.436ZM144.512 176.436L136.82 184.128L130.823 187.604L145.687 172.74L147.294 173.654L144.512 176.436ZM141.773 176.436L130.866 187.343L130.389 187.823L124.389 191.3L125.521 190.17L143.99 171.698L145.599 172.61L141.773 176.436ZM139.037 176.436L123.869 191.604L117.872 195.08L125.476 187.474L141.861 171.091L142.21 170.742L143.817 171.656L139.037 176.436ZM136.298 176.436L117.392 195.342L111.395 198.818L140.47 169.743L142.08 170.654L136.298 176.436ZM133.559 176.436L130.823 179.174L110.918 199.08L104.918 202.556L136.69 170.785L139.429 169.221L140.297 169.743L133.559 176.436ZM128.127 176.436L98.2251 206.337C97.2259 206.771 96.0962 207.033 94.8787 207.163L123.869 178.173L129.866 174.696L128.127 176.436ZM89.9683 203.817L104.441 189.344L110.438 185.867L89.5767 206.729C88.9265 206.553 88.2738 206.38 87.6637 206.119L89.9683 203.817ZM92.7072 203.817L110.918 185.606L116.915 182.129L98.0518 200.99L91.9239 207.12C91.1859 207.033 90.4453 206.945 89.7499 206.771L92.7072 203.817ZM33.8605 175.263L38.0755 171.046L42.421 166.7L44.0302 167.614L35.5123 176.132L33.8605 175.263ZM26.6882 157.66L18.1704 166.178L16.5612 165.267L25.0816 156.746L26.6882 157.66ZM26.8188 157.748L28.4279 158.659L19.9076 167.177L18.3009 166.266L26.8188 157.748ZM27.1225 160.138L28.5133 158.747L30.1225 159.658L21.6046 168.179L19.9955 167.265L27.1225 160.138ZM27.1225 162.877L30.253 159.746L31.8597 160.66L23.3418 169.178L21.7352 168.264L27.1225 162.877ZM27.1225 165.613L31.9902 160.745L33.5994 161.659L25.0816 170.177L23.4724 169.263L27.1225 165.613ZM27.1225 168.309L33.7299 161.702L35.3366 162.616L32.5124 165.44L26.8188 171.176L25.2121 170.265L27.1225 168.309ZM27.1225 171.046L35.4672 162.701L37.0763 163.615L28.5585 172.133L26.9493 171.219L27.1225 171.046ZM29.8614 171.046L37.2069 163.7L38.8135 164.614L30.2957 173.177L28.689 172.263L29.8614 171.046ZM32.6003 171.046L38.9441 164.702L40.5533 165.613L32.0354 174.176L30.4262 173.262L32.6003 171.046ZM35.3366 171.046L40.6838 165.701L42.2905 166.612L33.7726 175.133L32.166 174.219L35.3366 171.046ZM40.8143 171.046L44.1607 167.699L45.7674 168.613L37.2496 177.131L35.6429 176.217L40.8143 171.046ZM43.508 171.046L45.8553 168.698L47.4619 169.612L40.6838 176.393L38.9441 178.13L37.3374 177.219L43.508 171.046ZM46.2469 171.046L47.5925 169.7L49.2016 170.611L40.6838 179.129L39.0746 178.218L46.2469 171.046ZM48.9832 171.046L49.3322 170.699L50.9389 171.611L46.159 176.393L42.421 180.131L40.8143 179.217L48.9832 171.046ZM51.0694 171.741L52.6786 172.655L44.1607 181.173L42.5516 180.259L51.0694 171.741ZM52.7664 172.74L54.3731 173.654L45.8553 182.172L44.2461 181.261L52.7664 172.74ZM54.5036 173.742L56.1128 174.653L54.3304 176.436L47.5925 183.171L45.9858 182.26L54.5036 173.742ZM56.2434 174.741L57.85 175.652L57.0693 176.436L49.3322 184.173L47.723 183.259L56.2434 174.741ZM57.9806 175.74L59.5898 176.654L51.0694 185.172L49.4627 184.258L57.9806 175.74ZM59.7203 176.739L61.327 177.653L52.8091 186.171L51.1999 185.257L59.7203 176.739ZM59.9362 179.26L61.4575 177.738L63.0667 178.652L54.5463 187.17L52.9397 186.259L59.9362 179.26ZM59.9362 181.999L63.1972 178.74L64.8039 179.651L56.286 188.169L54.6769 187.258L59.9362 181.999ZM59.9362 184.738L64.9344 179.739L66.5436 180.651L58.0233 189.171L56.4166 188.257L59.9362 184.738ZM59.9362 187.431L66.6741 180.696L68.2808 181.607L59.763 190.125L58.1538 189.214L59.9362 187.431ZM59.9362 190.17L68.3687 181.738L69.9753 182.651L61.4575 191.169L59.8508 190.255L59.9362 190.17ZM70.1059 182.737L71.7151 183.651L63.1972 192.168L61.588 191.257L70.1059 182.737ZM71.8456 183.736L73.4523 184.65L65.2834 192.821L64.9344 193.168L63.3278 192.256L71.8456 183.736ZM73.5828 184.738L75.192 185.649L66.6741 194.167L65.065 193.255L73.5828 184.738ZM75.2773 185.737L76.8865 186.648L68.3687 195.168L66.7595 194.255L75.2773 185.737ZM77.0171 186.736L78.6237 187.65L70.1059 196.167L68.4992 195.254L77.0171 186.736ZM78.7543 187.735L80.3634 188.649L71.8456 197.167L70.2364 196.253L78.7543 187.735ZM80.494 188.734L82.1007 189.648L73.5828 198.166L71.9761 197.254L80.494 188.734ZM82.2312 189.736L83.8404 190.647L75.3225 199.165L73.7134 198.254L82.2312 189.736ZM83.9709 190.735L85.5776 191.646L77.0597 200.167L75.4531 199.253L83.9709 190.735ZM85.7081 191.734C85.9265 191.865 86.1876 191.995 86.4035 192.126C86.4914 192.168 86.5792 192.211 86.7098 192.256C86.883 192.342 87.0989 192.429 87.3173 192.517C87.36 192.517 87.4052 192.56 87.4478 192.56L78.7995 201.208L77.1903 200.295L85.7081 191.734ZM87.5784 192.56C87.6211 192.56 87.6211 192.56 87.6637 192.603C87.8395 192.691 88.0127 192.733 88.2311 192.776C88.3591 192.821 88.4897 192.864 88.6202 192.906C88.7959 192.952 88.9692 192.994 89.1851 193.082C89.3156 193.125 89.4461 193.125 89.534 193.168L80.5367 202.165L78.93 201.251L87.5784 192.56ZM89.6645 193.213C89.7951 193.255 89.9683 193.298 90.0988 193.298C90.2294 193.343 90.4026 193.343 90.5331 193.386C90.7064 193.429 90.8821 193.429 91.098 193.471C91.2285 193.471 91.4017 193.516 91.5323 193.516C91.6202 193.516 91.7507 193.516 91.8361 193.559L82.1885 203.207L80.5819 202.295L89.6645 193.213ZM92.0545 193.559H92.0971C92.2277 193.559 92.4034 193.602 92.5314 193.602C92.7072 193.602 92.9231 193.602 93.0988 193.602C93.1842 193.602 93.3147 193.602 93.4026 193.602C93.4452 193.602 93.4879 193.602 93.5331 193.602C93.6636 193.602 93.749 193.602 93.8795 193.602C94.0527 193.602 94.2285 193.602 94.4017 193.559C94.4444 193.559 94.4896 193.559 94.5322 193.559L83.9282 204.163L82.3191 203.252L92.0545 193.559ZM84.4931 203.817L94.7933 193.516C94.7933 193.516 94.7933 193.516 94.836 193.516C95.0092 193.516 95.185 193.471 95.3582 193.471C95.4887 193.471 95.5741 193.429 95.7046 193.429C95.8803 193.386 96.0536 193.386 96.1841 193.341C96.3146 193.341 96.4 193.298 96.5305 193.255C96.7038 193.213 96.8343 193.168 97.01 193.125C97.1406 193.082 97.2259 193.082 97.3565 193.037C97.5297 192.994 97.6602 192.952 97.836 192.906C97.8786 192.906 97.9665 192.864 98.0092 192.864L85.7081 205.162L84.1015 204.251L84.4931 203.817ZM12.5194 160.745V158.356L18.1277 152.75L19.7344 153.661L12.5194 160.876C12.5194 160.833 12.5194 160.791 12.5194 160.745ZM13.2148 149.534C13.26 149.577 13.3027 149.619 13.3454 149.664C13.4332 149.707 13.4759 149.793 13.5638 149.838C13.6064 149.88 13.6491 149.88 13.6491 149.923C13.737 150.011 13.8249 150.054 13.9102 150.141C13.9554 150.184 13.9554 150.184 13.9981 150.229C14.0859 150.315 14.1713 150.36 14.3018 150.445C14.3445 150.445 14.3445 150.488 14.3897 150.488C14.4751 150.533 14.5629 150.576 14.6508 150.664L12.6073 152.705V150.184L13.2148 149.534ZM14.6935 150.706C14.6935 150.749 14.6935 150.749 14.6935 150.706C14.8667 150.794 14.9972 150.88 15.1278 150.967L16.3026 151.62L12.5194 155.443V152.923L14.6935 150.706ZM16.4307 151.751L18.0398 152.662L12.5194 158.182V155.662L16.4307 151.751ZM19.8649 153.749L21.4741 154.66L13.3454 162.832C12.9111 162.267 12.65 161.659 12.5646 161.049L19.8649 153.749ZM12.5194 148.751C12.5646 148.793 12.6073 148.881 12.65 148.924C12.6952 148.969 12.7378 149.012 12.7805 149.054C12.8257 149.097 12.8684 149.185 12.9111 149.228C12.9537 149.273 12.9989 149.316 13.0416 149.358L13.0843 149.403L12.5194 149.968V148.751ZM13.4332 162.919L21.6046 154.748L23.2113 155.662L14.7361 164.137C14.2165 163.745 13.7797 163.354 13.4332 162.919ZM14.8667 164.222L23.3418 155.747L24.951 156.661L16.4307 165.179L15.6072 164.702C15.3462 164.526 15.0851 164.396 14.8667 164.222ZM85.8387 205.25L87.2294 203.859L92.7072 198.384L98.3129 192.776C98.4008 192.733 98.5313 192.691 98.6167 192.648C98.7046 192.603 98.7899 192.603 98.8351 192.56C99.051 192.472 99.3121 192.342 99.4853 192.211L103.964 189.605L98.0518 195.515L87.4905 206.076C86.9684 205.858 86.4487 205.642 86.0144 205.338L85.8387 205.25ZM92.0971 207.163L117.349 181.911L123.347 178.434L94.6628 207.163C93.8369 207.206 92.9683 207.206 92.0971 207.163ZM99.051 205.903C98.8778 205.988 98.7472 206.076 98.574 206.164L125.521 179.217L130.343 174.392L136.341 170.915L130.866 176.393L104.529 202.73L99.051 205.903ZM150.206 176.393L150.944 175.652C151.032 175.698 151.162 175.74 151.248 175.783L150.206 176.393ZM215.399 142.535L165.331 171.437C161.159 173.827 154.378 173.872 150.248 171.48L139.471 165.267L145.642 161.702L153.856 166.439C156.941 168.221 161.939 168.221 165.027 166.396L205.749 142.884C205.967 142.753 206.183 142.623 206.359 142.492C206.401 142.45 206.444 142.45 206.444 142.404C206.617 142.274 206.748 142.188 206.878 142.058C206.924 142.058 206.924 142.015 206.966 142.015C207.097 141.885 207.27 141.709 207.358 141.578C207.531 141.363 207.704 141.101 207.835 140.84C208.053 140.406 208.184 139.929 208.184 139.407C208.184 138.059 207.313 136.841 205.749 135.93L198.057 131.454L204.227 127.889L215.484 134.409C215.745 134.539 215.964 134.67 216.18 134.843C216.31 134.931 216.398 135.016 216.528 135.104C216.614 135.192 216.702 135.235 216.79 135.32C216.92 135.408 217.005 135.538 217.093 135.626C217.136 135.669 217.224 135.757 217.309 135.799C217.397 135.887 217.485 136.015 217.57 136.103C217.615 136.146 217.658 136.234 217.701 136.276C217.789 136.407 217.831 136.495 217.919 136.625C217.962 136.668 218.005 136.756 218.05 136.799C218.092 136.886 218.135 137.017 218.18 137.148C218.223 137.233 218.266 137.278 218.266 137.363C218.311 137.451 218.311 137.582 218.354 137.667C218.354 137.755 218.396 137.843 218.396 137.928C218.396 138.016 218.396 138.102 218.439 138.232C218.439 138.32 218.484 138.408 218.484 138.493C218.439 139.972 217.354 141.45 215.399 142.535ZM218.961 136.668C218.918 136.583 218.876 136.495 218.831 136.407C218.831 136.364 218.788 136.364 218.788 136.322C218.745 136.234 218.7 136.146 218.657 136.103C218.657 136.061 218.615 136.061 218.615 136.015C218.569 135.93 218.527 135.842 218.439 135.799C218.439 135.757 218.396 135.757 218.396 135.712C218.354 135.669 218.354 135.626 218.311 135.581L227.785 126.107V128.627L220.831 135.581L218.961 136.668ZM221.266 135.365L223.786 132.845L227.74 128.888V129.629C227.828 130.844 227.09 131.974 225.654 132.845L221.266 135.365Z" fill="#1E1E2F"/>
</g>
<path d="M62.2402 29.352V12.968H60.6722V15.688H56.6082V11.336H59.4242V8.584H69.1522V11.336H72.0002V15.688H67.9042V12.968H66.3362V29.352H62.2402ZM77.7367 29.352V26.632H74.9207V11.336H77.7367V8.584H87.4647V11.336H90.3127V15.688H86.2167V12.968H78.9847V16.808H84.6487V21.128H78.9847V25H86.2167V22.248H90.3127V26.632H87.4647V29.352H77.7367ZM94.202 29.352V14.056H97.018V11.336H99.834V8.584H103.93V11.336H106.746V14.056H109.594V29.352H105.498V23.88H98.266V29.352H94.202ZM98.266 19.496H105.498V15.688H102.682V12.968H101.082V15.688H98.266V19.496ZM115.987 29.352V26.632H113.171V11.336H115.987V8.584H125.715V11.336H128.563V18.408H124.467V12.968H117.235V25H124.467V19.496H128.563V26.632H125.715V29.352H115.987ZM132.452 29.352V8.584H136.516V16.808H138.084V14.056H142.18V16.808H143.748V8.584H147.844V29.352H143.748V21.128H136.516V29.352H132.452ZM154.549 29.352V26.632H151.733V11.336H154.549V8.584H164.277V11.336H167.125V15.688H163.029V12.968H155.797V16.808H161.461V21.128H155.797V25H163.029V22.248H167.125V26.632H164.277V29.352H154.549ZM171.014 29.352V11.336H173.83V8.584H183.558V11.336H186.406V21.128H183.558V23.88H182.182V25H184.966V29.352H180.934V26.632H178.054V23.88H175.078V29.352H171.014ZM175.078 19.496H182.31V12.968H175.078V19.496Z" fill="#1E1E2F"/>
</svg>
