<svg width="941" height="215" viewBox="0 0 941 215" fill="none" xmlns="http://www.w3.org/2000/svg">
<mask id="mask0_4420_473" style="mask-type:luminance" maskUnits="userSpaceOnUse" x="15" y="32" width="147" height="134">
<path d="M15.9199 32.3608H161.125V165.997H15.9199V32.3608Z" fill="white"/>
</mask>
<g mask="url(#mask0_4420_473)">
<path d="M161.028 104.984C161.028 119.377 156.826 132.785 149.584 144.069C136.694 164.134 116.055 165.977 90.4192 165.977C64.7832 165.977 42.4029 165.304 29.2806 146.741C20.9283 134.94 16.0254 120.536 16.0254 104.984C16.0254 78.7889 29.9409 55.835 50.7958 43.1295C61.7821 36.4097 74.7015 32.5471 88.5267 32.5471C101.09 32.5471 112.901 35.7382 123.196 41.3495C145.738 53.6288 161.028 77.5272 161.028 104.984Z" fill="#0AB2B4"/>
</g>
<path d="M54.6542 134.219L119.401 134.68L126.338 90.4983V69.887L49.0762 73.4894L54.6542 134.219Z" fill="#56352C"/>
<path d="M111.724 87.2997C111.724 87.2997 115.769 82.5148 118.462 84.6896C121.157 86.8662 121.934 96.6812 118.462 99.9756C114.989 103.268 109.188 100.21 109.188 100.21L111.72 87.2997H111.724Z" fill="#D78D69"/>
<path d="M63.501 84.8225C63.501 84.8225 59.2566 80.2148 56.6594 82.5057C54.0586 84.793 53.7044 94.6357 57.3124 97.777C60.9204 100.918 66.587 97.6147 66.587 97.6147L63.501 84.8225Z" fill="#D78D69"/>
<path d="M111.202 130.47L96.7535 160.308L78.8758 161.587L65.248 134.178C65.248 134.178 71.6672 130.234 72.4677 126.85C72.643 126.086 72.6743 124.846 72.5932 123.382C72.3386 118.337 70.9312 110.615 70.9312 110.615L105.482 108.701C105.482 108.701 104.905 114.716 105.207 119.72C105.316 121.563 105.548 123.275 105.969 124.494C107.542 129.013 111.195 130.467 111.195 130.467L111.202 130.47Z" fill="#F9C99C"/>
<path d="M105.173 118.859C100.63 122.255 93.0043 130.155 84.154 130.362C78.8767 130.487 74.8795 126.615 72.5996 123.385C72.3469 118.34 70.9395 110.619 70.9395 110.619L105.488 108.704C105.488 108.704 105.022 114.223 105.173 118.855V118.859Z" fill="#D78D69"/>
<mask id="mask1_4420_473" style="mask-type:luminance" maskUnits="userSpaceOnUse" x="29" y="129" width="121" height="49">
<path d="M29.2773 129.164H149.692V177.433H29.2773V129.164Z" fill="white"/>
</mask>
<g mask="url(#mask1_4420_473)">
<path d="M149.585 144.069C136.695 164.134 114.163 177.43 88.5274 177.43C62.8914 177.43 42.4036 165.303 29.2812 146.741C29.7387 146.295 30.2275 145.939 30.7366 145.675C33.2084 144.393 37.9176 142.493 43.0953 140.51C49.0257 138.243 55.5776 135.886 60.0747 134.259C62.9836 133.202 65.0385 132.461 65.507 132.256C65.7708 132.145 66.1065 132.551 66.5141 133.333C66.6654 133.608 66.8185 133.935 66.9919 134.309C68.6594 137.989 71.3857 145.786 75.7407 150.96C78.1202 153.786 80.9886 155.83 84.4379 155.992C90.9585 156.296 96.9811 150.676 101.172 145.4V145.389C104.793 140.815 107.041 136.495 107.041 136.495L107.774 134.595L109.677 129.615C109.677 129.615 109.779 129.675 109.961 129.777C109.972 129.786 109.993 129.797 110.002 129.797C110.257 129.948 110.653 130.173 111.162 130.457C111.171 130.457 111.192 130.467 111.203 130.478C112.931 131.433 115.973 133.06 119.402 134.665V134.676C122.077 135.936 124.987 137.187 127.714 138.112C128.782 138.467 129.809 138.773 130.796 139.016C138.587 140.907 146.859 141.649 149.585 144.069Z" fill="#E4D9D3"/>
</g>
<path d="M61.6235 85.8906C61.6235 85.8906 61.6235 86.1875 61.6438 86.7206C61.7618 90.3046 62.5532 104.526 67.6922 110.313C73.5967 116.959 78.0015 120.117 84.3192 120.53C90.6351 120.947 105.187 116.295 107.679 110.892C110.171 105.491 112.748 90.1257 113.331 86.3886C113.916 82.6515 119.401 68.4463 119.401 68.4463L100.28 38.127L66.8621 40.9529L56.2207 70.7742L61.6272 85.8942L61.6235 85.8906Z" fill="#F9C99C"/>
<path d="M99.7387 98.762C99.7387 98.762 96.4683 101.518 89.7558 102.09C83.0415 102.663 76.4453 101.134 76.4453 101.134" stroke="#7D2929" stroke-width="2" stroke-linecap="round" stroke-linejoin="round"/>
<path d="M64.4551 67.4815C64.4551 67.4815 69.8671 67.2196 73.5009 67.963C77.1366 68.7045 78.0257 69.3685 78.0257 69.3685" stroke="#7D2929" stroke-width="2" stroke-linecap="round" stroke-linejoin="round"/>
<mask id="mask2_4420_473" style="mask-type:luminance" maskUnits="userSpaceOnUse" x="35" y="25" width="96" height="134">
<path d="M35.416 25.4988H130.331V158.914H35.416V25.4988Z" fill="white"/>
</mask>
<g mask="url(#mask2_4420_473)">
<path d="M96.5525 50.445C96.5525 50.445 88.097 45.0736 83.5039 46.2467C78.9128 47.4217 75.8065 49.7699 75.5538 56.1503C75.2992 62.5307 70.8501 73.3289 67.2384 77.4976C63.6267 81.6646 56.1506 96.2349 55.7301 101.499C55.3095 106.766 58.5006 123.887 65.2204 128.421C71.9421 132.955 78.2413 142.353 78.2413 142.353C78.2413 142.353 77.0829 141.398 73.2038 140.592C73.2038 140.592 78.9976 146.133 74.6315 153.349C70.2635 160.567 64.549 158.049 64.549 158.049C64.549 158.049 68.8321 156.117 67.9098 152.845C66.9876 149.571 60.5518 145.708 54.6547 145.793C48.7575 145.878 45.8929 144.485 40.5658 137.352C35.2349 130.219 35.0449 122.234 35.9027 113.011C36.7604 103.787 41.9935 89.4708 42.8512 81.0337C43.7089 72.5966 43.34 49.519 54.6584 38.1214C65.9712 26.7255 80.2704 25.4989 88.6042 25.7424C96.9399 25.9877 106.79 30.5844 111.711 32.5157C116.631 34.4469 120.672 36.7324 123.836 42.4377C127.001 48.143 130.201 59.3414 130.045 74.4098C129.89 89.4782 126.322 102.499 126.634 111.49C126.946 120.478 131.269 131.267 130.052 135.161C128.835 139.053 125.481 138.133 122.236 141.591C118.992 145.052 117.258 151.591 122.452 152.943C122.452 152.943 117.8 156.023 112.881 151.373C107.958 146.725 109.092 143.536 109.092 143.536C109.092 143.536 105.091 145.264 104.604 150.781C104.604 150.781 98.4358 144.888 101.304 138.24C104.169 131.592 106.336 131.972 109.092 127.539C111.853 123.109 112.344 107.813 112.344 107.813L120.785 103.163L125.492 83.2841L123.884 77.5032L113.901 85.3113C113.901 85.3113 114.613 80.6593 114.397 75.677C114.179 70.6967 111.986 54.4533 103.861 51.0076C100.847 49.7293 96.5525 50.4469 96.5525 50.4469V50.445Z" fill="#56352C"/>
</g>
<path d="M82.8926 74.4136C82.8926 74.4136 83.9901 85.2505 83.4183 89.3196" stroke="#DA8059" stroke-width="2" stroke-linecap="round" stroke-linejoin="round"/>
<path d="M92.6934 70.6394C92.6934 70.6394 96.8474 69.0365 101.64 69.1379C106.43 69.2394 108.597 70.324 108.597 70.324" stroke="#7D2929" stroke-width="2" stroke-linecap="round" stroke-linejoin="round"/>
<path d="M76.442 77.5013C76.442 77.7319 76.4272 77.9624 76.3977 78.1912C76.37 78.418 76.3258 78.6394 76.2686 78.8534C76.2114 79.0692 76.1413 79.2721 76.0565 79.4658C75.9734 79.6594 75.8794 79.8384 75.7724 80.0025C75.6672 80.1667 75.551 80.3124 75.4274 80.4416C75.302 80.5707 75.1711 80.6795 75.0309 80.768C74.8925 80.8566 74.7505 80.9248 74.6029 80.9691C74.4554 81.0152 74.3078 81.0374 74.1565 81.0374C74.0071 81.0374 73.8577 81.0152 73.712 80.9691C73.5644 80.9248 73.4205 80.8566 73.2822 80.768C73.1439 80.6795 73.0129 80.5707 72.8875 80.4416C72.762 80.3124 72.6477 80.1667 72.5407 80.0025C72.4355 79.8384 72.3396 79.6594 72.2566 79.4658C72.1736 79.2721 72.1035 79.0692 72.0463 78.8534C71.9873 78.6394 71.9449 78.418 71.9154 78.1912C71.8859 77.9624 71.8711 77.7319 71.8711 77.5013C71.8711 77.2689 71.8859 77.0383 71.9154 76.8096C71.9449 76.5827 71.9873 76.3613 72.0463 76.1474C72.1035 75.9315 72.1736 75.7286 72.2566 75.535C72.3396 75.3413 72.4355 75.1624 72.5407 74.9982C72.6477 74.834 72.762 74.6883 72.8875 74.5592C73.0129 74.4301 73.1439 74.3212 73.2822 74.2327C73.4205 74.1441 73.5644 74.0759 73.712 74.0316C73.8577 73.9855 74.0071 73.9634 74.1565 73.9634C74.3078 73.9634 74.4554 73.9855 74.6029 74.0316C74.7505 74.0759 74.8925 74.1441 75.0309 74.2327C75.1711 74.3212 75.302 74.4301 75.4274 74.5592C75.551 74.6883 75.6672 74.834 75.7724 74.9982C75.8794 75.1624 75.9734 75.3413 76.0565 75.535C76.1413 75.7286 76.2114 75.9315 76.2686 76.1474C76.3258 76.3613 76.37 76.5827 76.3977 76.8096C76.4272 77.0383 76.442 77.2689 76.442 77.5013Z" fill="#3D1119"/>
<path d="M101.854 77.9515C101.854 78.1839 101.839 78.4126 101.81 78.6414C101.78 78.8682 101.736 79.0896 101.679 79.3054C101.622 79.5194 101.552 79.7241 101.469 79.916C101.386 80.1096 101.29 80.2886 101.184 80.4527C101.078 80.6169 100.963 80.7626 100.838 80.8917C100.712 81.0209 100.581 81.1297 100.443 81.2201C100.305 81.3086 100.161 81.375 100.013 81.4211C99.8675 81.4654 99.7181 81.4894 99.5686 81.4894C99.4174 81.4894 99.2698 81.4654 99.1223 81.4211C98.9747 81.375 98.8327 81.3086 98.6925 81.2201C98.5541 81.1297 98.4232 81.0209 98.2977 80.8917C98.1741 80.7626 98.0579 80.6169 97.9509 80.4527C97.8458 80.2886 97.7517 80.1096 97.6669 79.916C97.5839 79.7241 97.5138 79.5194 97.4566 79.3054C97.3994 79.0896 97.3551 78.8682 97.3256 78.6414C97.298 78.4126 97.2832 78.1839 97.2832 77.9515C97.2832 77.7191 97.298 77.4885 97.3256 77.2616C97.3551 77.0329 97.3994 76.8115 97.4566 76.5976C97.5138 76.3836 97.5839 76.1788 97.6669 75.9852C97.7517 75.7933 97.8458 75.6144 97.9509 75.4502C98.0579 75.2861 98.1741 75.1385 98.2977 75.0094C98.4232 74.8803 98.5541 74.7714 98.6925 74.6829C98.8327 74.5943 98.9747 74.5261 99.1223 74.4818C99.2698 74.4357 99.4174 74.4136 99.5686 74.4136C99.7181 74.4136 99.8675 74.4357 100.013 74.4818C100.161 74.5261 100.305 74.5943 100.443 74.6829C100.581 74.7714 100.712 74.8803 100.838 75.0094C100.963 75.1385 101.078 75.2861 101.184 75.4502C101.29 75.6144 101.386 75.7933 101.469 75.9852C101.552 76.1788 101.622 76.3836 101.679 76.5976C101.736 76.8115 101.78 77.0329 101.81 77.2616C101.839 77.4885 101.854 77.7191 101.854 77.9515Z" fill="#3D1119"/>
<path d="M46.6934 98.4005C46.6934 98.4005 53.4704 76.0976 54.6546 66.4708C55.8406 56.8457 65.486 39.182 76.4446 36.8154" stroke="#32181F" stroke-linecap="round" stroke-linejoin="round"/>
<mask id="mask3_4420_473" style="mask-type:luminance" maskUnits="userSpaceOnUse" x="200" y="29" width="154" height="154">
<path d="M200.812 29.5439H353.093V182.21H200.812V29.5439Z" fill="white"/>
</mask>
<g mask="url(#mask3_4420_473)">
<path d="M353.065 106.079C353.065 121.948 348.218 136.684 339.921 148.887C326.218 169.02 303.131 182.239 276.956 182.239C252.64 182.239 230.982 170.826 217.047 153.054C206.901 140.113 200.846 123.806 200.846 106.079C200.846 64.0184 234.923 29.9297 276.956 29.9297C318.988 29.9297 353.065 64.0184 353.065 106.079Z" fill="#0AB2B4"/>
</g>
<path d="M245.727 139.6L249.606 139.377L272.898 140.072L314.303 137.681L316.119 148.242L248.265 169.508" fill="#4F7DBF"/>
<path d="M316.822 162.278C310.351 179.503 278.133 177.59 262.092 173.615C246.063 169.639 243.67 141.921 243.67 141.921C243.67 141.921 254.574 137.155 257.243 134.376C257.917 133.68 258.344 131.949 258.61 129.76C259.231 124.609 258.953 116.882 258.802 113.848C258.761 113.036 258.739 112.566 258.739 112.566H300.344C300.344 112.566 300.227 117.054 300.313 121.84C300.387 126.501 300.654 131.458 301.38 132.836C302.855 135.627 317.421 139.6 317.421 139.6C317.421 139.6 323.306 145.051 316.822 162.278Z" fill="#F9B69B"/>
<path d="M300.312 121.84C296.008 126.781 287.514 139.718 272.899 140.072C268.154 140.186 262.839 135.488 258.609 129.76C259.23 124.609 258.952 116.882 258.801 113.848C258.76 113.036 258.739 112.566 258.739 112.566H300.343C300.343 112.566 300.226 117.054 300.312 121.84Z" fill="#CE6C5F"/>
<mask id="mask4_4420_473" style="mask-type:luminance" maskUnits="userSpaceOnUse" x="230" y="20" width="91" height="61">
<path d="M230.125 20.5298H320.365V80.68H230.125V20.5298Z" fill="white"/>
</mask>
<g mask="url(#mask4_4420_473)">
<path d="M252.565 80.3294C252.565 80.3294 252.426 80.0122 252.183 79.4912C251.137 77.249 248.147 71.229 245.987 70.8472C243.323 70.3772 240.973 72.7272 240.973 72.7272C240.973 72.7272 239.408 69.9072 241.6 66.8502C241.6 66.8502 234.082 66.3019 231.892 62.3049C231.892 62.3049 240.664 57.8379 238.392 47.9679C238.392 47.9679 234.086 47.4979 230.484 51.2599C230.484 51.2599 234.399 43.031 240.973 36.9229C247.551 30.811 261.475 20.5474 278.941 20.5474C296.41 20.5474 301.421 33.3177 301.421 33.3177C301.421 33.3177 303.223 26.6574 300.168 22.116C300.168 22.116 308.626 24.8577 305.571 32.8477C305.571 32.8477 312.129 33.5213 314.655 37.4713C314.655 37.4713 310.427 36.6879 307.372 38.4113C307.372 38.4113 312.621 39.9779 315.987 46.1702C319.355 52.3605 315.909 60.6638 316.927 65.5224C317.945 70.3811 320.06 70.8511 320.06 70.8511C320.06 70.8511 315.595 71.7127 313.48 68.4208C313.48 68.4208 310.349 74.848 306.511 74.2194C302.674 73.5927 308.469 59.9608 293.045 63.4877C277.621 67.0147 263.997 62.5477 258.829 65.683C253.661 68.8164 252.565 80.3333 252.565 80.3333V80.3294Z" fill="#3D3B3C"/>
</g>
<path d="M253.833 101.405C252.622 102.744 249.45 102.079 247.108 98.9159C244.766 95.7532 241.591 89.8371 242.801 82.2348C244.012 74.6326 247.713 77.2587 250.586 79.2758C253.459 81.2909 253.837 101.405 253.837 101.405H253.833Z" fill="#CE6C5F"/>
<path d="M305.084 98.3246C306.294 99.6641 309.467 98.9983 311.809 95.8356C314.151 92.6709 317.327 86.7548 316.117 79.1545C314.907 71.5523 311.204 74.1784 308.331 76.1935C305.458 78.2126 305.082 98.3246 305.082 98.3246H305.084Z" fill="#CE6C5F"/>
<path d="M249.369 67.616C249.387 67.8118 249.404 68.0292 249.426 68.2681C250.119 75.7019 252.512 102.649 253.476 108.373C254.946 117.103 268.136 129.795 278.942 130.243C289.75 130.692 305.726 115.166 306.619 108.911C307.512 102.656 307.334 81.6514 308.317 73.7867C309.3 65.9201 306.889 46.5267 296.616 43.9319C286.342 41.3391 261.066 43.3953 255.352 47.686C249.635 51.9748 249.369 67.6199 249.369 67.6199V67.616Z" fill="#F9B69B"/>
<path d="M308.065 76.4421C308.065 76.4421 315.366 69.1336 315.103 60.891C314.896 54.452 307.487 47.4627 305.378 42.7882C300.564 32.129 287.532 33.4038 266.797 36.4667C246.062 39.5295 246.24 54.8495 246.24 61.504C246.24 68.1584 250.088 75.4414 250.088 75.4414C250.088 75.4414 252.54 63.6914 254.115 61.3297C255.687 58.964 257.787 60.1038 265.925 58.6154C274.062 57.1271 281.32 54.3267 284.994 53.9742C288.668 53.6256 288.401 54.9181 289.498 54.7085C290.595 54.497 288.558 49.7461 289.913 49.9028C291.27 50.0595 291.323 55.5937 292.21 56.0148C293.095 56.4358 293.503 51.3304 294.872 51.7338C296.585 52.2352 293.722 56.6943 294.245 56.9548C294.77 57.2152 297.069 54.9044 297.639 55.8052C298.357 56.9489 295.549 58.259 295.549 58.259L301.448 62.6476C304.148 65.1798 308.061 76.4421 308.061 76.4421H308.065Z" fill="#3D3B3C"/>
<mask id="mask5_4420_473" style="mask-type:luminance" maskUnits="userSpaceOnUse" x="216" y="137" width="125" height="46">
<path d="M216.59 137.331H340.419V182.21H216.59V137.331Z" fill="white"/>
</mask>
<g mask="url(#mask5_4420_473)">
<path d="M339.922 148.887C326.22 169.02 303.133 182.239 276.958 182.239C252.642 182.239 230.984 170.826 217.049 153.054C224.908 149.956 239.272 142.775 241.076 141.6C243.33 140.147 244.315 139.598 245.729 139.598C246.461 139.598 246.768 139.638 247.052 140.156C247.223 140.47 247.526 141.375 247.526 141.375C248.572 144.026 251.374 151.952 254.553 155.833C259.505 161.888 267.507 168.87 280.397 168.529C293.287 168.198 302.877 159.957 307.03 153.514C311.184 147.06 312.933 140.57 313.342 138.39C313.542 137.325 316.276 137.08 320.664 139.591C323.995 141.5 334.282 146.151 339.922 148.887Z" fill="#1E1D30"/>
</g>
<path d="M253.672 74.5015C253.672 74.5015 267.131 75.2887 271.032 74.8363" stroke="#3D3B3C" stroke-width="2" stroke-linecap="round" stroke-linejoin="round"/>
<path d="M284.148 75.4415C284.148 75.4415 300.373 75.2398 301.954 74.5015" stroke="#3D3B3C" stroke-width="2" stroke-linecap="round" stroke-linejoin="round"/>
<path d="M263.137 106.973C263.137 106.973 269.599 110.357 278.946 109.861C288.293 109.368 292.334 107.717 292.334 107.717" stroke="#7D2929" stroke-linecap="round" stroke-linejoin="round"/>
<path d="M277.736 78.9116V90.6264" stroke="#CE6C5F" stroke-width="2" stroke-linecap="round" stroke-linejoin="round"/>
<path d="M268.078 82.9125C268.078 83.1319 268.062 83.3512 268.031 83.5686C267.999 83.7859 267.952 83.9955 267.89 84.1991C267.829 84.4048 267.753 84.5986 267.662 84.7827C267.572 84.9649 267.471 85.1352 267.355 85.2919C267.239 85.4486 267.116 85.5876 266.981 85.711C266.846 85.8324 266.703 85.9362 266.554 86.0224C266.403 86.1066 266.249 86.1692 266.09 86.2123C265.931 86.2554 265.771 86.2769 265.608 86.2769C265.446 86.2769 265.285 86.2554 265.126 86.2123C264.968 86.1692 264.813 86.1066 264.662 86.0224C264.513 85.9362 264.37 85.8324 264.235 85.711C264.1 85.5876 263.977 85.4486 263.861 85.2919C263.746 85.1352 263.644 84.9649 263.554 84.7827C263.464 84.5986 263.387 84.4048 263.325 84.1991C263.264 83.9955 263.217 83.7859 263.186 83.5686C263.154 83.3512 263.137 83.1319 263.137 82.9125C263.137 82.6912 263.154 82.4719 263.186 82.2545C263.217 82.0391 263.264 81.8276 263.325 81.6239C263.387 81.4203 263.464 81.2244 263.554 81.0423C263.644 80.8582 263.746 80.6879 263.861 80.5312C263.977 80.3745 264.1 80.2355 264.235 80.1121C264.37 79.9907 264.513 79.8869 264.662 79.8027C264.813 79.7165 264.968 79.6539 265.126 79.6108C265.285 79.5677 265.446 79.5461 265.608 79.5461C265.771 79.5461 265.931 79.5677 266.09 79.6108C266.249 79.6539 266.403 79.7165 266.554 79.8027C266.703 79.8869 266.846 79.9907 266.981 80.1121C267.116 80.2355 267.239 80.3745 267.355 80.5312C267.471 80.6879 267.572 80.8582 267.662 81.0423C267.753 81.2244 267.829 81.4203 267.89 81.6239C267.952 81.8276 267.999 82.0391 268.031 82.2545C268.062 82.4719 268.078 82.6912 268.078 82.9125Z" fill="#3D1119"/>
<path d="M292.769 82.9125C292.769 83.1319 292.753 83.3512 292.722 83.5686C292.691 83.7859 292.644 83.9955 292.581 84.1991C292.518 84.4048 292.444 84.5986 292.354 84.7827C292.264 84.9649 292.16 85.1352 292.046 85.2919C291.931 85.4486 291.805 85.5876 291.67 85.711C291.537 85.8324 291.394 85.9362 291.243 86.0224C291.095 86.1066 290.94 86.1692 290.781 86.2123C290.623 86.2554 290.46 86.2769 290.3 86.2769C290.137 86.2769 289.976 86.2554 289.818 86.2123C289.657 86.1692 289.502 86.1066 289.354 86.0224C289.203 85.9362 289.062 85.8324 288.927 85.711C288.792 85.5876 288.666 85.4486 288.553 85.2919C288.437 85.1352 288.335 84.9649 288.245 84.7827C288.155 84.5986 288.079 84.4048 288.016 84.1991C287.953 83.9955 287.908 83.7859 287.875 83.5686C287.844 83.3512 287.828 83.1319 287.828 82.9125C287.828 82.6912 287.844 82.4719 287.875 82.2545C287.908 82.0391 287.953 81.8276 288.016 81.6239C288.079 81.4203 288.155 81.2244 288.245 81.0423C288.335 80.8582 288.437 80.6879 288.553 80.5312C288.666 80.3745 288.792 80.2355 288.927 80.1121C289.062 79.9907 289.203 79.8869 289.354 79.8027C289.502 79.7165 289.657 79.6539 289.818 79.6108C289.976 79.5677 290.137 79.5461 290.3 79.5461C290.46 79.5461 290.623 79.5677 290.781 79.6108C290.94 79.6539 291.095 79.7165 291.243 79.8027C291.394 79.8869 291.537 79.9907 291.67 80.1121C291.805 80.2355 291.931 80.3745 292.046 80.5312C292.16 80.6879 292.264 80.8582 292.354 81.0423C292.444 81.2244 292.518 81.4203 292.581 81.6239C292.644 81.8276 292.691 82.0391 292.722 82.2545C292.753 82.4719 292.769 82.6912 292.769 82.9125Z" fill="#3D1119"/>
<mask id="mask6_4420_473" style="mask-type:luminance" maskUnits="userSpaceOnUse" x="777" y="26" width="149" height="149">
<path d="M777.432 26.4719H925.441V174.275H777.432V26.4719Z" fill="white"/>
</mask>
<g mask="url(#mask6_4420_473)">
<path d="M925.373 100.905C925.373 113.966 921.992 126.238 916.058 136.89C910.043 147.689 901.403 156.825 890.999 163.428C884.58 167.509 877.486 170.633 869.914 172.576C864.013 174.09 858.042 159.385 851.664 159.385C848.364 159.385 844.907 174.682 841.723 174.267C834.566 173.323 827.732 171.36 821.374 168.516C807.6 162.37 796.055 152.121 788.276 139.34C781.472 128.138 777.541 114.984 777.541 100.905C777.541 60.0396 810.625 26.9202 851.448 26.9202C892.272 26.9202 925.37 60.0396 925.37 100.905H925.373Z" fill="#0AB2B4"/>
</g>
<path d="M799.398 138.58C799.398 138.58 804.903 114.925 806.035 100.908C807.17 86.8911 808.964 69.2071 811.702 53.0283C814.441 36.8476 823.031 26.9403 832.422 23.5389C841.809 20.1357 849.903 23.7013 856.782 24.6733C863.662 25.6454 874.346 26.4552 879.85 34.8794C885.354 43.3055 888.914 65.3593 890.532 80.3373C892.151 95.3153 895.874 127.059 899.369 135.9C902.865 144.743 799.404 138.58 799.404 138.58H799.398Z" fill="#944020"/>
<path d="M822.683 88.9959C822.683 88.9959 799.713 142.933 811.267 147.29C822.822 151.647 891.045 146.137 891.045 146.137L875.165 84.8806L822.683 88.9959Z" fill="#944020"/>
<path d="M873.291 73.6931C873.291 73.6931 876.728 69.6461 878.949 70.1202C881.171 70.5905 885.348 75.4473 882.18 84.1445C879.013 92.8417 874.905 93.515 872.483 89.9402C870.06 86.3691 873.291 73.6931 873.291 73.6931Z" fill="#CE6C5F"/>
<path d="M828.502 94.5922C828.502 94.5922 826.883 98.9731 822.441 95.3319C817.996 91.6926 813.148 84.2755 814.358 78.9483C815.572 73.623 821.631 74.0934 823.517 76.3881C825.4 78.679 828.502 94.5922 828.502 94.5922Z" fill="#CE6C5F"/>
<path d="M863.108 118.697L867.611 117.948C867.611 117.948 870.597 125.666 866.857 127.806C863.116 129.944 834.582 127.806 834.582 127.806L835.475 117.96L838.745 118.399" fill="#D9D1CE"/>
<path d="M865.288 126.736C864.759 130.484 851.452 154.427 851.452 154.427C851.452 154.427 834.432 128.346 835.532 123.643C835.832 122.324 835.978 120.435 836.009 118.389C836.101 113.125 835.532 106.853 835.532 106.853C835.532 106.853 866.035 101.299 865.288 104.507C864.864 106.315 865.091 111.963 865.268 117.216C865.414 121.274 865.526 125.105 865.288 126.736Z" fill="#F9B69B"/>
<path d="M865.299 115.049C863.049 117.364 857.292 121.645 854.283 122.849C847.366 125.611 839.565 123.746 836.005 118.389C836.097 113.125 835.527 106.853 835.527 106.853C835.527 106.853 866.031 101.299 865.284 104.507C864.86 106.315 865.122 109.795 865.299 115.049Z" fill="#CE6C5F"/>
<path d="M821.516 79.7249C821.516 79.7249 825.028 93.0962 829.568 102.144C832.246 107.488 841.43 117.382 851.455 116.063C861.483 114.744 872.314 108.421 873.924 97.9567C875.536 87.4905 875.536 70.0519 876.854 64.1916C878.171 58.3295 866.751 35.18 846.844 40.1604C826.937 45.1408 819.179 56.2765 819.03 65.2172C818.88 74.1561 821.518 79.7249 821.518 79.7249H821.516Z" fill="#F9B69B"/>
<path d="M850.135 76.6482L850.509 86.1035" stroke="#CE6C5F" stroke-width="2" stroke-linecap="round" stroke-linejoin="round"/>
<path d="M830.234 68.7183C830.234 68.7183 837.528 65.6563 844.511 69.7402" stroke="#7D2929" stroke-width="2" stroke-linecap="round" stroke-linejoin="round"/>
<path d="M857.062 70.4468C857.062 70.4468 861.325 66.1895 869.847 67.6154" stroke="#7D2929" stroke-width="2" stroke-linecap="round" stroke-linejoin="round"/>
<path d="M838 96C839.005 97.2396 844.419 101.344 850.532 100.956C856.645 100.569 861.332 98.0143 862.933 96.6954" stroke="#7D2929" stroke-width="2" stroke-linecap="round" stroke-linejoin="round"/>
<path d="M841 77.5008C841 77.7309 840.984 77.9576 840.951 78.1827C840.92 78.4077 840.873 78.6278 840.81 78.8395C840.747 79.0512 840.67 79.2529 840.579 79.4446C840.487 79.6363 840.383 79.8131 840.267 79.9748C840.151 80.1381 840.025 80.2832 839.889 80.4099C839.752 80.5382 839.608 80.6466 839.457 80.7333C839.305 80.8216 839.148 80.8883 838.988 80.9333C838.826 80.9783 838.663 81 838.5 81C838.335 81 838.174 80.9783 838.012 80.9333C837.85 80.8883 837.695 80.8216 837.543 80.7333C837.392 80.6466 837.248 80.5382 837.111 80.4099C836.975 80.2832 836.847 80.1381 836.731 79.9748C836.615 79.8131 836.512 79.6363 836.421 79.4446C836.33 79.2529 836.253 79.0512 836.19 78.8395C836.127 78.6278 836.08 78.4077 836.047 78.1827C836.016 77.9576 836 77.7309 836 77.5008C836 77.2708 836.016 77.0424 836.047 76.8173C836.08 76.5923 836.127 76.3739 836.19 76.1605C836.253 75.9488 836.33 75.7471 836.421 75.5554C836.512 75.3653 836.615 75.1886 836.731 75.0252C836.847 74.8635 836.975 74.7185 837.111 74.5901C837.248 74.4618 837.392 74.3551 837.543 74.2667C837.695 74.1784 837.85 74.1117 838.012 74.0683C838.174 74.0233 838.335 74 838.5 74C838.663 74 838.826 74.0233 838.988 74.0683C839.148 74.1117 839.305 74.1784 839.457 74.2667C839.608 74.3551 839.752 74.4618 839.889 74.5901C840.025 74.7185 840.151 74.8635 840.267 75.0252C840.383 75.1886 840.487 75.3653 840.579 75.5554C840.67 75.7471 840.747 75.9488 840.81 76.1605C840.873 76.3739 840.92 76.5923 840.951 76.8173C840.984 77.0424 841 77.2708 841 77.5008Z" fill="#3D1119"/>
<path d="M865 77.5008C865 77.7309 864.984 77.9576 864.951 78.1827C864.92 78.4077 864.873 78.6278 864.81 78.8395C864.747 79.0512 864.67 79.2529 864.579 79.4446C864.487 79.6363 864.383 79.8131 864.267 79.9748C864.151 80.1381 864.025 80.2832 863.889 80.4099C863.752 80.5382 863.608 80.6466 863.457 80.7333C863.305 80.8216 863.148 80.8883 862.988 80.9333C862.826 80.9783 862.663 81 862.5 81C862.335 81 862.174 80.9783 862.012 80.9333C861.85 80.8883 861.695 80.8216 861.543 80.7333C861.392 80.6466 861.248 80.5382 861.111 80.4099C860.975 80.2832 860.847 80.1381 860.731 79.9748C860.615 79.8131 860.512 79.6363 860.421 79.4446C860.33 79.2529 860.253 79.0512 860.19 78.8395C860.127 78.6278 860.08 78.4077 860.047 78.1827C860.016 77.9576 860 77.7309 860 77.5008C860 77.2708 860.016 77.0424 860.047 76.8173C860.08 76.5923 860.127 76.3739 860.19 76.1605C860.253 75.9488 860.33 75.7471 860.421 75.5554C860.512 75.3653 860.615 75.1886 860.731 75.0252C860.847 74.8635 860.975 74.7185 861.111 74.5901C861.248 74.4618 861.392 74.3551 861.543 74.2667C861.695 74.1784 861.85 74.1117 862.012 74.0683C862.174 74.0233 862.335 74 862.5 74C862.663 74 862.826 74.0233 862.988 74.0683C863.148 74.1117 863.305 74.1784 863.457 74.2667C863.608 74.3551 863.752 74.4618 863.889 74.5901C864.025 74.7185 864.151 74.8635 864.267 75.0252C864.383 75.1886 864.487 75.3653 864.579 75.5554C864.67 75.7471 864.747 75.9488 864.81 76.1605C864.873 76.3739 864.92 76.5923 864.951 76.8173C864.984 77.0424 865 77.2708 865 77.5008Z" fill="#3D1119"/>
<mask id="mask7_4420_473" style="mask-type:luminance" maskUnits="userSpaceOnUse" x="820" y="117" width="72" height="58">
<path d="M820.609 117.609H891.441V174.911H820.609V117.609Z" fill="white"/>
</mask>
<g mask="url(#mask7_4420_473)">
<path d="M890.994 163.428C884.575 167.509 877.481 170.633 869.909 172.576C864.008 174.09 857.825 174.9 851.447 174.9C848.148 174.9 844.902 174.682 841.718 174.267C834.561 173.323 827.727 171.36 821.369 168.516C819.388 151.114 821.681 130.338 823.9 129.8C827.581 128.896 828.566 126.633 830.516 122.718C832.477 118.804 833.608 117.694 835.474 117.952C835.712 117.983 835.941 120.175 837.87 123.414C839.8 126.653 844.55 128.376 844.944 130.381C845.328 132.384 851.011 147.989 851.447 148.155C851.447 148.155 856.124 133.131 856.726 130.836C857.318 128.533 859.391 127.566 862.285 125.262C865.18 122.956 866.591 119.396 867.192 118.275C867.782 117.164 870.158 118.647 871.859 121.918C873.571 125.188 874.089 127.494 877.429 128.387C880.768 129.27 880.178 128.916 881.535 131.034C882.657 132.758 887.281 146.857 890.994 163.428Z" fill="#FEFFFF"/>
</g>
<path d="M814.999 131.451C819.662 121.282 821.765 83.6595 824.412 72.1143C827.061 60.5691 831.984 50.7411 840.249 48.5977C848.517 46.4562 858.695 50.837 858.695 50.837C858.695 50.837 867.404 51.6155 871.578 57.3613C875.75 63.1054 876.003 71.1975 876.003 71.1975L880.808 67.6873C880.808 67.6873 880.137 45.532 871.578 39.4615C863.017 33.391 859.335 27.1028 846.014 31.5464C832.692 35.99 825.329 33.1733 820.671 46.8325C816.015 60.4934 812.658 58.1084 812.658 69.3843C812.658 80.6584 799.835 130.401 802.76 135.821C805.684 141.24 814.995 131.451 814.995 131.451H814.999Z" fill="#944020"/>
<path d="M831.662 34.9237C833.173 33.3743 838.223 31.36 842.283 31.799C846.341 32.238 853.17 38.5483 853.17 38.5483" stroke="#721E1C" stroke-linecap="round" stroke-linejoin="round"/>
<path d="M826.539 47.6882C830.439 44.1651 839.209 40.9629 844.54 40.9629C849.873 40.9629 852.452 42.4238 852.452 42.4238" stroke="#721E1C" stroke-linecap="round" stroke-linejoin="round"/>
<path d="M830.8 151.051C832.739 157.717 837.439 166.782 841.722 174.267C819.069 171.288 799.653 158.029 788.275 139.34C799.063 136.567 810.72 131.626 815.47 128.968C821.144 125.791 823.623 128.023 824.639 128.376C825.656 128.73 826.87 137.503 830.8 151.051Z" fill="#1E1E2F"/>
<path d="M916.058 136.891C906.319 154.364 889.725 167.477 869.914 172.576C871.334 169.615 872.591 166.594 873.493 163.74C876.542 154.053 878.139 137.887 878.523 135.821C878.906 133.766 878.709 127.806 880.048 127.286C881.386 126.767 896.954 133.434 902.897 134.078C906.195 134.441 911.878 135.042 916.058 136.891Z" fill="#1E1E2F"/>
<mask id="mask8_4420_473" style="mask-type:luminance" maskUnits="userSpaceOnUse" x="584" y="21" width="154" height="154">
<path d="M584.498 21.1548H737.586V174.758H584.498V21.1548Z" fill="white"/>
</mask>
<g mask="url(#mask8_4420_473)">
<path d="M737.565 98.1838C737.565 108.957 735.344 119.217 731.317 128.509C719.581 155.709 692.535 174.743 661.044 174.743C629.556 174.743 605.151 157.524 592.598 132.429C587.435 122.127 584.525 110.495 584.525 98.1838C584.525 55.9021 618.786 21.634 661.044 21.634C703.305 21.634 737.565 55.9021 737.565 98.1838Z" fill="#0AB2B4"/>
</g>
<mask id="mask9_4420_473" style="mask-type:luminance" maskUnits="userSpaceOnUse" x="592" y="87" width="140" height="88">
<path d="M592.553 87.8853H731.411V174.758H592.553V87.8853Z" fill="white"/>
</mask>
<g mask="url(#mask9_4420_473)">
<path d="M731.318 128.509C719.583 155.708 692.537 174.743 661.046 174.743C629.557 174.743 605.152 157.523 592.6 132.428C594.811 131.194 597.303 130.196 600.084 129.442C609.543 126.907 623.544 123.619 623.544 123.619L627.849 112.986L627.161 88.5042C627.161 88.5042 636.706 87.774 641.935 88.5042C647.163 89.223 666.867 97.1829 666.867 97.1829L677.924 90.3519C677.924 90.3519 686.482 89.3533 690.733 89.5776C694.986 89.8152 700.569 114.479 700.569 114.479L704.648 121.557C704.648 121.557 711.799 125.07 721.451 127.046C725.294 127.83 728.495 127.993 731.318 128.509Z" fill="#3D3B3C"/>
</g>
<path d="M638.108 71.749C638.108 71.749 632.354 67.7681 631.179 66.2673C630.006 64.7666 627.476 61.3664 625.897 57.3184C624.319 53.2723 619.687 47.5223 621.387 43.8845C623.087 40.2466 632.003 32.7946 632.003 32.7946C632.003 32.7946 633.613 22.8471 640.864 19.7901C648.115 16.7272 671.224 15.4162 683.341 21.6262C689.568 24.8175 697.421 25.9023 699.326 28.1755C699.326 28.1755 696.012 28.8118 694.527 31.3188C694.004 32.2043 698.155 34.742 698.745 35.3151C702.146 38.6021 703.842 38.1479 703.842 38.1479C703.842 38.1479 699.765 39.848 695.234 39.1676C695.234 39.1676 698.065 41.435 701.35 47.5549C704.637 53.6748 701.918 56.2048 701.918 56.2048C701.918 56.2048 702.335 52.8832 696.008 51.6374C696.008 51.6374 696.566 54.9341 695.23 58.5048C693.896 62.0736 689.001 67.6166 689.001 67.6166L661.043 85.5221L638.104 71.7451L638.108 71.749Z" fill="#231F20"/>
<path d="M635.706 68.9391C635.706 68.9391 633.366 62.9188 629.722 63.4958C626.079 64.0727 624.919 70.7657 626.751 76.9373C628.582 83.1109 632.603 89.2136 636.91 85.9438C640.183 83.4559 635.706 68.9391 635.706 68.9391Z" fill="#DA8059"/>
<path d="M686.495 66.5184C686.495 66.5184 688.072 60.6457 691.54 60.8105C695.009 60.9754 696.78 67.126 695.695 73.0925C694.614 79.061 691.469 85.1848 687.106 82.5628C683.785 80.5695 686.495 66.5184 686.495 66.5184Z" fill="#DA8059"/>
<path d="M690.731 121.676L686.211 134.869L650.866 142.484L632.002 124.179C632.002 124.179 640.516 120.195 642.34 115.758C642.984 114.167 642.984 110.987 642.716 107.55C642.224 101.363 640.859 94.3484 640.859 94.3484L682.121 92.2209C682.121 92.2209 681.755 98.7204 681.647 105.036C681.561 109.839 681.626 114.544 682.121 116.22C683.259 120.087 690.731 121.676 690.731 121.676Z" fill="#FBC092"/>
<path d="M682.121 92.2209C682.121 92.2209 681.755 98.7204 681.648 105.036C675.367 110.999 664.662 120.678 656.363 119.453C650.577 118.604 644.997 114.167 642.717 107.55C642.224 101.363 640.859 94.3484 640.859 94.3484L682.121 92.2209Z" fill="#DA8059"/>
<path d="M633.621 64.8987C633.621 64.8987 636.101 82.8886 635.921 86.6989C635.747 90.5092 636.188 93.2558 638.578 95.207C640.968 97.1543 653.104 108.235 657.706 108.944C662.31 109.653 666.475 109.386 669.574 107.525C672.673 105.662 682.061 97.9536 684.277 96.0944C686.492 94.2372 687.2 92.2917 687.2 87.1033C687.2 81.9149 686.757 68.9774 687.2 61.5369C687.418 57.8857 685.607 35.752 685.607 35.752L654.697 27.334L637.249 35.3073L629.719 42.4872L633.617 64.9064L633.621 64.8987Z" fill="#FBC092"/>
<path d="M658.473 63.8828C658.473 63.8828 659.966 76.7551 659.561 78.8424" stroke="#DA8059" stroke-width="2" stroke-linecap="round" stroke-linejoin="round"/>
<path d="M636.744 62.3246C636.744 62.3246 644.378 56.5459 648.229 56.2699C652.079 55.9939 653.25 56.7529 653.25 56.7529" stroke="#231F20" stroke-width="2" stroke-linecap="round" stroke-linejoin="round"/>
<path d="M666.867 56.7492C666.867 56.7492 668.314 56.2834 671.339 56.2087C674.363 56.1339 680.897 60.8067 680.897 60.8067" stroke="#231F20" stroke-width="2" stroke-linecap="round" stroke-linejoin="round"/>
<path d="M650.978 67.3943C651.001 67.6396 651.008 67.8831 651.001 68.1265C650.993 68.3699 650.972 68.6056 650.934 68.8376C650.897 69.0695 650.846 69.2899 650.778 69.5026C650.713 69.7135 650.633 69.9109 650.541 70.0949C650.449 70.277 650.345 70.4437 650.23 70.5913C650.115 70.7389 649.991 70.8673 649.858 70.9727C649.724 71.0801 649.584 71.1644 649.439 71.2276C649.293 71.289 649.142 71.3273 648.988 71.3426C648.835 71.3561 648.68 71.3465 648.524 71.3139C648.369 71.2794 648.218 71.2238 648.066 71.1433C647.915 71.0628 647.769 70.9612 647.629 70.8366C647.488 70.714 647.355 70.5702 647.231 70.4073C647.106 70.2444 646.991 70.0661 646.886 69.8706C646.782 69.6751 646.688 69.4662 646.608 69.2458C646.529 69.0254 646.462 68.7973 646.41 68.5596C646.357 68.3239 646.318 68.0824 646.295 67.8371C646.272 67.5936 646.265 67.3502 646.272 67.1068C646.28 66.8634 646.301 66.6276 646.339 66.3957C646.376 66.1638 646.43 65.9434 646.495 65.7306C646.562 65.5198 646.64 65.3224 646.732 65.1384C646.824 64.9563 646.928 64.7896 647.043 64.642C647.158 64.4944 647.282 64.366 647.417 64.2606C647.549 64.1532 647.689 64.0689 647.834 64.0056C647.982 63.9443 648.132 63.906 648.285 63.8906C648.438 63.8772 648.593 63.8868 648.749 63.9194C648.904 63.9539 649.057 64.0095 649.207 64.09C649.358 64.1705 649.504 64.2721 649.644 64.3966C649.786 64.5193 649.918 64.6631 650.042 64.826C650.169 64.9889 650.282 65.1671 650.387 65.3626C650.493 65.5581 650.585 65.7651 650.665 65.9856C650.746 66.206 650.811 66.436 650.865 66.6736C650.916 66.9094 650.955 67.1509 650.978 67.3943Z" fill="#3D1119"/>
<path d="M672.57 62.5834C672.721 62.6121 672.867 62.6639 673.007 62.7386C673.149 62.8134 673.279 62.9092 673.402 63.028C673.525 63.1469 673.638 63.2849 673.739 63.442C673.839 63.6011 673.929 63.7755 674.004 63.9653C674.078 64.1569 674.14 64.3601 674.188 64.5767C674.234 64.7933 674.264 65.0194 674.282 65.2533C674.299 65.4871 674.299 65.7248 674.284 65.9682C674.27 66.2097 674.239 66.4512 674.195 66.6927C674.149 66.9342 674.09 67.1719 674.017 67.4019C673.942 67.6338 673.856 67.8561 673.756 68.0689C673.657 68.2797 673.546 68.479 673.423 68.6649C673.302 68.8489 673.172 69.0176 673.032 69.1671C672.894 69.3185 672.748 69.4489 672.597 69.56C672.445 69.6712 672.29 69.7594 672.133 69.8245C671.976 69.8916 671.819 69.9338 671.662 69.9529C671.502 69.9721 671.349 69.9683 671.198 69.9395C671.044 69.9108 670.899 69.859 670.759 69.7843C670.619 69.7095 670.487 69.6137 670.364 69.4949C670.241 69.376 670.13 69.238 670.029 69.0789C669.927 68.9218 669.839 68.7474 669.764 68.5576C669.687 68.3659 669.628 68.1628 669.58 67.9462C669.534 67.7296 669.501 67.5034 669.486 67.2696C669.469 67.0358 669.469 66.7981 669.482 66.5547C669.498 66.3132 669.526 66.0717 669.572 65.8302C669.616 65.5887 669.676 65.351 669.751 65.121C669.823 64.8891 669.912 64.6668 670.011 64.454C670.111 64.2432 670.222 64.0439 670.343 63.8579C670.466 63.6739 670.596 63.5053 670.734 63.3558C670.874 63.2044 671.019 63.074 671.171 62.9629C671.322 62.8517 671.476 62.7635 671.633 62.6984C671.79 62.6313 671.949 62.5891 672.106 62.5699C672.263 62.5508 672.419 62.5546 672.57 62.5834Z" fill="#3D1119"/>
<path d="M646.896 88.5005C646.896 88.5005 651.291 93.2845 657.229 93.2845C666.713 93.2845 671.892 88.5005 671.892 88.5005" stroke="#7D2929" stroke-linecap="round" stroke-linejoin="round"/>
<path d="M662.924 138.541C662.924 138.541 652.975 135.938 645.918 129.615C638.859 123.292 632.012 116.022 629.065 107.171C626.115 98.3196 627.959 95.8739 631.491 94.8159L627.154 88.5005C627.154 88.5005 617.482 88.5542 616.119 92.7689C614.755 96.9875 622.504 109.76 622.318 111.683C622.132 113.605 619.393 112.673 615.958 114.598C612.526 116.52 612.712 123.156 616.367 128.114C620.024 133.074 624.171 143.032 631.14 145.234C638.107 147.436 659.392 142.487 659.392 142.487C659.392 142.487 675.09 148.17 685.449 144.87C695.811 141.567 705.957 128.233 708.648 125.787C711.336 123.342 713.783 122.238 711.336 118.814C708.892 115.391 704.733 112.334 704.733 112.334C704.733 112.334 708.645 96.8648 706.078 93.2845C703.512 89.7042 690.728 89.5815 690.728 89.5815C690.728 89.5815 692.754 95.6573 692.389 98.1854C692.023 100.713 694.157 100.119 694.59 103.403C695.117 107.397 668.08 137.109 662.924 138.541Z" fill="#3D3B3C"/>
<path d="M633.985 67.6203C633.985 67.6203 634.868 64.2298 635.162 60.8066C635.457 57.3834 633.473 48.3463 635.162 46.2859C636.089 45.1589 640.385 41.8105 644.998 40.1564C648.791 38.7956 652.939 39.0505 654.407 38.5694C656.479 37.8928 664.713 36.2253 670.662 38.1363C676.61 40.0491 680.7 43.2748 681.438 48.4173C682.172 53.5635 685.639 62.5603 687.224 62.3246C688.811 62.0888 688.976 32.7773 688.976 32.7773L669.577 25.1106L644.193 25.9482L625.896 42.3587L633.985 67.6203Z" fill="#231F20"/>
<mask id="mask10_4420_473" style="mask-type:luminance" maskUnits="userSpaceOnUse" x="388" y="25" width="152" height="154">
<path d="M388 25.8401H540V178H388V25.8401Z" fill="white"/>
</mask>
<g mask="url(#mask10_4420_473)">
<path d="M539.942 102.082C539.942 115.865 536.264 128.787 529.85 139.927C516.744 162.68 492.161 177.997 464.009 177.997C435.857 177.997 411.488 162.806 398.328 140.226C391.809 129.02 388.068 115.983 388.068 102.082C388.068 60.157 422.07 26.1667 464.007 26.1667C505.944 26.1667 539.938 60.157 539.938 102.082H539.942Z" fill="#0AB2B4"/>
</g>
<path d="M437.741 62.7237C437.741 62.7237 435.732 60.42 435.255 58.8861C434.78 57.3523 433.501 57.0217 434.414 55.6324C435.326 54.245 436.68 52.8912 435.366 51.8304C434.048 50.7696 431.36 51.5395 431.643 49.5999C431.928 47.6623 436.278 45.3229 436.278 45.3229C436.278 45.3229 430.024 42.0315 431.049 40.0207C432.072 38.0119 436.864 37.9366 436.864 37.9366C436.864 37.9366 432.656 33.0382 434.338 30.0754C436.023 27.1146 438.473 28.9433 438.473 28.9433C438.473 28.9433 436.878 21.2325 439.142 19.2573C441.4 17.284 451.896 19.5878 451.896 19.5878C451.896 19.5878 452.165 14.6636 456.576 13.4306C460.984 12.1956 467.311 17.0465 467.311 17.0465C467.311 17.0465 467.246 14.529 471.303 13.2287C475.359 11.9324 488.589 23.4788 488.589 23.4788C488.589 23.4788 487.95 21.274 489.947 21.0108C491.942 20.7496 498.204 31.5637 498.82 34.3979C498.82 34.3979 499.611 32.7967 500.846 34.3979C502.083 35.999 499.611 42.2591 499.259 45.6059C498.907 48.9586 498.996 56.4498 498.467 60.8554C497.939 65.263 494.731 72.2316 494.731 72.2316L463.567 83.2497L437.745 62.7237H437.741Z" fill="#944020"/>
<path d="M441.042 64.6791C441.042 64.6791 439.18 59.4363 435.372 60.2814C431.566 61.1265 430.806 69.4133 432.496 75.4161C434.186 81.4209 439.348 85.9017 441.042 83.7048C442.732 81.506 441.042 64.6771 441.042 64.6771V64.6791Z" fill="#CE6C5F"/>
<path d="M494.556 69.928C494.556 69.928 497.404 65.1483 500.971 66.7178C504.541 68.2872 503.674 76.5681 500.844 82.1236C498.012 87.6851 492.08 91.0754 490.847 88.5895C489.616 86.1037 494.556 69.928 494.556 69.928Z" fill="#CE6C5F"/>
<path d="M446.169 101.478C446.169 101.478 446.911 112.708 443.796 118.038C440.681 123.367 436.719 125.147 436.719 125.147L448.243 159.097L474.495 162.062L484.878 126.328C484.878 126.328 480.26 117.751 482.633 104.553L446.165 101.474L446.169 101.478Z" fill="#F9B69B"/>
<path d="M495.46 66.8561C495.193 70.9115 493.118 81.116 490.846 90.0302C489.34 95.9143 487.759 101.24 486.534 103.857C483.458 110.429 474.522 117.895 464.444 118.037C450.917 118.225 443.827 103.265 441.486 98.3961C440.471 96.2903 439.891 89.1396 439.568 81.7197C439.145 71.9683 439.145 61.744 439.145 61.744L441.919 39.3715L455.526 34.3899L489.752 40.3947C489.752 40.3947 495.893 60.125 495.46 66.8522V66.8561Z" fill="#F9B69B"/>
<path d="M465.023 67.7112C465.023 67.7112 466.15 75.5942 465.023 79.7445" stroke="#CE6C5F" stroke-width="2" stroke-linecap="round" stroke-linejoin="round"/>
<path d="M443.971 61.5916C443.971 61.5916 451.921 61.3561 455.725 62.1299C459.525 62.9038 461.993 64.5445 461.993 64.5445" stroke="#7D2929" stroke-width="2" stroke-linecap="round" stroke-linejoin="round"/>
<path d="M473.539 66.4011C473.539 66.4011 475.354 65.4749 479.728 65.4749C483.546 65.4749 489.946 66.4011 489.946 66.4011" stroke="#7D2929" stroke-width="2" stroke-linecap="round" stroke-linejoin="round"/>
<path d="M457.594 68.8514C457.594 69.073 457.578 69.2947 457.548 69.5124C457.519 69.7301 457.475 69.9399 457.418 70.1457C457.36 70.3516 457.289 70.5455 457.204 70.7296C457.121 70.9137 457.024 71.0858 456.917 71.2422C456.81 71.3986 456.693 71.5391 456.569 71.6618C456.442 71.7865 456.309 71.8894 456.171 71.9745C456.03 72.0596 455.886 72.1249 455.737 72.1665C455.589 72.21 455.439 72.2318 455.288 72.2318C455.136 72.2318 454.987 72.21 454.839 72.1665C454.69 72.1249 454.546 72.0596 454.405 71.9745C454.265 71.8894 454.132 71.7865 454.008 71.6618C453.881 71.5391 453.764 71.3986 453.657 71.2422C453.55 71.0858 453.455 70.9137 453.37 70.7296C453.287 70.5455 453.216 70.3516 453.159 70.1457C453.099 69.9399 453.056 69.7301 453.026 69.5124C452.998 69.2947 452.982 69.073 452.982 68.8514C452.982 68.6297 452.998 68.41 453.026 68.1923C453.056 67.9746 453.099 67.7628 453.159 67.559C453.216 67.3531 453.287 67.1592 453.37 66.9751C453.455 66.7891 453.55 66.6189 453.657 66.4625C453.764 66.3042 453.881 66.1656 454.008 66.0409C454.132 65.9182 454.265 65.8133 454.405 65.7282C454.546 65.6451 454.69 65.5798 454.839 65.5363C454.987 65.4927 455.136 65.4709 455.288 65.4709C455.439 65.4709 455.589 65.4927 455.737 65.5363C455.886 65.5798 456.03 65.6451 456.171 65.7282C456.309 65.8133 456.442 65.9182 456.569 66.0409C456.693 66.1656 456.81 66.3042 456.917 66.4625C457.024 66.6189 457.121 66.7891 457.204 66.9731C457.289 67.1592 457.36 67.3531 457.418 67.559C457.475 67.7628 457.519 67.9746 457.548 68.1923C457.578 68.41 457.594 68.6297 457.594 68.8514Z" fill="#3D1119"/>
<path d="M480.04 67.7707C480.189 67.7964 480.333 67.8439 480.472 67.9132C480.61 67.9825 480.741 68.0696 480.863 68.1784C480.986 68.2873 481.097 68.4119 481.2 68.5564C481.303 68.6989 481.392 68.8573 481.469 69.0314C481.548 69.2036 481.612 69.3897 481.663 69.5856C481.712 69.7815 481.748 69.9874 481.77 70.1991C481.79 70.4109 481.796 70.6266 481.788 70.8463C481.778 71.066 481.754 71.2837 481.714 71.5034C481.675 71.7211 481.621 71.9349 481.554 72.1447C481.487 72.3525 481.408 72.5543 481.315 72.7443C481.222 72.9363 481.117 73.1164 481.002 73.2827C480.887 73.4509 480.762 73.6013 480.63 73.7379C480.497 73.8725 480.357 73.9892 480.212 74.0902C480.066 74.1891 479.917 74.2683 479.765 74.3277C479.613 74.3851 479.458 74.4247 479.306 74.4405C479.151 74.4563 478.999 74.4524 478.851 74.4247C478.702 74.3989 478.558 74.3514 478.419 74.2822C478.281 74.2129 478.15 74.1258 478.027 74.0169C477.905 73.9081 477.792 73.7834 477.691 73.6389C477.588 73.4964 477.499 73.3381 477.42 73.1639C477.342 72.9917 477.279 72.8057 477.228 72.6098C477.178 72.4138 477.143 72.21 477.121 71.9962C477.101 71.7845 477.095 71.5687 477.103 71.349C477.113 71.1313 477.137 70.9116 477.176 70.6919C477.216 70.4742 477.267 70.2605 477.335 70.0507C477.402 69.8429 477.483 69.641 477.576 69.451C477.669 69.259 477.774 69.0789 477.889 68.9127C478.004 68.7464 478.128 68.594 478.261 68.4594C478.393 68.3229 478.532 68.2061 478.678 68.1052C478.825 68.0062 478.973 67.9271 479.126 67.8677C479.278 67.8103 479.431 67.7727 479.585 67.7549C479.739 67.739 479.89 67.743 480.04 67.7707Z" fill="#3D1119"/>
<path d="M490.845 90.0283C489.338 95.9104 487.757 101.236 486.532 103.853C483.456 110.426 474.52 117.893 464.443 118.034C450.915 118.222 443.826 103.261 441.484 98.3923C440.469 96.2864 439.889 89.1357 439.566 81.7158C439.566 81.7158 443.643 87.9542 447.089 88.3559C449.387 88.6251 453.32 87.7444 455.667 87.1328C457.005 86.7864 458.39 86.6796 459.77 86.824L471.566 88.061C473.551 88.2669 475.443 88.9873 477.066 90.149C478.829 91.4078 481.325 92.904 483.342 92.9931C486.752 93.1594 490.609 90.2084 490.845 90.0283Z" fill="#944020"/>
<path d="M446.258 94.7149C446.258 94.7149 452.896 91.5087 458.6 91.2415C464.304 90.9763 472.591 91.287 476.064 93.3374C479.538 95.3859 482.025 98.5941 482.025 98.5941C481.535 99.9755 474.459 104.607 470.762 104.559C467.065 104.514 469.163 103.196 465.022 102.574C460.878 101.951 459.269 104.28 457.003 103.797C454.739 103.314 447.416 99.5282 446.254 94.7169L446.258 94.7149Z" fill="#F9B69B"/>
<path d="M455 96.5C455 96.5 459.185 98.236 466.27 98.236C470.593 98.236 475 97.5 475 97.5" stroke="#7D2929" stroke-linecap="round" stroke-linejoin="round"/>
<path d="M439.142 61.74C440.49 61.839 442.402 61.1443 442.554 59.173C442.71 57.2018 442.398 54.9198 443.435 50.9258C444.472 46.9299 445.2 43.7138 449.299 42.4669C453.398 41.222 462.793 40.9627 467.929 40.654C473.065 40.3413 481.785 43.4011 485.419 45.0636C489.05 46.7241 491.437 50.8229 492.17 55.7689C492.902 60.7168 493.783 64.0259 493.989 65.9358C494.194 67.8438 495.477 67.7112 495.477 67.7112V44.6717L490.65 36.9925L459.731 32.292L448.834 33.3885L440.682 36.9153L439.138 47.4128L437.861 57.4432L439.138 61.74H439.142Z" fill="#944020"/>
<mask id="mask11_4420_473" style="mask-type:luminance" maskUnits="userSpaceOnUse" x="397" y="126" width="134" height="53">
<path d="M397.881 126.16H530.121V178H397.881V126.16Z" fill="white"/>
</mask>
<g mask="url(#mask11_4420_473)">
<path d="M529.852 139.927C516.746 162.679 492.162 177.996 464.011 177.996C435.859 177.996 411.49 162.806 398.33 140.226C402.433 138.947 406.035 137.7 407.547 136.806C411.523 134.453 432.483 126.494 432.483 126.494L459.013 145.467L472.569 146.626L505.237 130.872C505.237 130.872 518.673 135.038 529.852 139.927Z" fill="#E6D5BE"/>
</g>
<path d="M402.141 140.647C399.396 139.834 398.951 137.431 400.251 135.007C401.551 132.58 409.074 126.524 410.893 121.932C412.712 117.343 413.927 114.655 416.785 115.609C419.645 116.561 425.366 122.281 427.185 120.895C429.004 119.512 429.525 113.099 432.3 112.666C435.074 112.233 440.962 119.53 441.79 120.907C442.615 122.285 454.098 137.328 457.957 141.518C461.819 145.708 469.055 146.197 471.998 144.55C474.947 142.902 482.242 127.116 483.186 124.961C484.132 122.803 484.999 117.693 486.733 117.43C488.464 117.171 492.326 124.571 495.476 124.422C498.627 124.272 499.664 118.342 504.264 120.567C508.86 122.789 527.026 133.813 527.731 137.477C528.43 141.142 512.61 143.581 504.81 144.095C498.176 144.533 474.388 147.394 469.939 147.292C465.492 147.189 447.494 144.81 438.083 144.295C428.67 143.777 406.95 142.074 402.141 140.651V140.647Z" fill="#E6D5BE"/>
<path d="M413.723 142.352C413.723 142.352 449.557 146.514 455.291 150.221" stroke="#B29B87" stroke-linecap="round" stroke-linejoin="round"/>
<path d="M477.938 150.221C477.938 150.221 483.525 147.292 514.801 142.888" stroke="#B29B87" stroke-linecap="round" stroke-linejoin="round"/>
<path d="M79.1282 209.24C78.4215 209.24 77.7615 209.153 77.1482 208.98C76.5349 208.807 75.9882 208.567 75.5082 208.26C75.0282 207.94 74.6282 207.587 74.3082 207.2C74.0015 206.813 73.8015 206.407 73.7082 205.98L76.3882 205.18C76.5615 205.633 76.8682 206.027 77.3082 206.36C77.7482 206.68 78.3015 206.847 78.9682 206.86C79.6749 206.873 80.2482 206.72 80.6882 206.4C81.1415 206.08 81.3682 205.667 81.3682 205.16C81.3682 204.72 81.1882 204.353 80.8282 204.06C80.4815 203.753 80.0015 203.52 79.3882 203.36L77.5682 202.88C76.8882 202.707 76.2882 202.447 75.7682 202.1C75.2482 201.74 74.8415 201.3 74.5482 200.78C74.2549 200.26 74.1082 199.653 74.1082 198.96C74.1082 197.64 74.5415 196.613 75.4082 195.88C76.2882 195.133 77.5282 194.76 79.1282 194.76C80.0215 194.76 80.8015 194.893 81.4682 195.16C82.1482 195.413 82.7149 195.78 83.1682 196.26C83.6215 196.74 83.9682 197.307 84.2082 197.96L81.5482 198.78C81.3882 198.327 81.0949 197.94 80.6682 197.62C80.2415 197.3 79.7015 197.14 79.0482 197.14C78.3815 197.14 77.8549 197.293 77.4682 197.6C77.0949 197.907 76.9082 198.34 76.9082 198.9C76.9082 199.34 77.0549 199.687 77.3482 199.94C77.6549 200.193 78.0682 200.387 78.5882 200.52L80.4282 200.98C81.6282 201.273 82.5615 201.8 83.2282 202.56C83.8949 203.32 84.2282 204.167 84.2282 205.1C84.2282 205.927 84.0282 206.653 83.6282 207.28C83.2282 207.893 82.6482 208.373 81.8882 208.72C81.1282 209.067 80.2082 209.24 79.1282 209.24ZM89.6766 209.28C88.9966 209.28 88.39 209.173 87.8566 208.96C87.3366 208.733 86.89 208.447 86.5166 208.1C86.1566 207.753 85.87 207.38 85.6566 206.98C85.4433 206.58 85.2966 206.193 85.2166 205.82L87.5366 204.94C87.75 205.527 88.03 205.98 88.3766 206.3C88.7366 206.62 89.1833 206.78 89.7166 206.78C90.1166 206.78 90.4966 206.687 90.8566 206.5C91.2166 206.313 91.5033 206.013 91.7166 205.6C91.9433 205.187 92.0566 204.653 92.0566 204V195H94.7766V204.8C94.7766 205.493 94.65 206.12 94.3966 206.68C94.1433 207.227 93.7833 207.693 93.3166 208.08C92.8633 208.467 92.3233 208.767 91.6966 208.98C91.0833 209.18 90.41 209.28 89.6766 209.28Z" fill="black"/>
<path d="M265.255 209.28C264.575 209.28 263.968 209.173 263.435 208.96C262.915 208.733 262.468 208.447 262.095 208.1C261.735 207.753 261.448 207.38 261.235 206.98C261.021 206.58 260.875 206.193 260.795 205.82L263.115 204.94C263.328 205.527 263.608 205.98 263.955 206.3C264.315 206.62 264.761 206.78 265.295 206.78C265.695 206.78 266.075 206.687 266.435 206.5C266.795 206.313 267.081 206.013 267.295 205.6C267.521 205.187 267.635 204.653 267.635 204V195H270.355V204.8C270.355 205.493 270.228 206.12 269.975 206.68C269.721 207.227 269.361 207.693 268.895 208.08C268.441 208.467 267.901 208.767 267.275 208.98C266.661 209.18 265.988 209.28 265.255 209.28ZM277.51 209.24C276.497 209.24 275.59 209.02 274.79 208.58C274.003 208.127 273.383 207.507 272.93 206.72C272.49 205.933 272.27 205.027 272.27 204C272.27 202.973 272.49 202.067 272.93 201.28C273.37 200.493 273.983 199.88 274.77 199.44C275.557 198.987 276.457 198.76 277.47 198.76C278.497 198.76 279.403 198.987 280.19 199.44C280.977 199.88 281.59 200.493 282.03 201.28C282.47 202.067 282.69 202.973 282.69 204C282.69 205.027 282.47 205.933 282.03 206.72C281.59 207.507 280.977 208.127 280.19 208.58C279.417 209.02 278.523 209.24 277.51 209.24ZM277.51 206.8C278.003 206.8 278.437 206.68 278.81 206.44C279.183 206.2 279.47 205.873 279.67 205.46C279.883 205.033 279.99 204.547 279.99 204C279.99 203.453 279.883 202.973 279.67 202.56C279.457 202.133 279.157 201.8 278.77 201.56C278.397 201.32 277.963 201.2 277.47 201.2C276.99 201.2 276.557 201.32 276.17 201.56C275.797 201.8 275.503 202.133 275.29 202.56C275.077 202.973 274.97 203.453 274.97 204C274.97 204.547 275.077 205.033 275.29 205.46C275.503 205.873 275.803 206.2 276.19 206.44C276.577 206.68 277.017 206.8 277.51 206.8ZM288.951 209.24C287.964 209.24 287.091 209.02 286.331 208.58C285.571 208.127 284.971 207.507 284.531 206.72C284.104 205.933 283.891 205.027 283.891 204C283.891 202.973 284.111 202.067 284.551 201.28C285.004 200.493 285.618 199.88 286.391 199.44C287.178 198.987 288.078 198.76 289.091 198.76C289.971 198.76 290.778 198.993 291.511 199.46C292.258 199.913 292.851 200.587 293.291 201.48C293.744 202.36 293.971 203.433 293.971 204.7H286.391L286.631 204.46C286.631 204.953 286.751 205.387 286.991 205.76C287.244 206.12 287.564 206.4 287.951 206.6C288.351 206.787 288.778 206.88 289.231 206.88C289.778 206.88 290.224 206.767 290.571 206.54C290.918 206.3 291.184 205.993 291.371 205.62L293.731 206.54C293.451 207.1 293.084 207.587 292.631 208C292.191 208.4 291.664 208.707 291.051 208.92C290.438 209.133 289.738 209.24 288.951 209.24ZM286.771 202.98L286.531 202.74H291.351L291.131 202.98C291.131 202.5 291.018 202.12 290.791 201.84C290.564 201.547 290.284 201.333 289.951 201.2C289.631 201.067 289.318 201 289.011 201C288.704 201 288.378 201.067 288.031 201.2C287.684 201.333 287.384 201.547 287.131 201.84C286.891 202.12 286.771 202.5 286.771 202.98Z" fill="black"/>
<path d="M448.262 209.24C446.836 209.24 445.569 208.933 444.462 208.32C443.369 207.693 442.509 206.84 441.882 205.76C441.256 204.667 440.942 203.413 440.942 202C440.942 200.587 441.256 199.34 441.882 198.26C442.509 197.167 443.369 196.313 444.462 195.7C445.569 195.073 446.836 194.76 448.262 194.76C449.116 194.76 449.902 194.887 450.622 195.14C451.342 195.393 451.976 195.747 452.522 196.2C453.082 196.64 453.549 197.147 453.922 197.72L451.682 199.12C451.456 198.76 451.156 198.44 450.782 198.16C450.422 197.88 450.022 197.66 449.582 197.5C449.142 197.34 448.702 197.26 448.262 197.26C447.382 197.26 446.602 197.467 445.922 197.88C445.242 198.28 444.709 198.833 444.322 199.54C443.936 200.247 443.742 201.067 443.742 202C443.742 202.92 443.929 203.74 444.302 204.46C444.689 205.18 445.229 205.747 445.922 206.16C446.616 206.56 447.416 206.76 448.322 206.76C449.029 206.76 449.656 206.62 450.202 206.34C450.762 206.06 451.202 205.667 451.522 205.16C451.842 204.653 452.002 204.067 452.002 203.4L454.602 203C454.602 204.32 454.329 205.447 453.782 206.38C453.249 207.313 452.502 208.027 451.542 208.52C450.596 209 449.502 209.24 448.262 209.24ZM448.722 203.64V201.5H454.602V203.2L453.122 203.64H448.722ZM462.285 209L462.205 206.98V203.94C462.205 203.34 462.139 202.827 462.005 202.4C461.885 201.973 461.685 201.647 461.405 201.42C461.139 201.18 460.772 201.06 460.305 201.06C459.879 201.06 459.492 201.153 459.145 201.34C458.799 201.527 458.505 201.813 458.265 202.2L455.945 201.4C456.132 200.973 456.405 200.56 456.765 200.16C457.125 199.747 457.592 199.413 458.165 199.16C458.752 198.893 459.465 198.76 460.305 198.76C461.319 198.76 462.159 198.953 462.825 199.34C463.505 199.727 464.005 200.273 464.325 200.98C464.659 201.673 464.819 202.5 464.805 203.46L464.745 209H462.285ZM459.485 209.24C458.285 209.24 457.352 208.973 456.685 208.44C456.032 207.907 455.705 207.153 455.705 206.18C455.705 205.113 456.059 204.313 456.765 203.78C457.485 203.233 458.492 202.96 459.785 202.96H462.325V204.92H460.705C459.839 204.92 459.239 205.027 458.905 205.24C458.572 205.44 458.405 205.727 458.405 206.1C458.405 206.393 458.539 206.627 458.805 206.8C459.072 206.96 459.445 207.04 459.925 207.04C460.365 207.04 460.752 206.94 461.085 206.74C461.432 206.527 461.705 206.26 461.905 205.94C462.105 205.607 462.205 205.267 462.205 204.92H462.845C462.845 206.28 462.585 207.34 462.065 208.1C461.559 208.86 460.699 209.24 459.485 209.24ZM466.91 209V195H469.55V207.14L469.41 209H466.91ZM472.57 209.24C471.73 209.24 471.016 209.027 470.43 208.6C469.856 208.173 469.416 207.567 469.11 206.78C468.803 205.993 468.65 205.067 468.65 204C468.65 202.92 468.803 201.993 469.11 201.22C469.416 200.433 469.856 199.827 470.43 199.4C471.016 198.973 471.73 198.76 472.57 198.76C473.49 198.76 474.283 198.973 474.95 199.4C475.63 199.827 476.156 200.433 476.53 201.22C476.903 201.993 477.09 202.92 477.09 204C477.09 205.067 476.903 205.993 476.53 206.78C476.156 207.567 475.63 208.173 474.95 208.6C474.283 209.027 473.49 209.24 472.57 209.24ZM471.89 206.82C472.37 206.82 472.79 206.7 473.15 206.46C473.523 206.22 473.816 205.887 474.03 205.46C474.243 205.033 474.35 204.547 474.35 204C474.35 203.453 474.243 202.967 474.03 202.54C473.83 202.113 473.543 201.787 473.17 201.56C472.81 201.32 472.39 201.2 471.91 201.2C471.456 201.2 471.05 201.32 470.69 201.56C470.33 201.8 470.05 202.133 469.85 202.56C469.65 202.973 469.55 203.453 469.55 204C469.55 204.547 469.65 205.033 469.85 205.46C470.05 205.887 470.323 206.22 470.67 206.46C471.03 206.7 471.436 206.82 471.89 206.82ZM483.344 209.24C482.357 209.24 481.484 209.02 480.724 208.58C479.964 208.127 479.364 207.507 478.924 206.72C478.497 205.933 478.284 205.027 478.284 204C478.284 202.973 478.504 202.067 478.944 201.28C479.397 200.493 480.01 199.88 480.784 199.44C481.57 198.987 482.47 198.76 483.484 198.76C484.364 198.76 485.17 198.993 485.904 199.46C486.65 199.913 487.244 200.587 487.684 201.48C488.137 202.36 488.364 203.433 488.364 204.7H480.784L481.024 204.46C481.024 204.953 481.144 205.387 481.384 205.76C481.637 206.12 481.957 206.4 482.344 206.6C482.744 206.787 483.17 206.88 483.624 206.88C484.17 206.88 484.617 206.767 484.964 206.54C485.31 206.3 485.577 205.993 485.764 205.62L488.124 206.54C487.844 207.1 487.477 207.587 487.024 208C486.584 208.4 486.057 208.707 485.444 208.92C484.83 209.133 484.13 209.24 483.344 209.24ZM481.164 202.98L480.924 202.74H485.744L485.524 202.98C485.524 202.5 485.41 202.12 485.184 201.84C484.957 201.547 484.677 201.333 484.344 201.2C484.024 201.067 483.71 201 483.404 201C483.097 201 482.77 201.067 482.424 201.2C482.077 201.333 481.777 201.547 481.524 201.84C481.284 202.12 481.164 202.5 481.164 202.98Z" fill="black"/>
<path d="M649.086 207V193H653.826C654.786 193 655.626 193.147 656.346 193.44C657.066 193.733 657.626 194.18 658.026 194.78C658.426 195.367 658.626 196.1 658.626 196.98C658.626 197.527 658.486 198.033 658.206 198.5C657.94 198.953 657.56 199.347 657.066 199.68C657.72 200.013 658.22 200.46 658.566 201.02C658.926 201.567 659.106 202.227 659.106 203C659.106 203.853 658.913 204.58 658.526 205.18C658.14 205.78 657.6 206.233 656.906 206.54C656.213 206.847 655.4 207 654.466 207H649.086ZM651.766 204.58H654.206C654.86 204.58 655.373 204.42 655.746 204.1C656.12 203.767 656.306 203.327 656.306 202.78C656.306 202.207 656.1 201.76 655.686 201.44C655.273 201.107 654.706 200.94 653.986 200.94H651.766V204.58ZM651.766 198.7H653.886C654.486 198.7 654.96 198.547 655.306 198.24C655.653 197.933 655.826 197.5 655.826 196.94C655.826 196.38 655.633 195.947 655.246 195.64C654.86 195.333 654.333 195.18 653.666 195.18H651.766V198.7ZM665.653 207.24C664.639 207.24 663.733 207.02 662.933 206.58C662.146 206.127 661.526 205.507 661.073 204.72C660.633 203.933 660.413 203.027 660.413 202C660.413 200.973 660.633 200.067 661.073 199.28C661.513 198.493 662.126 197.88 662.913 197.44C663.699 196.987 664.599 196.76 665.613 196.76C666.639 196.76 667.546 196.987 668.333 197.44C669.119 197.88 669.733 198.493 670.173 199.28C670.613 200.067 670.832 200.973 670.832 202C670.832 203.027 670.613 203.933 670.173 204.72C669.733 205.507 669.119 206.127 668.333 206.58C667.559 207.02 666.666 207.24 665.653 207.24ZM665.653 204.8C666.146 204.8 666.579 204.68 666.953 204.44C667.326 204.2 667.613 203.873 667.813 203.46C668.026 203.033 668.133 202.547 668.133 202C668.133 201.453 668.026 200.973 667.813 200.56C667.599 200.133 667.299 199.8 666.913 199.56C666.539 199.32 666.106 199.2 665.613 199.2C665.133 199.2 664.699 199.32 664.313 199.56C663.939 199.8 663.646 200.133 663.433 200.56C663.219 200.973 663.113 201.453 663.113 202C663.113 202.547 663.219 203.033 663.433 203.46C663.646 203.873 663.946 204.2 664.333 204.44C664.719 204.68 665.159 204.8 665.653 204.8Z" fill="black"/>
<path d="M833.779 207L828.419 193H831.159L836.679 207H833.779ZM822.719 207L828.239 193H830.979L825.619 207H822.719ZM825.319 203.92V201.5H834.099V203.92H825.319ZM844.576 207L844.416 205.16V197H847.056V207H844.576ZM837.796 202.12V197H840.436V202.12H837.796ZM840.436 202.12C840.436 202.787 840.509 203.313 840.656 203.7C840.816 204.073 841.036 204.347 841.316 204.52C841.609 204.68 841.936 204.76 842.296 204.76C842.989 204.773 843.516 204.567 843.876 204.14C844.236 203.7 844.416 203.067 844.416 202.24H845.316C845.316 203.307 845.156 204.213 844.836 204.96C844.516 205.693 844.076 206.26 843.516 206.66C842.956 207.047 842.296 207.24 841.536 207.24C840.736 207.24 840.056 207.08 839.496 206.76C838.936 206.44 838.509 205.947 838.216 205.28C837.936 204.6 837.796 203.727 837.796 202.66V202.12H840.436ZM851.203 201.74C851.203 200.66 851.41 199.767 851.823 199.06C852.25 198.353 852.79 197.827 853.443 197.48C854.11 197.133 854.803 196.96 855.523 196.96V199.52C854.91 199.52 854.33 199.593 853.783 199.74C853.25 199.887 852.816 200.127 852.483 200.46C852.15 200.793 851.983 201.22 851.983 201.74H851.203ZM849.343 207V197H851.983V207H849.343ZM861.441 207.24C860.455 207.24 859.581 207.02 858.821 206.58C858.061 206.127 857.461 205.507 857.021 204.72C856.595 203.933 856.381 203.027 856.381 202C856.381 200.973 856.601 200.067 857.041 199.28C857.495 198.493 858.108 197.88 858.881 197.44C859.668 196.987 860.568 196.76 861.581 196.76C862.461 196.76 863.268 196.993 864.001 197.46C864.748 197.913 865.341 198.587 865.781 199.48C866.235 200.36 866.461 201.433 866.461 202.7H858.881L859.121 202.46C859.121 202.953 859.241 203.387 859.481 203.76C859.735 204.12 860.055 204.4 860.441 204.6C860.841 204.787 861.268 204.88 861.721 204.88C862.268 204.88 862.715 204.767 863.061 204.54C863.408 204.3 863.675 203.993 863.861 203.62L866.221 204.54C865.941 205.1 865.575 205.587 865.121 206C864.681 206.4 864.155 206.707 863.541 206.92C862.928 207.133 862.228 207.24 861.441 207.24ZM859.261 200.98L859.021 200.74H863.841L863.621 200.98C863.621 200.5 863.508 200.12 863.281 199.84C863.055 199.547 862.775 199.333 862.441 199.2C862.121 199.067 861.808 199 861.501 199C861.195 199 860.868 199.067 860.521 199.2C860.175 199.333 859.875 199.547 859.621 199.84C859.381 200.12 859.261 200.5 859.261 200.98ZM867.995 207V193H870.635V207H867.995ZM878.957 207L878.877 204.98V201.94C878.877 201.34 878.811 200.827 878.677 200.4C878.557 199.973 878.357 199.647 878.077 199.42C877.811 199.18 877.444 199.06 876.977 199.06C876.551 199.06 876.164 199.153 875.817 199.34C875.471 199.527 875.177 199.813 874.937 200.2L872.617 199.4C872.804 198.973 873.077 198.56 873.437 198.16C873.797 197.747 874.264 197.413 874.837 197.16C875.424 196.893 876.137 196.76 876.977 196.76C877.991 196.76 878.831 196.953 879.497 197.34C880.177 197.727 880.677 198.273 880.997 198.98C881.331 199.673 881.491 200.5 881.477 201.46L881.417 207H878.957ZM876.157 207.24C874.957 207.24 874.024 206.973 873.357 206.44C872.704 205.907 872.377 205.153 872.377 204.18C872.377 203.113 872.731 202.313 873.437 201.78C874.157 201.233 875.164 200.96 876.457 200.96H878.997V202.92H877.377C876.511 202.92 875.911 203.027 875.577 203.24C875.244 203.44 875.077 203.727 875.077 204.1C875.077 204.393 875.211 204.627 875.477 204.8C875.744 204.96 876.117 205.04 876.597 205.04C877.037 205.04 877.424 204.94 877.757 204.74C878.104 204.527 878.377 204.26 878.577 203.94C878.777 203.607 878.877 203.267 878.877 202.92H879.517C879.517 204.28 879.257 205.34 878.737 206.1C878.231 206.86 877.371 207.24 876.157 207.24Z" fill="black"/>
</svg>
