<svg width="83" height="83" viewBox="0 0 83 83" fill="none" xmlns="http://www.w3.org/2000/svg">
<path d="M67.527 18.0523V71.2604C67.527 74.7435 64.7652 77.5945 61.2949 77.5945H20.7676L18.4219 74.027V73.9833H57.5092C60.9794 73.9833 63.7736 71.101 63.7736 67.6183V12.2109C66.0448 13.1695 67.527 15.4326 67.527 18.0523Z" fill="#E7E6FF"/>
<path d="M18.4219 68.0186V5.38281H57.5092C60.9794 5.38281 63.7736 8.23378 63.7736 11.718V67.6182C63.7736 71.1009 60.9794 73.9832 57.5092 73.9832H18.4219V68.0186Z" fill="#D3F6F7"/>
<path d="M30.6199 18.0977H55.0163C55.0573 18.0977 55.0979 18.1014 55.1378 18.1095C55.1784 18.1176 55.2173 18.1295 55.2556 18.1452C55.2935 18.1609 55.3291 18.1803 55.3637 18.203C55.3978 18.2257 55.4291 18.2517 55.4583 18.2808C55.4875 18.31 55.5134 18.3414 55.5361 18.3754C55.5588 18.41 55.5782 18.4457 55.5939 18.4835C55.6096 18.5218 55.6215 18.5607 55.6296 18.6013C55.6377 18.6413 55.6415 18.6823 55.6415 18.7234V29.716C55.6415 29.7571 55.6377 29.7976 55.6296 29.8382C55.6215 29.8781 55.6096 29.9176 55.5939 29.9554C55.5782 29.9932 55.5588 30.0294 55.5361 30.0635C55.5134 30.0975 55.4875 30.1294 55.4583 30.1586C55.4291 30.1872 55.3978 30.2132 55.3637 30.2364C55.3291 30.2591 55.2935 30.278 55.2556 30.2942C55.2173 30.3099 55.1784 30.3218 55.1378 30.3294C55.0979 30.3375 55.0573 30.3418 55.0163 30.3418H30.6199C30.5788 30.3418 30.5383 30.3375 30.4978 30.3294C30.4578 30.3218 30.4183 30.3099 30.3805 30.2942C30.3427 30.278 30.3065 30.2591 30.2724 30.2364C30.2384 30.2132 30.2065 30.1872 30.1773 30.1586C30.1487 30.1294 30.1227 30.0975 30.0995 30.0635C30.0768 30.0294 30.0579 29.9932 30.0417 29.9554C30.026 29.9176 30.0141 29.8781 30.0066 29.8382C29.9985 29.7976 29.9941 29.7571 29.9941 29.716V18.7234C29.9941 18.6823 29.9985 18.6413 30.0066 18.6013C30.0141 18.5607 30.026 18.5218 30.0417 18.4835C30.0579 18.4457 30.0768 18.41 30.0995 18.3754C30.1227 18.3414 30.1487 18.31 30.1773 18.2808C30.2065 18.2517 30.2384 18.2257 30.2724 18.203C30.3065 18.1803 30.3427 18.1609 30.3805 18.1452C30.4183 18.1295 30.4578 18.1176 30.4978 18.1095C30.5383 18.1014 30.5788 18.0977 30.6199 18.0977Z" fill="#E7E6FF"/>
<path d="M23.1133 62.368V5.38281H18.4219V73.9832H23.1133V62.368Z" fill="#E7E6FF"/>
<path d="M34.6861 29.716V18.7234C34.6861 18.3776 34.966 18.0977 35.3113 18.0977H30.6199C30.274 18.0977 29.9941 18.3776 29.9941 18.7234V29.716C29.9941 30.0619 30.274 30.3418 30.6199 30.3418H35.3113C34.966 30.3418 34.6861 30.0619 34.6861 29.716Z" fill="#719DD1"/>
<path d="M55.0165 17.4727H30.6201C29.93 17.4727 29.3691 18.0341 29.3691 18.7236V29.7173C29.3691 30.4068 29.93 30.9683 30.6201 30.9683H55.0165C55.706 30.9683 56.2674 30.4068 56.2674 29.7173V18.7236C56.2674 18.0341 55.706 17.4727 55.0165 17.4727ZM30.6201 29.7173V18.7236H55.0165L55.017 29.7173H30.6201Z" fill="#284268"/>
<path d="M53.4525 59.6992H32.0281C31.6823 59.6992 31.4023 59.9797 31.4023 60.325C31.4023 60.6703 31.6823 60.9507 32.0281 60.9507H53.4525C53.7983 60.9507 54.0782 60.6703 54.0782 60.325C54.0782 59.9797 53.7983 59.6992 53.4525 59.6992Z" fill="#284268"/>
<path d="M50.3261 64.4102H35.157C34.8112 64.4102 34.5312 64.6901 34.5312 65.0354C34.5312 65.3812 34.8112 65.6611 35.157 65.6611H50.3261C50.6719 65.6611 50.9519 65.3812 50.9519 65.0354C50.9519 64.6901 50.6719 64.4102 50.3261 64.4102Z" fill="#284268"/>
<path d="M64.3983 11.8107V11.7182C64.3983 7.88004 61.3075 4.75781 57.5082 4.75781H18.4209C18.0756 4.75781 17.7957 5.03772 17.7957 5.38301V10.7229H15.4494C15.1041 10.7229 14.8242 11.0028 14.8242 11.3486C14.8242 11.6939 15.1041 11.9738 15.4494 11.9738H17.7957V16.5313H15.4494C15.1041 16.5313 14.8242 16.8112 14.8242 17.1565C14.8242 17.5023 15.1041 17.7822 15.4494 17.7822H17.7957V22.0257H15.4494C15.1041 22.0257 14.8242 22.3056 14.8242 22.6509C14.8242 22.9967 15.1041 23.2766 15.4494 23.2766H17.7957V27.6768H15.4494C15.1041 27.6768 14.8242 27.9567 14.8242 28.3026C14.8242 28.6479 15.1041 28.9278 15.4494 28.9278H17.7957V33.4852H15.4494C15.1041 33.4852 14.8242 33.7651 14.8242 34.111C14.8242 34.4563 15.1041 34.7362 15.4494 34.7362H17.7957V39.1363H15.4494C15.1041 39.1363 14.8242 39.4168 14.8242 39.7621C14.8242 40.1074 15.1041 40.3878 15.4494 40.3878H17.7957V44.6308H15.4494C15.1041 44.6308 14.8242 44.9112 14.8242 45.2565C14.8242 45.6018 15.1041 45.8823 15.4494 45.8823H17.7957V50.5964H15.4494C15.1041 50.5964 14.8242 50.8763 14.8242 51.2216C14.8242 51.5674 15.1041 51.8473 15.4494 51.8473H17.7957V56.0908H15.4494C15.1041 56.0908 14.8242 56.3707 14.8242 56.716C14.8242 57.0619 15.1041 57.3418 15.4494 57.3418H17.7957V61.742H15.4494C15.1041 61.742 14.8242 62.0219 14.8242 62.3677C14.8242 62.713 15.1041 62.9929 15.4494 62.9929H17.7957V67.3931H15.4494C15.1041 67.3931 14.8242 67.6735 14.8242 68.0188C14.8242 68.3641 15.1041 68.6446 15.4494 68.6446H17.7957V73.9839C17.7957 73.9904 17.7973 73.9963 17.7973 74.0028C17.7919 74.1287 17.8238 74.2573 17.8984 74.3714L20.2441 77.9383C20.3597 78.1145 20.5559 78.2204 20.7666 78.2204H61.294C65.0754 78.2204 68.1517 75.0982 68.1517 71.2599V18.0524C68.1517 15.3554 66.6938 12.9584 64.3983 11.8107ZM19.0466 68.6446H21.5485C21.8943 68.6446 22.1743 68.3641 22.1743 68.0188C22.1743 67.6735 21.8943 67.3931 21.5485 67.3931H19.0466V62.9929H21.5485C21.8943 62.9929 22.1743 62.713 22.1743 62.3677C22.1743 62.0219 21.8943 61.742 21.5485 61.742H19.0466V57.3418H21.5485C21.8943 57.3418 22.1743 57.0619 22.1743 56.716C22.1743 56.3707 21.8943 56.0908 21.5485 56.0908H19.0466V51.8473H21.5485C21.8943 51.8473 22.1743 51.5674 22.1743 51.2216C22.1743 50.8763 21.8943 50.5964 21.5485 50.5964H19.0466V45.8823H21.5485C21.8943 45.8823 22.1743 45.6018 22.1743 45.2565C22.1743 44.9112 21.8943 44.6308 21.5485 44.6308H19.0466V40.3878H21.5485C21.8943 40.3878 22.1743 40.1074 22.1743 39.7621C22.1743 39.4168 21.8943 39.1363 21.5485 39.1363H19.0466V34.7362H21.5485C21.8943 34.7362 22.1743 34.4563 22.1743 34.111C22.1743 33.7651 21.8943 33.4852 21.5485 33.4852H19.0466V28.9278H21.5485C21.8943 28.9278 22.1743 28.6479 22.1743 28.3026C22.1743 27.9567 21.8943 27.6768 21.5485 27.6768H19.0466V23.2766H21.5485C21.8943 23.2766 22.1743 22.9967 22.1743 22.6509C22.1743 22.3056 21.8943 22.0257 21.5485 22.0257H19.0466V17.7822H21.5485C21.8943 17.7822 22.1743 17.5023 22.1743 17.1565C22.1743 16.8112 21.8943 16.5313 21.5485 16.5313H19.0466V11.9738H21.5485C21.8943 11.9738 22.1743 11.6939 22.1743 11.3486C22.1743 11.0028 21.8943 10.7229 21.5485 10.7229H19.0466V6.00876H57.5082C60.6174 6.00876 63.1474 8.57008 63.1474 11.7182V11.9122C63.1415 11.9241 63.1339 11.9344 63.129 11.9463L63.1474 67.6179C63.1474 70.7833 60.6174 73.3587 57.5082 73.3587H19.0466V68.6446ZM66.9008 71.2599C66.9008 74.4081 64.3854 76.9689 61.294 76.9689H21.1043L19.5524 74.6097H57.5082C61.3075 74.6097 64.3983 71.4734 64.3983 67.6179V13.2577C65.9438 14.2817 66.9008 16.0649 66.9008 18.0529V71.2599Z" fill="#284268"/>
</svg>
