<svg width="75" height="102" viewBox="0 0 75 102" fill="none" xmlns="http://www.w3.org/2000/svg">
<g filter="url(#filter0_d_4405_576)">
<circle cx="37" cy="32" r="32" fill="#00CED1"/>
</g>
<mask id="mask0_4405_576" style="mask-type:luminance" maskUnits="userSpaceOnUse" x="21" y="14" width="32" height="37">
<path d="M21.2129 14.5068H52.5375V50.3468H21.2129V14.5068Z" fill="white"/>
</mask>
<g mask="url(#mask0_4405_576)">
<path d="M47.7885 21.6839C45.8585 20.4256 44.4681 18.4143 44.0327 16.0685C43.9402 15.5631 43.8869 15.0406 43.8869 14.5068H37.7319L37.7206 39.1764C37.6169 41.9377 35.3444 44.1568 32.5548 44.1568C31.6893 44.1568 30.8723 43.9406 30.1556 43.5614C28.5098 42.6935 27.3802 40.9685 27.3802 38.9827C27.3802 36.1285 29.7006 33.8081 32.5548 33.8081C33.0885 33.8081 33.5969 33.8952 34.0831 34.0468V27.7631C33.5827 27.6956 33.0744 27.6535 32.5548 27.6535C26.3102 27.6506 21.2285 32.7352 21.2285 38.9827C21.2285 42.8143 23.1443 46.2077 26.0656 48.2585C27.9056 49.5506 30.1443 50.3118 32.5577 50.3118C38.8052 50.3118 43.8869 45.2302 43.8869 38.9827V26.4735C46.2998 28.2068 49.2577 29.2264 52.4519 29.2264V23.0718C50.7327 23.0718 49.1314 22.5606 47.7885 21.6839Z" fill="white"/>
</g>
<rect x="0.25" y="84.25" width="74.5" height="17.5" rx="2.75" fill="white" stroke="#00CED1" stroke-width="0.5"/>
<path d="M22.1568 97V89.524H19.4808V88.6H25.8408V89.524H23.1648V97H22.1568ZM27.3499 97V91H28.3099V97H27.3499ZM27.8419 89.608C27.6819 89.608 27.5419 89.548 27.4219 89.428C27.3019 89.308 27.2419 89.168 27.2419 89.008C27.2419 88.84 27.3019 88.7 27.4219 88.588C27.5419 88.468 27.6819 88.408 27.8419 88.408C28.0099 88.408 28.1499 88.468 28.2619 88.588C28.3819 88.7 28.4419 88.84 28.4419 89.008C28.4419 89.168 28.3819 89.308 28.2619 89.428C28.1499 89.548 28.0099 89.608 27.8419 89.608ZM31.495 95.068L30.883 94.408L34.075 91H35.287L31.495 95.068ZM30.559 97V88.6H31.519V97H30.559ZM34.339 97L32.059 93.556L32.683 92.884L35.527 97H34.339ZM38.8312 97V89.524H36.1552V88.6H42.5152V89.524H39.8392V97H38.8312ZM45.878 97.144C45.294 97.144 44.774 97.012 44.318 96.748C43.87 96.476 43.518 96.104 43.262 95.632C43.006 95.16 42.878 94.616 42.878 94C42.878 93.384 43.002 92.84 43.25 92.368C43.506 91.896 43.858 91.528 44.306 91.264C44.762 90.992 45.278 90.856 45.854 90.856C46.446 90.856 46.966 90.992 47.414 91.264C47.87 91.528 48.222 91.896 48.47 92.368C48.726 92.84 48.854 93.384 48.854 94C48.854 94.616 48.726 95.16 48.47 95.632C48.222 96.104 47.874 96.476 47.426 96.748C46.978 97.012 46.462 97.144 45.878 97.144ZM45.878 96.256C46.278 96.256 46.626 96.16 46.922 95.968C47.218 95.776 47.45 95.512 47.618 95.176C47.794 94.84 47.882 94.448 47.882 94C47.882 93.552 47.794 93.16 47.618 92.824C47.45 92.488 47.214 92.224 46.91 92.032C46.606 91.84 46.254 91.744 45.854 91.744C45.462 91.744 45.114 91.84 44.81 92.032C44.514 92.224 44.278 92.488 44.102 92.824C43.934 93.16 43.85 93.552 43.85 94C43.85 94.44 43.934 94.832 44.102 95.176C44.278 95.512 44.518 95.776 44.822 95.968C45.134 96.16 45.486 96.256 45.878 96.256ZM51.603 95.068L50.991 94.408L54.183 91H55.395L51.603 95.068ZM50.667 97V88.6H51.627V97H50.667ZM54.447 97L52.167 93.556L52.791 92.884L55.635 97H54.447Z" fill="black"/>
<defs>
<filter id="filter0_d_4405_576" x="1" y="0" width="72" height="72" filterUnits="userSpaceOnUse" color-interpolation-filters="sRGB">
<feFlood flood-opacity="0" result="BackgroundImageFix"/>
<feColorMatrix in="SourceAlpha" type="matrix" values="0 0 0 0 0 0 0 0 0 0 0 0 0 0 0 0 0 0 127 0" result="hardAlpha"/>
<feOffset dy="4"/>
<feGaussianBlur stdDeviation="2"/>
<feComposite in2="hardAlpha" operator="out"/>
<feColorMatrix type="matrix" values="0 0 0 0 0 0 0 0 0 0 0 0 0 0 0 0 0 0 0.25 0"/>
<feBlend mode="normal" in2="BackgroundImageFix" result="effect1_dropShadow_4405_576"/>
<feBlend mode="normal" in="SourceGraphic" in2="effect1_dropShadow_4405_576" result="shape"/>
</filter>
</defs>
</svg>
