<svg width="65" height="75" viewBox="0 0 65 75" fill="none" xmlns="http://www.w3.org/2000/svg">
<path d="M53.0341 71.8089C56.4657 71.5704 58.962 68.3762 59.9246 62.6507L6.77931 11.7041C-2.93459 23.8191 1.65544 35.0317 5.7029 38.4633C2.8664 42.7908 3.95703 55.5468 3.30287 59.0528C2.77998 61.8576 2.93969 67.233 3.08518 69.5707C3.59604 74.4692 9.19247 74.7187 11.5192 74.047C19.2542 74.3456 25.3571 73.9223 27.441 73.674C31.1975 73.2506 39.9608 72.3908 44.9632 72.3307C49.9657 72.2716 52.4281 71.9576 53.0341 71.8089Z" fill="#D4D0FF"/>
<path d="M60.9583 53.1666C61.1519 55.455 60.7384 60.2299 59.9246 62.2854M59.9246 62.2854C58.9619 68.0109 56.4656 71.2051 53.0341 71.4436C52.428 71.5924 49.9656 71.9063 44.9632 71.9654C39.9608 72.0255 31.1975 72.8854 27.441 73.3087C25.3571 73.557 19.2542 73.9804 11.5192 73.6817C9.19246 74.3534 3.59603 74.104 3.08518 69.2055C2.93969 66.8678 2.77998 61.4923 3.30287 58.6875C3.95702 55.1816 2.8664 42.4255 5.7029 38.098C1.65544 34.6664 -2.93459 23.4539 6.7793 11.3389L59.9246 62.2854Z" stroke="black" stroke-width="2" stroke-linecap="round" stroke-linejoin="round"/>
<path d="M60.9739 53.5797C61.8469 40.5097 60.1261 33.4628 59.1558 31.5736C61.5198 29.668 69.1892 19.114 58.3562 8.37292C46.0049 -3.87337 15.3875 0.763702 7.60768 10.4623C3.68165 15.0107 1.77716 26.1259 12.4788 35.0785C11.6792 36.0728 10.0219 39.0023 9.78893 42.7621C9.49795 47.4615 8.04415 48.7293 8.91709 61.411C8.98928 63.2761 10.2112 66.9757 14.5146 66.8565C18.8191 66.7372 22.7069 66.8073 24.1125 66.8565C27.0442 67.0807 30.6049 68.2217 37.5632 66.4835C42.9671 66.6333 54.7354 66.3795 58.575 64.1709C59.5682 63.6743 61.4388 60.8608 60.9739 53.5797Z" fill="white" stroke="black" stroke-width="2" stroke-linecap="round" stroke-linejoin="round"/>
<path d="M55.6693 46.6429C56.1933 41.9282 52.369 40.7796 49.4898 41.0476C47.0898 41.2718 46.4673 38.3095 48.1082 35.5277C50.0575 32.223 50.6526 30.3557 51.0891 29.1863C52.4269 24.3524 48.3018 22.6973 46.0724 22.473C47.7866 21.7642 49.5018 20.0522 49.119 17.2857C48.304 11.4125 44.0892 11.5471 41.3468 12.2527C39.4007 12.7537 39.2585 10.8142 38.9467 9.94014C36.97 4.39075 31.5793 7.42853 29.1322 9.6415C27.7943 7.79171 25.332 8.45461 24.0422 8.97094C21.4486 10.008 14.6051 15.2664 13.5003 19.5632C12.3954 23.8601 15.3183 24.4377 16.9176 24.1883C17.7118 24.0647 17.4919 24.5985 17.3541 25.1586C17.2742 25.478 16.8597 26.561 16.6267 28.5902C16.3937 30.6194 18.2741 31.4245 19.2444 31.5732C20.277 31.8566 19.8745 32.6431 19.6076 33.2152C13.9072 42.4653 13.4521 49.6019 13.9367 52.014C15.0744 60.4524 24.6001 54.6601 26.7322 52.3859C27.7648 51.2865 27.6773 52.9 28.1871 54.1023C30.5346 60.2325 36.2809 57.0613 38.6558 54.5497C37.2019 59.6221 41.2013 62.1589 44.4731 60.891C47.745 59.6221 55.0151 52.5358 55.6693 46.6429Z" fill="#D4D0FF" stroke="black" stroke-width="2" stroke-linecap="round" stroke-linejoin="round"/>
<path d="M10.229 35.2314L7.53906 36.1263" stroke="black" stroke-width="2" stroke-linecap="round" stroke-linejoin="round"/>
<path d="M8.04746 33.2129L5.86621 34.2576" stroke="black" stroke-width="2" stroke-linecap="round" stroke-linejoin="round"/>
<path d="M14.445 69.2451L12.8457 71.5576" stroke="black" stroke-width="2" stroke-linecap="round" stroke-linejoin="round"/>
<path d="M17.571 69.3916L16.2627 71.6297" stroke="black" stroke-width="2" stroke-linecap="round" stroke-linejoin="round"/>
<path d="M54.4774 67.209L52.9766 69.9908" stroke="black" stroke-width="2" stroke-linecap="round" stroke-linejoin="round"/>
<path d="M50.7995 68.2783L49.6367 70.2178" stroke="black" stroke-width="2" stroke-linecap="round" stroke-linejoin="round"/>
</svg>
