<svg width="88" height="83" viewBox="0 0 88 83" fill="none" xmlns="http://www.w3.org/2000/svg">
<path d="M86.8377 26.0064C86.8377 26.0064 82.3523 23.8403 78.067 13.1019C76.7402 9.77613 74.0774 6.87735 70.7691 5.51565C70.7691 5.51565 63.6943 2.14215 60.5715 1.08254C59.6404 0.766676 58.6487 0.478359 57.6874 0.684956C56.7728 0.881452 56.0107 1.50032 55.1403 1.84282C47.7762 1.30015 40.4131 1.30015 33.0491 1.84282C32.1787 1.50032 31.4165 0.881452 30.502 0.684956C29.5406 0.478359 28.549 0.766676 27.6179 1.08254C24.4951 2.14123 17.4203 5.51565 17.4203 5.51565C14.112 6.87735 11.4492 9.77613 10.1224 13.1019C5.83712 23.8403 1.35168 26.0064 1.35168 26.0064C1.35168 26.0064 0.541818 30.4872 0.572119 33.2382L3.69035 33.5595C2.64084 48.2343 4.40747 64.594 5.85548 78.0017C5.87293 78.1358 5.90323 78.2671 5.94363 78.3965C5.98495 78.5251 6.03637 78.649 6.09973 78.7693C6.16217 78.8887 6.23562 79.0016 6.31826 79.1091C6.4009 79.2156 6.49272 79.3138 6.59281 79.4047C6.69289 79.4956 6.80032 79.5764 6.9151 79.648C7.02987 79.7197 7.15016 79.7812 7.27503 79.8317C7.40083 79.8822 7.52938 79.9208 7.6616 79.9483C7.79382 79.9758 7.92696 79.9924 8.06194 79.996C9.7698 80.0475 12.1314 80.1218 13.1378 80.1677L39.0009 81.3403C39.5023 81.377 40.0009 81.355 40.4967 81.2751L47.5366 81.2411C48.082 81.3522 48.6329 81.3853 49.1884 81.3403L51.8228 81.2209L75.0516 80.1677C76.058 80.1218 78.4196 80.0475 80.1275 79.996C80.2624 79.9924 80.3956 79.9758 80.5278 79.9483C80.66 79.9208 80.7895 79.8813 80.9144 79.8317C81.0402 79.7812 81.1595 79.7197 81.2743 79.648C81.3891 79.5764 81.4965 79.4956 81.5966 79.4047C81.6967 79.3138 81.7885 79.2156 81.8711 79.1091C81.9538 79.0016 82.0272 78.8887 82.0897 78.7693C82.153 78.649 82.2044 78.5251 82.2458 78.3965C82.2871 78.2671 82.3165 78.1358 82.3339 78.0017C83.7828 64.594 85.5476 48.2343 84.499 33.5595L87.6173 33.2382C87.6476 30.4872 86.8377 26.0064 86.8377 26.0064Z" fill="#D3F6F7"/>
<path d="M3.50098 51.3511L66.221 52.24V48.6094H3.50098V51.3511Z" fill="#00CED1"/>
<path d="M4.63965 68.9811L65.6656 70.2188L66.2211 66.2402H4.63965V68.9811Z" fill="#00CED1"/>
<path d="M33.0491 1.84282C32.1787 1.50032 31.4166 0.881452 30.502 0.684956C29.5407 0.478359 28.549 0.766676 27.6179 1.08254C24.4951 2.14123 17.4203 5.51565 17.4203 5.51565C14.112 6.87735 11.4492 9.77613 10.1224 13.1019C9.45671 14.7868 8.7001 16.4304 7.85352 18.0326C10.4686 18.9509 13.1617 19.409 15.9328 19.4063C16.5939 19.4063 17.2541 19.3797 17.9134 19.3255C18.5718 19.2713 19.2274 19.1914 19.8802 19.084C20.5321 18.9766 21.1795 18.8434 21.8213 18.6837C22.4622 18.5239 23.0967 18.3384 23.7229 18.1263C24.35 17.9151 24.9661 17.6782 25.574 17.4165C26.1809 17.1548 26.7769 16.8693 27.3608 16.5589C27.9448 16.2486 28.515 15.9153 29.0724 15.559C29.6288 15.2027 30.1705 14.8235 30.6967 14.4232C31.2228 14.0228 31.7324 13.6014 32.2246 13.1588C32.7158 12.7171 33.1896 12.2553 33.6441 11.7751C34.0986 11.2939 34.533 10.7953 34.9461 10.2793C35.3603 9.76327 35.7532 9.23163 36.1233 8.68346C36.4942 8.13529 36.8422 7.57335 37.1673 6.99763C37.4923 6.421 37.7935 5.83243 38.0708 5.23192C38.3481 4.63049 38.6006 4.01989 38.8283 3.39826C39.056 2.77755 39.258 2.14766 39.4353 1.50951C37.3069 1.57653 35.1785 1.68764 33.0491 1.84282Z" fill="#D4D0FF"/>
<path d="M72.7023 76.652C72.5196 77.5362 72.3368 78.4204 72.1532 79.3047C72.0843 79.6371 72.0164 79.9713 71.9576 80.3073L75.0501 80.1678C76.0565 80.1219 78.4191 80.0475 80.126 79.9961C80.2619 79.9924 80.395 79.9759 80.5273 79.9483C80.6595 79.9208 80.788 79.8813 80.9138 79.8317C81.0387 79.7812 81.159 79.7197 81.2738 79.6481C81.3876 79.5765 81.495 79.4957 81.5961 79.4047C81.6961 79.3138 81.787 79.2156 81.8706 79.1091C81.9532 79.0017 82.0258 78.8887 82.0891 78.7693C82.1516 78.6491 82.2039 78.5251 82.2443 78.3966C82.2856 78.2671 82.315 78.1358 82.3334 78.0017C83.7226 65.1413 85.402 49.5658 84.6105 35.3657C76.7277 34.3639 68.7292 34.2996 60.7711 34.2409L7.78869 33.8543C6.40679 33.8249 5.02948 33.8929 3.65676 34.0582C3.54198 35.7697 3.46302 37.5014 3.41895 39.2525L17.4234 41.8648C17.7834 41.9318 18.1654 42.0107 18.4252 42.2678C18.7117 42.5534 18.7778 42.9868 18.8292 43.3881C20.4278 55.8592 22.3074 68.2898 24.4698 80.6801L24.9592 80.7022C25.8774 77.9485 25.6827 74.9046 25.5441 71.9764C25.0987 62.563 25.4752 53.1826 26.6735 43.8343C26.7203 43.4707 26.7809 43.0814 27.0362 42.8188C27.352 42.4946 27.8561 42.4708 28.3088 42.4689L35.2908 42.4322C36.6544 42.4258 38.1547 42.468 39.1712 43.377C39.8286 43.9638 40.173 44.826 40.7698 45.4742C42.1095 46.9259 44.3407 46.9865 46.3139 46.9434C48.8078 46.8901 51.6157 46.6954 53.2436 44.8039C53.8643 44.0841 54.2592 43.1622 55.0084 42.5773C55.9808 41.8198 57.3177 41.7968 58.55 41.8179C62.939 41.8941 67.3234 42.1044 71.7024 42.4478C72.0944 42.479 72.5177 42.524 72.807 42.7912C73.1715 43.1291 73.1899 43.6892 73.1825 44.186C73.0228 55.008 72.863 65.83 72.7023 76.652Z" fill="#00CED1"/>
<path d="M78.067 13.1021C78.067 13.1021 82.2972 21.2383 62.2573 21.2383C52.3315 21.2383 42.4011 21.9196 32.49 21.3742C31.052 21.2943 29.492 21.1465 28.4352 20.1677C27.1708 18.997 27.0606 17.0522 27.191 15.3342C27.3709 12.9937 27.8255 10.7074 28.5554 8.47706C29.2845 6.24581 30.2679 4.13302 31.5047 2.13867L28.7244 4.04763C23.3097 9.09409 20.3503 16.2827 18.7325 23.51C18.2072 25.8532 17.8198 28.3755 18.726 30.6003C19.6332 32.8242 22.3006 34.489 24.4823 33.4881C24.7623 33.3743 25.0084 33.2099 25.2214 32.996C25.4344 32.7811 25.5979 32.5341 25.7099 32.2531C25.8082 31.8913 25.8467 31.5222 25.8256 31.1485C25.8284 29.8355 25.9174 28.5298 26.0937 27.2296C26.1259 26.8063 26.2397 26.406 26.4344 26.0295C27.0055 25.0727 28.3167 24.9488 29.4314 24.9323L40.3048 24.7771C40.7446 24.7376 41.1716 24.7964 41.5848 24.9534C42.8749 25.5612 42.57 27.4996 41.8612 28.7382C41.1523 29.9769 40.2158 31.4405 40.8815 32.703C41.4755 33.8288 42.9759 34.0225 44.2476 34.0785L51.3307 34.388C52.2085 34.4265 53.2699 34.3678 53.6978 33.6011C53.9007 33.2365 53.8998 32.7967 53.8805 32.3808C53.7602 29.8538 53.1744 27.439 52.1231 25.1379L61.1784 24.6908C62.2142 24.6393 63.3243 24.6063 64.203 25.1591C65.7281 26.1167 65.8135 28.2672 65.7511 30.0687C65.6933 31.749 65.9522 33.8747 67.5526 34.3834C68.199 34.589 68.8978 34.4486 69.5635 34.3163C74.2234 33.3972 78.9274 33.0217 83.6736 33.1897C84.9848 33.2365 86.3327 33.3192 87.6173 33.1245C87.6256 30.3653 86.8377 26.0066 86.8377 26.0066C86.8377 26.0066 82.3523 23.8405 78.067 13.1021Z" fill="#00CED1"/>
<path d="M31.0218 0.644932C22.8204 0.954368 20.2218 5.55826 18.4277 9.2972C16.6335 13.0352 15.7869 17.1433 14.7723 21.165C14.5482 22.1833 14.2214 23.1686 13.7916 24.1189C13.3867 24.9425 12.8413 25.6918 12.4602 26.5264C10.9406 29.8568 12.294 33.7133 12.4097 37.3732C12.4639 39.0756 12.9386 67.0699 14.8099 79.2086C14.8935 79.7522 14.989 80.3178 15.3159 80.7604C15.9072 81.5601 17.0292 81.6933 18.0218 81.7585L20.9665 81.9522C21.9288 82.0156 23.116 81.9577 23.5485 81.0955C23.7569 80.6805 23.7165 80.1902 23.6706 79.7283C22.5724 68.5418 21.0501 38.8828 21.2851 36.4624C21.4118 35.1631 21.7819 33.9015 22.0169 32.6178C22.4108 30.4802 22.4301 28.2922 22.5339 26.1197C22.735 21.9464 23.2593 17.7594 24.5604 13.79C25.8615 9.81966 27.9733 6.0596 31.0236 3.20857C31.4561 2.80456 31.9437 2.33443 31.917 1.74219C31.8941 1.2436 31.5195 0.626568 31.0218 0.644932Z" fill="#D4D0FF"/>
<path d="M31.022 0.644932C22.8205 0.954368 20.222 5.55826 18.4278 9.2972C16.9091 12.4595 16.0699 15.8863 15.2334 19.302L15.2811 19.4076C18.045 19.4966 20.7509 19.1422 23.3981 18.3443C23.6883 16.8008 24.0757 15.283 24.5605 13.7891C25.8616 9.81874 27.9726 6.0596 31.0238 3.20765C31.4554 2.80364 31.9439 2.33443 31.9172 1.74219C31.8943 1.2436 31.5196 0.626568 31.022 0.644932Z" fill="white"/>
<path d="M56.4743 0.657627C64.6757 0.967063 67.2742 5.57096 69.0684 9.30898C70.8626 13.0479 71.7092 17.156 72.7238 21.1777C72.9479 22.196 73.2747 23.1813 73.7045 24.1316C74.1094 24.9552 74.6548 25.7045 75.0359 26.5391C76.5564 29.8686 75.2021 33.726 75.0864 37.385C75.0322 39.0883 74.5575 67.0817 72.6862 79.2213C72.6026 79.7649 72.5071 80.3305 72.1811 80.7731C71.5898 81.5728 70.4669 81.706 69.4743 81.7702L66.5296 81.964C65.5673 82.0273 64.3801 81.9695 63.9476 81.1073C63.7401 80.6923 63.7805 80.201 63.8255 79.7392C64.9236 68.5536 66.4469 38.8945 66.211 36.4741C66.0852 35.1749 65.7142 33.9133 65.4792 32.6296C65.0862 30.4911 65.066 28.3039 64.9622 26.1315C64.7611 21.9573 64.2368 17.7712 62.9357 13.8008C61.6346 9.83052 59.5227 6.07138 56.4725 3.21943C56.0409 2.81541 55.5524 2.34621 55.5781 1.75397C55.6011 1.2563 55.9757 0.639263 56.4743 0.657627Z" fill="#D4D0FF"/>
<path d="M50.9847 30.3532C50.7 29.4873 50.162 28.7317 49.578 28.0329C49.241 27.6225 48.8655 27.2506 48.4532 26.9164C48.0409 26.5821 47.5992 26.2929 47.1282 26.0487C46.6572 25.8035 46.1659 25.6088 45.6554 25.4638C45.1449 25.3187 44.6252 25.2259 44.0963 25.1855C43.8759 25.1874 43.6565 25.1984 43.4379 25.2195C43.2185 25.2406 43.0009 25.2709 42.7851 25.3113C42.5684 25.3517 42.3544 25.4022 42.1433 25.4619C41.9312 25.5216 41.7227 25.5905 41.517 25.6685C41.3114 25.7466 41.1094 25.8338 40.9119 25.9302C40.7136 26.0257 40.5208 26.1313 40.3326 26.2442C40.1434 26.3581 39.9607 26.4793 39.7825 26.6088C39.6053 26.7392 39.4336 26.876 39.2684 27.021C39.1031 27.1661 38.9442 27.3185 38.7918 27.4783C38.6403 27.6372 38.4961 27.8034 38.3584 27.9751C38.2216 28.1468 38.0921 28.3249 37.9709 28.5085C37.8497 28.6922 37.7368 28.8813 37.6321 29.0751C37.5274 29.2688 37.4319 29.4671 37.3456 29.6692C37.2584 29.8712 37.1803 30.0768 37.1124 30.2862C37.0435 30.4955 36.9848 30.7076 36.9352 30.9216C36.8856 31.1364 36.8452 31.3531 36.8149 31.5708C36.6542 32.7231 36.7672 33.8966 36.9352 35.0471C37.1051 36.2114 37.3309 37.3656 37.6137 38.5097C37.9379 39.819 38.4309 41.2358 39.6053 41.8969C40.4538 42.3744 41.484 42.3514 42.4573 42.3147L45.7114 42.1926C46.7067 42.1559 47.7544 42.1026 48.5964 41.571C49.4017 41.0623 49.8994 40.1854 50.2437 39.2975C50.8984 37.6107 51.1105 35.7863 51.2363 33.9811C51.3207 32.7644 51.3657 31.512 50.9847 30.3532Z" fill="#D4D0FF"/>
<path d="M23.5476 81.0945C23.7551 80.6794 23.7147 80.1891 23.6688 79.7273C23.5137 78.1424 23.3493 76.1866 23.1831 73.9912C23.1574 74.0178 23.1335 74.0463 23.1069 74.072C20.9721 76.2004 17.0807 75.509 14.4629 76.6549C14.5722 77.5649 14.6879 78.4197 14.8081 79.2075C14.8917 79.7502 14.9872 80.3167 15.3141 80.7584C15.9054 81.5591 17.0274 81.6922 18.02 81.7574L20.9647 81.9512C21.927 82.0145 23.1152 81.9576 23.5476 81.0945Z" fill="#8DA8C6"/>
<path d="M21.548 46.1317C21.3203 41.0347 21.2065 37.2618 21.2836 36.462C21.3065 36.2224 21.3405 35.9855 21.3782 35.7477C20.6197 35.6072 19.8558 35.5273 19.0845 35.5099C18.3141 35.4915 17.5474 35.5365 16.7834 35.643C16.0204 35.7495 15.2702 35.9157 14.5338 36.1434C13.7965 36.3721 13.0831 36.6567 12.3926 37.0001C12.3999 37.1241 12.4054 37.2489 12.4091 37.3729C12.4201 37.7099 12.4468 39.0798 12.4982 41.1504C15.3272 41.8629 18.2186 42.7178 20.3231 44.714C20.7767 45.1464 21.1853 45.6193 21.548 46.1317Z" fill="#8DA8C6"/>
<path d="M72.1811 80.7727C72.5079 80.3301 72.6034 79.7645 72.687 79.2209C72.9257 77.6738 73.1406 75.8676 73.3362 73.8926C70.6183 75.1606 67.1392 74.9173 64.166 75.8796C64.0494 77.3193 63.9356 78.6232 63.8263 79.7397C63.7813 80.2016 63.7409 80.6928 63.9484 81.1079C64.3809 81.97 65.5681 82.0279 66.5304 81.9645L69.4751 81.7708C70.4677 81.7056 71.5907 81.5725 72.1811 80.7727Z" fill="#8DA8C6"/>
<path d="M70.5083 34.9758C68.9658 35.2752 67.5379 35.8573 66.2267 36.7232C66.2561 37.5009 66.2148 39.3584 66.1221 41.912L66.1964 41.9404C69.6416 41.855 72.7524 43.8733 74.8441 46.6857C75.0002 41.6319 75.0672 37.9673 75.0865 37.3843C75.1141 36.512 75.2123 35.6268 75.3253 34.7417C73.7074 34.5746 72.1024 34.6526 70.5083 34.9758Z" fill="#8DA8C6"/>
<path d="M31.0219 0.644932C28.1424 0.75328 25.9562 1.39327 24.2492 2.33719C24.4604 2.54103 24.6477 2.76507 24.8121 3.0084C24.9765 3.25172 25.1151 3.50974 25.2262 3.78153C25.3373 4.05332 25.42 4.33429 25.4732 4.62352C25.5265 4.91184 25.5494 5.20383 25.543 5.49766C25.4714 7.44885 24.3723 9.1861 23.4706 10.9178C21.782 14.1591 19.7858 17.9403 19.5095 24.4935C19.1936 32.0072 12.6679 33.2248 12.2152 27.1343C11.387 29.4959 11.8332 32.0945 12.1647 34.681L13.2151 34.3275L21.6066 34.5452C21.7453 33.9033 21.8977 33.2624 22.0162 32.6178C22.4091 30.4793 22.4284 28.2922 22.5331 26.1197C22.7333 21.9455 23.2585 17.7594 24.5596 13.7891C25.8607 9.81966 27.9716 6.0596 31.0229 3.20765C31.4544 2.80364 31.9429 2.33443 31.9163 1.74219C31.8942 1.2436 31.5196 0.626568 31.0219 0.644932Z" fill="#8DA8C6"/>
<path d="M75.3472 34.5652C75.7053 31.7959 76.169 29.0211 75.0359 26.5383C74.6549 25.7036 74.1094 24.9544 73.7045 24.1307C73.2748 23.1804 72.9479 22.1961 72.7239 21.1769C71.7093 17.156 70.8636 13.047 69.0685 9.30902C67.2734 5.571 64.6758 0.966185 56.4744 0.657667C55.9758 0.638385 55.6011 1.25634 55.5791 1.75492C55.5534 2.34533 56.041 2.81637 56.4744 3.2213C56.8774 3.59777 57.264 3.98984 57.634 4.39753C59.4475 4.56097 61.3087 4.55638 62.9688 5.27074C66.335 6.72059 67.8491 10.6019 68.7636 14.1535C69.4762 16.9136 70.4522 20.9923 72.1344 25.2252C74.5731 31.3589 68.1953 32.6003 65.6674 29.5757C65.7336 30.7987 65.8603 34.3568 66.0255 35.2236L75.0855 34.5845L75.3472 34.5652Z" fill="#8DA8C6"/>
<path d="M50.9851 30.3531C50.7005 29.4872 50.1624 28.7315 49.5785 28.0328C49.0046 27.3423 48.3334 26.7647 47.5657 26.3001C46.7981 25.8355 45.9754 25.5095 45.0976 25.3213C47.1076 27.4717 47.8816 30.7259 47.8825 33.7477C47.8844 35.8357 47.3564 38.2735 45.4621 39.1458C44.1188 39.7647 42.5588 39.3644 41.0814 39.2927C40.5561 39.2514 40.0355 39.279 39.5177 39.3745C38.9998 39.4709 38.503 39.6316 38.0283 39.8583C38.3561 40.7003 38.8327 41.4625 39.6049 41.8968C40.4542 42.3742 41.4845 42.3513 42.4578 42.3155L45.7119 42.1933C46.7072 42.1557 47.754 42.1034 48.5969 41.5717C49.4012 41.0621 49.8998 40.1852 50.2442 39.2973C50.8988 37.6106 51.11 35.787 51.2358 33.9818C51.3212 32.7643 51.3662 31.5118 50.9851 30.3531Z" fill="#8DA8C6"/>
<path d="M43.7743 27.5652C43.7752 26.7636 43.6448 25.9841 43.385 25.2266C42.9764 25.2679 42.5742 25.3441 42.1775 25.4534C41.7818 25.5617 41.3971 25.7031 41.0243 25.8767C40.6515 26.0502 40.2961 26.2531 39.9573 26.4854C39.6185 26.7177 39.3008 26.9767 39.0051 27.2622C38.7095 27.5478 38.4395 27.8563 38.1953 28.1869C37.951 28.5174 37.7352 28.8663 37.5488 29.2327C37.3625 29.5991 37.2073 29.9783 37.0842 30.3713C36.9612 30.7634 36.8712 31.1628 36.8143 31.5705C36.6949 32.6411 36.7215 33.7071 36.896 34.7704C37.1246 34.7594 37.3524 34.7383 37.5791 34.7061C37.8069 34.674 38.0309 34.6308 38.254 34.5776C38.4772 34.5243 38.6966 34.4601 38.9133 34.3857C39.13 34.3104 39.343 34.2259 39.5515 34.1313C39.7599 34.0358 39.9637 33.9312 40.1621 33.8173C40.3604 33.7025 40.5532 33.5786 40.7405 33.4464C40.9269 33.3132 41.1069 33.1718 41.2804 33.0221C41.454 32.8725 41.6202 32.7145 41.7781 32.5483C41.937 32.3822 42.0866 32.2095 42.228 32.0296C42.3704 31.8487 42.5035 31.6623 42.6275 31.4695C42.7514 31.2766 42.8662 31.0783 42.9709 30.8745C43.0765 30.6706 43.172 30.4622 43.2564 30.2501C43.3418 30.0371 43.4171 29.8204 43.4814 29.6C43.5466 29.3805 43.6008 29.1574 43.6439 28.9324C43.6871 28.7066 43.7201 28.4798 43.7422 28.2521C43.7633 28.0234 43.7743 27.7948 43.7743 27.5652Z" fill="white"/>
<path d="M17.5323 29.3415C16.8142 28.6005 15.6306 29.7308 16.3762 30.4654C17.1044 31.2192 18.2833 30.0834 17.5323 29.3415Z" fill="#3A3245"/>
<path d="M20.9896 12.8208C20.2468 12.055 19.0898 13.2138 19.8547 13.9575C20.5792 14.7049 21.737 13.5462 20.9896 12.8208Z" fill="#3A3245"/>
<path d="M24.3552 5.78899C25.0751 6.52172 26.2018 5.38774 25.4718 4.67062C24.7528 3.93789 23.6262 5.07279 24.3552 5.78899Z" fill="#3A3245"/>
<path d="M16.8601 49.5658C17.6387 48.8597 16.5212 47.6817 15.7738 48.4328C15.0292 49.2114 16.0888 50.4271 16.8601 49.5658Z" fill="#3A3245"/>
<path d="M17.5422 65.2698C16.6479 65.2469 16.4881 66.615 17.3577 66.8032C18.4659 67.0576 18.6845 65.2928 17.5422 65.2698Z" fill="#3A3245"/>
<path d="M87.762 26.6581C87.9098 25.8987 87.2716 25.4818 86.65 25.0328C78.5588 17.7386 79.7579 5.82485 65.9821 2.92515C63.5911 0.920704 60.2874 -0.0177043 57.1627 0.0300425C55.8735 -0.0874881 55.1068 0.101663 54.4779 1.28707C47.4894 0.864693 40.5 0.864693 33.5115 1.28707C33.0331 0.55893 32.6071 -0.0406594 31.6283 0.0484066C28.207 -0.137989 24.6517 0.736144 21.9687 2.9224C13.7443 4.45672 9.86584 10.9108 6.51713 17.9075C5.35193 20.2049 4.09674 22.5436 2.19238 24.3203C1.48444 24.9759 0.228331 25.3643 0.197112 26.468C0.027244 28.8214 -0.0829409 31.0618 0.0795818 33.4032C0.227413 34.6924 2.13637 33.9872 3.02336 34.158C2.39622 47.1313 3.18771 60.1607 4.48973 73.0679C4.61736 74.2405 4.75326 75.4121 4.89742 76.5819C5.01036 77.4891 4.99107 78.5763 5.45936 79.3898C6.03599 80.3916 7.03684 80.7129 8.11849 80.7616C10.2542 80.8562 12.39 80.9232 14.5257 81.0058C15.4054 82.4226 17.6155 82.1619 19.1012 82.2362C20.7227 82.1251 23.7748 83.0709 24.8244 81.6761C37.5076 82.0471 50.2413 81.8249 62.9144 81.3254C63.5351 82.7165 65.7158 82.396 67.1179 82.3253L70.4969 82.1564C71.5648 82.1674 72.8916 82.0609 73.4389 81.0068C75.3772 80.9315 77.3164 80.8571 79.2566 80.7855C80.9048 80.9214 82.71 80.1519 82.8771 78.3118C84.7236 63.6903 85.5583 48.8906 84.9725 34.1589C85.8493 33.9991 87.7868 34.674 87.9171 33.4041C88.0659 31.1508 88.0145 28.9022 87.762 26.6581ZM84.9229 25.5323C82.8147 25.3404 80.7019 25.1797 78.5918 25.0108C77.7443 24.9428 77.748 26.2687 78.5918 26.3339C81.1527 26.5313 83.7127 26.7609 86.2754 26.9344C86.4719 28.8351 86.5288 30.7395 86.4453 32.6475L76.9675 32.6484C76.9207 30.6826 77.0538 28.6478 76.7077 26.7067C76.4891 25.8271 75.7463 25.1871 75.2835 24.4397C73.6317 21.6584 73.1992 18.3749 72.4582 15.275C74.5058 15.3008 76.5488 15.3972 78.5909 15.5459C80.4273 19.0672 81.9965 22.8677 84.9229 25.5323ZM83.4234 57.2334C83.271 60.1772 83.0754 63.1182 82.8358 66.0565C80.3327 66.0464 77.8297 66.0436 75.3258 66.0473C75.7683 60.6721 76.0631 55.3034 76.2458 49.9071C78.7332 49.9199 81.2207 49.9218 83.7081 49.9016C83.6429 52.3458 83.5483 54.7892 83.4234 57.2325V57.2334ZM4.19682 46.1112C4.14816 42.8736 4.16561 39.6378 4.24824 36.4021C6.74669 36.493 9.24605 36.56 11.7463 36.6041C11.5985 40.5964 11.6159 44.6017 11.7243 48.5995C9.23227 48.5995 6.73934 48.6032 4.24733 48.6087C4.22804 47.7768 4.20876 46.944 4.19682 46.1112ZM23.1505 25.7959C29.0178 25.503 34.8861 25.3009 40.7617 25.2238C40.4063 25.3863 40.0648 25.5718 39.736 25.783C39.4073 25.9933 39.0951 26.2256 38.7995 26.4799C38.5029 26.7352 38.2274 27.0088 37.9703 27.3026C37.7132 27.5965 37.4782 27.9068 37.2651 28.2346C37.0521 28.5615 36.863 28.9022 36.6986 29.2566C36.5343 29.6101 36.3947 29.9737 36.2817 30.3474C36.1679 30.7211 36.0816 31.1013 36.0228 31.4869C35.9631 31.8735 35.931 32.261 35.9264 32.6521C31.6264 32.6521 27.3265 32.6512 23.0265 32.6503C23.0274 30.3529 23.0394 28.0693 23.1514 25.7959H23.1505ZM39.3293 27.9683C41.3778 25.8372 46.4197 25.6811 48.5591 27.8664C51.6507 30.8341 50.6113 35.5188 49.6297 39.2228C48.4452 41.5798 45.675 41.994 43.2179 41.7938C40.7865 41.7341 38.8711 41.1364 38.1769 38.5571C37.3276 35.0578 36.5104 30.768 39.3293 27.9683ZM64.9326 25.8014C65.0418 28.0831 64.984 30.3676 64.9702 32.6512L52.0676 32.653C52.063 32.2619 52.0308 31.8735 51.9721 31.4878C51.9124 31.1022 51.8261 30.722 51.7131 30.3483C51.5993 29.9746 51.4606 29.6101 51.2954 29.2566C51.131 28.9022 50.9418 28.5615 50.7288 28.2346C50.5158 27.9077 50.2807 27.5965 50.0236 27.3026C49.7675 27.0088 49.4911 26.7343 49.1945 26.4799C48.8988 26.2256 48.5866 25.9933 48.2579 25.7821C47.9292 25.5718 47.5876 25.3863 47.2323 25.2238C53.1364 25.3028 59.0358 25.4947 64.9326 25.8005V25.8014ZM22.8015 36.6766C27.2071 36.6619 31.6108 36.6078 36.0127 36.515C36.3139 39.0162 36.4764 41.8223 38.098 43.8037C40.1042 46.2544 47.3535 45.709 49.3387 44.3804C51.2247 42.5256 51.3394 39.0226 51.9803 36.5159C56.3804 36.6041 60.7832 36.6573 65.1897 36.6775C65.3026 40.5221 65.2962 44.3712 65.2071 48.2176C51.0704 48.4995 36.9254 48.4058 22.7859 48.538C22.6904 44.5833 22.6831 40.6277 22.8015 36.6766ZM63.2247 18.8C63.3174 20.6163 63.6801 24.0044 61.3617 24.2937C55.5779 24.0182 49.7849 23.8226 43.9965 23.9273C38.086 23.8208 32.17 24.0265 26.2641 24.3102C25.8601 24.212 25.4983 24.0301 25.1779 23.7639C23.7629 22.3131 25.2311 16.1528 25.7839 14.2219C38.0126 13.7462 50.2752 13.895 62.4966 14.5047C62.8905 15.9104 63.1338 17.3419 63.2247 18.8ZM4.27946 49.9006C6.77331 49.9218 9.26808 49.919 11.7638 49.9062C11.9391 55.297 12.2238 60.674 12.67 66.0473C10.1643 66.0473 7.65847 66.0501 5.15268 66.0556C4.71377 60.6804 4.4227 55.2951 4.27946 49.9006ZM23.2056 58.7044C23.0384 55.7505 22.9108 52.793 22.8199 49.8318C36.9383 49.6867 51.0585 49.7051 65.1759 49.4902C65.0244 54.8883 64.737 60.2801 64.3146 65.6644C50.7821 65.9344 37.2413 65.8563 23.7069 65.9775C23.5104 63.5553 23.3433 61.1312 23.2056 58.7044ZM76.2835 48.5995C76.3918 44.5998 76.4019 40.5946 76.2504 36.6041C78.7488 36.5591 81.2473 36.4921 83.7439 36.4021C83.8366 40.4716 83.8357 44.5401 83.7421 48.6087C81.2555 48.5986 78.77 48.5959 76.2835 48.5995ZM77.4964 13.5699C77.6295 13.794 77.7608 14.0217 77.8894 14.2512C75.9887 14.0575 74.0614 14.0217 72.1561 13.9905C71.4179 10.8282 70.17 7.62545 68.1298 5.09671C72.3673 6.35925 75.3763 9.8466 77.4964 13.5699ZM67.7056 6.77336C71.4794 12.1339 70.8614 19.216 74.0311 24.7996C71.9633 24.4553 69.8836 24.3662 67.7937 24.5333C67.2676 24.5884 67.0444 25.4176 67.6578 25.5397C68.7633 25.7601 69.8927 25.7867 71.0148 25.8399C71.967 25.884 73.3406 25.7132 74.2056 26.2063C75.1761 26.7581 75.2652 28.399 75.3799 29.3879C75.5048 30.4466 75.8813 32.159 74.6628 32.6494H68.1711C67.645 32.5181 67.0931 32.4455 66.7763 31.913C66.2594 31.0801 66.5789 29.825 66.4118 28.9233C66.1538 19.5934 64.7866 8.57947 56.9488 2.40912C56.9185 2.32097 56.9029 2.23099 56.9029 2.13733C56.9019 2.04459 56.9166 1.95369 56.9469 1.86554C56.9763 1.77831 57.0195 1.69659 57.0764 1.62313C57.1333 1.54968 57.2004 1.48724 57.2784 1.43582C61.4544 1.51754 65.2539 3.16388 67.7056 6.77336ZM43.9965 2.23466C47.4674 2.27322 50.9382 2.37331 54.3998 2.62673C58.6539 5.2372 60.8879 8.43623 62.144 13.2632C50.1807 12.5764 38.2017 12.4607 26.2081 12.9152C27.5468 9.42422 29.8497 4.19136 33.428 2.63867C36.9447 2.37514 40.4706 2.27322 43.9965 2.23466ZM30.7046 1.42847C30.7799 1.47438 30.846 1.53131 30.902 1.59926C30.9589 1.66629 31.003 1.74158 31.0351 1.82422C31.0672 1.90686 31.0847 1.99225 31.0884 2.0804C31.092 2.16855 31.0819 2.25578 31.0571 2.34025C23.2616 8.60977 21.6676 19.6191 21.55 29.0298C21.4747 29.8993 21.6923 31.1233 21.2186 31.9139C20.9027 32.4428 20.349 32.5171 19.822 32.6503H13.3321C12.1549 32.1756 12.4827 30.6018 12.5947 29.5752C12.7022 28.5578 12.7802 26.782 13.7893 26.2063C14.6075 25.7399 15.8737 25.8923 16.779 25.85C17.9681 25.7949 19.1673 25.7738 20.338 25.5406C20.9458 25.4194 20.7337 24.5903 20.2021 24.5352C18.1499 24.3736 16.1078 24.4544 14.0749 24.7748C16.0463 21.2122 16.3557 17.0343 17.4612 13.1733C19.0259 6.74398 23.6243 1.18882 30.7046 1.42847ZM15.5651 7.34081C16.8497 6.36935 18.2573 5.63019 19.7871 5.12426C18.0002 7.38121 16.9718 10.0119 16.2006 12.7509C14.3944 12.8363 12.5764 12.9198 10.7758 13.1081C12.0723 10.9852 13.6103 8.88615 15.5651 7.34081ZM10.0082 14.4193C11.9557 14.2696 13.9032 14.1355 15.8544 14.0456C15.006 17.1932 14.6056 20.4464 13.2687 23.4195C12.8013 24.3965 12.0365 25.1531 11.5315 26.0888C11.0522 26.9758 11.1348 28.1492 11.0889 29.128C11.0347 30.3006 11.0145 31.4741 11.0265 32.6484L1.54871 32.6475C1.46516 30.7395 1.52209 28.8351 1.71858 26.9344C4.2813 26.7609 6.84034 26.5313 9.40122 26.3339C10.2451 26.2697 10.2506 24.9428 9.40122 25.0108C7.2921 25.1797 5.17931 25.3404 3.0711 25.5323C6.31329 22.5803 7.88894 18.2363 10.0091 14.4193H10.0082ZM6.586 78.7287C6.14342 77.9666 6.20586 76.5773 6.10394 75.7096C5.77522 72.9284 5.5016 70.1407 5.26378 67.3503C7.76865 67.3686 10.2735 67.3695 12.7793 67.3521C13.12 71.4868 13.6195 75.5774 14.1061 79.6992C12.446 79.634 10.7868 79.5679 9.1276 79.5C8.25163 79.4642 7.10111 79.6166 6.586 78.7287ZM17.6541 80.8791C15.0399 81.1105 15.3485 79.4807 15.152 77.4946C15.0298 76.5213 14.9141 75.5462 14.804 74.571C13.4551 62.4039 12.8748 50.2009 13.063 37.9612C15.3025 38.6241 17.4401 39.6039 19.6548 40.3348C19.7421 53.5303 20.6483 66.7075 22.6381 79.7488C22.5894 80.2832 22.2956 80.8929 21.7741 81.1133C20.3986 80.9976 19.0295 80.9581 17.6541 80.8791ZM58.0892 80.2217C47.1487 80.4356 36.2019 80.5513 25.2605 80.353C24.772 75.9346 24.1183 71.6925 23.8143 67.2704C37.278 67.1382 50.7454 67.1446 64.209 66.9398C63.9207 71.3334 63.221 75.6977 62.7592 80.0702C61.1991 80.1391 59.6492 80.1896 58.0892 80.2217ZM72.4756 80.1106C72.2672 80.6542 71.8393 80.7772 71.3352 80.8277C69.6209 80.9553 67.8975 80.9829 66.1813 81.0921C65.6809 80.8608 65.4054 80.2685 65.3568 79.7479C67.3465 66.7066 68.2528 53.5303 68.34 40.3348C70.5557 39.6029 72.6942 38.6223 74.9355 37.9603C75.1412 52.0245 74.4627 66.2062 72.4756 80.1106ZM81.722 77.1016C81.644 78.4964 81.2179 79.6331 79.5964 79.4688C77.6938 79.545 75.7904 79.6221 73.8869 79.6983C74.3791 75.5655 74.8685 71.4932 75.2147 67.3512C77.7205 67.365 80.2262 67.364 82.732 67.3493C82.4547 70.6071 82.1242 73.8585 81.722 77.1025V77.1016Z" fill="#3A3245"/>
<path d="M70.4622 30.4745C71.4897 31.3854 72.5585 29.4939 71.2151 29.133L71.2546 29.1385C70.4907 28.886 69.8746 29.9245 70.4622 30.4745ZM71.0361 29.1128C71.0618 29.1119 71.0866 29.1146 71.1114 29.1192C71.0866 29.1156 71.0618 29.1128 71.0361 29.1128Z" fill="#3A3245"/>
<path d="M67.525 14.7366C68.2522 15.4905 69.4156 14.3115 68.6746 13.5861C67.9501 12.8451 66.773 14.0094 67.525 14.7366Z" fill="#3A3245"/>
<path d="M63.0369 6.38232C63.7558 7.11505 64.8825 5.98107 64.1534 5.26486C63.4345 4.53122 62.3078 5.66612 63.0369 6.38232Z" fill="#3A3245"/>
<path d="M72.4426 48.9015C72.3305 47.863 70.7319 48.0604 70.8899 49.0943C71.0377 50.1667 72.6804 50.0465 72.4426 48.9015Z" fill="#3A3245"/>
<path d="M70.4522 65.2698C69.557 65.2469 69.3972 66.615 70.2668 66.8032C71.3741 67.0576 71.5936 65.2928 70.4522 65.2698Z" fill="#3A3245"/>
<path d="M43.5016 34.4623C43.5347 35.6 43.5062 36.7514 43.6109 37.8854C43.6871 38.7127 44.8817 38.7393 44.9166 37.8854C44.9643 36.7303 44.8808 35.5623 44.8495 34.4072C46.7934 33.3485 45.9734 28.6446 43.3097 30.1018C41.7065 31.0383 41.7864 33.7223 43.5016 34.4623Z" fill="#3A3245"/>
</svg>
