<svg width="215" height="249" viewBox="0 0 215 249" fill="none" xmlns="http://www.w3.org/2000/svg">
<path d="M65.709 29.352V26.632H62.893V21.128H60.077V8.584H64.141V19.496H66.957V25H68.557V19.496H71.373V8.584H75.469V21.128H72.621V26.632H69.805V29.352H65.709ZM79.3582 29.352V25H82.1742V12.968H79.3582V8.584H89.0862V12.968H86.2382V25H89.0862V29.352H79.3582ZM92.9832 29.352V8.584H102.711V11.336H105.527V14.056H108.375V23.88H105.527V26.632H102.711V29.352H92.9832ZM97.0472 25H101.463V22.248H104.279V15.688H101.463V12.968H97.0472V25ZM115.08 29.352V26.632H112.264V11.336H115.08V8.584H124.808V11.336H127.656V15.688H123.56V12.968H116.328V16.808H121.992V21.128H116.328V25H123.56V22.248H127.656V26.632H124.808V29.352H115.08ZM134.362 29.352V26.632H131.546V11.336H134.362V8.584H144.09V11.336H146.938V26.632H144.09V29.352H134.362ZM135.61 25H142.842V12.968H135.61V25Z" fill="#1E1E2F"/>
<mask id="mask0_80_15" style="mask-type:luminance" maskUnits="userSpaceOnUse" x="0" y="44" width="188" height="164">
<path d="M0 44H188V207.497H0V44Z" fill="white"/>
</mask>
<g mask="url(#mask0_80_15)">
<path d="M181.528 77.8065C181.334 77.7581 181.092 77.7097 180.898 77.6129L181.043 65.1654V64.9718L34.7208 44H34.6724L0.0891113 57.0768V172.159L25.6619 178.02L151.741 207.615L179.398 187.854L179.494 187.805L179.688 171.481L181.286 170.077L187.777 164.411V79.5514C187.777 79.5514 184.725 78.6779 181.528 77.8065Z" fill="#00CED1"/>
</g>
<path d="M155.228 127.6L153.389 200.496C153.389 200.496 154.938 200.254 155.277 199.187C155.618 198.122 158.958 190.178 160.267 180.928C161.574 171.675 164.529 164.313 168.985 164.313C171.311 164.313 173.344 166.542 174.845 168.577C176.251 170.465 177.171 172.111 177.413 171.724C177.945 170.901 179.012 104.641 179.012 104.641L177.945 114.378C177.945 114.378 176.396 146.684 174.845 152.204C174.845 152.253 174.796 152.301 174.796 152.398C173.247 157.437 169.711 159.809 165.255 156.37C161.284 153.32 160.364 127.648 160.17 120.044C159.928 103.963 160.122 87.2052 162.3 84.7826C164.045 82.8463 169.469 79.6007 174.845 76.5972C174.942 76.5488 175.041 76.5004 175.089 76.452C175.186 76.4036 175.283 76.3552 175.331 76.3068C177.074 75.3386 178.816 74.4167 180.416 73.5453L180.368 77.4686L179.157 171.772L178.964 187.417L151.598 206.985L150.676 206.791L152.227 78.4852V78.2915L146.22 77.4202C153.486 73.5453 163.997 67.9278 166.901 65.7472C171.505 62.308 153.34 71.2217 145.978 72.2867C138.664 73.4001 26.8255 56.4484 23.3401 53.9774C21.3532 52.5736 29.7806 48.3598 37.5787 44.9207L180.416 65.4083H180.561L180.513 67.4437C173.247 71.5122 158.716 79.6492 157.167 81.4887C156.053 82.7495 155.569 107.645 155.325 127.406L155.228 127.6Z" fill="#1E1E2F"/>
<path d="M166.948 65.795C164.044 67.9756 153.581 73.6415 146.267 77.468L2.12256 56.7867L34.7211 44.4844L37.5772 44.92C29.7791 48.3592 21.3516 52.5729 23.3386 53.9768C26.824 56.4478 138.662 73.3995 146.025 72.3345C153.387 71.2695 171.551 62.3558 166.948 65.795ZM174.843 76.5966C174.942 76.5482 175.039 76.4998 175.087 76.4514C175.184 76.403 175.281 76.3546 175.329 76.3062C177.072 75.338 178.817 74.4161 180.415 73.5447L180.511 67.3947C173.246 71.4632 158.714 79.6001 157.165 81.4397C156.052 82.7005 155.568 107.595 155.324 127.357L155.227 127.551L153.387 200.447C153.387 200.447 154.936 200.205 155.275 199.138C155.616 198.073 158.956 190.129 160.266 180.879C161.573 171.626 164.528 164.264 168.984 164.264C171.309 164.264 173.343 166.493 174.843 168.528C176.249 170.416 177.169 172.062 177.411 171.675C177.943 170.852 179.011 104.592 179.011 104.592L177.943 114.329C177.943 114.329 176.394 146.635 174.843 152.155C174.843 152.204 174.795 152.252 174.795 152.349C173.246 157.388 169.71 159.76 165.254 156.321C161.282 153.271 160.363 127.599 160.169 119.995C159.927 103.914 160.12 87.1562 162.299 84.7336C164.044 82.8457 169.468 79.6001 174.843 76.5966Z" fill="#00CED1"/>
<path d="M117.497 85.653L113.525 85.4594C113.525 85.4594 48.9115 74.6578 46.8783 74.6578C45.2302 74.6578 21.6906 71.2692 10.1145 69.8631C9.77562 73.8832 8.90427 84.9753 8.517 91.0308C8.03292 98.49 7.79088 133.751 7.54884 137.14C7.3046 140.53 7.54884 152.349 7.79088 156.465C7.9361 158.985 8.17814 163.005 8.32337 165.67C8.17814 165.621 8.08133 165.573 8.03292 165.573C4.30329 163.876 6.57847 96.3579 6.57847 96.3579L7.45202 69.5727L7.54884 66.5692C27.504 69.3307 82.1393 77.1288 117.497 82.2138V85.653ZM143.651 78.8737L2.75202 58.3838V60.4675C25.6139 63.4711 104.953 74.7546 141.521 79.9387C143.699 80.2291 145.735 80.5196 147.574 80.81C148.06 80.8584 148.544 80.9552 148.98 81.0036V79.5998L143.651 78.8737ZM104.176 185.576C116.43 187.319 112.41 183.88 113.816 179.279C115.026 175.307 114.639 144.938 114.639 134.235H114.687L114.639 132.635C114.639 131.812 114.639 131.183 114.687 130.844C114.736 130.215 114.687 129.925 114.59 129.779L114.252 112.438C114.252 112.438 114.3 88.8502 112.41 88.1725C110.522 87.4947 60.1488 78.4358 57.2421 77.6613C54.3376 76.8867 53.6093 78.6778 53.6093 78.6778C76.3259 82.8938 100.933 87.5916 100.933 87.5916C100.933 87.5916 109.989 88.1725 111.006 91.3696C111.539 93.1123 112.168 114.135 112.313 134.574C112.313 134.719 112.313 134.864 112.313 135.058C112.458 152.397 112.265 169.206 111.49 173.226C109.747 182.04 109.457 183.783 99.2846 182.282C92.261 181.266 75.6966 177.924 62.0873 174.63C62.0873 174.63 63.7816 176.617 63.9752 177.004C64.1689 177.343 91.9222 183.832 104.176 185.576ZM12.1498 155.352C12.0046 154.965 11.811 154.432 11.7141 153.755H11.6657C11.6657 153.755 7.83929 161.214 10.2597 161.94C12.6823 162.666 40 170.658 40 170.658L41.4522 168.77C29.5856 165.428 15.1027 162.376 12.1498 155.352ZM146.122 169.69C146.122 169.69 145.831 184.705 145.25 193.326C145.057 196.233 144.863 198.46 144.621 199.041C143.651 201.463 132.997 199.041 132.997 199.041L123.212 196.184L119.918 195.456L119.385 195.311L115.897 194.536L9.38835 170.319C7.45202 169.883 5.90076 168.625 5.02941 166.928C4.25488 166.735 3.48035 166.493 2.70361 166.299V170.367L145.686 202.915L146.993 203.206L148.835 89.7215C147.867 92.9671 147.187 96.1158 147.187 96.1158L146.122 169.69ZM126.796 144.55C128.492 143.485 124.618 143.195 123.889 141.162C123.163 139.127 124.714 133.606 126.796 133.267C128.88 132.926 125.925 131.764 124.376 129.003C122.824 126.243 125.828 119.413 123.647 117.233C122.437 116.023 122.727 114.328 123.212 113.019C122.292 112.39 121.566 111.567 120.936 110.647C120.791 124.402 120.597 141.162 120.404 156.32C121.033 156.417 122.292 156.71 123.841 157C123.986 155.643 124.083 154.239 123.986 152.835C123.889 150.412 125.102 145.618 126.796 144.55ZM131.058 155.885C129.606 155.933 129.073 157.145 128.928 158.017C131.397 158.549 134.013 159.082 136.242 159.566C136.968 156.758 138.42 150.848 138.42 148.619C138.372 145.666 135.417 146.295 136.194 147.36C136.968 148.425 136.726 150.993 135.562 153.803C134.4 156.611 133.384 155.788 131.058 155.885ZM140.843 96.7451C140.843 93.2091 140.795 90.254 140.795 88.0272C140.795 87.4947 140.795 87.0107 140.795 86.575C140.795 86.1855 140.795 85.7983 140.795 85.5078C140.698 85.5078 140.601 85.4594 140.504 85.4594C135.611 84.7817 129.025 83.8135 121.324 82.7001C121.324 83.281 121.324 84.346 121.275 85.8467C122.34 85.9435 123.938 86.1371 125.828 86.3307C125.44 87.3011 125.15 88.4145 125.15 88.4145C125.15 88.4145 124.956 94.6152 125.053 94.8088C125.15 95.0024 132.706 95.4381 134.352 94.954C136 94.4699 128.638 94.4699 127.764 94.1289C126.893 93.79 127.764 88.7534 127.764 88.7534C127.716 87.8336 127.619 87.1075 127.522 86.5266C131.542 86.9623 136.194 87.4947 139.098 87.7852C139.147 92.1441 140.311 100.087 139.582 98.5868C138.808 96.9872 137.598 96.4547 137.936 98.5868C137.985 98.8773 139.534 102.752 139.098 106.385C138.663 110.018 137.065 114.328 134.013 115.539C130.961 116.749 127.667 120.382 131.445 119.026C134.207 118.058 138.711 115.926 140.94 114.861C140.892 108.031 140.843 101.782 140.843 96.7451ZM121.082 100.087C121.662 99.2161 122.631 98.1996 123.744 97.8585C125.828 97.2292 131.591 96.9388 128.928 96.5031C126.99 96.1642 123.066 97.2292 121.082 97.8101C121.082 98.49 121.082 99.2646 121.082 100.087ZM140.698 161.02C139.437 160.73 137.84 160.437 136.097 160.05C133.82 159.566 131.252 159.033 128.88 158.549C125.053 157.775 121.662 157.049 120.404 156.807C120.404 157.339 120.404 157.823 120.404 158.356L140.698 162.666C140.649 162.085 140.698 161.553 140.698 161.02ZM119.966 194.198C120.014 188.193 120.208 174.581 120.404 158.84L140.698 163.15C140.456 180.685 139.972 194.536 139.098 195.942C137.501 198.363 127.522 196.233 119.966 194.198ZM137.84 170.997L139.534 171.578L139.34 164.411L137.888 163.731V165.089C137.84 166.686 137.84 170.997 137.84 170.997ZM137.84 179.231L139.534 179.763L139.34 172.645L137.888 171.965V173.323C137.84 174.872 137.84 179.231 137.84 179.231ZM137.84 187.416L139.534 187.951L139.34 180.83L137.888 180.153V181.508C137.84 183.057 137.84 187.416 137.84 187.416ZM137.356 194.585L138.953 195.069L138.759 188.58L137.404 187.951V188.725C137.356 188.87 137.356 189.064 137.356 189.209V194.585ZM135.417 170.61L137.113 171.142L136.92 164.022L135.465 163.344V164.701C135.417 166.251 135.417 170.61 135.417 170.61ZM135.417 178.843L137.113 179.376L136.92 172.258L135.465 171.578V172.935C135.417 174.484 135.417 178.843 135.417 178.843ZM135.417 187.029L137.113 187.561L136.92 180.443L135.465 179.763V181.121C135.417 182.67 135.417 187.029 135.417 187.029ZM134.981 194.198L136.629 194.682L136.436 188.241L135.03 187.61V188.822C134.981 190.274 134.981 194.198 134.981 194.198ZM132.948 169.883L134.594 170.464L134.4 163.295L132.997 162.618V163.441C132.997 163.634 132.997 163.828 132.948 164.022V169.883ZM132.948 178.117L134.594 178.65L134.4 171.529L132.997 170.852V171.674C132.997 171.868 132.997 172.013 132.948 172.209V178.117ZM132.948 186.303L134.594 186.835L134.4 179.715L132.997 179.037V179.86C132.997 180.056 132.997 180.201 132.948 180.395V186.303ZM132.561 193.568L134.207 194.052L134.013 187.561L132.658 186.98V187.706C132.609 187.755 132.609 187.902 132.609 188.193C132.561 189.597 132.561 193.568 132.561 193.568ZM130.622 163.441C130.574 164.992 130.574 169.351 130.574 169.351L132.27 169.883L132.077 162.763L130.671 162.085V162.908C130.622 163.102 130.622 163.247 130.622 163.441ZM130.574 177.536L132.27 178.117L132.077 170.948L130.671 170.271V171.094C130.622 171.287 130.622 171.432 130.622 171.626C130.574 173.226 130.574 177.536 130.574 177.536ZM130.574 185.77L132.27 186.303L132.077 179.182L130.671 178.504V179.327C130.622 179.521 130.622 179.666 130.622 179.86C130.574 181.411 130.574 185.77 130.574 185.77ZM130.332 187.706C130.284 189.112 130.284 193.036 130.284 193.036L131.929 193.568L131.736 187.077L130.38 186.448V187.174C130.332 187.368 130.332 187.513 130.332 187.706ZM128.25 168.867L129.945 169.399L129.751 162.279L128.299 161.601V162.957C128.25 164.556 128.25 168.867 128.25 168.867ZM128.25 177.101L129.945 177.633L129.751 170.513L128.299 169.835V171.19C128.25 172.742 128.25 177.101 128.25 177.101ZM128.25 185.286L129.945 185.818L129.751 178.698L128.299 178.02V179.376C128.25 180.927 128.25 185.286 128.25 185.286ZM128.055 192.648L129.654 193.133L129.461 186.641L128.103 186.012V186.787C128.055 186.932 128.055 187.126 128.055 187.271V192.648ZM125.683 168.334L127.377 168.867L127.183 161.746L125.731 161.069V162.424C125.683 163.973 125.683 168.334 125.683 168.334ZM125.683 176.52L127.377 177.052L127.183 169.932L125.731 169.254V170.61C125.683 172.159 125.683 176.52 125.683 176.52ZM125.683 184.754L127.377 185.286L127.183 178.166L125.731 177.488V178.843C125.683 180.395 125.683 184.754 125.683 184.754ZM125.537 192.116L127.183 192.6L126.99 186.157L125.586 185.528V186.738C125.537 188.193 125.537 192.116 125.537 192.116ZM123.212 167.606L124.86 168.138L124.666 161.02L123.26 160.34V161.165C123.212 161.359 123.212 161.504 123.212 161.698V167.606ZM123.212 175.791L124.86 176.374L124.666 169.254L123.26 168.528V169.351C123.212 169.545 123.212 169.738 123.212 169.932V175.791ZM123.212 184.027L124.86 184.56L124.666 177.439L123.26 176.762V177.585C123.212 177.778 123.212 177.924 123.212 178.117V184.027ZM123.115 191.484L124.763 191.971L124.569 185.48L123.163 184.899V186.109C123.115 187.513 123.115 191.484 123.115 191.484ZM120.936 166.735L122.631 167.267L122.437 160.147L120.985 159.469V160.827C120.936 162.376 120.936 166.735 120.936 166.735ZM120.936 174.92L122.631 175.453L122.437 168.332L120.985 167.654V169.012C120.936 170.561 120.936 174.92 120.936 174.92ZM120.936 183.105L122.631 183.686L122.437 176.52L120.985 175.84V177.197C120.936 178.795 120.936 183.105 120.936 183.105ZM120.936 190.662L122.582 191.146L122.389 184.657L120.985 184.076V185.286C120.936 186.69 120.936 190.662 120.936 190.662ZM130.429 123.046C128.638 123.046 127.086 124.16 126.457 125.711C127.038 124.837 128.055 124.208 129.219 124.208C131.058 124.208 132.561 125.711 132.561 127.55C132.561 129.392 131.058 130.893 129.219 130.893C128.444 130.893 127.716 130.651 127.183 130.167C127.619 130.651 128.151 131.038 128.734 131.328C129.267 131.377 129.848 131.425 130.38 131.28C131.494 131.038 132.416 130.215 132.803 129.148C133.093 128.083 133.19 126.921 132.997 125.808C132.948 125.37 133.481 125.176 134.11 125.079C133.335 123.869 131.978 123.046 130.429 123.046ZM129.219 153.029C128.444 153.029 127.716 152.786 127.183 152.3C127.619 152.786 128.151 153.174 128.783 153.464C129.315 153.513 129.896 153.513 130.429 153.416C131.542 153.174 132.464 152.349 132.851 151.284C133.142 150.219 133.239 149.057 133.045 147.941C132.997 147.506 133.529 147.312 134.158 147.215C133.384 146.005 132.026 145.182 130.477 145.182C128.686 145.182 127.135 146.295 126.505 147.844C127.086 146.973 128.103 146.344 129.267 146.344C131.106 146.344 132.609 147.844 132.609 149.686C132.561 151.526 131.058 153.029 129.219 153.029ZM134.11 135.929C133.335 134.719 131.978 133.896 130.429 133.896C128.638 133.896 127.086 135.01 126.457 136.559C127.038 135.687 128.055 135.058 129.219 135.058C131.058 135.058 132.561 136.559 132.561 138.4C132.561 140.24 131.058 141.743 129.219 141.743C128.444 141.743 127.716 141.501 127.183 141.014C127.619 141.501 128.151 141.888 128.734 142.178C129.267 142.227 129.848 142.275 130.38 142.13C131.494 141.888 132.416 141.063 132.803 139.998C133.093 138.933 133.142 137.771 132.997 136.656C132.948 136.22 133.481 136.026 134.11 135.929ZM120.985 107.934L120.256 107.886C120.404 108.612 120.646 109.289 120.985 109.921C121.033 110.018 121.082 110.115 121.178 110.211C121.614 110.938 122.147 111.615 122.824 112.196C123.018 112.099 123.26 112.099 123.599 112.196C124.618 112.487 125.537 112.535 126.36 112.438C128.396 112.245 129.848 111.228 130.138 110.502C130.477 109.677 125.779 109.628 123.454 109.628C122.921 109.628 122.534 109.628 122.34 109.628C121.711 109.628 121.808 108.757 122.001 107.982L120.985 107.934ZM120.404 104.301C120.452 104.301 120.501 104.301 120.549 104.301C120.646 104.301 120.791 104.301 120.985 104.301C121.178 104.301 121.372 104.301 121.614 104.35C121.856 103.769 122.292 102.849 123.066 102.171C123.308 101.975 123.55 101.782 123.841 101.685C125.489 100.959 126.651 100.184 129.412 101.298C131.348 102.123 133.19 103.139 134.981 104.301C134.062 101.152 131.106 98.8289 127.667 98.8289C127.038 98.8289 126.409 98.9257 125.828 99.0709C123.744 99.6034 122.001 100.959 120.985 102.801C120.791 103.236 120.549 103.769 120.404 104.301ZM119.918 106.191C119.869 106.191 119.772 106.191 119.724 106.191C119.433 106.191 119.143 106.191 118.901 106.143L118.853 107.305L119.724 107.353H120.111L120.936 107.402L122.098 107.45H122.485L132.706 108.031L133.577 107.111C131.687 107.014 129.509 106.869 128.783 106.724C128.541 106.675 128.103 106.627 127.522 106.579C126.215 106.433 124.18 106.337 122.292 106.24C121.856 106.24 121.372 106.191 120.985 106.191C120.694 106.191 120.404 106.143 120.111 106.143C120.063 106.191 120.014 106.191 119.918 106.191ZM42.8098 167.025C41.6458 166.686 40.484 166.347 39.2738 166.009C29.8276 163.392 20.0448 160.681 16.9444 155.594C16.7508 155.255 16.5572 154.916 16.4119 154.578C14.667 150.315 14.4734 129.731 14.7639 110.889C16.5088 111.325 18.1546 110.357 18.3967 105.463C19.026 94.4215 19.7543 87.5432 19.7543 87.5432C19.9479 86.7202 20.7709 81.0036 29.1015 81.8266C32.6859 82.1654 46.8783 84.2976 62.0389 86.9138C82.2845 90.3992 104.224 94.712 104.709 96.7451C105.534 100.281 103.159 112.341 106.163 110.502C106.986 109.969 107.954 107.498 108.876 104.204C109.118 111.809 109.312 122.562 109.409 133.267C109.409 134.477 109.409 135.639 109.409 136.801C109.505 152.786 109.263 167.945 108.583 171.529C106.986 179.908 106.695 181.411 97.4451 180.005C91.0508 179.037 76.3743 176.033 63.9752 173.032C57.8714 171.529 52.3022 170.029 48.4758 168.77C46.7331 168.187 44.7946 167.606 42.8098 167.025ZM43.9716 165.234C50.9952 167.316 58.7449 169.545 65.9622 171.529C77.6352 174.775 87.9989 177.439 91.9222 177.924C102.385 179.279 105.969 177.682 106.889 170.125C107.422 165.573 106.986 151.042 106.405 139.32C106.211 135.784 106.066 132.49 105.873 129.779C105.679 126.534 105.485 124.16 105.34 123.288C105.098 121.836 104.612 124.014 103.982 127.889C103.353 131.764 102.627 137.384 102.046 142.759C101.562 147.07 101.126 151.187 100.882 154.239C100.011 164.944 91.7286 172.742 84.6081 170.948C82.575 170.464 77.1489 169.399 70.3211 167.993C53.0284 164.508 26.8747 158.937 25.2751 155.11C23.0483 149.735 19.7059 133.945 17.719 136.413C17.2349 136.994 16.3151 151.38 19.0766 156.32C19.4639 157.049 19.9479 157.533 20.4804 157.775C22.1747 158.598 32.0082 161.698 43.9716 165.234Z" fill="white"/>
<mask id="mask1_80_15" style="mask-type:luminance" maskUnits="userSpaceOnUse" x="0" y="44" width="188" height="164">
<path d="M0 44H188V207.497H0V44Z" fill="white"/>
</mask>
<g mask="url(#mask1_80_15)">
<path d="M187.777 79.5514V164.36L181.286 170.029V115.926C181.286 115.926 181.673 89.6248 181.528 77.8065C184.725 78.6779 187.777 79.5514 187.777 79.5514ZM34.7208 44L181.043 65.0202V65.2138L180.898 77.6613L179.688 171.432L179.494 187.755L179.398 187.805L151.741 207.567L25.6619 178.02L0.0891113 172.159V57.0768L34.6218 44H34.7208ZM180.414 65.4074L37.5769 44.9198L34.7208 44.4841L2.12226 56.7864L146.267 77.4677L152.274 78.339V78.5327L150.722 206.839L151.644 207.032L179.01 187.464L179.204 171.82L180.414 77.5161L180.463 73.5928L180.559 67.4428L180.608 65.4074H180.414ZM149.028 79.6483L143.65 78.8737L2.75156 58.3838V170.367L145.734 202.915L147.041 203.206L149.028 80.0839V79.6483ZM142.876 83.3295C143.553 84.104 144.088 85.0238 144.379 86.0403C144.524 86.6234 144.621 87.2043 144.621 87.8337L143.505 155.691L142.924 192.503C142.876 196.136 139.923 199.041 136.29 199.041C135.804 199.041 135.32 198.992 134.836 198.847L134.303 198.75L133.432 198.556L123.163 196.233L119.869 195.505L119.336 195.359L115.849 194.585L9.33948 170.367C7.40315 169.932 5.85189 168.673 4.98054 166.977C4.49646 166.057 4.20601 164.992 4.20601 163.925V69.2823C4.20601 68.1689 4.49646 67.1523 4.93213 66.2304C5.3194 65.5043 5.80348 64.875 6.38438 64.3425C6.72324 64.0036 7.15891 63.7132 7.54838 63.4711C8.51654 62.9364 9.62993 62.5976 10.7917 62.5976C11.0822 62.5976 11.4232 62.5976 11.7137 62.646L118.949 78.2906L124.472 79.1158L124.714 79.1642L138.807 81.1973C138.856 81.1973 138.904 81.1973 138.953 81.2457C140.117 81.4394 141.181 81.9719 142.053 82.7002C142.489 82.8938 142.682 83.0874 142.876 83.3295ZM140.746 85.5079C140.649 85.5079 140.552 85.4594 140.455 85.4594C135.562 84.7817 128.976 83.8136 121.275 82.7002C121.275 83.2811 121.275 84.3461 121.226 85.8467C121.178 88.5598 121.129 92.6283 121.081 97.7133C121.081 98.4901 121.081 99.2646 121.033 100.039C121.033 100.717 121.033 101.346 121.033 102.024C122.34 100.088 124.423 98.6837 126.892 98.4417C127.86 98.0038 128.928 97.7617 130.089 97.7617C134.4 97.7617 137.888 101.249 137.888 105.56C137.888 109.193 135.368 112.293 131.977 113.116C130.767 113.893 129.266 114.377 127.715 114.377C126.021 114.377 124.472 113.844 123.211 112.971C122.291 112.341 121.565 111.518 120.936 110.599C120.791 124.353 120.597 141.114 120.403 156.272C121.033 156.369 122.291 156.661 123.84 156.952C125.295 157.242 127.086 157.63 128.879 158.017C131.348 158.549 133.964 159.082 136.193 159.566C138.081 159.953 139.679 160.292 140.649 160.486C140.843 145.86 140.843 129.003 140.843 114.861C140.843 107.982 140.794 101.733 140.794 96.6968C140.794 93.1608 140.746 90.2057 140.746 87.9789C140.746 87.4464 140.746 86.9623 140.746 86.5266C140.746 86.1856 140.746 85.8467 140.746 85.5079ZM111.296 191.63C111.296 191.63 113.186 192.261 115.945 193.084L117.497 85.6531L117.545 82.2139C82.1873 77.1772 27.552 69.3791 7.59679 66.5692L7.49997 69.5727L6.62642 96.3579C6.62642 96.3579 4.35124 163.876 8.08087 165.573C8.12928 165.621 8.2745 165.621 8.37132 165.67C15.4433 168.187 111.296 191.63 111.296 191.63ZM125.876 99.071C123.792 99.6035 122.049 100.959 121.033 102.801C120.791 103.285 120.549 103.769 120.403 104.301C120.452 104.301 120.5 104.301 120.549 104.301C120.645 104.301 120.791 104.301 120.984 104.301C121.178 104.301 121.372 104.301 121.614 104.35C121.856 104.35 122.098 104.398 122.388 104.398C123.937 104.495 126.166 104.737 128.25 104.979C134.981 105.705 135.078 105.899 135.126 106.046L135.174 106.191L134.884 106.482L134.158 107.305L132.899 108.66L122.63 108.079L121.904 108.031L120.887 107.982L120.159 107.934C120.304 108.66 120.549 109.338 120.887 109.969C120.936 110.066 120.984 110.163 121.081 110.26C121.517 110.986 122.049 111.664 122.727 112.245C122.921 112.39 123.114 112.535 123.308 112.68C124.569 113.552 126.069 114.086 127.667 114.086C128.782 114.086 129.847 113.844 130.816 113.406C133.19 112.341 134.884 110.115 135.223 107.402C135.271 107.111 135.271 106.772 135.271 106.433C135.271 105.657 135.174 104.931 134.932 104.253C134.013 101.104 131.058 98.7805 127.618 98.7805C127.086 98.8289 126.457 98.9257 125.876 99.071ZM120.304 104.785C120.256 104.785 120.159 104.834 120.111 104.834C120.062 104.834 119.965 104.882 119.917 104.931C119.627 105.076 119.433 105.221 119.288 105.415C119.046 105.705 118.949 105.998 118.949 106.046V106.191L118.9 107.353L119.772 107.402H120.159L120.984 107.45L122.146 107.498H122.533L132.754 108.079L133.625 107.16L134.303 106.433L134.497 106.191C132.899 105.85 125.73 105.076 122.34 104.785C122.049 104.785 121.759 104.737 121.517 104.737C121.323 104.737 121.178 104.737 121.033 104.737C120.839 104.737 120.742 104.737 120.645 104.737C120.5 104.737 120.403 104.785 120.304 104.785ZM120.403 158.356L140.697 162.666C140.697 162.134 140.697 161.601 140.697 161.02C139.437 160.73 137.839 160.437 136.096 160.05C133.819 159.566 131.251 159.033 128.879 158.549C125.053 157.775 121.662 157.049 120.403 156.807C120.403 157.291 120.403 157.823 120.403 158.356ZM139.049 195.894C139.923 194.488 140.407 180.637 140.649 163.102L120.353 158.791C120.159 174.533 120.014 188.144 119.917 194.149C127.522 196.233 137.5 198.363 139.049 195.894ZM135.126 127.357C135.126 129.925 133.045 132.055 130.428 132.055C127.812 132.055 125.73 129.973 125.73 127.357C125.73 124.741 127.812 122.659 130.428 122.659C133.045 122.659 135.126 124.789 135.126 127.357ZM134.109 125.079C133.335 123.869 131.977 123.046 130.428 123.046C128.637 123.046 127.086 124.16 126.457 125.711C127.037 124.837 128.054 124.208 129.218 124.208C131.058 124.208 132.56 125.711 132.56 127.55C132.56 129.392 131.058 130.893 129.218 130.893C128.444 130.893 127.715 130.651 127.183 130.167C127.618 130.651 128.151 131.038 128.734 131.328C129.266 131.57 129.847 131.667 130.428 131.667C132.802 131.667 134.739 129.731 134.739 127.357C134.739 126.534 134.497 125.759 134.109 125.079ZM135.126 149.493C135.126 152.058 133.045 154.19 130.428 154.19C127.812 154.19 125.73 152.107 125.73 149.493C125.73 146.876 127.812 144.793 130.428 144.793C133.045 144.793 135.126 146.925 135.126 149.493ZM134.739 149.493C134.739 148.667 134.497 147.893 134.061 147.215C133.287 146.005 131.929 145.182 130.38 145.182C128.589 145.182 127.037 146.295 126.408 147.844C126.989 146.973 128.006 146.344 129.17 146.344C131.009 146.344 132.512 147.844 132.512 149.686C132.512 151.526 131.009 153.029 129.17 153.029C128.395 153.029 127.667 152.786 127.134 152.3C127.57 152.786 128.102 153.174 128.734 153.464C129.266 153.706 129.799 153.803 130.428 153.803C132.802 153.803 134.739 151.865 134.739 149.493ZM135.126 138.207C135.126 140.772 133.045 142.905 130.428 142.905C127.812 142.905 125.73 140.821 125.73 138.207C125.73 135.591 127.812 133.509 130.428 133.509C133.045 133.509 135.126 135.639 135.126 138.207ZM132.56 138.4C132.56 140.24 131.058 141.743 129.218 141.743C128.444 141.743 127.715 141.501 127.183 141.014C127.618 141.501 128.151 141.888 128.734 142.178C129.266 142.421 129.847 142.517 130.428 142.517C132.802 142.517 134.739 140.579 134.739 138.207C134.739 137.384 134.497 136.607 134.061 135.929C133.287 134.719 131.929 133.896 130.38 133.896C128.589 133.896 127.037 135.01 126.408 136.559C126.989 135.687 128.006 135.058 129.17 135.058C131.058 135.058 132.56 136.559 132.56 138.4ZM128.734 87.4464C128.831 87.7368 128.492 93.306 128.492 93.306L132.367 93.8869L132.27 87.8821L128.734 87.4464ZM111.49 173.177C109.747 181.992 109.456 183.735 99.2842 182.234C92.2606 181.218 75.6962 177.875 62.0868 174.581C56.0314 173.129 50.5107 171.626 46.6842 170.367C45.0361 169.835 43.2935 169.303 41.4517 168.77C29.5851 165.379 15.1023 162.376 12.1494 155.352C12.0041 154.965 11.8105 154.432 11.7137 153.755C8.95222 140.772 10.7917 78.5811 11.6169 74.5126C11.6169 74.5126 11.0338 71.9954 16.121 72.189C18.3962 72.2858 35.3985 75.3377 53.6088 78.6779C76.3255 82.8938 100.932 87.5916 100.932 87.5916C100.932 87.5916 109.989 88.1725 111.006 91.3697C111.538 93.1124 112.167 114.135 112.313 134.574C112.313 134.719 112.313 134.864 112.313 135.058C112.458 152.349 112.264 169.157 111.49 173.177ZM109.456 136.849C109.456 135.687 109.456 134.477 109.456 133.315C109.36 122.611 109.166 111.906 108.924 104.253C108.73 98.3932 108.486 94.3248 108.244 93.5964C107.324 90.7403 99.1389 90.1572 99.0421 90.1088C98.6065 90.012 77.3904 85.8951 57.048 82.0687C39.3218 78.7285 22.2227 75.5798 20.0443 75.483C19.8507 75.483 19.7054 75.483 19.5118 75.483C17.5733 75.483 16.7019 75.967 16.3631 76.4027C15.9758 76.8868 16.0726 77.4193 16.0726 77.4193V77.5161C15.7338 79.1642 15.0539 94.3732 14.8118 110.938C14.5214 129.779 14.715 150.364 16.4599 154.626C16.6051 154.965 16.7503 155.304 16.9924 155.643C20.0927 160.73 29.8272 163.441 39.3218 166.057C40.532 166.396 41.6938 166.735 42.8578 167.074C44.8425 167.654 46.781 168.187 48.5722 168.818C52.3502 170.125 57.9677 171.626 64.0716 173.081C76.5191 176.132 91.1472 179.085 97.5415 180.056C106.792 181.46 107.082 179.957 108.682 171.578C109.311 167.993 109.553 152.835 109.456 136.849Z" fill="#1E1E2F"/>
</g>
<path d="M136.297 206.137L124.244 204.7C124.244 204.7 120.25 199.393 121.373 194.841C122.496 190.29 126.26 191.046 126.26 191.046L129.976 192.245C129.976 192.245 127.255 185.445 129.735 182.826C132.215 180.208 136.446 181.665 136.446 181.665L140.203 184.297C140.203 184.297 137.752 172.826 144.31 170.944C150.868 169.061 156.7 173.653 156.7 173.653L159.96 177.303C159.96 177.303 162.3 170.234 167.79 171.147C173.28 172.062 174.319 176.323 174.319 176.323L174.683 178.55C174.683 178.55 179.314 175.896 183.264 178.417C187.214 180.938 184.093 187.662 184.093 187.662L177.895 203.188L136.297 206.137Z" fill="white"/>
<path d="M137.453 206.55C137.453 206.55 135.82 201.919 138.399 199.821C140.979 197.723 145.402 197.225 145.402 197.225C145.402 197.225 145.166 189.945 151.133 188.114C157.099 186.283 160.598 188.913 160.598 188.913L163.165 194.062C163.165 194.062 166.514 190.18 167.125 189.975C167.735 189.771 170.683 190.819 170.683 190.819L174.023 193.598C174.023 193.598 173.606 188.025 178.847 187.842C184.087 187.659 185.681 190.157 185.681 190.157L185.97 194.988C185.97 194.988 188.126 192.951 191.179 195.428C194.233 197.906 192.92 200.946 192.92 200.946L191.738 202.811C191.738 202.811 197.184 202.608 197.926 206.971C198.669 211.333 196.576 214.859 196.576 214.859L137.453 206.55Z" fill="black"/>
<mask id="mask2_80_15" style="mask-type:luminance" maskUnits="userSpaceOnUse" x="118" y="163" width="87" height="54">
<path d="M124.03 163.664L204.308 174.946L198.517 216.149L118.239 204.867L124.03 163.664Z" fill="white"/>
</mask>
<g mask="url(#mask2_80_15)">
<path d="M198.224 204.719C197.244 203.209 195.67 202.288 193.531 201.96C194.49 199.837 194.933 196.868 192.427 194.828C190.347 193.134 188.447 192.961 187.102 193.186C187.176 191.757 187.005 189.817 185.857 188.343C185.762 188.222 185.639 188.141 185.534 188.023C186.425 185.907 188.405 179.939 183.842 177.436C180.538 175.622 177.459 176.222 175.634 176.909C175.272 174.187 173.577 170.701 168.739 169.951L168.602 169.932C163.934 169.276 161.009 172.39 159.573 175.168C157.595 172.577 153.234 168.371 146.309 169.461C143.806 169.856 141.877 171.033 140.574 172.961C138.764 175.642 138.59 179.211 138.757 181.721C136.766 180.372 133.736 179.143 130.532 180.863C127.666 182.401 126.849 185.939 128.201 190.589C126.894 190.063 125.253 189.681 123.698 190.128C122.393 190.507 121.358 191.396 120.628 192.773C117.682 198.316 122.996 205.005 123.222 205.288C123.411 205.518 123.653 205.653 123.948 205.693L196.71 215.92C196.831 215.936 196.952 215.934 197.072 215.91C197.193 215.889 197.307 215.848 197.414 215.788C197.521 215.728 197.616 215.653 197.699 215.563C197.781 215.473 197.848 215.371 197.897 215.259C198.015 214.993 200.776 208.645 198.224 204.719ZM122.617 193.824C123.058 192.995 123.615 192.492 124.324 192.289C126.056 191.782 128.346 193.097 129.21 193.591C129.676 193.858 130.314 194.223 130.94 193.685C131.313 193.365 131.394 192.735 131.204 192.284C130.453 190.524 128.259 184.64 131.599 182.843C135.452 180.776 139.262 185.06 139.424 185.24C139.506 185.336 139.602 185.415 139.71 185.478C139.819 185.541 139.936 185.585 140.059 185.61C140.183 185.635 140.306 185.638 140.431 185.621C140.556 185.603 140.674 185.566 140.787 185.509C140.899 185.451 140.998 185.377 141.086 185.287C141.174 185.196 141.244 185.094 141.297 184.98C141.35 184.866 141.383 184.746 141.395 184.621C141.408 184.496 141.4 184.372 141.372 184.249C141.357 184.186 139.947 177.917 142.438 174.22C143.389 172.809 144.769 171.974 146.657 171.684C154.808 170.407 158.651 177.767 158.811 178.08C158.862 178.181 158.927 178.272 159.007 178.353C159.085 178.435 159.174 178.502 159.273 178.556C159.372 178.611 159.478 178.65 159.588 178.673C159.699 178.695 159.811 178.701 159.924 178.691C160.036 178.68 160.145 178.652 160.249 178.609C160.354 178.565 160.449 178.507 160.536 178.434C160.623 178.362 160.697 178.278 160.759 178.184C160.821 178.088 160.867 177.987 160.898 177.877C160.974 177.61 162.77 171.318 168.39 172.175C173.77 173.01 173.483 178.006 173.436 178.568C173.425 178.673 173.43 178.778 173.449 178.883C173.469 178.987 173.503 179.086 173.55 179.182C173.598 179.276 173.658 179.363 173.731 179.441C173.803 179.519 173.884 179.584 173.974 179.64C174.066 179.695 174.163 179.736 174.265 179.763C174.368 179.79 174.472 179.803 174.578 179.801C174.685 179.799 174.788 179.782 174.889 179.751C174.991 179.72 175.086 179.674 175.175 179.617C175.324 179.519 178.852 177.267 182.752 179.409C185.44 180.886 184.331 184.845 183.609 186.734C182.756 186.421 181.873 186.272 180.964 186.285C176.38 186.305 174.065 189.13 173.091 191.648C171.737 190.297 169.634 188.723 167.362 189.05C165.639 189.296 164.464 190.404 163.694 191.553C163.076 190.176 162.065 188.617 160.437 187.528C158.322 186.115 155.68 185.812 152.583 186.63C149.121 187.539 146.694 189.185 145.366 191.516C144.949 192.265 144.65 193.059 144.47 193.897C144.29 194.735 144.236 195.581 144.309 196.435C142.363 196.718 138.595 197.584 136.718 200.271C135.772 201.63 135.443 203.243 135.714 205.072L124.719 203.526C123.78 202.221 120.687 197.456 122.617 193.824ZM196.145 213.565L138.074 205.403C137.692 203.851 137.857 202.589 138.571 201.562C140.469 198.822 145.608 198.57 145.661 198.567C145.747 198.563 145.83 198.55 145.912 198.527C145.994 198.504 146.072 198.473 146.147 198.432C146.221 198.392 146.291 198.344 146.355 198.287C146.419 198.231 146.476 198.169 146.525 198.1C146.575 198.031 146.616 197.957 146.649 197.879C146.682 197.8 146.707 197.719 146.721 197.636C146.736 197.552 146.741 197.468 146.737 197.382C146.732 197.298 146.719 197.214 146.695 197.133C146.688 197.11 146.09 194.829 147.327 192.636C148.343 190.851 150.306 189.562 153.159 188.81C155.601 188.168 157.629 188.368 159.176 189.397C161.83 191.161 162.375 194.846 162.379 194.885C162.4 195.015 162.441 195.136 162.503 195.252C162.565 195.368 162.644 195.469 162.742 195.557C162.838 195.645 162.946 195.715 163.067 195.766C163.188 195.817 163.313 195.847 163.444 195.855C163.575 195.86 163.705 195.845 163.83 195.806C163.956 195.767 164.071 195.708 164.176 195.629C164.282 195.55 164.37 195.454 164.442 195.345C164.514 195.235 164.565 195.115 164.595 194.987C164.6 194.952 165.45 191.603 167.689 191.283C169.624 191.005 172.047 193.713 172.746 194.685C172.813 194.778 172.893 194.859 172.984 194.928C173.075 194.997 173.176 195.05 173.283 195.089C173.391 195.127 173.503 195.149 173.617 195.154C173.731 195.158 173.844 195.146 173.954 195.116C174.065 195.086 174.168 195.041 174.265 194.979C174.361 194.918 174.447 194.843 174.521 194.757C174.595 194.669 174.655 194.572 174.699 194.467C174.744 194.361 174.772 194.251 174.783 194.138C174.804 193.911 175.385 188.561 180.982 188.541C182.434 188.535 183.448 188.917 184.075 189.718C185.189 191.139 184.864 193.709 184.646 194.579C184.619 194.688 184.608 194.799 184.615 194.912C184.621 195.025 184.644 195.135 184.684 195.24C184.723 195.347 184.777 195.444 184.847 195.534C184.915 195.624 184.996 195.701 185.088 195.766C185.181 195.832 185.281 195.882 185.389 195.917C185.498 195.954 185.608 195.972 185.722 195.974C185.836 195.976 185.948 195.962 186.057 195.93C186.166 195.9 186.269 195.853 186.364 195.79C186.573 195.649 188.482 194.515 191 196.568C193.424 198.543 190.862 202.129 190.753 202.281C190.629 202.453 190.558 202.643 190.54 202.854C190.523 203.065 190.562 203.265 190.659 203.453C190.754 203.642 190.892 203.793 191.072 203.903C191.252 204.014 191.447 204.071 191.659 204.071C193.958 204.07 195.528 204.702 196.331 205.937C197.688 208.018 196.835 211.633 196.146 213.565L196.145 213.565Z" fill="#231F20"/>
</g>
</svg>
