<svg width="75" height="102" viewBox="0 0 75 102" fill="none" xmlns="http://www.w3.org/2000/svg">
<circle cx="37" cy="32" r="32" fill="#00CED1"/>
<g filter="url(#filter0_d_4405_577)">
<mask id="mask0_4405_577" style="mask-type:luminance" maskUnits="userSpaceOnUse" x="5" y="0" width="64" height="64">
<path d="M5 0H69V64H5V0Z" fill="white"/>
</mask>
<g mask="url(#mask0_4405_577)">
<path d="M69.0017 32.0014C69.0017 14.3199 54.6677 -0.0141602 36.9862 -0.0141602C19.3048 -0.0141602 4.9707 14.3199 4.9707 32.0014C4.9707 49.6828 19.3048 64.0169 36.9862 64.0169C54.6677 64.0169 69.0017 49.6828 69.0017 32.0014Z" fill="#00CED1"/>
</g>
<path d="M50.5703 32.384L30.1934 46.8947V17.874L50.5703 32.384Z" fill="white"/>
</g>
<rect x="0.25" y="84.25" width="74.5" height="17.5" rx="2.75" fill="white" stroke="#00CED1" stroke-width="0.5"/>
<path d="M16.4201 93.508L15.5441 93.088L18.2801 88.6H19.4441L16.4201 93.508ZM15.4241 97V92.968H16.4321V97H15.4241ZM15.4361 93.508L12.4121 88.6H13.5881L16.3121 93.088L15.4361 93.508ZM22.8035 97.144C22.2195 97.144 21.6995 97.012 21.2435 96.748C20.7955 96.476 20.4435 96.104 20.1875 95.632C19.9315 95.16 19.8035 94.616 19.8035 94C19.8035 93.384 19.9275 92.84 20.1755 92.368C20.4315 91.896 20.7835 91.528 21.2315 91.264C21.6875 90.992 22.2035 90.856 22.7795 90.856C23.3715 90.856 23.8915 90.992 24.3395 91.264C24.7955 91.528 25.1475 91.896 25.3955 92.368C25.6515 92.84 25.7795 93.384 25.7795 94C25.7795 94.616 25.6515 95.16 25.3955 95.632C25.1475 96.104 24.7995 96.476 24.3515 96.748C23.9035 97.012 23.3875 97.144 22.8035 97.144ZM22.8035 96.256C23.2035 96.256 23.5515 96.16 23.8475 95.968C24.1435 95.776 24.3755 95.512 24.5435 95.176C24.7195 94.84 24.8075 94.448 24.8075 94C24.8075 93.552 24.7195 93.16 24.5435 92.824C24.3755 92.488 24.1395 92.224 23.8355 92.032C23.5315 91.84 23.1795 91.744 22.7795 91.744C22.3875 91.744 22.0395 91.84 21.7355 92.032C21.4395 92.224 21.2035 92.488 21.0275 92.824C20.8595 93.16 20.7755 93.552 20.7755 94C20.7755 94.44 20.8595 94.832 21.0275 95.176C21.2035 95.512 21.4435 95.776 21.7475 95.968C22.0595 96.16 22.4115 96.256 22.8035 96.256ZM31.7084 97L31.6484 95.896V91H32.6084V97H31.7084ZM27.4364 94.072V91H28.3964V94.072H27.4364ZM28.3964 94.072C28.3964 94.664 28.4644 95.116 28.6004 95.428C28.7364 95.74 28.9244 95.956 29.1644 96.076C29.4124 96.188 29.6884 96.244 29.9924 96.244C30.5124 96.244 30.9164 96.056 31.2044 95.68C31.5004 95.304 31.6484 94.78 31.6484 94.108H32.1164C32.1164 94.74 32.0244 95.284 31.8404 95.74C31.6564 96.196 31.3884 96.544 31.0364 96.784C30.6924 97.024 30.2684 97.144 29.7644 97.144C29.3004 97.144 28.8924 97.052 28.5404 96.868C28.1884 96.676 27.9164 96.376 27.7244 95.968C27.5324 95.552 27.4364 95.016 27.4364 94.36V94.072H28.3964ZM36.7318 97V89.524H34.0558V88.6H40.4158V89.524H37.7398V97H36.7318ZM45.4184 97L45.3584 95.896V91H46.3184V97H45.4184ZM41.1464 94.072V91H42.1064V94.072H41.1464ZM42.1064 94.072C42.1064 94.664 42.1744 95.116 42.3104 95.428C42.4464 95.74 42.6344 95.956 42.8744 96.076C43.1224 96.188 43.3984 96.244 43.7024 96.244C44.2224 96.244 44.6264 96.056 44.9144 95.68C45.2104 95.304 45.3584 94.78 45.3584 94.108H45.8264C45.8264 94.74 45.7344 95.284 45.5504 95.74C45.3664 96.196 45.0984 96.544 44.7464 96.784C44.4024 97.024 43.9784 97.144 43.4744 97.144C43.0104 97.144 42.6024 97.052 42.2504 96.868C41.8984 96.676 41.6264 96.376 41.4344 95.968C41.2424 95.552 41.1464 95.016 41.1464 94.36V94.072H42.1064ZM48.4738 97V88.6H49.4338V95.884L49.3858 97H48.4738ZM51.4618 97.144C50.9578 97.144 50.5138 97.012 50.1298 96.748C49.7538 96.484 49.4618 96.116 49.2538 95.644C49.0458 95.164 48.9418 94.616 48.9418 94C48.9418 93.376 49.0458 92.828 49.2538 92.356C49.4618 91.884 49.7538 91.516 50.1298 91.252C50.5138 90.988 50.9578 90.856 51.4618 90.856C51.9978 90.856 52.4698 90.988 52.8778 91.252C53.2858 91.516 53.6018 91.884 53.8258 92.356C54.0578 92.828 54.1738 93.376 54.1738 94C54.1738 94.616 54.0578 95.164 53.8258 95.644C53.6018 96.116 53.2858 96.484 52.8778 96.748C52.4698 97.012 51.9978 97.144 51.4618 97.144ZM51.2458 96.268C51.6218 96.268 51.9538 96.172 52.2418 95.98C52.5378 95.788 52.7698 95.52 52.9378 95.176C53.1138 94.832 53.2018 94.44 53.2018 94C53.2018 93.56 53.1178 93.168 52.9498 92.824C52.7898 92.48 52.5618 92.212 52.2658 92.02C51.9698 91.828 51.6338 91.732 51.2578 91.732C50.9058 91.732 50.5898 91.828 50.3098 92.02C50.0378 92.212 49.8218 92.48 49.6618 92.824C49.5098 93.168 49.4338 93.56 49.4338 94C49.4338 94.44 49.5098 94.832 49.6618 95.176C49.8218 95.52 50.0378 95.788 50.3098 95.98C50.5818 96.172 50.8938 96.268 51.2458 96.268ZM58.6131 97.144C58.0291 97.144 57.5131 97.012 57.0651 96.748C56.6171 96.476 56.2651 96.104 56.0091 95.632C55.7611 95.16 55.6371 94.616 55.6371 94C55.6371 93.384 55.7611 92.84 56.0091 92.368C56.2651 91.896 56.6131 91.528 57.0531 91.264C57.5011 90.992 58.0131 90.856 58.5891 90.856C59.1491 90.856 59.6331 90.996 60.0411 91.276C60.4491 91.548 60.7651 91.932 60.9891 92.428C61.2131 92.924 61.3251 93.508 61.3251 94.18H56.3691L56.6091 93.976C56.6091 94.456 56.6931 94.868 56.8611 95.212C57.0371 95.556 57.2811 95.82 57.5931 96.004C57.9051 96.18 58.2611 96.268 58.6611 96.268C59.0851 96.268 59.4411 96.168 59.7291 95.968C60.0251 95.768 60.2531 95.504 60.4131 95.176L61.2411 95.596C61.0891 95.908 60.8851 96.18 60.6291 96.412C60.3811 96.644 60.0851 96.824 59.7411 96.952C59.4051 97.08 59.0291 97.144 58.6131 97.144ZM56.6691 93.568L56.4171 93.376H60.5571L60.3051 93.58C60.3051 93.196 60.2291 92.864 60.0771 92.584C59.9251 92.304 59.7211 92.088 59.4651 91.936C59.2091 91.784 58.9131 91.708 58.5771 91.708C58.2491 91.708 57.9371 91.784 57.6411 91.936C57.3531 92.088 57.1171 92.304 56.9331 92.584C56.7571 92.856 56.6691 93.184 56.6691 93.568Z" fill="black"/>
<defs>
<filter id="filter0_d_4405_577" x="1" y="0" width="72" height="72" filterUnits="userSpaceOnUse" color-interpolation-filters="sRGB">
<feFlood flood-opacity="0" result="BackgroundImageFix"/>
<feColorMatrix in="SourceAlpha" type="matrix" values="0 0 0 0 0 0 0 0 0 0 0 0 0 0 0 0 0 0 127 0" result="hardAlpha"/>
<feOffset dy="4"/>
<feGaussianBlur stdDeviation="2"/>
<feComposite in2="hardAlpha" operator="out"/>
<feColorMatrix type="matrix" values="0 0 0 0 0 0 0 0 0 0 0 0 0 0 0 0 0 0 0.25 0"/>
<feBlend mode="normal" in2="BackgroundImageFix" result="effect1_dropShadow_4405_577"/>
<feBlend mode="normal" in="SourceGraphic" in2="effect1_dropShadow_4405_577" result="shape"/>
</filter>
</defs>
</svg>
