<svg width="357" height="64" viewBox="0 0 357 64" fill="none" xmlns="http://www.w3.org/2000/svg">
<g filter="url(#filter0_d_2042_316)">
<path d="M335.69 54.5H5.69043V15.9996L22.1904 1.5H351.69V39.5L335.69 54.5Z" fill="white"/>
<path d="M5.69043 15.9996H335.69M5.69043 15.9996V54.5H335.69M5.69043 15.9996L22.1904 1.5H351.69M335.69 15.9996V54.5M335.69 15.9996L351.69 1.5M335.69 54.5L351.69 39.5V1.5" stroke="#1E1D30" stroke-width="2"/>
</g>
<path d="M132.591 41.702C132.591 42.6847 132.078 43.176 131.051 43.176C130.552 43.176 130.156 43.0513 129.863 42.802C129.57 42.5527 129.423 42.186 129.423 41.702V32.99C129.423 30.966 129.834 29.5213 130.655 28.656C131.476 27.7907 132.76 27.358 134.505 27.358C136.294 27.358 137.614 27.798 138.465 28.678C139.316 29.558 139.741 30.9953 139.741 32.99V41.702C139.741 42.6847 139.228 43.176 138.201 43.176C137.702 43.176 137.306 43.0513 137.013 42.802C136.72 42.5527 136.573 42.186 136.573 41.702V36.4C136.294 36.6493 135.986 36.862 135.649 37.038C135.326 37.214 134.945 37.302 134.505 37.302C133.86 37.302 133.376 37.4193 133.053 37.654C132.745 37.8887 132.591 38.3067 132.591 38.908V41.702ZM132.459 35.256C132.694 35.0213 132.972 34.838 133.295 34.706C133.632 34.574 134.036 34.508 134.505 34.508C135.062 34.508 135.488 34.464 135.781 34.376C136.089 34.288 136.302 34.1193 136.419 33.87C136.536 33.6207 136.595 33.254 136.595 32.77C136.595 31.6847 136.441 30.944 136.133 30.548C135.825 30.1373 135.275 29.932 134.483 29.932C133.75 29.932 133.244 30.1447 132.965 30.57C132.701 30.9807 132.569 31.7433 132.569 32.858C132.569 33.43 132.562 33.914 132.547 34.31C132.532 34.706 132.503 35.0213 132.459 35.256ZM150.924 43C149.868 43 149.34 42.428 149.34 41.284V29.074C149.34 27.93 149.868 27.358 150.924 27.358C151.98 27.358 152.508 27.93 152.508 29.074V38.842C152.508 39.0767 152.486 39.3773 152.442 39.744C152.412 40.096 152.376 40.3893 152.332 40.624C152.713 40.1693 153.182 39.942 153.74 39.942H156.974C157.516 39.942 157.934 40.074 158.228 40.338C158.521 40.602 158.668 40.9833 158.668 41.482C158.668 42.494 158.103 43 156.974 43H150.924ZM165.46 43.176C163.993 43.176 162.842 42.934 162.006 42.45C161.184 41.966 160.598 41.2987 160.246 40.448C159.908 39.5973 159.74 38.622 159.74 37.522C159.74 35.498 160.187 34.046 161.082 33.166C161.976 32.2713 163.179 31.824 164.69 31.824C165.599 31.824 166.406 31.978 167.11 32.286C167.814 32.594 168.364 33.034 168.76 33.606C169.156 34.1633 169.354 34.8453 169.354 35.652C169.354 37.9987 167.682 39.172 164.338 39.172H163.062C163.179 39.6267 163.37 39.986 163.634 40.25C163.912 40.4993 164.396 40.624 165.086 40.624C165.467 40.624 165.775 40.602 166.01 40.558C166.244 40.514 166.464 40.47 166.67 40.426C166.89 40.382 167.139 40.36 167.418 40.36C167.814 40.36 168.129 40.4333 168.364 40.58C168.598 40.712 168.716 40.9907 168.716 41.416C168.716 42.0173 168.452 42.4647 167.924 42.758C167.41 43.0367 166.589 43.176 165.46 43.176ZM162.908 37.544C163.025 37.3827 163.157 37.28 163.304 37.236C163.45 37.1773 163.678 37.148 163.986 37.148C164.851 37.148 165.445 37.0673 165.768 36.906C166.105 36.73 166.274 36.422 166.274 35.982C166.274 35.4247 166.12 34.9993 165.812 34.706C165.504 34.398 165.115 34.244 164.646 34.244C164.103 34.244 163.678 34.4713 163.37 34.926C163.062 35.3807 162.908 36.2533 162.908 37.544ZM176.024 43.176C175.731 43.176 175.423 43.1173 175.1 43C174.792 42.868 174.499 42.6407 174.22 42.318C173.941 41.9807 173.699 41.4967 173.494 40.866L171.184 33.628C171.081 33.2907 171.096 32.9827 171.228 32.704C171.36 32.4107 171.573 32.1833 171.866 32.022C172.159 31.846 172.482 31.758 172.834 31.758C173.157 31.758 173.45 31.8387 173.714 32C173.993 32.1613 174.183 32.4107 174.286 32.748L176.442 40.03C176.999 39.106 177.366 38.1893 177.542 37.28C177.733 36.356 177.828 35.4687 177.828 34.618C177.828 34.354 177.821 34.0973 177.806 33.848C177.791 33.584 177.784 33.3347 177.784 33.1C177.784 32.6747 177.953 32.3447 178.29 32.11C178.642 31.8753 179.031 31.758 179.456 31.758C180.336 31.758 180.842 32.176 180.974 33.012C181.003 33.1587 181.025 33.3567 181.04 33.606C181.055 33.8407 181.062 34.112 181.062 34.42C181.062 34.9187 181.011 35.5053 180.908 36.18C180.82 36.84 180.644 37.5513 180.38 38.314C180.131 39.062 179.749 39.832 179.236 40.624C178.781 41.328 178.371 41.8633 178.004 42.23C177.652 42.5967 177.315 42.846 176.992 42.978C176.669 43.11 176.347 43.176 176.024 43.176ZM189.048 43.176C187.581 43.176 186.43 42.934 185.594 42.45C184.773 41.966 184.186 41.2987 183.834 40.448C183.497 39.5973 183.328 38.622 183.328 37.522C183.328 35.498 183.775 34.046 184.67 33.166C185.565 32.2713 186.767 31.824 188.278 31.824C189.187 31.824 189.994 31.978 190.698 32.286C191.402 32.594 191.952 33.034 192.348 33.606C192.744 34.1633 192.942 34.8453 192.942 35.652C192.942 37.9987 191.27 39.172 187.926 39.172H186.65C186.767 39.6267 186.958 39.986 187.222 40.25C187.501 40.4993 187.985 40.624 188.674 40.624C189.055 40.624 189.363 40.602 189.598 40.558C189.833 40.514 190.053 40.47 190.258 40.426C190.478 40.382 190.727 40.36 191.006 40.36C191.402 40.36 191.717 40.4333 191.952 40.58C192.187 40.712 192.304 40.9907 192.304 41.416C192.304 42.0173 192.04 42.4647 191.512 42.758C190.999 43.0367 190.177 43.176 189.048 43.176ZM186.496 37.544C186.613 37.3827 186.745 37.28 186.892 37.236C187.039 37.1773 187.266 37.148 187.574 37.148C188.439 37.148 189.033 37.0673 189.356 36.906C189.693 36.73 189.862 36.422 189.862 35.982C189.862 35.4247 189.708 34.9993 189.4 34.706C189.092 34.398 188.703 34.244 188.234 34.244C187.691 34.244 187.266 34.4713 186.958 34.926C186.65 35.3807 186.496 36.2533 186.496 37.544ZM198.993 41.702C198.993 42.6847 198.48 43.176 197.453 43.176C196.954 43.176 196.558 43.0513 196.265 42.802C195.972 42.5527 195.825 42.186 195.825 41.702V27.952C195.825 27.424 195.942 27.006 196.177 26.698C196.426 26.39 196.837 26.236 197.409 26.236C197.981 26.236 198.384 26.39 198.619 26.698C198.868 27.006 198.993 27.424 198.993 27.952V41.702Z" fill="black"/>
<defs>
<filter id="filter0_d_2042_316" x="0.69043" y="0.5" width="356" height="63" filterUnits="userSpaceOnUse" color-interpolation-filters="sRGB">
<feFlood flood-opacity="0" result="BackgroundImageFix"/>
<feColorMatrix in="SourceAlpha" type="matrix" values="0 0 0 0 0 0 0 0 0 0 0 0 0 0 0 0 0 0 127 0" result="hardAlpha"/>
<feOffset dy="4"/>
<feGaussianBlur stdDeviation="2"/>
<feComposite in2="hardAlpha" operator="out"/>
<feColorMatrix type="matrix" values="0 0 0 0 0 0 0 0 0 0 0 0 0 0 0 0 0 0 0.25 0"/>
<feBlend mode="normal" in2="BackgroundImageFix" result="effect1_dropShadow_2042_316"/>
<feBlend mode="normal" in="SourceGraphic" in2="effect1_dropShadow_2042_316" result="shape"/>
</filter>
</defs>
</svg>
