<svg width="356" height="63" viewBox="0 0 356 63" fill="none" xmlns="http://www.w3.org/2000/svg">
<g filter="url(#filter0_d_2026_2095)">
<path d="M335 54H5V15.4996L21.5 1H351V39L335 54Z" fill="white"/>
<path d="M5 15.4996H335M5 15.4996V54H335M5 15.4996L21.5 1H351M335 15.4996V54M335 15.4996L351 1M335 54L351 39V1" stroke="#1E1D30" stroke-width="2"/>
</g>
<path d="M111.59 40.702C111.59 41.6847 111.077 42.176 110.05 42.176C109.552 42.176 109.156 42.0513 108.862 41.802C108.569 41.5527 108.422 41.186 108.422 40.702V31.99C108.422 29.966 108.833 28.5213 109.654 27.656C110.476 26.7907 111.759 26.358 113.504 26.358C115.294 26.358 116.614 26.798 117.464 27.678C118.315 28.558 118.74 29.9953 118.74 31.99V40.702C118.74 41.6847 118.227 42.176 117.2 42.176C116.702 42.176 116.306 42.0513 116.012 41.802C115.719 41.5527 115.572 41.186 115.572 40.702V35.4C115.294 35.6493 114.986 35.862 114.648 36.038C114.326 36.214 113.944 36.302 113.504 36.302C112.859 36.302 112.375 36.4193 112.052 36.654C111.744 36.8887 111.59 37.3067 111.59 37.908V40.702ZM111.458 34.256C111.693 34.0213 111.972 33.838 112.294 33.706C112.632 33.574 113.035 33.508 113.504 33.508C114.062 33.508 114.487 33.464 114.78 33.376C115.088 33.288 115.301 33.1193 115.418 32.87C115.536 32.6207 115.594 32.254 115.594 31.77C115.594 30.6847 115.44 29.944 115.132 29.548C114.824 29.1373 114.274 28.932 113.482 28.932C112.749 28.932 112.243 29.1447 111.964 29.57C111.7 29.9807 111.568 30.7433 111.568 31.858C111.568 32.43 111.561 32.914 111.546 33.31C111.532 33.706 111.502 34.0213 111.458 34.256ZM126.982 42.176C125.369 42.176 124.093 41.6627 123.154 40.636C122.23 39.6093 121.768 38.106 121.768 36.126C121.768 34.806 121.959 33.7573 122.34 32.98C122.721 32.2027 123.249 31.6527 123.924 31.33C124.613 30.9927 125.391 30.824 126.256 30.824C127.033 30.824 127.664 30.9193 128.148 31.11C128.632 31.3007 129.013 31.6233 129.292 32.078C129.189 31.77 129.109 31.484 129.05 31.22C129.006 30.9413 128.969 30.6187 128.94 30.252C128.925 29.8853 128.918 29.416 128.918 28.844V26.952C128.918 25.808 129.409 25.236 130.392 25.236C131.463 25.236 131.998 25.808 131.998 26.952V36.258C131.998 38.238 131.558 39.7193 130.678 40.702C129.798 41.6847 128.566 42.176 126.982 42.176ZM126.828 39.536C127.444 39.536 127.921 39.316 128.258 38.876C128.61 38.436 128.786 37.6147 128.786 36.412C128.786 35.6053 128.705 34.9967 128.544 34.586C128.397 34.1607 128.177 33.8673 127.884 33.706C127.591 33.5447 127.239 33.464 126.828 33.464C126.417 33.464 126.065 33.5447 125.772 33.706C125.479 33.8673 125.251 34.1607 125.09 34.586C124.943 34.9967 124.87 35.6053 124.87 36.412C124.87 37.6147 125.039 38.436 125.376 38.876C125.728 39.316 126.212 39.536 126.828 39.536ZM136.685 42.176C135.629 42.176 135.101 41.6773 135.101 40.68V35.4C135.101 33.904 135.453 32.7673 136.157 31.99C136.876 31.2127 137.902 30.824 139.237 30.824C141.056 30.824 142.288 31.4767 142.933 32.782C143.578 31.4767 144.81 30.824 146.629 30.824C147.964 30.824 148.983 31.2127 149.687 31.99C150.406 32.7673 150.765 33.904 150.765 35.4V40.68C150.765 41.6773 150.237 42.176 149.181 42.176C148.125 42.176 147.597 41.6773 147.597 40.68V35.576C147.597 34.828 147.472 34.2927 147.223 33.97C146.974 33.6327 146.585 33.464 146.057 33.464C145.001 33.464 144.473 34.168 144.473 35.576V40.592C144.473 41.5893 143.96 42.088 142.933 42.088C141.906 42.088 141.393 41.5893 141.393 40.592V35.576C141.393 34.168 140.865 33.464 139.809 33.464C138.782 33.464 138.269 34.168 138.269 35.576V40.68C138.269 41.6773 137.741 42.176 136.685 42.176ZM155.591 28.932C155.049 28.932 154.594 28.756 154.227 28.404C153.861 28.052 153.677 27.6193 153.677 27.106C153.677 26.5633 153.861 26.116 154.227 25.764C154.594 25.412 155.049 25.236 155.591 25.236C156.149 25.236 156.603 25.412 156.955 25.764C157.322 26.116 157.505 26.5633 157.505 27.106C157.505 27.6193 157.322 28.052 156.955 28.404C156.603 28.756 156.149 28.932 155.591 28.932ZM157.175 40.702C157.175 41.6847 156.662 42.176 155.635 42.176C155.137 42.176 154.741 42.0587 154.447 41.824C154.154 41.5747 154.007 41.2007 154.007 40.702V32.32C154.007 31.8507 154.125 31.484 154.359 31.22C154.609 30.956 155.019 30.824 155.591 30.824C156.163 30.824 156.567 30.956 156.801 31.22C157.051 31.484 157.175 31.8507 157.175 32.32V40.702ZM164.231 42.176C161.474 42.176 160.095 41.5673 160.095 40.35C160.095 39.9687 160.198 39.668 160.403 39.448C160.609 39.228 160.88 39.118 161.217 39.118C161.364 39.118 161.503 39.14 161.635 39.184C161.782 39.2133 162.061 39.294 162.471 39.426C162.647 39.4847 162.882 39.5433 163.175 39.602C163.469 39.6607 163.755 39.69 164.033 39.69C164.561 39.69 164.935 39.624 165.155 39.492C165.375 39.36 165.485 39.14 165.485 38.832C165.485 38.5827 165.427 38.392 165.309 38.26C165.192 38.1133 164.943 37.974 164.561 37.842C164.18 37.71 163.586 37.5267 162.779 37.292C162.046 37.0867 161.452 36.72 160.997 36.192C160.557 35.6493 160.337 34.982 160.337 34.19C160.337 33.0753 160.741 32.2247 161.547 31.638C162.354 31.0513 163.461 30.758 164.869 30.758C165.925 30.758 166.754 30.9047 167.355 31.198C167.957 31.4913 168.257 31.9167 168.257 32.474C168.257 32.826 168.155 33.1193 167.949 33.354C167.744 33.5887 167.465 33.706 167.113 33.706C166.967 33.706 166.791 33.684 166.585 33.64C166.395 33.596 166.16 33.5373 165.881 33.464C165.676 33.3907 165.456 33.332 165.221 33.288C165.001 33.244 164.767 33.222 164.517 33.222C163.813 33.222 163.461 33.4713 163.461 33.97C163.461 34.2633 163.601 34.5127 163.879 34.718C164.158 34.9087 164.693 35.1213 165.485 35.356C166.571 35.6787 167.37 36.1113 167.883 36.654C168.397 37.182 168.653 37.886 168.653 38.766C168.653 39.7927 168.257 40.6213 167.465 41.252C166.688 41.868 165.61 42.176 164.231 42.176ZM175.252 42.176C172.495 42.176 171.116 41.5673 171.116 40.35C171.116 39.9687 171.219 39.668 171.424 39.448C171.629 39.228 171.901 39.118 172.238 39.118C172.385 39.118 172.524 39.14 172.656 39.184C172.803 39.2133 173.081 39.294 173.492 39.426C173.668 39.4847 173.903 39.5433 174.196 39.602C174.489 39.6607 174.775 39.69 175.054 39.69C175.582 39.69 175.956 39.624 176.176 39.492C176.396 39.36 176.506 39.14 176.506 38.832C176.506 38.5827 176.447 38.392 176.33 38.26C176.213 38.1133 175.963 37.974 175.582 37.842C175.201 37.71 174.607 37.5267 173.8 37.292C173.067 37.0867 172.473 36.72 172.018 36.192C171.578 35.6493 171.358 34.982 171.358 34.19C171.358 33.0753 171.761 32.2247 172.568 31.638C173.375 31.0513 174.482 30.758 175.89 30.758C176.946 30.758 177.775 30.9047 178.376 31.198C178.977 31.4913 179.278 31.9167 179.278 32.474C179.278 32.826 179.175 33.1193 178.97 33.354C178.765 33.5887 178.486 33.706 178.134 33.706C177.987 33.706 177.811 33.684 177.606 33.64C177.415 33.596 177.181 33.5373 176.902 33.464C176.697 33.3907 176.477 33.332 176.242 33.288C176.022 33.244 175.787 33.222 175.538 33.222C174.834 33.222 174.482 33.4713 174.482 33.97C174.482 34.2633 174.621 34.5127 174.9 34.718C175.179 34.9087 175.714 35.1213 176.506 35.356C177.591 35.6787 178.391 36.1113 178.904 36.654C179.417 37.182 179.674 37.886 179.674 38.766C179.674 39.7927 179.278 40.6213 178.486 41.252C177.709 41.868 176.631 42.176 175.252 42.176ZM184.206 28.932C183.663 28.932 183.209 28.756 182.842 28.404C182.475 28.052 182.292 27.6193 182.292 27.106C182.292 26.5633 182.475 26.116 182.842 25.764C183.209 25.412 183.663 25.236 184.206 25.236C184.763 25.236 185.218 25.412 185.57 25.764C185.937 26.116 186.12 26.5633 186.12 27.106C186.12 27.6193 185.937 28.052 185.57 28.404C185.218 28.756 184.763 28.932 184.206 28.932ZM185.79 40.702C185.79 41.6847 185.277 42.176 184.25 42.176C183.751 42.176 183.355 42.0587 183.062 41.824C182.769 41.5747 182.622 41.2007 182.622 40.702V32.32C182.622 31.8507 182.739 31.484 182.974 31.22C183.223 30.956 183.634 30.824 184.206 30.824C184.778 30.824 185.181 30.956 185.416 31.22C185.665 31.484 185.79 31.8507 185.79 32.32V40.702ZM193.855 42.176C192.285 42.176 191.046 41.7287 190.137 40.834C189.227 39.9393 188.773 38.4947 188.773 36.5C188.773 34.4907 189.227 33.046 190.137 32.166C191.046 31.2713 192.285 30.824 193.855 30.824C195.424 30.824 196.663 31.2713 197.573 32.166C198.482 33.046 198.937 34.4907 198.937 36.5C198.937 38.4947 198.482 39.9393 197.573 40.834C196.663 41.7287 195.424 42.176 193.855 42.176ZM193.855 39.536C194.265 39.536 194.61 39.4553 194.889 39.294C195.167 39.118 195.38 38.81 195.527 38.37C195.688 37.93 195.769 37.3067 195.769 36.5C195.769 35.6933 195.688 35.07 195.527 34.63C195.38 34.19 195.167 33.8893 194.889 33.728C194.61 33.552 194.265 33.464 193.855 33.464C193.459 33.464 193.114 33.552 192.821 33.728C192.542 33.8893 192.322 34.19 192.161 34.63C192.014 35.07 191.941 35.6933 191.941 36.5C191.941 37.3067 192.014 37.93 192.161 38.37C192.322 38.81 192.542 39.118 192.821 39.294C193.114 39.4553 193.459 39.536 193.855 39.536ZM203.518 42.176C202.462 42.176 201.934 41.6773 201.934 40.68V35.4C201.934 33.992 202.381 32.8773 203.276 32.056C204.185 31.2347 205.38 30.824 206.862 30.824C208.343 30.824 209.531 31.2347 210.426 32.056C211.335 32.8773 211.79 33.992 211.79 35.4V40.68C211.79 41.6773 211.262 42.176 210.206 42.176C209.15 42.176 208.622 41.6773 208.622 40.68V35.576C208.622 34.8867 208.468 34.366 208.16 34.014C207.852 33.6473 207.419 33.464 206.862 33.464C206.304 33.464 205.872 33.6473 205.564 34.014C205.256 34.366 205.102 34.8867 205.102 35.576V40.68C205.102 41.6773 204.574 42.176 203.518 42.176ZM218.754 42.176C215.997 42.176 214.618 41.5673 214.618 40.35C214.618 39.9687 214.721 39.668 214.926 39.448C215.132 39.228 215.403 39.118 215.74 39.118C215.887 39.118 216.026 39.14 216.158 39.184C216.305 39.2133 216.584 39.294 216.994 39.426C217.17 39.4847 217.405 39.5433 217.698 39.602C217.992 39.6607 218.278 39.69 218.556 39.69C219.084 39.69 219.458 39.624 219.678 39.492C219.898 39.36 220.008 39.14 220.008 38.832C220.008 38.5827 219.95 38.392 219.832 38.26C219.715 38.1133 219.466 37.974 219.084 37.842C218.703 37.71 218.109 37.5267 217.302 37.292C216.569 37.0867 215.975 36.72 215.52 36.192C215.08 35.6493 214.86 34.982 214.86 34.19C214.86 33.0753 215.264 32.2247 216.07 31.638C216.877 31.0513 217.984 30.758 219.392 30.758C220.448 30.758 221.277 30.9047 221.878 31.198C222.48 31.4913 222.78 31.9167 222.78 32.474C222.78 32.826 222.678 33.1193 222.472 33.354C222.267 33.5887 221.988 33.706 221.636 33.706C221.49 33.706 221.314 33.684 221.108 33.64C220.918 33.596 220.683 33.5373 220.404 33.464C220.199 33.3907 219.979 33.332 219.744 33.288C219.524 33.244 219.29 33.222 219.04 33.222C218.336 33.222 217.984 33.4713 217.984 33.97C217.984 34.2633 218.124 34.5127 218.402 34.718C218.681 34.9087 219.216 35.1213 220.008 35.356C221.094 35.6787 221.893 36.1113 222.406 36.654C222.92 37.182 223.176 37.886 223.176 38.766C223.176 39.7927 222.78 40.6213 221.988 41.252C221.211 41.868 220.133 42.176 218.754 42.176Z" fill="black"/>
<defs>
<filter id="filter0_d_2026_2095" x="0" y="0" width="356" height="63" filterUnits="userSpaceOnUse" color-interpolation-filters="sRGB">
<feFlood flood-opacity="0" result="BackgroundImageFix"/>
<feColorMatrix in="SourceAlpha" type="matrix" values="0 0 0 0 0 0 0 0 0 0 0 0 0 0 0 0 0 0 127 0" result="hardAlpha"/>
<feOffset dy="4"/>
<feGaussianBlur stdDeviation="2"/>
<feComposite in2="hardAlpha" operator="out"/>
<feColorMatrix type="matrix" values="0 0 0 0 0 0 0 0 0 0 0 0 0 0 0 0 0 0 0.25 0"/>
<feBlend mode="normal" in2="BackgroundImageFix" result="effect1_dropShadow_2026_2095"/>
<feBlend mode="normal" in="SourceGraphic" in2="effect1_dropShadow_2026_2095" result="shape"/>
</filter>
</defs>
</svg>
