<svg xmlns="http://www.w3.org/2000/svg" xmlns:xlink="http://www.w3.org/1999/xlink" width="500" zoomAndPan="magnify" viewBox="0 0 375 374.999991" height="500" preserveAspectRatio="xMidYMid meet" version="1.0"><defs><clipPath id="d315c7b643"><path d="M 48.765625 15 L 326.265625 15 L 326.265625 362 L 48.765625 362 Z M 48.765625 15 " clip-rule="nonzero"/></clipPath></defs><path fill="#f4ddb3" d="M 134.308594 168.824219 C 134.859375 169.648438 136.371094 171.945312 136.371094 171.945312 C 133.546875 175.765625 130.320312 177.203125 130.320312 177.203125 L 130.039062 176.695312 C 126.976562 171.207031 122.742188 167.125 117.847656 163.382812 C 115.113281 161.289062 111.925781 159.34375 108.859375 157.738281 C 106.890625 156.707031 102.527344 154.761719 102.210938 154.59375 C 103.195312 152 106.917969 147.554688 106.917969 147.554688 C 106.917969 147.554688 107.957031 147.832031 109.222656 148.367188 C 112.613281 149.789062 114.578125 150.804688 117.316406 152.523438 C 120.824219 154.726562 123.324219 156.648438 126.355469 159.476562 C 129.351562 162.277344 132.035156 165.410156 134.308594 168.824219 Z M 134.308594 168.824219 " fill-opacity="1" fill-rule="nonzero"/><path fill="#e5b956" d="M 138.058594 169.398438 C 137.882812 169.710938 137.597656 170.238281 137.597656 170.238281 C 134.332031 164.777344 129.914062 159.679688 124.992188 155.65625 C 120.113281 151.667969 114.460938 148.105469 108.4375 146.078125 C 108.4375 146.078125 108.746094 145.703125 108.964844 145.515625 C 113.542969 141.578125 120.5625 140.226562 126.417969 141.523438 C 127.335938 141.726562 128.238281 142 129.113281 142.34375 C 139.574219 146.449219 143.332031 160.167969 138.058594 169.402344 Z M 105.648438 158.230469 C 104.5 157.574219 101.542969 156.40625 101.542969 156.40625 C 101.542969 156.40625 101.195312 157.425781 101.117188 157.707031 C 100.230469 160.953125 100.023438 163.832031 99.914062 167.171875 C 99.898438 167.707031 99.9375 168.300781 99.9375 168.300781 C 99.9375 168.300781 102.261719 169.648438 103.039062 170.167969 C 108.839844 174.027344 121.609375 181.929688 121.609375 181.929688 C 121.609375 181.929688 121.972656 181.785156 122.667969 181.429688 C 124.488281 180.492188 126.898438 179.128906 128.722656 178.195312 C 128.722656 178.195312 125.164062 172.523438 122.089844 169.460938 C 117.019531 164.578125 111.890625 161.394531 105.648438 158.230469 Z M 105.648438 158.230469 " fill-opacity="1" fill-rule="nonzero"/><path fill="#aabebc" d="M 119.316406 184.550781 C 119.316406 184.550781 110.515625 199.597656 106.070312 206.523438 C 104.28125 209.308594 102.589844 212.148438 101.039062 215.074219 C 99.945312 217.136719 98.710938 219.125 97.527344 221.140625 C 97.351562 221.441406 96.683594 222.609375 96.683594 222.609375 C 95.671875 221.136719 94.25 219.796875 92.839844 218.734375 C 90.207031 216.753906 88.800781 216.308594 85.261719 215.722656 C 84.128906 215.535156 82.691406 215.652344 82.371094 215.609375 C 82.675781 214.523438 84.113281 211.261719 84.113281 211.261719 C 84.113281 211.261719 85.828125 211.011719 86.515625 210.882812 C 88.410156 210.53125 89.789062 210.171875 91.464844 209.664062 C 94.992188 208.597656 98.4375 207.289062 101.785156 205.734375 C 106.574219 203.515625 109.335938 199.617188 110.820312 194.683594 C 110.953125 194.234375 111.027344 193.769531 111.140625 193.316406 C 112.117188 189.347656 110.476562 184.460938 107.121094 182.058594 C 104.21875 179.976562 102.117188 178.6875 97.839844 178.082031 C 97.675781 178.058594 96.710938 177.886719 96.257812 177.90625 C 96.40625 177.480469 98.714844 173.527344 99.601562 171.945312 C 99.601562 171.945312 99.679688 172.015625 100.175781 172.296875 C 101.246094 172.898438 102.328125 173.484375 103.359375 174.148438 C 105.917969 175.796875 108.4375 177.5 110.992188 179.152344 C 113.5 180.773438 119.316406 184.550781 119.316406 184.550781 Z M 93.082031 221.519531 C 92.4375 220.898438 91.675781 220.042969 88.960938 218.734375 C 86.113281 217.359375 82.035156 217.203125 81.660156 218.214844 C 81.078125 219.78125 83.890625 222.296875 85.210938 223.25 C 87.136719 224.640625 88.929688 225.148438 91.015625 225.417969 C 92.359375 225.59375 95.167969 225.40625 95.082031 224.148438 C 95.019531 223.207031 93.417969 221.839844 93.082031 221.519531 Z M 93.082031 221.519531 " fill-opacity="1" fill-rule="nonzero"/><path fill="#fffcf6" d="M 313.214844 284.113281 C 308.515625 277.394531 304.144531 270.457031 299.679688 263.585938 C 298.980469 262.503906 297.164062 259.535156 297.164062 259.535156 L 296.40625 259.835938 C 293.472656 260.996094 290.179688 260.511719 287.199219 259.816406 C 284.4375 259.171875 281.679688 258.558594 278.96875 257.710938 C 273.484375 255.992188 268.199219 253.539062 263.566406 250.109375 C 261.40625 248.507812 259.394531 246.703125 257.582031 244.710938 C 257.121094 244.203125 256.671875 243.6875 256.234375 243.15625 C 255.527344 242.300781 254.828125 241.4375 254.148438 240.554688 C 253.816406 240.121094 253.808594 239.734375 254.050781 239.644531 C 254.363281 239.523438 254.617188 239.660156 254.851562 239.847656 C 255.035156 239.992188 255.214844 240.144531 255.390625 240.300781 C 257.179688 241.898438 258.980469 243.484375 260.75 245.105469 C 264.945312 248.945312 270.285156 251.640625 275.597656 253.550781 C 278.769531 254.691406 282.03125 255.574219 285.320312 256.308594 C 288.289062 256.972656 291.667969 258.125 294.703125 257.542969 C 298.6875 256.777344 294.703125 252.621094 293.613281 251.277344 C 291.492188 248.652344 292.285156 244.667969 294.542969 242.367188 C 297.023438 239.835938 301.691406 239.207031 305.03125 239.476562 C 309.996094 239.878906 314.183594 242.300781 318.339844 244.835938 C 318.339844 244.835938 315.210938 240.253906 314.453125 238.933594 C 311.761719 234.269531 309.066406 229.605469 306.472656 224.886719 C 304.640625 221.554688 302.902344 218.164062 301.714844 214.527344 C 300.257812 210.0625 299.164062 205.515625 298.476562 200.875 C 297.960938 197.394531 297.75 193.886719 297.824219 190.371094 C 297.851562 189.023438 297.972656 187.679688 298.023438 186.335938 C 298.191406 181.929688 298.824219 177.597656 299.949219 173.332031 C 301.824219 166.21875 304.761719 158.378906 303.90625 150.921875 C 303.484375 147.265625 301.820312 143.585938 298.753906 141.550781 C 293.777344 138.253906 288.058594 140.335938 283.273438 142.792969 C 280.453125 144.238281 277.710938 145.832031 275.007812 147.492188 C 269.589844 150.828125 264.339844 154.433594 258.890625 157.726562 C 254.667969 160.285156 250.277344 162.546875 245.921875 164.867188 C 243.339844 166.246094 240.722656 167.550781 237.921875 168.441406 C 237.421875 168.597656 236.917969 168.765625 236.398438 168.847656 C 235.96875 168.914062 235.605469 168.703125 235.382812 168.300781 C 235.152344 167.878906 235.265625 167.496094 235.550781 167.164062 C 235.738281 166.945312 235.972656 166.757812 236.214844 166.601562 C 236.707031 166.28125 237.210938 165.980469 237.71875 165.695312 C 243.691406 162.347656 249.679688 159.027344 255.511719 155.441406 C 259.148438 153.203125 266.988281 147.960938 266.988281 147.960938 C 266.988281 147.960938 267.617188 143.21875 267.742188 141.234375 C 268.628906 127.285156 268.136719 113.503906 266.113281 99.664062 C 265.335938 94.371094 264.363281 89.109375 263.191406 83.890625 C 262.628906 81.386719 262.128906 78.800781 261.289062 76.386719 C 260.457031 73.980469 259.367188 71.535156 258.671875 69.09375 C 255.371094 61.316406 251.285156 53.753906 246.269531 46.945312 C 239.246094 37.402344 230.316406 29.945312 219.378906 25.3125 C 213.867188 22.976562 208.289062 20.632812 202.363281 19.570312 C 181.734375 15.863281 161.785156 25.0625 145.246094 36.527344 C 114.703125 57.695312 102.167969 94.917969 99.359375 130.476562 C 99.011719 134.929688 98.863281 139.378906 98.757812 143.84375 C 98.679688 147.308594 99.269531 154.753906 99.269531 154.753906 C 99.40625 154.511719 99.996094 153.054688 100.113281 152.800781 C 100.800781 151.304688 101.699219 149.820312 102.679688 148.503906 C 109.003906 140.023438 120.40625 135.496094 130.480469 140.035156 C 135.828125 142.445312 140.3125 146.683594 142.167969 152.316406 C 144.242188 158.617188 143.429688 165.601562 140.109375 171.328125 C 136.480469 177.582031 130.972656 180.601562 124.207031 183.40625 C 123.746094 183.597656 122.5 184.214844 122.5 184.214844 C 122.5 184.214844 119.035156 190.089844 117.488281 192.710938 C 114.816406 197.25 112.292969 201.878906 109.484375 206.339844 C 107.894531 208.867188 106.351562 211.421875 104.84375 214 C 103.632812 216.074219 102.527344 218.207031 101.339844 220.292969 C 99.855469 222.902344 98.574219 225.761719 95.652344 226.980469 C 93.585938 227.84375 90.230469 228.292969 86.15625 226.464844 C 82.527344 224.835938 79.765625 222.09375 79.160156 218.417969 C 79.054688 217.773438 79.195312 216.925781 79.402344 216.296875 C 79.914062 214.742188 81.53125 211.265625 81.53125 211.265625 C 81.53125 211.265625 79.910156 211.070312 79.75 210.503906 C 79.59375 209.941406 80.734375 209.613281 81.265625 209.425781 C 81.699219 209.269531 82.164062 209.191406 82.621094 209.097656 C 87.566406 208.074219 92.519531 206.847656 97.132812 204.742188 C 101.300781 202.835938 106.09375 200.179688 107.835938 195.683594 C 108.972656 192.753906 108.941406 188.976562 107.128906 186.3125 C 105.503906 183.921875 102.707031 182.683594 99.964844 182.117188 C 91.679688 180.398438 84.136719 183.71875 78.53125 189.816406 C 75.148438 193.492188 72.378906 197.882812 70.613281 202.613281 C 68.699219 207.75 68.066406 213.386719 67.625 218.820312 C 67.3125 222.675781 67.078125 226.53125 66.761719 230.386719 C 66.152344 237.835938 66.632812 245.25 67.394531 252.65625 C 67.765625 256.269531 68.355469 259.851562 69.011719 263.421875 C 69.636719 266.820312 71.734375 274.535156 71.734375 274.535156 C 74.65625 271.390625 77.59375 269.027344 82.121094 269.621094 C 85.847656 270.113281 89.394531 271.632812 92.425781 273.84375 C 95.609375 276.167969 97.917969 279.292969 100.363281 282.335938 C 101.902344 284.253906 103.445312 286.164062 105.207031 287.890625 C 107.402344 290.042969 109.910156 291.746094 112.597656 293.203125 C 113.054688 293.449219 115.011719 294.230469 115.011719 294.230469 C 115.011719 294.230469 114.851562 288.375 114.816406 287.554688 C 114.558594 281.351562 114.519531 278.1875 114.015625 272 C 113.707031 268.207031 113.457031 264.40625 113.167969 260.613281 C 112.878906 256.816406 112.582031 253.019531 112.273438 249.226562 C 111.957031 245.375 111.601562 241.527344 110.949219 237.714844 C 110.773438 236.679688 110.660156 235.628906 110.542969 234.578125 C 110.507812 234.234375 110.515625 233.875 110.574219 233.53125 C 110.597656 233.394531 110.777344 233.222656 110.921875 233.179688 C 111.058594 233.140625 111.269531 233.210938 111.394531 233.300781 C 111.785156 233.597656 111.953125 234.054688 112.097656 234.496094 C 112.390625 235.386719 112.65625 236.285156 112.90625 237.1875 C 114.003906 241.152344 114.503906 245.222656 114.957031 249.292969 C 115.617188 255.230469 116.1875 261.175781 116.707031 267.125 C 117.289062 273.777344 117.71875 280.4375 117.921875 287.113281 C 118.058594 291.566406 118.214844 296.011719 117.839844 300.457031 C 117.699219 302.148438 117.589844 303.84375 117.449219 305.535156 C 117.191406 308.625 117 311.726562 116.640625 314.808594 C 115.984375 320.453125 114.734375 326 113.613281 331.5625 C 113.195312 333.632812 112.839844 335.707031 112.695312 337.808594 C 112.609375 339.027344 112.566406 340.257812 112.984375 341.515625 C 113.371094 341.367188 113.699219 341.261719 114.007812 341.113281 C 119.839844 338.296875 126.566406 337.964844 132.855469 339.171875 C 136.484375 339.867188 140 341.109375 143.246094 342.882812 C 143.550781 343.050781 144.765625 343.707031 144.765625 343.707031 C 144.765625 343.707031 143.542969 331.359375 143.363281 329.433594 C 143.03125 325.878906 142.695312 322.320312 142.402344 318.761719 C 142.109375 315.203125 141.917969 311.632812 141.59375 308.078125 C 140.933594 300.785156 140.410156 293.488281 140.078125 286.171875 C 139.921875 282.664062 139.785156 279.152344 139.519531 275.648438 C 139.105469 270.21875 138.570312 264.796875 138.121094 259.371094 C 137.527344 252.246094 137.164062 245.113281 137.164062 237.964844 C 137.164062 236.207031 137.128906 234.449219 137.125 232.691406 C 137.121094 231.929688 137.136719 231.167969 137.179688 230.410156 C 137.195312 230.128906 137.285156 229.835938 137.394531 229.570312 C 137.484375 229.359375 137.660156 229.175781 137.929688 229.199219 C 138.1875 229.222656 138.34375 229.40625 138.425781 229.632812 C 138.5 229.851562 138.535156 230.085938 138.578125 230.316406 C 139.0625 232.96875 139.433594 235.632812 139.519531 238.332031 C 139.738281 245.007812 140.308594 251.664062 140.742188 258.324219 C 140.84375 259.902344 141.003906 261.476562 141.15625 263.050781 C 141.550781 267.070312 142.007812 271.085938 142.347656 275.113281 C 142.742188 279.777344 143.054688 284.457031 143.210938 289.140625 C 143.285156 291.363281 143.445312 293.585938 143.609375 295.804688 C 143.90625 299.773438 144.253906 303.742188 144.554688 307.710938 C 145.082031 314.789062 145.523438 321.871094 146.082031 328.945312 C 146.367188 332.566406 146.691406 336.199219 147.21875 339.792969 C 147.347656 340.707031 147.484375 341.625 147.632812 342.535156 C 147.597656 342.332031 148.773438 341.191406 148.949219 340.984375 C 149.402344 340.453125 149.890625 339.960938 150.417969 339.511719 C 151.480469 338.609375 152.679688 337.875 153.941406 337.285156 C 157.179688 335.769531 160.800781 334.996094 164.367188 334.890625 C 168.824219 334.757812 173.089844 335.570312 177.195312 337.308594 C 182.148438 339.410156 187.125 341.457031 192.09375 343.519531 C 192.4375 343.664062 193.5625 344.097656 193.5625 344.097656 C 193.5625 344.097656 192.796875 342.828125 192.554688 342.433594 C 191.304688 340.378906 190.179688 338.261719 189.160156 336.085938 C 186.644531 330.730469 184.460938 325.242188 182.757812 319.566406 C 181.546875 315.53125 180.277344 311.511719 179.058594 307.480469 C 178.105469 304.34375 177.257812 301.179688 176.507812 297.984375 C 173.589844 285.550781 171.285156 273.007812 169.75 260.324219 C 168.933594 253.578125 168.351562 246.8125 168.015625 240.023438 C 167.746094 234.519531 167.664062 229.019531 167.753906 223.515625 C 167.78125 222.046875 167.832031 220.585938 168.089844 219.140625 C 168.140625 218.863281 168.28125 218.597656 168.414062 218.34375 C 168.453125 218.273438 168.621094 218.230469 168.722656 218.242188 C 168.820312 218.253906 168.960938 218.324219 169 218.40625 C 169.230469 218.90625 169.136719 219.441406 169.148438 219.964844 C 169.265625 225.46875 169.367188 230.96875 169.746094 236.464844 C 170.132812 242.132812 170.535156 247.796875 171.164062 253.445312 C 171.707031 258.335938 172.351562 263.210938 173.109375 268.070312 C 174.183594 274.953125 175.429688 281.808594 176.859375 288.625 C 178.519531 296.535156 180.398438 304.386719 182.808594 312.105469 C 184.011719 315.960938 185.339844 319.777344 186.714844 323.574219 C 188.394531 328.203125 190.488281 332.800781 193.058594 336.996094 C 195.421875 340.847656 198.21875 344.792969 202.074219 347.273438 C 204.734375 348.984375 207.804688 349.902344 210.894531 350.457031 C 213.75 350.972656 216.75 351.457031 219.621094 351.703125 C 225.019531 352.167969 230.453125 352 235.851562 351.617188 C 237.957031 351.464844 240.082031 351.277344 242.097656 350.636719 C 243.773438 350.105469 248.8125 347.851562 246.582031 345.542969 C 244.625 343.511719 241.558594 343.164062 239.027344 342.171875 C 228.679688 338.128906 223.25 325.410156 220.082031 315.628906 C 217.574219 307.882812 215.476562 300.015625 213.773438 292.0625 C 211.582031 281.808594 209.882812 271.472656 208.734375 261.046875 C 208.058594 254.929688 207.660156 248.796875 207.480469 242.648438 C 207.4375 241.242188 207.46875 239.835938 207.691406 238.441406 C 207.738281 238.152344 207.773438 237.859375 207.859375 237.582031 C 207.929688 237.355469 208.109375 237.160156 208.371094 237.230469 C 208.515625 237.265625 208.714844 237.421875 208.738281 237.550781 C 208.878906 238.296875 209.003906 239.050781 209.085938 239.804688 C 209.445312 243.179688 209.8125 246.558594 210.144531 249.9375 C 210.804688 256.699219 211.777344 263.417969 212.941406 270.113281 C 214.761719 280.550781 216.605469 290.980469 219.359375 301.226562 C 220.835938 306.710938 222.183594 312.226562 223.921875 317.636719 C 225.265625 321.828125 230.160156 330.621094 230.160156 330.621094 C 230.160156 330.621094 233.421875 324.085938 241.480469 321.707031 C 249.296875 319.394531 256.648438 321.414062 264.066406 324.03125 C 267.398438 325.207031 270.789062 326.15625 274.097656 327.382812 C 279.730469 329.46875 285.5625 331.429688 291.640625 331.339844 C 294.554688 331.296875 314.207031 328.824219 309.78125 323.265625 C 308.699219 321.90625 306.628906 321.25 305.132812 320.46875 C 302.070312 318.875 299.015625 317.324219 296.113281 315.457031 C 292.890625 313.386719 289.902344 311.066406 287.171875 308.394531 C 284.113281 305.402344 281.289062 302.191406 278.574219 298.886719 C 274.257812 293.632812 270.277344 288.136719 266.417969 282.542969 C 258.339844 270.839844 251.40625 258.519531 246.042969 245.335938 C 245.515625 244.035156 245.011719 242.722656 244.535156 241.402344 C 244.378906 240.96875 244.328125 240.496094 244.253906 240.035156 C 244.242188 239.964844 244.355469 239.820312 244.4375 239.800781 C 244.527344 239.777344 244.683594 239.824219 244.742188 239.894531 C 244.957031 240.167969 245.175781 240.449219 245.34375 240.753906 C 245.84375 241.679688 246.328125 242.613281 246.804688 243.554688 C 249.414062 248.664062 251.914062 253.828125 254.640625 258.878906 C 260.851562 270.394531 268.089844 281.253906 276.003906 291.664062 C 279.941406 296.84375 284.0625 301.863281 288.625 306.511719 C 291.265625 309.199219 294.121094 311.605469 297.359375 313.539062 C 297.578125 313.667969 298.140625 314.054688 298.140625 314.054688 C 298.140625 314.054688 297.355469 311.066406 298.34375 309.070312 C 298.871094 308 299.359375 306.910156 300.144531 306.007812 C 302.320312 303.519531 304.824219 301.460938 307.738281 299.871094 C 311.332031 297.910156 315.179688 296.6875 319.160156 295.808594 C 319.558594 295.722656 319.945312 295.617188 320.335938 295.511719 C 320.859375 295.371094 321.410156 295.296875 321.882812 295.035156 C 321.882812 295.035156 315.574219 287.480469 313.21875 284.113281 Z M 160.90625 83.265625 C 159.585938 91.792969 156.421875 102.3125 150.980469 108.367188 C 148.140625 111.523438 144.085938 113.511719 140.171875 112.539062 C 134.734375 111.183594 131.140625 104.488281 130.636719 98.050781 C 130.207031 92.535156 131.539062 87.179688 133.046875 82.078125 C 134.5 77.164062 135.941406 72.285156 138.488281 67.960938 C 140.527344 64.503906 143.316406 61.511719 146.753906 60.207031 C 150.195312 58.898438 154.332031 59.511719 157.082031 62.40625 C 159.804688 65.273438 161.007812 69.300781 161.359375 73.484375 C 161.640625 76.8125 161.378906 80.242188 160.910156 83.265625 Z M 211.878906 96.285156 C 210.554688 104.8125 207.390625 115.332031 201.949219 121.386719 C 199.113281 124.542969 195.058594 126.53125 191.140625 125.558594 C 185.703125 124.203125 182.109375 117.507812 181.609375 111.074219 C 181.179688 105.554688 182.511719 100.199219 184.019531 95.097656 C 185.46875 90.183594 186.910156 85.304688 189.460938 80.980469 C 191.5 77.523438 194.285156 74.535156 197.726562 73.226562 C 201.164062 71.917969 205.300781 72.53125 208.050781 75.429688 C 210.773438 78.292969 211.980469 82.320312 212.332031 86.503906 C 212.609375 89.835938 212.347656 93.261719 211.882812 96.285156 Z M 211.878906 96.285156 " fill-opacity="1" fill-rule="nonzero"/><g clip-path="url(#d315c7b643)"><path fill="#020305" d="M 60.140625 94.84375 C 58.28125 88.585938 56.414062 82.164062 54.46875 75.328125 L 76.382812 66.214844 L 81.070312 82.824219 C 78.582031 82.777344 76.597656 83.289062 75.128906 84.347656 C 74.640625 84.703125 74.207031 85.117188 73.832031 85.589844 C 73.335938 86.226562 72.941406 86.964844 72.648438 87.816406 C 72.5 88.253906 72.425781 88.699219 72.425781 89.136719 C 72.425781 89.285156 72.433594 89.429688 72.449219 89.574219 C 72.464844 89.71875 72.488281 89.863281 72.523438 90.007812 C 72.621094 90.433594 72.792969 90.847656 73.039062 91.238281 C 73.71875 92.324219 74.855469 93.035156 76.152344 93.195312 C 76.605469 93.25 77.078125 93.246094 77.558594 93.195312 C 77.800781 93.167969 78.039062 93.128906 78.28125 93.074219 C 79.484375 92.816406 80.683594 92.25 81.628906 91.453125 C 82.449219 90.765625 83.066406 90.039062 83.515625 89.226562 C 83.925781 88.484375 84.144531 87.734375 84.171875 86.980469 C 84.1875 86.527344 84.132812 86.074219 84.007812 85.621094 C 83.710938 84.535156 83.394531 83.4375 83.085938 82.375 C 82.949219 81.898438 82.808594 81.417969 82.671875 80.9375 C 82.472656 80.238281 82.257812 79.488281 82.03125 78.695312 C 81.9375 78.378906 81.847656 78.058594 81.75 77.726562 C 81.65625 77.398438 81.558594 77.066406 81.460938 76.726562 C 81.367188 76.386719 81.265625 76.042969 81.164062 75.691406 C 81.066406 75.34375 80.964844 74.992188 80.863281 74.632812 C 80.5 73.386719 80.128906 72.101562 79.757812 70.804688 C 79.703125 70.621094 79.648438 70.433594 79.597656 70.25 C 78.898438 67.839844 78.199219 65.425781 77.558594 63.222656 C 77.511719 63.050781 77.460938 62.882812 77.414062 62.714844 C 77.074219 61.546875 76.753906 60.441406 76.460938 59.4375 C 76.375 59.148438 76.292969 58.871094 76.214844 58.601562 C 76.136719 58.332031 76.0625 58.066406 75.988281 57.816406 C 75.949219 57.691406 75.914062 57.566406 75.878906 57.445312 C 75.738281 56.964844 75.609375 56.523438 75.492188 56.125 C 75.117188 54.839844 74.878906 54.046875 74.851562 53.964844 L 74.832031 53.910156 L 74.773438 53.925781 C 74.71875 53.941406 74.191406 54.152344 73.328125 54.496094 C 73.136719 54.574219 72.929688 54.660156 72.703125 54.75 C 72.589844 54.796875 72.476562 54.839844 72.355469 54.890625 C 71.996094 55.035156 71.605469 55.191406 71.1875 55.363281 C 70.488281 55.644531 69.710938 55.960938 68.878906 56.296875 C 65.722656 57.578125 61.765625 59.191406 58.246094 60.628906 C 58.0625 60.707031 57.878906 60.78125 57.695312 60.855469 C 56.964844 61.15625 56.257812 61.445312 55.582031 61.71875 C 55.078125 61.925781 54.589844 62.125 54.128906 62.316406 C 53.820312 62.441406 53.519531 62.566406 53.234375 62.679688 C 52.519531 62.976562 51.882812 63.238281 51.339844 63.460938 C 50.6875 63.730469 50.175781 63.941406 49.847656 64.082031 C 49.792969 64.105469 49.742188 64.125 49.695312 64.144531 C 49.5625 64.203125 49.472656 64.238281 49.4375 64.257812 L 49.386719 64.28125 L 49.492188 64.648438 L 49.542969 64.835938 C 49.644531 65.195312 49.742188 65.546875 49.84375 65.898438 C 50.675781 68.78125 51.5 71.691406 52.316406 74.59375 C 53.132812 77.492188 53.941406 80.382812 54.738281 83.222656 C 55.253906 85.054688 55.769531 86.886719 56.285156 88.722656 C 56.542969 89.636719 56.796875 90.554688 57.054688 91.472656 C 57.121094 91.699219 57.175781 91.933594 57.230469 92.160156 C 57.25 92.242188 57.269531 92.328125 57.289062 92.414062 C 57.246094 92.417969 57.179688 92.421875 57.109375 92.425781 C 56.984375 92.4375 56.832031 92.445312 56.671875 92.453125 C 56.292969 92.476562 55.820312 92.503906 55.378906 92.542969 C 55.054688 92.570312 54.746094 92.605469 54.515625 92.644531 C 54.441406 92.65625 54.371094 92.671875 54.316406 92.6875 C 54.03125 92.757812 53.753906 92.847656 53.484375 92.949219 C 51.855469 93.566406 50.484375 94.699219 49.628906 96.132812 C 49.488281 96.371094 49.359375 96.617188 49.246094 96.871094 C 49.019531 97.390625 48.878906 97.917969 48.832031 98.4375 C 48.816406 98.613281 48.808594 98.785156 48.8125 98.953125 C 48.828125 99.636719 48.996094 100.292969 49.328125 100.871094 C 49.410156 101.015625 49.5 101.152344 49.597656 101.285156 C 49.988281 101.804688 50.503906 102.21875 51.109375 102.507812 C 51.566406 102.722656 52.078125 102.867188 52.628906 102.933594 C 52.839844 102.957031 53.050781 102.972656 53.261719 102.972656 C 53.683594 102.980469 54.109375 102.941406 54.535156 102.863281 C 54.746094 102.824219 54.957031 102.773438 55.167969 102.714844 C 56.566406 102.320312 57.890625 101.484375 58.867188 100.328125 C 59.378906 99.71875 59.765625 99.058594 60.019531 98.371094 C 60.144531 98.027344 60.238281 97.675781 60.296875 97.324219 C 60.355469 96.96875 60.382812 96.613281 60.371094 96.257812 C 60.359375 95.78125 60.285156 95.304688 60.144531 94.839844 Z M 75.8125 64.199219 L 53.898438 73.316406 C 53.652344 72.453125 53.410156 71.585938 53.160156 70.710938 L 75.039062 61.453125 L 75.816406 64.199219 Z M 161.355469 73.484375 C 161.636719 76.8125 161.375 80.242188 160.90625 83.265625 C 159.585938 91.792969 156.421875 102.3125 150.976562 108.367188 C 148.140625 111.523438 144.085938 113.511719 140.171875 112.539062 C 134.734375 111.183594 131.136719 104.488281 130.636719 98.050781 C 130.207031 92.535156 131.539062 87.179688 133.046875 82.078125 C 134.5 77.164062 135.941406 72.285156 138.488281 67.960938 C 140.527344 64.503906 143.3125 61.511719 146.753906 60.207031 C 150.191406 58.898438 154.328125 59.511719 157.078125 62.40625 C 159.804688 65.273438 161.007812 69.300781 161.359375 73.484375 Z M 212.328125 86.503906 C 212.605469 89.835938 212.34375 93.261719 211.878906 96.285156 C 210.554688 104.8125 207.390625 115.332031 201.949219 121.386719 C 199.109375 124.542969 195.054688 126.53125 191.140625 125.558594 C 185.703125 124.203125 182.109375 117.507812 181.605469 111.074219 C 181.175781 105.554688 182.507812 100.199219 184.015625 95.097656 C 185.46875 90.183594 186.910156 85.304688 189.457031 80.980469 C 191.496094 77.523438 194.285156 74.535156 197.722656 73.226562 C 201.164062 71.917969 205.300781 72.53125 208.050781 75.429688 C 210.773438 78.292969 211.976562 82.320312 212.328125 86.503906 Z M 97.136719 54.285156 C 97.132812 54.152344 97.136719 54.015625 97.144531 53.875 C 97.164062 53.605469 97.203125 53.34375 97.265625 53.089844 C 97.328125 52.835938 97.410156 52.589844 97.511719 52.355469 C 97.613281 52.121094 97.730469 51.894531 97.867188 51.679688 C 98.070312 51.355469 98.308594 51.054688 98.578125 50.773438 C 99.199219 50.121094 99.976562 49.597656 100.800781 49.222656 C 101.066406 49.101562 101.328125 48.996094 101.59375 48.90625 C 102.507812 48.59375 103.398438 48.476562 104.296875 48.511719 C 104.554688 48.523438 104.8125 48.542969 105.070312 48.578125 C 105.199219 48.597656 105.332031 48.617188 105.460938 48.640625 C 105.980469 48.734375 106.507812 48.875 107.046875 49.050781 C 107.101562 49.070312 107.15625 49.085938 107.210938 49.101562 C 107.378906 49.152344 107.5625 49.203125 107.816406 49.273438 L 107.816406 48.136719 C 107.816406 37.695312 107.816406 27.257812 107.816406 16.820312 C 107.816406 16.746094 107.816406 16.671875 107.816406 16.59375 C 107.816406 16.515625 107.816406 16.4375 107.820312 16.363281 C 107.820312 16.285156 107.828125 16.207031 107.835938 16.128906 C 107.859375 15.9375 107.90625 15.75 107.988281 15.585938 C 108.070312 15.417969 108.191406 15.269531 108.375 15.164062 C 108.632812 15.015625 108.855469 15.035156 109.050781 15.160156 C 109.144531 15.226562 109.234375 15.3125 109.316406 15.421875 C 109.355469 15.476562 109.394531 15.53125 109.433594 15.59375 C 109.507812 15.714844 109.574219 15.851562 109.636719 15.992188 C 109.667969 16.0625 109.695312 16.136719 109.722656 16.207031 C 109.777344 16.351562 109.828125 16.496094 109.875 16.632812 C 109.964844 16.910156 110.035156 17.152344 110.089844 17.304688 C 110.441406 18.242188 110.882812 19.148438 111.410156 20 C 111.582031 20.289062 111.765625 20.566406 111.960938 20.839844 C 112.453125 21.539062 113.015625 22.15625 113.621094 22.734375 C 114.226562 23.3125 114.871094 23.847656 115.535156 24.378906 C 115.730469 24.539062 115.925781 24.699219 116.113281 24.863281 C 116.488281 25.195312 116.847656 25.539062 117.179688 25.90625 C 118.011719 26.816406 118.695312 27.847656 119.140625 29.066406 C 119.21875 29.277344 119.289062 29.488281 119.355469 29.699219 C 119.609375 30.546875 119.75 31.394531 119.734375 32.25 C 119.71875 32.886719 119.621094 33.527344 119.417969 34.171875 C 119.222656 34.785156 118.996094 35.390625 118.742188 35.984375 C 118.617188 36.277344 118.484375 36.570312 118.339844 36.859375 C 118.199219 37.148438 118.050781 37.433594 117.894531 37.714844 C 117.582031 38.28125 117.238281 38.828125 116.867188 39.355469 C 116.835938 39.402344 116.800781 39.453125 116.761719 39.5 C 116.65625 39.644531 116.535156 39.785156 116.398438 39.894531 C 116.355469 39.933594 116.304688 39.964844 116.257812 39.996094 C 116.109375 40.085938 115.941406 40.140625 115.746094 40.136719 C 115.566406 40.128906 115.402344 40.074219 115.277344 39.984375 C 115.074219 39.832031 114.976562 39.578125 115.082031 39.269531 C 115.113281 39.1875 115.148438 39.105469 115.1875 39.023438 C 115.300781 38.78125 115.449219 38.550781 115.578125 38.316406 C 116.03125 37.476562 116.425781 36.617188 116.730469 35.726562 C 116.882812 35.285156 117.007812 34.832031 117.109375 34.371094 C 117.207031 33.914062 117.28125 33.449219 117.320312 32.972656 C 117.34375 32.683594 117.351562 32.402344 117.347656 32.121094 C 117.316406 30.726562 116.910156 29.441406 116.074219 28.402344 C 115.910156 28.191406 115.726562 27.996094 115.523438 27.808594 C 115.324219 27.621094 115.105469 27.445312 114.867188 27.28125 C 114.667969 27.140625 114.464844 27.019531 114.253906 26.90625 C 114.042969 26.792969 113.832031 26.691406 113.613281 26.601562 C 112.3125 26.039062 110.90625 25.742188 109.65625 24.789062 L 109.65625 25.140625 C 109.65625 25.246094 109.65625 25.339844 109.65625 25.429688 C 109.65625 25.515625 109.65625 25.597656 109.65625 25.675781 C 109.65625 25.753906 109.65625 25.828125 109.65625 25.902344 C 109.65625 30.304688 109.652344 34.707031 109.652344 39.109375 C 109.652344 43.515625 109.65625 47.914062 109.667969 52.320312 C 109.671875 53.207031 109.507812 54 109.210938 54.703125 C 108.558594 56.253906 107.257812 57.351562 105.652344 57.976562 C 105.21875 58.148438 104.785156 58.285156 104.351562 58.394531 C 103.050781 58.710938 101.75 58.726562 100.4375 58.332031 C 100.0625 58.21875 99.703125 58.070312 99.375 57.890625 C 99.265625 57.828125 99.160156 57.761719 99.054688 57.695312 C 97.917969 56.949219 97.167969 55.765625 97.132812 54.285156 Z M 325.109375 293.894531 C 324.25 292.78125 323.402344 291.660156 322.484375 290.597656 C 317.582031 284.910156 313.1875 278.84375 309.03125 272.597656 C 307.378906 270.113281 305.664062 267.667969 303.980469 265.203125 C 302.539062 263.097656 299.453125 258.285156 299.453125 258.285156 C 299.453125 258.285156 299.949219 254.992188 302.457031 252.621094 C 303.960938 251.203125 305.808594 250.359375 307.859375 250.214844 C 313.351562 249.832031 318.15625 251.128906 323.453125 252.179688 C 323.96875 252.285156 324.496094 252.335938 325.023438 252.347656 C 325.757812 252.363281 326.238281 251.8125 326.117188 251.09375 C 326.058594 250.757812 325.941406 250.40625 325.765625 250.113281 C 325.375 249.464844 324.941406 248.835938 324.507812 248.214844 C 323.769531 247.160156 322.980469 246.140625 322.269531 245.066406 C 317.632812 238.085938 313.433594 230.847656 309.5 223.453125 C 306.90625 218.574219 304.796875 213.519531 303.4375 208.144531 C 300.640625 197.050781 300.273438 185.390625 303.183594 174.265625 C 304.984375 167.371094 307.691406 160.40625 307.460938 153.167969 C 307.351562 149.71875 306.570312 146.46875 304.898438 143.414062 C 301.179688 136.621094 293.074219 135.628906 286.25 137.765625 C 281.128906 139.371094 270.707031 145.625 270.707031 145.625 C 271.511719 137.339844 271.667969 130.152344 271.585938 124.4375 C 271.488281 117.5 270.964844 107.050781 268.789062 94.457031 C 268.117188 90.550781 267.324219 86.070312 265.792969 80.332031 C 263.332031 71.097656 259.898438 62.082031 255.269531 53.707031 C 247.113281 38.945312 234.339844 26.789062 218.589844 20.492188 C 200.527344 13.273438 181.003906 14.617188 163.207031 22.015625 C 154.625 25.582031 146.574219 30.589844 139.648438 36.800781 C 132.617188 43.105469 125.703125 49.992188 120.09375 57.613281 C 120.039062 57.683594 119.984375 57.757812 119.933594 57.832031 C 112.027344 68.65625 106.488281 81.019531 102.664062 93.828125 C 96.824219 113.386719 94.257812 134.234375 96.25 154.59375 C 96.632812 158.484375 97.347656 162.347656 97.449219 166.265625 C 97.472656 167.195312 97.640625 170.121094 97.492188 170.386719 C 97.492188 170.386719 96.503906 172.175781 95.785156 173.46875 C 95.125 174.65625 93.414062 177.78125 93.414062 177.78125 C 91.617188 178.238281 89.640625 178.660156 87.816406 179.359375 C 86.023438 180.050781 84.308594 180.925781 82.660156 181.914062 C 79.578125 183.761719 76.765625 186.128906 74.621094 189.03125 C 73.507812 190.539062 72.484375 192.113281 71.558594 193.742188 C 65.007812 205.261719 63.625 219.152344 63.183594 232.160156 C 62.929688 239.597656 63.035156 247.03125 63.691406 254.453125 C 64.035156 258.363281 64.472656 262.257812 65.183594 266.121094 C 66.078125 270.964844 67.300781 275.71875 69.023438 280.339844 C 70.375 283.957031 72.359375 287.171875 75.113281 289.890625 C 76.78125 291.539062 78.785156 292.582031 81.113281 292.945312 C 83.539062 293.320312 82.183594 290.589844 81.816406 289.5 C 81.222656 287.726562 80.878906 285.855469 80.972656 283.980469 C 81.175781 280.03125 84.3125 274.507812 89.066406 275.734375 C 90.140625 276.011719 90.996094 276.796875 91.777344 277.578125 C 95.261719 281.074219 97.957031 285.167969 101.074219 288.96875 C 102.757812 291.027344 104.722656 292.800781 106.851562 294.332031 C 108.976562 295.863281 114.789062 298.140625 114.789062 298.140625 C 114.789062 298.140625 114.484375 305.28125 114.261719 308.492188 C 114.089844 311.003906 113.914062 313.523438 113.546875 316.007812 C 112.867188 320.640625 112.113281 325.265625 111.269531 329.871094 C 110.601562 333.519531 110.246094 337.164062 110.480469 340.875 C 110.632812 343.226562 111.511719 345.132812 113.289062 346.703125 C 115.8125 348.9375 118.617188 350.703125 121.664062 352.113281 C 125.238281 353.765625 128.304688 355.3125 132.191406 355.917969 C 136.261719 356.550781 139.417969 356.925781 143.003906 356.765625 C 146.015625 356.628906 148.441406 354.644531 148.441406 354.644531 C 148.441406 354.644531 150.976562 356.183594 152.316406 357.132812 C 157.671875 360.925781 161.625 361.566406 166.832031 361.800781 C 169.761719 361.933594 173.601562 362.027344 176.265625 360.605469 C 177.042969 360.191406 177.371094 359.589844 177.175781 358.730469 C 176.359375 355.175781 175.34375 351.703125 174.789062 348.085938 C 174.414062 345.613281 174.253906 343.824219 174.445312 340.441406 C 175.988281 340.777344 177.4375 341.25 178.933594 341.746094 C 182.964844 343.078125 186.742188 345.097656 190.246094 347.480469 C 193.742188 349.855469 197.847656 351.980469 202.011719 352.886719 C 208.820312 354.375 215.808594 354.808594 222.761719 354.90625 C 226.585938 354.960938 230.417969 355.050781 234.246094 354.867188 C 237.796875 354.691406 241.730469 354.503906 245.066406 353.167969 C 246.957031 352.410156 248.707031 351.109375 249.609375 349.28125 C 250.558594 347.359375 250.472656 345.078125 250.0625 342.972656 C 249.171875 338.394531 248.011719 333.851562 246.921875 329.3125 C 246.539062 327.722656 246.0625 325.742188 245.667969 324.152344 C 245.667969 324.152344 249.46875 322.613281 260.683594 326.207031 C 263.425781 327.085938 266.074219 328.238281 268.765625 329.261719 C 274.8125 331.5625 280.980469 333.769531 287.4375 334.566406 C 294.207031 335.402344 300.226562 334.15625 306.570312 331.828125 C 308.523438 331.109375 310.511719 330.367188 312.148438 329.078125 C 313.398438 328.097656 314.195312 326.796875 314.265625 325.179688 C 314.316406 324.003906 314.03125 322.839844 313.65625 321.726562 C 312.476562 318.175781 310.421875 314.839844 308.441406 311.691406 C 307.199219 309.714844 305.3125 307.78125 304.394531 305.648438 C 306.207031 303.023438 310.664062 301.519531 313.539062 300.480469 C 316.808594 299.300781 320.265625 298.476562 323.59375 297.675781 C 324.105469 297.550781 324.636719 297.417969 325.097656 297.171875 C 325.835938 296.773438 326.140625 295.867188 325.820312 295.09375 C 325.644531 294.667969 325.394531 294.261719 325.113281 293.898438 Z M 99.601562 171.945312 C 99.601562 171.945312 99.679688 172.015625 100.175781 172.296875 C 101.246094 172.898438 102.328125 173.484375 103.359375 174.148438 C 105.917969 175.796875 108.4375 177.5 110.992188 179.152344 C 113.5 180.773438 119.316406 184.550781 119.316406 184.550781 C 119.316406 184.550781 110.515625 199.597656 106.070312 206.523438 C 104.28125 209.308594 102.589844 212.148438 101.039062 215.074219 C 99.945312 217.136719 98.710938 219.125 97.527344 221.140625 C 97.351562 221.441406 96.683594 222.609375 96.683594 222.609375 C 95.671875 221.136719 94.25 219.796875 92.835938 218.734375 C 90.203125 216.753906 88.796875 216.308594 85.261719 215.722656 C 84.128906 215.535156 82.6875 215.652344 82.371094 215.609375 C 82.675781 214.523438 84.113281 211.261719 84.113281 211.261719 C 84.113281 211.261719 85.828125 211.011719 86.515625 210.882812 C 88.410156 210.53125 89.789062 210.171875 91.460938 209.664062 C 94.992188 208.597656 98.4375 207.289062 101.78125 205.734375 C 106.574219 203.515625 109.335938 199.617188 110.816406 194.683594 C 110.953125 194.234375 111.027344 193.769531 111.136719 193.316406 C 112.117188 189.347656 110.476562 184.460938 107.121094 182.058594 C 104.21875 179.976562 102.113281 178.6875 97.839844 178.082031 C 97.671875 178.058594 96.710938 177.886719 96.253906 177.90625 C 96.402344 177.480469 98.710938 173.527344 99.601562 171.945312 Z M 109.222656 148.367188 C 112.613281 149.789062 114.578125 150.804688 117.316406 152.523438 C 120.824219 154.726562 123.324219 156.648438 126.355469 159.476562 C 129.351562 162.277344 132.035156 165.410156 134.308594 168.824219 C 134.859375 169.648438 136.371094 171.945312 136.371094 171.945312 C 133.546875 175.765625 130.320312 177.203125 130.320312 177.203125 L 130.039062 176.695312 C 126.976562 171.207031 122.742188 167.125 117.847656 163.382812 C 115.113281 161.289062 111.925781 159.34375 108.859375 157.738281 C 106.890625 156.707031 102.527344 154.761719 102.210938 154.59375 C 103.195312 152 106.917969 147.554688 106.917969 147.554688 C 106.917969 147.554688 107.957031 147.832031 109.222656 148.367188 Z M 108.4375 146.078125 C 108.4375 146.078125 108.746094 145.703125 108.964844 145.515625 C 113.542969 141.578125 120.5625 140.226562 126.417969 141.523438 C 127.335938 141.726562 128.238281 142 129.113281 142.34375 C 139.574219 146.449219 143.332031 160.167969 138.058594 169.402344 C 137.882812 169.710938 137.59375 170.238281 137.59375 170.238281 C 134.332031 164.777344 129.914062 159.679688 124.988281 155.65625 C 120.109375 151.671875 114.457031 148.105469 108.4375 146.082031 Z M 105.644531 158.230469 C 111.886719 161.394531 117.019531 164.578125 122.085938 169.460938 C 125.164062 172.523438 128.71875 178.195312 128.71875 178.195312 C 126.898438 179.128906 124.488281 180.492188 122.667969 181.429688 C 121.972656 181.785156 121.605469 181.929688 121.605469 181.929688 C 121.605469 181.929688 108.839844 174.027344 103.039062 170.167969 C 102.257812 169.652344 99.933594 168.300781 99.933594 168.300781 C 99.933594 168.300781 99.898438 167.707031 99.914062 167.171875 C 100.023438 163.832031 100.230469 160.953125 101.117188 157.707031 C 101.191406 157.425781 101.539062 156.40625 101.539062 156.40625 C 101.539062 156.40625 104.5 157.574219 105.644531 158.230469 Z M 95.082031 224.148438 C 95.167969 225.402344 92.359375 225.589844 91.015625 225.417969 C 88.929688 225.148438 87.136719 224.636719 85.210938 223.25 C 83.890625 222.296875 81.078125 219.78125 81.660156 218.210938 C 82.035156 217.199219 86.113281 217.359375 88.960938 218.734375 C 91.675781 220.042969 92.433594 220.894531 93.082031 221.515625 C 93.417969 221.835938 95.019531 223.203125 95.085938 224.148438 Z M 320.328125 295.511719 C 319.941406 295.617188 319.550781 295.722656 319.15625 295.808594 C 315.171875 296.6875 311.328125 297.910156 307.730469 299.871094 C 304.820312 301.457031 302.316406 303.519531 300.140625 306.007812 C 299.355469 306.90625 298.867188 308 298.335938 309.066406 C 297.347656 311.066406 298.132812 314.054688 298.132812 314.054688 C 298.132812 314.054688 297.574219 313.667969 297.355469 313.539062 C 294.117188 311.605469 291.257812 309.199219 288.621094 306.511719 C 284.058594 301.863281 279.933594 296.84375 276 291.664062 C 268.085938 281.253906 260.847656 270.394531 254.632812 258.878906 C 251.910156 253.828125 249.40625 248.664062 246.800781 243.554688 C 246.320312 242.613281 245.835938 241.679688 245.335938 240.753906 C 245.171875 240.449219 244.953125 240.167969 244.734375 239.894531 C 244.675781 239.824219 244.519531 239.777344 244.429688 239.800781 C 244.351562 239.820312 244.238281 239.964844 244.25 240.035156 C 244.324219 240.496094 244.375 240.96875 244.53125 241.402344 C 245.007812 242.722656 245.511719 244.035156 246.039062 245.335938 C 251.398438 258.519531 258.332031 270.839844 266.410156 282.542969 C 270.273438 288.136719 274.253906 293.632812 278.570312 298.886719 C 281.28125 302.191406 284.109375 305.402344 287.167969 308.394531 C 289.894531 311.066406 292.886719 313.386719 296.105469 315.457031 C 299.007812 317.320312 302.066406 318.875 305.125 320.46875 C 306.625 321.25 308.695312 321.90625 309.777344 323.265625 C 314.199219 328.824219 294.550781 331.296875 291.636719 331.339844 C 285.558594 331.429688 279.722656 329.472656 274.089844 327.382812 C 270.78125 326.15625 267.390625 325.207031 264.0625 324.03125 C 256.640625 321.414062 249.292969 319.394531 241.476562 321.707031 C 233.414062 324.089844 230.152344 330.621094 230.152344 330.621094 C 230.152344 330.621094 225.261719 321.828125 223.914062 317.636719 C 222.179688 312.226562 220.828125 306.710938 219.355469 301.226562 C 216.597656 290.980469 214.753906 280.550781 212.9375 270.113281 C 211.769531 263.417969 210.796875 256.699219 210.136719 249.9375 C 209.804688 246.558594 209.441406 243.179688 209.078125 239.804688 C 208.996094 239.050781 208.875 238.296875 208.734375 237.550781 C 208.707031 237.421875 208.511719 237.265625 208.363281 237.230469 C 208.101562 237.160156 207.921875 237.355469 207.855469 237.582031 C 207.769531 237.859375 207.734375 238.152344 207.6875 238.441406 C 207.464844 239.835938 207.429688 241.242188 207.472656 242.648438 C 207.65625 248.796875 208.054688 254.929688 208.726562 261.046875 C 209.878906 271.472656 211.574219 281.8125 213.769531 292.0625 C 215.472656 300.015625 217.566406 307.882812 220.074219 315.628906 C 223.242188 325.410156 228.671875 338.128906 239.023438 342.171875 C 241.550781 343.160156 244.617188 343.511719 246.578125 345.542969 C 248.804688 347.851562 243.769531 350.105469 242.09375 350.636719 C 240.078125 351.277344 237.953125 351.464844 235.84375 351.617188 C 230.445312 352 225.011719 352.167969 219.617188 351.703125 C 216.746094 351.457031 213.746094 350.972656 210.886719 350.457031 C 207.796875 349.902344 204.730469 348.984375 202.070312 347.273438 C 198.214844 344.792969 195.414062 340.847656 193.054688 336.996094 C 190.484375 332.800781 188.390625 328.203125 186.710938 323.574219 C 185.332031 319.777344 184.003906 315.960938 182.800781 312.105469 C 180.394531 304.386719 178.515625 296.535156 176.855469 288.625 C 175.421875 281.808594 174.179688 274.953125 173.105469 268.070312 C 172.34375 263.210938 171.703125 258.335938 171.160156 253.445312 C 170.527344 247.796875 170.128906 242.136719 169.738281 236.464844 C 169.363281 230.972656 169.257812 225.46875 169.144531 219.964844 C 169.132812 219.441406 169.222656 218.902344 168.992188 218.40625 C 168.957031 218.324219 168.816406 218.253906 168.714844 218.242188 C 168.613281 218.230469 168.445312 218.273438 168.40625 218.34375 C 168.273438 218.597656 168.136719 218.863281 168.085938 219.140625 C 167.828125 220.585938 167.773438 222.046875 167.75 223.515625 C 167.65625 229.019531 167.742188 234.519531 168.011719 240.023438 C 168.347656 246.8125 168.929688 253.574219 169.746094 260.324219 C 171.277344 273.007812 173.585938 285.550781 176.503906 297.984375 C 177.25 301.179688 178.101562 304.34375 179.050781 307.480469 C 180.273438 311.511719 181.539062 315.53125 182.75 319.566406 C 184.457031 325.242188 186.636719 330.730469 189.15625 336.085938 C 190.175781 338.261719 191.300781 340.378906 192.550781 342.433594 C 192.789062 342.828125 193.554688 344.097656 193.554688 344.097656 C 193.554688 344.097656 192.429688 343.664062 192.085938 343.519531 C 187.117188 341.457031 182.144531 339.40625 177.191406 337.308594 C 173.082031 335.570312 168.816406 334.757812 164.363281 334.890625 C 160.796875 334.996094 157.175781 335.769531 153.933594 337.285156 C 152.675781 337.875 151.476562 338.609375 150.414062 339.511719 C 149.882812 339.960938 149.398438 340.453125 148.945312 340.984375 C 148.769531 341.191406 147.59375 342.332031 147.625 342.535156 C 147.480469 341.621094 147.34375 340.707031 147.214844 339.792969 C 146.683594 336.199219 146.363281 332.566406 146.078125 328.945312 C 145.519531 321.871094 145.078125 314.789062 144.546875 307.710938 C 144.25 303.742188 143.902344 299.773438 143.605469 295.804688 C 143.4375 293.585938 143.277344 291.363281 143.203125 289.140625 C 143.046875 284.457031 142.738281 279.78125 142.34375 275.109375 C 142.003906 271.085938 141.546875 267.070312 141.152344 263.050781 C 140.996094 261.476562 140.835938 259.902344 140.734375 258.324219 C 140.304688 251.664062 139.730469 245.007812 139.515625 238.332031 C 139.425781 235.632812 139.058594 232.96875 138.574219 230.316406 C 138.53125 230.085938 138.496094 229.851562 138.417969 229.632812 C 138.339844 229.40625 138.183594 229.222656 137.925781 229.199219 C 137.65625 229.175781 137.476562 229.359375 137.390625 229.570312 C 137.28125 229.835938 137.1875 230.125 137.171875 230.410156 C 137.132812 231.167969 137.113281 231.929688 137.117188 232.691406 C 137.125 234.449219 137.160156 236.207031 137.160156 237.964844 C 137.15625 245.113281 137.523438 252.246094 138.113281 259.371094 C 138.5625 264.796875 139.097656 270.21875 139.511719 275.648438 C 139.777344 279.148438 139.917969 282.664062 140.074219 286.171875 C 140.402344 293.488281 140.925781 300.785156 141.589844 308.078125 C 141.910156 311.632812 142.105469 315.203125 142.398438 318.761719 C 142.691406 322.320312 143.023438 325.878906 143.355469 329.433594 C 143.535156 331.355469 144.757812 343.707031 144.757812 343.707031 C 144.757812 343.707031 143.546875 343.050781 143.238281 342.882812 C 139.992188 341.109375 136.480469 339.867188 132.847656 339.171875 C 126.558594 337.964844 119.835938 338.296875 114.003906 341.113281 C 113.691406 341.261719 113.363281 341.367188 112.976562 341.515625 C 112.5625 340.257812 112.605469 339.027344 112.6875 337.808594 C 112.832031 335.707031 113.1875 333.632812 113.605469 331.5625 C 114.726562 326 115.976562 320.453125 116.636719 314.808594 C 116.992188 311.726562 117.183594 308.625 117.441406 305.535156 C 117.582031 303.84375 117.691406 302.148438 117.835938 300.457031 C 118.210938 296.011719 118.054688 291.566406 117.917969 287.113281 C 117.710938 280.4375 117.285156 273.777344 116.703125 267.125 C 116.179688 261.175781 115.609375 255.230469 114.953125 249.292969 C 114.5 245.222656 113.996094 241.152344 112.902344 237.1875 C 112.652344 236.285156 112.386719 235.386719 112.089844 234.496094 C 111.945312 234.054688 111.78125 233.597656 111.390625 233.300781 C 111.265625 233.210938 111.054688 233.140625 110.917969 233.179688 C 110.773438 233.222656 110.589844 233.394531 110.566406 233.53125 C 110.511719 233.875 110.5 234.234375 110.539062 234.578125 C 110.65625 235.628906 110.769531 236.675781 110.945312 237.714844 C 111.59375 241.527344 111.953125 245.375 112.269531 249.226562 C 112.578125 253.019531 112.871094 256.816406 113.160156 260.613281 C 113.453125 264.40625 113.703125 268.207031 114.011719 272 C 114.515625 278.1875 114.554688 281.355469 114.8125 287.554688 C 114.84375 288.375 115.007812 294.230469 115.007812 294.230469 C 115.007812 294.230469 113.050781 293.449219 112.589844 293.203125 C 109.902344 291.746094 107.394531 290.042969 105.203125 287.890625 C 103.441406 286.164062 101.898438 284.253906 100.355469 282.335938 C 97.914062 279.292969 95.605469 276.167969 92.421875 273.84375 C 89.390625 271.632812 85.84375 270.113281 82.113281 269.621094 C 77.585938 269.027344 74.652344 271.390625 71.730469 274.535156 C 71.730469 274.535156 69.632812 266.820312 69.007812 263.421875 C 68.351562 259.851562 67.761719 256.269531 67.390625 252.65625 C 66.628906 245.25 66.144531 237.835938 66.757812 230.386719 C 67.074219 226.535156 67.308594 222.675781 67.621094 218.820312 C 68.058594 213.386719 68.695312 207.75 70.609375 202.613281 C 72.371094 197.882812 75.144531 193.492188 78.527344 189.816406 C 84.128906 183.71875 91.675781 180.398438 99.957031 182.117188 C 102.699219 182.683594 105.496094 183.921875 107.121094 186.3125 C 108.933594 188.976562 108.96875 192.753906 107.832031 195.683594 C 106.085938 200.179688 101.292969 202.835938 97.125 204.742188 C 92.515625 206.847656 87.558594 208.074219 82.613281 209.097656 C 82.160156 209.191406 81.695312 209.269531 81.257812 209.425781 C 80.726562 209.613281 79.585938 209.941406 79.746094 210.503906 C 79.90625 211.070312 81.523438 211.265625 81.523438 211.265625 C 81.523438 211.265625 79.910156 214.742188 79.398438 216.296875 C 79.191406 216.925781 79.046875 217.773438 79.152344 218.417969 C 79.761719 222.09375 82.523438 224.835938 86.152344 226.464844 C 90.226562 228.292969 93.578125 227.84375 95.648438 226.980469 C 98.566406 225.761719 99.851562 222.902344 101.335938 220.292969 C 102.523438 218.207031 103.628906 216.074219 104.839844 214 C 106.34375 211.425781 107.886719 208.867188 109.476562 206.339844 C 112.285156 201.878906 114.8125 197.253906 117.484375 192.710938 C 119.027344 190.089844 122.496094 184.214844 122.496094 184.214844 C 122.496094 184.214844 123.742188 183.597656 124.203125 183.40625 C 130.96875 180.601562 136.472656 177.582031 140.101562 171.328125 C 143.421875 165.601562 144.234375 158.617188 142.164062 152.316406 C 140.308594 146.683594 135.820312 142.445312 130.472656 140.035156 C 120.398438 135.496094 108.996094 140.023438 102.675781 148.503906 C 101.691406 149.820312 100.796875 151.304688 100.109375 152.800781 C 99.992188 153.058594 99.402344 154.511719 99.261719 154.753906 C 99.261719 154.753906 98.675781 147.308594 98.753906 143.84375 C 98.855469 139.382812 99.003906 134.929688 99.355469 130.476562 C 102.160156 94.917969 114.695312 57.695312 145.242188 36.523438 C 161.777344 25.0625 181.730469 15.863281 202.359375 19.570312 C 208.28125 20.636719 213.863281 22.976562 219.375 25.3125 C 230.3125 29.945312 239.238281 37.402344 246.265625 46.945312 C 251.28125 53.753906 255.367188 61.316406 258.664062 69.09375 C 259.363281 71.535156 260.449219 73.980469 261.285156 76.386719 C 262.121094 78.800781 262.625 81.386719 263.183594 83.890625 C 264.359375 89.109375 265.332031 94.371094 266.105469 99.664062 C 268.132812 113.503906 268.621094 127.285156 267.738281 141.234375 C 267.613281 143.21875 266.980469 147.960938 266.980469 147.960938 C 266.980469 147.960938 259.144531 153.203125 255.503906 155.441406 C 249.671875 159.027344 243.683594 162.347656 237.714844 165.695312 C 237.203125 165.980469 236.703125 166.28125 236.210938 166.601562 C 235.96875 166.757812 235.734375 166.945312 235.546875 167.164062 C 235.261719 167.496094 235.148438 167.878906 235.378906 168.300781 C 235.601562 168.703125 235.960938 168.914062 236.394531 168.847656 C 236.910156 168.769531 237.417969 168.597656 237.917969 168.441406 C 240.71875 167.550781 243.332031 166.246094 245.917969 164.867188 C 250.273438 162.546875 254.660156 160.285156 258.886719 157.726562 C 264.332031 154.433594 269.582031 150.828125 275.003906 147.492188 C 277.703125 145.835938 280.449219 144.238281 283.269531 142.792969 C 288.054688 140.335938 293.769531 138.253906 298.746094 141.550781 C 301.8125 143.585938 303.480469 147.265625 303.898438 150.921875 C 304.757812 158.378906 301.816406 166.21875 299.941406 173.332031 C 298.820312 177.597656 298.1875 181.929688 298.015625 186.335938 C 297.964844 187.679688 297.84375 189.023438 297.816406 190.371094 C 297.746094 193.886719 297.957031 197.394531 298.472656 200.875 C 299.160156 205.515625 300.253906 210.066406 301.710938 214.527344 C 302.898438 218.164062 304.632812 221.554688 306.464844 224.886719 C 309.058594 229.605469 311.757812 234.265625 314.445312 238.933594 C 315.203125 240.253906 318.332031 244.835938 318.332031 244.835938 C 314.175781 242.300781 309.988281 239.878906 305.023438 239.476562 C 301.683594 239.207031 297.019531 239.835938 294.539062 242.367188 C 292.28125 244.667969 291.488281 248.652344 293.609375 251.277344 C 294.699219 252.625 298.683594 256.777344 294.699219 257.542969 C 291.660156 258.125 288.28125 256.972656 285.3125 256.308594 C 282.027344 255.574219 278.765625 254.691406 275.59375 253.550781 C 270.277344 251.640625 264.941406 248.945312 260.746094 245.105469 C 258.972656 243.484375 257.171875 241.902344 255.382812 240.300781 C 255.207031 240.144531 255.03125 239.992188 254.847656 239.847656 C 254.613281 239.660156 254.359375 239.523438 254.046875 239.644531 C 253.800781 239.734375 253.8125 240.121094 254.144531 240.554688 C 254.820312 241.4375 255.519531 242.300781 256.230469 243.15625 C 256.664062 243.6875 257.117188 244.203125 257.578125 244.710938 C 259.390625 246.703125 261.398438 248.507812 263.5625 250.109375 C 268.195312 253.539062 273.480469 255.992188 278.964844 257.710938 C 281.671875 258.558594 284.433594 259.171875 287.195312 259.816406 C 290.175781 260.511719 293.46875 260.996094 296.398438 259.835938 L 297.15625 259.535156 C 297.15625 259.535156 298.972656 262.503906 299.675781 263.585938 C 304.136719 270.460938 308.511719 277.394531 313.207031 284.113281 C 315.5625 287.480469 321.875 295.039062 321.875 295.039062 C 321.402344 295.296875 320.847656 295.371094 320.324219 295.515625 Z M 320.328125 295.511719 " fill-opacity="1" fill-rule="nonzero"/></g></svg>