<svg width="184" height="125" viewBox="0 0 184 125" fill="none" xmlns="http://www.w3.org/2000/svg">
<g filter="url(#filter0_d_2029_3659)">
<path d="M164.852 50.9808L93.6499 13.7094C91.1999 12.4274 87.0572 12.8184 84.3972 14.5825L18.0646 58.5695L4.07707 59.2926L4.59321 69.2763C4.5965 69.3399 4.59968 69.4014 4.60286 69.4629L4.60424 69.4896C4.69335 69.9703 4.89039 70.4022 5.19315 70.7814C5.4979 71.1605 5.86988 71.4414 6.3133 71.6283L90.2817 115.587C92.7317 116.869 96.8764 116.478 99.5343 114.714L177.237 63.1825C178.619 62.2659 179.323 61.1602 179.342 60.1289L179.354 60.1283L178.844 50.2574L164.852 50.9808Z" fill="#F8F9FD"/>
<path d="M89.165 13.667C90.756 13.5169 92.2645 13.7367 93.3409 14.2999L164.543 51.571L164.705 51.6555L178.212 50.9572L178.678 59.9745L178.676 60.1164C178.662 60.8442 178.152 61.776 176.868 62.6271L99.1655 114.159C97.9434 114.97 96.3525 115.479 94.7678 115.629C93.2759 115.77 91.8561 115.586 90.7976 115.098L90.5909 114.996L6.62239 71.0374L6.59828 71.025L6.57227 71.0136L6.44709 70.9565C6.16234 70.816 5.92063 70.6216 5.71443 70.3656C5.48763 70.0816 5.33961 69.7617 5.2676 69.4021L4.77757 59.9235L18.281 59.2254L18.4332 59.1246L84.7654 15.1383C85.9888 14.327 87.5803 13.8166 89.165 13.667Z" stroke="black" stroke-width="1.33333"/>
</g>
<path d="M88.7385 5.51224C90.2513 5.37134 91.7031 5.55018 92.7956 6.04078L93.0092 6.14317L176.915 48.9121C178.017 49.4734 178.417 50.226 178.366 50.9425C178.311 51.6982 177.743 52.6107 176.482 53.4278L98.7279 103.785C97.4753 104.596 95.8544 105.104 94.2451 105.255C92.6311 105.405 91.0854 105.191 89.9704 104.623L6.0684 61.8546L6.06742 61.8547C4.9664 61.2924 4.56686 60.5397 4.61881 59.8232C4.67363 59.0672 5.24095 58.1542 6.5037 57.3369L84.2555 6.98002C85.5081 6.16838 87.1296 5.66214 88.7385 5.51224Z" fill="#00CED1" stroke="black"/>
<defs>
<filter id="filter0_d_2029_3659" x="0.0771484" y="12.9546" width="183.277" height="111.387" filterUnits="userSpaceOnUse" color-interpolation-filters="sRGB">
<feFlood flood-opacity="0" result="BackgroundImageFix"/>
<feColorMatrix in="SourceAlpha" type="matrix" values="0 0 0 0 0 0 0 0 0 0 0 0 0 0 0 0 0 0 127 0" result="hardAlpha"/>
<feOffset dy="4"/>
<feGaussianBlur stdDeviation="2"/>
<feComposite in2="hardAlpha" operator="out"/>
<feColorMatrix type="matrix" values="0 0 0 0 0 0 0 0 0 0 0 0 0 0 0 0 0 0 0.25 0"/>
<feBlend mode="normal" in2="BackgroundImageFix" result="effect1_dropShadow_2029_3659"/>
<feBlend mode="normal" in="SourceGraphic" in2="effect1_dropShadow_2029_3659" result="shape"/>
</filter>
</defs>
</svg>
